<?xml version="1.0" encoding="UTF-8" standalone="no"?>
<!DOCTYPE svg PUBLIC "-//W3C//DTD SVG 1.1//EN"
 "http://www.w3.org/Graphics/SVG/1.1/DTD/svg11.dtd">
<!-- Generated by graphviz version 2.40.1 (20161225.0304)
 -->
<!-- Title: iogames Pages: 1 -->
<svg width="1572pt" height="1274pt"
 viewBox="0.00 0.00 1571.50 1274.00" xmlns="http://www.w3.org/2000/svg" xmlns:xlink="http://www.w3.org/1999/xlink">
<g id="graph0" class="graph" transform="scale(1 1) rotate(0) translate(4 1270)">
<title>iogames</title>
<polygon fill="#ffffff" stroke="transparent" points="-4,4 -4,-1270 1567.5,-1270 1567.5,4 -4,4"/>
<text text-anchor="start" x="700.25" y="-1251.8" font-family="Times,serif" font-weight="bold" text-decoration="underline" font-size="14.00" fill="#000000">History of .io games</text>
<text text-anchor="start" x="714.25" y="-1237.8" font-family="Times,serif" font-size="14.00" fill="#000000">by </text>
<text text-anchor="start" x="736.25" y="-1237.8" font-family="Times,serif" font-weight="bold" font-size="14.00" fill="#000000">Julien Mourer</text>
<text text-anchor="start" x="672.75" y="-1223.8" font-family="Times,serif" font-size="14.00" fill="#000000">Licensed under the CC BY 4.0</text>
<!-- 2014q4 -->
<g id="node1" class="node">
<title>2014q4</title>
<text text-anchor="middle" x="52" y="-1192" font-family="Times,serif" font-size="20.00" fill="#000000">Q4 2014</text>
</g>
<!-- 2015q1 -->
<g id="node2" class="node">
<title>2015q1</title>
<text text-anchor="middle" x="52" y="-1119" font-family="Times,serif" font-size="20.00" fill="#000000">Q1 2015</text>
</g>
<!-- 2014q4&#45;&gt;2015q1 -->
<!-- 2015q2 -->
<g id="node3" class="node">
<title>2015q2</title>
<text text-anchor="middle" x="52" y="-1046" font-family="Times,serif" font-size="20.00" fill="#000000">Q2 2015</text>
</g>
<!-- 2015q1&#45;&gt;2015q2 -->
<!-- 2015q3 -->
<g id="node4" class="node">
<title>2015q3</title>
<text text-anchor="middle" x="52" y="-973" font-family="Times,serif" font-size="20.00" fill="#000000">Q3 2015</text>
</g>
<!-- 2015q2&#45;&gt;2015q3 -->
<!-- 2015q4 -->
<g id="node5" class="node">
<title>2015q4</title>
<text text-anchor="middle" x="52" y="-901" font-family="Times,serif" font-size="20.00" fill="#000000">Q4 2015</text>
</g>
<!-- 2015q3&#45;&gt;2015q4 -->
<!-- 2016q1 -->
<g id="node6" class="node">
<title>2016q1</title>
<text text-anchor="middle" x="52" y="-828" font-family="Times,serif" font-size="20.00" fill="#000000">Q1 2016</text>
</g>
<!-- 2015q4&#45;&gt;2016q1 -->
<!-- 2016q2 -->
<g id="node7" class="node">
<title>2016q2</title>
<text text-anchor="middle" x="52" y="-754" font-family="Times,serif" font-size="20.00" fill="#000000">Q2 2016</text>
</g>
<!-- 2016q1&#45;&gt;2016q2 -->
<!-- 2016q3 -->
<g id="node8" class="node">
<title>2016q3</title>
<text text-anchor="middle" x="52" y="-680" font-family="Times,serif" font-size="20.00" fill="#000000">Q3 2016</text>
</g>
<!-- 2016q2&#45;&gt;2016q3 -->
<!-- 2016q4 -->
<g id="node9" class="node">
<title>2016q4</title>
<text text-anchor="middle" x="52" y="-606" font-family="Times,serif" font-size="20.00" fill="#000000">Q4 2016</text>
</g>
<!-- 2016q3&#45;&gt;2016q4 -->
<!-- 2017q1 -->
<g id="node10" class="node">
<title>2017q1</title>
<text text-anchor="middle" x="52" y="-532" font-family="Times,serif" font-size="20.00" fill="#000000">Q1 2017</text>
</g>
<!-- 2016q4&#45;&gt;2017q1 -->
<!-- 2017q2 -->
<g id="node11" class="node">
<title>2017q2</title>
<text text-anchor="middle" x="52" y="-458" font-family="Times,serif" font-size="20.00" fill="#000000">Q2 2017</text>
</g>
<!-- 2017q1&#45;&gt;2017q2 -->
<!-- 2017q3 -->
<g id="node12" class="node">
<title>2017q3</title>
<text text-anchor="middle" x="52" y="-384" font-family="Times,serif" font-size="20.00" fill="#000000">Q3 2017</text>
</g>
<!-- 2017q2&#45;&gt;2017q3 -->
<!-- 2017q4 -->
<g id="node13" class="node">
<title>2017q4</title>
<text text-anchor="middle" x="52" y="-310" font-family="Times,serif" font-size="20.00" fill="#000000">Q4 2017</text>
</g>
<!-- 2017q3&#45;&gt;2017q4 -->
<!-- 2018q1 -->
<g id="node14" class="node">
<title>2018q1</title>
<text text-anchor="middle" x="52" y="-236" font-family="Times,serif" font-size="20.00" fill="#000000">Q1 2018</text>
</g>
<!-- 2017q4&#45;&gt;2018q1 -->
<!-- 2018q2 -->
<g id="node15" class="node">
<title>2018q2</title>
<text text-anchor="middle" x="52" y="-162" font-family="Times,serif" font-size="20.00" fill="#000000">Q2 2018</text>
</g>
<!-- 2018q1&#45;&gt;2018q2 -->
<!-- 2018q3 -->
<g id="node16" class="node">
<title>2018q3</title>
<text text-anchor="middle" x="52" y="-88" font-family="Times,serif" font-size="20.00" fill="#000000">Q3 2018</text>
</g>
<!-- 2018q2&#45;&gt;2018q3 -->
<!-- 2018q4 -->
<g id="node17" class="node">
<title>2018q4</title>
<text text-anchor="middle" x="52" y="-14" font-family="Times,serif" font-size="20.00" fill="#000000">Q4 2018</text>
</g>
<!-- 2018q3&#45;&gt;2018q4 -->
<!-- cursors.io -->
<g id="node18" class="node">
<title>cursors.io</title>
<path fill="#90caf9" stroke="#90caf9" d="M263.5,-1216C263.5,-1216 134.5,-1216 134.5,-1216 128.5,-1216 122.5,-1210 122.5,-1204 122.5,-1204 122.5,-1190 122.5,-1190 122.5,-1184 128.5,-1178 134.5,-1178 134.5,-1178 263.5,-1178 263.5,-1178 269.5,-1178 275.5,-1184 275.5,-1190 275.5,-1190 275.5,-1204 275.5,-1204 275.5,-1210 269.5,-1216 263.5,-1216"/>
<text text-anchor="middle" x="199" y="-1200.8" font-family="Times,serif" font-size="14.00" fill="#000000">cursors.io</text>
<text text-anchor="middle" x="199" y="-1185.8" font-family="Times,serif" font-size="14.00" fill="#000000">Matheus Valadares</text>
</g>
<!-- agar.io -->
<g id="node19" class="node">
<title>agar.io</title>
<path fill="#90caf9" stroke="#90caf9" d="M670.5,-1070C670.5,-1070 541.5,-1070 541.5,-1070 535.5,-1070 529.5,-1064 529.5,-1058 529.5,-1058 529.5,-1044 529.5,-1044 529.5,-1038 535.5,-1032 541.5,-1032 541.5,-1032 670.5,-1032 670.5,-1032 676.5,-1032 682.5,-1038 682.5,-1044 682.5,-1044 682.5,-1058 682.5,-1058 682.5,-1064 676.5,-1070 670.5,-1070"/>
<text text-anchor="middle" x="606" y="-1054.8" font-family="Times,serif" font-size="14.00" fill="#000000">agar.io</text>
<text text-anchor="middle" x="606" y="-1039.8" font-family="Times,serif" font-size="14.00" fill="#000000">Matheus Valadares</text>
</g>
<!-- deeeep.io -->
<g id="node26" class="node">
<title>deeeep.io</title>
<path fill="#90caf9" stroke="#90caf9" d="M404.5,-629C404.5,-629 343.5,-629 343.5,-629 337.5,-629 331.5,-623 331.5,-617 331.5,-617 331.5,-605 331.5,-605 331.5,-599 337.5,-593 343.5,-593 343.5,-593 404.5,-593 404.5,-593 410.5,-593 416.5,-599 416.5,-605 416.5,-605 416.5,-617 416.5,-617 416.5,-623 410.5,-629 404.5,-629"/>
<text text-anchor="middle" x="374" y="-607.3" font-family="Times,serif" font-size="14.00" fill="#000000">deeeep.io</text>
</g>
<!-- agar.io&#45;&gt;deeeep.io -->
<g id="edge38" class="edge">
<title>agar.io&#45;&gt;deeeep.io</title>
<path fill="none" stroke="#000000" d="M570.5495,-1031.7958C531.7533,-1007.8961 475,-963.1649 475,-906 475,-906 475,-906 475,-759 475,-708.5993 434.5437,-662.7129 404.8403,-635.815"/>
<polygon fill="#000000" stroke="#000000" points="406.9917,-633.046 397.1714,-629.0693 402.3684,-638.302 406.9917,-633.046"/>
</g>
<!-- pie.ai -->
<g id="node34" class="node">
<title>pie.ai</title>
<path fill="#90caf9" stroke="#90caf9" d="M622,-555C622,-555 590,-555 590,-555 584,-555 578,-549 578,-543 578,-543 578,-531 578,-531 578,-525 584,-519 590,-519 590,-519 622,-519 622,-519 628,-519 634,-525 634,-531 634,-531 634,-543 634,-543 634,-549 628,-555 622,-555"/>
<text text-anchor="middle" x="606" y="-533.3" font-family="Times,serif" font-size="14.00" fill="#000000">pie.ai</text>
</g>
<!-- agar.io&#45;&gt;pie.ai -->
<g id="edge33" class="edge">
<title>agar.io&#45;&gt;pie.ai</title>
<path fill="none" stroke="#000000" d="M606,-1031.767C606,-1003.9984 606,-951.0608 606,-906 606,-906 606,-906 606,-685 606,-643.3509 606,-595.109 606,-565.3209"/>
<polygon fill="#000000" stroke="#000000" points="609.5001,-565.2276 606,-555.2276 602.5001,-565.2277 609.5001,-565.2276"/>
</g>
<!-- spinz.io -->
<g id="node39" class="node">
<title>spinz.io</title>
<path fill="#90caf9" stroke="#90caf9" d="M690,-482C690,-482 634,-482 634,-482 628,-482 622,-476 622,-470 622,-470 622,-456 622,-456 622,-450 628,-444 634,-444 634,-444 690,-444 690,-444 696,-444 702,-450 702,-456 702,-456 702,-470 702,-470 702,-476 696,-482 690,-482"/>
<text text-anchor="middle" x="662" y="-466.8" font-family="Times,serif" font-size="14.00" fill="#000000">spinz.io</text>
<text text-anchor="middle" x="662" y="-451.8" font-family="Times,serif" font-size="14.00" fill="#000000">Yang Lui</text>
</g>
<!-- agar.io&#45;&gt;spinz.io -->
<g id="edge32" class="edge">
<title>agar.io&#45;&gt;spinz.io</title>
<path fill="none" stroke="#000000" d="M618.7073,-1031.7432C635.2296,-1004.796 662,-953.7648 662,-906 662,-906 662,-906 662,-611 662,-569.8086 662,-522.1685 662,-492.3096"/>
<polygon fill="#000000" stroke="#000000" points="665.5001,-492.1583 662,-482.1583 658.5001,-492.1583 665.5001,-492.1583"/>
</g>
<!-- slither.io -->
<g id="node20" class="node">
<title>slither.io</title>
<path fill="#90caf9" stroke="#90caf9" d="M861,-852C861,-852 775,-852 775,-852 769,-852 763,-846 763,-840 763,-840 763,-826 763,-826 763,-820 769,-814 775,-814 775,-814 861,-814 861,-814 867,-814 873,-820 873,-826 873,-826 873,-840 873,-840 873,-846 867,-852 861,-852"/>
<text text-anchor="middle" x="818" y="-836.8" font-family="Times,serif" font-size="14.00" fill="#000000">slither.io</text>
<text text-anchor="middle" x="818" y="-821.8" font-family="Times,serif" font-size="14.00" fill="#000000">Steve Howse</text>
</g>
<!-- limax.io -->
<g id="node23" class="node">
<title>limax.io</title>
<path fill="#90caf9" stroke="#90caf9" d="M778,-778C778,-778 702,-778 702,-778 696,-778 690,-772 690,-766 690,-766 690,-752 690,-752 690,-746 696,-740 702,-740 702,-740 778,-740 778,-740 784,-740 790,-746 790,-752 790,-752 790,-766 790,-766 790,-772 784,-778 778,-778"/>
<text text-anchor="middle" x="740" y="-762.8" font-family="Times,serif" font-size="14.00" fill="#000000">limax.io</text>
<text text-anchor="middle" x="740" y="-747.8" font-family="Times,serif" font-size="14.00" fill="#000000">LapaMauve</text>
</g>
<!-- slither.io&#45;&gt;limax.io -->
<g id="edge19" class="edge">
<title>slither.io&#45;&gt;limax.io</title>
<path fill="none" stroke="#000000" d="M797.9131,-813.9432C788.7048,-805.2072 777.6406,-794.7103 767.6611,-785.2426"/>
<polygon fill="#000000" stroke="#000000" points="769.9535,-782.593 760.29,-778.2495 765.1357,-787.6712 769.9535,-782.593"/>
</g>
<!-- wormax.io -->
<g id="node25" class="node">
<title>wormax.io</title>
<path fill="#90caf9" stroke="#90caf9" d="M851.5,-704C851.5,-704 784.5,-704 784.5,-704 778.5,-704 772.5,-698 772.5,-692 772.5,-692 772.5,-678 772.5,-678 772.5,-672 778.5,-666 784.5,-666 784.5,-666 851.5,-666 851.5,-666 857.5,-666 863.5,-672 863.5,-678 863.5,-678 863.5,-692 863.5,-692 863.5,-698 857.5,-704 851.5,-704"/>
<text text-anchor="middle" x="818" y="-688.8" font-family="Times,serif" font-size="14.00" fill="#000000">wormax.io</text>
<text text-anchor="middle" x="818" y="-673.8" font-family="Times,serif" font-size="14.00" fill="#000000">Elyland</text>
</g>
<!-- slither.io&#45;&gt;wormax.io -->
<g id="edge17" class="edge">
<title>slither.io&#45;&gt;wormax.io</title>
<path fill="none" stroke="#000000" d="M818,-813.9546C818,-788.7839 818,-744.1799 818,-714.5976"/>
<polygon fill="#000000" stroke="#000000" points="821.5001,-714.4423 818,-704.4423 814.5001,-714.4423 821.5001,-714.4423"/>
</g>
<!-- wormate.io -->
<g id="node28" class="node">
<title>wormate.io</title>
<path fill="#90caf9" stroke="#90caf9" d="M954.5,-630C954.5,-630 829.5,-630 829.5,-630 823.5,-630 817.5,-624 817.5,-618 817.5,-618 817.5,-604 817.5,-604 817.5,-598 823.5,-592 829.5,-592 829.5,-592 954.5,-592 954.5,-592 960.5,-592 966.5,-598 966.5,-604 966.5,-604 966.5,-618 966.5,-618 966.5,-624 960.5,-630 954.5,-630"/>
<text text-anchor="middle" x="892" y="-614.8" font-family="Times,serif" font-size="14.00" fill="#000000">wormate.io</text>
<text text-anchor="middle" x="892" y="-599.8" font-family="Times,serif" font-size="14.00" fill="#000000">Oleksandr Godoba</text>
</g>
<!-- slither.io&#45;&gt;wormate.io -->
<g id="edge18" class="edge">
<title>slither.io&#45;&gt;wormate.io</title>
<path fill="none" stroke="#000000" d="M827.3817,-813.7501C839.183,-788.8978 859.4216,-744.0748 872,-704 878.6042,-682.9588 883.7604,-658.5644 887.1823,-640.0401"/>
<polygon fill="#000000" stroke="#000000" points="890.6365,-640.6064 888.9487,-630.1468 883.7455,-639.3759 890.6365,-640.6064"/>
</g>
<!-- diep.io -->
<g id="node21" class="node">
<title>diep.io</title>
<path fill="#90caf9" stroke="#90caf9" d="M1058.5,-852C1058.5,-852 929.5,-852 929.5,-852 923.5,-852 917.5,-846 917.5,-840 917.5,-840 917.5,-826 917.5,-826 917.5,-820 923.5,-814 929.5,-814 929.5,-814 1058.5,-814 1058.5,-814 1064.5,-814 1070.5,-820 1070.5,-826 1070.5,-826 1070.5,-840 1070.5,-840 1070.5,-846 1064.5,-852 1058.5,-852"/>
<text text-anchor="middle" x="994" y="-836.8" font-family="Times,serif" font-size="14.00" fill="#000000">diep.io</text>
<text text-anchor="middle" x="994" y="-821.8" font-family="Times,serif" font-size="14.00" fill="#000000">Matheus Valadares</text>
</g>
<!-- tanksmith.io -->
<g id="node51" class="node">
<title>tanksmith.io</title>
<path fill="#90caf9" stroke="#90caf9" d="M1035.5,-186C1035.5,-186 952.5,-186 952.5,-186 946.5,-186 940.5,-180 940.5,-174 940.5,-174 940.5,-160 940.5,-160 940.5,-154 946.5,-148 952.5,-148 952.5,-148 1035.5,-148 1035.5,-148 1041.5,-148 1047.5,-154 1047.5,-160 1047.5,-160 1047.5,-174 1047.5,-174 1047.5,-180 1041.5,-186 1035.5,-186"/>
<text text-anchor="middle" x="994" y="-170.8" font-family="Times,serif" font-size="14.00" fill="#000000">tanksmith.io</text>
<text text-anchor="middle" x="994" y="-155.8" font-family="Times,serif" font-size="14.00" fill="#000000">IO Ninja</text>
</g>
<!-- diep.io&#45;&gt;tanksmith.io -->
<g id="edge39" class="edge">
<title>diep.io&#45;&gt;tanksmith.io</title>
<path fill="none" stroke="#000000" d="M994,-813.8417C994,-785.6299 994,-731.25 994,-685 994,-685 994,-685 994,-315 994,-273.8086 994,-226.1685 994,-196.3096"/>
<polygon fill="#000000" stroke="#000000" points="997.5001,-196.1583 994,-186.1583 990.5001,-196.1583 997.5001,-196.1583"/>
</g>
<!-- wings.io -->
<g id="node22" class="node">
<title>wings.io</title>
<path fill="#90caf9" stroke="#90caf9" d="M1153,-851C1153,-851 1101,-851 1101,-851 1095,-851 1089,-845 1089,-839 1089,-839 1089,-827 1089,-827 1089,-821 1095,-815 1101,-815 1101,-815 1153,-815 1153,-815 1159,-815 1165,-821 1165,-827 1165,-827 1165,-839 1165,-839 1165,-845 1159,-851 1153,-851"/>
<text text-anchor="middle" x="1127" y="-829.3" font-family="Times,serif" font-size="14.00" fill="#000000">wings.io</text>
</g>
<!-- wilds.io -->
<g id="node24" class="node">
<title>wilds.io</title>
<path fill="#90caf9" stroke="#90caf9" d="M1102.5,-778C1102.5,-778 1051.5,-778 1051.5,-778 1045.5,-778 1039.5,-772 1039.5,-766 1039.5,-766 1039.5,-752 1039.5,-752 1039.5,-746 1045.5,-740 1051.5,-740 1051.5,-740 1102.5,-740 1102.5,-740 1108.5,-740 1114.5,-746 1114.5,-752 1114.5,-752 1114.5,-766 1114.5,-766 1114.5,-772 1108.5,-778 1102.5,-778"/>
<text text-anchor="middle" x="1077" y="-762.8" font-family="Times,serif" font-size="14.00" fill="#000000">wilds.io</text>
<text text-anchor="middle" x="1077" y="-747.8" font-family="Times,serif" font-size="14.00" fill="#000000">Rezoner</text>
</g>
<!-- wanderers.io -->
<g id="node47" class="node">
<title>wanderers.io</title>
<path fill="#90caf9" stroke="#90caf9" d="M1120,-334C1120,-334 1034,-334 1034,-334 1028,-334 1022,-328 1022,-322 1022,-322 1022,-308 1022,-308 1022,-302 1028,-296 1034,-296 1034,-296 1120,-296 1120,-296 1126,-296 1132,-302 1132,-308 1132,-308 1132,-322 1132,-322 1132,-328 1126,-334 1120,-334"/>
<text text-anchor="middle" x="1077" y="-318.8" font-family="Times,serif" font-size="14.00" fill="#000000">wanderers.io</text>
<text text-anchor="middle" x="1077" y="-303.8" font-family="Times,serif" font-size="14.00" fill="#000000">Rezoner</text>
</g>
<!-- wilds.io&#45;&gt;wanderers.io -->
<g id="edge31" class="edge">
<title>wilds.io&#45;&gt;wanderers.io</title>
<path fill="none" stroke="#000000" d="M1077,-739.8417C1077,-711.6299 1077,-657.25 1077,-611 1077,-611 1077,-611 1077,-463 1077,-421.8086 1077,-374.1685 1077,-344.3096"/>
<polygon fill="#000000" stroke="#000000" points="1080.5001,-344.1583 1077,-334.1583 1073.5001,-344.1583 1080.5001,-344.1583"/>
</g>
<!-- mope.io -->
<g id="node27" class="node">
<title>mope.io</title>
<path fill="#90caf9" stroke="#90caf9" d="M557.5,-630C557.5,-630 446.5,-630 446.5,-630 440.5,-630 434.5,-624 434.5,-618 434.5,-618 434.5,-604 434.5,-604 434.5,-598 440.5,-592 446.5,-592 446.5,-592 557.5,-592 557.5,-592 563.5,-592 569.5,-598 569.5,-604 569.5,-604 569.5,-618 569.5,-618 569.5,-624 563.5,-630 557.5,-630"/>
<text text-anchor="middle" x="502" y="-614.8" font-family="Times,serif" font-size="14.00" fill="#000000">mope.io</text>
<text text-anchor="middle" x="502" y="-599.8" font-family="Times,serif" font-size="14.00" fill="#000000">Stan Tatarnykov</text>
</g>
<!-- deeeep.io&#45;&gt;mope.io -->
<g id="edge40" class="edge">
<title>deeeep.io&#45;&gt;mope.io</title>
<path fill="none" stroke="#000000" d="M416.5,-611C418.9892,-611 421.4785,-611 423.9677,-611"/>
<polygon fill="#000000" stroke="#000000" points="424.2012,-614.5001 434.2012,-611 424.2011,-607.5001 424.2012,-614.5001"/>
</g>
<!-- moomoo.io -->
<g id="node35" class="node">
<title>moomoo.io</title>
<path fill="#90caf9" stroke="#90caf9" d="M547.5,-556C547.5,-556 438.5,-556 438.5,-556 432.5,-556 426.5,-550 426.5,-544 426.5,-544 426.5,-530 426.5,-530 426.5,-524 432.5,-518 438.5,-518 438.5,-518 547.5,-518 547.5,-518 553.5,-518 559.5,-524 559.5,-530 559.5,-530 559.5,-544 559.5,-544 559.5,-550 553.5,-556 547.5,-556"/>
<text text-anchor="middle" x="493" y="-540.8" font-family="Times,serif" font-size="14.00" fill="#000000">moomoo.io</text>
<text text-anchor="middle" x="493" y="-525.8" font-family="Times,serif" font-size="14.00" fill="#000000">Sydney de Vries</text>
</g>
<!-- mope.io&#45;&gt;moomoo.io -->
<g id="edge41" class="edge">
<title>mope.io&#45;&gt;moomoo.io</title>
<path fill="none" stroke="#000000" d="M499.6823,-591.9432C498.7344,-584.1493 497.616,-574.9538 496.5681,-566.3381"/>
<polygon fill="#000000" stroke="#000000" points="500.023,-565.7537 495.3411,-556.2495 493.0742,-566.5989 500.023,-565.7537"/>
</g>
<!-- paper.io -->
<g id="node29" class="node">
<title>paper.io</title>
<path fill="#90caf9" stroke="#90caf9" d="M1195,-778C1195,-778 1145,-778 1145,-778 1139,-778 1133,-772 1133,-766 1133,-766 1133,-752 1133,-752 1133,-746 1139,-740 1145,-740 1145,-740 1195,-740 1195,-740 1201,-740 1207,-746 1207,-752 1207,-752 1207,-766 1207,-766 1207,-772 1201,-778 1195,-778"/>
<text text-anchor="middle" x="1170" y="-762.8" font-family="Times,serif" font-size="14.00" fill="#000000">paper.io</text>
<text text-anchor="middle" x="1170" y="-747.8" font-family="Times,serif" font-size="14.00" fill="#000000">Voodoo</text>
</g>
<!-- splix.io -->
<g id="node30" class="node">
<title>splix.io</title>
<path fill="#90caf9" stroke="#90caf9" d="M1192,-704C1192,-704 1148,-704 1148,-704 1142,-704 1136,-698 1136,-692 1136,-692 1136,-678 1136,-678 1136,-672 1142,-666 1148,-666 1148,-666 1192,-666 1192,-666 1198,-666 1204,-672 1204,-678 1204,-678 1204,-692 1204,-692 1204,-698 1198,-704 1192,-704"/>
<text text-anchor="middle" x="1170" y="-688.8" font-family="Times,serif" font-size="14.00" fill="#000000">splix.io</text>
<text text-anchor="middle" x="1170" y="-673.8" font-family="Times,serif" font-size="14.00" fill="#000000">Jesper</text>
</g>
<!-- paper.io&#45;&gt;splix.io -->
<g id="edge35" class="edge">
<title>paper.io&#45;&gt;splix.io</title>
<path fill="none" stroke="#000000" d="M1170,-739.9432C1170,-732.1493 1170,-722.9538 1170,-714.3381"/>
<polygon fill="#000000" stroke="#000000" points="1173.5001,-714.2494 1170,-704.2495 1166.5001,-714.2495 1173.5001,-714.2494"/>
</g>
<!-- hexar.io -->
<g id="node33" class="node">
<title>hexar.io</title>
<path fill="#90caf9" stroke="#90caf9" d="M1194.5,-555C1194.5,-555 1145.5,-555 1145.5,-555 1139.5,-555 1133.5,-549 1133.5,-543 1133.5,-543 1133.5,-531 1133.5,-531 1133.5,-525 1139.5,-519 1145.5,-519 1145.5,-519 1194.5,-519 1194.5,-519 1200.5,-519 1206.5,-525 1206.5,-531 1206.5,-531 1206.5,-543 1206.5,-543 1206.5,-549 1200.5,-555 1194.5,-555"/>
<text text-anchor="middle" x="1170" y="-533.3" font-family="Times,serif" font-size="14.00" fill="#000000">hexar.io</text>
</g>
<!-- splix.io&#45;&gt;hexar.io -->
<g id="edge36" class="edge">
<title>splix.io&#45;&gt;hexar.io</title>
<path fill="none" stroke="#000000" d="M1170,-665.9546C1170,-640.3667 1170,-594.696 1170,-565.1392"/>
<polygon fill="#000000" stroke="#000000" points="1173.5001,-565.0459 1170,-555.0459 1166.5001,-565.046 1173.5001,-565.0459"/>
</g>
<!-- krew.io -->
<g id="node31" class="node">
<title>krew.io</title>
<path fill="#90caf9" stroke="#90caf9" d="M1254,-630C1254,-630 1210,-630 1210,-630 1204,-630 1198,-624 1198,-618 1198,-618 1198,-604 1198,-604 1198,-598 1204,-592 1210,-592 1210,-592 1254,-592 1254,-592 1260,-592 1266,-598 1266,-604 1266,-604 1266,-618 1266,-618 1266,-624 1260,-630 1254,-630"/>
<text text-anchor="middle" x="1232" y="-614.8" font-family="Times,serif" font-size="14.00" fill="#000000">krew.io</text>
<text text-anchor="middle" x="1232" y="-599.8" font-family="Times,serif" font-size="14.00" fill="#000000">M0dE</text>
</g>
<!-- brutal.io -->
<g id="node32" class="node">
<title>brutal.io</title>
<path fill="#90caf9" stroke="#90caf9" d="M1289.5,-555C1289.5,-555 1236.5,-555 1236.5,-555 1230.5,-555 1224.5,-549 1224.5,-543 1224.5,-543 1224.5,-531 1224.5,-531 1224.5,-525 1230.5,-519 1236.5,-519 1236.5,-519 1289.5,-519 1289.5,-519 1295.5,-519 1301.5,-525 1301.5,-531 1301.5,-531 1301.5,-543 1301.5,-543 1301.5,-549 1295.5,-555 1289.5,-555"/>
<text text-anchor="middle" x="1263" y="-533.3" font-family="Times,serif" font-size="14.00" fill="#000000">brutal.io</text>
</g>
<!-- superhex.io -->
<g id="node40" class="node">
<title>superhex.io</title>
<path fill="#90caf9" stroke="#90caf9" d="M1208,-481C1208,-481 1132,-481 1132,-481 1126,-481 1120,-475 1120,-469 1120,-469 1120,-457 1120,-457 1120,-451 1126,-445 1132,-445 1132,-445 1208,-445 1208,-445 1214,-445 1220,-451 1220,-457 1220,-457 1220,-469 1220,-469 1220,-475 1214,-481 1208,-481"/>
<text text-anchor="middle" x="1170" y="-459.3" font-family="Times,serif" font-size="14.00" fill="#000000">superhex.io</text>
</g>
<!-- hexar.io&#45;&gt;superhex.io -->
<g id="edge37" class="edge">
<title>hexar.io&#45;&gt;superhex.io</title>
<path fill="none" stroke="#000000" d="M1170,-518.7079C1170,-510.4635 1170,-500.5376 1170,-491.3622"/>
<polygon fill="#000000" stroke="#000000" points="1173.5001,-491.0817 1170,-481.0817 1166.5001,-491.0818 1173.5001,-491.0817"/>
</g>
<!-- starve.io -->
<g id="node36" class="node">
<title>starve.io</title>
<path fill="#90caf9" stroke="#90caf9" d="M778,-556C778,-556 702,-556 702,-556 696,-556 690,-550 690,-544 690,-544 690,-530 690,-530 690,-524 696,-518 702,-518 702,-518 778,-518 778,-518 784,-518 790,-524 790,-530 790,-530 790,-544 790,-544 790,-550 784,-556 778,-556"/>
<text text-anchor="middle" x="740" y="-540.8" font-family="Times,serif" font-size="14.00" fill="#000000">starve.io</text>
<text text-anchor="middle" x="740" y="-525.8" font-family="Times,serif" font-size="14.00" fill="#000000">LapaMauve</text>
</g>
<!-- moomoo.io&#45;&gt;starve.io -->
<g id="edge22" class="edge">
<title>moomoo.io&#45;&gt;starve.io</title>
<path fill="none" stroke="#000000" d="M527.9046,-556.0516C542.8664,-563.1855 560.8254,-570.4241 578,-574 615.6257,-581.8341 657.9614,-571.495 689.9161,-559.7754"/>
<polygon fill="#000000" stroke="#000000" points="691.3956,-562.9568 699.483,-556.1126 688.8926,-556.4196 691.3956,-562.9568"/>
</g>
<!-- zombs.io -->
<g id="node38" class="node">
<title>zombs.io</title>
<path fill="#90caf9" stroke="#90caf9" d="M591,-482C591,-482 535,-482 535,-482 529,-482 523,-476 523,-470 523,-470 523,-456 523,-456 523,-450 529,-444 535,-444 535,-444 591,-444 591,-444 597,-444 603,-450 603,-456 603,-456 603,-470 603,-470 603,-476 597,-482 591,-482"/>
<text text-anchor="middle" x="563" y="-466.8" font-family="Times,serif" font-size="14.00" fill="#000000">zombs.io</text>
<text text-anchor="middle" x="563" y="-451.8" font-family="Times,serif" font-size="14.00" fill="#000000">Yang Lui</text>
</g>
<!-- moomoo.io&#45;&gt;zombs.io -->
<g id="edge29" class="edge">
<title>moomoo.io&#45;&gt;zombs.io</title>
<path fill="none" stroke="#000000" d="M511.0267,-517.9432C519.2095,-509.2928 529.0255,-498.9159 537.9122,-489.5214"/>
<polygon fill="#000000" stroke="#000000" points="540.4617,-491.9194 544.7911,-482.2495 535.3764,-487.109 540.4617,-491.9194"/>
</g>
<!-- foes.io -->
<g id="node41" class="node">
<title>foes.io</title>
<path fill="#90caf9" stroke="#90caf9" d="M243.5,-408C243.5,-408 134.5,-408 134.5,-408 128.5,-408 122.5,-402 122.5,-396 122.5,-396 122.5,-382 122.5,-382 122.5,-376 128.5,-370 134.5,-370 134.5,-370 243.5,-370 243.5,-370 249.5,-370 255.5,-376 255.5,-382 255.5,-382 255.5,-396 255.5,-396 255.5,-402 249.5,-408 243.5,-408"/>
<text text-anchor="middle" x="189" y="-392.8" font-family="Times,serif" font-size="14.00" fill="#000000">foes.io</text>
<text text-anchor="middle" x="189" y="-377.8" font-family="Times,serif" font-size="14.00" fill="#000000">Sydney de Vries</text>
</g>
<!-- moomoo.io&#45;&gt;foes.io -->
<g id="edge20" class="edge">
<title>moomoo.io&#45;&gt;foes.io</title>
<path fill="none" stroke="#000000" d="M453.8797,-517.9546C398.6242,-491.0539 297.7755,-441.9565 237.7258,-412.7218"/>
<polygon fill="#000000" stroke="#000000" points="238.9749,-409.4372 228.4517,-408.2067 235.9108,-415.7309 238.9749,-409.4372"/>
</g>
<!-- surviv.io -->
<g id="node42" class="node">
<title>surviv.io</title>
<path fill="#90caf9" stroke="#90caf9" d="M454,-408C454,-408 286,-408 286,-408 280,-408 274,-402 274,-396 274,-396 274,-382 274,-382 274,-376 280,-370 286,-370 286,-370 454,-370 454,-370 460,-370 466,-376 466,-382 466,-382 466,-396 466,-396 466,-402 460,-408 454,-408"/>
<text text-anchor="middle" x="370" y="-392.8" font-family="Times,serif" font-size="14.00" fill="#000000">surviv.io</text>
<text text-anchor="middle" x="370" y="-377.8" font-family="Times,serif" font-size="14.00" fill="#000000">Justin Kim &amp; Nick Clark</text>
</g>
<!-- moomoo.io&#45;&gt;surviv.io -->
<g id="edge23" class="edge">
<title>moomoo.io&#45;&gt;surviv.io</title>
<path fill="none" stroke="#000000" d="M477.1717,-517.9546C455.7024,-492.1216 417.2211,-445.8189 392.6835,-416.294"/>
<polygon fill="#000000" stroke="#000000" points="395.2415,-413.896 386.1581,-408.4423 389.858,-418.3701 395.2415,-413.896"/>
</g>
<!-- doomed.io -->
<g id="node45" class="node">
<title>doomed.io</title>
<path fill="#90caf9" stroke="#90caf9" d="M510,-334C510,-334 444,-334 444,-334 438,-334 432,-328 432,-322 432,-322 432,-308 432,-308 432,-302 438,-296 444,-296 444,-296 510,-296 510,-296 516,-296 522,-302 522,-308 522,-308 522,-322 522,-322 522,-328 516,-334 510,-334"/>
<text text-anchor="middle" x="477" y="-318.8" font-family="Times,serif" font-size="14.00" fill="#000000">doomed.io</text>
<text text-anchor="middle" x="477" y="-303.8" font-family="Times,serif" font-size="14.00" fill="#000000">Ginoda</text>
</g>
<!-- moomoo.io&#45;&gt;doomed.io -->
<g id="edge21" class="edge">
<title>moomoo.io&#45;&gt;doomed.io</title>
<path fill="none" stroke="#000000" d="M491.6081,-517.6873C488.7997,-478.7205 482.44,-390.4803 479.1151,-344.3465"/>
<polygon fill="#000000" stroke="#000000" points="482.5872,-343.8325 478.3773,-334.11 475.6053,-344.3357 482.5872,-343.8325"/>
</g>
<!-- devast.io -->
<g id="node53" class="node">
<title>devast.io</title>
<path fill="#90caf9" stroke="#90caf9" d="M778,-112C778,-112 702,-112 702,-112 696,-112 690,-106 690,-100 690,-100 690,-86 690,-86 690,-80 696,-74 702,-74 702,-74 778,-74 778,-74 784,-74 790,-80 790,-86 790,-86 790,-100 790,-100 790,-106 784,-112 778,-112"/>
<text text-anchor="middle" x="740" y="-96.8" font-family="Times,serif" font-size="14.00" fill="#000000">devast.io</text>
<text text-anchor="middle" x="740" y="-81.8" font-family="Times,serif" font-size="14.00" fill="#000000">LapaMauve</text>
</g>
<!-- starve.io&#45;&gt;devast.io -->
<g id="edge34" class="edge">
<title>starve.io&#45;&gt;devast.io</title>
<path fill="none" stroke="#000000" d="M740,-517.8417C740,-489.6299 740,-435.25 740,-389 740,-389 740,-389 740,-241 740,-199.8086 740,-152.1685 740,-122.3096"/>
<polygon fill="#000000" stroke="#000000" points="743.5001,-122.1583 740,-112.1583 736.5001,-122.1583 743.5001,-122.1583"/>
</g>
<!-- stabby.io -->
<g id="node37" class="node">
<title>stabby.io</title>
<path fill="#90caf9" stroke="#90caf9" d="M1306,-482C1306,-482 1250,-482 1250,-482 1244,-482 1238,-476 1238,-470 1238,-470 1238,-456 1238,-456 1238,-450 1244,-444 1250,-444 1250,-444 1306,-444 1306,-444 1312,-444 1318,-450 1318,-456 1318,-456 1318,-470 1318,-470 1318,-476 1312,-482 1306,-482"/>
<text text-anchor="middle" x="1278" y="-466.8" font-family="Times,serif" font-size="14.00" fill="#000000">stabby.io</text>
<text text-anchor="middle" x="1278" y="-451.8" font-family="Times,serif" font-size="14.00" fill="#000000">Arcan</text>
</g>
<!-- zombsroyale.io -->
<g id="node49" class="node">
<title>zombsroyale.io</title>
<path fill="#90caf9" stroke="#90caf9" d="M629,-260C629,-260 529,-260 529,-260 523,-260 517,-254 517,-248 517,-248 517,-234 517,-234 517,-228 523,-222 529,-222 529,-222 629,-222 629,-222 635,-222 641,-228 641,-234 641,-234 641,-248 641,-248 641,-254 635,-260 629,-260"/>
<text text-anchor="middle" x="579" y="-244.8" font-family="Times,serif" font-size="14.00" fill="#000000">zombsroyale.io</text>
<text text-anchor="middle" x="579" y="-229.8" font-family="Times,serif" font-size="14.00" fill="#000000">Yang Lui</text>
</g>
<!-- zombs.io&#45;&gt;zombsroyale.io -->
<g id="edge28" class="edge">
<title>zombs.io&#45;&gt;zombsroyale.io</title>
<path fill="none" stroke="#000000" d="M564.3919,-443.6873C567.2003,-404.7205 573.56,-316.4803 576.8849,-270.3465"/>
<polygon fill="#000000" stroke="#000000" points="580.3947,-270.3357 577.6227,-260.11 573.4128,-269.8325 580.3947,-270.3357"/>
</g>
<!-- nightpoint.io -->
<g id="node43" class="node">
<title>nightpoint.io</title>
<path fill="#90caf9" stroke="#90caf9" d="M1291,-408C1291,-408 1207,-408 1207,-408 1201,-408 1195,-402 1195,-396 1195,-396 1195,-382 1195,-382 1195,-376 1201,-370 1207,-370 1207,-370 1291,-370 1291,-370 1297,-370 1303,-376 1303,-382 1303,-382 1303,-396 1303,-396 1303,-402 1297,-408 1291,-408"/>
<text text-anchor="middle" x="1249" y="-392.8" font-family="Times,serif" font-size="14.00" fill="#000000">nightpoint.io</text>
<text text-anchor="middle" x="1249" y="-377.8" font-family="Times,serif" font-size="14.00" fill="#000000">Sarunas</text>
</g>
<!-- bruh.io -->
<g id="node46" class="node">
<title>bruh.io</title>
<path fill="#90caf9" stroke="#90caf9" d="M1251.5,-334C1251.5,-334 1162.5,-334 1162.5,-334 1156.5,-334 1150.5,-328 1150.5,-322 1150.5,-322 1150.5,-308 1150.5,-308 1150.5,-302 1156.5,-296 1162.5,-296 1162.5,-296 1251.5,-296 1251.5,-296 1257.5,-296 1263.5,-302 1263.5,-308 1263.5,-308 1263.5,-322 1263.5,-322 1263.5,-328 1257.5,-334 1251.5,-334"/>
<text text-anchor="middle" x="1207" y="-318.8" font-family="Times,serif" font-size="14.00" fill="#000000">bruh.io</text>
<text text-anchor="middle" x="1207" y="-303.8" font-family="Times,serif" font-size="14.00" fill="#000000">Bitfox Games</text>
</g>
<!-- nightpoint.io&#45;&gt;bruh.io -->
<g id="edge26" class="edge">
<title>nightpoint.io&#45;&gt;bruh.io</title>
<path fill="none" stroke="#000000" d="M1238.184,-369.9432C1233.566,-361.8067 1228.081,-352.1427 1223.0085,-343.2055"/>
<polygon fill="#000000" stroke="#000000" points="1225.9054,-341.2187 1217.9254,-334.2495 1219.8176,-344.674 1225.9054,-341.2187"/>
</g>
<!-- battlepoint.io -->
<g id="node54" class="node">
<title>battlepoint.io</title>
<path fill="#90caf9" stroke="#90caf9" d="M1314.5,-112C1314.5,-112 1225.5,-112 1225.5,-112 1219.5,-112 1213.5,-106 1213.5,-100 1213.5,-100 1213.5,-86 1213.5,-86 1213.5,-80 1219.5,-74 1225.5,-74 1225.5,-74 1314.5,-74 1314.5,-74 1320.5,-74 1326.5,-80 1326.5,-86 1326.5,-86 1326.5,-100 1326.5,-100 1326.5,-106 1320.5,-112 1314.5,-112"/>
<text text-anchor="middle" x="1270" y="-96.8" font-family="Times,serif" font-size="14.00" fill="#000000">battlepoint.io</text>
<text text-anchor="middle" x="1270" y="-81.8" font-family="Times,serif" font-size="14.00" fill="#000000">Sarunas</text>
</g>
<!-- nightpoint.io&#45;&gt;battlepoint.io -->
<g id="edge25" class="edge">
<title>nightpoint.io&#45;&gt;battlepoint.io</title>
<path fill="none" stroke="#000000" d="M1259.1453,-369.9963C1264.0879,-359.6659 1269.4953,-346.4816 1272,-334 1287.0521,-258.9912 1279.5828,-168.1903 1274.0844,-122.4189"/>
<polygon fill="#000000" stroke="#000000" points="1277.5336,-121.795 1272.8127,-112.3102 1270.5884,-122.6689 1277.5336,-121.795"/>
</g>
<!-- powerline.io -->
<g id="node44" class="node">
<title>powerline.io</title>
<path fill="#90caf9" stroke="#90caf9" d="M1412,-333C1412,-333 1332,-333 1332,-333 1326,-333 1320,-327 1320,-321 1320,-321 1320,-309 1320,-309 1320,-303 1326,-297 1332,-297 1332,-297 1412,-297 1412,-297 1418,-297 1424,-303 1424,-309 1424,-309 1424,-321 1424,-321 1424,-327 1418,-333 1412,-333"/>
<text text-anchor="middle" x="1372" y="-311.3" font-family="Times,serif" font-size="14.00" fill="#000000">powerline.io</text>
</g>
<!-- doomed2.io -->
<g id="node50" class="node">
<title>doomed2.io</title>
<path fill="#90caf9" stroke="#90caf9" d="M486.5,-260C486.5,-260 411.5,-260 411.5,-260 405.5,-260 399.5,-254 399.5,-248 399.5,-248 399.5,-234 399.5,-234 399.5,-228 405.5,-222 411.5,-222 411.5,-222 486.5,-222 486.5,-222 492.5,-222 498.5,-228 498.5,-234 498.5,-234 498.5,-248 498.5,-248 498.5,-254 492.5,-260 486.5,-260"/>
<text text-anchor="middle" x="449" y="-244.8" font-family="Times,serif" font-size="14.00" fill="#000000">doomed2.io</text>
<text text-anchor="middle" x="449" y="-229.8" font-family="Times,serif" font-size="14.00" fill="#000000">Ginoda</text>
</g>
<!-- doomed.io&#45;&gt;doomed2.io -->
<g id="edge24" class="edge">
<title>doomed.io&#45;&gt;doomed2.io</title>
<path fill="none" stroke="#000000" d="M469.7893,-295.9432C466.7754,-287.978 463.2077,-278.549 459.8863,-269.7709"/>
<polygon fill="#000000" stroke="#000000" points="463.0961,-268.3637 456.2836,-260.2495 456.5491,-270.841 463.0961,-268.3637"/>
</g>
<!-- bruh.io&#45;&gt;battlepoint.io -->
<g id="edge27" class="edge">
<title>bruh.io&#45;&gt;battlepoint.io</title>
<path fill="none" stroke="#000000" d="M1212.4806,-295.6873C1223.5854,-256.556 1248.7915,-167.7348 1261.837,-121.7648"/>
<polygon fill="#000000" stroke="#000000" points="1265.2138,-122.6856 1264.5769,-112.11 1258.4797,-120.7746 1265.2138,-122.6856"/>
</g>
<!-- shellshock.io -->
<g id="node48" class="node">
<title>shellshock.io</title>
<path fill="#90caf9" stroke="#90caf9" d="M1540,-333C1540,-333 1454,-333 1454,-333 1448,-333 1442,-327 1442,-321 1442,-321 1442,-309 1442,-309 1442,-303 1448,-297 1454,-297 1454,-297 1540,-297 1540,-297 1546,-297 1552,-303 1552,-309 1552,-309 1552,-321 1552,-321 1552,-327 1546,-333 1540,-333"/>
<text text-anchor="middle" x="1497" y="-311.3" font-family="Times,serif" font-size="14.00" fill="#000000">shellshock.io</text>
</g>
<!-- krunker.io -->
<g id="node52" class="node">
<title>krunker.io</title>
<path fill="#90caf9" stroke="#90caf9" d="M1551.5,-186C1551.5,-186 1442.5,-186 1442.5,-186 1436.5,-186 1430.5,-180 1430.5,-174 1430.5,-174 1430.5,-160 1430.5,-160 1430.5,-154 1436.5,-148 1442.5,-148 1442.5,-148 1551.5,-148 1551.5,-148 1557.5,-148 1563.5,-154 1563.5,-160 1563.5,-160 1563.5,-174 1563.5,-174 1563.5,-180 1557.5,-186 1551.5,-186"/>
<text text-anchor="middle" x="1497" y="-170.8" font-family="Times,serif" font-size="14.00" fill="#000000">krunker.io</text>
<text text-anchor="middle" x="1497" y="-155.8" font-family="Times,serif" font-size="14.00" fill="#000000">Sydney de Vries</text>
</g>
<!-- shellshock.io&#45;&gt;krunker.io -->
<g id="edge42" class="edge">
<title>shellshock.io&#45;&gt;krunker.io</title>
<path fill="none" stroke="#000000" d="M1497,-296.8523C1497,-271.8289 1497,-226.4343 1497,-196.498"/>
<polygon fill="#000000" stroke="#000000" points="1500.5001,-196.2345 1497,-186.2346 1493.5001,-196.2346 1500.5001,-196.2345"/>
</g>
<!-- buildroyale.io -->
<g id="node55" class="node">
<title>buildroyale.io</title>
<path fill="#90caf9" stroke="#90caf9" d="M644,-38C644,-38 514,-38 514,-38 508,-38 502,-32 502,-26 502,-26 502,-12 502,-12 502,-6 508,0 514,0 514,0 644,0 644,0 650,0 656,-6 656,-12 656,-12 656,-26 656,-26 656,-32 650,-38 644,-38"/>
<text text-anchor="middle" x="579" y="-22.8" font-family="Times,serif" font-size="14.00" fill="#000000">buildroyale.io</text>
<text text-anchor="middle" x="579" y="-7.8" font-family="Times,serif" font-size="14.00" fill="#000000">Mathew Matakovic</text>
</g>
<!-- zombsroyale.io&#45;&gt;buildroyale.io -->
<g id="edge30" class="edge">
<title>zombsroyale.io&#45;&gt;buildroyale.io</title>
<path fill="none" stroke="#000000" d="M579,-221.6873C579,-182.7205 579,-94.4803 579,-48.3465"/>
<polygon fill="#000000" stroke="#000000" points="582.5001,-48.1099 579,-38.11 575.5001,-48.11 582.5001,-48.1099"/>
</g>
</g>
</svg>
