<?xml version="1.0" encoding="UTF-8" standalone="no"?>
<!DOCTYPE svg PUBLIC "-//W3C//DTD SVG 1.1//EN"
 "http://www.w3.org/Graphics/SVG/1.1/DTD/svg11.dtd">
<!-- Generated by graphviz version 2.40.1 (20161225.0304)
 -->
<!-- Title: iogames Pages: 1 -->
<svg width="1853pt" height="1274pt"
 viewBox="0.00 0.00 1852.50 1274.00" xmlns="http://www.w3.org/2000/svg" xmlns:xlink="http://www.w3.org/1999/xlink">
<g id="graph0" class="graph" transform="scale(1 1) rotate(0) translate(4 1270)">
<title>iogames</title>
<polygon fill="#ffffff" stroke="transparent" points="-4,4 -4,-1270 1848.5,-1270 1848.5,4 -4,4"/>
<text text-anchor="start" x="840.75" y="-1251.8" font-family="Times,serif" font-weight="bold" text-decoration="underline" font-size="14.00" fill="#000000">History of .io games</text>
<text text-anchor="start" x="854.75" y="-1237.8" font-family="Times,serif" font-size="14.00" fill="#000000">by </text>
<text text-anchor="start" x="876.75" y="-1237.8" font-family="Times,serif" font-weight="bold" font-size="14.00" fill="#000000">Julien Mourer</text>
<text text-anchor="start" x="813.25" y="-1223.8" font-family="Times,serif" font-size="14.00" fill="#000000">Licensed under the CC BY 4.0</text>
<!-- 2014q4 -->
<g id="node1" class="node">
<title>2014q4</title>
<text text-anchor="middle" x="52" y="-1192" font-family="Times,serif" font-size="20.00" fill="#000000">Q4 2014</text>
</g>
<!-- 2015q1 -->
<g id="node2" class="node">
<title>2015q1</title>
<text text-anchor="middle" x="52" y="-1119" font-family="Times,serif" font-size="20.00" fill="#000000">Q1 2015</text>
</g>
<!-- 2014q4&#45;&gt;2015q1 -->
<!-- 2015q2 -->
<g id="node3" class="node">
<title>2015q2</title>
<text text-anchor="middle" x="52" y="-1046" font-family="Times,serif" font-size="20.00" fill="#000000">Q2 2015</text>
</g>
<!-- 2015q1&#45;&gt;2015q2 -->
<!-- 2015q3 -->
<g id="node4" class="node">
<title>2015q3</title>
<text text-anchor="middle" x="52" y="-973" font-family="Times,serif" font-size="20.00" fill="#000000">Q3 2015</text>
</g>
<!-- 2015q2&#45;&gt;2015q3 -->
<!-- 2015q4 -->
<g id="node5" class="node">
<title>2015q4</title>
<text text-anchor="middle" x="52" y="-901" font-family="Times,serif" font-size="20.00" fill="#000000">Q4 2015</text>
</g>
<!-- 2015q3&#45;&gt;2015q4 -->
<!-- 2016q1 -->
<g id="node6" class="node">
<title>2016q1</title>
<text text-anchor="middle" x="52" y="-828" font-family="Times,serif" font-size="20.00" fill="#000000">Q1 2016</text>
</g>
<!-- 2015q4&#45;&gt;2016q1 -->
<!-- 2016q2 -->
<g id="node7" class="node">
<title>2016q2</title>
<text text-anchor="middle" x="52" y="-754" font-family="Times,serif" font-size="20.00" fill="#000000">Q2 2016</text>
</g>
<!-- 2016q1&#45;&gt;2016q2 -->
<!-- 2016q3 -->
<g id="node8" class="node">
<title>2016q3</title>
<text text-anchor="middle" x="52" y="-680" font-family="Times,serif" font-size="20.00" fill="#000000">Q3 2016</text>
</g>
<!-- 2016q2&#45;&gt;2016q3 -->
<!-- 2016q4 -->
<g id="node9" class="node">
<title>2016q4</title>
<text text-anchor="middle" x="52" y="-606" font-family="Times,serif" font-size="20.00" fill="#000000">Q4 2016</text>
</g>
<!-- 2016q3&#45;&gt;2016q4 -->
<!-- 2017q1 -->
<g id="node10" class="node">
<title>2017q1</title>
<text text-anchor="middle" x="52" y="-532" font-family="Times,serif" font-size="20.00" fill="#000000">Q1 2017</text>
</g>
<!-- 2016q4&#45;&gt;2017q1 -->
<!-- 2017q2 -->
<g id="node11" class="node">
<title>2017q2</title>
<text text-anchor="middle" x="52" y="-458" font-family="Times,serif" font-size="20.00" fill="#000000">Q2 2017</text>
</g>
<!-- 2017q1&#45;&gt;2017q2 -->
<!-- 2017q3 -->
<g id="node12" class="node">
<title>2017q3</title>
<text text-anchor="middle" x="52" y="-384" font-family="Times,serif" font-size="20.00" fill="#000000">Q3 2017</text>
</g>
<!-- 2017q2&#45;&gt;2017q3 -->
<!-- 2017q4 -->
<g id="node13" class="node">
<title>2017q4</title>
<text text-anchor="middle" x="52" y="-310" font-family="Times,serif" font-size="20.00" fill="#000000">Q4 2017</text>
</g>
<!-- 2017q3&#45;&gt;2017q4 -->
<!-- 2018q1 -->
<g id="node14" class="node">
<title>2018q1</title>
<text text-anchor="middle" x="52" y="-236" font-family="Times,serif" font-size="20.00" fill="#000000">Q1 2018</text>
</g>
<!-- 2017q4&#45;&gt;2018q1 -->
<!-- 2018q2 -->
<g id="node15" class="node">
<title>2018q2</title>
<text text-anchor="middle" x="52" y="-162" font-family="Times,serif" font-size="20.00" fill="#000000">Q2 2018</text>
</g>
<!-- 2018q1&#45;&gt;2018q2 -->
<!-- 2018q3 -->
<g id="node16" class="node">
<title>2018q3</title>
<text text-anchor="middle" x="52" y="-88" font-family="Times,serif" font-size="20.00" fill="#000000">Q3 2018</text>
</g>
<!-- 2018q2&#45;&gt;2018q3 -->
<!-- 2018q4 -->
<g id="node17" class="node">
<title>2018q4</title>
<text text-anchor="middle" x="52" y="-14" font-family="Times,serif" font-size="20.00" fill="#000000">Q4 2018</text>
</g>
<!-- 2018q3&#45;&gt;2018q4 -->
<!-- cursors.io -->
<g id="node18" class="node">
<title>cursors.io</title>
<path fill="#90caf9" stroke="#90caf9" d="M263.5,-1216C263.5,-1216 134.5,-1216 134.5,-1216 128.5,-1216 122.5,-1210 122.5,-1204 122.5,-1204 122.5,-1190 122.5,-1190 122.5,-1184 128.5,-1178 134.5,-1178 134.5,-1178 263.5,-1178 263.5,-1178 269.5,-1178 275.5,-1184 275.5,-1190 275.5,-1190 275.5,-1204 275.5,-1204 275.5,-1210 269.5,-1216 263.5,-1216"/>
<text text-anchor="middle" x="199" y="-1200.8" font-family="Times,serif" font-size="14.00" fill="#000000">cursors.io</text>
<text text-anchor="middle" x="199" y="-1185.8" font-family="Times,serif" font-size="14.00" fill="#000000">Matheus Valadares</text>
</g>
<!-- agar.io -->
<g id="node19" class="node">
<title>agar.io</title>
<path fill="#90caf9" stroke="#90caf9" d="M670.5,-1070C670.5,-1070 541.5,-1070 541.5,-1070 535.5,-1070 529.5,-1064 529.5,-1058 529.5,-1058 529.5,-1044 529.5,-1044 529.5,-1038 535.5,-1032 541.5,-1032 541.5,-1032 670.5,-1032 670.5,-1032 676.5,-1032 682.5,-1038 682.5,-1044 682.5,-1044 682.5,-1058 682.5,-1058 682.5,-1064 676.5,-1070 670.5,-1070"/>
<text text-anchor="middle" x="606" y="-1054.8" font-family="Times,serif" font-size="14.00" fill="#000000">agar.io</text>
<text text-anchor="middle" x="606" y="-1039.8" font-family="Times,serif" font-size="14.00" fill="#000000">Matheus Valadares</text>
</g>
<!-- deeeep.io -->
<g id="node26" class="node">
<title>deeeep.io</title>
<path fill="#90caf9" stroke="#90caf9" d="M404.5,-629C404.5,-629 343.5,-629 343.5,-629 337.5,-629 331.5,-623 331.5,-617 331.5,-617 331.5,-605 331.5,-605 331.5,-599 337.5,-593 343.5,-593 343.5,-593 404.5,-593 404.5,-593 410.5,-593 416.5,-599 416.5,-605 416.5,-605 416.5,-617 416.5,-617 416.5,-623 410.5,-629 404.5,-629"/>
<text text-anchor="middle" x="374" y="-607.3" font-family="Times,serif" font-size="14.00" fill="#000000">deeeep.io</text>
</g>
<!-- agar.io&#45;&gt;deeeep.io -->
<g id="edge39" class="edge">
<title>agar.io&#45;&gt;deeeep.io</title>
<path fill="none" stroke="#000000" d="M570.5495,-1031.7958C531.7533,-1007.8961 475,-963.1649 475,-906 475,-906 475,-906 475,-759 475,-708.5993 434.5437,-662.7129 404.8403,-635.815"/>
<polygon fill="#000000" stroke="#000000" points="406.9917,-633.046 397.1714,-629.0693 402.3684,-638.302 406.9917,-633.046"/>
</g>
<!-- pie.ai -->
<g id="node35" class="node">
<title>pie.ai</title>
<path fill="#90caf9" stroke="#90caf9" d="M622,-555C622,-555 590,-555 590,-555 584,-555 578,-549 578,-543 578,-543 578,-531 578,-531 578,-525 584,-519 590,-519 590,-519 622,-519 622,-519 628,-519 634,-525 634,-531 634,-531 634,-543 634,-543 634,-549 628,-555 622,-555"/>
<text text-anchor="middle" x="606" y="-533.3" font-family="Times,serif" font-size="14.00" fill="#000000">pie.ai</text>
</g>
<!-- agar.io&#45;&gt;pie.ai -->
<g id="edge34" class="edge">
<title>agar.io&#45;&gt;pie.ai</title>
<path fill="none" stroke="#000000" d="M606,-1031.767C606,-1003.9984 606,-951.0608 606,-906 606,-906 606,-906 606,-685 606,-643.3509 606,-595.109 606,-565.3209"/>
<polygon fill="#000000" stroke="#000000" points="609.5001,-565.2276 606,-555.2276 602.5001,-565.2277 609.5001,-565.2276"/>
</g>
<!-- spinz.io -->
<g id="node41" class="node">
<title>spinz.io</title>
<path fill="#90caf9" stroke="#90caf9" d="M690,-482C690,-482 634,-482 634,-482 628,-482 622,-476 622,-470 622,-470 622,-456 622,-456 622,-450 628,-444 634,-444 634,-444 690,-444 690,-444 696,-444 702,-450 702,-456 702,-456 702,-470 702,-470 702,-476 696,-482 690,-482"/>
<text text-anchor="middle" x="662" y="-466.8" font-family="Times,serif" font-size="14.00" fill="#000000">spinz.io</text>
<text text-anchor="middle" x="662" y="-451.8" font-family="Times,serif" font-size="14.00" fill="#000000">Yang Lui</text>
</g>
<!-- agar.io&#45;&gt;spinz.io -->
<g id="edge33" class="edge">
<title>agar.io&#45;&gt;spinz.io</title>
<path fill="none" stroke="#000000" d="M618.7073,-1031.7432C635.2296,-1004.796 662,-953.7648 662,-906 662,-906 662,-906 662,-611 662,-569.8086 662,-522.1685 662,-492.3096"/>
<polygon fill="#000000" stroke="#000000" points="665.5001,-492.1583 662,-482.1583 658.5001,-492.1583 665.5001,-492.1583"/>
</g>
<!-- slither.io -->
<g id="node20" class="node">
<title>slither.io</title>
<path fill="#90caf9" stroke="#90caf9" d="M889,-852C889,-852 803,-852 803,-852 797,-852 791,-846 791,-840 791,-840 791,-826 791,-826 791,-820 797,-814 803,-814 803,-814 889,-814 889,-814 895,-814 901,-820 901,-826 901,-826 901,-840 901,-840 901,-846 895,-852 889,-852"/>
<text text-anchor="middle" x="846" y="-836.8" font-family="Times,serif" font-size="14.00" fill="#000000">slither.io</text>
<text text-anchor="middle" x="846" y="-821.8" font-family="Times,serif" font-size="14.00" fill="#000000">Steve Howse</text>
</g>
<!-- limax.io -->
<g id="node23" class="node">
<title>limax.io</title>
<path fill="#90caf9" stroke="#90caf9" d="M778,-778C778,-778 702,-778 702,-778 696,-778 690,-772 690,-766 690,-766 690,-752 690,-752 690,-746 696,-740 702,-740 702,-740 778,-740 778,-740 784,-740 790,-746 790,-752 790,-752 790,-766 790,-766 790,-772 784,-778 778,-778"/>
<text text-anchor="middle" x="740" y="-762.8" font-family="Times,serif" font-size="14.00" fill="#000000">limax.io</text>
<text text-anchor="middle" x="740" y="-747.8" font-family="Times,serif" font-size="14.00" fill="#000000">LapaMauve</text>
</g>
<!-- slither.io&#45;&gt;limax.io -->
<g id="edge19" class="edge">
<title>slither.io&#45;&gt;limax.io</title>
<path fill="none" stroke="#000000" d="M818.7024,-813.9432C805.6979,-804.8646 789.9694,-793.8843 776.0023,-784.1337"/>
<polygon fill="#000000" stroke="#000000" points="777.7766,-781.1039 767.5735,-778.2495 773.7696,-786.8436 777.7766,-781.1039"/>
</g>
<!-- wormax.io -->
<g id="node25" class="node">
<title>wormax.io</title>
<path fill="#90caf9" stroke="#90caf9" d="M833.5,-704C833.5,-704 766.5,-704 766.5,-704 760.5,-704 754.5,-698 754.5,-692 754.5,-692 754.5,-678 754.5,-678 754.5,-672 760.5,-666 766.5,-666 766.5,-666 833.5,-666 833.5,-666 839.5,-666 845.5,-672 845.5,-678 845.5,-678 845.5,-692 845.5,-692 845.5,-698 839.5,-704 833.5,-704"/>
<text text-anchor="middle" x="800" y="-688.8" font-family="Times,serif" font-size="14.00" fill="#000000">wormax.io</text>
<text text-anchor="middle" x="800" y="-673.8" font-family="Times,serif" font-size="14.00" fill="#000000">Elyland</text>
</g>
<!-- slither.io&#45;&gt;wormax.io -->
<g id="edge17" class="edge">
<title>slither.io&#45;&gt;wormax.io</title>
<path fill="none" stroke="#000000" d="M840.0805,-813.9546C832.2229,-788.6735 818.272,-743.7883 809.0785,-714.2092"/>
<polygon fill="#000000" stroke="#000000" points="812.3533,-712.9528 806.0429,-704.4423 805.6687,-715.0305 812.3533,-712.9528"/>
</g>
<!-- wormate.io -->
<g id="node28" class="node">
<title>wormate.io</title>
<path fill="#90caf9" stroke="#90caf9" d="M936.5,-630C936.5,-630 811.5,-630 811.5,-630 805.5,-630 799.5,-624 799.5,-618 799.5,-618 799.5,-604 799.5,-604 799.5,-598 805.5,-592 811.5,-592 811.5,-592 936.5,-592 936.5,-592 942.5,-592 948.5,-598 948.5,-604 948.5,-604 948.5,-618 948.5,-618 948.5,-624 942.5,-630 936.5,-630"/>
<text text-anchor="middle" x="874" y="-614.8" font-family="Times,serif" font-size="14.00" fill="#000000">wormate.io</text>
<text text-anchor="middle" x="874" y="-599.8" font-family="Times,serif" font-size="14.00" fill="#000000">Oleksandr Godoba</text>
</g>
<!-- slither.io&#45;&gt;wormate.io -->
<g id="edge18" class="edge">
<title>slither.io&#45;&gt;wormate.io</title>
<path fill="none" stroke="#000000" d="M848.4358,-813.6873C853.3609,-774.6382 864.5269,-686.1078 870.3354,-640.0551"/>
<polygon fill="#000000" stroke="#000000" points="873.8108,-640.4694 871.5897,-630.11 866.8658,-639.5934 873.8108,-640.4694"/>
</g>
<!-- powerline.io -->
<g id="node46" class="node">
<title>powerline.io</title>
<path fill="#90caf9" stroke="#90caf9" d="M1025.5,-334C1025.5,-334 926.5,-334 926.5,-334 920.5,-334 914.5,-328 914.5,-322 914.5,-322 914.5,-308 914.5,-308 914.5,-302 920.5,-296 926.5,-296 926.5,-296 1025.5,-296 1025.5,-296 1031.5,-296 1037.5,-302 1037.5,-308 1037.5,-308 1037.5,-322 1037.5,-322 1037.5,-328 1031.5,-334 1025.5,-334"/>
<text text-anchor="middle" x="976" y="-318.8" font-family="Times,serif" font-size="14.00" fill="#000000">powerline.io</text>
<text text-anchor="middle" x="976" y="-303.8" font-family="Times,serif" font-size="14.00" fill="#000000">Andre Almeida</text>
</g>
<!-- slither.io&#45;&gt;powerline.io -->
<g id="edge20" class="edge">
<title>slither.io&#45;&gt;powerline.io</title>
<path fill="none" stroke="#000000" d="M880.156,-813.7983C918.6727,-789.3268 976,-743.1386 976,-685 976,-685 976,-685 976,-463 976,-421.8086 976,-374.1685 976,-344.3096"/>
<polygon fill="#000000" stroke="#000000" points="979.5001,-344.1583 976,-334.1583 972.5001,-344.1583 979.5001,-344.1583"/>
</g>
<!-- diep.io -->
<g id="node21" class="node">
<title>diep.io</title>
<path fill="#90caf9" stroke="#90caf9" d="M1130.5,-852C1130.5,-852 1001.5,-852 1001.5,-852 995.5,-852 989.5,-846 989.5,-840 989.5,-840 989.5,-826 989.5,-826 989.5,-820 995.5,-814 1001.5,-814 1001.5,-814 1130.5,-814 1130.5,-814 1136.5,-814 1142.5,-820 1142.5,-826 1142.5,-826 1142.5,-840 1142.5,-840 1142.5,-846 1136.5,-852 1130.5,-852"/>
<text text-anchor="middle" x="1066" y="-836.8" font-family="Times,serif" font-size="14.00" fill="#000000">diep.io</text>
<text text-anchor="middle" x="1066" y="-821.8" font-family="Times,serif" font-size="14.00" fill="#000000">Matheus Valadares</text>
</g>
<!-- tanksmith.io -->
<g id="node54" class="node">
<title>tanksmith.io</title>
<path fill="#90caf9" stroke="#90caf9" d="M1107.5,-186C1107.5,-186 1024.5,-186 1024.5,-186 1018.5,-186 1012.5,-180 1012.5,-174 1012.5,-174 1012.5,-160 1012.5,-160 1012.5,-154 1018.5,-148 1024.5,-148 1024.5,-148 1107.5,-148 1107.5,-148 1113.5,-148 1119.5,-154 1119.5,-160 1119.5,-160 1119.5,-174 1119.5,-174 1119.5,-180 1113.5,-186 1107.5,-186"/>
<text text-anchor="middle" x="1066" y="-170.8" font-family="Times,serif" font-size="14.00" fill="#000000">tanksmith.io</text>
<text text-anchor="middle" x="1066" y="-155.8" font-family="Times,serif" font-size="14.00" fill="#000000">IO Ninja</text>
</g>
<!-- diep.io&#45;&gt;tanksmith.io -->
<g id="edge40" class="edge">
<title>diep.io&#45;&gt;tanksmith.io</title>
<path fill="none" stroke="#000000" d="M1066,-813.8417C1066,-785.6299 1066,-731.25 1066,-685 1066,-685 1066,-685 1066,-315 1066,-273.8086 1066,-226.1685 1066,-196.3096"/>
<polygon fill="#000000" stroke="#000000" points="1069.5001,-196.1583 1066,-186.1583 1062.5001,-196.1583 1069.5001,-196.1583"/>
</g>
<!-- wings.io -->
<g id="node22" class="node">
<title>wings.io</title>
<path fill="#90caf9" stroke="#90caf9" d="M1271.5,-852C1271.5,-852 1172.5,-852 1172.5,-852 1166.5,-852 1160.5,-846 1160.5,-840 1160.5,-840 1160.5,-826 1160.5,-826 1160.5,-820 1166.5,-814 1172.5,-814 1172.5,-814 1271.5,-814 1271.5,-814 1277.5,-814 1283.5,-820 1283.5,-826 1283.5,-826 1283.5,-840 1283.5,-840 1283.5,-846 1277.5,-852 1271.5,-852"/>
<text text-anchor="middle" x="1222" y="-836.8" font-family="Times,serif" font-size="14.00" fill="#000000">wings.io</text>
<text text-anchor="middle" x="1222" y="-821.8" font-family="Times,serif" font-size="14.00" fill="#000000">Andre Almeida</text>
</g>
<!-- wilds.io -->
<g id="node24" class="node">
<title>wilds.io</title>
<path fill="#90caf9" stroke="#90caf9" d="M1174.5,-778C1174.5,-778 1123.5,-778 1123.5,-778 1117.5,-778 1111.5,-772 1111.5,-766 1111.5,-766 1111.5,-752 1111.5,-752 1111.5,-746 1117.5,-740 1123.5,-740 1123.5,-740 1174.5,-740 1174.5,-740 1180.5,-740 1186.5,-746 1186.5,-752 1186.5,-752 1186.5,-766 1186.5,-766 1186.5,-772 1180.5,-778 1174.5,-778"/>
<text text-anchor="middle" x="1149" y="-762.8" font-family="Times,serif" font-size="14.00" fill="#000000">wilds.io</text>
<text text-anchor="middle" x="1149" y="-747.8" font-family="Times,serif" font-size="14.00" fill="#000000">Rezoner</text>
</g>
<!-- wanderers.io -->
<g id="node49" class="node">
<title>wanderers.io</title>
<path fill="#90caf9" stroke="#90caf9" d="M1192,-334C1192,-334 1106,-334 1106,-334 1100,-334 1094,-328 1094,-322 1094,-322 1094,-308 1094,-308 1094,-302 1100,-296 1106,-296 1106,-296 1192,-296 1192,-296 1198,-296 1204,-302 1204,-308 1204,-308 1204,-322 1204,-322 1204,-328 1198,-334 1192,-334"/>
<text text-anchor="middle" x="1149" y="-318.8" font-family="Times,serif" font-size="14.00" fill="#000000">wanderers.io</text>
<text text-anchor="middle" x="1149" y="-303.8" font-family="Times,serif" font-size="14.00" fill="#000000">Rezoner</text>
</g>
<!-- wilds.io&#45;&gt;wanderers.io -->
<g id="edge32" class="edge">
<title>wilds.io&#45;&gt;wanderers.io</title>
<path fill="none" stroke="#000000" d="M1149,-739.8417C1149,-711.6299 1149,-657.25 1149,-611 1149,-611 1149,-611 1149,-463 1149,-421.8086 1149,-374.1685 1149,-344.3096"/>
<polygon fill="#000000" stroke="#000000" points="1152.5001,-344.1583 1149,-334.1583 1145.5001,-344.1583 1152.5001,-344.1583"/>
</g>
<!-- mope.io -->
<g id="node27" class="node">
<title>mope.io</title>
<path fill="#90caf9" stroke="#90caf9" d="M557.5,-630C557.5,-630 446.5,-630 446.5,-630 440.5,-630 434.5,-624 434.5,-618 434.5,-618 434.5,-604 434.5,-604 434.5,-598 440.5,-592 446.5,-592 446.5,-592 557.5,-592 557.5,-592 563.5,-592 569.5,-598 569.5,-604 569.5,-604 569.5,-618 569.5,-618 569.5,-624 563.5,-630 557.5,-630"/>
<text text-anchor="middle" x="502" y="-614.8" font-family="Times,serif" font-size="14.00" fill="#000000">mope.io</text>
<text text-anchor="middle" x="502" y="-599.8" font-family="Times,serif" font-size="14.00" fill="#000000">Stan Tatarnykov</text>
</g>
<!-- deeeep.io&#45;&gt;mope.io -->
<g id="edge41" class="edge">
<title>deeeep.io&#45;&gt;mope.io</title>
<path fill="none" stroke="#000000" d="M416.5,-611C418.9892,-611 421.4785,-611 423.9677,-611"/>
<polygon fill="#000000" stroke="#000000" points="424.2012,-614.5001 434.2012,-611 424.2011,-607.5001 424.2012,-614.5001"/>
</g>
<!-- moomoo.io -->
<g id="node36" class="node">
<title>moomoo.io</title>
<path fill="#90caf9" stroke="#90caf9" d="M547.5,-556C547.5,-556 438.5,-556 438.5,-556 432.5,-556 426.5,-550 426.5,-544 426.5,-544 426.5,-530 426.5,-530 426.5,-524 432.5,-518 438.5,-518 438.5,-518 547.5,-518 547.5,-518 553.5,-518 559.5,-524 559.5,-530 559.5,-530 559.5,-544 559.5,-544 559.5,-550 553.5,-556 547.5,-556"/>
<text text-anchor="middle" x="493" y="-540.8" font-family="Times,serif" font-size="14.00" fill="#000000">moomoo.io</text>
<text text-anchor="middle" x="493" y="-525.8" font-family="Times,serif" font-size="14.00" fill="#000000">Sydney de Vries</text>
</g>
<!-- mope.io&#45;&gt;moomoo.io -->
<g id="edge42" class="edge">
<title>mope.io&#45;&gt;moomoo.io</title>
<path fill="none" stroke="#000000" d="M499.6823,-591.9432C498.7344,-584.1493 497.616,-574.9538 496.5681,-566.3381"/>
<polygon fill="#000000" stroke="#000000" points="500.023,-565.7537 495.3411,-556.2495 493.0742,-566.5989 500.023,-565.7537"/>
</g>
<!-- paper.io -->
<g id="node29" class="node">
<title>paper.io</title>
<path fill="#90caf9" stroke="#90caf9" d="M1267,-778C1267,-778 1217,-778 1217,-778 1211,-778 1205,-772 1205,-766 1205,-766 1205,-752 1205,-752 1205,-746 1211,-740 1217,-740 1217,-740 1267,-740 1267,-740 1273,-740 1279,-746 1279,-752 1279,-752 1279,-766 1279,-766 1279,-772 1273,-778 1267,-778"/>
<text text-anchor="middle" x="1242" y="-762.8" font-family="Times,serif" font-size="14.00" fill="#000000">paper.io</text>
<text text-anchor="middle" x="1242" y="-747.8" font-family="Times,serif" font-size="14.00" fill="#000000">Voodoo</text>
</g>
<!-- splix.io -->
<g id="node30" class="node">
<title>splix.io</title>
<path fill="#90caf9" stroke="#90caf9" d="M1264,-704C1264,-704 1220,-704 1220,-704 1214,-704 1208,-698 1208,-692 1208,-692 1208,-678 1208,-678 1208,-672 1214,-666 1220,-666 1220,-666 1264,-666 1264,-666 1270,-666 1276,-672 1276,-678 1276,-678 1276,-692 1276,-692 1276,-698 1270,-704 1264,-704"/>
<text text-anchor="middle" x="1242" y="-688.8" font-family="Times,serif" font-size="14.00" fill="#000000">splix.io</text>
<text text-anchor="middle" x="1242" y="-673.8" font-family="Times,serif" font-size="14.00" fill="#000000">Jesper</text>
</g>
<!-- paper.io&#45;&gt;splix.io -->
<g id="edge36" class="edge">
<title>paper.io&#45;&gt;splix.io</title>
<path fill="none" stroke="#000000" d="M1242,-739.9432C1242,-732.1493 1242,-722.9538 1242,-714.3381"/>
<polygon fill="#000000" stroke="#000000" points="1245.5001,-714.2494 1242,-704.2495 1238.5001,-714.2495 1245.5001,-714.2494"/>
</g>
<!-- hexar.io -->
<g id="node34" class="node">
<title>hexar.io</title>
<path fill="#90caf9" stroke="#90caf9" d="M1266.5,-555C1266.5,-555 1217.5,-555 1217.5,-555 1211.5,-555 1205.5,-549 1205.5,-543 1205.5,-543 1205.5,-531 1205.5,-531 1205.5,-525 1211.5,-519 1217.5,-519 1217.5,-519 1266.5,-519 1266.5,-519 1272.5,-519 1278.5,-525 1278.5,-531 1278.5,-531 1278.5,-543 1278.5,-543 1278.5,-549 1272.5,-555 1266.5,-555"/>
<text text-anchor="middle" x="1242" y="-533.3" font-family="Times,serif" font-size="14.00" fill="#000000">hexar.io</text>
</g>
<!-- splix.io&#45;&gt;hexar.io -->
<g id="edge37" class="edge">
<title>splix.io&#45;&gt;hexar.io</title>
<path fill="none" stroke="#000000" d="M1242,-665.9546C1242,-640.3667 1242,-594.696 1242,-565.1392"/>
<polygon fill="#000000" stroke="#000000" points="1245.5001,-565.0459 1242,-555.0459 1238.5001,-565.046 1245.5001,-565.0459"/>
</g>
<!-- drawthis.io -->
<g id="node31" class="node">
<title>drawthis.io</title>
<path fill="#90caf9" stroke="#90caf9" d="M1412.5,-703C1412.5,-703 1339.5,-703 1339.5,-703 1333.5,-703 1327.5,-697 1327.5,-691 1327.5,-691 1327.5,-679 1327.5,-679 1327.5,-673 1333.5,-667 1339.5,-667 1339.5,-667 1412.5,-667 1412.5,-667 1418.5,-667 1424.5,-673 1424.5,-679 1424.5,-679 1424.5,-691 1424.5,-691 1424.5,-697 1418.5,-703 1412.5,-703"/>
<text text-anchor="middle" x="1376" y="-681.3" font-family="Times,serif" font-size="14.00" fill="#000000">drawthis.io</text>
</g>
<!-- skribbl.io -->
<g id="node38" class="node">
<title>skribbl.io</title>
<path fill="#90caf9" stroke="#90caf9" d="M1387,-555C1387,-555 1327,-555 1327,-555 1321,-555 1315,-549 1315,-543 1315,-543 1315,-531 1315,-531 1315,-525 1321,-519 1327,-519 1327,-519 1387,-519 1387,-519 1393,-519 1399,-525 1399,-531 1399,-531 1399,-543 1399,-543 1399,-549 1393,-555 1387,-555"/>
<text text-anchor="middle" x="1357" y="-533.3" font-family="Times,serif" font-size="14.00" fill="#000000">skribbl.io</text>
</g>
<!-- drawthis.io&#45;&gt;skribbl.io -->
<g id="edge44" class="edge">
<title>drawthis.io&#45;&gt;skribbl.io</title>
<path fill="none" stroke="#000000" d="M1373.6702,-666.8523C1370.4225,-641.5539 1364.5017,-595.4342 1360.6609,-565.5167"/>
<polygon fill="#000000" stroke="#000000" points="1364.0938,-564.769 1359.3488,-555.2961 1357.1507,-565.6604 1364.0938,-564.769"/>
</g>
<!-- drawthis2.io -->
<g id="node55" class="node">
<title>drawthis2.io</title>
<path fill="#90caf9" stroke="#90caf9" d="M1468,-186C1468,-186 1386,-186 1386,-186 1380,-186 1374,-180 1374,-174 1374,-174 1374,-160 1374,-160 1374,-154 1380,-148 1386,-148 1386,-148 1468,-148 1468,-148 1474,-148 1480,-154 1480,-160 1480,-160 1480,-174 1480,-174 1480,-180 1474,-186 1468,-186"/>
<text text-anchor="middle" x="1427" y="-170.8" font-family="Times,serif" font-size="14.00" fill="#000000">drawthis2.io</text>
<text text-anchor="middle" x="1427" y="-155.8" font-family="Times,serif" font-size="14.00" fill="#000000">lagged.com</text>
</g>
<!-- drawthis.io&#45;&gt;drawthis2.io -->
<g id="edge45" class="edge">
<title>drawthis.io&#45;&gt;drawthis2.io</title>
<path fill="none" stroke="#000000" d="M1386.8158,-666.5474C1401.7864,-639.2146 1427,-585.919 1427,-537 1427,-537 1427,-537 1427,-315 1427,-273.8086 1427,-226.1685 1427,-196.3096"/>
<polygon fill="#000000" stroke="#000000" points="1430.5001,-196.1583 1427,-186.1583 1423.5001,-196.1583 1430.5001,-196.1583"/>
</g>
<!-- krew.io -->
<g id="node32" class="node">
<title>krew.io</title>
<path fill="#90caf9" stroke="#90caf9" d="M1511,-630C1511,-630 1467,-630 1467,-630 1461,-630 1455,-624 1455,-618 1455,-618 1455,-604 1455,-604 1455,-598 1461,-592 1467,-592 1467,-592 1511,-592 1511,-592 1517,-592 1523,-598 1523,-604 1523,-604 1523,-618 1523,-618 1523,-624 1517,-630 1511,-630"/>
<text text-anchor="middle" x="1489" y="-614.8" font-family="Times,serif" font-size="14.00" fill="#000000">krew.io</text>
<text text-anchor="middle" x="1489" y="-599.8" font-family="Times,serif" font-size="14.00" fill="#000000">M0dE</text>
</g>
<!-- brutal.io -->
<g id="node33" class="node">
<title>brutal.io</title>
<path fill="#90caf9" stroke="#90caf9" d="M1566.5,-556C1566.5,-556 1467.5,-556 1467.5,-556 1461.5,-556 1455.5,-550 1455.5,-544 1455.5,-544 1455.5,-530 1455.5,-530 1455.5,-524 1461.5,-518 1467.5,-518 1467.5,-518 1566.5,-518 1566.5,-518 1572.5,-518 1578.5,-524 1578.5,-530 1578.5,-530 1578.5,-544 1578.5,-544 1578.5,-550 1572.5,-556 1566.5,-556"/>
<text text-anchor="middle" x="1517" y="-540.8" font-family="Times,serif" font-size="14.00" fill="#000000">brutal.io</text>
<text text-anchor="middle" x="1517" y="-525.8" font-family="Times,serif" font-size="14.00" fill="#000000">Andre Almeida</text>
</g>
<!-- superhex.io -->
<g id="node42" class="node">
<title>superhex.io</title>
<path fill="#90caf9" stroke="#90caf9" d="M1280,-481C1280,-481 1204,-481 1204,-481 1198,-481 1192,-475 1192,-469 1192,-469 1192,-457 1192,-457 1192,-451 1198,-445 1204,-445 1204,-445 1280,-445 1280,-445 1286,-445 1292,-451 1292,-457 1292,-457 1292,-469 1292,-469 1292,-475 1286,-481 1280,-481"/>
<text text-anchor="middle" x="1242" y="-459.3" font-family="Times,serif" font-size="14.00" fill="#000000">superhex.io</text>
</g>
<!-- hexar.io&#45;&gt;superhex.io -->
<g id="edge38" class="edge">
<title>hexar.io&#45;&gt;superhex.io</title>
<path fill="none" stroke="#000000" d="M1242,-518.7079C1242,-510.4635 1242,-500.5376 1242,-491.3622"/>
<polygon fill="#000000" stroke="#000000" points="1245.5001,-491.0817 1242,-481.0817 1238.5001,-491.0818 1245.5001,-491.0817"/>
</g>
<!-- starve.io -->
<g id="node37" class="node">
<title>starve.io</title>
<path fill="#90caf9" stroke="#90caf9" d="M778,-556C778,-556 702,-556 702,-556 696,-556 690,-550 690,-544 690,-544 690,-530 690,-530 690,-524 696,-518 702,-518 702,-518 778,-518 778,-518 784,-518 790,-524 790,-530 790,-530 790,-544 790,-544 790,-550 784,-556 778,-556"/>
<text text-anchor="middle" x="740" y="-540.8" font-family="Times,serif" font-size="14.00" fill="#000000">starve.io</text>
<text text-anchor="middle" x="740" y="-525.8" font-family="Times,serif" font-size="14.00" fill="#000000">LapaMauve</text>
</g>
<!-- moomoo.io&#45;&gt;starve.io -->
<g id="edge23" class="edge">
<title>moomoo.io&#45;&gt;starve.io</title>
<path fill="none" stroke="#000000" d="M527.9046,-556.0516C542.8664,-563.1855 560.8254,-570.4241 578,-574 615.6257,-581.8341 657.9614,-571.495 689.9161,-559.7754"/>
<polygon fill="#000000" stroke="#000000" points="691.3956,-562.9568 699.483,-556.1126 688.8926,-556.4196 691.3956,-562.9568"/>
</g>
<!-- zombs.io -->
<g id="node40" class="node">
<title>zombs.io</title>
<path fill="#90caf9" stroke="#90caf9" d="M591,-482C591,-482 535,-482 535,-482 529,-482 523,-476 523,-470 523,-470 523,-456 523,-456 523,-450 529,-444 535,-444 535,-444 591,-444 591,-444 597,-444 603,-450 603,-456 603,-456 603,-470 603,-470 603,-476 597,-482 591,-482"/>
<text text-anchor="middle" x="563" y="-466.8" font-family="Times,serif" font-size="14.00" fill="#000000">zombs.io</text>
<text text-anchor="middle" x="563" y="-451.8" font-family="Times,serif" font-size="14.00" fill="#000000">Yang Lui</text>
</g>
<!-- moomoo.io&#45;&gt;zombs.io -->
<g id="edge30" class="edge">
<title>moomoo.io&#45;&gt;zombs.io</title>
<path fill="none" stroke="#000000" d="M511.0267,-517.9432C519.2095,-509.2928 529.0255,-498.9159 537.9122,-489.5214"/>
<polygon fill="#000000" stroke="#000000" points="540.4617,-491.9194 544.7911,-482.2495 535.3764,-487.109 540.4617,-491.9194"/>
</g>
<!-- foes.io -->
<g id="node43" class="node">
<title>foes.io</title>
<path fill="#90caf9" stroke="#90caf9" d="M243.5,-408C243.5,-408 134.5,-408 134.5,-408 128.5,-408 122.5,-402 122.5,-396 122.5,-396 122.5,-382 122.5,-382 122.5,-376 128.5,-370 134.5,-370 134.5,-370 243.5,-370 243.5,-370 249.5,-370 255.5,-376 255.5,-382 255.5,-382 255.5,-396 255.5,-396 255.5,-402 249.5,-408 243.5,-408"/>
<text text-anchor="middle" x="189" y="-392.8" font-family="Times,serif" font-size="14.00" fill="#000000">foes.io</text>
<text text-anchor="middle" x="189" y="-377.8" font-family="Times,serif" font-size="14.00" fill="#000000">Sydney de Vries</text>
</g>
<!-- moomoo.io&#45;&gt;foes.io -->
<g id="edge21" class="edge">
<title>moomoo.io&#45;&gt;foes.io</title>
<path fill="none" stroke="#000000" d="M453.8797,-517.9546C398.6242,-491.0539 297.7755,-441.9565 237.7258,-412.7218"/>
<polygon fill="#000000" stroke="#000000" points="238.9749,-409.4372 228.4517,-408.2067 235.9108,-415.7309 238.9749,-409.4372"/>
</g>
<!-- surviv.io -->
<g id="node44" class="node">
<title>surviv.io</title>
<path fill="#90caf9" stroke="#90caf9" d="M454,-408C454,-408 286,-408 286,-408 280,-408 274,-402 274,-396 274,-396 274,-382 274,-382 274,-376 280,-370 286,-370 286,-370 454,-370 454,-370 460,-370 466,-376 466,-382 466,-382 466,-396 466,-396 466,-402 460,-408 454,-408"/>
<text text-anchor="middle" x="370" y="-392.8" font-family="Times,serif" font-size="14.00" fill="#000000">surviv.io</text>
<text text-anchor="middle" x="370" y="-377.8" font-family="Times,serif" font-size="14.00" fill="#000000">Justin Kim &amp; Nick Clark</text>
</g>
<!-- moomoo.io&#45;&gt;surviv.io -->
<g id="edge24" class="edge">
<title>moomoo.io&#45;&gt;surviv.io</title>
<path fill="none" stroke="#000000" d="M477.1717,-517.9546C455.7024,-492.1216 417.2211,-445.8189 392.6835,-416.294"/>
<polygon fill="#000000" stroke="#000000" points="395.2415,-413.896 386.1581,-408.4423 389.858,-418.3701 395.2415,-413.896"/>
</g>
<!-- doomed.io -->
<g id="node47" class="node">
<title>doomed.io</title>
<path fill="#90caf9" stroke="#90caf9" d="M497,-334C497,-334 431,-334 431,-334 425,-334 419,-328 419,-322 419,-322 419,-308 419,-308 419,-302 425,-296 431,-296 431,-296 497,-296 497,-296 503,-296 509,-302 509,-308 509,-308 509,-322 509,-322 509,-328 503,-334 497,-334"/>
<text text-anchor="middle" x="464" y="-318.8" font-family="Times,serif" font-size="14.00" fill="#000000">doomed.io</text>
<text text-anchor="middle" x="464" y="-303.8" font-family="Times,serif" font-size="14.00" fill="#000000">Ginoda</text>
</g>
<!-- moomoo.io&#45;&gt;doomed.io -->
<g id="edge22" class="edge">
<title>moomoo.io&#45;&gt;doomed.io</title>
<path fill="none" stroke="#000000" d="M491.504,-517.8932C488.9425,-486.7902 483.1889,-423.3227 475,-370 473.7009,-361.5406 471.9972,-352.407 470.3199,-344.0591"/>
<polygon fill="#000000" stroke="#000000" points="473.6954,-343.0988 468.2419,-334.0154 466.8406,-344.5171 473.6954,-343.0988"/>
</g>
<!-- devast.io -->
<g id="node57" class="node">
<title>devast.io</title>
<path fill="#90caf9" stroke="#90caf9" d="M778,-112C778,-112 702,-112 702,-112 696,-112 690,-106 690,-100 690,-100 690,-86 690,-86 690,-80 696,-74 702,-74 702,-74 778,-74 778,-74 784,-74 790,-80 790,-86 790,-86 790,-100 790,-100 790,-106 784,-112 778,-112"/>
<text text-anchor="middle" x="740" y="-96.8" font-family="Times,serif" font-size="14.00" fill="#000000">devast.io</text>
<text text-anchor="middle" x="740" y="-81.8" font-family="Times,serif" font-size="14.00" fill="#000000">LapaMauve</text>
</g>
<!-- starve.io&#45;&gt;devast.io -->
<g id="edge35" class="edge">
<title>starve.io&#45;&gt;devast.io</title>
<path fill="none" stroke="#000000" d="M740,-517.8417C740,-489.6299 740,-435.25 740,-389 740,-389 740,-389 740,-241 740,-199.8086 740,-152.1685 740,-122.3096"/>
<polygon fill="#000000" stroke="#000000" points="743.5001,-122.1583 740,-112.1583 736.5001,-122.1583 743.5001,-122.1583"/>
</g>
<!-- stabby.io -->
<g id="node39" class="node">
<title>stabby.io</title>
<path fill="#90caf9" stroke="#90caf9" d="M1523,-482C1523,-482 1467,-482 1467,-482 1461,-482 1455,-476 1455,-470 1455,-470 1455,-456 1455,-456 1455,-450 1461,-444 1467,-444 1467,-444 1523,-444 1523,-444 1529,-444 1535,-450 1535,-456 1535,-456 1535,-470 1535,-470 1535,-476 1529,-482 1523,-482"/>
<text text-anchor="middle" x="1495" y="-466.8" font-family="Times,serif" font-size="14.00" fill="#000000">stabby.io</text>
<text text-anchor="middle" x="1495" y="-451.8" font-family="Times,serif" font-size="14.00" fill="#000000">Arcan</text>
</g>
<!-- zombsroyale.io -->
<g id="node52" class="node">
<title>zombsroyale.io</title>
<path fill="#90caf9" stroke="#90caf9" d="M629,-260C629,-260 529,-260 529,-260 523,-260 517,-254 517,-248 517,-248 517,-234 517,-234 517,-228 523,-222 529,-222 529,-222 629,-222 629,-222 635,-222 641,-228 641,-234 641,-234 641,-248 641,-248 641,-254 635,-260 629,-260"/>
<text text-anchor="middle" x="579" y="-244.8" font-family="Times,serif" font-size="14.00" fill="#000000">zombsroyale.io</text>
<text text-anchor="middle" x="579" y="-229.8" font-family="Times,serif" font-size="14.00" fill="#000000">Yang Lui</text>
</g>
<!-- zombs.io&#45;&gt;zombsroyale.io -->
<g id="edge29" class="edge">
<title>zombs.io&#45;&gt;zombsroyale.io</title>
<path fill="none" stroke="#000000" d="M564.3919,-443.6873C567.2003,-404.7205 573.56,-316.4803 576.8849,-270.3465"/>
<polygon fill="#000000" stroke="#000000" points="580.3947,-270.3357 577.6227,-260.11 573.4128,-269.8325 580.3947,-270.3357"/>
</g>
<!-- nightpoint.io -->
<g id="node45" class="node">
<title>nightpoint.io</title>
<path fill="#90caf9" stroke="#90caf9" d="M1596,-408C1596,-408 1512,-408 1512,-408 1506,-408 1500,-402 1500,-396 1500,-396 1500,-382 1500,-382 1500,-376 1506,-370 1512,-370 1512,-370 1596,-370 1596,-370 1602,-370 1608,-376 1608,-382 1608,-382 1608,-396 1608,-396 1608,-402 1602,-408 1596,-408"/>
<text text-anchor="middle" x="1554" y="-392.8" font-family="Times,serif" font-size="14.00" fill="#000000">nightpoint.io</text>
<text text-anchor="middle" x="1554" y="-377.8" font-family="Times,serif" font-size="14.00" fill="#000000">Sarunas</text>
</g>
<!-- bruh.io -->
<g id="node48" class="node">
<title>bruh.io</title>
<path fill="#90caf9" stroke="#90caf9" d="M1556.5,-334C1556.5,-334 1467.5,-334 1467.5,-334 1461.5,-334 1455.5,-328 1455.5,-322 1455.5,-322 1455.5,-308 1455.5,-308 1455.5,-302 1461.5,-296 1467.5,-296 1467.5,-296 1556.5,-296 1556.5,-296 1562.5,-296 1568.5,-302 1568.5,-308 1568.5,-308 1568.5,-322 1568.5,-322 1568.5,-328 1562.5,-334 1556.5,-334"/>
<text text-anchor="middle" x="1512" y="-318.8" font-family="Times,serif" font-size="14.00" fill="#000000">bruh.io</text>
<text text-anchor="middle" x="1512" y="-303.8" font-family="Times,serif" font-size="14.00" fill="#000000">Bitfox Games</text>
</g>
<!-- nightpoint.io&#45;&gt;bruh.io -->
<g id="edge27" class="edge">
<title>nightpoint.io&#45;&gt;bruh.io</title>
<path fill="none" stroke="#000000" d="M1543.184,-369.9432C1538.566,-361.8067 1533.081,-352.1427 1528.0085,-343.2055"/>
<polygon fill="#000000" stroke="#000000" points="1530.9054,-341.2187 1522.9254,-334.2495 1524.8176,-344.674 1530.9054,-341.2187"/>
</g>
<!-- battlepoint.io -->
<g id="node58" class="node">
<title>battlepoint.io</title>
<path fill="#90caf9" stroke="#90caf9" d="M1619.5,-112C1619.5,-112 1530.5,-112 1530.5,-112 1524.5,-112 1518.5,-106 1518.5,-100 1518.5,-100 1518.5,-86 1518.5,-86 1518.5,-80 1524.5,-74 1530.5,-74 1530.5,-74 1619.5,-74 1619.5,-74 1625.5,-74 1631.5,-80 1631.5,-86 1631.5,-86 1631.5,-100 1631.5,-100 1631.5,-106 1625.5,-112 1619.5,-112"/>
<text text-anchor="middle" x="1575" y="-96.8" font-family="Times,serif" font-size="14.00" fill="#000000">battlepoint.io</text>
<text text-anchor="middle" x="1575" y="-81.8" font-family="Times,serif" font-size="14.00" fill="#000000">Sarunas</text>
</g>
<!-- nightpoint.io&#45;&gt;battlepoint.io -->
<g id="edge26" class="edge">
<title>nightpoint.io&#45;&gt;battlepoint.io</title>
<path fill="none" stroke="#000000" d="M1564.1453,-369.9963C1569.0879,-359.6659 1574.4953,-346.4816 1577,-334 1592.0521,-258.9912 1584.5828,-168.1903 1579.0844,-122.4189"/>
<polygon fill="#000000" stroke="#000000" points="1582.5336,-121.795 1577.8127,-112.3102 1575.5884,-122.6689 1582.5336,-121.795"/>
</g>
<!-- doomed2.io -->
<g id="node53" class="node">
<title>doomed2.io</title>
<path fill="#90caf9" stroke="#90caf9" d="M486.5,-260C486.5,-260 411.5,-260 411.5,-260 405.5,-260 399.5,-254 399.5,-248 399.5,-248 399.5,-234 399.5,-234 399.5,-228 405.5,-222 411.5,-222 411.5,-222 486.5,-222 486.5,-222 492.5,-222 498.5,-228 498.5,-234 498.5,-234 498.5,-248 498.5,-248 498.5,-254 492.5,-260 486.5,-260"/>
<text text-anchor="middle" x="449" y="-244.8" font-family="Times,serif" font-size="14.00" fill="#000000">doomed2.io</text>
<text text-anchor="middle" x="449" y="-229.8" font-family="Times,serif" font-size="14.00" fill="#000000">Ginoda</text>
</g>
<!-- doomed.io&#45;&gt;doomed2.io -->
<g id="edge25" class="edge">
<title>doomed.io&#45;&gt;doomed2.io</title>
<path fill="none" stroke="#000000" d="M460.1371,-295.9432C458.5399,-288.0636 456.6523,-278.7516 454.8894,-270.0543"/>
<polygon fill="#000000" stroke="#000000" points="458.3189,-269.3548 452.9019,-260.2495 451.4584,-270.7455 458.3189,-269.3548"/>
</g>
<!-- bruh.io&#45;&gt;battlepoint.io -->
<g id="edge28" class="edge">
<title>bruh.io&#45;&gt;battlepoint.io</title>
<path fill="none" stroke="#000000" d="M1517.4806,-295.6873C1528.5854,-256.556 1553.7915,-167.7348 1566.837,-121.7648"/>
<polygon fill="#000000" stroke="#000000" points="1570.2138,-122.6856 1569.5769,-112.11 1563.4797,-120.7746 1570.2138,-122.6856"/>
</g>
<!-- shellshock.io -->
<g id="node50" class="node">
<title>shellshock.io</title>
<path fill="#90caf9" stroke="#90caf9" d="M1735,-333C1735,-333 1649,-333 1649,-333 1643,-333 1637,-327 1637,-321 1637,-321 1637,-309 1637,-309 1637,-303 1643,-297 1649,-297 1649,-297 1735,-297 1735,-297 1741,-297 1747,-303 1747,-309 1747,-309 1747,-321 1747,-321 1747,-327 1741,-333 1735,-333"/>
<text text-anchor="middle" x="1692" y="-311.3" font-family="Times,serif" font-size="14.00" fill="#000000">shellshock.io</text>
</g>
<!-- krunker.io -->
<g id="node56" class="node">
<title>krunker.io</title>
<path fill="#90caf9" stroke="#90caf9" d="M1746.5,-186C1746.5,-186 1637.5,-186 1637.5,-186 1631.5,-186 1625.5,-180 1625.5,-174 1625.5,-174 1625.5,-160 1625.5,-160 1625.5,-154 1631.5,-148 1637.5,-148 1637.5,-148 1746.5,-148 1746.5,-148 1752.5,-148 1758.5,-154 1758.5,-160 1758.5,-160 1758.5,-174 1758.5,-174 1758.5,-180 1752.5,-186 1746.5,-186"/>
<text text-anchor="middle" x="1692" y="-170.8" font-family="Times,serif" font-size="14.00" fill="#000000">krunker.io</text>
<text text-anchor="middle" x="1692" y="-155.8" font-family="Times,serif" font-size="14.00" fill="#000000">Sydney de Vries</text>
</g>
<!-- shellshock.io&#45;&gt;krunker.io -->
<g id="edge43" class="edge">
<title>shellshock.io&#45;&gt;krunker.io</title>
<path fill="none" stroke="#000000" d="M1692,-296.8523C1692,-271.8289 1692,-226.4343 1692,-196.498"/>
<polygon fill="#000000" stroke="#000000" points="1695.5001,-196.2345 1692,-186.2346 1688.5001,-196.2346 1695.5001,-196.2345"/>
</g>
<!-- airma.sh -->
<g id="node51" class="node">
<title>airma.sh</title>
<path fill="#90caf9" stroke="#90caf9" d="M1832.5,-333C1832.5,-333 1777.5,-333 1777.5,-333 1771.5,-333 1765.5,-327 1765.5,-321 1765.5,-321 1765.5,-309 1765.5,-309 1765.5,-303 1771.5,-297 1777.5,-297 1777.5,-297 1832.5,-297 1832.5,-297 1838.5,-297 1844.5,-303 1844.5,-309 1844.5,-309 1844.5,-321 1844.5,-321 1844.5,-327 1838.5,-333 1832.5,-333"/>
<text text-anchor="middle" x="1805" y="-311.3" font-family="Times,serif" font-size="14.00" fill="#000000">airma.sh</text>
</g>
<!-- buildroyale.io -->
<g id="node59" class="node">
<title>buildroyale.io</title>
<path fill="#90caf9" stroke="#90caf9" d="M644,-38C644,-38 514,-38 514,-38 508,-38 502,-32 502,-26 502,-26 502,-12 502,-12 502,-6 508,0 514,0 514,0 644,0 644,0 650,0 656,-6 656,-12 656,-12 656,-26 656,-26 656,-32 650,-38 644,-38"/>
<text text-anchor="middle" x="579" y="-22.8" font-family="Times,serif" font-size="14.00" fill="#000000">buildroyale.io</text>
<text text-anchor="middle" x="579" y="-7.8" font-family="Times,serif" font-size="14.00" fill="#000000">Mathew Matakovic</text>
</g>
<!-- zombsroyale.io&#45;&gt;buildroyale.io -->
<g id="edge31" class="edge">
<title>zombsroyale.io&#45;&gt;buildroyale.io</title>
<path fill="none" stroke="#000000" d="M579,-221.6873C579,-182.7205 579,-94.4803 579,-48.3465"/>
<polygon fill="#000000" stroke="#000000" points="582.5001,-48.1099 579,-38.11 575.5001,-48.11 582.5001,-48.1099"/>
</g>
</g>
</svg>
