<?xml version="1.0" encoding="UTF-8" standalone="no"?>
<!DOCTYPE svg PUBLIC "-//W3C//DTD SVG 1.1//EN"
 "http://www.w3.org/Graphics/SVG/1.1/DTD/svg11.dtd">
<!-- Generated by graphviz version 2.42.3 (0)
 -->
<!-- Title: iogames Pages: 1 -->
<svg width="2313pt" height="1302pt"
 viewBox="0.00 0.00 2312.50 1302.00" xmlns="http://www.w3.org/2000/svg" xmlns:xlink="http://www.w3.org/1999/xlink">
<g id="graph0" class="graph" transform="scale(1 1) rotate(0) translate(4 1298)">
<title>iogames</title>
<polygon fill="white" stroke="transparent" points="-4,4 -4,-1298 2308.5,-1298 2308.5,4 -4,4"/>
<text text-anchor="start" x="1073.75" y="-1279.8" font-family="Times,serif" font-weight="bold" text-decoration="underline" font-size="14.00">History of .io games</text>
<text text-anchor="start" x="1085.25" y="-1251.8" font-family="Times,serif" font-size="14.00">by </text>
<text text-anchor="start" x="1107.25" y="-1251.8" font-family="Times,serif" font-weight="bold" font-size="14.00">Julien Mourer</text>
<text text-anchor="start" x="1045.25" y="-1237.8" font-family="Times,serif" font-size="14.00">Licensed under the CC BY 4.0</text>
<text text-anchor="start" x="1002.25" y="-1223.8" font-family="Times,serif" font-size="14.00">https://github.com/getkey/io&#45;game&#45;history</text>
<!-- 2014q4 -->
<g id="node1" class="node">
<title>2014q4</title>
<text text-anchor="middle" x="51.5" y="-1192" font-family="Times,serif" font-size="20.00">Q4 2014</text>
</g>
<!-- 2015q1 -->
<g id="node2" class="node">
<title>2015q1</title>
<text text-anchor="middle" x="51.5" y="-1119" font-family="Times,serif" font-size="20.00">Q1 2015</text>
</g>
<!-- 2014q4&#45;&gt;2015q1 -->
<!-- 2015q2 -->
<g id="node3" class="node">
<title>2015q2</title>
<text text-anchor="middle" x="51.5" y="-1046" font-family="Times,serif" font-size="20.00">Q2 2015</text>
</g>
<!-- 2015q1&#45;&gt;2015q2 -->
<!-- 2015q3 -->
<g id="node4" class="node">
<title>2015q3</title>
<text text-anchor="middle" x="51.5" y="-973" font-family="Times,serif" font-size="20.00">Q3 2015</text>
</g>
<!-- 2015q2&#45;&gt;2015q3 -->
<!-- 2015q4 -->
<g id="node5" class="node">
<title>2015q4</title>
<text text-anchor="middle" x="51.5" y="-901" font-family="Times,serif" font-size="20.00">Q4 2015</text>
</g>
<!-- 2015q3&#45;&gt;2015q4 -->
<!-- 2016q1 -->
<g id="node6" class="node">
<title>2016q1</title>
<text text-anchor="middle" x="51.5" y="-828" font-family="Times,serif" font-size="20.00">Q1 2016</text>
</g>
<!-- 2015q4&#45;&gt;2016q1 -->
<!-- 2016q2 -->
<g id="node7" class="node">
<title>2016q2</title>
<text text-anchor="middle" x="51.5" y="-754" font-family="Times,serif" font-size="20.00">Q2 2016</text>
</g>
<!-- 2016q1&#45;&gt;2016q2 -->
<!-- 2016q3 -->
<g id="node8" class="node">
<title>2016q3</title>
<text text-anchor="middle" x="51.5" y="-680" font-family="Times,serif" font-size="20.00">Q3 2016</text>
</g>
<!-- 2016q2&#45;&gt;2016q3 -->
<!-- 2016q4 -->
<g id="node9" class="node">
<title>2016q4</title>
<text text-anchor="middle" x="51.5" y="-606" font-family="Times,serif" font-size="20.00">Q4 2016</text>
</g>
<!-- 2016q3&#45;&gt;2016q4 -->
<!-- 2017q1 -->
<g id="node10" class="node">
<title>2017q1</title>
<text text-anchor="middle" x="51.5" y="-532" font-family="Times,serif" font-size="20.00">Q1 2017</text>
</g>
<!-- 2016q4&#45;&gt;2017q1 -->
<!-- 2017q2 -->
<g id="node11" class="node">
<title>2017q2</title>
<text text-anchor="middle" x="51.5" y="-458" font-family="Times,serif" font-size="20.00">Q2 2017</text>
</g>
<!-- 2017q1&#45;&gt;2017q2 -->
<!-- 2017q3 -->
<g id="node12" class="node">
<title>2017q3</title>
<text text-anchor="middle" x="51.5" y="-384" font-family="Times,serif" font-size="20.00">Q3 2017</text>
</g>
<!-- 2017q2&#45;&gt;2017q3 -->
<!-- 2017q4 -->
<g id="node13" class="node">
<title>2017q4</title>
<text text-anchor="middle" x="51.5" y="-310" font-family="Times,serif" font-size="20.00">Q4 2017</text>
</g>
<!-- 2017q3&#45;&gt;2017q4 -->
<!-- 2018q1 -->
<g id="node14" class="node">
<title>2018q1</title>
<text text-anchor="middle" x="51.5" y="-236" font-family="Times,serif" font-size="20.00">Q1 2018</text>
</g>
<!-- 2017q4&#45;&gt;2018q1 -->
<!-- 2018q2 -->
<g id="node15" class="node">
<title>2018q2</title>
<text text-anchor="middle" x="51.5" y="-162" font-family="Times,serif" font-size="20.00">Q2 2018</text>
</g>
<!-- 2018q1&#45;&gt;2018q2 -->
<!-- 2018q3 -->
<g id="node16" class="node">
<title>2018q3</title>
<text text-anchor="middle" x="51.5" y="-88" font-family="Times,serif" font-size="20.00">Q3 2018</text>
</g>
<!-- 2018q2&#45;&gt;2018q3 -->
<!-- 2018q4 -->
<g id="node17" class="node">
<title>2018q4</title>
<text text-anchor="middle" x="51.5" y="-14" font-family="Times,serif" font-size="20.00">Q4 2018</text>
</g>
<!-- 2018q3&#45;&gt;2018q4 -->
<!-- cursors.io -->
<g id="node18" class="node">
<title>cursors.io</title>
<path fill="#90caf9" stroke="#90caf9" d="M262,-1216C262,-1216 133,-1216 133,-1216 127,-1216 121,-1210 121,-1204 121,-1204 121,-1190 121,-1190 121,-1184 127,-1178 133,-1178 133,-1178 262,-1178 262,-1178 268,-1178 274,-1184 274,-1190 274,-1190 274,-1204 274,-1204 274,-1210 268,-1216 262,-1216"/>
<text text-anchor="middle" x="197.5" y="-1200.8" font-family="Times,serif" font-size="14.00">cursors.io</text>
<text text-anchor="middle" x="197.5" y="-1185.8" font-family="Times,serif" font-size="14.00">Matheus Valadares</text>
</g>
<!-- voar.io -->
<g id="node19" class="node">
<title>voar.io</title>
<path fill="#90caf9" stroke="#90caf9" d="M433,-1216C433,-1216 304,-1216 304,-1216 298,-1216 292,-1210 292,-1204 292,-1204 292,-1190 292,-1190 292,-1184 298,-1178 304,-1178 304,-1178 433,-1178 433,-1178 439,-1178 445,-1184 445,-1190 445,-1190 445,-1204 445,-1204 445,-1210 439,-1216 433,-1216"/>
<text text-anchor="middle" x="368.5" y="-1200.8" font-family="Times,serif" font-size="14.00">voar.io</text>
<text text-anchor="middle" x="368.5" y="-1185.8" font-family="Times,serif" font-size="14.00">Matheus Valadares</text>
</g>
<!-- agar.io -->
<g id="node20" class="node">
<title>agar.io</title>
<path fill="#90caf9" stroke="#90caf9" d="M664,-1070C664,-1070 535,-1070 535,-1070 529,-1070 523,-1064 523,-1058 523,-1058 523,-1044 523,-1044 523,-1038 529,-1032 535,-1032 535,-1032 664,-1032 664,-1032 670,-1032 676,-1038 676,-1044 676,-1044 676,-1058 676,-1058 676,-1064 670,-1070 664,-1070"/>
<text text-anchor="middle" x="599.5" y="-1054.8" font-family="Times,serif" font-size="14.00">agar.io</text>
<text text-anchor="middle" x="599.5" y="-1039.8" font-family="Times,serif" font-size="14.00">Matheus Valadares</text>
</g>
<!-- deeeep.io -->
<g id="node27" class="node">
<title>deeeep.io</title>
<path fill="#90caf9" stroke="#90caf9" d="M299,-629C299,-629 238,-629 238,-629 232,-629 226,-623 226,-617 226,-617 226,-605 226,-605 226,-599 232,-593 238,-593 238,-593 299,-593 299,-593 305,-593 311,-599 311,-605 311,-605 311,-617 311,-617 311,-623 305,-629 299,-629"/>
<text text-anchor="middle" x="268.5" y="-607.3" font-family="Times,serif" font-size="14.00">deeeep.io</text>
</g>
<!-- agar.io&#45;&gt;deeeep.io -->
<g id="edge45" class="edge">
<title>agar.io&#45;&gt;deeeep.io</title>
<path fill="none" stroke="black" d="M541.03,-1031.97C487.15,-1011.28 415.5,-971.63 415.5,-907 415.5,-907 415.5,-907 415.5,-758 415.5,-700.41 358,-657.75 314.92,-633.87"/>
<polygon fill="black" stroke="black" points="316.44,-630.71 305.97,-629.06 313.13,-636.87 316.44,-630.71"/>
</g>
<!-- pie.ai -->
<g id="node39" class="node">
<title>pie.ai</title>
<path fill="#90caf9" stroke="#90caf9" d="M608.5,-555C608.5,-555 576.5,-555 576.5,-555 570.5,-555 564.5,-549 564.5,-543 564.5,-543 564.5,-531 564.5,-531 564.5,-525 570.5,-519 576.5,-519 576.5,-519 608.5,-519 608.5,-519 614.5,-519 620.5,-525 620.5,-531 620.5,-531 620.5,-543 620.5,-543 620.5,-549 614.5,-555 608.5,-555"/>
<text text-anchor="middle" x="592.5" y="-533.3" font-family="Times,serif" font-size="14.00">pie.ai</text>
</g>
<!-- agar.io&#45;&gt;pie.ai -->
<g id="edge41" class="edge">
<title>agar.io&#45;&gt;pie.ai</title>
<path fill="none" stroke="black" d="M599.5,-1031.94C599.5,-1004.81 599.5,-951.94 599.5,-907 599.5,-907 599.5,-907 599.5,-684 599.5,-642.6 596.66,-594.67 594.59,-565.34"/>
<polygon fill="black" stroke="black" points="598.06,-564.79 593.85,-555.07 591.08,-565.3 598.06,-564.79"/>
</g>
<!-- spinz.io -->
<g id="node45" class="node">
<title>spinz.io</title>
<path fill="#90caf9" stroke="#90caf9" d="M636.5,-482C636.5,-482 582.5,-482 582.5,-482 576.5,-482 570.5,-476 570.5,-470 570.5,-470 570.5,-456 570.5,-456 570.5,-450 576.5,-444 582.5,-444 582.5,-444 636.5,-444 636.5,-444 642.5,-444 648.5,-450 648.5,-456 648.5,-456 648.5,-470 648.5,-470 648.5,-476 642.5,-482 636.5,-482"/>
<text text-anchor="middle" x="609.5" y="-466.8" font-family="Times,serif" font-size="14.00">spinz.io</text>
<text text-anchor="middle" x="609.5" y="-451.8" font-family="Times,serif" font-size="14.00">Yang Lui</text>
</g>
<!-- agar.io&#45;&gt;spinz.io -->
<g id="edge38" class="edge">
<title>agar.io&#45;&gt;spinz.io</title>
<path fill="none" stroke="black" d="M610.13,-1031.72C624.54,-1005.17 648.5,-953.98 648.5,-907 648.5,-907 648.5,-907 648.5,-610 648.5,-567.52 632.9,-520.37 621.43,-491.45"/>
<polygon fill="black" stroke="black" points="624.6,-489.96 617.58,-482.02 618.12,-492.6 624.6,-489.96"/>
</g>
<!-- slither.io -->
<g id="node21" class="node">
<title>slither.io</title>
<path fill="#90caf9" stroke="#90caf9" d="M923.5,-852C923.5,-852 837.5,-852 837.5,-852 831.5,-852 825.5,-846 825.5,-840 825.5,-840 825.5,-826 825.5,-826 825.5,-820 831.5,-814 837.5,-814 837.5,-814 923.5,-814 923.5,-814 929.5,-814 935.5,-820 935.5,-826 935.5,-826 935.5,-840 935.5,-840 935.5,-846 929.5,-852 923.5,-852"/>
<text text-anchor="middle" x="880.5" y="-836.8" font-family="Times,serif" font-size="14.00">slither.io</text>
<text text-anchor="middle" x="880.5" y="-821.8" font-family="Times,serif" font-size="14.00">Steve Howse</text>
</g>
<!-- limax.io -->
<g id="node24" class="node">
<title>limax.io</title>
<path fill="#90caf9" stroke="#90caf9" d="M821,-778C821,-778 746,-778 746,-778 740,-778 734,-772 734,-766 734,-766 734,-752 734,-752 734,-746 740,-740 746,-740 746,-740 821,-740 821,-740 827,-740 833,-746 833,-752 833,-752 833,-766 833,-766 833,-772 827,-778 821,-778"/>
<text text-anchor="middle" x="783.5" y="-762.8" font-family="Times,serif" font-size="14.00">limax.io</text>
<text text-anchor="middle" x="783.5" y="-747.8" font-family="Times,serif" font-size="14.00">LapaMauve</text>
</g>
<!-- slither.io&#45;&gt;limax.io -->
<g id="edge19" class="edge">
<title>slither.io&#45;&gt;limax.io</title>
<path fill="none" stroke="black" d="M856.02,-813.83C843.96,-804.88 829.25,-793.96 816.23,-784.3"/>
<polygon fill="black" stroke="black" points="818.09,-781.31 807.97,-778.16 813.91,-786.93 818.09,-781.31"/>
</g>
<!-- wormax.io -->
<g id="node26" class="node">
<title>wormax.io</title>
<path fill="#90caf9" stroke="#90caf9" d="M877,-704C877,-704 810,-704 810,-704 804,-704 798,-698 798,-692 798,-692 798,-678 798,-678 798,-672 804,-666 810,-666 810,-666 877,-666 877,-666 883,-666 889,-672 889,-678 889,-678 889,-692 889,-692 889,-698 883,-704 877,-704"/>
<text text-anchor="middle" x="843.5" y="-688.8" font-family="Times,serif" font-size="14.00">wormax.io</text>
<text text-anchor="middle" x="843.5" y="-673.8" font-family="Times,serif" font-size="14.00">Elyland</text>
</g>
<!-- slither.io&#45;&gt;wormax.io -->
<g id="edge17" class="edge">
<title>slither.io&#45;&gt;wormax.io</title>
<path fill="none" stroke="black" d="M875.89,-813.8C869.57,-788.89 858.17,-743.89 850.72,-714.49"/>
<polygon fill="black" stroke="black" points="854.02,-713.26 848.17,-704.43 847.23,-714.98 854.02,-713.26"/>
</g>
<!-- wormate.io -->
<g id="node30" class="node">
<title>wormate.io</title>
<path fill="#90caf9" stroke="#90caf9" d="M979.5,-630C979.5,-630 855.5,-630 855.5,-630 849.5,-630 843.5,-624 843.5,-618 843.5,-618 843.5,-604 843.5,-604 843.5,-598 849.5,-592 855.5,-592 855.5,-592 979.5,-592 979.5,-592 985.5,-592 991.5,-598 991.5,-604 991.5,-604 991.5,-618 991.5,-618 991.5,-624 985.5,-630 979.5,-630"/>
<text text-anchor="middle" x="917.5" y="-614.8" font-family="Times,serif" font-size="14.00">wormate.io</text>
<text text-anchor="middle" x="917.5" y="-599.8" font-family="Times,serif" font-size="14.00">Oleksandr Godoba</text>
</g>
<!-- slither.io&#45;&gt;wormate.io -->
<g id="edge18" class="edge">
<title>slither.io&#45;&gt;wormate.io</title>
<path fill="none" stroke="black" d="M883.53,-814C889.96,-775.72 905.05,-686.03 912.77,-640.14"/>
<polygon fill="black" stroke="black" points="916.22,-640.69 914.43,-630.25 909.32,-639.53 916.22,-640.69"/>
</g>
<!-- powerline.io -->
<g id="node53" class="node">
<title>powerline.io</title>
<path fill="#90caf9" stroke="#90caf9" d="M1068.5,-334C1068.5,-334 970.5,-334 970.5,-334 964.5,-334 958.5,-328 958.5,-322 958.5,-322 958.5,-308 958.5,-308 958.5,-302 964.5,-296 970.5,-296 970.5,-296 1068.5,-296 1068.5,-296 1074.5,-296 1080.5,-302 1080.5,-308 1080.5,-308 1080.5,-322 1080.5,-322 1080.5,-328 1074.5,-334 1068.5,-334"/>
<text text-anchor="middle" x="1019.5" y="-318.8" font-family="Times,serif" font-size="14.00">powerline.io</text>
<text text-anchor="middle" x="1019.5" y="-303.8" font-family="Times,serif" font-size="14.00">Andre Almeida</text>
</g>
<!-- slither.io&#45;&gt;powerline.io -->
<g id="edge20" class="edge">
<title>slither.io&#45;&gt;powerline.io</title>
<path fill="none" stroke="black" d="M916.66,-813.99C957.84,-790.62 1019.5,-745.67 1019.5,-686 1019.5,-686 1019.5,-686 1019.5,-462 1019.5,-421.32 1019.5,-374.26 1019.5,-344.81"/>
<polygon fill="black" stroke="black" points="1023,-344.44 1019.5,-334.44 1016,-344.44 1023,-344.44"/>
</g>
<!-- diep.io -->
<g id="node22" class="node">
<title>diep.io</title>
<path fill="#90caf9" stroke="#90caf9" d="M1173,-852C1173,-852 1044,-852 1044,-852 1038,-852 1032,-846 1032,-840 1032,-840 1032,-826 1032,-826 1032,-820 1038,-814 1044,-814 1044,-814 1173,-814 1173,-814 1179,-814 1185,-820 1185,-826 1185,-826 1185,-840 1185,-840 1185,-846 1179,-852 1173,-852"/>
<text text-anchor="middle" x="1108.5" y="-836.8" font-family="Times,serif" font-size="14.00">diep.io</text>
<text text-anchor="middle" x="1108.5" y="-821.8" font-family="Times,serif" font-size="14.00">Matheus Valadares</text>
</g>
<!-- tanksmith.io -->
<g id="node62" class="node">
<title>tanksmith.io</title>
<path fill="#90caf9" stroke="#90caf9" d="M1149.5,-186C1149.5,-186 1067.5,-186 1067.5,-186 1061.5,-186 1055.5,-180 1055.5,-174 1055.5,-174 1055.5,-160 1055.5,-160 1055.5,-154 1061.5,-148 1067.5,-148 1067.5,-148 1149.5,-148 1149.5,-148 1155.5,-148 1161.5,-154 1161.5,-160 1161.5,-160 1161.5,-174 1161.5,-174 1161.5,-180 1155.5,-186 1149.5,-186"/>
<text text-anchor="middle" x="1108.5" y="-170.8" font-family="Times,serif" font-size="14.00">tanksmith.io</text>
<text text-anchor="middle" x="1108.5" y="-155.8" font-family="Times,serif" font-size="14.00">IO Ninja</text>
</g>
<!-- diep.io&#45;&gt;tanksmith.io -->
<g id="edge46" class="edge">
<title>diep.io&#45;&gt;tanksmith.io</title>
<path fill="none" stroke="black" d="M1108.5,-813.56C1108.5,-785.87 1108.5,-731.88 1108.5,-686 1108.5,-686 1108.5,-686 1108.5,-314 1108.5,-273.32 1108.5,-226.26 1108.5,-196.81"/>
<polygon fill="black" stroke="black" points="1112,-196.44 1108.5,-186.44 1105,-196.44 1112,-196.44"/>
</g>
<!-- wings.io -->
<g id="node23" class="node">
<title>wings.io</title>
<path fill="#90caf9" stroke="#90caf9" d="M1313.5,-852C1313.5,-852 1215.5,-852 1215.5,-852 1209.5,-852 1203.5,-846 1203.5,-840 1203.5,-840 1203.5,-826 1203.5,-826 1203.5,-820 1209.5,-814 1215.5,-814 1215.5,-814 1313.5,-814 1313.5,-814 1319.5,-814 1325.5,-820 1325.5,-826 1325.5,-826 1325.5,-840 1325.5,-840 1325.5,-846 1319.5,-852 1313.5,-852"/>
<text text-anchor="middle" x="1264.5" y="-836.8" font-family="Times,serif" font-size="14.00">wings.io</text>
<text text-anchor="middle" x="1264.5" y="-821.8" font-family="Times,serif" font-size="14.00">Andre Almeida</text>
</g>
<!-- wilds.io -->
<g id="node25" class="node">
<title>wilds.io</title>
<path fill="#90caf9" stroke="#90caf9" d="M1217,-778C1217,-778 1166,-778 1166,-778 1160,-778 1154,-772 1154,-766 1154,-766 1154,-752 1154,-752 1154,-746 1160,-740 1166,-740 1166,-740 1217,-740 1217,-740 1223,-740 1229,-746 1229,-752 1229,-752 1229,-766 1229,-766 1229,-772 1223,-778 1217,-778"/>
<text text-anchor="middle" x="1191.5" y="-762.8" font-family="Times,serif" font-size="14.00">wilds.io</text>
<text text-anchor="middle" x="1191.5" y="-747.8" font-family="Times,serif" font-size="14.00">Rezoner</text>
</g>
<!-- wanderers.io -->
<g id="node55" class="node">
<title>wanderers.io</title>
<path fill="#90caf9" stroke="#90caf9" d="M1234.5,-334C1234.5,-334 1148.5,-334 1148.5,-334 1142.5,-334 1136.5,-328 1136.5,-322 1136.5,-322 1136.5,-308 1136.5,-308 1136.5,-302 1142.5,-296 1148.5,-296 1148.5,-296 1234.5,-296 1234.5,-296 1240.5,-296 1246.5,-302 1246.5,-308 1246.5,-308 1246.5,-322 1246.5,-322 1246.5,-328 1240.5,-334 1234.5,-334"/>
<text text-anchor="middle" x="1191.5" y="-318.8" font-family="Times,serif" font-size="14.00">wanderers.io</text>
<text text-anchor="middle" x="1191.5" y="-303.8" font-family="Times,serif" font-size="14.00">Rezoner</text>
</g>
<!-- wilds.io&#45;&gt;wanderers.io -->
<g id="edge37" class="edge">
<title>wilds.io&#45;&gt;wanderers.io</title>
<path fill="none" stroke="black" d="M1191.5,-739.56C1191.5,-711.87 1191.5,-657.88 1191.5,-612 1191.5,-612 1191.5,-612 1191.5,-462 1191.5,-421.32 1191.5,-374.26 1191.5,-344.81"/>
<polygon fill="black" stroke="black" points="1195,-344.44 1191.5,-334.44 1188,-344.44 1195,-344.44"/>
</g>
<!-- oceanar.io -->
<g id="node28" class="node">
<title>oceanar.io</title>
<path fill="#90caf9" stroke="#90caf9" d="M559,-630C559,-630 494,-630 494,-630 488,-630 482,-624 482,-618 482,-618 482,-604 482,-604 482,-598 488,-592 494,-592 494,-592 559,-592 559,-592 565,-592 571,-598 571,-604 571,-604 571,-618 571,-618 571,-624 565,-630 559,-630"/>
<text text-anchor="middle" x="526.5" y="-614.8" font-family="Times,serif" font-size="14.00">oceanar.io</text>
<text text-anchor="middle" x="526.5" y="-599.8" font-family="Times,serif" font-size="14.00">S3Games</text>
</g>
<!-- deeeep.io&#45;&gt;oceanar.io -->
<g id="edge21" class="edge">
<title>deeeep.io&#45;&gt;oceanar.io</title>
<path fill="none" stroke="black" d="M291.43,-629.01C302.32,-636.45 315.9,-644.2 329.5,-648 386.86,-664.04 406.03,-663.63 463.5,-648 473.51,-645.28 483.55,-640.52 492.58,-635.31"/>
<polygon fill="black" stroke="black" points="494.54,-638.21 501.23,-630 490.88,-632.24 494.54,-638.21"/>
</g>
<!-- mope.io -->
<g id="node29" class="node">
<title>mope.io</title>
<path fill="#90caf9" stroke="#90caf9" d="M451.5,-630C451.5,-630 341.5,-630 341.5,-630 335.5,-630 329.5,-624 329.5,-618 329.5,-618 329.5,-604 329.5,-604 329.5,-598 335.5,-592 341.5,-592 341.5,-592 451.5,-592 451.5,-592 457.5,-592 463.5,-598 463.5,-604 463.5,-604 463.5,-618 463.5,-618 463.5,-624 457.5,-630 451.5,-630"/>
<text text-anchor="middle" x="396.5" y="-614.8" font-family="Times,serif" font-size="14.00">mope.io</text>
<text text-anchor="middle" x="396.5" y="-599.8" font-family="Times,serif" font-size="14.00">Stan Tatarnykov</text>
</g>
<!-- deeeep.io&#45;&gt;mope.io -->
<g id="edge22" class="edge">
<title>deeeep.io&#45;&gt;mope.io</title>
<path fill="none" stroke="black" d="M311,-611C313.77,-611 316.55,-611 319.32,-611"/>
<polygon fill="black" stroke="black" points="319.37,-614.5 329.37,-611 319.37,-607.5 319.37,-614.5"/>
</g>
<!-- moomoo.io -->
<g id="node40" class="node">
<title>moomoo.io</title>
<path fill="#90caf9" stroke="#90caf9" d="M453.5,-556C453.5,-556 345.5,-556 345.5,-556 339.5,-556 333.5,-550 333.5,-544 333.5,-544 333.5,-530 333.5,-530 333.5,-524 339.5,-518 345.5,-518 345.5,-518 453.5,-518 453.5,-518 459.5,-518 465.5,-524 465.5,-530 465.5,-530 465.5,-544 465.5,-544 465.5,-550 459.5,-556 453.5,-556"/>
<text text-anchor="middle" x="399.5" y="-540.8" font-family="Times,serif" font-size="14.00">moomoo.io</text>
<text text-anchor="middle" x="399.5" y="-525.8" font-family="Times,serif" font-size="14.00">Sydney de Vries</text>
</g>
<!-- mope.io&#45;&gt;moomoo.io -->
<g id="edge23" class="edge">
<title>mope.io&#45;&gt;moomoo.io</title>
<path fill="none" stroke="black" d="M397.26,-591.83C397.58,-584.13 397.96,-574.97 398.32,-566.42"/>
<polygon fill="black" stroke="black" points="401.81,-566.55 398.73,-556.41 394.82,-566.26 401.81,-566.55"/>
</g>
<!-- paper.io -->
<g id="node31" class="node">
<title>paper.io</title>
<path fill="#90caf9" stroke="#90caf9" d="M1383.5,-704C1383.5,-704 1333.5,-704 1333.5,-704 1327.5,-704 1321.5,-698 1321.5,-692 1321.5,-692 1321.5,-678 1321.5,-678 1321.5,-672 1327.5,-666 1333.5,-666 1333.5,-666 1383.5,-666 1383.5,-666 1389.5,-666 1395.5,-672 1395.5,-678 1395.5,-678 1395.5,-692 1395.5,-692 1395.5,-698 1389.5,-704 1383.5,-704"/>
<text text-anchor="middle" x="1358.5" y="-688.8" font-family="Times,serif" font-size="14.00">paper.io</text>
<text text-anchor="middle" x="1358.5" y="-673.8" font-family="Times,serif" font-size="14.00">Voodoo</text>
</g>
<!-- narwhale.io -->
<g id="node32" class="node">
<title>narwhale.io</title>
<path fill="#90caf9" stroke="#90caf9" d="M1523,-704C1523,-704 1426,-704 1426,-704 1420,-704 1414,-698 1414,-692 1414,-692 1414,-678 1414,-678 1414,-672 1420,-666 1426,-666 1426,-666 1523,-666 1523,-666 1529,-666 1535,-672 1535,-678 1535,-678 1535,-692 1535,-692 1535,-698 1529,-704 1523,-704"/>
<text text-anchor="middle" x="1474.5" y="-688.8" font-family="Times,serif" font-size="14.00">narwhale.io</text>
<text text-anchor="middle" x="1474.5" y="-673.8" font-family="Times,serif" font-size="14.00">Hsi&#45;Hung Shih</text>
</g>
<!-- pikes.io -->
<g id="node48" class="node">
<title>pikes.io</title>
<path fill="#90caf9" stroke="#90caf9" d="M1519.5,-482C1519.5,-482 1429.5,-482 1429.5,-482 1423.5,-482 1417.5,-476 1417.5,-470 1417.5,-470 1417.5,-456 1417.5,-456 1417.5,-450 1423.5,-444 1429.5,-444 1429.5,-444 1519.5,-444 1519.5,-444 1525.5,-444 1531.5,-450 1531.5,-456 1531.5,-456 1531.5,-470 1531.5,-470 1531.5,-476 1525.5,-482 1519.5,-482"/>
<text text-anchor="middle" x="1474.5" y="-466.8" font-family="Times,serif" font-size="14.00">pikes.io</text>
<text text-anchor="middle" x="1474.5" y="-451.8" font-family="Times,serif" font-size="14.00">Clown Games</text>
</g>
<!-- narwhale.io&#45;&gt;pikes.io -->
<g id="edge51" class="edge">
<title>narwhale.io&#45;&gt;pikes.io</title>
<path fill="none" stroke="black" d="M1474.5,-666C1474.5,-627.8 1474.5,-538.41 1474.5,-492.43"/>
<polygon fill="black" stroke="black" points="1478,-492.25 1474.5,-482.25 1471,-492.25 1478,-492.25"/>
</g>
<!-- splix.io -->
<g id="node33" class="node">
<title>splix.io</title>
<path fill="#90caf9" stroke="#90caf9" d="M1291.5,-704C1291.5,-704 1247.5,-704 1247.5,-704 1241.5,-704 1235.5,-698 1235.5,-692 1235.5,-692 1235.5,-678 1235.5,-678 1235.5,-672 1241.5,-666 1247.5,-666 1247.5,-666 1291.5,-666 1291.5,-666 1297.5,-666 1303.5,-672 1303.5,-678 1303.5,-678 1303.5,-692 1303.5,-692 1303.5,-698 1297.5,-704 1291.5,-704"/>
<text text-anchor="middle" x="1269.5" y="-688.8" font-family="Times,serif" font-size="14.00">splix.io</text>
<text text-anchor="middle" x="1269.5" y="-673.8" font-family="Times,serif" font-size="14.00">Jesper</text>
</g>
<!-- splix.io&#45;&gt;paper.io -->
<g id="edge42" class="edge">
<title>splix.io&#45;&gt;paper.io</title>
<path fill="none" stroke="black" d="M1303.57,-685C1306.04,-685 1308.52,-685 1310.99,-685"/>
<polygon fill="black" stroke="black" points="1311.17,-688.5 1321.16,-685 1311.16,-681.5 1311.17,-688.5"/>
</g>
<!-- hexar.io -->
<g id="node38" class="node">
<title>hexar.io</title>
<path fill="#90caf9" stroke="#90caf9" d="M1294,-555C1294,-555 1245,-555 1245,-555 1239,-555 1233,-549 1233,-543 1233,-543 1233,-531 1233,-531 1233,-525 1239,-519 1245,-519 1245,-519 1294,-519 1294,-519 1300,-519 1306,-525 1306,-531 1306,-531 1306,-543 1306,-543 1306,-549 1300,-555 1294,-555"/>
<text text-anchor="middle" x="1269.5" y="-533.3" font-family="Times,serif" font-size="14.00">hexar.io</text>
</g>
<!-- splix.io&#45;&gt;hexar.io -->
<g id="edge43" class="edge">
<title>splix.io&#45;&gt;hexar.io</title>
<path fill="none" stroke="black" d="M1269.5,-665.8C1269.5,-640.59 1269.5,-594.82 1269.5,-565.44"/>
<polygon fill="black" stroke="black" points="1273,-565.06 1269.5,-555.06 1266,-565.06 1273,-565.06"/>
</g>
<!-- drawthis.io -->
<g id="node34" class="node">
<title>drawthis.io</title>
<path fill="#90caf9" stroke="#90caf9" d="M1644,-703C1644,-703 1571,-703 1571,-703 1565,-703 1559,-697 1559,-691 1559,-691 1559,-679 1559,-679 1559,-673 1565,-667 1571,-667 1571,-667 1644,-667 1644,-667 1650,-667 1656,-673 1656,-679 1656,-679 1656,-691 1656,-691 1656,-697 1650,-703 1644,-703"/>
<text text-anchor="middle" x="1607.5" y="-681.3" font-family="Times,serif" font-size="14.00">drawthis.io</text>
</g>
<!-- skribbl.io -->
<g id="node42" class="node">
<title>skribbl.io</title>
<path fill="#90caf9" stroke="#90caf9" d="M1605,-555C1605,-555 1546,-555 1546,-555 1540,-555 1534,-549 1534,-543 1534,-543 1534,-531 1534,-531 1534,-525 1540,-519 1546,-519 1546,-519 1605,-519 1605,-519 1611,-519 1617,-525 1617,-531 1617,-531 1617,-543 1617,-543 1617,-549 1611,-555 1605,-555"/>
<text text-anchor="middle" x="1575.5" y="-533.3" font-family="Times,serif" font-size="14.00">skribbl.io</text>
</g>
<!-- drawthis.io&#45;&gt;skribbl.io -->
<g id="edge49" class="edge">
<title>drawthis.io&#45;&gt;skribbl.io</title>
<path fill="none" stroke="black" d="M1603.77,-666.97C1598.3,-642.04 1588.08,-595.37 1581.54,-565.54"/>
<polygon fill="black" stroke="black" points="1584.87,-564.4 1579.31,-555.38 1578.03,-565.9 1584.87,-564.4"/>
</g>
<!-- drawthis2.io -->
<g id="node63" class="node">
<title>drawthis2.io</title>
<path fill="#90caf9" stroke="#90caf9" d="M1686.5,-186C1686.5,-186 1604.5,-186 1604.5,-186 1598.5,-186 1592.5,-180 1592.5,-174 1592.5,-174 1592.5,-160 1592.5,-160 1592.5,-154 1598.5,-148 1604.5,-148 1604.5,-148 1686.5,-148 1686.5,-148 1692.5,-148 1698.5,-154 1698.5,-160 1698.5,-160 1698.5,-174 1698.5,-174 1698.5,-180 1692.5,-186 1686.5,-186"/>
<text text-anchor="middle" x="1645.5" y="-170.8" font-family="Times,serif" font-size="14.00">drawthis2.io</text>
<text text-anchor="middle" x="1645.5" y="-155.8" font-family="Times,serif" font-size="14.00">lagged.com</text>
</g>
<!-- drawthis.io&#45;&gt;drawthis2.io -->
<g id="edge50" class="edge">
<title>drawthis.io&#45;&gt;drawthis2.io</title>
<path fill="none" stroke="black" d="M1615.01,-666.85C1626.08,-639.94 1645.5,-585.93 1645.5,-538 1645.5,-538 1645.5,-538 1645.5,-314 1645.5,-273.32 1645.5,-226.26 1645.5,-196.81"/>
<polygon fill="black" stroke="black" points="1649,-196.44 1645.5,-186.44 1642,-196.44 1649,-196.44"/>
</g>
<!-- bonk.io -->
<g id="node35" class="node">
<title>bonk.io</title>
<path fill="#90caf9" stroke="#90caf9" d="M1730.5,-704C1730.5,-704 1686.5,-704 1686.5,-704 1680.5,-704 1674.5,-698 1674.5,-692 1674.5,-692 1674.5,-678 1674.5,-678 1674.5,-672 1680.5,-666 1686.5,-666 1686.5,-666 1730.5,-666 1730.5,-666 1736.5,-666 1742.5,-672 1742.5,-678 1742.5,-678 1742.5,-692 1742.5,-692 1742.5,-698 1736.5,-704 1730.5,-704"/>
<text text-anchor="middle" x="1708.5" y="-688.8" font-family="Times,serif" font-size="14.00">bonk.io</text>
<text text-anchor="middle" x="1708.5" y="-673.8" font-family="Times,serif" font-size="14.00">Chaz</text>
</g>
<!-- krew.io -->
<g id="node36" class="node">
<title>krew.io</title>
<path fill="#90caf9" stroke="#90caf9" d="M1729.5,-630C1729.5,-630 1685.5,-630 1685.5,-630 1679.5,-630 1673.5,-624 1673.5,-618 1673.5,-618 1673.5,-604 1673.5,-604 1673.5,-598 1679.5,-592 1685.5,-592 1685.5,-592 1729.5,-592 1729.5,-592 1735.5,-592 1741.5,-598 1741.5,-604 1741.5,-604 1741.5,-618 1741.5,-618 1741.5,-624 1735.5,-630 1729.5,-630"/>
<text text-anchor="middle" x="1707.5" y="-614.8" font-family="Times,serif" font-size="14.00">krew.io</text>
<text text-anchor="middle" x="1707.5" y="-599.8" font-family="Times,serif" font-size="14.00">M0dE</text>
</g>
<!-- brutal.io -->
<g id="node37" class="node">
<title>brutal.io</title>
<path fill="#90caf9" stroke="#90caf9" d="M1783.5,-556C1783.5,-556 1685.5,-556 1685.5,-556 1679.5,-556 1673.5,-550 1673.5,-544 1673.5,-544 1673.5,-530 1673.5,-530 1673.5,-524 1679.5,-518 1685.5,-518 1685.5,-518 1783.5,-518 1783.5,-518 1789.5,-518 1795.5,-524 1795.5,-530 1795.5,-530 1795.5,-544 1795.5,-544 1795.5,-550 1789.5,-556 1783.5,-556"/>
<text text-anchor="middle" x="1734.5" y="-540.8" font-family="Times,serif" font-size="14.00">brutal.io</text>
<text text-anchor="middle" x="1734.5" y="-525.8" font-family="Times,serif" font-size="14.00">Andre Almeida</text>
</g>
<!-- superhex.io -->
<g id="node49" class="node">
<title>superhex.io</title>
<path fill="#90caf9" stroke="#90caf9" d="M1307.5,-481C1307.5,-481 1231.5,-481 1231.5,-481 1225.5,-481 1219.5,-475 1219.5,-469 1219.5,-469 1219.5,-457 1219.5,-457 1219.5,-451 1225.5,-445 1231.5,-445 1231.5,-445 1307.5,-445 1307.5,-445 1313.5,-445 1319.5,-451 1319.5,-457 1319.5,-457 1319.5,-469 1319.5,-469 1319.5,-475 1313.5,-481 1307.5,-481"/>
<text text-anchor="middle" x="1269.5" y="-459.3" font-family="Times,serif" font-size="14.00">superhex.io</text>
</g>
<!-- hexar.io&#45;&gt;superhex.io -->
<g id="edge44" class="edge">
<title>hexar.io&#45;&gt;superhex.io</title>
<path fill="none" stroke="black" d="M1269.5,-518.94C1269.5,-510.81 1269.5,-500.88 1269.5,-491.7"/>
<polygon fill="black" stroke="black" points="1273,-491.44 1269.5,-481.44 1266,-491.44 1273,-491.44"/>
</g>
<!-- starve.io -->
<g id="node41" class="node">
<title>starve.io</title>
<path fill="#90caf9" stroke="#90caf9" d="M847,-556C847,-556 772,-556 772,-556 766,-556 760,-550 760,-544 760,-544 760,-530 760,-530 760,-524 766,-518 772,-518 772,-518 847,-518 847,-518 853,-518 859,-524 859,-530 859,-530 859,-544 859,-544 859,-550 853,-556 847,-556"/>
<text text-anchor="middle" x="809.5" y="-540.8" font-family="Times,serif" font-size="14.00">starve.io</text>
<text text-anchor="middle" x="809.5" y="-525.8" font-family="Times,serif" font-size="14.00">LapaMauve</text>
</g>
<!-- moomoo.io&#45;&gt;starve.io -->
<g id="edge27" class="edge">
<title>moomoo.io&#45;&gt;starve.io</title>
<path fill="none" stroke="black" d="M465.57,-555.32C495.52,-562.71 531.53,-570.35 564.5,-574 628.1,-581.04 700.51,-567.41 750.02,-554.75"/>
<polygon fill="black" stroke="black" points="751.13,-558.08 759.91,-552.15 749.35,-551.31 751.13,-558.08"/>
</g>
<!-- zombs.io -->
<g id="node44" class="node">
<title>zombs.io</title>
<path fill="#90caf9" stroke="#90caf9" d="M526.5,-482C526.5,-482 470.5,-482 470.5,-482 464.5,-482 458.5,-476 458.5,-470 458.5,-470 458.5,-456 458.5,-456 458.5,-450 464.5,-444 470.5,-444 470.5,-444 526.5,-444 526.5,-444 532.5,-444 538.5,-450 538.5,-456 538.5,-456 538.5,-470 538.5,-470 538.5,-476 532.5,-482 526.5,-482"/>
<text text-anchor="middle" x="498.5" y="-466.8" font-family="Times,serif" font-size="14.00">zombs.io</text>
<text text-anchor="middle" x="498.5" y="-451.8" font-family="Times,serif" font-size="14.00">Yang Lui</text>
</g>
<!-- moomoo.io&#45;&gt;zombs.io -->
<g id="edge30" class="edge">
<title>moomoo.io&#45;&gt;zombs.io</title>
<path fill="none" stroke="black" d="M424.48,-517.83C436.79,-508.88 451.81,-497.96 465.09,-488.3"/>
<polygon fill="black" stroke="black" points="467.5,-490.88 473.53,-482.16 463.38,-485.21 467.5,-490.88"/>
</g>
<!-- foes.io -->
<g id="node51" class="node">
<title>foes.io</title>
<path fill="#90caf9" stroke="#90caf9" d="M241.5,-408C241.5,-408 133.5,-408 133.5,-408 127.5,-408 121.5,-402 121.5,-396 121.5,-396 121.5,-382 121.5,-382 121.5,-376 127.5,-370 133.5,-370 133.5,-370 241.5,-370 241.5,-370 247.5,-370 253.5,-376 253.5,-382 253.5,-382 253.5,-396 253.5,-396 253.5,-402 247.5,-408 241.5,-408"/>
<text text-anchor="middle" x="187.5" y="-392.8" font-family="Times,serif" font-size="14.00">foes.io</text>
<text text-anchor="middle" x="187.5" y="-377.8" font-family="Times,serif" font-size="14.00">Sydney de Vries</text>
</g>
<!-- moomoo.io&#45;&gt;foes.io -->
<g id="edge24" class="edge">
<title>moomoo.io&#45;&gt;foes.io</title>
<path fill="none" stroke="black" d="M338.96,-517.97C315.38,-509.28 288.94,-497.36 267.5,-482 242.36,-463.99 219.85,-436.56 205.17,-416.34"/>
<polygon fill="black" stroke="black" points="208.01,-414.29 199.37,-408.16 202.3,-418.34 208.01,-414.29"/>
</g>
<!-- doomed.io -->
<g id="node54" class="node">
<title>doomed.io</title>
<path fill="#90caf9" stroke="#90caf9" d="M314.5,-334C314.5,-334 248.5,-334 248.5,-334 242.5,-334 236.5,-328 236.5,-322 236.5,-322 236.5,-308 236.5,-308 236.5,-302 242.5,-296 248.5,-296 248.5,-296 314.5,-296 314.5,-296 320.5,-296 326.5,-302 326.5,-308 326.5,-308 326.5,-322 326.5,-322 326.5,-328 320.5,-334 314.5,-334"/>
<text text-anchor="middle" x="281.5" y="-318.8" font-family="Times,serif" font-size="14.00">doomed.io</text>
<text text-anchor="middle" x="281.5" y="-303.8" font-family="Times,serif" font-size="14.00">Ginoda</text>
</g>
<!-- moomoo.io&#45;&gt;doomed.io -->
<g id="edge25" class="edge">
<title>moomoo.io&#45;&gt;doomed.io</title>
<path fill="none" stroke="black" d="M381.04,-517.88C358.44,-494.59 320.69,-451.9 300.5,-408 291.17,-387.72 286.39,-362.82 283.95,-344.04"/>
<polygon fill="black" stroke="black" points="287.42,-343.57 282.8,-334.04 280.47,-344.37 287.42,-343.57"/>
</g>
<!-- surviv.io -->
<g id="node66" class="node">
<title>surviv.io</title>
<path fill="#fff176" stroke="#fff176" d="M485.5,-408C485.5,-408 321.5,-408 321.5,-408 315.5,-408 309.5,-402 309.5,-396 309.5,-396 309.5,-382 309.5,-382 309.5,-376 315.5,-370 321.5,-370 321.5,-370 485.5,-370 485.5,-370 491.5,-370 497.5,-376 497.5,-382 497.5,-382 497.5,-396 497.5,-396 497.5,-402 491.5,-408 485.5,-408"/>
<text text-anchor="middle" x="403.5" y="-392.8" font-family="Times,serif" font-size="14.00">surviv.io</text>
<text text-anchor="middle" x="403.5" y="-377.8" font-family="Times,serif" font-size="14.00">Justin Kim &amp; Nick Clark</text>
</g>
<!-- moomoo.io&#45;&gt;surviv.io -->
<g id="edge29" class="edge">
<title>moomoo.io&#45;&gt;surviv.io</title>
<path fill="none" stroke="black" d="M400,-517.8C400.68,-492.89 401.91,-447.89 402.72,-418.49"/>
<polygon fill="black" stroke="black" points="406.22,-418.52 403,-408.43 399.22,-418.33 406.22,-418.52"/>
</g>
<!-- devast.io -->
<g id="node65" class="node">
<title>devast.io</title>
<path fill="#90caf9" stroke="#90caf9" d="M968,-112C968,-112 893,-112 893,-112 887,-112 881,-106 881,-100 881,-100 881,-86 881,-86 881,-80 887,-74 893,-74 893,-74 968,-74 968,-74 974,-74 980,-80 980,-86 980,-86 980,-100 980,-100 980,-106 974,-112 968,-112"/>
<text text-anchor="middle" x="930.5" y="-96.8" font-family="Times,serif" font-size="14.00">devast.io</text>
<text text-anchor="middle" x="930.5" y="-81.8" font-family="Times,serif" font-size="14.00">LapaMauve</text>
</g>
<!-- starve.io&#45;&gt;devast.io -->
<g id="edge28" class="edge">
<title>starve.io&#45;&gt;devast.io</title>
<path fill="none" stroke="black" d="M859.07,-520.2C878.14,-511.74 898.45,-499.39 911.5,-482 936.56,-448.61 930.5,-431.75 930.5,-390 930.5,-390 930.5,-390 930.5,-240 930.5,-199.32 930.5,-152.26 930.5,-122.81"/>
<polygon fill="black" stroke="black" points="934,-122.44 930.5,-112.44 927,-122.44 934,-122.44"/>
</g>
<!-- stabby.io -->
<g id="node43" class="node">
<title>stabby.io</title>
<path fill="#90caf9" stroke="#90caf9" d="M1741.5,-482C1741.5,-482 1685.5,-482 1685.5,-482 1679.5,-482 1673.5,-476 1673.5,-470 1673.5,-470 1673.5,-456 1673.5,-456 1673.5,-450 1679.5,-444 1685.5,-444 1685.5,-444 1741.5,-444 1741.5,-444 1747.5,-444 1753.5,-450 1753.5,-456 1753.5,-456 1753.5,-470 1753.5,-470 1753.5,-476 1747.5,-482 1741.5,-482"/>
<text text-anchor="middle" x="1713.5" y="-466.8" font-family="Times,serif" font-size="14.00">stabby.io</text>
<text text-anchor="middle" x="1713.5" y="-451.8" font-family="Times,serif" font-size="14.00">Arcan</text>
</g>
<!-- zombsroyale.io -->
<g id="node68" class="node">
<title>zombsroyale.io</title>
<path fill="#fff176" stroke="#fff176" d="M575.5,-260C575.5,-260 475.5,-260 475.5,-260 469.5,-260 463.5,-254 463.5,-248 463.5,-248 463.5,-234 463.5,-234 463.5,-228 469.5,-222 475.5,-222 475.5,-222 575.5,-222 575.5,-222 581.5,-222 587.5,-228 587.5,-234 587.5,-234 587.5,-248 587.5,-248 587.5,-254 581.5,-260 575.5,-260"/>
<text text-anchor="middle" x="525.5" y="-244.8" font-family="Times,serif" font-size="14.00">zombsroyale.io</text>
<text text-anchor="middle" x="525.5" y="-229.8" font-family="Times,serif" font-size="14.00">Yang Lui</text>
</g>
<!-- zombs.io&#45;&gt;zombsroyale.io -->
<g id="edge31" class="edge">
<title>zombs.io&#45;&gt;zombsroyale.io</title>
<path fill="none" stroke="black" d="M501.39,-443.53C502.98,-433.11 504.95,-419.84 506.5,-408 512.81,-359.94 518.98,-303.89 522.5,-270.76"/>
<polygon fill="black" stroke="black" points="526.02,-270.76 523.59,-260.45 519.06,-270.02 526.02,-270.76"/>
</g>
<!-- superspin.io -->
<g id="node46" class="node">
<title>superspin.io</title>
<path fill="#90caf9" stroke="#90caf9" d="M890.5,-482C890.5,-482 810.5,-482 810.5,-482 804.5,-482 798.5,-476 798.5,-470 798.5,-470 798.5,-456 798.5,-456 798.5,-450 804.5,-444 810.5,-444 810.5,-444 890.5,-444 890.5,-444 896.5,-444 902.5,-450 902.5,-456 902.5,-456 902.5,-470 902.5,-470 902.5,-476 896.5,-482 890.5,-482"/>
<text text-anchor="middle" x="850.5" y="-466.8" font-family="Times,serif" font-size="14.00">superspin.io</text>
<text text-anchor="middle" x="850.5" y="-451.8" font-family="Times,serif" font-size="14.00">Jetti Games</text>
</g>
<!-- spinz.io&#45;&gt;superspin.io -->
<g id="edge40" class="edge">
<title>spinz.io&#45;&gt;superspin.io</title>
<path fill="none" stroke="black" d="M632.38,-482.17C642.23,-489.23 654.28,-496.38 666.5,-500 715.08,-514.39 731.32,-512.2 780.5,-500 791.63,-497.24 802.95,-492.35 813.14,-487"/>
<polygon fill="black" stroke="black" points="815.09,-489.92 822.15,-482.02 811.7,-483.8 815.09,-489.92"/>
</g>
<!-- fisp.io -->
<g id="node47" class="node">
<title>fisp.io</title>
<path fill="#90caf9" stroke="#90caf9" d="M768.5,-482C768.5,-482 678.5,-482 678.5,-482 672.5,-482 666.5,-476 666.5,-470 666.5,-470 666.5,-456 666.5,-456 666.5,-450 672.5,-444 678.5,-444 678.5,-444 768.5,-444 768.5,-444 774.5,-444 780.5,-450 780.5,-456 780.5,-456 780.5,-470 780.5,-470 780.5,-476 774.5,-482 768.5,-482"/>
<text text-anchor="middle" x="723.5" y="-466.8" font-family="Times,serif" font-size="14.00">fisp.io</text>
<text text-anchor="middle" x="723.5" y="-451.8" font-family="Times,serif" font-size="14.00">Clown Games</text>
</g>
<!-- spinz.io&#45;&gt;fisp.io -->
<g id="edge39" class="edge">
<title>spinz.io&#45;&gt;fisp.io</title>
<path fill="none" stroke="black" d="M648.69,-463C651.15,-463 653.62,-463 656.08,-463"/>
<polygon fill="black" stroke="black" points="656.22,-466.5 666.22,-463 656.22,-459.5 656.22,-466.5"/>
</g>
<!-- goons.io -->
<g id="node50" class="node">
<title>goons.io</title>
<path fill="#90caf9" stroke="#90caf9" d="M1519.5,-408C1519.5,-408 1429.5,-408 1429.5,-408 1423.5,-408 1417.5,-402 1417.5,-396 1417.5,-396 1417.5,-382 1417.5,-382 1417.5,-376 1423.5,-370 1429.5,-370 1429.5,-370 1519.5,-370 1519.5,-370 1525.5,-370 1531.5,-376 1531.5,-382 1531.5,-382 1531.5,-396 1531.5,-396 1531.5,-402 1525.5,-408 1519.5,-408"/>
<text text-anchor="middle" x="1474.5" y="-392.8" font-family="Times,serif" font-size="14.00">goons.io</text>
<text text-anchor="middle" x="1474.5" y="-377.8" font-family="Times,serif" font-size="14.00">Clown Games</text>
</g>
<!-- pikes.io&#45;&gt;goons.io -->
<g id="edge52" class="edge">
<title>pikes.io&#45;&gt;goons.io</title>
<path fill="none" stroke="black" d="M1474.5,-443.83C1474.5,-436.13 1474.5,-426.97 1474.5,-418.42"/>
<polygon fill="black" stroke="black" points="1478,-418.41 1474.5,-408.41 1471,-418.41 1478,-418.41"/>
</g>
<!-- knuckol.club -->
<g id="node60" class="node">
<title>knuckol.club</title>
<path fill="#90caf9" stroke="#90caf9" d="M1515.5,-260C1515.5,-260 1433.5,-260 1433.5,-260 1427.5,-260 1421.5,-254 1421.5,-248 1421.5,-248 1421.5,-234 1421.5,-234 1421.5,-228 1427.5,-222 1433.5,-222 1433.5,-222 1515.5,-222 1515.5,-222 1521.5,-222 1527.5,-228 1527.5,-234 1527.5,-234 1527.5,-248 1527.5,-248 1527.5,-254 1521.5,-260 1515.5,-260"/>
<text text-anchor="middle" x="1474.5" y="-244.8" font-family="Times,serif" font-size="14.00">knuckol.club</text>
<text text-anchor="middle" x="1474.5" y="-229.8" font-family="Times,serif" font-size="14.00">Erigato</text>
</g>
<!-- goons.io&#45;&gt;knuckol.club -->
<g id="edge53" class="edge">
<title>goons.io&#45;&gt;knuckol.club</title>
<path fill="none" stroke="black" d="M1474.5,-369.8C1474.5,-344.89 1474.5,-299.89 1474.5,-270.49"/>
<polygon fill="black" stroke="black" points="1478,-270.43 1474.5,-260.43 1471,-270.43 1478,-270.43"/>
</g>
<!-- nightpoint.io -->
<g id="node52" class="node">
<title>nightpoint.io</title>
<path fill="#90caf9" stroke="#90caf9" d="M1876.5,-408C1876.5,-408 1792.5,-408 1792.5,-408 1786.5,-408 1780.5,-402 1780.5,-396 1780.5,-396 1780.5,-382 1780.5,-382 1780.5,-376 1786.5,-370 1792.5,-370 1792.5,-370 1876.5,-370 1876.5,-370 1882.5,-370 1888.5,-376 1888.5,-382 1888.5,-382 1888.5,-396 1888.5,-396 1888.5,-402 1882.5,-408 1876.5,-408"/>
<text text-anchor="middle" x="1834.5" y="-392.8" font-family="Times,serif" font-size="14.00">nightpoint.io</text>
<text text-anchor="middle" x="1834.5" y="-377.8" font-family="Times,serif" font-size="14.00">Sarunas</text>
</g>
<!-- shootem.io -->
<g id="node59" class="node">
<title>shootem.io</title>
<path fill="#90caf9" stroke="#90caf9" d="M1813.5,-260C1813.5,-260 1685.5,-260 1685.5,-260 1679.5,-260 1673.5,-254 1673.5,-248 1673.5,-248 1673.5,-234 1673.5,-234 1673.5,-228 1679.5,-222 1685.5,-222 1685.5,-222 1813.5,-222 1813.5,-222 1819.5,-222 1825.5,-228 1825.5,-234 1825.5,-234 1825.5,-248 1825.5,-248 1825.5,-254 1819.5,-260 1813.5,-260"/>
<text text-anchor="middle" x="1749.5" y="-244.8" font-family="Times,serif" font-size="14.00">shootem.io</text>
<text text-anchor="middle" x="1749.5" y="-229.8" font-family="Times,serif" font-size="14.00">Mathew Matakovic</text>
</g>
<!-- nightpoint.io&#45;&gt;shootem.io -->
<g id="edge35" class="edge">
<title>nightpoint.io&#45;&gt;shootem.io</title>
<path fill="none" stroke="black" d="M1804.18,-369.91C1791.28,-360.73 1777.24,-348.44 1768.5,-334 1756.87,-314.78 1752.25,-289.61 1750.47,-270.46"/>
<polygon fill="black" stroke="black" points="1753.94,-269.96 1749.73,-260.24 1746.96,-270.47 1753.94,-269.96"/>
</g>
<!-- bruh.io -->
<g id="node67" class="node">
<title>bruh.io</title>
<path fill="#fff176" stroke="#fff176" d="M1879,-334C1879,-334 1790,-334 1790,-334 1784,-334 1778,-328 1778,-322 1778,-322 1778,-308 1778,-308 1778,-302 1784,-296 1790,-296 1790,-296 1879,-296 1879,-296 1885,-296 1891,-302 1891,-308 1891,-308 1891,-322 1891,-322 1891,-328 1885,-334 1879,-334"/>
<text text-anchor="middle" x="1834.5" y="-318.8" font-family="Times,serif" font-size="14.00">bruh.io</text>
<text text-anchor="middle" x="1834.5" y="-303.8" font-family="Times,serif" font-size="14.00">Bitfox Games</text>
</g>
<!-- nightpoint.io&#45;&gt;bruh.io -->
<g id="edge34" class="edge">
<title>nightpoint.io&#45;&gt;bruh.io</title>
<path fill="none" stroke="black" d="M1834.5,-369.83C1834.5,-362.13 1834.5,-352.97 1834.5,-344.42"/>
<polygon fill="black" stroke="black" points="1838,-344.41 1834.5,-334.41 1831,-344.41 1838,-344.41"/>
</g>
<!-- battlepoint.io -->
<g id="node70" class="node">
<title>battlepoint.io</title>
<path fill="#fff176" stroke="#fff176" d="M1938,-112C1938,-112 1849,-112 1849,-112 1843,-112 1837,-106 1837,-100 1837,-100 1837,-86 1837,-86 1837,-80 1843,-74 1849,-74 1849,-74 1938,-74 1938,-74 1944,-74 1950,-80 1950,-86 1950,-86 1950,-100 1950,-100 1950,-106 1944,-112 1938,-112"/>
<text text-anchor="middle" x="1893.5" y="-96.8" font-family="Times,serif" font-size="14.00">battlepoint.io</text>
<text text-anchor="middle" x="1893.5" y="-81.8" font-family="Times,serif" font-size="14.00">Sarunas</text>
</g>
<!-- nightpoint.io&#45;&gt;battlepoint.io -->
<g id="edge33" class="edge">
<title>nightpoint.io&#45;&gt;battlepoint.io</title>
<path fill="none" stroke="black" d="M1866.78,-369.84C1879.44,-360.85 1892.58,-348.74 1899.5,-334 1932.51,-263.67 1914.27,-168.52 1901.91,-121.98"/>
<polygon fill="black" stroke="black" points="1905.27,-120.99 1899.23,-112.28 1898.52,-122.85 1905.27,-120.99"/>
</g>
<!-- doomed2.io -->
<g id="node61" class="node">
<title>doomed2.io</title>
<path fill="#90caf9" stroke="#90caf9" d="M319,-260C319,-260 244,-260 244,-260 238,-260 232,-254 232,-248 232,-248 232,-234 232,-234 232,-228 238,-222 244,-222 244,-222 319,-222 319,-222 325,-222 331,-228 331,-234 331,-234 331,-248 331,-248 331,-254 325,-260 319,-260"/>
<text text-anchor="middle" x="281.5" y="-244.8" font-family="Times,serif" font-size="14.00">doomed2.io</text>
<text text-anchor="middle" x="281.5" y="-229.8" font-family="Times,serif" font-size="14.00">Ginoda</text>
</g>
<!-- doomed.io&#45;&gt;doomed2.io -->
<g id="edge26" class="edge">
<title>doomed.io&#45;&gt;doomed2.io</title>
<path fill="none" stroke="black" d="M281.5,-295.83C281.5,-288.13 281.5,-278.97 281.5,-270.42"/>
<polygon fill="black" stroke="black" points="285,-270.41 281.5,-260.41 278,-270.41 285,-270.41"/>
</g>
<!-- shellshock.io -->
<g id="node56" class="node">
<title>shellshock.io</title>
<path fill="#90caf9" stroke="#90caf9" d="M2043.5,-333C2043.5,-333 1959.5,-333 1959.5,-333 1953.5,-333 1947.5,-327 1947.5,-321 1947.5,-321 1947.5,-309 1947.5,-309 1947.5,-303 1953.5,-297 1959.5,-297 1959.5,-297 2043.5,-297 2043.5,-297 2049.5,-297 2055.5,-303 2055.5,-309 2055.5,-309 2055.5,-321 2055.5,-321 2055.5,-327 2049.5,-333 2043.5,-333"/>
<text text-anchor="middle" x="2001.5" y="-311.3" font-family="Times,serif" font-size="14.00">shellshock.io</text>
</g>
<!-- krunker.io -->
<g id="node64" class="node">
<title>krunker.io</title>
<path fill="#90caf9" stroke="#90caf9" d="M2114.5,-186C2114.5,-186 2006.5,-186 2006.5,-186 2000.5,-186 1994.5,-180 1994.5,-174 1994.5,-174 1994.5,-160 1994.5,-160 1994.5,-154 2000.5,-148 2006.5,-148 2006.5,-148 2114.5,-148 2114.5,-148 2120.5,-148 2126.5,-154 2126.5,-160 2126.5,-160 2126.5,-174 2126.5,-174 2126.5,-180 2120.5,-186 2114.5,-186"/>
<text text-anchor="middle" x="2060.5" y="-170.8" font-family="Times,serif" font-size="14.00">krunker.io</text>
<text text-anchor="middle" x="2060.5" y="-155.8" font-family="Times,serif" font-size="14.00">Sydney de Vries</text>
</g>
<!-- shellshock.io&#45;&gt;krunker.io -->
<g id="edge48" class="edge">
<title>shellshock.io&#45;&gt;krunker.io</title>
<path fill="none" stroke="black" d="M2008.38,-296.97C2018.43,-272.1 2037.24,-225.57 2049.3,-195.72"/>
<polygon fill="black" stroke="black" points="2052.6,-196.88 2053.11,-186.3 2046.11,-194.26 2052.6,-196.88"/>
</g>
<!-- warscrap.io -->
<g id="node57" class="node">
<title>warscrap.io</title>
<path fill="#90caf9" stroke="#90caf9" d="M2161.5,-334C2161.5,-334 2085.5,-334 2085.5,-334 2079.5,-334 2073.5,-328 2073.5,-322 2073.5,-322 2073.5,-308 2073.5,-308 2073.5,-302 2079.5,-296 2085.5,-296 2085.5,-296 2161.5,-296 2161.5,-296 2167.5,-296 2173.5,-302 2173.5,-308 2173.5,-308 2173.5,-322 2173.5,-322 2173.5,-328 2167.5,-334 2161.5,-334"/>
<text text-anchor="middle" x="2123.5" y="-318.8" font-family="Times,serif" font-size="14.00">warscrap.io</text>
<text text-anchor="middle" x="2123.5" y="-303.8" font-family="Times,serif" font-size="14.00">Evil Noob</text>
</g>
<!-- warscrap.io&#45;&gt;krunker.io -->
<g id="edge47" class="edge">
<title>warscrap.io&#45;&gt;krunker.io</title>
<path fill="none" stroke="black" d="M2115.65,-295.8C2104.8,-270.67 2085.14,-225.1 2072.46,-195.72"/>
<polygon fill="black" stroke="black" points="2075.63,-194.22 2068.45,-186.43 2069.2,-196.99 2075.63,-194.22"/>
</g>
<!-- airma.sh -->
<g id="node58" class="node">
<title>airma.sh</title>
<path fill="#90caf9" stroke="#90caf9" d="M2275,-333C2275,-333 2220,-333 2220,-333 2214,-333 2208,-327 2208,-321 2208,-321 2208,-309 2208,-309 2208,-303 2214,-297 2220,-297 2220,-297 2275,-297 2275,-297 2281,-297 2287,-303 2287,-309 2287,-309 2287,-321 2287,-321 2287,-327 2281,-333 2275,-333"/>
<text text-anchor="middle" x="2247.5" y="-311.3" font-family="Times,serif" font-size="14.00">airma.sh</text>
</g>
<!-- skyroyale.io -->
<g id="node69" class="node">
<title>skyroyale.io</title>
<path fill="#fff176" stroke="#fff176" d="M2292.5,-186C2292.5,-186 2202.5,-186 2202.5,-186 2196.5,-186 2190.5,-180 2190.5,-174 2190.5,-174 2190.5,-160 2190.5,-160 2190.5,-154 2196.5,-148 2202.5,-148 2202.5,-148 2292.5,-148 2292.5,-148 2298.5,-148 2304.5,-154 2304.5,-160 2304.5,-160 2304.5,-174 2304.5,-174 2304.5,-180 2298.5,-186 2292.5,-186"/>
<text text-anchor="middle" x="2247.5" y="-170.8" font-family="Times,serif" font-size="14.00">skyroyale.io</text>
<text text-anchor="middle" x="2247.5" y="-155.8" font-family="Times,serif" font-size="14.00">Clown Games</text>
</g>
<!-- airma.sh&#45;&gt;skyroyale.io -->
<g id="edge54" class="edge">
<title>airma.sh&#45;&gt;skyroyale.io</title>
<path fill="none" stroke="black" d="M2247.5,-296.97C2247.5,-272.31 2247.5,-226.38 2247.5,-196.51"/>
<polygon fill="black" stroke="black" points="2251,-196.3 2247.5,-186.3 2244,-196.3 2251,-196.3"/>
</g>
<!-- bruh.io&#45;&gt;battlepoint.io -->
<g id="edge36" class="edge">
<title>bruh.io&#45;&gt;battlepoint.io</title>
<path fill="none" stroke="black" d="M1839.33,-296C1849.59,-257.72 1873.65,-168.03 1885.95,-122.14"/>
<polygon fill="black" stroke="black" points="1889.4,-122.82 1888.61,-112.25 1882.63,-121 1889.4,-122.82"/>
</g>
<!-- buildroyale.io -->
<g id="node71" class="node">
<title>buildroyale.io</title>
<path fill="#fff176" stroke="#fff176" d="M589.5,-38C589.5,-38 461.5,-38 461.5,-38 455.5,-38 449.5,-32 449.5,-26 449.5,-26 449.5,-12 449.5,-12 449.5,-6 455.5,0 461.5,0 461.5,0 589.5,0 589.5,0 595.5,0 601.5,-6 601.5,-12 601.5,-12 601.5,-26 601.5,-26 601.5,-32 595.5,-38 589.5,-38"/>
<text text-anchor="middle" x="525.5" y="-22.8" font-family="Times,serif" font-size="14.00">buildroyale.io</text>
<text text-anchor="middle" x="525.5" y="-7.8" font-family="Times,serif" font-size="14.00">Mathew Matakovic</text>
</g>
<!-- zombsroyale.io&#45;&gt;buildroyale.io -->
<g id="edge32" class="edge">
<title>zombsroyale.io&#45;&gt;buildroyale.io</title>
<path fill="none" stroke="black" d="M525.5,-222C525.5,-183.8 525.5,-94.41 525.5,-48.43"/>
<polygon fill="black" stroke="black" points="529,-48.25 525.5,-38.25 522,-48.25 529,-48.25"/>
</g>
</g>
</svg>
