<?xml version="1.0" encoding="UTF-8" standalone="no"?>
<!DOCTYPE svg PUBLIC "-//W3C//DTD SVG 1.1//EN"
 "http://www.w3.org/Graphics/SVG/1.1/DTD/svg11.dtd">
<!-- Generated by graphviz version 2.43.0 (0)
 -->
<!-- Title: iogames Pages: 1 -->
<svg width="2891pt" height="2109pt"
 viewBox="0.00 0.00 2890.50 2109.00" xmlns="http://www.w3.org/2000/svg" xmlns:xlink="http://www.w3.org/1999/xlink">
<g id="graph0" class="graph" transform="scale(1 1) rotate(0) translate(4 2105)">
<title>iogames</title>
<polygon fill="white" stroke="transparent" points="-4,4 -4,-2105 2886.5,-2105 2886.5,4 -4,4"/>
<text text-anchor="start" x="1270.75" y="-2074" font-family="Times-Roman" font-weight="bold" text-decoration="underline" font-size="30.00">History of .io games</text>
<text text-anchor="start" x="1377.25" y="-2042.8" font-family="Times-Roman" font-size="14.00">by </text>
<text text-anchor="start" x="1399.25" y="-2042.8" font-family="Times-Roman" font-weight="bold" font-size="14.00">Julien Mourer</text>
<text text-anchor="start" x="1337.75" y="-2028.8" font-family="Times-Roman" font-size="14.00">Licensed under the CC BY 4.0</text>
<text text-anchor="start" x="1293.75" y="-2014.8" font-family="Times-Roman" font-size="14.00">https://github.com/getkey/io&#45;game&#45;history</text>
<g id="clust98" class="cluster">
<title>cluster_battle_royale</title>
<polygon fill="none" stroke="black" points="441,-591 441,-757 957,-757 957,-591 441,-591"/>
<text text-anchor="middle" x="699" y="-741.8" font-family="Times-Roman" font-size="14.00">Battle Royale</text>
</g>
<!-- 2009q3 -->
<g id="node1" class="node">
<title>2009q3</title>
<path fill="white" stroke="transparent" d="M90,-2007C90,-2007 12,-2007 12,-2007 6,-2007 0,-2001 0,-1995 0,-1995 0,-1983 0,-1983 0,-1977 6,-1971 12,-1971 12,-1971 90,-1971 90,-1971 96,-1971 102,-1977 102,-1983 102,-1983 102,-1995 102,-1995 102,-2001 96,-2007 90,-2007"/>
<text text-anchor="middle" x="51" y="-1984" font-family="Times-Roman" font-size="20.00">Q3 2009</text>
</g>
<!-- 2009q4 -->
<g id="node2" class="node">
<title>2009q4</title>
<path fill="white" stroke="transparent" d="M90,-1935C90,-1935 12,-1935 12,-1935 6,-1935 0,-1929 0,-1923 0,-1923 0,-1911 0,-1911 0,-1905 6,-1899 12,-1899 12,-1899 90,-1899 90,-1899 96,-1899 102,-1905 102,-1911 102,-1911 102,-1923 102,-1923 102,-1929 96,-1935 90,-1935"/>
<text text-anchor="middle" x="51" y="-1912" font-family="Times-Roman" font-size="20.00">Q4 2009</text>
</g>
<!-- 2009q3&#45;&gt;2009q4 -->
<!-- 2010q1 -->
<g id="node3" class="node">
<title>2010q1</title>
<path fill="white" stroke="transparent" d="M90,-1862C90,-1862 12,-1862 12,-1862 6,-1862 0,-1856 0,-1850 0,-1850 0,-1838 0,-1838 0,-1832 6,-1826 12,-1826 12,-1826 90,-1826 90,-1826 96,-1826 102,-1832 102,-1838 102,-1838 102,-1850 102,-1850 102,-1856 96,-1862 90,-1862"/>
<text text-anchor="middle" x="51" y="-1839" font-family="Times-Roman" font-size="20.00">Q1 2010</text>
</g>
<!-- 2009q4&#45;&gt;2010q1 -->
<!-- ... -->
<g id="node27" class="node">
<title>...</title>
<path fill="white" stroke="transparent" d="M66,-1789C66,-1789 36,-1789 36,-1789 30,-1789 24,-1783 24,-1777 24,-1777 24,-1765 24,-1765 24,-1759 30,-1753 36,-1753 36,-1753 66,-1753 66,-1753 72,-1753 78,-1759 78,-1765 78,-1765 78,-1777 78,-1777 78,-1783 72,-1789 66,-1789"/>
<text text-anchor="middle" x="51" y="-1766" font-family="Times-Roman" font-size="20.00">...</text>
</g>
<!-- 2010q1&#45;&gt;... -->
<!-- 2014q4 -->
<g id="node4" class="node">
<title>2014q4</title>
<path fill="white" stroke="transparent" d="M90,-1716C90,-1716 12,-1716 12,-1716 6,-1716 0,-1710 0,-1704 0,-1704 0,-1692 0,-1692 0,-1686 6,-1680 12,-1680 12,-1680 90,-1680 90,-1680 96,-1680 102,-1686 102,-1692 102,-1692 102,-1704 102,-1704 102,-1710 96,-1716 90,-1716"/>
<text text-anchor="middle" x="51" y="-1693" font-family="Times-Roman" font-size="20.00">Q4 2014</text>
</g>
<!-- 2015q1 -->
<g id="node5" class="node">
<title>2015q1</title>
<path fill="white" stroke="transparent" d="M90,-1643C90,-1643 12,-1643 12,-1643 6,-1643 0,-1637 0,-1631 0,-1631 0,-1619 0,-1619 0,-1613 6,-1607 12,-1607 12,-1607 90,-1607 90,-1607 96,-1607 102,-1613 102,-1619 102,-1619 102,-1631 102,-1631 102,-1637 96,-1643 90,-1643"/>
<text text-anchor="middle" x="51" y="-1620" font-family="Times-Roman" font-size="20.00">Q1 2015</text>
</g>
<!-- 2014q4&#45;&gt;2015q1 -->
<!-- 2015q2 -->
<g id="node6" class="node">
<title>2015q2</title>
<path fill="white" stroke="transparent" d="M90,-1570C90,-1570 12,-1570 12,-1570 6,-1570 0,-1564 0,-1558 0,-1558 0,-1546 0,-1546 0,-1540 6,-1534 12,-1534 12,-1534 90,-1534 90,-1534 96,-1534 102,-1540 102,-1546 102,-1546 102,-1558 102,-1558 102,-1564 96,-1570 90,-1570"/>
<text text-anchor="middle" x="51" y="-1547" font-family="Times-Roman" font-size="20.00">Q2 2015</text>
</g>
<!-- 2015q1&#45;&gt;2015q2 -->
<!-- 2015q3 -->
<g id="node7" class="node">
<title>2015q3</title>
<path fill="white" stroke="transparent" d="M90,-1497C90,-1497 12,-1497 12,-1497 6,-1497 0,-1491 0,-1485 0,-1485 0,-1473 0,-1473 0,-1467 6,-1461 12,-1461 12,-1461 90,-1461 90,-1461 96,-1461 102,-1467 102,-1473 102,-1473 102,-1485 102,-1485 102,-1491 96,-1497 90,-1497"/>
<text text-anchor="middle" x="51" y="-1474" font-family="Times-Roman" font-size="20.00">Q3 2015</text>
</g>
<!-- 2015q2&#45;&gt;2015q3 -->
<!-- 2015q4 -->
<g id="node8" class="node">
<title>2015q4</title>
<path fill="white" stroke="transparent" d="M90,-1424C90,-1424 12,-1424 12,-1424 6,-1424 0,-1418 0,-1412 0,-1412 0,-1400 0,-1400 0,-1394 6,-1388 12,-1388 12,-1388 90,-1388 90,-1388 96,-1388 102,-1394 102,-1400 102,-1400 102,-1412 102,-1412 102,-1418 96,-1424 90,-1424"/>
<text text-anchor="middle" x="51" y="-1401" font-family="Times-Roman" font-size="20.00">Q4 2015</text>
</g>
<!-- 2015q3&#45;&gt;2015q4 -->
<!-- 2016q1 -->
<g id="node9" class="node">
<title>2016q1</title>
<path fill="white" stroke="transparent" d="M90,-1350C90,-1350 12,-1350 12,-1350 6,-1350 0,-1344 0,-1338 0,-1338 0,-1326 0,-1326 0,-1320 6,-1314 12,-1314 12,-1314 90,-1314 90,-1314 96,-1314 102,-1320 102,-1326 102,-1326 102,-1338 102,-1338 102,-1344 96,-1350 90,-1350"/>
<text text-anchor="middle" x="51" y="-1327" font-family="Times-Roman" font-size="20.00">Q1 2016</text>
</g>
<!-- 2015q4&#45;&gt;2016q1 -->
<!-- 2016q2 -->
<g id="node10" class="node">
<title>2016q2</title>
<path fill="white" stroke="transparent" d="M90,-1276C90,-1276 12,-1276 12,-1276 6,-1276 0,-1270 0,-1264 0,-1264 0,-1252 0,-1252 0,-1246 6,-1240 12,-1240 12,-1240 90,-1240 90,-1240 96,-1240 102,-1246 102,-1252 102,-1252 102,-1264 102,-1264 102,-1270 96,-1276 90,-1276"/>
<text text-anchor="middle" x="51" y="-1253" font-family="Times-Roman" font-size="20.00">Q2 2016</text>
</g>
<!-- 2016q1&#45;&gt;2016q2 -->
<!-- 2016q3 -->
<g id="node11" class="node">
<title>2016q3</title>
<path fill="white" stroke="transparent" d="M90,-1202C90,-1202 12,-1202 12,-1202 6,-1202 0,-1196 0,-1190 0,-1190 0,-1178 0,-1178 0,-1172 6,-1166 12,-1166 12,-1166 90,-1166 90,-1166 96,-1166 102,-1172 102,-1178 102,-1178 102,-1190 102,-1190 102,-1196 96,-1202 90,-1202"/>
<text text-anchor="middle" x="51" y="-1179" font-family="Times-Roman" font-size="20.00">Q3 2016</text>
</g>
<!-- 2016q2&#45;&gt;2016q3 -->
<!-- 2016q4 -->
<g id="node12" class="node">
<title>2016q4</title>
<path fill="white" stroke="transparent" d="M90,-1120.5C90,-1120.5 12,-1120.5 12,-1120.5 6,-1120.5 0,-1114.5 0,-1108.5 0,-1108.5 0,-1096.5 0,-1096.5 0,-1090.5 6,-1084.5 12,-1084.5 12,-1084.5 90,-1084.5 90,-1084.5 96,-1084.5 102,-1090.5 102,-1096.5 102,-1096.5 102,-1108.5 102,-1108.5 102,-1114.5 96,-1120.5 90,-1120.5"/>
<text text-anchor="middle" x="51" y="-1097.5" font-family="Times-Roman" font-size="20.00">Q4 2016</text>
</g>
<!-- 2016q3&#45;&gt;2016q4 -->
<!-- 2017q1 -->
<g id="node13" class="node">
<title>2017q1</title>
<path fill="white" stroke="transparent" d="M90,-1039C90,-1039 12,-1039 12,-1039 6,-1039 0,-1033 0,-1027 0,-1027 0,-1015 0,-1015 0,-1009 6,-1003 12,-1003 12,-1003 90,-1003 90,-1003 96,-1003 102,-1009 102,-1015 102,-1015 102,-1027 102,-1027 102,-1033 96,-1039 90,-1039"/>
<text text-anchor="middle" x="51" y="-1016" font-family="Times-Roman" font-size="20.00">Q1 2017</text>
</g>
<!-- 2016q4&#45;&gt;2017q1 -->
<!-- 2017q2 -->
<g id="node14" class="node">
<title>2017q2</title>
<path fill="white" stroke="transparent" d="M90,-965C90,-965 12,-965 12,-965 6,-965 0,-959 0,-953 0,-953 0,-941 0,-941 0,-935 6,-929 12,-929 12,-929 90,-929 90,-929 96,-929 102,-935 102,-941 102,-941 102,-953 102,-953 102,-959 96,-965 90,-965"/>
<text text-anchor="middle" x="51" y="-942" font-family="Times-Roman" font-size="20.00">Q2 2017</text>
</g>
<!-- 2017q1&#45;&gt;2017q2 -->
<!-- 2017q3 -->
<g id="node15" class="node">
<title>2017q3</title>
<path fill="white" stroke="transparent" d="M90,-891C90,-891 12,-891 12,-891 6,-891 0,-885 0,-879 0,-879 0,-867 0,-867 0,-861 6,-855 12,-855 12,-855 90,-855 90,-855 96,-855 102,-861 102,-867 102,-867 102,-879 102,-879 102,-885 96,-891 90,-891"/>
<text text-anchor="middle" x="51" y="-868" font-family="Times-Roman" font-size="20.00">Q3 2017</text>
</g>
<!-- 2017q2&#45;&gt;2017q3 -->
<!-- 2017q4 -->
<g id="node16" class="node">
<title>2017q4</title>
<path fill="white" stroke="transparent" d="M90,-809.5C90,-809.5 12,-809.5 12,-809.5 6,-809.5 0,-803.5 0,-797.5 0,-797.5 0,-785.5 0,-785.5 0,-779.5 6,-773.5 12,-773.5 12,-773.5 90,-773.5 90,-773.5 96,-773.5 102,-779.5 102,-785.5 102,-785.5 102,-797.5 102,-797.5 102,-803.5 96,-809.5 90,-809.5"/>
<text text-anchor="middle" x="51" y="-786.5" font-family="Times-Roman" font-size="20.00">Q4 2017</text>
</g>
<!-- 2017q3&#45;&gt;2017q4 -->
<!-- 2018q1 -->
<g id="node17" class="node">
<title>2018q1</title>
<path fill="white" stroke="transparent" d="M90,-717.5C90,-717.5 12,-717.5 12,-717.5 6,-717.5 0,-711.5 0,-705.5 0,-705.5 0,-693.5 0,-693.5 0,-687.5 6,-681.5 12,-681.5 12,-681.5 90,-681.5 90,-681.5 96,-681.5 102,-687.5 102,-693.5 102,-693.5 102,-705.5 102,-705.5 102,-711.5 96,-717.5 90,-717.5"/>
<text text-anchor="middle" x="51" y="-694.5" font-family="Times-Roman" font-size="20.00">Q1 2018</text>
</g>
<!-- 2017q4&#45;&gt;2018q1 -->
<!-- 2018q2 -->
<g id="node18" class="node">
<title>2018q2</title>
<path fill="white" stroke="transparent" d="M90,-636C90,-636 12,-636 12,-636 6,-636 0,-630 0,-624 0,-624 0,-612 0,-612 0,-606 6,-600 12,-600 12,-600 90,-600 90,-600 96,-600 102,-606 102,-612 102,-612 102,-624 102,-624 102,-630 96,-636 90,-636"/>
<text text-anchor="middle" x="51" y="-613" font-family="Times-Roman" font-size="20.00">Q2 2018</text>
</g>
<!-- 2018q1&#45;&gt;2018q2 -->
<!-- 2018q3 -->
<g id="node19" class="node">
<title>2018q3</title>
<path fill="white" stroke="transparent" d="M90,-554.5C90,-554.5 12,-554.5 12,-554.5 6,-554.5 0,-548.5 0,-542.5 0,-542.5 0,-530.5 0,-530.5 0,-524.5 6,-518.5 12,-518.5 12,-518.5 90,-518.5 90,-518.5 96,-518.5 102,-524.5 102,-530.5 102,-530.5 102,-542.5 102,-542.5 102,-548.5 96,-554.5 90,-554.5"/>
<text text-anchor="middle" x="51" y="-531.5" font-family="Times-Roman" font-size="20.00">Q3 2018</text>
</g>
<!-- 2018q2&#45;&gt;2018q3 -->
<!-- 2018q4 -->
<g id="node20" class="node">
<title>2018q4</title>
<path fill="white" stroke="transparent" d="M90,-473C90,-473 12,-473 12,-473 6,-473 0,-467 0,-461 0,-461 0,-449 0,-449 0,-443 6,-437 12,-437 12,-437 90,-437 90,-437 96,-437 102,-443 102,-449 102,-449 102,-461 102,-461 102,-467 96,-473 90,-473"/>
<text text-anchor="middle" x="51" y="-450" font-family="Times-Roman" font-size="20.00">Q4 2018</text>
</g>
<!-- 2018q3&#45;&gt;2018q4 -->
<!-- 2019q1 -->
<g id="node21" class="node">
<title>2019q1</title>
<path fill="white" stroke="transparent" d="M90,-400C90,-400 12,-400 12,-400 6,-400 0,-394 0,-388 0,-388 0,-376 0,-376 0,-370 6,-364 12,-364 12,-364 90,-364 90,-364 96,-364 102,-370 102,-376 102,-376 102,-388 102,-388 102,-394 96,-400 90,-400"/>
<text text-anchor="middle" x="51" y="-377" font-family="Times-Roman" font-size="20.00">Q1 2019</text>
</g>
<!-- 2018q4&#45;&gt;2019q1 -->
<!-- 2019q2 -->
<g id="node22" class="node">
<title>2019q2</title>
<path fill="white" stroke="transparent" d="M90,-328C90,-328 12,-328 12,-328 6,-328 0,-322 0,-316 0,-316 0,-304 0,-304 0,-298 6,-292 12,-292 12,-292 90,-292 90,-292 96,-292 102,-298 102,-304 102,-304 102,-316 102,-316 102,-322 96,-328 90,-328"/>
<text text-anchor="middle" x="51" y="-305" font-family="Times-Roman" font-size="20.00">Q2 2019</text>
</g>
<!-- 2019q1&#45;&gt;2019q2 -->
<!-- 2019q3 -->
<g id="node23" class="node">
<title>2019q3</title>
<path fill="white" stroke="transparent" d="M90,-256C90,-256 12,-256 12,-256 6,-256 0,-250 0,-244 0,-244 0,-232 0,-232 0,-226 6,-220 12,-220 12,-220 90,-220 90,-220 96,-220 102,-226 102,-232 102,-232 102,-244 102,-244 102,-250 96,-256 90,-256"/>
<text text-anchor="middle" x="51" y="-233" font-family="Times-Roman" font-size="20.00">Q3 2019</text>
</g>
<!-- 2019q2&#45;&gt;2019q3 -->
<!-- 2019q4 -->
<g id="node24" class="node">
<title>2019q4</title>
<path fill="white" stroke="transparent" d="M90,-184C90,-184 12,-184 12,-184 6,-184 0,-178 0,-172 0,-172 0,-160 0,-160 0,-154 6,-148 12,-148 12,-148 90,-148 90,-148 96,-148 102,-154 102,-160 102,-160 102,-172 102,-172 102,-178 96,-184 90,-184"/>
<text text-anchor="middle" x="51" y="-161" font-family="Times-Roman" font-size="20.00">Q4 2019</text>
</g>
<!-- 2019q3&#45;&gt;2019q4 -->
<!-- 2020q1 -->
<g id="node25" class="node">
<title>2020q1</title>
<path fill="white" stroke="transparent" d="M90,-111C90,-111 12,-111 12,-111 6,-111 0,-105 0,-99 0,-99 0,-87 0,-87 0,-81 6,-75 12,-75 12,-75 90,-75 90,-75 96,-75 102,-81 102,-87 102,-87 102,-99 102,-99 102,-105 96,-111 90,-111"/>
<text text-anchor="middle" x="51" y="-88" font-family="Times-Roman" font-size="20.00">Q1 2020</text>
</g>
<!-- 2019q4&#45;&gt;2020q1 -->
<!-- 2020q2 -->
<g id="node26" class="node">
<title>2020q2</title>
<path fill="white" stroke="transparent" d="M90,-37C90,-37 12,-37 12,-37 6,-37 0,-31 0,-25 0,-25 0,-13 0,-13 0,-7 6,-1 12,-1 12,-1 90,-1 90,-1 96,-1 102,-7 102,-13 102,-13 102,-25 102,-25 102,-31 96,-37 90,-37"/>
<text text-anchor="middle" x="51" y="-14" font-family="Times-Roman" font-size="20.00">Q2 2020</text>
</g>
<!-- 2020q1&#45;&gt;2020q2 -->
<!-- ...&#45;&gt;2014q4 -->
<!-- pinturillo.com -->
<g id="node28" class="node">
<title>pinturillo.com</title>
<path fill="#e1fa91" stroke="#e1fa91" d="M220,-2007C220,-2007 132,-2007 132,-2007 126,-2007 120,-2001 120,-1995 120,-1995 120,-1983 120,-1983 120,-1977 126,-1971 132,-1971 132,-1971 220,-1971 220,-1971 226,-1971 232,-1977 232,-1983 232,-1983 232,-1995 232,-1995 232,-2001 226,-2007 220,-2007"/>
<text text-anchor="middle" x="176" y="-1985.3" font-family="Times-Roman" font-size="14.00">pinturillo.com</text>
</g>
<!-- pinturillo2.com -->
<g id="node29" class="node">
<title>pinturillo2.com</title>
<path fill="#e1fa91" stroke="#e1fa91" d="M359.5,-2007C359.5,-2007 262.5,-2007 262.5,-2007 256.5,-2007 250.5,-2001 250.5,-1995 250.5,-1995 250.5,-1983 250.5,-1983 250.5,-1977 256.5,-1971 262.5,-1971 262.5,-1971 359.5,-1971 359.5,-1971 365.5,-1971 371.5,-1977 371.5,-1983 371.5,-1983 371.5,-1995 371.5,-1995 371.5,-2001 365.5,-2007 359.5,-2007"/>
<text text-anchor="middle" x="311" y="-1985.3" font-family="Times-Roman" font-size="14.00">pinturillo2.com</text>
</g>
<!-- pinturillo.com&#45;&gt;pinturillo2.com -->
<g id="edge66" class="edge">
<title>pinturillo.com&#45;&gt;pinturillo2.com</title>
<path fill="none" stroke="black" d="M232.16,-1989C234.81,-1989 237.46,-1989 240.11,-1989"/>
<polygon fill="black" stroke="black" points="240.33,-1992.5 250.33,-1989 240.33,-1985.5 240.33,-1992.5"/>
</g>
<!-- Gartic -->
<g id="node30" class="node">
<title>Gartic</title>
<path fill="#e1fa91" stroke="#e1fa91" d="M193,-1863C193,-1863 159,-1863 159,-1863 153,-1863 147,-1857 147,-1851 147,-1851 147,-1837 147,-1837 147,-1831 153,-1825 159,-1825 159,-1825 193,-1825 193,-1825 199,-1825 205,-1831 205,-1837 205,-1837 205,-1851 205,-1851 205,-1857 199,-1863 193,-1863"/>
<text text-anchor="middle" x="176" y="-1847.8" font-family="Times-Roman" font-size="14.00">Gartic</text>
<text text-anchor="middle" x="176" y="-1832.8" font-family="Times-Roman" font-size="14.00">Gartic</text>
</g>
<!-- pinturillo.com&#45;&gt;Gartic -->
<g id="edge70" class="edge">
<title>pinturillo.com&#45;&gt;Gartic</title>
<path fill="none" stroke="black" d="M176,-1970.75C176,-1946.64 176,-1902.57 176,-1873.53"/>
<polygon fill="black" stroke="black" points="179.5,-1873.21 176,-1863.21 172.5,-1873.21 179.5,-1873.21"/>
</g>
<!-- drawthis.io -->
<g id="node49" class="node">
<title>drawthis.io</title>
<path fill="#90caf9" stroke="#90caf9" d="M298.5,-1202C298.5,-1202 229.5,-1202 229.5,-1202 223.5,-1202 217.5,-1196 217.5,-1190 217.5,-1190 217.5,-1178 217.5,-1178 217.5,-1172 223.5,-1166 229.5,-1166 229.5,-1166 298.5,-1166 298.5,-1166 304.5,-1166 310.5,-1172 310.5,-1178 310.5,-1178 310.5,-1190 310.5,-1190 310.5,-1196 304.5,-1202 298.5,-1202"/>
<text text-anchor="middle" x="264" y="-1180.3" font-family="Times-Roman" font-size="14.00">drawthis.io</text>
</g>
<!-- pinturillo2.com&#45;&gt;drawthis.io -->
<g id="edge67" class="edge">
<title>pinturillo2.com&#45;&gt;drawthis.io</title>
<path fill="none" stroke="black" d="M305.33,-1970.6C297.15,-1943.89 283,-1891.04 283,-1845 283,-1845 283,-1845 283,-1331 283,-1289.34 275.3,-1241.55 269.7,-1212.32"/>
<polygon fill="black" stroke="black" points="273.12,-1211.57 267.75,-1202.43 266.25,-1212.92 273.12,-1211.57"/>
</g>
<!-- skribbl.io -->
<g id="node60" class="node">
<title>skribbl.io</title>
<path fill="#90caf9" stroke="#90caf9" d="M367,-1040C367,-1040 311,-1040 311,-1040 305,-1040 299,-1034 299,-1028 299,-1028 299,-1014 299,-1014 299,-1008 305,-1002 311,-1002 311,-1002 367,-1002 367,-1002 373,-1002 379,-1008 379,-1014 379,-1014 379,-1028 379,-1028 379,-1034 373,-1040 367,-1040"/>
<text text-anchor="middle" x="339" y="-1024.8" font-family="Times-Roman" font-size="14.00">skribbl.io</text>
<text text-anchor="middle" x="339" y="-1009.8" font-family="Times-Roman" font-size="14.00">mel</text>
</g>
<!-- pinturillo2.com&#45;&gt;skribbl.io -->
<g id="edge69" class="edge">
<title>pinturillo2.com&#45;&gt;skribbl.io</title>
<path fill="none" stroke="black" d="M316.67,-1970.6C324.85,-1943.89 339,-1891.04 339,-1845 339,-1845 339,-1845 339,-1183 339,-1136.54 339,-1082.54 339,-1050.38"/>
<polygon fill="black" stroke="black" points="342.5,-1050.35 339,-1040.35 335.5,-1050.35 342.5,-1050.35"/>
</g>
<!-- cursors.io -->
<g id="node31" class="node">
<title>cursors.io</title>
<path fill="#90caf9" stroke="#90caf9" d="M502.5,-1717C502.5,-1717 379.5,-1717 379.5,-1717 373.5,-1717 367.5,-1711 367.5,-1705 367.5,-1705 367.5,-1691 367.5,-1691 367.5,-1685 373.5,-1679 379.5,-1679 379.5,-1679 502.5,-1679 502.5,-1679 508.5,-1679 514.5,-1685 514.5,-1691 514.5,-1691 514.5,-1705 514.5,-1705 514.5,-1711 508.5,-1717 502.5,-1717"/>
<text text-anchor="middle" x="441" y="-1701.8" font-family="Times-Roman" font-size="14.00">cursors.io</text>
<text text-anchor="middle" x="441" y="-1686.8" font-family="Times-Roman" font-size="14.00">Matheus Valadares</text>
</g>
<!-- voar.io -->
<g id="node32" class="node">
<title>voar.io</title>
<path fill="#90caf9" stroke="#90caf9" d="M667.5,-1717C667.5,-1717 544.5,-1717 544.5,-1717 538.5,-1717 532.5,-1711 532.5,-1705 532.5,-1705 532.5,-1691 532.5,-1691 532.5,-1685 538.5,-1679 544.5,-1679 544.5,-1679 667.5,-1679 667.5,-1679 673.5,-1679 679.5,-1685 679.5,-1691 679.5,-1691 679.5,-1705 679.5,-1705 679.5,-1711 673.5,-1717 667.5,-1717"/>
<text text-anchor="middle" x="606" y="-1701.8" font-family="Times-Roman" font-size="14.00">voar.io</text>
<text text-anchor="middle" x="606" y="-1686.8" font-family="Times-Roman" font-size="14.00">Matheus Valadares</text>
</g>
<!-- agar.io -->
<g id="node33" class="node">
<title>agar.io</title>
<path fill="#90caf9" stroke="#90caf9" d="M813.5,-1571C813.5,-1571 690.5,-1571 690.5,-1571 684.5,-1571 678.5,-1565 678.5,-1559 678.5,-1559 678.5,-1545 678.5,-1545 678.5,-1539 684.5,-1533 690.5,-1533 690.5,-1533 813.5,-1533 813.5,-1533 819.5,-1533 825.5,-1539 825.5,-1545 825.5,-1545 825.5,-1559 825.5,-1559 825.5,-1565 819.5,-1571 813.5,-1571"/>
<text text-anchor="middle" x="752" y="-1555.8" font-family="Times-Roman" font-size="14.00">agar.io</text>
<text text-anchor="middle" x="752" y="-1540.8" font-family="Times-Roman" font-size="14.00">Matheus Valadares</text>
</g>
<!-- deeeep.io -->
<g id="node42" class="node">
<title>deeeep.io</title>
<path fill="#90caf9" stroke="#90caf9" d="M461,-1120.5C461,-1120.5 401,-1120.5 401,-1120.5 395,-1120.5 389,-1114.5 389,-1108.5 389,-1108.5 389,-1096.5 389,-1096.5 389,-1090.5 395,-1084.5 401,-1084.5 401,-1084.5 461,-1084.5 461,-1084.5 467,-1084.5 473,-1090.5 473,-1096.5 473,-1096.5 473,-1108.5 473,-1108.5 473,-1114.5 467,-1120.5 461,-1120.5"/>
<text text-anchor="middle" x="431" y="-1098.8" font-family="Times-Roman" font-size="14.00">deeeep.io</text>
</g>
<!-- agar.io&#45;&gt;deeeep.io -->
<g id="edge54" class="edge">
<title>agar.io&#45;&gt;deeeep.io</title>
<path fill="none" stroke="black" d="M696.83,-1532.95C644.24,-1511.86 573,-1471.41 573,-1407 573,-1407 573,-1407 573,-1257 573,-1197.52 514.83,-1151.3 472.95,-1125.73"/>
<polygon fill="black" stroke="black" points="474.68,-1122.68 464.29,-1120.59 471.11,-1128.7 474.68,-1122.68"/>
</g>
<!-- pie.ai -->
<g id="node57" class="node">
<title>pie.ai</title>
<path fill="#90caf9" stroke="#90caf9" d="M759,-1039C759,-1039 729,-1039 729,-1039 723,-1039 717,-1033 717,-1027 717,-1027 717,-1015 717,-1015 717,-1009 723,-1003 729,-1003 729,-1003 759,-1003 759,-1003 765,-1003 771,-1009 771,-1015 771,-1015 771,-1027 771,-1027 771,-1033 765,-1039 759,-1039"/>
<text text-anchor="middle" x="744" y="-1017.3" font-family="Times-Roman" font-size="14.00">pie.ai</text>
</g>
<!-- agar.io&#45;&gt;pie.ai -->
<g id="edge53" class="edge">
<title>agar.io&#45;&gt;pie.ai</title>
<path fill="none" stroke="black" d="M752,-1532.81C752,-1505.5 752,-1452.25 752,-1407 752,-1407 752,-1407 752,-1183 752,-1136.19 748.58,-1081.81 746.22,-1049.74"/>
<polygon fill="black" stroke="black" points="749.68,-1049.08 745.43,-1039.38 742.7,-1049.61 749.68,-1049.08"/>
</g>
<!-- spinz.io -->
<g id="node63" class="node">
<title>spinz.io</title>
<path fill="#90caf9" stroke="#90caf9" d="M773,-966C773,-966 723,-966 723,-966 717,-966 711,-960 711,-954 711,-954 711,-940 711,-940 711,-934 717,-928 723,-928 723,-928 773,-928 773,-928 779,-928 785,-934 785,-940 785,-940 785,-954 785,-954 785,-960 779,-966 773,-966"/>
<text text-anchor="middle" x="748" y="-950.8" font-family="Times-Roman" font-size="14.00">spinz.io</text>
<text text-anchor="middle" x="748" y="-935.8" font-family="Times-Roman" font-size="14.00">Yang Lui</text>
</g>
<!-- agar.io&#45;&gt;spinz.io -->
<g id="edge50" class="edge">
<title>agar.io&#45;&gt;spinz.io</title>
<path fill="none" stroke="black" d="M761.97,-1532.98C775.76,-1506.3 799,-1454.34 799,-1407 799,-1407 799,-1407 799,-1101.5 799,-1056.48 795.94,-1044.11 780,-1002 776.49,-992.72 771.42,-983.21 766.36,-974.81"/>
<polygon fill="black" stroke="black" points="769.22,-972.78 760.93,-966.19 763.3,-976.51 769.22,-972.78"/>
</g>
<!-- vanar.io -->
<g id="node34" class="node">
<title>vanar.io</title>
<path fill="#90caf9" stroke="#90caf9" d="M1330.5,-1497C1330.5,-1497 1283.5,-1497 1283.5,-1497 1277.5,-1497 1271.5,-1491 1271.5,-1485 1271.5,-1485 1271.5,-1473 1271.5,-1473 1271.5,-1467 1277.5,-1461 1283.5,-1461 1283.5,-1461 1330.5,-1461 1330.5,-1461 1336.5,-1461 1342.5,-1467 1342.5,-1473 1342.5,-1473 1342.5,-1485 1342.5,-1485 1342.5,-1491 1336.5,-1497 1330.5,-1497"/>
<text text-anchor="middle" x="1307" y="-1475.3" font-family="Times-Roman" font-size="14.00">vanar.io</text>
</g>
<!-- starblast.io -->
<g id="node53" class="node">
<title>starblast.io</title>
<path fill="#90caf9" stroke="#90caf9" d="M1343,-1121.5C1343,-1121.5 1271,-1121.5 1271,-1121.5 1265,-1121.5 1259,-1115.5 1259,-1109.5 1259,-1109.5 1259,-1095.5 1259,-1095.5 1259,-1089.5 1265,-1083.5 1271,-1083.5 1271,-1083.5 1343,-1083.5 1343,-1083.5 1349,-1083.5 1355,-1089.5 1355,-1095.5 1355,-1095.5 1355,-1109.5 1355,-1109.5 1355,-1115.5 1349,-1121.5 1343,-1121.5"/>
<text text-anchor="middle" x="1307" y="-1106.3" font-family="Times-Roman" font-size="14.00">starblast.io</text>
<text text-anchor="middle" x="1307" y="-1091.3" font-family="Times-Roman" font-size="14.00">Neuronality</text>
</g>
<!-- vanar.io&#45;&gt;starblast.io -->
<g id="edge75" class="edge">
<title>vanar.io&#45;&gt;starblast.io</title>
<path fill="none" stroke="black" d="M1307,-1460.59C1307,-1433.37 1307,-1379.07 1307,-1333 1307,-1333 1307,-1333 1307,-1257 1307,-1213.38 1307,-1162.78 1307,-1131.96"/>
<polygon fill="black" stroke="black" points="1310.5,-1131.93 1307,-1121.93 1303.5,-1131.93 1310.5,-1131.93"/>
</g>
<!-- vertix.io -->
<g id="node35" class="node">
<title>vertix.io</title>
<path fill="#90caf9" stroke="#90caf9" d="M1116,-1425C1116,-1425 1010,-1425 1010,-1425 1004,-1425 998,-1419 998,-1413 998,-1413 998,-1399 998,-1399 998,-1393 1004,-1387 1010,-1387 1010,-1387 1116,-1387 1116,-1387 1122,-1387 1128,-1393 1128,-1399 1128,-1399 1128,-1413 1128,-1413 1128,-1419 1122,-1425 1116,-1425"/>
<text text-anchor="middle" x="1063" y="-1409.8" font-family="Times-Roman" font-size="14.00">vertix.io</text>
<text text-anchor="middle" x="1063" y="-1394.8" font-family="Times-Roman" font-size="14.00">Sydney de Vries</text>
</g>
<!-- nightpoint.io -->
<g id="node70" class="node">
<title>nightpoint.io</title>
<path fill="#90caf9" stroke="#90caf9" d="M1060,-892C1060,-892 980,-892 980,-892 974,-892 968,-886 968,-880 968,-880 968,-866 968,-866 968,-860 974,-854 980,-854 980,-854 1060,-854 1060,-854 1066,-854 1072,-860 1072,-866 1072,-866 1072,-880 1072,-880 1072,-886 1066,-892 1060,-892"/>
<text text-anchor="middle" x="1020" y="-876.8" font-family="Times-Roman" font-size="14.00">nightpoint.io</text>
<text text-anchor="middle" x="1020" y="-861.8" font-family="Times-Roman" font-size="14.00">Sarunas</text>
</g>
<!-- vertix.io&#45;&gt;nightpoint.io -->
<g id="edge31" class="edge">
<title>vertix.io&#45;&gt;nightpoint.io</title>
<path fill="none" stroke="black" d="M1063,-1386.56C1063,-1358.87 1063,-1304.88 1063,-1259 1063,-1259 1063,-1259 1063,-1020 1063,-978.25 1056.77,-967.75 1044,-928 1041.16,-919.15 1037.32,-909.81 1033.55,-901.43"/>
<polygon fill="black" stroke="black" points="1036.61,-899.7 1029.22,-892.11 1030.27,-902.66 1036.61,-899.7"/>
</g>
<!-- slither.io -->
<g id="node36" class="node">
<title>slither.io</title>
<path fill="#90caf9" stroke="#90caf9" d="M1527,-1351C1527,-1351 1445,-1351 1445,-1351 1439,-1351 1433,-1345 1433,-1339 1433,-1339 1433,-1325 1433,-1325 1433,-1319 1439,-1313 1445,-1313 1445,-1313 1527,-1313 1527,-1313 1533,-1313 1539,-1319 1539,-1325 1539,-1325 1539,-1339 1539,-1339 1539,-1345 1533,-1351 1527,-1351"/>
<text text-anchor="middle" x="1486" y="-1335.8" font-family="Times-Roman" font-size="14.00">slither.io</text>
<text text-anchor="middle" x="1486" y="-1320.8" font-family="Times-Roman" font-size="14.00">Steve Howse</text>
</g>
<!-- limax.io -->
<g id="node39" class="node">
<title>limax.io</title>
<path fill="#90caf9" stroke="#90caf9" d="M1418.5,-1277C1418.5,-1277 1347.5,-1277 1347.5,-1277 1341.5,-1277 1335.5,-1271 1335.5,-1265 1335.5,-1265 1335.5,-1251 1335.5,-1251 1335.5,-1245 1341.5,-1239 1347.5,-1239 1347.5,-1239 1418.5,-1239 1418.5,-1239 1424.5,-1239 1430.5,-1245 1430.5,-1251 1430.5,-1251 1430.5,-1265 1430.5,-1265 1430.5,-1271 1424.5,-1277 1418.5,-1277"/>
<text text-anchor="middle" x="1383" y="-1261.8" font-family="Times-Roman" font-size="14.00">limax.io</text>
<text text-anchor="middle" x="1383" y="-1246.8" font-family="Times-Roman" font-size="14.00">LapaMauve</text>
</g>
<!-- slither.io&#45;&gt;limax.io -->
<g id="edge29" class="edge">
<title>slither.io&#45;&gt;limax.io</title>
<path fill="none" stroke="black" d="M1460.01,-1312.83C1447.08,-1303.79 1431.28,-1292.75 1417.36,-1283.02"/>
<polygon fill="black" stroke="black" points="1419.18,-1280.02 1408.98,-1277.16 1415.17,-1285.76 1419.18,-1280.02"/>
</g>
<!-- wormax.io -->
<g id="node41" class="node">
<title>wormax.io</title>
<path fill="#90caf9" stroke="#90caf9" d="M1474,-1203C1474,-1203 1410,-1203 1410,-1203 1404,-1203 1398,-1197 1398,-1191 1398,-1191 1398,-1177 1398,-1177 1398,-1171 1404,-1165 1410,-1165 1410,-1165 1474,-1165 1474,-1165 1480,-1165 1486,-1171 1486,-1177 1486,-1177 1486,-1191 1486,-1191 1486,-1197 1480,-1203 1474,-1203"/>
<text text-anchor="middle" x="1442" y="-1187.8" font-family="Times-Roman" font-size="14.00">wormax.io</text>
<text text-anchor="middle" x="1442" y="-1172.8" font-family="Times-Roman" font-size="14.00">Elyland</text>
</g>
<!-- slither.io&#45;&gt;wormax.io -->
<g id="edge27" class="edge">
<title>slither.io&#45;&gt;wormax.io</title>
<path fill="none" stroke="black" d="M1480.52,-1312.8C1472.97,-1287.78 1459.33,-1242.5 1450.47,-1213.1"/>
<polygon fill="black" stroke="black" points="1453.79,-1211.99 1447.55,-1203.43 1447.09,-1214.01 1453.79,-1211.99"/>
</g>
<!-- wormate.io -->
<g id="node45" class="node">
<title>wormate.io</title>
<path fill="#90caf9" stroke="#90caf9" d="M1575,-1121.5C1575,-1121.5 1453,-1121.5 1453,-1121.5 1447,-1121.5 1441,-1115.5 1441,-1109.5 1441,-1109.5 1441,-1095.5 1441,-1095.5 1441,-1089.5 1447,-1083.5 1453,-1083.5 1453,-1083.5 1575,-1083.5 1575,-1083.5 1581,-1083.5 1587,-1089.5 1587,-1095.5 1587,-1095.5 1587,-1109.5 1587,-1109.5 1587,-1115.5 1581,-1121.5 1575,-1121.5"/>
<text text-anchor="middle" x="1514" y="-1106.3" font-family="Times-Roman" font-size="14.00">wormate.io</text>
<text text-anchor="middle" x="1514" y="-1091.3" font-family="Times-Roman" font-size="14.00">Oleksandr Godoba</text>
</g>
<!-- slither.io&#45;&gt;wormate.io -->
<g id="edge28" class="edge">
<title>slither.io&#45;&gt;wormate.io</title>
<path fill="none" stroke="black" d="M1488.24,-1312.77C1493.12,-1273.15 1504.71,-1178.98 1510.53,-1131.66"/>
<polygon fill="black" stroke="black" points="1514.04,-1131.86 1511.78,-1121.5 1507.09,-1131 1514.04,-1131.86"/>
</g>
<!-- powerline.io -->
<g id="node71" class="node">
<title>powerline.io</title>
<path fill="#90caf9" stroke="#90caf9" d="M1662.5,-810.5C1662.5,-810.5 1567.5,-810.5 1567.5,-810.5 1561.5,-810.5 1555.5,-804.5 1555.5,-798.5 1555.5,-798.5 1555.5,-784.5 1555.5,-784.5 1555.5,-778.5 1561.5,-772.5 1567.5,-772.5 1567.5,-772.5 1662.5,-772.5 1662.5,-772.5 1668.5,-772.5 1674.5,-778.5 1674.5,-784.5 1674.5,-784.5 1674.5,-798.5 1674.5,-798.5 1674.5,-804.5 1668.5,-810.5 1662.5,-810.5"/>
<text text-anchor="middle" x="1615" y="-795.3" font-family="Times-Roman" font-size="14.00">powerline.io</text>
<text text-anchor="middle" x="1615" y="-780.3" font-family="Times-Roman" font-size="14.00">Andre Almeida</text>
</g>
<!-- slither.io&#45;&gt;powerline.io -->
<g id="edge30" class="edge">
<title>slither.io&#45;&gt;powerline.io</title>
<path fill="none" stroke="black" d="M1518.55,-1312.95C1556.77,-1289.09 1615,-1243.18 1615,-1185 1615,-1185 1615,-1185 1615,-946 1615,-902.38 1615,-851.78 1615,-820.96"/>
<polygon fill="black" stroke="black" points="1618.5,-820.93 1615,-810.93 1611.5,-820.93 1618.5,-820.93"/>
</g>
<!-- diep.io -->
<g id="node37" class="node">
<title>diep.io</title>
<path fill="#90caf9" stroke="#90caf9" d="M1844.5,-1351C1844.5,-1351 1721.5,-1351 1721.5,-1351 1715.5,-1351 1709.5,-1345 1709.5,-1339 1709.5,-1339 1709.5,-1325 1709.5,-1325 1709.5,-1319 1715.5,-1313 1721.5,-1313 1721.5,-1313 1844.5,-1313 1844.5,-1313 1850.5,-1313 1856.5,-1319 1856.5,-1325 1856.5,-1325 1856.5,-1339 1856.5,-1339 1856.5,-1345 1850.5,-1351 1844.5,-1351"/>
<text text-anchor="middle" x="1783" y="-1335.8" font-family="Times-Roman" font-size="14.00">diep.io</text>
<text text-anchor="middle" x="1783" y="-1320.8" font-family="Times-Roman" font-size="14.00">Matheus Valadares</text>
</g>
<!-- tanksmith.io -->
<g id="node82" class="node">
<title>tanksmith.io</title>
<path fill="#90caf9" stroke="#90caf9" d="M1742.5,-637C1742.5,-637 1663.5,-637 1663.5,-637 1657.5,-637 1651.5,-631 1651.5,-625 1651.5,-625 1651.5,-611 1651.5,-611 1651.5,-605 1657.5,-599 1663.5,-599 1663.5,-599 1742.5,-599 1742.5,-599 1748.5,-599 1754.5,-605 1754.5,-611 1754.5,-611 1754.5,-625 1754.5,-625 1754.5,-631 1748.5,-637 1742.5,-637"/>
<text text-anchor="middle" x="1703" y="-621.8" font-family="Times-Roman" font-size="14.00">tanksmith.io</text>
<text text-anchor="middle" x="1703" y="-606.8" font-family="Times-Roman" font-size="14.00">IO Ninja</text>
</g>
<!-- diep.io&#45;&gt;tanksmith.io -->
<g id="edge55" class="edge">
<title>diep.io&#45;&gt;tanksmith.io</title>
<path fill="none" stroke="black" d="M1765.25,-1312.93C1741.68,-1286.94 1703,-1236.45 1703,-1185 1703,-1185 1703,-1185 1703,-790.5 1703,-739.99 1703,-681.11 1703,-647.14"/>
<polygon fill="black" stroke="black" points="1706.5,-647.02 1703,-637.02 1699.5,-647.02 1706.5,-647.02"/>
</g>
<!-- florr.io -->
<g id="node91" class="node">
<title>florr.io</title>
<path fill="#90caf9" stroke="#90caf9" d="M1844.5,-112C1844.5,-112 1721.5,-112 1721.5,-112 1715.5,-112 1709.5,-106 1709.5,-100 1709.5,-100 1709.5,-86 1709.5,-86 1709.5,-80 1715.5,-74 1721.5,-74 1721.5,-74 1844.5,-74 1844.5,-74 1850.5,-74 1856.5,-80 1856.5,-86 1856.5,-86 1856.5,-100 1856.5,-100 1856.5,-106 1850.5,-112 1844.5,-112"/>
<text text-anchor="middle" x="1783" y="-96.8" font-family="Times-Roman" font-size="14.00">florr.io</text>
<text text-anchor="middle" x="1783" y="-81.8" font-family="Times-Roman" font-size="14.00">Matheus Valadares</text>
</g>
<!-- diep.io&#45;&gt;florr.io -->
<g id="edge56" class="edge">
<title>diep.io&#45;&gt;florr.io</title>
<path fill="none" stroke="black" d="M1783,-1312.56C1783,-1284.87 1783,-1230.88 1783,-1185 1783,-1185 1783,-1185 1783,-237 1783,-197.15 1783,-151.06 1783,-122.22"/>
<polygon fill="black" stroke="black" points="1786.5,-122.06 1783,-112.06 1779.5,-122.06 1786.5,-122.06"/>
</g>
<!-- doblons.io -->
<g id="node94" class="node">
<title>doblons.io</title>
<path fill="#90caf9" stroke="#90caf9" d="M1929,-1121.5C1929,-1121.5 1823,-1121.5 1823,-1121.5 1817,-1121.5 1811,-1115.5 1811,-1109.5 1811,-1109.5 1811,-1095.5 1811,-1095.5 1811,-1089.5 1817,-1083.5 1823,-1083.5 1823,-1083.5 1929,-1083.5 1929,-1083.5 1935,-1083.5 1941,-1089.5 1941,-1095.5 1941,-1095.5 1941,-1109.5 1941,-1109.5 1941,-1115.5 1935,-1121.5 1929,-1121.5"/>
<text text-anchor="middle" x="1876" y="-1106.3" font-family="Times-Roman" font-size="14.00">doblons.io</text>
<text text-anchor="middle" x="1876" y="-1091.3" font-family="Times-Roman" font-size="14.00">Sydney de Vries</text>
</g>
<!-- diep.io&#45;&gt;doblons.io -->
<g id="edge57" class="edge">
<title>diep.io&#45;&gt;doblons.io</title>
<path fill="none" stroke="black" d="M1790.45,-1312.77C1806.75,-1272.9 1845.63,-1177.79 1864.85,-1130.77"/>
<polygon fill="black" stroke="black" points="1868.1,-1132.08 1868.64,-1121.5 1861.62,-1129.44 1868.1,-1132.08"/>
</g>
<!-- wings.io -->
<g id="node38" class="node">
<title>wings.io</title>
<path fill="#90caf9" stroke="#90caf9" d="M1981.5,-1351C1981.5,-1351 1886.5,-1351 1886.5,-1351 1880.5,-1351 1874.5,-1345 1874.5,-1339 1874.5,-1339 1874.5,-1325 1874.5,-1325 1874.5,-1319 1880.5,-1313 1886.5,-1313 1886.5,-1313 1981.5,-1313 1981.5,-1313 1987.5,-1313 1993.5,-1319 1993.5,-1325 1993.5,-1325 1993.5,-1339 1993.5,-1339 1993.5,-1345 1987.5,-1351 1981.5,-1351"/>
<text text-anchor="middle" x="1934" y="-1335.8" font-family="Times-Roman" font-size="14.00">wings.io</text>
<text text-anchor="middle" x="1934" y="-1320.8" font-family="Times-Roman" font-size="14.00">Andre Almeida</text>
</g>
<!-- wilds.io -->
<g id="node40" class="node">
<title>wilds.io</title>
<path fill="#90caf9" stroke="#90caf9" d="M1993.5,-1277C1993.5,-1277 1944.5,-1277 1944.5,-1277 1938.5,-1277 1932.5,-1271 1932.5,-1265 1932.5,-1265 1932.5,-1251 1932.5,-1251 1932.5,-1245 1938.5,-1239 1944.5,-1239 1944.5,-1239 1993.5,-1239 1993.5,-1239 1999.5,-1239 2005.5,-1245 2005.5,-1251 2005.5,-1251 2005.5,-1265 2005.5,-1265 2005.5,-1271 1999.5,-1277 1993.5,-1277"/>
<text text-anchor="middle" x="1969" y="-1261.8" font-family="Times-Roman" font-size="14.00">wilds.io</text>
<text text-anchor="middle" x="1969" y="-1246.8" font-family="Times-Roman" font-size="14.00">Rezoner</text>
</g>
<!-- wanderers.io -->
<g id="node73" class="node">
<title>wanderers.io</title>
<path fill="#90caf9" stroke="#90caf9" d="M2048,-810.5C2048,-810.5 1966,-810.5 1966,-810.5 1960,-810.5 1954,-804.5 1954,-798.5 1954,-798.5 1954,-784.5 1954,-784.5 1954,-778.5 1960,-772.5 1966,-772.5 1966,-772.5 2048,-772.5 2048,-772.5 2054,-772.5 2060,-778.5 2060,-784.5 2060,-784.5 2060,-798.5 2060,-798.5 2060,-804.5 2054,-810.5 2048,-810.5"/>
<text text-anchor="middle" x="2007" y="-795.3" font-family="Times-Roman" font-size="14.00">wanderers.io</text>
<text text-anchor="middle" x="2007" y="-780.3" font-family="Times-Roman" font-size="14.00">Rezoner</text>
</g>
<!-- wilds.io&#45;&gt;wanderers.io -->
<g id="edge48" class="edge">
<title>wilds.io&#45;&gt;wanderers.io</title>
<path fill="none" stroke="black" d="M1969,-1238.57C1969,-1209.75 1969,-1152.27 1969,-1103.5 1969,-1103.5 1969,-1103.5 1969,-946 1969,-900.86 1984.67,-850.39 1995.89,-820.05"/>
<polygon fill="black" stroke="black" points="1999.21,-821.16 1999.49,-810.57 1992.67,-818.67 1999.21,-821.16"/>
</g>
<!-- oceanar.io -->
<g id="node43" class="node">
<title>oceanar.io</title>
<path fill="#90caf9" stroke="#90caf9" d="M711.5,-1121.5C711.5,-1121.5 648.5,-1121.5 648.5,-1121.5 642.5,-1121.5 636.5,-1115.5 636.5,-1109.5 636.5,-1109.5 636.5,-1095.5 636.5,-1095.5 636.5,-1089.5 642.5,-1083.5 648.5,-1083.5 648.5,-1083.5 711.5,-1083.5 711.5,-1083.5 717.5,-1083.5 723.5,-1089.5 723.5,-1095.5 723.5,-1095.5 723.5,-1109.5 723.5,-1109.5 723.5,-1115.5 717.5,-1121.5 711.5,-1121.5"/>
<text text-anchor="middle" x="680" y="-1106.3" font-family="Times-Roman" font-size="14.00">oceanar.io</text>
<text text-anchor="middle" x="680" y="-1091.3" font-family="Times-Roman" font-size="14.00">S3Games</text>
</g>
<!-- deeeep.io&#45;&gt;oceanar.io -->
<g id="edge36" class="edge">
<title>deeeep.io&#45;&gt;oceanar.io</title>
<path fill="none" stroke="black" d="M449.27,-1120.62C460.56,-1130.5 475.92,-1141.76 492,-1147 545.66,-1164.49 565.34,-1164.49 619,-1147 631.17,-1143.03 642.93,-1135.62 652.83,-1127.96"/>
<polygon fill="black" stroke="black" points="655.15,-1130.59 660.67,-1121.54 650.71,-1125.17 655.15,-1130.59"/>
</g>
<!-- mope.io -->
<g id="node44" class="node">
<title>mope.io</title>
<path fill="#90caf9" stroke="#90caf9" d="M606.5,-1121.5C606.5,-1121.5 503.5,-1121.5 503.5,-1121.5 497.5,-1121.5 491.5,-1115.5 491.5,-1109.5 491.5,-1109.5 491.5,-1095.5 491.5,-1095.5 491.5,-1089.5 497.5,-1083.5 503.5,-1083.5 503.5,-1083.5 606.5,-1083.5 606.5,-1083.5 612.5,-1083.5 618.5,-1089.5 618.5,-1095.5 618.5,-1095.5 618.5,-1109.5 618.5,-1109.5 618.5,-1115.5 612.5,-1121.5 606.5,-1121.5"/>
<text text-anchor="middle" x="555" y="-1106.3" font-family="Times-Roman" font-size="14.00">mope.io</text>
<text text-anchor="middle" x="555" y="-1091.3" font-family="Times-Roman" font-size="14.00">Stan Tatarnykov</text>
</g>
<!-- deeeep.io&#45;&gt;mope.io -->
<g id="edge37" class="edge">
<title>deeeep.io&#45;&gt;mope.io</title>
<path fill="none" stroke="black" d="M473.14,-1102.5C475.8,-1102.5 478.46,-1102.5 481.11,-1102.5"/>
<polygon fill="black" stroke="black" points="481.37,-1106 491.37,-1102.5 481.37,-1099 481.37,-1106"/>
</g>
<!-- moomoo.io -->
<g id="node58" class="node">
<title>moomoo.io</title>
<path fill="#90caf9" stroke="#90caf9" d="M620,-1040C620,-1040 514,-1040 514,-1040 508,-1040 502,-1034 502,-1028 502,-1028 502,-1014 502,-1014 502,-1008 508,-1002 514,-1002 514,-1002 620,-1002 620,-1002 626,-1002 632,-1008 632,-1014 632,-1014 632,-1028 632,-1028 632,-1034 626,-1040 620,-1040"/>
<text text-anchor="middle" x="567" y="-1024.8" font-family="Times-Roman" font-size="14.00">moomoo.io</text>
<text text-anchor="middle" x="567" y="-1009.8" font-family="Times-Roman" font-size="14.00">Sydney de Vries</text>
</g>
<!-- mope.io&#45;&gt;moomoo.io -->
<g id="edge38" class="edge">
<title>mope.io&#45;&gt;moomoo.io</title>
<path fill="none" stroke="black" d="M557.72,-1083.46C559.2,-1073.67 561.06,-1061.35 562.73,-1050.31"/>
<polygon fill="black" stroke="black" points="566.21,-1050.65 564.25,-1040.24 559.29,-1049.61 566.21,-1050.65"/>
</g>
<!-- paper.io -->
<g id="node46" class="node">
<title>paper.io</title>
<path fill="#90caf9" stroke="#90caf9" d="M2257,-1203C2257,-1203 2209,-1203 2209,-1203 2203,-1203 2197,-1197 2197,-1191 2197,-1191 2197,-1177 2197,-1177 2197,-1171 2203,-1165 2209,-1165 2209,-1165 2257,-1165 2257,-1165 2263,-1165 2269,-1171 2269,-1177 2269,-1177 2269,-1191 2269,-1191 2269,-1197 2263,-1203 2257,-1203"/>
<text text-anchor="middle" x="2233" y="-1187.8" font-family="Times-Roman" font-size="14.00">paper.io</text>
<text text-anchor="middle" x="2233" y="-1172.8" font-family="Times-Roman" font-size="14.00">Voodoo</text>
</g>
<!-- narwhale.io -->
<g id="node47" class="node">
<title>narwhale.io</title>
<path fill="#90caf9" stroke="#90caf9" d="M2391,-1203C2391,-1203 2299,-1203 2299,-1203 2293,-1203 2287,-1197 2287,-1191 2287,-1191 2287,-1177 2287,-1177 2287,-1171 2293,-1165 2299,-1165 2299,-1165 2391,-1165 2391,-1165 2397,-1165 2403,-1171 2403,-1177 2403,-1177 2403,-1191 2403,-1191 2403,-1197 2397,-1203 2391,-1203"/>
<text text-anchor="middle" x="2345" y="-1187.8" font-family="Times-Roman" font-size="14.00">narwhale.io</text>
<text text-anchor="middle" x="2345" y="-1172.8" font-family="Times-Roman" font-size="14.00">Hsi&#45;Hung Shih</text>
</g>
<!-- pikes.io -->
<g id="node66" class="node">
<title>pikes.io</title>
<path fill="#90caf9" stroke="#90caf9" d="M2388.5,-966C2388.5,-966 2301.5,-966 2301.5,-966 2295.5,-966 2289.5,-960 2289.5,-954 2289.5,-954 2289.5,-940 2289.5,-940 2289.5,-934 2295.5,-928 2301.5,-928 2301.5,-928 2388.5,-928 2388.5,-928 2394.5,-928 2400.5,-934 2400.5,-940 2400.5,-940 2400.5,-954 2400.5,-954 2400.5,-960 2394.5,-966 2388.5,-966"/>
<text text-anchor="middle" x="2345" y="-950.8" font-family="Times-Roman" font-size="14.00">pikes.io</text>
<text text-anchor="middle" x="2345" y="-935.8" font-family="Times-Roman" font-size="14.00">Clown Games</text>
</g>
<!-- narwhale.io&#45;&gt;pikes.io -->
<g id="edge71" class="edge">
<title>narwhale.io&#45;&gt;pikes.io</title>
<path fill="none" stroke="black" d="M2345,-1164.95C2345,-1124.28 2345,-1025.23 2345,-976.31"/>
<polygon fill="black" stroke="black" points="2348.5,-976.11 2345,-966.11 2341.5,-976.11 2348.5,-976.11"/>
</g>
<!-- splix.io -->
<g id="node48" class="node">
<title>splix.io</title>
<path fill="#90caf9" stroke="#90caf9" d="M2166.5,-1203C2166.5,-1203 2125.5,-1203 2125.5,-1203 2119.5,-1203 2113.5,-1197 2113.5,-1191 2113.5,-1191 2113.5,-1177 2113.5,-1177 2113.5,-1171 2119.5,-1165 2125.5,-1165 2125.5,-1165 2166.5,-1165 2166.5,-1165 2172.5,-1165 2178.5,-1171 2178.5,-1177 2178.5,-1177 2178.5,-1191 2178.5,-1191 2178.5,-1197 2172.5,-1203 2166.5,-1203"/>
<text text-anchor="middle" x="2146" y="-1187.8" font-family="Times-Roman" font-size="14.00">splix.io</text>
<text text-anchor="middle" x="2146" y="-1172.8" font-family="Times-Roman" font-size="14.00">Jesper</text>
</g>
<!-- splix.io&#45;&gt;paper.io -->
<g id="edge60" class="edge">
<title>splix.io&#45;&gt;paper.io</title>
<path fill="none" stroke="black" d="M2178.62,-1184C2181.29,-1184 2183.95,-1184 2186.62,-1184"/>
<polygon fill="black" stroke="black" points="2186.89,-1187.5 2196.89,-1184 2186.89,-1180.5 2186.89,-1187.5"/>
</g>
<!-- hexar.io -->
<g id="node56" class="node">
<title>hexar.io</title>
<path fill="#90caf9" stroke="#90caf9" d="M2169.5,-1039C2169.5,-1039 2122.5,-1039 2122.5,-1039 2116.5,-1039 2110.5,-1033 2110.5,-1027 2110.5,-1027 2110.5,-1015 2110.5,-1015 2110.5,-1009 2116.5,-1003 2122.5,-1003 2122.5,-1003 2169.5,-1003 2169.5,-1003 2175.5,-1003 2181.5,-1009 2181.5,-1015 2181.5,-1015 2181.5,-1027 2181.5,-1027 2181.5,-1033 2175.5,-1039 2169.5,-1039"/>
<text text-anchor="middle" x="2146" y="-1017.3" font-family="Times-Roman" font-size="14.00">hexar.io</text>
</g>
<!-- splix.io&#45;&gt;hexar.io -->
<g id="edge61" class="edge">
<title>splix.io&#45;&gt;hexar.io</title>
<path fill="none" stroke="black" d="M2146,-1164.84C2146,-1136.77 2146,-1082.62 2146,-1049.66"/>
<polygon fill="black" stroke="black" points="2149.5,-1049.36 2146,-1039.36 2142.5,-1049.36 2149.5,-1049.36"/>
</g>
<!-- drawthis2.io -->
<g id="node84" class="node">
<title>drawthis2.io</title>
<path fill="#90caf9" stroke="#90caf9" d="M303,-637C303,-637 225,-637 225,-637 219,-637 213,-631 213,-625 213,-625 213,-611 213,-611 213,-605 219,-599 225,-599 225,-599 303,-599 303,-599 309,-599 315,-605 315,-611 315,-611 315,-625 315,-625 315,-631 309,-637 303,-637"/>
<text text-anchor="middle" x="264" y="-621.8" font-family="Times-Roman" font-size="14.00">drawthis2.io</text>
<text text-anchor="middle" x="264" y="-606.8" font-family="Times-Roman" font-size="14.00">lagged.com</text>
</g>
<!-- drawthis.io&#45;&gt;drawthis2.io -->
<g id="edge68" class="edge">
<title>drawthis.io&#45;&gt;drawthis2.io</title>
<path fill="none" stroke="black" d="M264,-1165.61C264,-1136.08 264,-1074.27 264,-1022 264,-1022 264,-1022 264,-790.5 264,-739.99 264,-681.11 264,-647.14"/>
<polygon fill="black" stroke="black" points="267.5,-647.02 264,-637.02 260.5,-647.02 267.5,-647.02"/>
</g>
<!-- bonk.io -->
<g id="node50" class="node">
<title>bonk.io</title>
<path fill="#90caf9" stroke="#90caf9" d="M2477,-1203C2477,-1203 2433,-1203 2433,-1203 2427,-1203 2421,-1197 2421,-1191 2421,-1191 2421,-1177 2421,-1177 2421,-1171 2427,-1165 2433,-1165 2433,-1165 2477,-1165 2477,-1165 2483,-1165 2489,-1171 2489,-1177 2489,-1177 2489,-1191 2489,-1191 2489,-1197 2483,-1203 2477,-1203"/>
<text text-anchor="middle" x="2455" y="-1187.8" font-family="Times-Roman" font-size="14.00">bonk.io</text>
<text text-anchor="middle" x="2455" y="-1172.8" font-family="Times-Roman" font-size="14.00">Chaz</text>
</g>
<!-- bonk2.io -->
<g id="node90" class="node">
<title>bonk2.io</title>
<path fill="#90caf9" stroke="#90caf9" d="M2481.5,-112C2481.5,-112 2428.5,-112 2428.5,-112 2422.5,-112 2416.5,-106 2416.5,-100 2416.5,-100 2416.5,-86 2416.5,-86 2416.5,-80 2422.5,-74 2428.5,-74 2428.5,-74 2481.5,-74 2481.5,-74 2487.5,-74 2493.5,-80 2493.5,-86 2493.5,-86 2493.5,-100 2493.5,-100 2493.5,-106 2487.5,-112 2481.5,-112"/>
<text text-anchor="middle" x="2455" y="-96.8" font-family="Times-Roman" font-size="14.00">bonk2.io</text>
<text text-anchor="middle" x="2455" y="-81.8" font-family="Times-Roman" font-size="14.00">Chaz</text>
</g>
<!-- bonk.io&#45;&gt;bonk2.io -->
<g id="edge58" class="edge">
<title>bonk.io&#45;&gt;bonk2.io</title>
<path fill="none" stroke="black" d="M2455,-1164.65C2455,-1134.76 2455,-1073.71 2455,-1022 2455,-1022 2455,-1022 2455,-237 2455,-197.15 2455,-151.06 2455,-122.22"/>
<polygon fill="black" stroke="black" points="2458.5,-122.06 2455,-112.06 2451.5,-122.06 2458.5,-122.06"/>
</g>
<!-- hordes.io -->
<g id="node51" class="node">
<title>hordes.io</title>
<path fill="#90caf9" stroke="#90caf9" d="M2575,-1203C2575,-1203 2519,-1203 2519,-1203 2513,-1203 2507,-1197 2507,-1191 2507,-1191 2507,-1177 2507,-1177 2507,-1171 2513,-1165 2519,-1165 2519,-1165 2575,-1165 2575,-1165 2581,-1165 2587,-1171 2587,-1177 2587,-1177 2587,-1191 2587,-1191 2587,-1197 2581,-1203 2575,-1203"/>
<text text-anchor="middle" x="2547" y="-1187.8" font-family="Times-Roman" font-size="14.00">hordes.io</text>
<text text-anchor="middle" x="2547" y="-1172.8" font-family="Times-Roman" font-size="14.00">dek</text>
</g>
<!-- krew.io -->
<g id="node52" class="node">
<title>krew.io</title>
<path fill="#90caf9" stroke="#90caf9" d="M2542.5,-1129C2542.5,-1129 2495.5,-1129 2495.5,-1129 2489.5,-1129 2483.5,-1123 2483.5,-1117 2483.5,-1117 2483.5,-1088 2483.5,-1088 2483.5,-1082 2489.5,-1076 2495.5,-1076 2495.5,-1076 2542.5,-1076 2542.5,-1076 2548.5,-1076 2554.5,-1082 2554.5,-1088 2554.5,-1088 2554.5,-1117 2554.5,-1117 2554.5,-1123 2548.5,-1129 2542.5,-1129"/>
<text text-anchor="middle" x="2519" y="-1113.8" font-family="Times-Roman" font-size="14.00">krew.io</text>
<text text-anchor="middle" x="2519" y="-1098.8" font-family="Times-Roman" font-size="14.00">M0dE &amp;</text>
<text text-anchor="middle" x="2519" y="-1083.8" font-family="Times-Roman" font-size="14.00"> dek</text>
</g>
<!-- microgravity.io -->
<g id="node86" class="node">
<title>microgravity.io</title>
<path fill="#90caf9" stroke="#90caf9" d="M1359,-563C1359,-563 1255,-563 1255,-563 1249,-563 1243,-557 1243,-551 1243,-551 1243,-522 1243,-522 1243,-516 1249,-510 1255,-510 1255,-510 1359,-510 1359,-510 1365,-510 1371,-516 1371,-522 1371,-522 1371,-551 1371,-551 1371,-557 1365,-563 1359,-563"/>
<text text-anchor="middle" x="1307" y="-547.8" font-family="Times-Roman" font-size="14.00">microgravity.io</text>
<text text-anchor="middle" x="1307" y="-532.8" font-family="Times-Roman" font-size="14.00">Nathan Flurry &amp;</text>
<text text-anchor="middle" x="1307" y="-517.8" font-family="Times-Roman" font-size="14.00">Nicholas Kissel</text>
</g>
<!-- starblast.io&#45;&gt;microgravity.io -->
<g id="edge76" class="edge">
<title>starblast.io&#45;&gt;microgravity.io</title>
<path fill="none" stroke="black" d="M1307,-1083.07C1307,-1054.25 1307,-996.77 1307,-948 1307,-948 1307,-948 1307,-698.5 1307,-655.56 1307,-606.17 1307,-573.54"/>
<polygon fill="black" stroke="black" points="1310.5,-573.15 1307,-563.15 1303.5,-573.15 1310.5,-573.15"/>
</g>
<!-- oib.io -->
<g id="node54" class="node">
<title>oib.io</title>
<path fill="#90caf9" stroke="#90caf9" d="M2080.5,-1040C2080.5,-1040 2009.5,-1040 2009.5,-1040 2003.5,-1040 1997.5,-1034 1997.5,-1028 1997.5,-1028 1997.5,-1014 1997.5,-1014 1997.5,-1008 2003.5,-1002 2009.5,-1002 2009.5,-1002 2080.5,-1002 2080.5,-1002 2086.5,-1002 2092.5,-1008 2092.5,-1014 2092.5,-1014 2092.5,-1028 2092.5,-1028 2092.5,-1034 2086.5,-1040 2080.5,-1040"/>
<text text-anchor="middle" x="2045" y="-1024.8" font-family="Times-Roman" font-size="14.00">oib.io</text>
<text text-anchor="middle" x="2045" y="-1009.8" font-family="Times-Roman" font-size="14.00">LapaMauve</text>
</g>
<!-- oib.io&#45;&gt;wanderers.io -->
<g id="edge49" class="edge">
<title>oib.io&#45;&gt;wanderers.io</title>
<path fill="none" stroke="black" d="M2041.95,-1001.77C2035.34,-962.15 2019.61,-867.98 2011.7,-820.66"/>
<polygon fill="black" stroke="black" points="2015.11,-819.79 2010.01,-810.5 2008.2,-820.94 2015.11,-819.79"/>
</g>
<!-- brutal.io -->
<g id="node55" class="node">
<title>brutal.io</title>
<path fill="#90caf9" stroke="#90caf9" d="M2590.5,-1040C2590.5,-1040 2495.5,-1040 2495.5,-1040 2489.5,-1040 2483.5,-1034 2483.5,-1028 2483.5,-1028 2483.5,-1014 2483.5,-1014 2483.5,-1008 2489.5,-1002 2495.5,-1002 2495.5,-1002 2590.5,-1002 2590.5,-1002 2596.5,-1002 2602.5,-1008 2602.5,-1014 2602.5,-1014 2602.5,-1028 2602.5,-1028 2602.5,-1034 2596.5,-1040 2590.5,-1040"/>
<text text-anchor="middle" x="2543" y="-1024.8" font-family="Times-Roman" font-size="14.00">brutal.io</text>
<text text-anchor="middle" x="2543" y="-1009.8" font-family="Times-Roman" font-size="14.00">Andre Almeida</text>
</g>
<!-- superhex.io -->
<g id="node67" class="node">
<title>superhex.io</title>
<path fill="#90caf9" stroke="#90caf9" d="M2183,-965C2183,-965 2109,-965 2109,-965 2103,-965 2097,-959 2097,-953 2097,-953 2097,-941 2097,-941 2097,-935 2103,-929 2109,-929 2109,-929 2183,-929 2183,-929 2189,-929 2195,-935 2195,-941 2195,-941 2195,-953 2195,-953 2195,-959 2189,-965 2183,-965"/>
<text text-anchor="middle" x="2146" y="-943.3" font-family="Times-Roman" font-size="14.00">superhex.io</text>
</g>
<!-- hexar.io&#45;&gt;superhex.io -->
<g id="edge62" class="edge">
<title>hexar.io&#45;&gt;superhex.io</title>
<path fill="none" stroke="black" d="M2146,-1002.94C2146,-994.81 2146,-984.88 2146,-975.7"/>
<polygon fill="black" stroke="black" points="2149.5,-975.44 2146,-965.44 2142.5,-975.44 2149.5,-975.44"/>
</g>
<!-- starve.io -->
<g id="node59" class="node">
<title>starve.io</title>
<path fill="#90caf9" stroke="#90caf9" d="M1187.5,-1040C1187.5,-1040 1116.5,-1040 1116.5,-1040 1110.5,-1040 1104.5,-1034 1104.5,-1028 1104.5,-1028 1104.5,-1014 1104.5,-1014 1104.5,-1008 1110.5,-1002 1116.5,-1002 1116.5,-1002 1187.5,-1002 1187.5,-1002 1193.5,-1002 1199.5,-1008 1199.5,-1014 1199.5,-1014 1199.5,-1028 1199.5,-1028 1199.5,-1034 1193.5,-1040 1187.5,-1040"/>
<text text-anchor="middle" x="1152" y="-1024.8" font-family="Times-Roman" font-size="14.00">starve.io</text>
<text text-anchor="middle" x="1152" y="-1009.8" font-family="Times-Roman" font-size="14.00">LapaMauve</text>
</g>
<!-- moomoo.io&#45;&gt;starve.io -->
<g id="edge42" class="edge">
<title>moomoo.io&#45;&gt;starve.io</title>
<path fill="none" stroke="black" d="M629.5,-1040C656.19,-1047.18 687.84,-1054.46 717,-1058 851.7,-1074.37 1010.75,-1049.75 1094.21,-1033.46"/>
<polygon fill="black" stroke="black" points="1095.12,-1036.85 1104.25,-1031.47 1093.76,-1029.98 1095.12,-1036.85"/>
</g>
<!-- zombs.io -->
<g id="node62" class="node">
<title>zombs.io</title>
<path fill="#90caf9" stroke="#90caf9" d="M537.5,-966C537.5,-966 482.5,-966 482.5,-966 476.5,-966 470.5,-960 470.5,-954 470.5,-954 470.5,-940 470.5,-940 470.5,-934 476.5,-928 482.5,-928 482.5,-928 537.5,-928 537.5,-928 543.5,-928 549.5,-934 549.5,-940 549.5,-940 549.5,-954 549.5,-954 549.5,-960 543.5,-966 537.5,-966"/>
<text text-anchor="middle" x="510" y="-950.8" font-family="Times-Roman" font-size="14.00">zombs.io</text>
<text text-anchor="middle" x="510" y="-935.8" font-family="Times-Roman" font-size="14.00">Yang Lui</text>
</g>
<!-- moomoo.io&#45;&gt;zombs.io -->
<g id="edge45" class="edge">
<title>moomoo.io&#45;&gt;zombs.io</title>
<path fill="none" stroke="black" d="M552.62,-1001.83C546.05,-993.54 538.15,-983.56 530.94,-974.45"/>
<polygon fill="black" stroke="black" points="533.53,-972.08 524.58,-966.41 528.04,-976.43 533.53,-972.08"/>
</g>
<!-- foes.io -->
<g id="node69" class="node">
<title>foes.io</title>
<path fill="#90caf9" stroke="#90caf9" d="M724,-892C724,-892 618,-892 618,-892 612,-892 606,-886 606,-880 606,-880 606,-866 606,-866 606,-860 612,-854 618,-854 618,-854 724,-854 724,-854 730,-854 736,-860 736,-866 736,-866 736,-880 736,-880 736,-886 730,-892 724,-892"/>
<text text-anchor="middle" x="671" y="-876.8" font-family="Times-Roman" font-size="14.00">foes.io</text>
<text text-anchor="middle" x="671" y="-861.8" font-family="Times-Roman" font-size="14.00">Sydney de Vries</text>
</g>
<!-- moomoo.io&#45;&gt;foes.io -->
<g id="edge39" class="edge">
<title>moomoo.io&#45;&gt;foes.io</title>
<path fill="none" stroke="black" d="M579.96,-1001.8C598.1,-976.34 631.17,-929.91 652.07,-900.58"/>
<polygon fill="black" stroke="black" points="654.92,-902.6 657.88,-892.43 649.22,-898.54 654.92,-902.6"/>
</g>
<!-- doomed.io -->
<g id="node72" class="node">
<title>doomed.io</title>
<path fill="#90caf9" stroke="#90caf9" d="M442.5,-810.5C442.5,-810.5 377.5,-810.5 377.5,-810.5 371.5,-810.5 365.5,-804.5 365.5,-798.5 365.5,-798.5 365.5,-784.5 365.5,-784.5 365.5,-778.5 371.5,-772.5 377.5,-772.5 377.5,-772.5 442.5,-772.5 442.5,-772.5 448.5,-772.5 454.5,-778.5 454.5,-784.5 454.5,-784.5 454.5,-798.5 454.5,-798.5 454.5,-804.5 448.5,-810.5 442.5,-810.5"/>
<text text-anchor="middle" x="410" y="-795.3" font-family="Times-Roman" font-size="14.00">doomed.io</text>
<text text-anchor="middle" x="410" y="-780.3" font-family="Times-Roman" font-size="14.00">Ginoda</text>
</g>
<!-- moomoo.io&#45;&gt;doomed.io -->
<g id="edge40" class="edge">
<title>moomoo.io&#45;&gt;doomed.io</title>
<path fill="none" stroke="black" d="M512.42,-1001.97C494.18,-993.57 475.17,-981.84 462,-966 426.78,-923.63 415.41,-857.99 411.75,-820.78"/>
<polygon fill="black" stroke="black" points="415.22,-820.3 410.87,-810.64 408.24,-820.9 415.22,-820.3"/>
</g>
<!-- surviv.io -->
<g id="node96" class="node">
<title>surviv.io</title>
<path fill="#90caf9" stroke="#90caf9" d="M679,-726C679,-726 601,-726 601,-726 595,-726 589,-720 589,-714 589,-714 589,-685 589,-685 589,-679 595,-673 601,-673 601,-673 679,-673 679,-673 685,-673 691,-679 691,-685 691,-685 691,-714 691,-714 691,-720 685,-726 679,-726"/>
<text text-anchor="middle" x="640" y="-710.8" font-family="Times-Roman" font-size="14.00">surviv.io</text>
<text text-anchor="middle" x="640" y="-695.8" font-family="Times-Roman" font-size="14.00">Justin Kim &amp;</text>
<text text-anchor="middle" x="640" y="-680.8" font-family="Times-Roman" font-size="14.00"> Nick Clark</text>
</g>
<!-- moomoo.io&#45;&gt;surviv.io -->
<g id="edge44" class="edge">
<title>moomoo.io&#45;&gt;surviv.io</title>
<path fill="none" stroke="black" d="M569.69,-1001.95C574.38,-971.35 584.73,-907.37 597,-854 606.39,-813.17 619.71,-766.95 629.03,-735.99"/>
<polygon fill="black" stroke="black" points="632.47,-736.7 632.03,-726.11 625.77,-734.67 632.47,-736.7"/>
</g>
<!-- devast.io -->
<g id="node87" class="node">
<title>devast.io</title>
<path fill="#90caf9" stroke="#90caf9" d="M1212.5,-555.5C1212.5,-555.5 1141.5,-555.5 1141.5,-555.5 1135.5,-555.5 1129.5,-549.5 1129.5,-543.5 1129.5,-543.5 1129.5,-529.5 1129.5,-529.5 1129.5,-523.5 1135.5,-517.5 1141.5,-517.5 1141.5,-517.5 1212.5,-517.5 1212.5,-517.5 1218.5,-517.5 1224.5,-523.5 1224.5,-529.5 1224.5,-529.5 1224.5,-543.5 1224.5,-543.5 1224.5,-549.5 1218.5,-555.5 1212.5,-555.5"/>
<text text-anchor="middle" x="1177" y="-540.3" font-family="Times-Roman" font-size="14.00">devast.io</text>
<text text-anchor="middle" x="1177" y="-525.3" font-family="Times-Roman" font-size="14.00">LapaMauve</text>
</g>
<!-- starve.io&#45;&gt;devast.io -->
<g id="edge43" class="edge">
<title>starve.io&#45;&gt;devast.io</title>
<path fill="none" stroke="black" d="M1157.18,-1001.73C1164.5,-974.26 1177,-920.55 1177,-874 1177,-874 1177,-874 1177,-698.5 1177,-652.04 1177,-598.04 1177,-565.88"/>
<polygon fill="black" stroke="black" points="1180.5,-565.85 1177,-555.85 1173.5,-565.85 1180.5,-565.85"/>
</g>
<!-- stabby.io -->
<g id="node61" class="node">
<title>stabby.io</title>
<path fill="#90caf9" stroke="#90caf9" d="M2555,-966C2555,-966 2495,-966 2495,-966 2489,-966 2483,-960 2483,-954 2483,-954 2483,-940 2483,-940 2483,-934 2489,-928 2495,-928 2495,-928 2555,-928 2555,-928 2561,-928 2567,-934 2567,-940 2567,-940 2567,-954 2567,-954 2567,-960 2561,-966 2555,-966"/>
<text text-anchor="middle" x="2525" y="-950.8" font-family="Times-Roman" font-size="14.00">stabby.io</text>
<text text-anchor="middle" x="2525" y="-935.8" font-family="Times-Roman" font-size="14.00">SoulFoam</text>
</g>
<!-- zombsroyale.io -->
<g id="node98" class="node">
<title>zombsroyale.io</title>
<path fill="#90caf9" stroke="#90caf9" d="M558.5,-718.5C558.5,-718.5 461.5,-718.5 461.5,-718.5 455.5,-718.5 449.5,-712.5 449.5,-706.5 449.5,-706.5 449.5,-692.5 449.5,-692.5 449.5,-686.5 455.5,-680.5 461.5,-680.5 461.5,-680.5 558.5,-680.5 558.5,-680.5 564.5,-680.5 570.5,-686.5 570.5,-692.5 570.5,-692.5 570.5,-706.5 570.5,-706.5 570.5,-712.5 564.5,-718.5 558.5,-718.5"/>
<text text-anchor="middle" x="510" y="-703.3" font-family="Times-Roman" font-size="14.00">zombsroyale.io</text>
<text text-anchor="middle" x="510" y="-688.3" font-family="Times-Roman" font-size="14.00">Yang Lui</text>
</g>
<!-- zombs.io&#45;&gt;zombsroyale.io -->
<g id="edge46" class="edge">
<title>zombs.io&#45;&gt;zombsroyale.io</title>
<path fill="none" stroke="black" d="M510,-927.95C510,-885.65 510,-779.87 510,-728.87"/>
<polygon fill="black" stroke="black" points="513.5,-728.58 510,-718.58 506.5,-728.58 513.5,-728.58"/>
</g>
<!-- superspin.io -->
<g id="node64" class="node">
<title>superspin.io</title>
<path fill="#90caf9" stroke="#90caf9" d="M893,-966C893,-966 815,-966 815,-966 809,-966 803,-960 803,-954 803,-954 803,-940 803,-940 803,-934 809,-928 815,-928 815,-928 893,-928 893,-928 899,-928 905,-934 905,-940 905,-940 905,-954 905,-954 905,-960 899,-966 893,-966"/>
<text text-anchor="middle" x="854" y="-950.8" font-family="Times-Roman" font-size="14.00">superspin.io</text>
<text text-anchor="middle" x="854" y="-935.8" font-family="Times-Roman" font-size="14.00">Jetti Games</text>
</g>
<!-- spinz.io&#45;&gt;superspin.io -->
<g id="edge52" class="edge">
<title>spinz.io&#45;&gt;superspin.io</title>
<path fill="none" stroke="black" d="M785.27,-947C787.76,-947 790.25,-947 792.74,-947"/>
<polygon fill="black" stroke="black" points="792.99,-950.5 802.99,-947 792.99,-943.5 792.99,-950.5"/>
</g>
<!-- fisp.io -->
<g id="node65" class="node">
<title>fisp.io</title>
<path fill="#90caf9" stroke="#90caf9" d="M1022.5,-966C1022.5,-966 935.5,-966 935.5,-966 929.5,-966 923.5,-960 923.5,-954 923.5,-954 923.5,-940 923.5,-940 923.5,-934 929.5,-928 935.5,-928 935.5,-928 1022.5,-928 1022.5,-928 1028.5,-928 1034.5,-934 1034.5,-940 1034.5,-940 1034.5,-954 1034.5,-954 1034.5,-960 1028.5,-966 1022.5,-966"/>
<text text-anchor="middle" x="979" y="-950.8" font-family="Times-Roman" font-size="14.00">fisp.io</text>
<text text-anchor="middle" x="979" y="-935.8" font-family="Times-Roman" font-size="14.00">Clown Games</text>
</g>
<!-- spinz.io&#45;&gt;fisp.io -->
<g id="edge51" class="edge">
<title>spinz.io&#45;&gt;fisp.io</title>
<path fill="none" stroke="black" d="M769.97,-966.16C779.47,-973.22 791.11,-980.37 803,-984 846.36,-997.23 860.88,-994.42 905,-984 916.9,-981.19 929.08,-976.16 940.02,-970.69"/>
<polygon fill="black" stroke="black" points="941.67,-973.78 948.89,-966.03 938.41,-967.58 941.67,-973.78"/>
</g>
<!-- goons.io -->
<g id="node68" class="node">
<title>goons.io</title>
<path fill="#90caf9" stroke="#90caf9" d="M2388.5,-892C2388.5,-892 2301.5,-892 2301.5,-892 2295.5,-892 2289.5,-886 2289.5,-880 2289.5,-880 2289.5,-866 2289.5,-866 2289.5,-860 2295.5,-854 2301.5,-854 2301.5,-854 2388.5,-854 2388.5,-854 2394.5,-854 2400.5,-860 2400.5,-866 2400.5,-866 2400.5,-880 2400.5,-880 2400.5,-886 2394.5,-892 2388.5,-892"/>
<text text-anchor="middle" x="2345" y="-876.8" font-family="Times-Roman" font-size="14.00">goons.io</text>
<text text-anchor="middle" x="2345" y="-861.8" font-family="Times-Roman" font-size="14.00">Clown Games</text>
</g>
<!-- pikes.io&#45;&gt;goons.io -->
<g id="edge72" class="edge">
<title>pikes.io&#45;&gt;goons.io</title>
<path fill="none" stroke="black" d="M2345,-927.83C2345,-920.13 2345,-910.97 2345,-902.42"/>
<polygon fill="black" stroke="black" points="2348.5,-902.41 2345,-892.41 2341.5,-902.41 2348.5,-902.41"/>
</g>
<!-- knuckol.club -->
<g id="node79" class="node">
<title>knuckol.club</title>
<path fill="#90caf9" stroke="#90caf9" d="M2385,-718.5C2385,-718.5 2305,-718.5 2305,-718.5 2299,-718.5 2293,-712.5 2293,-706.5 2293,-706.5 2293,-692.5 2293,-692.5 2293,-686.5 2299,-680.5 2305,-680.5 2305,-680.5 2385,-680.5 2385,-680.5 2391,-680.5 2397,-686.5 2397,-692.5 2397,-692.5 2397,-706.5 2397,-706.5 2397,-712.5 2391,-718.5 2385,-718.5"/>
<text text-anchor="middle" x="2345" y="-703.3" font-family="Times-Roman" font-size="14.00">knuckol.club</text>
<text text-anchor="middle" x="2345" y="-688.3" font-family="Times-Roman" font-size="14.00">Erigato</text>
</g>
<!-- goons.io&#45;&gt;knuckol.club -->
<g id="edge73" class="edge">
<title>goons.io&#45;&gt;knuckol.club</title>
<path fill="none" stroke="black" d="M2345,-853.97C2345,-824.12 2345,-764.21 2345,-728.72"/>
<polygon fill="black" stroke="black" points="2348.5,-728.55 2345,-718.55 2341.5,-728.55 2348.5,-728.55"/>
</g>
<!-- shootem.io -->
<g id="node78" class="node">
<title>shootem.io</title>
<path fill="#90caf9" stroke="#90caf9" d="M1137,-718.5C1137,-718.5 1017,-718.5 1017,-718.5 1011,-718.5 1005,-712.5 1005,-706.5 1005,-706.5 1005,-692.5 1005,-692.5 1005,-686.5 1011,-680.5 1017,-680.5 1017,-680.5 1137,-680.5 1137,-680.5 1143,-680.5 1149,-686.5 1149,-692.5 1149,-692.5 1149,-706.5 1149,-706.5 1149,-712.5 1143,-718.5 1137,-718.5"/>
<text text-anchor="middle" x="1077" y="-703.3" font-family="Times-Roman" font-size="14.00">shootem.io</text>
<text text-anchor="middle" x="1077" y="-688.3" font-family="Times-Roman" font-size="14.00">Mathew Matakovic</text>
</g>
<!-- nightpoint.io&#45;&gt;shootem.io -->
<g id="edge34" class="edge">
<title>nightpoint.io&#45;&gt;shootem.io</title>
<path fill="none" stroke="black" d="M1025.99,-853.97C1035.96,-823.99 1056,-763.69 1067.77,-728.26"/>
<polygon fill="black" stroke="black" points="1071.17,-729.14 1071,-718.55 1064.53,-726.93 1071.17,-729.14"/>
</g>
<!-- bruh.io -->
<g id="node97" class="node">
<title>bruh.io</title>
<path fill="#90caf9" stroke="#90caf9" d="M937,-718.5C937,-718.5 851,-718.5 851,-718.5 845,-718.5 839,-712.5 839,-706.5 839,-706.5 839,-692.5 839,-692.5 839,-686.5 845,-680.5 851,-680.5 851,-680.5 937,-680.5 937,-680.5 943,-680.5 949,-686.5 949,-692.5 949,-692.5 949,-706.5 949,-706.5 949,-712.5 943,-718.5 937,-718.5"/>
<text text-anchor="middle" x="894" y="-703.3" font-family="Times-Roman" font-size="14.00">bruh.io</text>
<text text-anchor="middle" x="894" y="-688.3" font-family="Times-Roman" font-size="14.00">Bitfox Games</text>
</g>
<!-- nightpoint.io&#45;&gt;bruh.io -->
<g id="edge33" class="edge">
<title>nightpoint.io&#45;&gt;bruh.io</title>
<path fill="none" stroke="black" d="M998,-853.8C986.78,-843.89 973.35,-831.02 963,-818 940.26,-789.39 919.83,-752.52 907.21,-727.78"/>
<polygon fill="black" stroke="black" points="910.23,-725.98 902.61,-718.61 903.97,-729.12 910.23,-725.98"/>
</g>
<!-- battlepoint.io -->
<g id="node100" class="node">
<title>battlepoint.io</title>
<path fill="#90caf9" stroke="#90caf9" d="M936,-637C936,-637 852,-637 852,-637 846,-637 840,-631 840,-625 840,-625 840,-611 840,-611 840,-605 846,-599 852,-599 852,-599 936,-599 936,-599 942,-599 948,-605 948,-611 948,-611 948,-625 948,-625 948,-631 942,-637 936,-637"/>
<text text-anchor="middle" x="894" y="-621.8" font-family="Times-Roman" font-size="14.00">battlepoint.io</text>
<text text-anchor="middle" x="894" y="-606.8" font-family="Times-Roman" font-size="14.00">Sarunas</text>
</g>
<!-- nightpoint.io&#45;&gt;battlepoint.io -->
<g id="edge32" class="edge">
<title>nightpoint.io&#45;&gt;battlepoint.io</title>
<path fill="none" stroke="black" d="M1015.74,-853.88C1005.4,-810.8 978.31,-703.6 958,-673 950.64,-661.91 940.36,-651.85 930.19,-643.5"/>
<polygon fill="black" stroke="black" points="932.15,-640.59 922.12,-637.18 927.84,-646.1 932.15,-640.59"/>
</g>
<!-- doomed2.io -->
<g id="node81" class="node">
<title>doomed2.io</title>
<path fill="#90caf9" stroke="#90caf9" d="M419,-718.5C419,-718.5 345,-718.5 345,-718.5 339,-718.5 333,-712.5 333,-706.5 333,-706.5 333,-692.5 333,-692.5 333,-686.5 339,-680.5 345,-680.5 345,-680.5 419,-680.5 419,-680.5 425,-680.5 431,-686.5 431,-692.5 431,-692.5 431,-706.5 431,-706.5 431,-712.5 425,-718.5 419,-718.5"/>
<text text-anchor="middle" x="382" y="-703.3" font-family="Times-Roman" font-size="14.00">doomed2.io</text>
<text text-anchor="middle" x="382" y="-688.3" font-family="Times-Roman" font-size="14.00">Ginoda</text>
</g>
<!-- doomed.io&#45;&gt;doomed2.io -->
<g id="edge41" class="edge">
<title>doomed.io&#45;&gt;doomed2.io</title>
<path fill="none" stroke="black" d="M404.33,-772.29C400.42,-759.72 395.15,-742.78 390.71,-728.5"/>
<polygon fill="black" stroke="black" points="393.97,-727.19 387.66,-718.69 387.29,-729.27 393.97,-727.19"/>
</g>
<!-- shellshock.io -->
<g id="node74" class="node">
<title>shellshock.io</title>
<path fill="#90caf9" stroke="#90caf9" d="M2583,-809.5C2583,-809.5 2501,-809.5 2501,-809.5 2495,-809.5 2489,-803.5 2489,-797.5 2489,-797.5 2489,-785.5 2489,-785.5 2489,-779.5 2495,-773.5 2501,-773.5 2501,-773.5 2583,-773.5 2583,-773.5 2589,-773.5 2595,-779.5 2595,-785.5 2595,-785.5 2595,-797.5 2595,-797.5 2595,-803.5 2589,-809.5 2583,-809.5"/>
<text text-anchor="middle" x="2542" y="-787.8" font-family="Times-Roman" font-size="14.00">shellshock.io</text>
</g>
<!-- krunker.io -->
<g id="node85" class="node">
<title>krunker.io</title>
<path fill="#90caf9" stroke="#90caf9" d="M2601,-637C2601,-637 2495,-637 2495,-637 2489,-637 2483,-631 2483,-625 2483,-625 2483,-611 2483,-611 2483,-605 2489,-599 2495,-599 2495,-599 2601,-599 2601,-599 2607,-599 2613,-605 2613,-611 2613,-611 2613,-625 2613,-625 2613,-631 2607,-637 2601,-637"/>
<text text-anchor="middle" x="2548" y="-621.8" font-family="Times-Roman" font-size="14.00">krunker.io</text>
<text text-anchor="middle" x="2548" y="-606.8" font-family="Times-Roman" font-size="14.00">Sydney de Vries</text>
</g>
<!-- shellshock.io&#45;&gt;krunker.io -->
<g id="edge64" class="edge">
<title>shellshock.io&#45;&gt;krunker.io</title>
<path fill="none" stroke="black" d="M2542.6,-773.43C2543.63,-743.94 2545.75,-683.2 2547.01,-647.31"/>
<polygon fill="black" stroke="black" points="2550.52,-647.15 2547.37,-637.03 2543.52,-646.9 2550.52,-647.15"/>
</g>
<!-- warscrap.io -->
<g id="node75" class="node">
<title>warscrap.io</title>
<path fill="#90caf9" stroke="#90caf9" d="M2698.5,-810.5C2698.5,-810.5 2625.5,-810.5 2625.5,-810.5 2619.5,-810.5 2613.5,-804.5 2613.5,-798.5 2613.5,-798.5 2613.5,-784.5 2613.5,-784.5 2613.5,-778.5 2619.5,-772.5 2625.5,-772.5 2625.5,-772.5 2698.5,-772.5 2698.5,-772.5 2704.5,-772.5 2710.5,-778.5 2710.5,-784.5 2710.5,-784.5 2710.5,-798.5 2710.5,-798.5 2710.5,-804.5 2704.5,-810.5 2698.5,-810.5"/>
<text text-anchor="middle" x="2662" y="-795.3" font-family="Times-Roman" font-size="14.00">warscrap.io</text>
<text text-anchor="middle" x="2662" y="-780.3" font-family="Times-Roman" font-size="14.00">Evil Noob</text>
</g>
<!-- warscrap.io&#45;&gt;krunker.io -->
<g id="edge63" class="edge">
<title>warscrap.io&#45;&gt;krunker.io</title>
<path fill="none" stroke="black" d="M2650.02,-772.47C2629.83,-742.11 2588.97,-680.64 2565.55,-645.4"/>
<polygon fill="black" stroke="black" points="2568.45,-643.44 2560,-637.05 2562.62,-647.31 2568.45,-643.44"/>
</g>
<!-- airma.sh -->
<g id="node76" class="node">
<title>airma.sh</title>
<path fill="#90caf9" stroke="#90caf9" d="M791.5,-809.5C791.5,-809.5 738.5,-809.5 738.5,-809.5 732.5,-809.5 726.5,-803.5 726.5,-797.5 726.5,-797.5 726.5,-785.5 726.5,-785.5 726.5,-779.5 732.5,-773.5 738.5,-773.5 738.5,-773.5 791.5,-773.5 791.5,-773.5 797.5,-773.5 803.5,-779.5 803.5,-785.5 803.5,-785.5 803.5,-797.5 803.5,-797.5 803.5,-803.5 797.5,-809.5 791.5,-809.5"/>
<text text-anchor="middle" x="765" y="-787.8" font-family="Times-Roman" font-size="14.00">airma.sh</text>
</g>
<!-- skyroyale.io -->
<g id="node99" class="node">
<title>skyroyale.io</title>
<path fill="#90caf9" stroke="#90caf9" d="M808.5,-718.5C808.5,-718.5 721.5,-718.5 721.5,-718.5 715.5,-718.5 709.5,-712.5 709.5,-706.5 709.5,-706.5 709.5,-692.5 709.5,-692.5 709.5,-686.5 715.5,-680.5 721.5,-680.5 721.5,-680.5 808.5,-680.5 808.5,-680.5 814.5,-680.5 820.5,-686.5 820.5,-692.5 820.5,-692.5 820.5,-706.5 820.5,-706.5 820.5,-712.5 814.5,-718.5 808.5,-718.5"/>
<text text-anchor="middle" x="765" y="-703.3" font-family="Times-Roman" font-size="14.00">skyroyale.io</text>
<text text-anchor="middle" x="765" y="-688.3" font-family="Times-Roman" font-size="14.00">Clown Games</text>
</g>
<!-- airma.sh&#45;&gt;skyroyale.io -->
<g id="edge74" class="edge">
<title>airma.sh&#45;&gt;skyroyale.io</title>
<path fill="none" stroke="black" d="M765,-773.15C765,-760.57 765,-743.29 765,-728.73"/>
<polygon fill="black" stroke="black" points="768.5,-728.73 765,-718.73 761.5,-728.73 768.5,-728.73"/>
</g>
<!-- pockey.io -->
<g id="node77" class="node">
<title>pockey.io</title>
<path fill="#90caf9" stroke="#90caf9" d="M2847.5,-818C2847.5,-818 2740.5,-818 2740.5,-818 2734.5,-818 2728.5,-812 2728.5,-806 2728.5,-806 2728.5,-777 2728.5,-777 2728.5,-771 2734.5,-765 2740.5,-765 2740.5,-765 2847.5,-765 2847.5,-765 2853.5,-765 2859.5,-771 2859.5,-777 2859.5,-777 2859.5,-806 2859.5,-806 2859.5,-812 2853.5,-818 2847.5,-818"/>
<text text-anchor="middle" x="2794" y="-802.8" font-family="Times-Roman" font-size="14.00">pockey.io</text>
<text text-anchor="middle" x="2794" y="-787.8" font-family="Times-Roman" font-size="14.00">Starcade</text>
<text text-anchor="middle" x="2794" y="-772.8" font-family="Times-Roman" font-size="14.00">(KidComet &amp; al.)</text>
</g>
<!-- nend.io -->
<g id="node80" class="node">
<title>nend.io</title>
<path fill="#90caf9" stroke="#90caf9" d="M2773.5,-718.5C2773.5,-718.5 2702.5,-718.5 2702.5,-718.5 2696.5,-718.5 2690.5,-712.5 2690.5,-706.5 2690.5,-706.5 2690.5,-692.5 2690.5,-692.5 2690.5,-686.5 2696.5,-680.5 2702.5,-680.5 2702.5,-680.5 2773.5,-680.5 2773.5,-680.5 2779.5,-680.5 2785.5,-686.5 2785.5,-692.5 2785.5,-692.5 2785.5,-706.5 2785.5,-706.5 2785.5,-712.5 2779.5,-718.5 2773.5,-718.5"/>
<text text-anchor="middle" x="2738" y="-703.3" font-family="Times-Roman" font-size="14.00">nend.io</text>
<text text-anchor="middle" x="2738" y="-688.3" font-family="Times-Roman" font-size="14.00">LapaMauve</text>
</g>
<!-- flyordie.io -->
<g id="node83" class="node">
<title>flyordie.io</title>
<path fill="#90caf9" stroke="#90caf9" d="M2715,-637C2715,-637 2643,-637 2643,-637 2637,-637 2631,-631 2631,-625 2631,-625 2631,-611 2631,-611 2631,-605 2637,-599 2643,-599 2643,-599 2715,-599 2715,-599 2721,-599 2727,-605 2727,-611 2727,-611 2727,-625 2727,-625 2727,-631 2721,-637 2715,-637"/>
<text text-anchor="middle" x="2679" y="-621.8" font-family="Times-Roman" font-size="14.00">flyordie.io</text>
<text text-anchor="middle" x="2679" y="-606.8" font-family="Times-Roman" font-size="14.00">Pixel Voices</text>
</g>
<!-- llam.io -->
<g id="node88" class="node">
<title>llam.io</title>
<path fill="#90caf9" stroke="#90caf9" d="M2715,-474C2715,-474 2643,-474 2643,-474 2637,-474 2631,-468 2631,-462 2631,-462 2631,-448 2631,-448 2631,-442 2637,-436 2643,-436 2643,-436 2715,-436 2715,-436 2721,-436 2727,-442 2727,-448 2727,-448 2727,-462 2727,-462 2727,-468 2721,-474 2715,-474"/>
<text text-anchor="middle" x="2679" y="-458.8" font-family="Times-Roman" font-size="14.00">llam.io</text>
<text text-anchor="middle" x="2679" y="-443.8" font-family="Times-Roman" font-size="14.00">Pixel Voices</text>
</g>
<!-- flyordie.io&#45;&gt;llam.io -->
<g id="edge59" class="edge">
<title>flyordie.io&#45;&gt;llam.io</title>
<path fill="none" stroke="black" d="M2679,-598.84C2679,-571.06 2679,-517.76 2679,-484.7"/>
<polygon fill="black" stroke="black" points="2682.5,-484.34 2679,-474.34 2675.5,-484.34 2682.5,-484.34"/>
</g>
<!-- venge.io -->
<g id="node93" class="node">
<title>venge.io</title>
<path fill="#90caf9" stroke="#90caf9" d="M2583.5,-38C2583.5,-38 2512.5,-38 2512.5,-38 2506.5,-38 2500.5,-32 2500.5,-26 2500.5,-26 2500.5,-12 2500.5,-12 2500.5,-6 2506.5,0 2512.5,0 2512.5,0 2583.5,0 2583.5,0 2589.5,0 2595.5,-6 2595.5,-12 2595.5,-12 2595.5,-26 2595.5,-26 2595.5,-32 2589.5,-38 2583.5,-38"/>
<text text-anchor="middle" x="2548" y="-22.8" font-family="Times-Roman" font-size="14.00">venge.io</text>
<text text-anchor="middle" x="2548" y="-7.8" font-family="Times-Roman" font-size="14.00">Cem Demir</text>
</g>
<!-- krunker.io&#45;&gt;venge.io -->
<g id="edge65" class="edge">
<title>krunker.io&#45;&gt;venge.io</title>
<path fill="none" stroke="black" d="M2548,-598.65C2548,-568.76 2548,-507.71 2548,-456 2548,-456 2548,-456 2548,-165 2548,-124.6 2548,-77.86 2548,-48.62"/>
<polygon fill="black" stroke="black" points="2551.5,-48.31 2548,-38.31 2544.5,-48.31 2551.5,-48.31"/>
</g>
<!-- acolytefight.io -->
<g id="node89" class="node">
<title>acolytefight.io</title>
<path fill="#90caf9" stroke="#90caf9" d="M2870.5,-474C2870.5,-474 2757.5,-474 2757.5,-474 2751.5,-474 2745.5,-468 2745.5,-462 2745.5,-462 2745.5,-448 2745.5,-448 2745.5,-442 2751.5,-436 2757.5,-436 2757.5,-436 2870.5,-436 2870.5,-436 2876.5,-436 2882.5,-442 2882.5,-448 2882.5,-448 2882.5,-462 2882.5,-462 2882.5,-468 2876.5,-474 2870.5,-474"/>
<text text-anchor="middle" x="2814" y="-458.8" font-family="Times-Roman" font-size="14.00">acolytefight.io</text>
<text text-anchor="middle" x="2814" y="-443.8" font-family="Times-Roman" font-size="14.00">raysplaceinspace</text>
</g>
<!-- tetr.io -->
<g id="node92" class="node">
<title>tetr.io</title>
<path fill="#90caf9" stroke="#90caf9" d="M2620,-112C2620,-112 2588,-112 2588,-112 2582,-112 2576,-106 2576,-100 2576,-100 2576,-86 2576,-86 2576,-80 2582,-74 2588,-74 2588,-74 2620,-74 2620,-74 2626,-74 2632,-80 2632,-86 2632,-86 2632,-100 2632,-100 2632,-106 2626,-112 2620,-112"/>
<text text-anchor="middle" x="2604" y="-96.8" font-family="Times-Roman" font-size="14.00">tetr.io</text>
<text text-anchor="middle" x="2604" y="-81.8" font-family="Times-Roman" font-size="14.00">osk</text>
</g>
<!-- generals.io -->
<g id="node95" class="node">
<title>generals.io</title>
<path fill="#90caf9" stroke="#90caf9" d="M2657.5,-1121.5C2657.5,-1121.5 2584.5,-1121.5 2584.5,-1121.5 2578.5,-1121.5 2572.5,-1115.5 2572.5,-1109.5 2572.5,-1109.5 2572.5,-1095.5 2572.5,-1095.5 2572.5,-1089.5 2578.5,-1083.5 2584.5,-1083.5 2584.5,-1083.5 2657.5,-1083.5 2657.5,-1083.5 2663.5,-1083.5 2669.5,-1089.5 2669.5,-1095.5 2669.5,-1095.5 2669.5,-1109.5 2669.5,-1109.5 2669.5,-1115.5 2663.5,-1121.5 2657.5,-1121.5"/>
<text text-anchor="middle" x="2621" y="-1106.3" font-family="Times-Roman" font-size="14.00">generals.io</text>
<text text-anchor="middle" x="2621" y="-1091.3" font-family="Times-Roman" font-size="14.00">Victor Zhou</text>
</g>
<!-- bruh.io&#45;&gt;battlepoint.io -->
<g id="edge35" class="edge">
<title>bruh.io&#45;&gt;battlepoint.io</title>
<path fill="none" stroke="black" d="M894,-680.46C894,-670.67 894,-658.35 894,-647.31"/>
<polygon fill="black" stroke="black" points="897.5,-647.24 894,-637.24 890.5,-647.24 897.5,-647.24"/>
</g>
<!-- buildroyale.io -->
<g id="node101" class="node">
<title>buildroyale.io</title>
<path fill="#90caf9" stroke="#90caf9" d="M581,-637C581,-637 461,-637 461,-637 455,-637 449,-631 449,-625 449,-625 449,-611 449,-611 449,-605 455,-599 461,-599 461,-599 581,-599 581,-599 587,-599 593,-605 593,-611 593,-611 593,-625 593,-625 593,-631 587,-637 581,-637"/>
<text text-anchor="middle" x="521" y="-621.8" font-family="Times-Roman" font-size="14.00">buildroyale.io</text>
<text text-anchor="middle" x="521" y="-606.8" font-family="Times-Roman" font-size="14.00">Mathew Matakovic</text>
</g>
<!-- zombsroyale.io&#45;&gt;buildroyale.io -->
<g id="edge47" class="edge">
<title>zombsroyale.io&#45;&gt;buildroyale.io</title>
<path fill="none" stroke="black" d="M512.5,-680.46C513.85,-670.67 515.56,-658.35 517.08,-647.31"/>
<polygon fill="black" stroke="black" points="520.57,-647.63 518.48,-637.24 513.64,-646.67 520.57,-647.63"/>
</g>
</g>
</svg>
