<?xml version="1.0" encoding="UTF-8" standalone="no"?>
<!DOCTYPE svg PUBLIC "-//W3C//DTD SVG 1.1//EN"
 "http://www.w3.org/Graphics/SVG/1.1/DTD/svg11.dtd">
<!-- Generated by graphviz version 2.46.1 (20210213.1702)
 -->
<!-- Title: iogames Pages: 1 -->
<svg width="2760pt" height="2106pt"
 viewBox="0.00 0.00 2759.50 2106.00" xmlns="http://www.w3.org/2000/svg" xmlns:xlink="http://www.w3.org/1999/xlink">
<g id="graph0" class="graph" transform="scale(1 1) rotate(0) translate(4 2102)">
<title>iogames</title>
<polygon fill="white" stroke="transparent" points="-4,4 -4,-2102 2755.5,-2102 2755.5,4 -4,4"/>
<text text-anchor="start" x="1247.75" y="-2071" font-family="Times,serif" font-weight="bold" text-decoration="underline" font-size="30.00">History of .io games</text>
<text text-anchor="start" x="1324.25" y="-2039.8" font-family="Times,serif" font-size="14.00">by </text>
<text text-anchor="start" x="1342.25" y="-2039.8" font-family="Times,serif" font-weight="bold" font-size="14.00">Julien Mourer</text>
<text text-anchor="start" x="1291.25" y="-2025.8" font-family="Times,serif" font-size="14.00">Licensed under the CC BY 4.0</text>
<text text-anchor="start" x="1260.25" y="-2011.8" font-family="Times,serif" font-size="14.00">https://github.com/getkey/io&#45;game&#45;history</text>
<!-- 2009q3 -->
<g id="node1" class="node">
<title>2009q3</title>
<text text-anchor="middle" x="42.5" y="-1981" font-family="Times,serif" font-size="20.00">Q3 2009</text>
</g>
<!-- 2009q4 -->
<g id="node2" class="node">
<title>2009q4</title>
<text text-anchor="middle" x="42.5" y="-1909" font-family="Times,serif" font-size="20.00">Q4 2009</text>
</g>
<!-- 2009q3&#45;&gt;2009q4 -->
<!-- 2010q1 -->
<g id="node3" class="node">
<title>2010q1</title>
<text text-anchor="middle" x="42.5" y="-1836" font-family="Times,serif" font-size="20.00">Q1 2010</text>
</g>
<!-- 2009q4&#45;&gt;2010q1 -->
<!-- ... -->
<g id="node27" class="node">
<title>...</title>
<text text-anchor="middle" x="42.5" y="-1763" font-family="Times,serif" font-size="20.00">...</text>
</g>
<!-- 2010q1&#45;&gt;... -->
<!-- 2014q4 -->
<g id="node4" class="node">
<title>2014q4</title>
<text text-anchor="middle" x="42.5" y="-1690" font-family="Times,serif" font-size="20.00">Q4 2014</text>
</g>
<!-- 2015q1 -->
<g id="node5" class="node">
<title>2015q1</title>
<text text-anchor="middle" x="42.5" y="-1617" font-family="Times,serif" font-size="20.00">Q1 2015</text>
</g>
<!-- 2014q4&#45;&gt;2015q1 -->
<!-- 2015q2 -->
<g id="node6" class="node">
<title>2015q2</title>
<text text-anchor="middle" x="42.5" y="-1544" font-family="Times,serif" font-size="20.00">Q2 2015</text>
</g>
<!-- 2015q1&#45;&gt;2015q2 -->
<!-- 2015q3 -->
<g id="node7" class="node">
<title>2015q3</title>
<text text-anchor="middle" x="42.5" y="-1471" font-family="Times,serif" font-size="20.00">Q3 2015</text>
</g>
<!-- 2015q2&#45;&gt;2015q3 -->
<!-- 2015q4 -->
<g id="node8" class="node">
<title>2015q4</title>
<text text-anchor="middle" x="42.5" y="-1398" font-family="Times,serif" font-size="20.00">Q4 2015</text>
</g>
<!-- 2015q3&#45;&gt;2015q4 -->
<!-- 2016q1 -->
<g id="node9" class="node">
<title>2016q1</title>
<text text-anchor="middle" x="42.5" y="-1324" font-family="Times,serif" font-size="20.00">Q1 2016</text>
</g>
<!-- 2015q4&#45;&gt;2016q1 -->
<!-- 2016q2 -->
<g id="node10" class="node">
<title>2016q2</title>
<text text-anchor="middle" x="42.5" y="-1250" font-family="Times,serif" font-size="20.00">Q2 2016</text>
</g>
<!-- 2016q1&#45;&gt;2016q2 -->
<!-- 2016q3 -->
<g id="node11" class="node">
<title>2016q3</title>
<text text-anchor="middle" x="42.5" y="-1176" font-family="Times,serif" font-size="20.00">Q3 2016</text>
</g>
<!-- 2016q2&#45;&gt;2016q3 -->
<!-- 2016q4 -->
<g id="node12" class="node">
<title>2016q4</title>
<text text-anchor="middle" x="42.5" y="-1094.5" font-family="Times,serif" font-size="20.00">Q4 2016</text>
</g>
<!-- 2016q3&#45;&gt;2016q4 -->
<!-- 2017q1 -->
<g id="node13" class="node">
<title>2017q1</title>
<text text-anchor="middle" x="42.5" y="-1013" font-family="Times,serif" font-size="20.00">Q1 2017</text>
</g>
<!-- 2016q4&#45;&gt;2017q1 -->
<!-- 2017q2 -->
<g id="node14" class="node">
<title>2017q2</title>
<text text-anchor="middle" x="42.5" y="-939" font-family="Times,serif" font-size="20.00">Q2 2017</text>
</g>
<!-- 2017q1&#45;&gt;2017q2 -->
<!-- 2017q3 -->
<g id="node15" class="node">
<title>2017q3</title>
<text text-anchor="middle" x="42.5" y="-857.5" font-family="Times,serif" font-size="20.00">Q3 2017</text>
</g>
<!-- 2017q2&#45;&gt;2017q3 -->
<!-- 2017q4 -->
<g id="node16" class="node">
<title>2017q4</title>
<text text-anchor="middle" x="42.5" y="-768.5" font-family="Times,serif" font-size="20.00">Q4 2017</text>
</g>
<!-- 2017q3&#45;&gt;2017q4 -->
<!-- 2018q1 -->
<g id="node17" class="node">
<title>2018q1</title>
<text text-anchor="middle" x="42.5" y="-687" font-family="Times,serif" font-size="20.00">Q1 2018</text>
</g>
<!-- 2017q4&#45;&gt;2018q1 -->
<!-- 2018q2 -->
<g id="node18" class="node">
<title>2018q2</title>
<text text-anchor="middle" x="42.5" y="-613" font-family="Times,serif" font-size="20.00">Q2 2018</text>
</g>
<!-- 2018q1&#45;&gt;2018q2 -->
<!-- 2018q3 -->
<g id="node19" class="node">
<title>2018q3</title>
<text text-anchor="middle" x="42.5" y="-531.5" font-family="Times,serif" font-size="20.00">Q3 2018</text>
</g>
<!-- 2018q2&#45;&gt;2018q3 -->
<!-- 2018q4 -->
<g id="node20" class="node">
<title>2018q4</title>
<text text-anchor="middle" x="42.5" y="-450" font-family="Times,serif" font-size="20.00">Q4 2018</text>
</g>
<!-- 2018q3&#45;&gt;2018q4 -->
<!-- 2019q1 -->
<g id="node21" class="node">
<title>2019q1</title>
<text text-anchor="middle" x="42.5" y="-377" font-family="Times,serif" font-size="20.00">Q1 2019</text>
</g>
<!-- 2018q4&#45;&gt;2019q1 -->
<!-- 2019q2 -->
<g id="node22" class="node">
<title>2019q2</title>
<text text-anchor="middle" x="42.5" y="-305" font-family="Times,serif" font-size="20.00">Q2 2019</text>
</g>
<!-- 2019q1&#45;&gt;2019q2 -->
<!-- 2019q3 -->
<g id="node23" class="node">
<title>2019q3</title>
<text text-anchor="middle" x="42.5" y="-233" font-family="Times,serif" font-size="20.00">Q3 2019</text>
</g>
<!-- 2019q2&#45;&gt;2019q3 -->
<!-- 2019q4 -->
<g id="node24" class="node">
<title>2019q4</title>
<text text-anchor="middle" x="42.5" y="-161" font-family="Times,serif" font-size="20.00">Q4 2019</text>
</g>
<!-- 2019q3&#45;&gt;2019q4 -->
<!-- 2020q1 -->
<g id="node25" class="node">
<title>2020q1</title>
<text text-anchor="middle" x="42.5" y="-88" font-family="Times,serif" font-size="20.00">Q1 2020</text>
</g>
<!-- 2019q4&#45;&gt;2020q1 -->
<!-- 2020q2 -->
<g id="node26" class="node">
<title>2020q2</title>
<text text-anchor="middle" x="42.5" y="-14" font-family="Times,serif" font-size="20.00">Q2 2020</text>
</g>
<!-- 2020q1&#45;&gt;2020q2 -->
<!-- ...&#45;&gt;2014q4 -->
<!-- pinturillo.com -->
<g id="node28" class="node">
<title>pinturillo.com</title>
<path fill="#e1fa91" stroke="#e1fa91" d="M186,-2004C186,-2004 115,-2004 115,-2004 109,-2004 103,-1998 103,-1992 103,-1992 103,-1980 103,-1980 103,-1974 109,-1968 115,-1968 115,-1968 186,-1968 186,-1968 192,-1968 198,-1974 198,-1980 198,-1980 198,-1992 198,-1992 198,-1998 192,-2004 186,-2004"/>
<text text-anchor="middle" x="150.5" y="-1982.3" font-family="Times,serif" font-size="14.00">pinturillo.com</text>
</g>
<!-- pinturillo2.com -->
<g id="node29" class="node">
<title>pinturillo2.com</title>
<path fill="#e1fa91" stroke="#e1fa91" d="M305,-2004C305,-2004 228,-2004 228,-2004 222,-2004 216,-1998 216,-1992 216,-1992 216,-1980 216,-1980 216,-1974 222,-1968 228,-1968 228,-1968 305,-1968 305,-1968 311,-1968 317,-1974 317,-1980 317,-1980 317,-1992 317,-1992 317,-1998 311,-2004 305,-2004"/>
<text text-anchor="middle" x="266.5" y="-1982.3" font-family="Times,serif" font-size="14.00">pinturillo2.com</text>
</g>
<!-- pinturillo.com&#45;&gt;pinturillo2.com -->
<g id="edge66" class="edge">
<title>pinturillo.com&#45;&gt;pinturillo2.com</title>
<path fill="none" stroke="black" d="M198.08,-1986C200.69,-1986 203.3,-1986 205.91,-1986"/>
<polygon fill="black" stroke="black" points="205.99,-1989.5 215.99,-1986 205.99,-1982.5 205.99,-1989.5"/>
</g>
<!-- Gartic -->
<g id="node30" class="node">
<title>Gartic</title>
<path fill="#e1fa91" stroke="#e1fa91" d="M165.5,-1860C165.5,-1860 135.5,-1860 135.5,-1860 129.5,-1860 123.5,-1854 123.5,-1848 123.5,-1848 123.5,-1834 123.5,-1834 123.5,-1828 129.5,-1822 135.5,-1822 135.5,-1822 165.5,-1822 165.5,-1822 171.5,-1822 177.5,-1828 177.5,-1834 177.5,-1834 177.5,-1848 177.5,-1848 177.5,-1854 171.5,-1860 165.5,-1860"/>
<text text-anchor="middle" x="150.5" y="-1844.8" font-family="Times,serif" font-size="14.00">Gartic</text>
<text text-anchor="middle" x="150.5" y="-1829.8" font-family="Times,serif" font-size="14.00">Gartic</text>
</g>
<!-- pinturillo.com&#45;&gt;Gartic -->
<g id="edge70" class="edge">
<title>pinturillo.com&#45;&gt;Gartic</title>
<path fill="none" stroke="black" d="M150.5,-1967.75C150.5,-1943.64 150.5,-1899.57 150.5,-1870.53"/>
<polygon fill="black" stroke="black" points="154,-1870.21 150.5,-1860.21 147,-1870.21 154,-1870.21"/>
</g>
<!-- drawthis.io -->
<g id="node49" class="node">
<title>drawthis.io</title>
<path fill="#90caf9" stroke="#90caf9" d="M234,-1199C234,-1199 181,-1199 181,-1199 175,-1199 169,-1193 169,-1187 169,-1187 169,-1175 169,-1175 169,-1169 175,-1163 181,-1163 181,-1163 234,-1163 234,-1163 240,-1163 246,-1169 246,-1175 246,-1175 246,-1187 246,-1187 246,-1193 240,-1199 234,-1199"/>
<text text-anchor="middle" x="207.5" y="-1177.3" font-family="Times,serif" font-size="14.00">drawthis.io</text>
</g>
<!-- pinturillo2.com&#45;&gt;drawthis.io -->
<g id="edge67" class="edge">
<title>pinturillo2.com&#45;&gt;drawthis.io</title>
<path fill="none" stroke="black" d="M256.14,-1967.63C241.49,-1941.38 216.5,-1889.6 216.5,-1842 216.5,-1842 216.5,-1842 216.5,-1328 216.5,-1286.57 212.84,-1238.64 210.19,-1209.33"/>
<polygon fill="black" stroke="black" points="213.65,-1208.69 209.24,-1199.06 206.68,-1209.34 213.65,-1208.69"/>
</g>
<!-- skribbl.io -->
<g id="node60" class="node">
<title>skribbl.io</title>
<path fill="#90caf9" stroke="#90caf9" d="M296.5,-1037C296.5,-1037 252.5,-1037 252.5,-1037 246.5,-1037 240.5,-1031 240.5,-1025 240.5,-1025 240.5,-1011 240.5,-1011 240.5,-1005 246.5,-999 252.5,-999 252.5,-999 296.5,-999 296.5,-999 302.5,-999 308.5,-1005 308.5,-1011 308.5,-1011 308.5,-1025 308.5,-1025 308.5,-1031 302.5,-1037 296.5,-1037"/>
<text text-anchor="middle" x="274.5" y="-1021.8" font-family="Times,serif" font-size="14.00">skribbl.io</text>
<text text-anchor="middle" x="274.5" y="-1006.8" font-family="Times,serif" font-size="14.00">mel</text>
</g>
<!-- pinturillo2.com&#45;&gt;skribbl.io -->
<g id="edge69" class="edge">
<title>pinturillo2.com&#45;&gt;skribbl.io</title>
<path fill="none" stroke="black" d="M268.08,-1967.85C270.41,-1941.02 274.5,-1887.5 274.5,-1842 274.5,-1842 274.5,-1842 274.5,-1180 274.5,-1133.54 274.5,-1079.54 274.5,-1047.38"/>
<polygon fill="black" stroke="black" points="278,-1047.35 274.5,-1037.35 271,-1047.35 278,-1047.35"/>
</g>
<!-- cursors.io -->
<g id="node31" class="node">
<title>cursors.io</title>
<path fill="#90caf9" stroke="#90caf9" d="M410.5,-1714C410.5,-1714 314.5,-1714 314.5,-1714 308.5,-1714 302.5,-1708 302.5,-1702 302.5,-1702 302.5,-1688 302.5,-1688 302.5,-1682 308.5,-1676 314.5,-1676 314.5,-1676 410.5,-1676 410.5,-1676 416.5,-1676 422.5,-1682 422.5,-1688 422.5,-1688 422.5,-1702 422.5,-1702 422.5,-1708 416.5,-1714 410.5,-1714"/>
<text text-anchor="middle" x="362.5" y="-1698.8" font-family="Times,serif" font-size="14.00">cursors.io</text>
<text text-anchor="middle" x="362.5" y="-1683.8" font-family="Times,serif" font-size="14.00">Matheus Valadares</text>
</g>
<!-- voar.io -->
<g id="node32" class="node">
<title>voar.io</title>
<path fill="#90caf9" stroke="#90caf9" d="M548.5,-1714C548.5,-1714 452.5,-1714 452.5,-1714 446.5,-1714 440.5,-1708 440.5,-1702 440.5,-1702 440.5,-1688 440.5,-1688 440.5,-1682 446.5,-1676 452.5,-1676 452.5,-1676 548.5,-1676 548.5,-1676 554.5,-1676 560.5,-1682 560.5,-1688 560.5,-1688 560.5,-1702 560.5,-1702 560.5,-1708 554.5,-1714 548.5,-1714"/>
<text text-anchor="middle" x="500.5" y="-1698.8" font-family="Times,serif" font-size="14.00">voar.io</text>
<text text-anchor="middle" x="500.5" y="-1683.8" font-family="Times,serif" font-size="14.00">Matheus Valadares</text>
</g>
<!-- agar.io -->
<g id="node33" class="node">
<title>agar.io</title>
<path fill="#90caf9" stroke="#90caf9" d="M663.5,-1568C663.5,-1568 567.5,-1568 567.5,-1568 561.5,-1568 555.5,-1562 555.5,-1556 555.5,-1556 555.5,-1542 555.5,-1542 555.5,-1536 561.5,-1530 567.5,-1530 567.5,-1530 663.5,-1530 663.5,-1530 669.5,-1530 675.5,-1536 675.5,-1542 675.5,-1542 675.5,-1556 675.5,-1556 675.5,-1562 669.5,-1568 663.5,-1568"/>
<text text-anchor="middle" x="615.5" y="-1552.8" font-family="Times,serif" font-size="14.00">agar.io</text>
<text text-anchor="middle" x="615.5" y="-1537.8" font-family="Times,serif" font-size="14.00">Matheus Valadares</text>
</g>
<!-- deeeep.io -->
<g id="node42" class="node">
<title>deeeep.io</title>
<path fill="#90caf9" stroke="#90caf9" d="M359.5,-1117.5C359.5,-1117.5 315.5,-1117.5 315.5,-1117.5 309.5,-1117.5 303.5,-1111.5 303.5,-1105.5 303.5,-1105.5 303.5,-1093.5 303.5,-1093.5 303.5,-1087.5 309.5,-1081.5 315.5,-1081.5 315.5,-1081.5 359.5,-1081.5 359.5,-1081.5 365.5,-1081.5 371.5,-1087.5 371.5,-1093.5 371.5,-1093.5 371.5,-1105.5 371.5,-1105.5 371.5,-1111.5 365.5,-1117.5 359.5,-1117.5"/>
<text text-anchor="middle" x="337.5" y="-1095.8" font-family="Times,serif" font-size="14.00">deeeep.io</text>
</g>
<!-- agar.io&#45;&gt;deeeep.io -->
<g id="edge54" class="edge">
<title>agar.io&#45;&gt;deeeep.io</title>
<path fill="none" stroke="black" d="M570.65,-1529.96C523.93,-1507.87 457.5,-1465.61 457.5,-1404 457.5,-1404 457.5,-1404 457.5,-1254 457.5,-1198.1 407.5,-1150.41 372.05,-1123.62"/>
<polygon fill="black" stroke="black" points="373.97,-1120.69 363.83,-1117.59 369.82,-1126.33 373.97,-1120.69"/>
</g>
<!-- pie.ai -->
<g id="node57" class="node">
<title>pie.ai</title>
<path fill="#90caf9" stroke="#90caf9" d="M622.5,-1036C622.5,-1036 592.5,-1036 592.5,-1036 586.5,-1036 580.5,-1030 580.5,-1024 580.5,-1024 580.5,-1012 580.5,-1012 580.5,-1006 586.5,-1000 592.5,-1000 592.5,-1000 622.5,-1000 622.5,-1000 628.5,-1000 634.5,-1006 634.5,-1012 634.5,-1012 634.5,-1024 634.5,-1024 634.5,-1030 628.5,-1036 622.5,-1036"/>
<text text-anchor="middle" x="607.5" y="-1014.3" font-family="Times,serif" font-size="14.00">pie.ai</text>
</g>
<!-- agar.io&#45;&gt;pie.ai -->
<g id="edge53" class="edge">
<title>agar.io&#45;&gt;pie.ai</title>
<path fill="none" stroke="black" d="M615.5,-1529.81C615.5,-1502.5 615.5,-1449.25 615.5,-1404 615.5,-1404 615.5,-1404 615.5,-1180 615.5,-1133.19 612.08,-1078.81 609.72,-1046.74"/>
<polygon fill="black" stroke="black" points="613.18,-1046.08 608.93,-1036.38 606.2,-1046.61 613.18,-1046.08"/>
</g>
<!-- spinz.io -->
<g id="node63" class="node">
<title>spinz.io</title>
<path fill="#90caf9" stroke="#90caf9" d="M653.5,-963C653.5,-963 609.5,-963 609.5,-963 603.5,-963 597.5,-957 597.5,-951 597.5,-951 597.5,-937 597.5,-937 597.5,-931 603.5,-925 609.5,-925 609.5,-925 653.5,-925 653.5,-925 659.5,-925 665.5,-931 665.5,-937 665.5,-937 665.5,-951 665.5,-951 665.5,-957 659.5,-963 653.5,-963"/>
<text text-anchor="middle" x="631.5" y="-947.8" font-family="Times,serif" font-size="14.00">spinz.io</text>
<text text-anchor="middle" x="631.5" y="-932.8" font-family="Times,serif" font-size="14.00">Yang Lui</text>
</g>
<!-- agar.io&#45;&gt;spinz.io -->
<g id="edge50" class="edge">
<title>agar.io&#45;&gt;spinz.io</title>
<path fill="none" stroke="black" d="M625.47,-1529.98C639.26,-1503.3 662.5,-1451.34 662.5,-1404 662.5,-1404 662.5,-1404 662.5,-1098.5 662.5,-1053.99 649.82,-1003.64 640.68,-973.12"/>
<polygon fill="black" stroke="black" points="643.91,-971.72 637.62,-963.19 637.22,-973.78 643.91,-971.72"/>
</g>
<!-- vanar.io -->
<g id="node34" class="node">
<title>vanar.io</title>
<path fill="#90caf9" stroke="#90caf9" d="M1039.5,-1494C1039.5,-1494 1003.5,-1494 1003.5,-1494 997.5,-1494 991.5,-1488 991.5,-1482 991.5,-1482 991.5,-1470 991.5,-1470 991.5,-1464 997.5,-1458 1003.5,-1458 1003.5,-1458 1039.5,-1458 1039.5,-1458 1045.5,-1458 1051.5,-1464 1051.5,-1470 1051.5,-1470 1051.5,-1482 1051.5,-1482 1051.5,-1488 1045.5,-1494 1039.5,-1494"/>
<text text-anchor="middle" x="1021.5" y="-1472.3" font-family="Times,serif" font-size="14.00">vanar.io</text>
</g>
<!-- starblast.io -->
<g id="node53" class="node">
<title>starblast.io</title>
<path fill="#90caf9" stroke="#90caf9" d="M1050,-1118.5C1050,-1118.5 993,-1118.5 993,-1118.5 987,-1118.5 981,-1112.5 981,-1106.5 981,-1106.5 981,-1092.5 981,-1092.5 981,-1086.5 987,-1080.5 993,-1080.5 993,-1080.5 1050,-1080.5 1050,-1080.5 1056,-1080.5 1062,-1086.5 1062,-1092.5 1062,-1092.5 1062,-1106.5 1062,-1106.5 1062,-1112.5 1056,-1118.5 1050,-1118.5"/>
<text text-anchor="middle" x="1021.5" y="-1103.3" font-family="Times,serif" font-size="14.00">starblast.io</text>
<text text-anchor="middle" x="1021.5" y="-1088.3" font-family="Times,serif" font-size="14.00">Neuronality</text>
</g>
<!-- vanar.io&#45;&gt;starblast.io -->
<g id="edge75" class="edge">
<title>vanar.io&#45;&gt;starblast.io</title>
<path fill="none" stroke="black" d="M1021.5,-1457.59C1021.5,-1430.37 1021.5,-1376.07 1021.5,-1330 1021.5,-1330 1021.5,-1330 1021.5,-1254 1021.5,-1210.38 1021.5,-1159.78 1021.5,-1128.96"/>
<polygon fill="black" stroke="black" points="1025,-1128.93 1021.5,-1118.93 1018,-1128.93 1025,-1128.93"/>
</g>
<!-- vertix.io -->
<g id="node35" class="node">
<title>vertix.io</title>
<path fill="#90caf9" stroke="#90caf9" d="M1228,-1422C1228,-1422 1145,-1422 1145,-1422 1139,-1422 1133,-1416 1133,-1410 1133,-1410 1133,-1396 1133,-1396 1133,-1390 1139,-1384 1145,-1384 1145,-1384 1228,-1384 1228,-1384 1234,-1384 1240,-1390 1240,-1396 1240,-1396 1240,-1410 1240,-1410 1240,-1416 1234,-1422 1228,-1422"/>
<text text-anchor="middle" x="1186.5" y="-1406.8" font-family="Times,serif" font-size="14.00">vertix.io</text>
<text text-anchor="middle" x="1186.5" y="-1391.8" font-family="Times,serif" font-size="14.00">Sydney de Vries</text>
</g>
<!-- nightpoint.io -->
<g id="node70" class="node">
<title>nightpoint.io</title>
<path fill="#90caf9" stroke="#90caf9" d="M1217.5,-881.5C1217.5,-881.5 1155.5,-881.5 1155.5,-881.5 1149.5,-881.5 1143.5,-875.5 1143.5,-869.5 1143.5,-869.5 1143.5,-855.5 1143.5,-855.5 1143.5,-849.5 1149.5,-843.5 1155.5,-843.5 1155.5,-843.5 1217.5,-843.5 1217.5,-843.5 1223.5,-843.5 1229.5,-849.5 1229.5,-855.5 1229.5,-855.5 1229.5,-869.5 1229.5,-869.5 1229.5,-875.5 1223.5,-881.5 1217.5,-881.5"/>
<text text-anchor="middle" x="1186.5" y="-866.3" font-family="Times,serif" font-size="14.00">nightpoint.io</text>
<text text-anchor="middle" x="1186.5" y="-851.3" font-family="Times,serif" font-size="14.00">Sarunas</text>
</g>
<!-- vertix.io&#45;&gt;nightpoint.io -->
<g id="edge31" class="edge">
<title>vertix.io&#45;&gt;nightpoint.io</title>
<path fill="none" stroke="black" d="M1186.5,-1383.56C1186.5,-1355.87 1186.5,-1301.88 1186.5,-1256 1186.5,-1256 1186.5,-1256 1186.5,-1017 1186.5,-973.38 1186.5,-922.78 1186.5,-891.96"/>
<polygon fill="black" stroke="black" points="1190,-891.93 1186.5,-881.93 1183,-891.93 1190,-891.93"/>
</g>
<!-- slither.io -->
<g id="node36" class="node">
<title>slither.io</title>
<path fill="#90caf9" stroke="#90caf9" d="M1382.5,-1348C1382.5,-1348 1318.5,-1348 1318.5,-1348 1312.5,-1348 1306.5,-1342 1306.5,-1336 1306.5,-1336 1306.5,-1322 1306.5,-1322 1306.5,-1316 1312.5,-1310 1318.5,-1310 1318.5,-1310 1382.5,-1310 1382.5,-1310 1388.5,-1310 1394.5,-1316 1394.5,-1322 1394.5,-1322 1394.5,-1336 1394.5,-1336 1394.5,-1342 1388.5,-1348 1382.5,-1348"/>
<text text-anchor="middle" x="1350.5" y="-1332.8" font-family="Times,serif" font-size="14.00">slither.io</text>
<text text-anchor="middle" x="1350.5" y="-1317.8" font-family="Times,serif" font-size="14.00">Steve Howse</text>
</g>
<!-- limax.io -->
<g id="node39" class="node">
<title>limax.io</title>
<path fill="#90caf9" stroke="#90caf9" d="M1284.5,-1274C1284.5,-1274 1226.5,-1274 1226.5,-1274 1220.5,-1274 1214.5,-1268 1214.5,-1262 1214.5,-1262 1214.5,-1248 1214.5,-1248 1214.5,-1242 1220.5,-1236 1226.5,-1236 1226.5,-1236 1284.5,-1236 1284.5,-1236 1290.5,-1236 1296.5,-1242 1296.5,-1248 1296.5,-1248 1296.5,-1262 1296.5,-1262 1296.5,-1268 1290.5,-1274 1284.5,-1274"/>
<text text-anchor="middle" x="1255.5" y="-1258.8" font-family="Times,serif" font-size="14.00">limax.io</text>
<text text-anchor="middle" x="1255.5" y="-1243.8" font-family="Times,serif" font-size="14.00">LapaMauve</text>
</g>
<!-- slither.io&#45;&gt;limax.io -->
<g id="edge29" class="edge">
<title>slither.io&#45;&gt;limax.io</title>
<path fill="none" stroke="black" d="M1326.53,-1309.83C1314.71,-1300.88 1300.3,-1289.96 1287.56,-1280.3"/>
<polygon fill="black" stroke="black" points="1289.55,-1277.41 1279.46,-1274.16 1285.32,-1282.99 1289.55,-1277.41"/>
</g>
<!-- wormax.io -->
<g id="node41" class="node">
<title>wormax.io</title>
<path fill="#90caf9" stroke="#90caf9" d="M1336.5,-1200C1336.5,-1200 1284.5,-1200 1284.5,-1200 1278.5,-1200 1272.5,-1194 1272.5,-1188 1272.5,-1188 1272.5,-1174 1272.5,-1174 1272.5,-1168 1278.5,-1162 1284.5,-1162 1284.5,-1162 1336.5,-1162 1336.5,-1162 1342.5,-1162 1348.5,-1168 1348.5,-1174 1348.5,-1174 1348.5,-1188 1348.5,-1188 1348.5,-1194 1342.5,-1200 1336.5,-1200"/>
<text text-anchor="middle" x="1310.5" y="-1184.8" font-family="Times,serif" font-size="14.00">wormax.io</text>
<text text-anchor="middle" x="1310.5" y="-1169.8" font-family="Times,serif" font-size="14.00">Elyland</text>
</g>
<!-- slither.io&#45;&gt;wormax.io -->
<g id="edge27" class="edge">
<title>slither.io&#45;&gt;wormax.io</title>
<path fill="none" stroke="black" d="M1345.51,-1309.8C1338.66,-1284.78 1326.25,-1239.5 1318.2,-1210.1"/>
<polygon fill="black" stroke="black" points="1321.57,-1209.14 1315.55,-1200.43 1314.81,-1210.99 1321.57,-1209.14"/>
</g>
<!-- wormate.io -->
<g id="node45" class="node">
<title>wormate.io</title>
<path fill="#90caf9" stroke="#90caf9" d="M1424,-1118.5C1424,-1118.5 1329,-1118.5 1329,-1118.5 1323,-1118.5 1317,-1112.5 1317,-1106.5 1317,-1106.5 1317,-1092.5 1317,-1092.5 1317,-1086.5 1323,-1080.5 1329,-1080.5 1329,-1080.5 1424,-1080.5 1424,-1080.5 1430,-1080.5 1436,-1086.5 1436,-1092.5 1436,-1092.5 1436,-1106.5 1436,-1106.5 1436,-1112.5 1430,-1118.5 1424,-1118.5"/>
<text text-anchor="middle" x="1376.5" y="-1103.3" font-family="Times,serif" font-size="14.00">wormate.io</text>
<text text-anchor="middle" x="1376.5" y="-1088.3" font-family="Times,serif" font-size="14.00">Oleksandr Godoba</text>
</g>
<!-- slither.io&#45;&gt;wormate.io -->
<g id="edge28" class="edge">
<title>slither.io&#45;&gt;wormate.io</title>
<path fill="none" stroke="black" d="M1352.58,-1309.77C1357.11,-1270.15 1367.87,-1175.98 1373.28,-1128.66"/>
<polygon fill="black" stroke="black" points="1376.78,-1128.84 1374.44,-1118.5 1369.83,-1128.04 1376.78,-1128.84"/>
</g>
<!-- powerline.io -->
<g id="node71" class="node">
<title>powerline.io</title>
<path fill="#90caf9" stroke="#90caf9" d="M1503,-792.5C1503,-792.5 1426,-792.5 1426,-792.5 1420,-792.5 1414,-786.5 1414,-780.5 1414,-780.5 1414,-766.5 1414,-766.5 1414,-760.5 1420,-754.5 1426,-754.5 1426,-754.5 1503,-754.5 1503,-754.5 1509,-754.5 1515,-760.5 1515,-766.5 1515,-766.5 1515,-780.5 1515,-780.5 1515,-786.5 1509,-792.5 1503,-792.5"/>
<text text-anchor="middle" x="1464.5" y="-777.3" font-family="Times,serif" font-size="14.00">powerline.io</text>
<text text-anchor="middle" x="1464.5" y="-762.3" font-family="Times,serif" font-size="14.00">Andre Almeida</text>
</g>
<!-- slither.io&#45;&gt;powerline.io -->
<g id="edge30" class="edge">
<title>slither.io&#45;&gt;powerline.io</title>
<path fill="none" stroke="black" d="M1378.1,-1309.88C1411.83,-1285.3 1464.5,-1237.96 1464.5,-1182 1464.5,-1182 1464.5,-1182 1464.5,-943 1464.5,-893.85 1464.5,-836.64 1464.5,-803.12"/>
<polygon fill="black" stroke="black" points="1468,-802.7 1464.5,-792.7 1461,-802.7 1468,-802.7"/>
</g>
<!-- diep.io -->
<g id="node37" class="node">
<title>diep.io</title>
<path fill="#90caf9" stroke="#90caf9" d="M1662.5,-1348C1662.5,-1348 1566.5,-1348 1566.5,-1348 1560.5,-1348 1554.5,-1342 1554.5,-1336 1554.5,-1336 1554.5,-1322 1554.5,-1322 1554.5,-1316 1560.5,-1310 1566.5,-1310 1566.5,-1310 1662.5,-1310 1662.5,-1310 1668.5,-1310 1674.5,-1316 1674.5,-1322 1674.5,-1322 1674.5,-1336 1674.5,-1336 1674.5,-1342 1668.5,-1348 1662.5,-1348"/>
<text text-anchor="middle" x="1614.5" y="-1332.8" font-family="Times,serif" font-size="14.00">diep.io</text>
<text text-anchor="middle" x="1614.5" y="-1317.8" font-family="Times,serif" font-size="14.00">Matheus Valadares</text>
</g>
<!-- tanksmith.io -->
<g id="node82" class="node">
<title>tanksmith.io</title>
<path fill="#90caf9" stroke="#90caf9" d="M1574,-637C1574,-637 1513,-637 1513,-637 1507,-637 1501,-631 1501,-625 1501,-625 1501,-611 1501,-611 1501,-605 1507,-599 1513,-599 1513,-599 1574,-599 1574,-599 1580,-599 1586,-605 1586,-611 1586,-611 1586,-625 1586,-625 1586,-631 1580,-637 1574,-637"/>
<text text-anchor="middle" x="1543.5" y="-621.8" font-family="Times,serif" font-size="14.00">tanksmith.io</text>
<text text-anchor="middle" x="1543.5" y="-606.8" font-family="Times,serif" font-size="14.00">IO Ninja</text>
</g>
<!-- diep.io&#45;&gt;tanksmith.io -->
<g id="edge55" class="edge">
<title>diep.io&#45;&gt;tanksmith.io</title>
<path fill="none" stroke="black" d="M1598.74,-1309.57C1577.83,-1283.16 1543.5,-1232.17 1543.5,-1182 1543.5,-1182 1543.5,-1182 1543.5,-772.5 1543.5,-728.88 1543.5,-678.28 1543.5,-647.46"/>
<polygon fill="black" stroke="black" points="1547,-647.43 1543.5,-637.43 1540,-647.43 1547,-647.43"/>
</g>
<!-- florr.io -->
<g id="node91" class="node">
<title>florr.io</title>
<path fill="#90caf9" stroke="#90caf9" d="M1662.5,-112C1662.5,-112 1566.5,-112 1566.5,-112 1560.5,-112 1554.5,-106 1554.5,-100 1554.5,-100 1554.5,-86 1554.5,-86 1554.5,-80 1560.5,-74 1566.5,-74 1566.5,-74 1662.5,-74 1662.5,-74 1668.5,-74 1674.5,-80 1674.5,-86 1674.5,-86 1674.5,-100 1674.5,-100 1674.5,-106 1668.5,-112 1662.5,-112"/>
<text text-anchor="middle" x="1614.5" y="-96.8" font-family="Times,serif" font-size="14.00">florr.io</text>
<text text-anchor="middle" x="1614.5" y="-81.8" font-family="Times,serif" font-size="14.00">Matheus Valadares</text>
</g>
<!-- diep.io&#45;&gt;florr.io -->
<g id="edge56" class="edge">
<title>diep.io&#45;&gt;florr.io</title>
<path fill="none" stroke="black" d="M1614.5,-1309.56C1614.5,-1281.87 1614.5,-1227.88 1614.5,-1182 1614.5,-1182 1614.5,-1182 1614.5,-237 1614.5,-197.15 1614.5,-151.06 1614.5,-122.22"/>
<polygon fill="black" stroke="black" points="1618,-122.06 1614.5,-112.06 1611,-122.06 1618,-122.06"/>
</g>
<!-- doblons.io -->
<g id="node94" class="node">
<title>doblons.io</title>
<path fill="#90caf9" stroke="#90caf9" d="M1738,-1118.5C1738,-1118.5 1655,-1118.5 1655,-1118.5 1649,-1118.5 1643,-1112.5 1643,-1106.5 1643,-1106.5 1643,-1092.5 1643,-1092.5 1643,-1086.5 1649,-1080.5 1655,-1080.5 1655,-1080.5 1738,-1080.5 1738,-1080.5 1744,-1080.5 1750,-1086.5 1750,-1092.5 1750,-1092.5 1750,-1106.5 1750,-1106.5 1750,-1112.5 1744,-1118.5 1738,-1118.5"/>
<text text-anchor="middle" x="1696.5" y="-1103.3" font-family="Times,serif" font-size="14.00">doblons.io</text>
<text text-anchor="middle" x="1696.5" y="-1088.3" font-family="Times,serif" font-size="14.00">Sydney de Vries</text>
</g>
<!-- diep.io&#45;&gt;doblons.io -->
<g id="edge57" class="edge">
<title>diep.io&#45;&gt;doblons.io</title>
<path fill="none" stroke="black" d="M1621.07,-1309.77C1635.41,-1269.98 1669.58,-1175.19 1686.56,-1128.07"/>
<polygon fill="black" stroke="black" points="1689.91,-1129.1 1690.01,-1118.5 1683.33,-1126.72 1689.91,-1129.1"/>
</g>
<!-- wings.io -->
<g id="node38" class="node">
<title>wings.io</title>
<path fill="#90caf9" stroke="#90caf9" d="M1782,-1348C1782,-1348 1705,-1348 1705,-1348 1699,-1348 1693,-1342 1693,-1336 1693,-1336 1693,-1322 1693,-1322 1693,-1316 1699,-1310 1705,-1310 1705,-1310 1782,-1310 1782,-1310 1788,-1310 1794,-1316 1794,-1322 1794,-1322 1794,-1336 1794,-1336 1794,-1342 1788,-1348 1782,-1348"/>
<text text-anchor="middle" x="1743.5" y="-1332.8" font-family="Times,serif" font-size="14.00">wings.io</text>
<text text-anchor="middle" x="1743.5" y="-1317.8" font-family="Times,serif" font-size="14.00">Andre Almeida</text>
</g>
<!-- wilds.io -->
<g id="node40" class="node">
<title>wilds.io</title>
<path fill="#90caf9" stroke="#90caf9" d="M1797.5,-1274C1797.5,-1274 1759.5,-1274 1759.5,-1274 1753.5,-1274 1747.5,-1268 1747.5,-1262 1747.5,-1262 1747.5,-1248 1747.5,-1248 1747.5,-1242 1753.5,-1236 1759.5,-1236 1759.5,-1236 1797.5,-1236 1797.5,-1236 1803.5,-1236 1809.5,-1242 1809.5,-1248 1809.5,-1248 1809.5,-1262 1809.5,-1262 1809.5,-1268 1803.5,-1274 1797.5,-1274"/>
<text text-anchor="middle" x="1778.5" y="-1258.8" font-family="Times,serif" font-size="14.00">wilds.io</text>
<text text-anchor="middle" x="1778.5" y="-1243.8" font-family="Times,serif" font-size="14.00">Rezoner</text>
</g>
<!-- wanderers.io -->
<g id="node73" class="node">
<title>wanderers.io</title>
<path fill="#90caf9" stroke="#90caf9" d="M1843.5,-792.5C1843.5,-792.5 1781.5,-792.5 1781.5,-792.5 1775.5,-792.5 1769.5,-786.5 1769.5,-780.5 1769.5,-780.5 1769.5,-766.5 1769.5,-766.5 1769.5,-760.5 1775.5,-754.5 1781.5,-754.5 1781.5,-754.5 1843.5,-754.5 1843.5,-754.5 1849.5,-754.5 1855.5,-760.5 1855.5,-766.5 1855.5,-766.5 1855.5,-780.5 1855.5,-780.5 1855.5,-786.5 1849.5,-792.5 1843.5,-792.5"/>
<text text-anchor="middle" x="1812.5" y="-777.3" font-family="Times,serif" font-size="14.00">wanderers.io</text>
<text text-anchor="middle" x="1812.5" y="-762.3" font-family="Times,serif" font-size="14.00">Rezoner</text>
</g>
<!-- wilds.io&#45;&gt;wanderers.io -->
<g id="edge48" class="edge">
<title>wilds.io&#45;&gt;wanderers.io</title>
<path fill="none" stroke="black" d="M1778.5,-1235.57C1778.5,-1206.75 1778.5,-1149.27 1778.5,-1100.5 1778.5,-1100.5 1778.5,-1100.5 1778.5,-943 1778.5,-892.91 1793.11,-836.08 1803.18,-802.87"/>
<polygon fill="black" stroke="black" points="1806.64,-803.54 1806.26,-792.95 1799.95,-801.46 1806.64,-803.54"/>
</g>
<!-- oceanar.io -->
<g id="node43" class="node">
<title>oceanar.io</title>
<path fill="#90caf9" stroke="#90caf9" d="M575.5,-1118.5C575.5,-1118.5 527.5,-1118.5 527.5,-1118.5 521.5,-1118.5 515.5,-1112.5 515.5,-1106.5 515.5,-1106.5 515.5,-1092.5 515.5,-1092.5 515.5,-1086.5 521.5,-1080.5 527.5,-1080.5 527.5,-1080.5 575.5,-1080.5 575.5,-1080.5 581.5,-1080.5 587.5,-1086.5 587.5,-1092.5 587.5,-1092.5 587.5,-1106.5 587.5,-1106.5 587.5,-1112.5 581.5,-1118.5 575.5,-1118.5"/>
<text text-anchor="middle" x="551.5" y="-1103.3" font-family="Times,serif" font-size="14.00">oceanar.io</text>
<text text-anchor="middle" x="551.5" y="-1088.3" font-family="Times,serif" font-size="14.00">S3Games</text>
</g>
<!-- deeeep.io&#45;&gt;oceanar.io -->
<g id="edge36" class="edge">
<title>deeeep.io&#45;&gt;oceanar.io</title>
<path fill="none" stroke="black" d="M352.8,-1117.8C362.23,-1127.6 375.23,-1138.73 389.5,-1144 434.11,-1160.48 451.67,-1159.86 496.5,-1144 507.49,-1140.11 517.9,-1132.98 526.64,-1125.56"/>
<polygon fill="black" stroke="black" points="529.1,-1128.05 534.16,-1118.74 524.4,-1122.86 529.1,-1128.05"/>
</g>
<!-- mope.io -->
<g id="node44" class="node">
<title>mope.io</title>
<path fill="#90caf9" stroke="#90caf9" d="M485,-1118.5C485,-1118.5 402,-1118.5 402,-1118.5 396,-1118.5 390,-1112.5 390,-1106.5 390,-1106.5 390,-1092.5 390,-1092.5 390,-1086.5 396,-1080.5 402,-1080.5 402,-1080.5 485,-1080.5 485,-1080.5 491,-1080.5 497,-1086.5 497,-1092.5 497,-1092.5 497,-1106.5 497,-1106.5 497,-1112.5 491,-1118.5 485,-1118.5"/>
<text text-anchor="middle" x="443.5" y="-1103.3" font-family="Times,serif" font-size="14.00">mope.io</text>
<text text-anchor="middle" x="443.5" y="-1088.3" font-family="Times,serif" font-size="14.00">Stan Tatarnykov</text>
</g>
<!-- deeeep.io&#45;&gt;mope.io -->
<g id="edge37" class="edge">
<title>deeeep.io&#45;&gt;mope.io</title>
<path fill="none" stroke="black" d="M371.87,-1099.5C374.48,-1099.5 377.09,-1099.5 379.7,-1099.5"/>
<polygon fill="black" stroke="black" points="379.78,-1103 389.78,-1099.5 379.78,-1096 379.78,-1103"/>
</g>
<!-- moomoo.io -->
<g id="node58" class="node">
<title>moomoo.io</title>
<path fill="#90caf9" stroke="#90caf9" d="M486,-1037C486,-1037 403,-1037 403,-1037 397,-1037 391,-1031 391,-1025 391,-1025 391,-1011 391,-1011 391,-1005 397,-999 403,-999 403,-999 486,-999 486,-999 492,-999 498,-1005 498,-1011 498,-1011 498,-1025 498,-1025 498,-1031 492,-1037 486,-1037"/>
<text text-anchor="middle" x="444.5" y="-1021.8" font-family="Times,serif" font-size="14.00">moomoo.io</text>
<text text-anchor="middle" x="444.5" y="-1006.8" font-family="Times,serif" font-size="14.00">Sydney de Vries</text>
</g>
<!-- mope.io&#45;&gt;moomoo.io -->
<g id="edge38" class="edge">
<title>mope.io&#45;&gt;moomoo.io</title>
<path fill="none" stroke="black" d="M443.73,-1080.46C443.85,-1070.67 444.01,-1058.35 444.14,-1047.31"/>
<polygon fill="black" stroke="black" points="447.64,-1047.29 444.27,-1037.24 440.64,-1047.2 447.64,-1047.29"/>
</g>
<!-- paper.io -->
<g id="node46" class="node">
<title>paper.io</title>
<path fill="#90caf9" stroke="#90caf9" d="M2031.5,-1200C2031.5,-1200 1995.5,-1200 1995.5,-1200 1989.5,-1200 1983.5,-1194 1983.5,-1188 1983.5,-1188 1983.5,-1174 1983.5,-1174 1983.5,-1168 1989.5,-1162 1995.5,-1162 1995.5,-1162 2031.5,-1162 2031.5,-1162 2037.5,-1162 2043.5,-1168 2043.5,-1174 2043.5,-1174 2043.5,-1188 2043.5,-1188 2043.5,-1194 2037.5,-1200 2031.5,-1200"/>
<text text-anchor="middle" x="2013.5" y="-1184.8" font-family="Times,serif" font-size="14.00">paper.io</text>
<text text-anchor="middle" x="2013.5" y="-1169.8" font-family="Times,serif" font-size="14.00">Voodoo</text>
</g>
<!-- narwhale.io -->
<g id="node47" class="node">
<title>narwhale.io</title>
<path fill="#90caf9" stroke="#90caf9" d="M2147.5,-1200C2147.5,-1200 2073.5,-1200 2073.5,-1200 2067.5,-1200 2061.5,-1194 2061.5,-1188 2061.5,-1188 2061.5,-1174 2061.5,-1174 2061.5,-1168 2067.5,-1162 2073.5,-1162 2073.5,-1162 2147.5,-1162 2147.5,-1162 2153.5,-1162 2159.5,-1168 2159.5,-1174 2159.5,-1174 2159.5,-1188 2159.5,-1188 2159.5,-1194 2153.5,-1200 2147.5,-1200"/>
<text text-anchor="middle" x="2110.5" y="-1184.8" font-family="Times,serif" font-size="14.00">narwhale.io</text>
<text text-anchor="middle" x="2110.5" y="-1169.8" font-family="Times,serif" font-size="14.00">Hsi&#45;Hung Shih</text>
</g>
<!-- pikes.io -->
<g id="node66" class="node">
<title>pikes.io</title>
<path fill="#90caf9" stroke="#90caf9" d="M2146,-963C2146,-963 2075,-963 2075,-963 2069,-963 2063,-957 2063,-951 2063,-951 2063,-937 2063,-937 2063,-931 2069,-925 2075,-925 2075,-925 2146,-925 2146,-925 2152,-925 2158,-931 2158,-937 2158,-937 2158,-951 2158,-951 2158,-957 2152,-963 2146,-963"/>
<text text-anchor="middle" x="2110.5" y="-947.8" font-family="Times,serif" font-size="14.00">pikes.io</text>
<text text-anchor="middle" x="2110.5" y="-932.8" font-family="Times,serif" font-size="14.00">Clown Games</text>
</g>
<!-- narwhale.io&#45;&gt;pikes.io -->
<g id="edge71" class="edge">
<title>narwhale.io&#45;&gt;pikes.io</title>
<path fill="none" stroke="black" d="M2110.5,-1161.95C2110.5,-1121.28 2110.5,-1022.23 2110.5,-973.31"/>
<polygon fill="black" stroke="black" points="2114,-973.11 2110.5,-963.11 2107,-973.11 2114,-973.11"/>
</g>
<!-- splix.io -->
<g id="node48" class="node">
<title>splix.io</title>
<path fill="#90caf9" stroke="#90caf9" d="M1953,-1200C1953,-1200 1920,-1200 1920,-1200 1914,-1200 1908,-1194 1908,-1188 1908,-1188 1908,-1174 1908,-1174 1908,-1168 1914,-1162 1920,-1162 1920,-1162 1953,-1162 1953,-1162 1959,-1162 1965,-1168 1965,-1174 1965,-1174 1965,-1188 1965,-1188 1965,-1194 1959,-1200 1953,-1200"/>
<text text-anchor="middle" x="1936.5" y="-1184.8" font-family="Times,serif" font-size="14.00">splix.io</text>
<text text-anchor="middle" x="1936.5" y="-1169.8" font-family="Times,serif" font-size="14.00">Jesper</text>
</g>
<!-- splix.io&#45;&gt;paper.io -->
<g id="edge60" class="edge">
<title>splix.io&#45;&gt;paper.io</title>
<path fill="none" stroke="black" d="M1965.07,-1181C1967.72,-1181 1970.37,-1181 1973.02,-1181"/>
<polygon fill="black" stroke="black" points="1973.23,-1184.5 1983.23,-1181 1973.23,-1177.5 1973.23,-1184.5"/>
</g>
<!-- hexar.io -->
<g id="node56" class="node">
<title>hexar.io</title>
<path fill="#90caf9" stroke="#90caf9" d="M1954.5,-1036C1954.5,-1036 1918.5,-1036 1918.5,-1036 1912.5,-1036 1906.5,-1030 1906.5,-1024 1906.5,-1024 1906.5,-1012 1906.5,-1012 1906.5,-1006 1912.5,-1000 1918.5,-1000 1918.5,-1000 1954.5,-1000 1954.5,-1000 1960.5,-1000 1966.5,-1006 1966.5,-1012 1966.5,-1012 1966.5,-1024 1966.5,-1024 1966.5,-1030 1960.5,-1036 1954.5,-1036"/>
<text text-anchor="middle" x="1936.5" y="-1014.3" font-family="Times,serif" font-size="14.00">hexar.io</text>
</g>
<!-- splix.io&#45;&gt;hexar.io -->
<g id="edge61" class="edge">
<title>splix.io&#45;&gt;hexar.io</title>
<path fill="none" stroke="black" d="M1936.5,-1161.84C1936.5,-1133.77 1936.5,-1079.62 1936.5,-1046.66"/>
<polygon fill="black" stroke="black" points="1940,-1046.36 1936.5,-1036.36 1933,-1046.36 1940,-1046.36"/>
</g>
<!-- drawthis2.io -->
<g id="node84" class="node">
<title>drawthis2.io</title>
<path fill="#90caf9" stroke="#90caf9" d="M237.5,-637C237.5,-637 177.5,-637 177.5,-637 171.5,-637 165.5,-631 165.5,-625 165.5,-625 165.5,-611 165.5,-611 165.5,-605 171.5,-599 177.5,-599 177.5,-599 237.5,-599 237.5,-599 243.5,-599 249.5,-605 249.5,-611 249.5,-611 249.5,-625 249.5,-625 249.5,-631 243.5,-637 237.5,-637"/>
<text text-anchor="middle" x="207.5" y="-621.8" font-family="Times,serif" font-size="14.00">drawthis2.io</text>
<text text-anchor="middle" x="207.5" y="-606.8" font-family="Times,serif" font-size="14.00">lagged.com</text>
</g>
<!-- drawthis.io&#45;&gt;drawthis2.io -->
<g id="edge68" class="edge">
<title>drawthis.io&#45;&gt;drawthis2.io</title>
<path fill="none" stroke="black" d="M207.5,-1162.61C207.5,-1133.08 207.5,-1071.27 207.5,-1019 207.5,-1019 207.5,-1019 207.5,-772.5 207.5,-728.88 207.5,-678.28 207.5,-647.46"/>
<polygon fill="black" stroke="black" points="211,-647.43 207.5,-637.43 204,-647.43 211,-647.43"/>
</g>
<!-- bonk.io -->
<g id="node50" class="node">
<title>bonk.io</title>
<path fill="#90caf9" stroke="#90caf9" d="M2223.5,-1200C2223.5,-1200 2189.5,-1200 2189.5,-1200 2183.5,-1200 2177.5,-1194 2177.5,-1188 2177.5,-1188 2177.5,-1174 2177.5,-1174 2177.5,-1168 2183.5,-1162 2189.5,-1162 2189.5,-1162 2223.5,-1162 2223.5,-1162 2229.5,-1162 2235.5,-1168 2235.5,-1174 2235.5,-1174 2235.5,-1188 2235.5,-1188 2235.5,-1194 2229.5,-1200 2223.5,-1200"/>
<text text-anchor="middle" x="2206.5" y="-1184.8" font-family="Times,serif" font-size="14.00">bonk.io</text>
<text text-anchor="middle" x="2206.5" y="-1169.8" font-family="Times,serif" font-size="14.00">Chaz</text>
</g>
<!-- bonk2.io -->
<g id="node90" class="node">
<title>bonk2.io</title>
<path fill="#90caf9" stroke="#90caf9" d="M2227,-112C2227,-112 2186,-112 2186,-112 2180,-112 2174,-106 2174,-100 2174,-100 2174,-86 2174,-86 2174,-80 2180,-74 2186,-74 2186,-74 2227,-74 2227,-74 2233,-74 2239,-80 2239,-86 2239,-86 2239,-100 2239,-100 2239,-106 2233,-112 2227,-112"/>
<text text-anchor="middle" x="2206.5" y="-96.8" font-family="Times,serif" font-size="14.00">bonk2.io</text>
<text text-anchor="middle" x="2206.5" y="-81.8" font-family="Times,serif" font-size="14.00">Chaz</text>
</g>
<!-- bonk.io&#45;&gt;bonk2.io -->
<g id="edge58" class="edge">
<title>bonk.io&#45;&gt;bonk2.io</title>
<path fill="none" stroke="black" d="M2206.5,-1161.65C2206.5,-1131.76 2206.5,-1070.71 2206.5,-1019 2206.5,-1019 2206.5,-1019 2206.5,-237 2206.5,-197.15 2206.5,-151.06 2206.5,-122.22"/>
<polygon fill="black" stroke="black" points="2210,-122.06 2206.5,-112.06 2203,-122.06 2210,-122.06"/>
</g>
<!-- hordes.io -->
<g id="node51" class="node">
<title>hordes.io</title>
<path fill="#90caf9" stroke="#90caf9" d="M2309,-1200C2309,-1200 2266,-1200 2266,-1200 2260,-1200 2254,-1194 2254,-1188 2254,-1188 2254,-1174 2254,-1174 2254,-1168 2260,-1162 2266,-1162 2266,-1162 2309,-1162 2309,-1162 2315,-1162 2321,-1168 2321,-1174 2321,-1174 2321,-1188 2321,-1188 2321,-1194 2315,-1200 2309,-1200"/>
<text text-anchor="middle" x="2287.5" y="-1184.8" font-family="Times,serif" font-size="14.00">hordes.io</text>
<text text-anchor="middle" x="2287.5" y="-1169.8" font-family="Times,serif" font-size="14.00">dek</text>
</g>
<!-- krew.io -->
<g id="node52" class="node">
<title>krew.io</title>
<path fill="#90caf9" stroke="#90caf9" d="M2288.5,-1126C2288.5,-1126 2246.5,-1126 2246.5,-1126 2240.5,-1126 2234.5,-1120 2234.5,-1114 2234.5,-1114 2234.5,-1085 2234.5,-1085 2234.5,-1079 2240.5,-1073 2246.5,-1073 2246.5,-1073 2288.5,-1073 2288.5,-1073 2294.5,-1073 2300.5,-1079 2300.5,-1085 2300.5,-1085 2300.5,-1114 2300.5,-1114 2300.5,-1120 2294.5,-1126 2288.5,-1126"/>
<text text-anchor="middle" x="2267.5" y="-1110.8" font-family="Times,serif" font-size="14.00">krew.io</text>
<text text-anchor="middle" x="2267.5" y="-1095.8" font-family="Times,serif" font-size="14.00">M0dE &amp;</text>
<text text-anchor="middle" x="2267.5" y="-1080.8" font-family="Times,serif" font-size="14.00"> dek</text>
</g>
<!-- microgravity.io -->
<g id="node86" class="node">
<title>microgravity.io</title>
<path fill="#90caf9" stroke="#90caf9" d="M1063.5,-563C1063.5,-563 979.5,-563 979.5,-563 973.5,-563 967.5,-557 967.5,-551 967.5,-551 967.5,-522 967.5,-522 967.5,-516 973.5,-510 979.5,-510 979.5,-510 1063.5,-510 1063.5,-510 1069.5,-510 1075.5,-516 1075.5,-522 1075.5,-522 1075.5,-551 1075.5,-551 1075.5,-557 1069.5,-563 1063.5,-563"/>
<text text-anchor="middle" x="1021.5" y="-547.8" font-family="Times,serif" font-size="14.00">microgravity.io</text>
<text text-anchor="middle" x="1021.5" y="-532.8" font-family="Times,serif" font-size="14.00">Nathan Flurry &amp;</text>
<text text-anchor="middle" x="1021.5" y="-517.8" font-family="Times,serif" font-size="14.00">Nicholas Kissel</text>
</g>
<!-- starblast.io&#45;&gt;microgravity.io -->
<g id="edge76" class="edge">
<title>starblast.io&#45;&gt;microgravity.io</title>
<path fill="none" stroke="black" d="M1021.5,-1080.07C1021.5,-1051.25 1021.5,-993.77 1021.5,-945 1021.5,-945 1021.5,-945 1021.5,-691 1021.5,-650.71 1021.5,-604.48 1021.5,-573.37"/>
<polygon fill="black" stroke="black" points="1025,-573.03 1021.5,-563.03 1018,-573.03 1025,-573.03"/>
</g>
<!-- oib.io -->
<g id="node54" class="node">
<title>oib.io</title>
<path fill="#90caf9" stroke="#90caf9" d="M1876.5,-1037C1876.5,-1037 1818.5,-1037 1818.5,-1037 1812.5,-1037 1806.5,-1031 1806.5,-1025 1806.5,-1025 1806.5,-1011 1806.5,-1011 1806.5,-1005 1812.5,-999 1818.5,-999 1818.5,-999 1876.5,-999 1876.5,-999 1882.5,-999 1888.5,-1005 1888.5,-1011 1888.5,-1011 1888.5,-1025 1888.5,-1025 1888.5,-1031 1882.5,-1037 1876.5,-1037"/>
<text text-anchor="middle" x="1847.5" y="-1021.8" font-family="Times,serif" font-size="14.00">oib.io</text>
<text text-anchor="middle" x="1847.5" y="-1006.8" font-family="Times,serif" font-size="14.00">LapaMauve</text>
</g>
<!-- oib.io&#45;&gt;wanderers.io -->
<g id="edge49" class="edge">
<title>oib.io&#45;&gt;wanderers.io</title>
<path fill="none" stroke="black" d="M1844.87,-998.77C1838.81,-956.8 1823.84,-853.09 1816.58,-802.77"/>
<polygon fill="black" stroke="black" points="1820.01,-802.01 1815.11,-792.61 1813.08,-803.01 1820.01,-802.01"/>
</g>
<!-- brutal.io -->
<g id="node55" class="node">
<title>brutal.io</title>
<path fill="#90caf9" stroke="#90caf9" d="M2324,-1037C2324,-1037 2247,-1037 2247,-1037 2241,-1037 2235,-1031 2235,-1025 2235,-1025 2235,-1011 2235,-1011 2235,-1005 2241,-999 2247,-999 2247,-999 2324,-999 2324,-999 2330,-999 2336,-1005 2336,-1011 2336,-1011 2336,-1025 2336,-1025 2336,-1031 2330,-1037 2324,-1037"/>
<text text-anchor="middle" x="2285.5" y="-1021.8" font-family="Times,serif" font-size="14.00">brutal.io</text>
<text text-anchor="middle" x="2285.5" y="-1006.8" font-family="Times,serif" font-size="14.00">Andre Almeida</text>
</g>
<!-- superhex.io -->
<g id="node67" class="node">
<title>superhex.io</title>
<path fill="#90caf9" stroke="#90caf9" d="M1964.5,-962C1964.5,-962 1908.5,-962 1908.5,-962 1902.5,-962 1896.5,-956 1896.5,-950 1896.5,-950 1896.5,-938 1896.5,-938 1896.5,-932 1902.5,-926 1908.5,-926 1908.5,-926 1964.5,-926 1964.5,-926 1970.5,-926 1976.5,-932 1976.5,-938 1976.5,-938 1976.5,-950 1976.5,-950 1976.5,-956 1970.5,-962 1964.5,-962"/>
<text text-anchor="middle" x="1936.5" y="-940.3" font-family="Times,serif" font-size="14.00">superhex.io</text>
</g>
<!-- hexar.io&#45;&gt;superhex.io -->
<g id="edge62" class="edge">
<title>hexar.io&#45;&gt;superhex.io</title>
<path fill="none" stroke="black" d="M1936.5,-999.94C1936.5,-991.81 1936.5,-981.88 1936.5,-972.7"/>
<polygon fill="black" stroke="black" points="1940,-972.44 1936.5,-962.44 1933,-972.44 1940,-972.44"/>
</g>
<!-- starve.io -->
<g id="node59" class="node">
<title>starve.io</title>
<path fill="#90caf9" stroke="#90caf9" d="M849.5,-1037C849.5,-1037 791.5,-1037 791.5,-1037 785.5,-1037 779.5,-1031 779.5,-1025 779.5,-1025 779.5,-1011 779.5,-1011 779.5,-1005 785.5,-999 791.5,-999 791.5,-999 849.5,-999 849.5,-999 855.5,-999 861.5,-1005 861.5,-1011 861.5,-1011 861.5,-1025 861.5,-1025 861.5,-1031 855.5,-1037 849.5,-1037"/>
<text text-anchor="middle" x="820.5" y="-1021.8" font-family="Times,serif" font-size="14.00">starve.io</text>
<text text-anchor="middle" x="820.5" y="-1006.8" font-family="Times,serif" font-size="14.00">LapaMauve</text>
</g>
<!-- moomoo.io&#45;&gt;starve.io -->
<g id="edge42" class="edge">
<title>moomoo.io&#45;&gt;starve.io</title>
<path fill="none" stroke="black" d="M498.09,-1036.11C522.86,-1043.56 552.85,-1051.31 580.5,-1055 618.83,-1060.12 629.11,-1059.58 667.5,-1055 702.12,-1050.87 740.23,-1041.67 769.76,-1033.48"/>
<polygon fill="black" stroke="black" points="770.75,-1036.83 779.42,-1030.74 768.85,-1030.1 770.75,-1036.83"/>
</g>
<!-- zombs.io -->
<g id="node62" class="node">
<title>zombs.io</title>
<path fill="#90caf9" stroke="#90caf9" d="M535.5,-963C535.5,-963 491.5,-963 491.5,-963 485.5,-963 479.5,-957 479.5,-951 479.5,-951 479.5,-937 479.5,-937 479.5,-931 485.5,-925 491.5,-925 491.5,-925 535.5,-925 535.5,-925 541.5,-925 547.5,-931 547.5,-937 547.5,-937 547.5,-951 547.5,-951 547.5,-957 541.5,-963 535.5,-963"/>
<text text-anchor="middle" x="513.5" y="-947.8" font-family="Times,serif" font-size="14.00">zombs.io</text>
<text text-anchor="middle" x="513.5" y="-932.8" font-family="Times,serif" font-size="14.00">Yang Lui</text>
</g>
<!-- moomoo.io&#45;&gt;zombs.io -->
<g id="edge45" class="edge">
<title>moomoo.io&#45;&gt;zombs.io</title>
<path fill="none" stroke="black" d="M461.91,-998.83C470.02,-990.37 479.82,-980.15 488.68,-970.9"/>
<polygon fill="black" stroke="black" points="491.46,-973.05 495.85,-963.41 486.41,-968.21 491.46,-973.05"/>
</g>
<!-- foes.io -->
<g id="node69" class="node">
<title>foes.io</title>
<path fill="#90caf9" stroke="#90caf9" d="M331,-881.5C331,-881.5 248,-881.5 248,-881.5 242,-881.5 236,-875.5 236,-869.5 236,-869.5 236,-855.5 236,-855.5 236,-849.5 242,-843.5 248,-843.5 248,-843.5 331,-843.5 331,-843.5 337,-843.5 343,-849.5 343,-855.5 343,-855.5 343,-869.5 343,-869.5 343,-875.5 337,-881.5 331,-881.5"/>
<text text-anchor="middle" x="289.5" y="-866.3" font-family="Times,serif" font-size="14.00">foes.io</text>
<text text-anchor="middle" x="289.5" y="-851.3" font-family="Times,serif" font-size="14.00">Sydney de Vries</text>
</g>
<!-- moomoo.io&#45;&gt;foes.io -->
<g id="edge39" class="edge">
<title>moomoo.io&#45;&gt;foes.io</title>
<path fill="none" stroke="black" d="M407.84,-998.76C391.33,-989.47 372.27,-977.13 357.5,-963 335.25,-941.7 316.1,-912 303.85,-890.6"/>
<polygon fill="black" stroke="black" points="306.8,-888.72 298.87,-881.69 300.69,-892.13 306.8,-888.72"/>
</g>
<!-- doomed.io -->
<g id="node72" class="node">
<title>doomed.io</title>
<path fill="#90caf9" stroke="#90caf9" d="M397,-792.5C397,-792.5 346,-792.5 346,-792.5 340,-792.5 334,-786.5 334,-780.5 334,-780.5 334,-766.5 334,-766.5 334,-760.5 340,-754.5 346,-754.5 346,-754.5 397,-754.5 397,-754.5 403,-754.5 409,-760.5 409,-766.5 409,-766.5 409,-780.5 409,-780.5 409,-786.5 403,-792.5 397,-792.5"/>
<text text-anchor="middle" x="371.5" y="-777.3" font-family="Times,serif" font-size="14.00">doomed.io</text>
<text text-anchor="middle" x="371.5" y="-762.3" font-family="Times,serif" font-size="14.00">Ginoda</text>
</g>
<!-- moomoo.io&#45;&gt;doomed.io -->
<g id="edge40" class="edge">
<title>moomoo.io&#45;&gt;doomed.io</title>
<path fill="none" stroke="black" d="M435.23,-998.84C423.16,-974.47 402.24,-929.54 390.5,-889 382.14,-860.13 377.07,-826.03 374.3,-802.6"/>
<polygon fill="black" stroke="black" points="377.77,-802.19 373.18,-792.64 370.82,-802.97 377.77,-802.19"/>
</g>
<!-- surviv.io -->
<g id="node96" class="node">
<title>surviv.io</title>
<path fill="#fadc91" stroke="#fadc91" d="M479.5,-889C479.5,-889 411.5,-889 411.5,-889 405.5,-889 399.5,-883 399.5,-877 399.5,-877 399.5,-848 399.5,-848 399.5,-842 405.5,-836 411.5,-836 411.5,-836 479.5,-836 479.5,-836 485.5,-836 491.5,-842 491.5,-848 491.5,-848 491.5,-877 491.5,-877 491.5,-883 485.5,-889 479.5,-889"/>
<text text-anchor="middle" x="445.5" y="-873.8" font-family="Times,serif" font-size="14.00">surviv.io</text>
<text text-anchor="middle" x="445.5" y="-858.8" font-family="Times,serif" font-size="14.00">Justin Kim &amp;</text>
<text text-anchor="middle" x="445.5" y="-843.8" font-family="Times,serif" font-size="14.00"> Nick Clark</text>
</g>
<!-- moomoo.io&#45;&gt;surviv.io -->
<g id="edge44" class="edge">
<title>moomoo.io&#45;&gt;surviv.io</title>
<path fill="none" stroke="black" d="M444.62,-998.79C444.78,-974.32 445.06,-930.29 445.27,-899.12"/>
<polygon fill="black" stroke="black" points="448.77,-899.11 445.33,-889.09 441.77,-899.06 448.77,-899.11"/>
</g>
<!-- devast.io -->
<g id="node87" class="node">
<title>devast.io</title>
<path fill="#90caf9" stroke="#90caf9" d="M937.5,-555.5C937.5,-555.5 879.5,-555.5 879.5,-555.5 873.5,-555.5 867.5,-549.5 867.5,-543.5 867.5,-543.5 867.5,-529.5 867.5,-529.5 867.5,-523.5 873.5,-517.5 879.5,-517.5 879.5,-517.5 937.5,-517.5 937.5,-517.5 943.5,-517.5 949.5,-523.5 949.5,-529.5 949.5,-529.5 949.5,-543.5 949.5,-543.5 949.5,-549.5 943.5,-555.5 937.5,-555.5"/>
<text text-anchor="middle" x="908.5" y="-540.3" font-family="Times,serif" font-size="14.00">devast.io</text>
<text text-anchor="middle" x="908.5" y="-525.3" font-family="Times,serif" font-size="14.00">LapaMauve</text>
</g>
<!-- starve.io&#45;&gt;devast.io -->
<g id="edge43" class="edge">
<title>starve.io&#45;&gt;devast.io</title>
<path fill="none" stroke="black" d="M852.13,-998.88C865.32,-989.76 879.61,-977.53 888.5,-963 912.04,-924.52 908.5,-908.61 908.5,-863.5 908.5,-863.5 908.5,-863.5 908.5,-691 908.5,-647.38 908.5,-596.78 908.5,-565.96"/>
<polygon fill="black" stroke="black" points="912,-565.93 908.5,-555.93 905,-565.93 912,-565.93"/>
</g>
<!-- stabby.io -->
<g id="node61" class="node">
<title>stabby.io</title>
<path fill="#90caf9" stroke="#90caf9" d="M2296,-963C2296,-963 2247,-963 2247,-963 2241,-963 2235,-957 2235,-951 2235,-951 2235,-937 2235,-937 2235,-931 2241,-925 2247,-925 2247,-925 2296,-925 2296,-925 2302,-925 2308,-931 2308,-937 2308,-937 2308,-951 2308,-951 2308,-957 2302,-963 2296,-963"/>
<text text-anchor="middle" x="2271.5" y="-947.8" font-family="Times,serif" font-size="14.00">stabby.io</text>
<text text-anchor="middle" x="2271.5" y="-932.8" font-family="Times,serif" font-size="14.00">SoulFoam</text>
</g>
<!-- zombsroyale.io -->
<g id="node98" class="node">
<title>zombsroyale.io</title>
<path fill="#fadc91" stroke="#fadc91" d="M558,-711C558,-711 481,-711 481,-711 475,-711 469,-705 469,-699 469,-699 469,-685 469,-685 469,-679 475,-673 481,-673 481,-673 558,-673 558,-673 564,-673 570,-679 570,-685 570,-685 570,-699 570,-699 570,-705 564,-711 558,-711"/>
<text text-anchor="middle" x="519.5" y="-695.8" font-family="Times,serif" font-size="14.00">zombsroyale.io</text>
<text text-anchor="middle" x="519.5" y="-680.8" font-family="Times,serif" font-size="14.00">Yang Lui</text>
</g>
<!-- zombs.io&#45;&gt;zombsroyale.io -->
<g id="edge46" class="edge">
<title>zombs.io&#45;&gt;zombsroyale.io</title>
<path fill="none" stroke="black" d="M513.94,-924.62C514.98,-881.35 517.58,-772.85 518.82,-721.19"/>
<polygon fill="black" stroke="black" points="522.33,-721.15 519.07,-711.07 515.33,-720.99 522.33,-721.15"/>
</g>
<!-- superspin.io -->
<g id="node64" class="node">
<title>superspin.io</title>
<path fill="#90caf9" stroke="#90caf9" d="M868,-963C868,-963 809,-963 809,-963 803,-963 797,-957 797,-951 797,-951 797,-937 797,-937 797,-931 803,-925 809,-925 809,-925 868,-925 868,-925 874,-925 880,-931 880,-937 880,-937 880,-951 880,-951 880,-957 874,-963 868,-963"/>
<text text-anchor="middle" x="838.5" y="-947.8" font-family="Times,serif" font-size="14.00">superspin.io</text>
<text text-anchor="middle" x="838.5" y="-932.8" font-family="Times,serif" font-size="14.00">Jetti Games</text>
</g>
<!-- spinz.io&#45;&gt;superspin.io -->
<g id="edge52" class="edge">
<title>spinz.io&#45;&gt;superspin.io</title>
<path fill="none" stroke="black" d="M652.11,-963.15C661.07,-970.2 672.1,-977.36 683.5,-981 723.72,-993.85 737.88,-992.52 778.5,-981 787.94,-978.32 797.35,-973.7 805.82,-968.6"/>
<polygon fill="black" stroke="black" points="807.74,-971.53 814.28,-963.19 803.97,-965.63 807.74,-971.53"/>
</g>
<!-- fisp.io -->
<g id="node65" class="node">
<title>fisp.io</title>
<path fill="#90caf9" stroke="#90caf9" d="M767,-963C767,-963 696,-963 696,-963 690,-963 684,-957 684,-951 684,-951 684,-937 684,-937 684,-931 690,-925 696,-925 696,-925 767,-925 767,-925 773,-925 779,-931 779,-937 779,-937 779,-951 779,-951 779,-957 773,-963 767,-963"/>
<text text-anchor="middle" x="731.5" y="-947.8" font-family="Times,serif" font-size="14.00">fisp.io</text>
<text text-anchor="middle" x="731.5" y="-932.8" font-family="Times,serif" font-size="14.00">Clown Games</text>
</g>
<!-- spinz.io&#45;&gt;fisp.io -->
<g id="edge51" class="edge">
<title>spinz.io&#45;&gt;fisp.io</title>
<path fill="none" stroke="black" d="M665.88,-944C668.49,-944 671.11,-944 673.73,-944"/>
<polygon fill="black" stroke="black" points="673.82,-947.5 683.82,-944 673.82,-940.5 673.82,-947.5"/>
</g>
<!-- goons.io -->
<g id="node68" class="node">
<title>goons.io</title>
<path fill="#90caf9" stroke="#90caf9" d="M2146,-881.5C2146,-881.5 2075,-881.5 2075,-881.5 2069,-881.5 2063,-875.5 2063,-869.5 2063,-869.5 2063,-855.5 2063,-855.5 2063,-849.5 2069,-843.5 2075,-843.5 2075,-843.5 2146,-843.5 2146,-843.5 2152,-843.5 2158,-849.5 2158,-855.5 2158,-855.5 2158,-869.5 2158,-869.5 2158,-875.5 2152,-881.5 2146,-881.5"/>
<text text-anchor="middle" x="2110.5" y="-866.3" font-family="Times,serif" font-size="14.00">goons.io</text>
<text text-anchor="middle" x="2110.5" y="-851.3" font-family="Times,serif" font-size="14.00">Clown Games</text>
</g>
<!-- pikes.io&#45;&gt;goons.io -->
<g id="edge72" class="edge">
<title>pikes.io&#45;&gt;goons.io</title>
<path fill="none" stroke="black" d="M2110.5,-924.96C2110.5,-915.17 2110.5,-902.85 2110.5,-891.81"/>
<polygon fill="black" stroke="black" points="2114,-891.74 2110.5,-881.74 2107,-891.74 2114,-891.74"/>
</g>
<!-- knuckol.club -->
<g id="node79" class="node">
<title>knuckol.club</title>
<path fill="#90caf9" stroke="#90caf9" d="M2142,-711C2142,-711 2079,-711 2079,-711 2073,-711 2067,-705 2067,-699 2067,-699 2067,-685 2067,-685 2067,-679 2073,-673 2079,-673 2079,-673 2142,-673 2142,-673 2148,-673 2154,-679 2154,-685 2154,-685 2154,-699 2154,-699 2154,-705 2148,-711 2142,-711"/>
<text text-anchor="middle" x="2110.5" y="-695.8" font-family="Times,serif" font-size="14.00">knuckol.club</text>
<text text-anchor="middle" x="2110.5" y="-680.8" font-family="Times,serif" font-size="14.00">Erigato</text>
</g>
<!-- goons.io&#45;&gt;knuckol.club -->
<g id="edge73" class="edge">
<title>goons.io&#45;&gt;knuckol.club</title>
<path fill="none" stroke="black" d="M2110.5,-843.47C2110.5,-814.28 2110.5,-756.45 2110.5,-721.6"/>
<polygon fill="black" stroke="black" points="2114,-721.16 2110.5,-711.16 2107,-721.16 2114,-721.16"/>
</g>
<!-- shootem.io -->
<g id="node78" class="node">
<title>shootem.io</title>
<path fill="#90caf9" stroke="#90caf9" d="M1161.5,-711C1161.5,-711 1061.5,-711 1061.5,-711 1055.5,-711 1049.5,-705 1049.5,-699 1049.5,-699 1049.5,-685 1049.5,-685 1049.5,-679 1055.5,-673 1061.5,-673 1061.5,-673 1161.5,-673 1161.5,-673 1167.5,-673 1173.5,-679 1173.5,-685 1173.5,-685 1173.5,-699 1173.5,-699 1173.5,-705 1167.5,-711 1161.5,-711"/>
<text text-anchor="middle" x="1111.5" y="-695.8" font-family="Times,serif" font-size="14.00">shootem.io</text>
<text text-anchor="middle" x="1111.5" y="-680.8" font-family="Times,serif" font-size="14.00">Mathew Matakovic</text>
</g>
<!-- nightpoint.io&#45;&gt;shootem.io -->
<g id="edge34" class="edge">
<title>nightpoint.io&#45;&gt;shootem.io</title>
<path fill="none" stroke="black" d="M1164.9,-843.45C1152.88,-832.2 1138.72,-816.71 1130.5,-800 1118.33,-775.27 1113.87,-743.92 1112.27,-721.56"/>
<polygon fill="black" stroke="black" points="1115.75,-721.16 1111.7,-711.37 1108.77,-721.55 1115.75,-721.16"/>
</g>
<!-- bruh.io -->
<g id="node97" class="node">
<title>bruh.io</title>
<path fill="#fadc91" stroke="#fadc91" d="M1221,-792.5C1221,-792.5 1152,-792.5 1152,-792.5 1146,-792.5 1140,-786.5 1140,-780.5 1140,-780.5 1140,-766.5 1140,-766.5 1140,-760.5 1146,-754.5 1152,-754.5 1152,-754.5 1221,-754.5 1221,-754.5 1227,-754.5 1233,-760.5 1233,-766.5 1233,-766.5 1233,-780.5 1233,-780.5 1233,-786.5 1227,-792.5 1221,-792.5"/>
<text text-anchor="middle" x="1186.5" y="-777.3" font-family="Times,serif" font-size="14.00">bruh.io</text>
<text text-anchor="middle" x="1186.5" y="-762.3" font-family="Times,serif" font-size="14.00">Bitfox Games</text>
</g>
<!-- nightpoint.io&#45;&gt;bruh.io -->
<g id="edge33" class="edge">
<title>nightpoint.io&#45;&gt;bruh.io</title>
<path fill="none" stroke="black" d="M1186.5,-843.47C1186.5,-831.69 1186.5,-816.06 1186.5,-802.66"/>
<polygon fill="black" stroke="black" points="1190,-802.5 1186.5,-792.5 1183,-802.5 1190,-802.5"/>
</g>
<!-- battlepoint.io -->
<g id="node100" class="node">
<title>battlepoint.io</title>
<path fill="#fadc91" stroke="#fadc91" d="M1270,-555.5C1270,-555.5 1205,-555.5 1205,-555.5 1199,-555.5 1193,-549.5 1193,-543.5 1193,-543.5 1193,-529.5 1193,-529.5 1193,-523.5 1199,-517.5 1205,-517.5 1205,-517.5 1270,-517.5 1270,-517.5 1276,-517.5 1282,-523.5 1282,-529.5 1282,-529.5 1282,-543.5 1282,-543.5 1282,-549.5 1276,-555.5 1270,-555.5"/>
<text text-anchor="middle" x="1237.5" y="-540.3" font-family="Times,serif" font-size="14.00">battlepoint.io</text>
<text text-anchor="middle" x="1237.5" y="-525.3" font-family="Times,serif" font-size="14.00">Sarunas</text>
</g>
<!-- nightpoint.io&#45;&gt;battlepoint.io -->
<g id="edge32" class="edge">
<title>nightpoint.io&#45;&gt;battlepoint.io</title>
<path fill="none" stroke="black" d="M1209.38,-843.34C1221.42,-832.26 1235.01,-816.99 1241.5,-800 1272.18,-719.67 1255.47,-615.18 1244.55,-565.76"/>
<polygon fill="black" stroke="black" points="1247.92,-564.77 1242.27,-555.8 1241.09,-566.33 1247.92,-564.77"/>
</g>
<!-- doomed2.io -->
<g id="node81" class="node">
<title>doomed2.io</title>
<path fill="#90caf9" stroke="#90caf9" d="M400.5,-711C400.5,-711 342.5,-711 342.5,-711 336.5,-711 330.5,-705 330.5,-699 330.5,-699 330.5,-685 330.5,-685 330.5,-679 336.5,-673 342.5,-673 342.5,-673 400.5,-673 400.5,-673 406.5,-673 412.5,-679 412.5,-685 412.5,-685 412.5,-699 412.5,-699 412.5,-705 406.5,-711 400.5,-711"/>
<text text-anchor="middle" x="371.5" y="-695.8" font-family="Times,serif" font-size="14.00">doomed2.io</text>
<text text-anchor="middle" x="371.5" y="-680.8" font-family="Times,serif" font-size="14.00">Ginoda</text>
</g>
<!-- doomed.io&#45;&gt;doomed2.io -->
<g id="edge41" class="edge">
<title>doomed.io&#45;&gt;doomed2.io</title>
<path fill="none" stroke="black" d="M371.5,-754.46C371.5,-744.67 371.5,-732.35 371.5,-721.31"/>
<polygon fill="black" stroke="black" points="375,-721.24 371.5,-711.24 368,-721.24 375,-721.24"/>
</g>
<!-- shellshock.io -->
<g id="node74" class="node">
<title>shellshock.io</title>
<path fill="#90caf9" stroke="#90caf9" d="M2315.5,-791.5C2315.5,-791.5 2251.5,-791.5 2251.5,-791.5 2245.5,-791.5 2239.5,-785.5 2239.5,-779.5 2239.5,-779.5 2239.5,-767.5 2239.5,-767.5 2239.5,-761.5 2245.5,-755.5 2251.5,-755.5 2251.5,-755.5 2315.5,-755.5 2315.5,-755.5 2321.5,-755.5 2327.5,-761.5 2327.5,-767.5 2327.5,-767.5 2327.5,-779.5 2327.5,-779.5 2327.5,-785.5 2321.5,-791.5 2315.5,-791.5"/>
<text text-anchor="middle" x="2283.5" y="-769.8" font-family="Times,serif" font-size="14.00">shellshock.io</text>
</g>
<!-- krunker.io -->
<g id="node85" class="node">
<title>krunker.io</title>
<path fill="#90caf9" stroke="#90caf9" d="M2330,-637C2330,-637 2247,-637 2247,-637 2241,-637 2235,-631 2235,-625 2235,-625 2235,-611 2235,-611 2235,-605 2241,-599 2247,-599 2247,-599 2330,-599 2330,-599 2336,-599 2342,-605 2342,-611 2342,-611 2342,-625 2342,-625 2342,-631 2336,-637 2330,-637"/>
<text text-anchor="middle" x="2288.5" y="-621.8" font-family="Times,serif" font-size="14.00">krunker.io</text>
<text text-anchor="middle" x="2288.5" y="-606.8" font-family="Times,serif" font-size="14.00">Sydney de Vries</text>
</g>
<!-- shellshock.io&#45;&gt;krunker.io -->
<g id="edge64" class="edge">
<title>shellshock.io&#45;&gt;krunker.io</title>
<path fill="none" stroke="black" d="M2284.05,-755.49C2284.9,-729.37 2286.54,-679.11 2287.57,-647.41"/>
<polygon fill="black" stroke="black" points="2291.08,-647.15 2287.91,-637.04 2284.09,-646.92 2291.08,-647.15"/>
</g>
<!-- warscrap.io -->
<g id="node75" class="node">
<title>warscrap.io</title>
<path fill="#90caf9" stroke="#90caf9" d="M2413.5,-792.5C2413.5,-792.5 2357.5,-792.5 2357.5,-792.5 2351.5,-792.5 2345.5,-786.5 2345.5,-780.5 2345.5,-780.5 2345.5,-766.5 2345.5,-766.5 2345.5,-760.5 2351.5,-754.5 2357.5,-754.5 2357.5,-754.5 2413.5,-754.5 2413.5,-754.5 2419.5,-754.5 2425.5,-760.5 2425.5,-766.5 2425.5,-766.5 2425.5,-780.5 2425.5,-780.5 2425.5,-786.5 2419.5,-792.5 2413.5,-792.5"/>
<text text-anchor="middle" x="2385.5" y="-777.3" font-family="Times,serif" font-size="14.00">warscrap.io</text>
<text text-anchor="middle" x="2385.5" y="-762.3" font-family="Times,serif" font-size="14.00">Evil Noob</text>
</g>
<!-- warscrap.io&#45;&gt;krunker.io -->
<g id="edge63" class="edge">
<title>warscrap.io&#45;&gt;krunker.io</title>
<path fill="none" stroke="black" d="M2373.99,-754.29C2357,-727.4 2325.1,-676.91 2305.43,-645.79"/>
<polygon fill="black" stroke="black" points="2308.29,-643.77 2299.99,-637.19 2302.38,-647.51 2308.29,-643.77"/>
</g>
<!-- airma.sh -->
<g id="node76" class="node">
<title>airma.sh</title>
<path fill="#90caf9" stroke="#90caf9" d="M2495.5,-791.5C2495.5,-791.5 2455.5,-791.5 2455.5,-791.5 2449.5,-791.5 2443.5,-785.5 2443.5,-779.5 2443.5,-779.5 2443.5,-767.5 2443.5,-767.5 2443.5,-761.5 2449.5,-755.5 2455.5,-755.5 2455.5,-755.5 2495.5,-755.5 2495.5,-755.5 2501.5,-755.5 2507.5,-761.5 2507.5,-767.5 2507.5,-767.5 2507.5,-779.5 2507.5,-779.5 2507.5,-785.5 2501.5,-791.5 2495.5,-791.5"/>
<text text-anchor="middle" x="2475.5" y="-769.8" font-family="Times,serif" font-size="14.00">airma.sh</text>
</g>
<!-- skyroyale.io -->
<g id="node99" class="node">
<title>skyroyale.io</title>
<path fill="#fadc91" stroke="#fadc91" d="M2511,-637C2511,-637 2440,-637 2440,-637 2434,-637 2428,-631 2428,-625 2428,-625 2428,-611 2428,-611 2428,-605 2434,-599 2440,-599 2440,-599 2511,-599 2511,-599 2517,-599 2523,-605 2523,-611 2523,-611 2523,-625 2523,-625 2523,-631 2517,-637 2511,-637"/>
<text text-anchor="middle" x="2475.5" y="-621.8" font-family="Times,serif" font-size="14.00">skyroyale.io</text>
<text text-anchor="middle" x="2475.5" y="-606.8" font-family="Times,serif" font-size="14.00">Clown Games</text>
</g>
<!-- airma.sh&#45;&gt;skyroyale.io -->
<g id="edge74" class="edge">
<title>airma.sh&#45;&gt;skyroyale.io</title>
<path fill="none" stroke="black" d="M2475.5,-755.49C2475.5,-729.37 2475.5,-679.11 2475.5,-647.41"/>
<polygon fill="black" stroke="black" points="2479,-647.04 2475.5,-637.04 2472,-647.04 2479,-647.04"/>
</g>
<!-- pockey.io -->
<g id="node77" class="node">
<title>pockey.io</title>
<path fill="#90caf9" stroke="#90caf9" d="M2629,-800C2629,-800 2538,-800 2538,-800 2532,-800 2526,-794 2526,-788 2526,-788 2526,-759 2526,-759 2526,-753 2532,-747 2538,-747 2538,-747 2629,-747 2629,-747 2635,-747 2641,-753 2641,-759 2641,-759 2641,-788 2641,-788 2641,-794 2635,-800 2629,-800"/>
<text text-anchor="middle" x="2583.5" y="-784.8" font-family="Times,serif" font-size="14.00">pockey.io</text>
<text text-anchor="middle" x="2583.5" y="-769.8" font-family="Times,serif" font-size="14.00">Starcade</text>
<text text-anchor="middle" x="2583.5" y="-754.8" font-family="Times,serif" font-size="14.00">(KidComet &amp; al.)</text>
</g>
<!-- nend.io -->
<g id="node80" class="node">
<title>nend.io</title>
<path fill="#90caf9" stroke="#90caf9" d="M2573.5,-711C2573.5,-711 2515.5,-711 2515.5,-711 2509.5,-711 2503.5,-705 2503.5,-699 2503.5,-699 2503.5,-685 2503.5,-685 2503.5,-679 2509.5,-673 2515.5,-673 2515.5,-673 2573.5,-673 2573.5,-673 2579.5,-673 2585.5,-679 2585.5,-685 2585.5,-685 2585.5,-699 2585.5,-699 2585.5,-705 2579.5,-711 2573.5,-711"/>
<text text-anchor="middle" x="2544.5" y="-695.8" font-family="Times,serif" font-size="14.00">nend.io</text>
<text text-anchor="middle" x="2544.5" y="-680.8" font-family="Times,serif" font-size="14.00">LapaMauve</text>
</g>
<!-- flyordie.io -->
<g id="node83" class="node">
<title>flyordie.io</title>
<path fill="#90caf9" stroke="#90caf9" d="M2613.5,-637C2613.5,-637 2553.5,-637 2553.5,-637 2547.5,-637 2541.5,-631 2541.5,-625 2541.5,-625 2541.5,-611 2541.5,-611 2541.5,-605 2547.5,-599 2553.5,-599 2553.5,-599 2613.5,-599 2613.5,-599 2619.5,-599 2625.5,-605 2625.5,-611 2625.5,-611 2625.5,-625 2625.5,-625 2625.5,-631 2619.5,-637 2613.5,-637"/>
<text text-anchor="middle" x="2583.5" y="-621.8" font-family="Times,serif" font-size="14.00">flyordie.io</text>
<text text-anchor="middle" x="2583.5" y="-606.8" font-family="Times,serif" font-size="14.00">Pixel Voices</text>
</g>
<!-- llam.io -->
<g id="node88" class="node">
<title>llam.io</title>
<path fill="#90caf9" stroke="#90caf9" d="M2613.5,-474C2613.5,-474 2553.5,-474 2553.5,-474 2547.5,-474 2541.5,-468 2541.5,-462 2541.5,-462 2541.5,-448 2541.5,-448 2541.5,-442 2547.5,-436 2553.5,-436 2553.5,-436 2613.5,-436 2613.5,-436 2619.5,-436 2625.5,-442 2625.5,-448 2625.5,-448 2625.5,-462 2625.5,-462 2625.5,-468 2619.5,-474 2613.5,-474"/>
<text text-anchor="middle" x="2583.5" y="-458.8" font-family="Times,serif" font-size="14.00">llam.io</text>
<text text-anchor="middle" x="2583.5" y="-443.8" font-family="Times,serif" font-size="14.00">Pixel Voices</text>
</g>
<!-- flyordie.io&#45;&gt;llam.io -->
<g id="edge59" class="edge">
<title>flyordie.io&#45;&gt;llam.io</title>
<path fill="none" stroke="black" d="M2583.5,-598.84C2583.5,-571.06 2583.5,-517.76 2583.5,-484.7"/>
<polygon fill="black" stroke="black" points="2587,-484.34 2583.5,-474.34 2580,-484.34 2587,-484.34"/>
</g>
<!-- venge.io -->
<g id="node93" class="node">
<title>venge.io</title>
<path fill="#90caf9" stroke="#90caf9" d="M2317.5,-38C2317.5,-38 2259.5,-38 2259.5,-38 2253.5,-38 2247.5,-32 2247.5,-26 2247.5,-26 2247.5,-12 2247.5,-12 2247.5,-6 2253.5,0 2259.5,0 2259.5,0 2317.5,0 2317.5,0 2323.5,0 2329.5,-6 2329.5,-12 2329.5,-12 2329.5,-26 2329.5,-26 2329.5,-32 2323.5,-38 2317.5,-38"/>
<text text-anchor="middle" x="2288.5" y="-22.8" font-family="Times,serif" font-size="14.00">venge.io</text>
<text text-anchor="middle" x="2288.5" y="-7.8" font-family="Times,serif" font-size="14.00">Cem Demir</text>
</g>
<!-- krunker.io&#45;&gt;venge.io -->
<g id="edge65" class="edge">
<title>krunker.io&#45;&gt;venge.io</title>
<path fill="none" stroke="black" d="M2288.5,-598.65C2288.5,-568.76 2288.5,-507.71 2288.5,-456 2288.5,-456 2288.5,-456 2288.5,-165 2288.5,-124.6 2288.5,-77.86 2288.5,-48.62"/>
<polygon fill="black" stroke="black" points="2292,-48.31 2288.5,-38.31 2285,-48.31 2292,-48.31"/>
</g>
<!-- acolytefight.io -->
<g id="node89" class="node">
<title>acolytefight.io</title>
<path fill="#90caf9" stroke="#90caf9" d="M2739.5,-474C2739.5,-474 2655.5,-474 2655.5,-474 2649.5,-474 2643.5,-468 2643.5,-462 2643.5,-462 2643.5,-448 2643.5,-448 2643.5,-442 2649.5,-436 2655.5,-436 2655.5,-436 2739.5,-436 2739.5,-436 2745.5,-436 2751.5,-442 2751.5,-448 2751.5,-448 2751.5,-462 2751.5,-462 2751.5,-468 2745.5,-474 2739.5,-474"/>
<text text-anchor="middle" x="2697.5" y="-458.8" font-family="Times,serif" font-size="14.00">acolytefight.io</text>
<text text-anchor="middle" x="2697.5" y="-443.8" font-family="Times,serif" font-size="14.00">raysplaceinspace</text>
</g>
<!-- tetr.io -->
<g id="node92" class="node">
<title>tetr.io</title>
<path fill="#90caf9" stroke="#90caf9" d="M2358.5,-112C2358.5,-112 2328.5,-112 2328.5,-112 2322.5,-112 2316.5,-106 2316.5,-100 2316.5,-100 2316.5,-86 2316.5,-86 2316.5,-80 2322.5,-74 2328.5,-74 2328.5,-74 2358.5,-74 2358.5,-74 2364.5,-74 2370.5,-80 2370.5,-86 2370.5,-86 2370.5,-100 2370.5,-100 2370.5,-106 2364.5,-112 2358.5,-112"/>
<text text-anchor="middle" x="2343.5" y="-96.8" font-family="Times,serif" font-size="14.00">tetr.io</text>
<text text-anchor="middle" x="2343.5" y="-81.8" font-family="Times,serif" font-size="14.00">osk</text>
</g>
<!-- generals.io -->
<g id="node95" class="node">
<title>generals.io</title>
<path fill="#90caf9" stroke="#90caf9" d="M2390,-1118.5C2390,-1118.5 2331,-1118.5 2331,-1118.5 2325,-1118.5 2319,-1112.5 2319,-1106.5 2319,-1106.5 2319,-1092.5 2319,-1092.5 2319,-1086.5 2325,-1080.5 2331,-1080.5 2331,-1080.5 2390,-1080.5 2390,-1080.5 2396,-1080.5 2402,-1086.5 2402,-1092.5 2402,-1092.5 2402,-1106.5 2402,-1106.5 2402,-1112.5 2396,-1118.5 2390,-1118.5"/>
<text text-anchor="middle" x="2360.5" y="-1103.3" font-family="Times,serif" font-size="14.00">generals.io</text>
<text text-anchor="middle" x="2360.5" y="-1088.3" font-family="Times,serif" font-size="14.00">Victor Zhou</text>
</g>
<!-- bruh.io&#45;&gt;battlepoint.io -->
<g id="edge35" class="edge">
<title>bruh.io&#45;&gt;battlepoint.io</title>
<path fill="none" stroke="black" d="M1190.42,-754.45C1199.26,-713.7 1220.83,-614.32 1231.42,-565.5"/>
<polygon fill="black" stroke="black" points="1234.87,-566.13 1233.57,-555.61 1228.03,-564.64 1234.87,-566.13"/>
</g>
<!-- buildroyale.io -->
<g id="node101" class="node">
<title>buildroyale.io</title>
<path fill="#fadc91" stroke="#fadc91" d="M569.5,-474C569.5,-474 469.5,-474 469.5,-474 463.5,-474 457.5,-468 457.5,-462 457.5,-462 457.5,-448 457.5,-448 457.5,-442 463.5,-436 469.5,-436 469.5,-436 569.5,-436 569.5,-436 575.5,-436 581.5,-442 581.5,-448 581.5,-448 581.5,-462 581.5,-462 581.5,-468 575.5,-474 569.5,-474"/>
<text text-anchor="middle" x="519.5" y="-458.8" font-family="Times,serif" font-size="14.00">buildroyale.io</text>
<text text-anchor="middle" x="519.5" y="-443.8" font-family="Times,serif" font-size="14.00">Mathew Matakovic</text>
</g>
<!-- zombsroyale.io&#45;&gt;buildroyale.io -->
<g id="edge47" class="edge">
<title>zombsroyale.io&#45;&gt;buildroyale.io</title>
<path fill="none" stroke="black" d="M519.5,-672.95C519.5,-632.28 519.5,-533.23 519.5,-484.31"/>
<polygon fill="black" stroke="black" points="523,-484.11 519.5,-474.11 516,-484.11 523,-484.11"/>
</g>
</g>
</svg>
