<?xml version="1.0" encoding="UTF-8" standalone="no"?>
<!DOCTYPE svg PUBLIC "-//W3C//DTD SVG 1.1//EN"
 "http://www.w3.org/Graphics/SVG/1.1/DTD/svg11.dtd">
<!-- Generated by graphviz version 2.40.1 (20161225.0304)
 -->
<!-- Title: iogames Pages: 1 -->
<svg width="2317pt" height="1302pt"
 viewBox="0.00 0.00 2316.50 1302.00" xmlns="http://www.w3.org/2000/svg" xmlns:xlink="http://www.w3.org/1999/xlink">
<g id="graph0" class="graph" transform="scale(1 1) rotate(0) translate(4 1298)">
<title>iogames</title>
<polygon fill="#ffffff" stroke="transparent" points="-4,4 -4,-1298 2312.5,-1298 2312.5,4 -4,4"/>
<text text-anchor="start" x="1072.75" y="-1279.8" font-family="Times,serif" font-weight="bold" text-decoration="underline" font-size="14.00" fill="#000000">History of .io games</text>
<text text-anchor="start" x="1086.75" y="-1251.8" font-family="Times,serif" font-size="14.00" fill="#000000">by </text>
<text text-anchor="start" x="1108.75" y="-1251.8" font-family="Times,serif" font-weight="bold" font-size="14.00" fill="#000000">Julien Mourer</text>
<text text-anchor="start" x="1045.25" y="-1237.8" font-family="Times,serif" font-size="14.00" fill="#000000">Licensed under the CC BY 4.0</text>
<text text-anchor="start" x="1003.75" y="-1223.8" font-family="Times,serif" font-size="14.00" fill="#000000">https://github.com/getkey/io&#45;game&#45;history</text>
<!-- 2014q4 -->
<g id="node1" class="node">
<title>2014q4</title>
<text text-anchor="middle" x="52" y="-1192" font-family="Times,serif" font-size="20.00" fill="#000000">Q4 2014</text>
</g>
<!-- 2015q1 -->
<g id="node2" class="node">
<title>2015q1</title>
<text text-anchor="middle" x="52" y="-1119" font-family="Times,serif" font-size="20.00" fill="#000000">Q1 2015</text>
</g>
<!-- 2014q4&#45;&gt;2015q1 -->
<!-- 2015q2 -->
<g id="node3" class="node">
<title>2015q2</title>
<text text-anchor="middle" x="52" y="-1046" font-family="Times,serif" font-size="20.00" fill="#000000">Q2 2015</text>
</g>
<!-- 2015q1&#45;&gt;2015q2 -->
<!-- 2015q3 -->
<g id="node4" class="node">
<title>2015q3</title>
<text text-anchor="middle" x="52" y="-973" font-family="Times,serif" font-size="20.00" fill="#000000">Q3 2015</text>
</g>
<!-- 2015q2&#45;&gt;2015q3 -->
<!-- 2015q4 -->
<g id="node5" class="node">
<title>2015q4</title>
<text text-anchor="middle" x="52" y="-901" font-family="Times,serif" font-size="20.00" fill="#000000">Q4 2015</text>
</g>
<!-- 2015q3&#45;&gt;2015q4 -->
<!-- 2016q1 -->
<g id="node6" class="node">
<title>2016q1</title>
<text text-anchor="middle" x="52" y="-828" font-family="Times,serif" font-size="20.00" fill="#000000">Q1 2016</text>
</g>
<!-- 2015q4&#45;&gt;2016q1 -->
<!-- 2016q2 -->
<g id="node7" class="node">
<title>2016q2</title>
<text text-anchor="middle" x="52" y="-754" font-family="Times,serif" font-size="20.00" fill="#000000">Q2 2016</text>
</g>
<!-- 2016q1&#45;&gt;2016q2 -->
<!-- 2016q3 -->
<g id="node8" class="node">
<title>2016q3</title>
<text text-anchor="middle" x="52" y="-680" font-family="Times,serif" font-size="20.00" fill="#000000">Q3 2016</text>
</g>
<!-- 2016q2&#45;&gt;2016q3 -->
<!-- 2016q4 -->
<g id="node9" class="node">
<title>2016q4</title>
<text text-anchor="middle" x="52" y="-606" font-family="Times,serif" font-size="20.00" fill="#000000">Q4 2016</text>
</g>
<!-- 2016q3&#45;&gt;2016q4 -->
<!-- 2017q1 -->
<g id="node10" class="node">
<title>2017q1</title>
<text text-anchor="middle" x="52" y="-532" font-family="Times,serif" font-size="20.00" fill="#000000">Q1 2017</text>
</g>
<!-- 2016q4&#45;&gt;2017q1 -->
<!-- 2017q2 -->
<g id="node11" class="node">
<title>2017q2</title>
<text text-anchor="middle" x="52" y="-458" font-family="Times,serif" font-size="20.00" fill="#000000">Q2 2017</text>
</g>
<!-- 2017q1&#45;&gt;2017q2 -->
<!-- 2017q3 -->
<g id="node12" class="node">
<title>2017q3</title>
<text text-anchor="middle" x="52" y="-384" font-family="Times,serif" font-size="20.00" fill="#000000">Q3 2017</text>
</g>
<!-- 2017q2&#45;&gt;2017q3 -->
<!-- 2017q4 -->
<g id="node13" class="node">
<title>2017q4</title>
<text text-anchor="middle" x="52" y="-310" font-family="Times,serif" font-size="20.00" fill="#000000">Q4 2017</text>
</g>
<!-- 2017q3&#45;&gt;2017q4 -->
<!-- 2018q1 -->
<g id="node14" class="node">
<title>2018q1</title>
<text text-anchor="middle" x="52" y="-236" font-family="Times,serif" font-size="20.00" fill="#000000">Q1 2018</text>
</g>
<!-- 2017q4&#45;&gt;2018q1 -->
<!-- 2018q2 -->
<g id="node15" class="node">
<title>2018q2</title>
<text text-anchor="middle" x="52" y="-162" font-family="Times,serif" font-size="20.00" fill="#000000">Q2 2018</text>
</g>
<!-- 2018q1&#45;&gt;2018q2 -->
<!-- 2018q3 -->
<g id="node16" class="node">
<title>2018q3</title>
<text text-anchor="middle" x="52" y="-88" font-family="Times,serif" font-size="20.00" fill="#000000">Q3 2018</text>
</g>
<!-- 2018q2&#45;&gt;2018q3 -->
<!-- 2018q4 -->
<g id="node17" class="node">
<title>2018q4</title>
<text text-anchor="middle" x="52" y="-14" font-family="Times,serif" font-size="20.00" fill="#000000">Q4 2018</text>
</g>
<!-- 2018q3&#45;&gt;2018q4 -->
<!-- cursors.io -->
<g id="node18" class="node">
<title>cursors.io</title>
<path fill="#90caf9" stroke="#90caf9" d="M263.5,-1216C263.5,-1216 134.5,-1216 134.5,-1216 128.5,-1216 122.5,-1210 122.5,-1204 122.5,-1204 122.5,-1190 122.5,-1190 122.5,-1184 128.5,-1178 134.5,-1178 134.5,-1178 263.5,-1178 263.5,-1178 269.5,-1178 275.5,-1184 275.5,-1190 275.5,-1190 275.5,-1204 275.5,-1204 275.5,-1210 269.5,-1216 263.5,-1216"/>
<text text-anchor="middle" x="199" y="-1200.8" font-family="Times,serif" font-size="14.00" fill="#000000">cursors.io</text>
<text text-anchor="middle" x="199" y="-1185.8" font-family="Times,serif" font-size="14.00" fill="#000000">Matheus Valadares</text>
</g>
<!-- agar.io -->
<g id="node19" class="node">
<title>agar.io</title>
<path fill="#90caf9" stroke="#90caf9" d="M655.5,-1070C655.5,-1070 526.5,-1070 526.5,-1070 520.5,-1070 514.5,-1064 514.5,-1058 514.5,-1058 514.5,-1044 514.5,-1044 514.5,-1038 520.5,-1032 526.5,-1032 526.5,-1032 655.5,-1032 655.5,-1032 661.5,-1032 667.5,-1038 667.5,-1044 667.5,-1044 667.5,-1058 667.5,-1058 667.5,-1064 661.5,-1070 655.5,-1070"/>
<text text-anchor="middle" x="591" y="-1054.8" font-family="Times,serif" font-size="14.00" fill="#000000">agar.io</text>
<text text-anchor="middle" x="591" y="-1039.8" font-family="Times,serif" font-size="14.00" fill="#000000">Matheus Valadares</text>
</g>
<!-- deeeep.io -->
<g id="node26" class="node">
<title>deeeep.io</title>
<path fill="#90caf9" stroke="#90caf9" d="M290.5,-629C290.5,-629 229.5,-629 229.5,-629 223.5,-629 217.5,-623 217.5,-617 217.5,-617 217.5,-605 217.5,-605 217.5,-599 223.5,-593 229.5,-593 229.5,-593 290.5,-593 290.5,-593 296.5,-593 302.5,-599 302.5,-605 302.5,-605 302.5,-617 302.5,-617 302.5,-623 296.5,-629 290.5,-629"/>
<text text-anchor="middle" x="260" y="-607.3" font-family="Times,serif" font-size="14.00" fill="#000000">deeeep.io</text>
</g>
<!-- agar.io&#45;&gt;deeeep.io -->
<g id="edge44" class="edge">
<title>agar.io&#45;&gt;deeeep.io</title>
<path fill="none" stroke="#000000" d="M530.6801,-1031.9686C476.6935,-1010.7251 406,-970.5784 406,-906 406,-906 406,-906 406,-759 406,-701.7169 349.884,-658.5761 307.2319,-634.0592"/>
<polygon fill="#000000" stroke="#000000" points="308.7983,-630.9253 298.3598,-629.1119 305.3891,-637.0391 308.7983,-630.9253"/>
</g>
<!-- pie.ai -->
<g id="node38" class="node">
<title>pie.ai</title>
<path fill="#90caf9" stroke="#90caf9" d="M599,-555C599,-555 567,-555 567,-555 561,-555 555,-549 555,-543 555,-543 555,-531 555,-531 555,-525 561,-519 567,-519 567,-519 599,-519 599,-519 605,-519 611,-525 611,-531 611,-531 611,-543 611,-543 611,-549 605,-555 599,-555"/>
<text text-anchor="middle" x="583" y="-533.3" font-family="Times,serif" font-size="14.00" fill="#000000">pie.ai</text>
</g>
<!-- agar.io&#45;&gt;pie.ai -->
<g id="edge40" class="edge">
<title>agar.io&#45;&gt;pie.ai</title>
<path fill="none" stroke="#000000" d="M591,-1031.767C591,-1003.9984 591,-951.0608 591,-906 591,-906 591,-906 591,-685 591,-643.2901 587.7927,-595.0644 585.4396,-565.2963"/>
<polygon fill="#000000" stroke="#000000" points="588.9185,-564.8937 584.6189,-555.2105 581.9416,-565.4615 588.9185,-564.8937"/>
</g>
<!-- spinz.io -->
<g id="node44" class="node">
<title>spinz.io</title>
<path fill="#90caf9" stroke="#90caf9" d="M662,-482C662,-482 606,-482 606,-482 600,-482 594,-476 594,-470 594,-470 594,-456 594,-456 594,-450 600,-444 606,-444 606,-444 662,-444 662,-444 668,-444 674,-450 674,-456 674,-456 674,-470 674,-470 674,-476 668,-482 662,-482"/>
<text text-anchor="middle" x="634" y="-466.8" font-family="Times,serif" font-size="14.00" fill="#000000">spinz.io</text>
<text text-anchor="middle" x="634" y="-451.8" font-family="Times,serif" font-size="14.00" fill="#000000">Yang Lui</text>
</g>
<!-- agar.io&#45;&gt;spinz.io -->
<g id="edge37" class="edge">
<title>agar.io&#45;&gt;spinz.io</title>
<path fill="none" stroke="#000000" d="M601.6528,-1031.9653C615.7939,-1004.8644 639,-953.2004 639,-906 639,-906 639,-906 639,-611 639,-569.7851 637.0392,-522.1509 635.5735,-492.2997"/>
<polygon fill="#000000" stroke="#000000" points="639.0609,-491.9618 635.0604,-482.1513 632.0699,-492.3153 639.0609,-491.9618"/>
</g>
<!-- slither.io -->
<g id="node20" class="node">
<title>slither.io</title>
<path fill="#90caf9" stroke="#90caf9" d="M964,-852C964,-852 878,-852 878,-852 872,-852 866,-846 866,-840 866,-840 866,-826 866,-826 866,-820 872,-814 878,-814 878,-814 964,-814 964,-814 970,-814 976,-820 976,-826 976,-826 976,-840 976,-840 976,-846 970,-852 964,-852"/>
<text text-anchor="middle" x="921" y="-836.8" font-family="Times,serif" font-size="14.00" fill="#000000">slither.io</text>
<text text-anchor="middle" x="921" y="-821.8" font-family="Times,serif" font-size="14.00" fill="#000000">Steve Howse</text>
</g>
<!-- limax.io -->
<g id="node23" class="node">
<title>limax.io</title>
<path fill="#90caf9" stroke="#90caf9" d="M856,-778C856,-778 780,-778 780,-778 774,-778 768,-772 768,-766 768,-766 768,-752 768,-752 768,-746 774,-740 780,-740 780,-740 856,-740 856,-740 862,-740 868,-746 868,-752 868,-752 868,-766 868,-766 868,-772 862,-778 856,-778"/>
<text text-anchor="middle" x="818" y="-762.8" font-family="Times,serif" font-size="14.00" fill="#000000">limax.io</text>
<text text-anchor="middle" x="818" y="-747.8" font-family="Times,serif" font-size="14.00" fill="#000000">LapaMauve</text>
</g>
<!-- slither.io&#45;&gt;limax.io -->
<g id="edge19" class="edge">
<title>slither.io&#45;&gt;limax.io</title>
<path fill="none" stroke="#000000" d="M894.4749,-813.9432C881.8385,-804.8646 866.5552,-793.8843 852.9834,-784.1337"/>
<polygon fill="#000000" stroke="#000000" points="854.9567,-781.2418 844.7932,-778.2495 850.8723,-786.9267 854.9567,-781.2418"/>
</g>
<!-- wormax.io -->
<g id="node25" class="node">
<title>wormax.io</title>
<path fill="#90caf9" stroke="#90caf9" d="M905.5,-704C905.5,-704 838.5,-704 838.5,-704 832.5,-704 826.5,-698 826.5,-692 826.5,-692 826.5,-678 826.5,-678 826.5,-672 832.5,-666 838.5,-666 838.5,-666 905.5,-666 905.5,-666 911.5,-666 917.5,-672 917.5,-678 917.5,-678 917.5,-692 917.5,-692 917.5,-698 911.5,-704 905.5,-704"/>
<text text-anchor="middle" x="872" y="-688.8" font-family="Times,serif" font-size="14.00" fill="#000000">wormax.io</text>
<text text-anchor="middle" x="872" y="-673.8" font-family="Times,serif" font-size="14.00" fill="#000000">Elyland</text>
</g>
<!-- slither.io&#45;&gt;wormax.io -->
<g id="edge17" class="edge">
<title>slither.io&#45;&gt;wormax.io</title>
<path fill="none" stroke="#000000" d="M914.6944,-813.9546C906.3243,-788.6735 891.4637,-743.7883 881.6706,-714.2092"/>
<polygon fill="#000000" stroke="#000000" points="884.9027,-712.8354 878.437,-704.4423 878.2574,-715.0356 884.9027,-712.8354"/>
</g>
<!-- wormate.io -->
<g id="node29" class="node">
<title>wormate.io</title>
<path fill="#90caf9" stroke="#90caf9" d="M1008.5,-630C1008.5,-630 883.5,-630 883.5,-630 877.5,-630 871.5,-624 871.5,-618 871.5,-618 871.5,-604 871.5,-604 871.5,-598 877.5,-592 883.5,-592 883.5,-592 1008.5,-592 1008.5,-592 1014.5,-592 1020.5,-598 1020.5,-604 1020.5,-604 1020.5,-618 1020.5,-618 1020.5,-624 1014.5,-630 1008.5,-630"/>
<text text-anchor="middle" x="946" y="-614.8" font-family="Times,serif" font-size="14.00" fill="#000000">wormate.io</text>
<text text-anchor="middle" x="946" y="-599.8" font-family="Times,serif" font-size="14.00" fill="#000000">Oleksandr Godoba</text>
</g>
<!-- slither.io&#45;&gt;wormate.io -->
<g id="edge18" class="edge">
<title>slither.io&#45;&gt;wormate.io</title>
<path fill="none" stroke="#000000" d="M923.1749,-813.6873C927.5723,-774.6382 937.5419,-686.1078 942.728,-640.0551"/>
<polygon fill="#000000" stroke="#000000" points="946.2069,-640.4388 943.848,-630.11 939.2508,-639.6554 946.2069,-640.4388"/>
</g>
<!-- powerline.io -->
<g id="node52" class="node">
<title>powerline.io</title>
<path fill="#90caf9" stroke="#90caf9" d="M1097.5,-334C1097.5,-334 998.5,-334 998.5,-334 992.5,-334 986.5,-328 986.5,-322 986.5,-322 986.5,-308 986.5,-308 986.5,-302 992.5,-296 998.5,-296 998.5,-296 1097.5,-296 1097.5,-296 1103.5,-296 1109.5,-302 1109.5,-308 1109.5,-308 1109.5,-322 1109.5,-322 1109.5,-328 1103.5,-334 1097.5,-334"/>
<text text-anchor="middle" x="1048" y="-318.8" font-family="Times,serif" font-size="14.00" fill="#000000">powerline.io</text>
<text text-anchor="middle" x="1048" y="-303.8" font-family="Times,serif" font-size="14.00" fill="#000000">Andre Almeida</text>
</g>
<!-- slither.io&#45;&gt;powerline.io -->
<g id="edge20" class="edge">
<title>slither.io&#45;&gt;powerline.io</title>
<path fill="none" stroke="#000000" d="M954.0362,-813.8188C991.6657,-789.2095 1048,-742.7274 1048,-685 1048,-685 1048,-685 1048,-463 1048,-421.8086 1048,-374.1685 1048,-344.3096"/>
<polygon fill="#000000" stroke="#000000" points="1051.5001,-344.1583 1048,-334.1583 1044.5001,-344.1583 1051.5001,-344.1583"/>
</g>
<!-- diep.io -->
<g id="node21" class="node">
<title>diep.io</title>
<path fill="#90caf9" stroke="#90caf9" d="M1202.5,-852C1202.5,-852 1073.5,-852 1073.5,-852 1067.5,-852 1061.5,-846 1061.5,-840 1061.5,-840 1061.5,-826 1061.5,-826 1061.5,-820 1067.5,-814 1073.5,-814 1073.5,-814 1202.5,-814 1202.5,-814 1208.5,-814 1214.5,-820 1214.5,-826 1214.5,-826 1214.5,-840 1214.5,-840 1214.5,-846 1208.5,-852 1202.5,-852"/>
<text text-anchor="middle" x="1138" y="-836.8" font-family="Times,serif" font-size="14.00" fill="#000000">diep.io</text>
<text text-anchor="middle" x="1138" y="-821.8" font-family="Times,serif" font-size="14.00" fill="#000000">Matheus Valadares</text>
</g>
<!-- tanksmith.io -->
<g id="node61" class="node">
<title>tanksmith.io</title>
<path fill="#90caf9" stroke="#90caf9" d="M1179.5,-186C1179.5,-186 1096.5,-186 1096.5,-186 1090.5,-186 1084.5,-180 1084.5,-174 1084.5,-174 1084.5,-160 1084.5,-160 1084.5,-154 1090.5,-148 1096.5,-148 1096.5,-148 1179.5,-148 1179.5,-148 1185.5,-148 1191.5,-154 1191.5,-160 1191.5,-160 1191.5,-174 1191.5,-174 1191.5,-180 1185.5,-186 1179.5,-186"/>
<text text-anchor="middle" x="1138" y="-170.8" font-family="Times,serif" font-size="14.00" fill="#000000">tanksmith.io</text>
<text text-anchor="middle" x="1138" y="-155.8" font-family="Times,serif" font-size="14.00" fill="#000000">IO Ninja</text>
</g>
<!-- diep.io&#45;&gt;tanksmith.io -->
<g id="edge45" class="edge">
<title>diep.io&#45;&gt;tanksmith.io</title>
<path fill="none" stroke="#000000" d="M1138,-813.8417C1138,-785.6299 1138,-731.25 1138,-685 1138,-685 1138,-685 1138,-315 1138,-273.8086 1138,-226.1685 1138,-196.3096"/>
<polygon fill="#000000" stroke="#000000" points="1141.5001,-196.1583 1138,-186.1583 1134.5001,-196.1583 1141.5001,-196.1583"/>
</g>
<!-- wings.io -->
<g id="node22" class="node">
<title>wings.io</title>
<path fill="#90caf9" stroke="#90caf9" d="M1343.5,-852C1343.5,-852 1244.5,-852 1244.5,-852 1238.5,-852 1232.5,-846 1232.5,-840 1232.5,-840 1232.5,-826 1232.5,-826 1232.5,-820 1238.5,-814 1244.5,-814 1244.5,-814 1343.5,-814 1343.5,-814 1349.5,-814 1355.5,-820 1355.5,-826 1355.5,-826 1355.5,-840 1355.5,-840 1355.5,-846 1349.5,-852 1343.5,-852"/>
<text text-anchor="middle" x="1294" y="-836.8" font-family="Times,serif" font-size="14.00" fill="#000000">wings.io</text>
<text text-anchor="middle" x="1294" y="-821.8" font-family="Times,serif" font-size="14.00" fill="#000000">Andre Almeida</text>
</g>
<!-- wilds.io -->
<g id="node24" class="node">
<title>wilds.io</title>
<path fill="#90caf9" stroke="#90caf9" d="M1246.5,-778C1246.5,-778 1195.5,-778 1195.5,-778 1189.5,-778 1183.5,-772 1183.5,-766 1183.5,-766 1183.5,-752 1183.5,-752 1183.5,-746 1189.5,-740 1195.5,-740 1195.5,-740 1246.5,-740 1246.5,-740 1252.5,-740 1258.5,-746 1258.5,-752 1258.5,-752 1258.5,-766 1258.5,-766 1258.5,-772 1252.5,-778 1246.5,-778"/>
<text text-anchor="middle" x="1221" y="-762.8" font-family="Times,serif" font-size="14.00" fill="#000000">wilds.io</text>
<text text-anchor="middle" x="1221" y="-747.8" font-family="Times,serif" font-size="14.00" fill="#000000">Rezoner</text>
</g>
<!-- wanderers.io -->
<g id="node54" class="node">
<title>wanderers.io</title>
<path fill="#90caf9" stroke="#90caf9" d="M1264,-334C1264,-334 1178,-334 1178,-334 1172,-334 1166,-328 1166,-322 1166,-322 1166,-308 1166,-308 1166,-302 1172,-296 1178,-296 1178,-296 1264,-296 1264,-296 1270,-296 1276,-302 1276,-308 1276,-308 1276,-322 1276,-322 1276,-328 1270,-334 1264,-334"/>
<text text-anchor="middle" x="1221" y="-318.8" font-family="Times,serif" font-size="14.00" fill="#000000">wanderers.io</text>
<text text-anchor="middle" x="1221" y="-303.8" font-family="Times,serif" font-size="14.00" fill="#000000">Rezoner</text>
</g>
<!-- wilds.io&#45;&gt;wanderers.io -->
<g id="edge36" class="edge">
<title>wilds.io&#45;&gt;wanderers.io</title>
<path fill="none" stroke="#000000" d="M1221,-739.8417C1221,-711.6299 1221,-657.25 1221,-611 1221,-611 1221,-611 1221,-463 1221,-421.8086 1221,-374.1685 1221,-344.3096"/>
<polygon fill="#000000" stroke="#000000" points="1224.5001,-344.1583 1221,-334.1583 1217.5001,-344.1583 1224.5001,-344.1583"/>
</g>
<!-- oceanar.io -->
<g id="node27" class="node">
<title>oceanar.io</title>
<path fill="#90caf9" stroke="#90caf9" d="M550.5,-630C550.5,-630 485.5,-630 485.5,-630 479.5,-630 473.5,-624 473.5,-618 473.5,-618 473.5,-604 473.5,-604 473.5,-598 479.5,-592 485.5,-592 485.5,-592 550.5,-592 550.5,-592 556.5,-592 562.5,-598 562.5,-604 562.5,-604 562.5,-618 562.5,-618 562.5,-624 556.5,-630 550.5,-630"/>
<text text-anchor="middle" x="518" y="-614.8" font-family="Times,serif" font-size="14.00" fill="#000000">oceanar.io</text>
<text text-anchor="middle" x="518" y="-599.8" font-family="Times,serif" font-size="14.00" fill="#000000">S3Games</text>
</g>
<!-- deeeep.io&#45;&gt;oceanar.io -->
<g id="edge21" class="edge">
<title>deeeep.io&#45;&gt;oceanar.io</title>
<path fill="none" stroke="#000000" d="M282.5131,-629.0102C293.2115,-636.4407 306.5778,-644.1942 320,-648 377.7244,-664.3674 397.1026,-663.7444 455,-648 465.0061,-645.279 475.046,-640.5227 484.0778,-635.3085"/>
<polygon fill="#000000" stroke="#000000" points="486.0395,-638.2113 492.7349,-630.0001 482.3804,-632.2438 486.0395,-638.2113"/>
</g>
<!-- mope.io -->
<g id="node28" class="node">
<title>mope.io</title>
<path fill="#90caf9" stroke="#90caf9" d="M443.5,-630C443.5,-630 332.5,-630 332.5,-630 326.5,-630 320.5,-624 320.5,-618 320.5,-618 320.5,-604 320.5,-604 320.5,-598 326.5,-592 332.5,-592 332.5,-592 443.5,-592 443.5,-592 449.5,-592 455.5,-598 455.5,-604 455.5,-604 455.5,-618 455.5,-618 455.5,-624 449.5,-630 443.5,-630"/>
<text text-anchor="middle" x="388" y="-614.8" font-family="Times,serif" font-size="14.00" fill="#000000">mope.io</text>
<text text-anchor="middle" x="388" y="-599.8" font-family="Times,serif" font-size="14.00" fill="#000000">Stan Tatarnykov</text>
</g>
<!-- deeeep.io&#45;&gt;mope.io -->
<g id="edge22" class="edge">
<title>deeeep.io&#45;&gt;mope.io</title>
<path fill="none" stroke="#000000" d="M302.5,-611C304.9892,-611 307.4785,-611 309.9677,-611"/>
<polygon fill="#000000" stroke="#000000" points="310.2012,-614.5001 320.2012,-611 310.2011,-607.5001 310.2012,-614.5001"/>
</g>
<!-- moomoo.io -->
<g id="node39" class="node">
<title>moomoo.io</title>
<path fill="#90caf9" stroke="#90caf9" d="M446.5,-556C446.5,-556 337.5,-556 337.5,-556 331.5,-556 325.5,-550 325.5,-544 325.5,-544 325.5,-530 325.5,-530 325.5,-524 331.5,-518 337.5,-518 337.5,-518 446.5,-518 446.5,-518 452.5,-518 458.5,-524 458.5,-530 458.5,-530 458.5,-544 458.5,-544 458.5,-550 452.5,-556 446.5,-556"/>
<text text-anchor="middle" x="392" y="-540.8" font-family="Times,serif" font-size="14.00" fill="#000000">moomoo.io</text>
<text text-anchor="middle" x="392" y="-525.8" font-family="Times,serif" font-size="14.00" fill="#000000">Sydney de Vries</text>
</g>
<!-- mope.io&#45;&gt;moomoo.io -->
<g id="edge23" class="edge">
<title>mope.io&#45;&gt;moomoo.io</title>
<path fill="none" stroke="#000000" d="M389.0301,-591.9432C389.4514,-584.1493 389.9484,-574.9538 390.4142,-566.3381"/>
<polygon fill="#000000" stroke="#000000" points="393.9145,-566.4238 390.9595,-556.2495 386.9247,-566.0459 393.9145,-566.4238"/>
</g>
<!-- paper.io -->
<g id="node30" class="node">
<title>paper.io</title>
<path fill="#90caf9" stroke="#90caf9" d="M1413,-704C1413,-704 1363,-704 1363,-704 1357,-704 1351,-698 1351,-692 1351,-692 1351,-678 1351,-678 1351,-672 1357,-666 1363,-666 1363,-666 1413,-666 1413,-666 1419,-666 1425,-672 1425,-678 1425,-678 1425,-692 1425,-692 1425,-698 1419,-704 1413,-704"/>
<text text-anchor="middle" x="1388" y="-688.8" font-family="Times,serif" font-size="14.00" fill="#000000">paper.io</text>
<text text-anchor="middle" x="1388" y="-673.8" font-family="Times,serif" font-size="14.00" fill="#000000">Voodoo</text>
</g>
<!-- narwhale.io -->
<g id="node31" class="node">
<title>narwhale.io</title>
<path fill="#90caf9" stroke="#90caf9" d="M1553,-704C1553,-704 1455,-704 1455,-704 1449,-704 1443,-698 1443,-692 1443,-692 1443,-678 1443,-678 1443,-672 1449,-666 1455,-666 1455,-666 1553,-666 1553,-666 1559,-666 1565,-672 1565,-678 1565,-678 1565,-692 1565,-692 1565,-698 1559,-704 1553,-704"/>
<text text-anchor="middle" x="1504" y="-688.8" font-family="Times,serif" font-size="14.00" fill="#000000">narwhale.io</text>
<text text-anchor="middle" x="1504" y="-673.8" font-family="Times,serif" font-size="14.00" fill="#000000">Hsi&#45;Hung Shih</text>
</g>
<!-- pikes.io -->
<g id="node47" class="node">
<title>pikes.io</title>
<path fill="#90caf9" stroke="#90caf9" d="M1549.5,-482C1549.5,-482 1458.5,-482 1458.5,-482 1452.5,-482 1446.5,-476 1446.5,-470 1446.5,-470 1446.5,-456 1446.5,-456 1446.5,-450 1452.5,-444 1458.5,-444 1458.5,-444 1549.5,-444 1549.5,-444 1555.5,-444 1561.5,-450 1561.5,-456 1561.5,-456 1561.5,-470 1561.5,-470 1561.5,-476 1555.5,-482 1549.5,-482"/>
<text text-anchor="middle" x="1504" y="-466.8" font-family="Times,serif" font-size="14.00" fill="#000000">pikes.io</text>
<text text-anchor="middle" x="1504" y="-451.8" font-family="Times,serif" font-size="14.00" fill="#000000">Clown Games</text>
</g>
<!-- narwhale.io&#45;&gt;pikes.io -->
<g id="edge50" class="edge">
<title>narwhale.io&#45;&gt;pikes.io</title>
<path fill="none" stroke="#000000" d="M1504,-665.6873C1504,-626.7205 1504,-538.4803 1504,-492.3465"/>
<polygon fill="#000000" stroke="#000000" points="1507.5001,-492.1099 1504,-482.11 1500.5001,-492.11 1507.5001,-492.1099"/>
</g>
<!-- splix.io -->
<g id="node32" class="node">
<title>splix.io</title>
<path fill="#90caf9" stroke="#90caf9" d="M1321,-704C1321,-704 1277,-704 1277,-704 1271,-704 1265,-698 1265,-692 1265,-692 1265,-678 1265,-678 1265,-672 1271,-666 1277,-666 1277,-666 1321,-666 1321,-666 1327,-666 1333,-672 1333,-678 1333,-678 1333,-692 1333,-692 1333,-698 1327,-704 1321,-704"/>
<text text-anchor="middle" x="1299" y="-688.8" font-family="Times,serif" font-size="14.00" fill="#000000">splix.io</text>
<text text-anchor="middle" x="1299" y="-673.8" font-family="Times,serif" font-size="14.00" fill="#000000">Jesper</text>
</g>
<!-- splix.io&#45;&gt;paper.io -->
<g id="edge41" class="edge">
<title>splix.io&#45;&gt;paper.io</title>
<path fill="none" stroke="#000000" d="M1333.0703,-685C1335.5446,-685 1338.0188,-685 1340.4931,-685"/>
<polygon fill="#000000" stroke="#000000" points="1340.665,-688.5001 1350.665,-685 1340.6649,-681.5001 1340.665,-688.5001"/>
</g>
<!-- hexar.io -->
<g id="node37" class="node">
<title>hexar.io</title>
<path fill="#90caf9" stroke="#90caf9" d="M1323.5,-555C1323.5,-555 1274.5,-555 1274.5,-555 1268.5,-555 1262.5,-549 1262.5,-543 1262.5,-543 1262.5,-531 1262.5,-531 1262.5,-525 1268.5,-519 1274.5,-519 1274.5,-519 1323.5,-519 1323.5,-519 1329.5,-519 1335.5,-525 1335.5,-531 1335.5,-531 1335.5,-543 1335.5,-543 1335.5,-549 1329.5,-555 1323.5,-555"/>
<text text-anchor="middle" x="1299" y="-533.3" font-family="Times,serif" font-size="14.00" fill="#000000">hexar.io</text>
</g>
<!-- splix.io&#45;&gt;hexar.io -->
<g id="edge42" class="edge">
<title>splix.io&#45;&gt;hexar.io</title>
<path fill="none" stroke="#000000" d="M1299,-665.9546C1299,-640.3667 1299,-594.696 1299,-565.1392"/>
<polygon fill="#000000" stroke="#000000" points="1302.5001,-565.0459 1299,-555.0459 1295.5001,-565.046 1302.5001,-565.0459"/>
</g>
<!-- drawthis.io -->
<g id="node33" class="node">
<title>drawthis.io</title>
<path fill="#90caf9" stroke="#90caf9" d="M1674.5,-703C1674.5,-703 1601.5,-703 1601.5,-703 1595.5,-703 1589.5,-697 1589.5,-691 1589.5,-691 1589.5,-679 1589.5,-679 1589.5,-673 1595.5,-667 1601.5,-667 1601.5,-667 1674.5,-667 1674.5,-667 1680.5,-667 1686.5,-673 1686.5,-679 1686.5,-679 1686.5,-691 1686.5,-691 1686.5,-697 1680.5,-703 1674.5,-703"/>
<text text-anchor="middle" x="1638" y="-681.3" font-family="Times,serif" font-size="14.00" fill="#000000">drawthis.io</text>
</g>
<!-- skribbl.io -->
<g id="node41" class="node">
<title>skribbl.io</title>
<path fill="#90caf9" stroke="#90caf9" d="M1604,-555C1604,-555 1544,-555 1544,-555 1538,-555 1532,-549 1532,-543 1532,-543 1532,-531 1532,-531 1532,-525 1538,-519 1544,-519 1544,-519 1604,-519 1604,-519 1610,-519 1616,-525 1616,-531 1616,-531 1616,-543 1616,-543 1616,-549 1610,-555 1604,-555"/>
<text text-anchor="middle" x="1574" y="-533.3" font-family="Times,serif" font-size="14.00" fill="#000000">skribbl.io</text>
</g>
<!-- drawthis.io&#45;&gt;skribbl.io -->
<g id="edge48" class="edge">
<title>drawthis.io&#45;&gt;skribbl.io</title>
<path fill="none" stroke="#000000" d="M1630.1523,-666.8523C1619.1165,-641.332 1598.9182,-594.6234 1585.9927,-564.7332"/>
<polygon fill="#000000" stroke="#000000" points="1589.0935,-563.0855 1581.9118,-555.2961 1582.6685,-565.8639 1589.0935,-563.0855"/>
</g>
<!-- drawthis2.io -->
<g id="node62" class="node">
<title>drawthis2.io</title>
<path fill="#90caf9" stroke="#90caf9" d="M1685,-186C1685,-186 1603,-186 1603,-186 1597,-186 1591,-180 1591,-174 1591,-174 1591,-160 1591,-160 1591,-154 1597,-148 1603,-148 1603,-148 1685,-148 1685,-148 1691,-148 1697,-154 1697,-160 1697,-160 1697,-174 1697,-174 1697,-180 1691,-186 1685,-186"/>
<text text-anchor="middle" x="1644" y="-170.8" font-family="Times,serif" font-size="14.00" fill="#000000">drawthis2.io</text>
<text text-anchor="middle" x="1644" y="-155.8" font-family="Times,serif" font-size="14.00" fill="#000000">lagged.com</text>
</g>
<!-- drawthis.io&#45;&gt;drawthis2.io -->
<g id="edge49" class="edge">
<title>drawthis.io&#45;&gt;drawthis2.io</title>
<path fill="none" stroke="#000000" d="M1639.2142,-666.782C1640.9674,-638.8615 1644,-583.8023 1644,-537 1644,-537 1644,-537 1644,-315 1644,-273.8086 1644,-226.1685 1644,-196.3096"/>
<polygon fill="#000000" stroke="#000000" points="1647.5001,-196.1583 1644,-186.1583 1640.5001,-196.1583 1647.5001,-196.1583"/>
</g>
<!-- bonk.io -->
<g id="node34" class="node">
<title>bonk.io</title>
<path fill="#90caf9" stroke="#90caf9" d="M1761.5,-704C1761.5,-704 1716.5,-704 1716.5,-704 1710.5,-704 1704.5,-698 1704.5,-692 1704.5,-692 1704.5,-678 1704.5,-678 1704.5,-672 1710.5,-666 1716.5,-666 1716.5,-666 1761.5,-666 1761.5,-666 1767.5,-666 1773.5,-672 1773.5,-678 1773.5,-678 1773.5,-692 1773.5,-692 1773.5,-698 1767.5,-704 1761.5,-704"/>
<text text-anchor="middle" x="1739" y="-688.8" font-family="Times,serif" font-size="14.00" fill="#000000">bonk.io</text>
<text text-anchor="middle" x="1739" y="-673.8" font-family="Times,serif" font-size="14.00" fill="#000000">Chaz</text>
</g>
<!-- krew.io -->
<g id="node35" class="node">
<title>krew.io</title>
<path fill="#90caf9" stroke="#90caf9" d="M1728,-630C1728,-630 1684,-630 1684,-630 1678,-630 1672,-624 1672,-618 1672,-618 1672,-604 1672,-604 1672,-598 1678,-592 1684,-592 1684,-592 1728,-592 1728,-592 1734,-592 1740,-598 1740,-604 1740,-604 1740,-618 1740,-618 1740,-624 1734,-630 1728,-630"/>
<text text-anchor="middle" x="1706" y="-614.8" font-family="Times,serif" font-size="14.00" fill="#000000">krew.io</text>
<text text-anchor="middle" x="1706" y="-599.8" font-family="Times,serif" font-size="14.00" fill="#000000">M0dE</text>
</g>
<!-- brutal.io -->
<g id="node36" class="node">
<title>brutal.io</title>
<path fill="#90caf9" stroke="#90caf9" d="M1783.5,-556C1783.5,-556 1684.5,-556 1684.5,-556 1678.5,-556 1672.5,-550 1672.5,-544 1672.5,-544 1672.5,-530 1672.5,-530 1672.5,-524 1678.5,-518 1684.5,-518 1684.5,-518 1783.5,-518 1783.5,-518 1789.5,-518 1795.5,-524 1795.5,-530 1795.5,-530 1795.5,-544 1795.5,-544 1795.5,-550 1789.5,-556 1783.5,-556"/>
<text text-anchor="middle" x="1734" y="-540.8" font-family="Times,serif" font-size="14.00" fill="#000000">brutal.io</text>
<text text-anchor="middle" x="1734" y="-525.8" font-family="Times,serif" font-size="14.00" fill="#000000">Andre Almeida</text>
</g>
<!-- superhex.io -->
<g id="node48" class="node">
<title>superhex.io</title>
<path fill="#90caf9" stroke="#90caf9" d="M1337,-481C1337,-481 1261,-481 1261,-481 1255,-481 1249,-475 1249,-469 1249,-469 1249,-457 1249,-457 1249,-451 1255,-445 1261,-445 1261,-445 1337,-445 1337,-445 1343,-445 1349,-451 1349,-457 1349,-457 1349,-469 1349,-469 1349,-475 1343,-481 1337,-481"/>
<text text-anchor="middle" x="1299" y="-459.3" font-family="Times,serif" font-size="14.00" fill="#000000">superhex.io</text>
</g>
<!-- hexar.io&#45;&gt;superhex.io -->
<g id="edge43" class="edge">
<title>hexar.io&#45;&gt;superhex.io</title>
<path fill="none" stroke="#000000" d="M1299,-518.7079C1299,-510.4635 1299,-500.5376 1299,-491.3622"/>
<polygon fill="#000000" stroke="#000000" points="1302.5001,-491.0817 1299,-481.0817 1295.5001,-491.0818 1302.5001,-491.0817"/>
</g>
<!-- starve.io -->
<g id="node40" class="node">
<title>starve.io</title>
<path fill="#90caf9" stroke="#90caf9" d="M920,-556C920,-556 844,-556 844,-556 838,-556 832,-550 832,-544 832,-544 832,-530 832,-530 832,-524 838,-518 844,-518 844,-518 920,-518 920,-518 926,-518 932,-524 932,-530 932,-530 932,-544 932,-544 932,-550 926,-556 920,-556"/>
<text text-anchor="middle" x="882" y="-540.8" font-family="Times,serif" font-size="14.00" fill="#000000">starve.io</text>
<text text-anchor="middle" x="882" y="-525.8" font-family="Times,serif" font-size="14.00" fill="#000000">LapaMauve</text>
</g>
<!-- moomoo.io&#45;&gt;starve.io -->
<g id="edge27" class="edge">
<title>moomoo.io&#45;&gt;starve.io</title>
<path fill="none" stroke="#000000" d="M458.8328,-555.7112C488.0939,-562.98 522.9898,-570.4126 555,-574 648.1026,-584.4341 756.098,-566.3207 821.7085,-551.9503"/>
<polygon fill="#000000" stroke="#000000" points="822.8697,-555.2772 831.8659,-549.681 821.3434,-548.4456 822.8697,-555.2772"/>
</g>
<!-- zombs.io -->
<g id="node43" class="node">
<title>zombs.io</title>
<path fill="#90caf9" stroke="#90caf9" d="M532,-482C532,-482 476,-482 476,-482 470,-482 464,-476 464,-470 464,-470 464,-456 464,-456 464,-450 470,-444 476,-444 476,-444 532,-444 532,-444 538,-444 544,-450 544,-456 544,-456 544,-470 544,-470 544,-476 538,-482 532,-482"/>
<text text-anchor="middle" x="504" y="-466.8" font-family="Times,serif" font-size="14.00" fill="#000000">zombs.io</text>
<text text-anchor="middle" x="504" y="-451.8" font-family="Times,serif" font-size="14.00" fill="#000000">Yang Lui</text>
</g>
<!-- moomoo.io&#45;&gt;zombs.io -->
<g id="edge30" class="edge">
<title>moomoo.io&#45;&gt;zombs.io</title>
<path fill="none" stroke="#000000" d="M420.8428,-517.9432C434.713,-508.7789 451.516,-497.677 466.377,-487.8581"/>
<polygon fill="#000000" stroke="#000000" points="468.4517,-490.6822 474.8657,-482.2495 464.5929,-484.8419 468.4517,-490.6822"/>
</g>
<!-- foes.io -->
<g id="node50" class="node">
<title>foes.io</title>
<path fill="#90caf9" stroke="#90caf9" d="M243.5,-408C243.5,-408 134.5,-408 134.5,-408 128.5,-408 122.5,-402 122.5,-396 122.5,-396 122.5,-382 122.5,-382 122.5,-376 128.5,-370 134.5,-370 134.5,-370 243.5,-370 243.5,-370 249.5,-370 255.5,-376 255.5,-382 255.5,-382 255.5,-396 255.5,-396 255.5,-402 249.5,-408 243.5,-408"/>
<text text-anchor="middle" x="189" y="-392.8" font-family="Times,serif" font-size="14.00" fill="#000000">foes.io</text>
<text text-anchor="middle" x="189" y="-377.8" font-family="Times,serif" font-size="14.00" fill="#000000">Sydney de Vries</text>
</g>
<!-- moomoo.io&#45;&gt;foes.io -->
<g id="edge24" class="edge">
<title>moomoo.io&#45;&gt;foes.io</title>
<path fill="none" stroke="#000000" d="M336.7105,-517.9845C314.7734,-508.977 290.0496,-496.8934 270,-482 245.3352,-463.6783 222.8707,-436.6752 207.8898,-416.4802"/>
<polygon fill="#000000" stroke="#000000" points="210.6497,-414.3241 201.943,-408.2872 204.9846,-418.436 210.6497,-414.3241"/>
</g>
<!-- doomed.io -->
<g id="node53" class="node">
<title>doomed.io</title>
<path fill="#90caf9" stroke="#90caf9" d="M317,-334C317,-334 251,-334 251,-334 245,-334 239,-328 239,-322 239,-322 239,-308 239,-308 239,-302 245,-296 251,-296 251,-296 317,-296 317,-296 323,-296 329,-302 329,-308 329,-308 329,-322 329,-322 329,-328 323,-334 317,-334"/>
<text text-anchor="middle" x="284" y="-318.8" font-family="Times,serif" font-size="14.00" fill="#000000">doomed.io</text>
<text text-anchor="middle" x="284" y="-303.8" font-family="Times,serif" font-size="14.00" fill="#000000">Ginoda</text>
</g>
<!-- moomoo.io&#45;&gt;doomed.io -->
<g id="edge25" class="edge">
<title>moomoo.io&#45;&gt;doomed.io</title>
<path fill="none" stroke="#000000" d="M375.1114,-517.9363C354.8196,-493.9825 321.2354,-450.8046 303,-408 294.321,-387.6275 289.5184,-363.0186 286.9139,-344.2337"/>
<polygon fill="#000000" stroke="#000000" points="290.3716,-343.6777 285.6521,-334.1922 283.4263,-344.5505 290.3716,-343.6777"/>
</g>
<!-- surviv.io -->
<g id="node65" class="node">
<title>surviv.io</title>
<path fill="#fff176" stroke="#fff176" d="M492,-408C492,-408 324,-408 324,-408 318,-408 312,-402 312,-396 312,-396 312,-382 312,-382 312,-376 318,-370 324,-370 324,-370 492,-370 492,-370 498,-370 504,-376 504,-382 504,-382 504,-396 504,-396 504,-402 498,-408 492,-408"/>
<text text-anchor="middle" x="408" y="-392.8" font-family="Times,serif" font-size="14.00" fill="#000000">surviv.io</text>
<text text-anchor="middle" x="408" y="-377.8" font-family="Times,serif" font-size="14.00" fill="#000000">Justin Kim &amp; Nick Clark</text>
</g>
<!-- moomoo.io&#45;&gt;surviv.io -->
<g id="edge29" class="edge">
<title>moomoo.io&#45;&gt;surviv.io</title>
<path fill="none" stroke="#000000" d="M394.059,-517.9546C396.7801,-492.7839 401.6022,-448.1799 404.8003,-418.5976"/>
<polygon fill="#000000" stroke="#000000" points="408.3029,-418.7606 405.8981,-408.4423 401.3435,-418.0081 408.3029,-418.7606"/>
</g>
<!-- devast.io -->
<g id="node64" class="node">
<title>devast.io</title>
<path fill="#90caf9" stroke="#90caf9" d="M996,-112C996,-112 920,-112 920,-112 914,-112 908,-106 908,-100 908,-100 908,-86 908,-86 908,-80 914,-74 920,-74 920,-74 996,-74 996,-74 1002,-74 1008,-80 1008,-86 1008,-86 1008,-100 1008,-100 1008,-106 1002,-112 996,-112"/>
<text text-anchor="middle" x="958" y="-96.8" font-family="Times,serif" font-size="14.00" fill="#000000">devast.io</text>
<text text-anchor="middle" x="958" y="-81.8" font-family="Times,serif" font-size="14.00" fill="#000000">LapaMauve</text>
</g>
<!-- starve.io&#45;&gt;devast.io -->
<g id="edge28" class="edge">
<title>starve.io&#45;&gt;devast.io</title>
<path fill="none" stroke="#000000" d="M907.8967,-517.9388C919.1093,-508.3666 931.3851,-495.8601 939,-482 959.314,-445.0258 958,-431.1871 958,-389 958,-389 958,-389 958,-241 958,-199.8086 958,-152.1685 958,-122.3096"/>
<polygon fill="#000000" stroke="#000000" points="961.5001,-122.1583 958,-112.1583 954.5001,-122.1583 961.5001,-122.1583"/>
</g>
<!-- stabby.io -->
<g id="node42" class="node">
<title>stabby.io</title>
<path fill="#90caf9" stroke="#90caf9" d="M1740,-482C1740,-482 1684,-482 1684,-482 1678,-482 1672,-476 1672,-470 1672,-470 1672,-456 1672,-456 1672,-450 1678,-444 1684,-444 1684,-444 1740,-444 1740,-444 1746,-444 1752,-450 1752,-456 1752,-456 1752,-470 1752,-470 1752,-476 1746,-482 1740,-482"/>
<text text-anchor="middle" x="1712" y="-466.8" font-family="Times,serif" font-size="14.00" fill="#000000">stabby.io</text>
<text text-anchor="middle" x="1712" y="-451.8" font-family="Times,serif" font-size="14.00" fill="#000000">Arcan</text>
</g>
<!-- zombsroyale.io -->
<g id="node67" class="node">
<title>zombsroyale.io</title>
<path fill="#fff176" stroke="#fff176" d="M582,-260C582,-260 482,-260 482,-260 476,-260 470,-254 470,-248 470,-248 470,-234 470,-234 470,-228 476,-222 482,-222 482,-222 582,-222 582,-222 588,-222 594,-228 594,-234 594,-234 594,-248 594,-248 594,-254 588,-260 582,-260"/>
<text text-anchor="middle" x="532" y="-244.8" font-family="Times,serif" font-size="14.00" fill="#000000">zombsroyale.io</text>
<text text-anchor="middle" x="532" y="-229.8" font-family="Times,serif" font-size="14.00" fill="#000000">Yang Lui</text>
</g>
<!-- zombs.io&#45;&gt;zombsroyale.io -->
<g id="edge31" class="edge">
<title>zombs.io&#45;&gt;zombsroyale.io</title>
<path fill="none" stroke="#000000" d="M507.3536,-443.9445C509.1547,-433.3738 511.3393,-419.98 513,-408 519.6884,-359.75 525.7331,-303.4154 529.1295,-270.0565"/>
<polygon fill="#000000" stroke="#000000" points="532.6153,-270.3731 530.1367,-260.0723 525.6506,-269.6705 532.6153,-270.3731"/>
</g>
<!-- superspin.io -->
<g id="node45" class="node">
<title>superspin.io</title>
<path fill="#90caf9" stroke="#90caf9" d="M918,-482C918,-482 838,-482 838,-482 832,-482 826,-476 826,-470 826,-470 826,-456 826,-456 826,-450 832,-444 838,-444 838,-444 918,-444 918,-444 924,-444 930,-450 930,-456 930,-456 930,-470 930,-470 930,-476 924,-482 918,-482"/>
<text text-anchor="middle" x="878" y="-466.8" font-family="Times,serif" font-size="14.00" fill="#000000">superspin.io</text>
<text text-anchor="middle" x="878" y="-451.8" font-family="Times,serif" font-size="14.00" fill="#000000">Jetti Games</text>
</g>
<!-- spinz.io&#45;&gt;superspin.io -->
<g id="edge39" class="edge">
<title>spinz.io&#45;&gt;superspin.io</title>
<path fill="none" stroke="#000000" d="M657.3253,-482.1775C667.3594,-489.2368 679.617,-496.3866 692,-500 741.0648,-514.3174 757.3563,-512.1593 807,-500 818.3817,-497.2123 829.9669,-492.248 840.3873,-486.8431"/>
<polygon fill="#000000" stroke="#000000" points="842.1121,-489.8891 849.2103,-482.0235 838.7564,-483.7459 842.1121,-489.8891"/>
</g>
<!-- fisp.io -->
<g id="node46" class="node">
<title>fisp.io</title>
<path fill="#90caf9" stroke="#90caf9" d="M795.5,-482C795.5,-482 704.5,-482 704.5,-482 698.5,-482 692.5,-476 692.5,-470 692.5,-470 692.5,-456 692.5,-456 692.5,-450 698.5,-444 704.5,-444 704.5,-444 795.5,-444 795.5,-444 801.5,-444 807.5,-450 807.5,-456 807.5,-456 807.5,-470 807.5,-470 807.5,-476 801.5,-482 795.5,-482"/>
<text text-anchor="middle" x="750" y="-466.8" font-family="Times,serif" font-size="14.00" fill="#000000">fisp.io</text>
<text text-anchor="middle" x="750" y="-451.8" font-family="Times,serif" font-size="14.00" fill="#000000">Clown Games</text>
</g>
<!-- spinz.io&#45;&gt;fisp.io -->
<g id="edge38" class="edge">
<title>spinz.io&#45;&gt;fisp.io</title>
<path fill="none" stroke="#000000" d="M674.3281,-463C676.9577,-463 679.5872,-463 682.2168,-463"/>
<polygon fill="#000000" stroke="#000000" points="682.3593,-466.5001 692.3593,-463 682.3593,-459.5001 682.3593,-466.5001"/>
</g>
<!-- goons.io -->
<g id="node49" class="node">
<title>goons.io</title>
<path fill="#90caf9" stroke="#90caf9" d="M1549.5,-408C1549.5,-408 1458.5,-408 1458.5,-408 1452.5,-408 1446.5,-402 1446.5,-396 1446.5,-396 1446.5,-382 1446.5,-382 1446.5,-376 1452.5,-370 1458.5,-370 1458.5,-370 1549.5,-370 1549.5,-370 1555.5,-370 1561.5,-376 1561.5,-382 1561.5,-382 1561.5,-396 1561.5,-396 1561.5,-402 1555.5,-408 1549.5,-408"/>
<text text-anchor="middle" x="1504" y="-392.8" font-family="Times,serif" font-size="14.00" fill="#000000">goons.io</text>
<text text-anchor="middle" x="1504" y="-377.8" font-family="Times,serif" font-size="14.00" fill="#000000">Clown Games</text>
</g>
<!-- pikes.io&#45;&gt;goons.io -->
<g id="edge51" class="edge">
<title>pikes.io&#45;&gt;goons.io</title>
<path fill="none" stroke="#000000" d="M1504,-443.9432C1504,-436.1493 1504,-426.9538 1504,-418.3381"/>
<polygon fill="#000000" stroke="#000000" points="1507.5001,-418.2494 1504,-408.2495 1500.5001,-418.2495 1507.5001,-418.2494"/>
</g>
<!-- knuckol.club -->
<g id="node59" class="node">
<title>knuckol.club</title>
<path fill="#90caf9" stroke="#90caf9" d="M1546.5,-260C1546.5,-260 1461.5,-260 1461.5,-260 1455.5,-260 1449.5,-254 1449.5,-248 1449.5,-248 1449.5,-234 1449.5,-234 1449.5,-228 1455.5,-222 1461.5,-222 1461.5,-222 1546.5,-222 1546.5,-222 1552.5,-222 1558.5,-228 1558.5,-234 1558.5,-234 1558.5,-248 1558.5,-248 1558.5,-254 1552.5,-260 1546.5,-260"/>
<text text-anchor="middle" x="1504" y="-244.8" font-family="Times,serif" font-size="14.00" fill="#000000">knuckol.club</text>
<text text-anchor="middle" x="1504" y="-229.8" font-family="Times,serif" font-size="14.00" fill="#000000">Erigato</text>
</g>
<!-- goons.io&#45;&gt;knuckol.club -->
<g id="edge52" class="edge">
<title>goons.io&#45;&gt;knuckol.club</title>
<path fill="none" stroke="#000000" d="M1504,-369.9546C1504,-344.7839 1504,-300.1799 1504,-270.5976"/>
<polygon fill="#000000" stroke="#000000" points="1507.5001,-270.4423 1504,-260.4423 1500.5001,-270.4423 1507.5001,-270.4423"/>
</g>
<!-- nightpoint.io -->
<g id="node51" class="node">
<title>nightpoint.io</title>
<path fill="#90caf9" stroke="#90caf9" d="M1876,-408C1876,-408 1792,-408 1792,-408 1786,-408 1780,-402 1780,-396 1780,-396 1780,-382 1780,-382 1780,-376 1786,-370 1792,-370 1792,-370 1876,-370 1876,-370 1882,-370 1888,-376 1888,-382 1888,-382 1888,-396 1888,-396 1888,-402 1882,-408 1876,-408"/>
<text text-anchor="middle" x="1834" y="-392.8" font-family="Times,serif" font-size="14.00" fill="#000000">nightpoint.io</text>
<text text-anchor="middle" x="1834" y="-377.8" font-family="Times,serif" font-size="14.00" fill="#000000">Sarunas</text>
</g>
<!-- shootem.io -->
<g id="node58" class="node">
<title>shootem.io</title>
<path fill="#90caf9" stroke="#90caf9" d="M1814,-260C1814,-260 1684,-260 1684,-260 1678,-260 1672,-254 1672,-248 1672,-248 1672,-234 1672,-234 1672,-228 1678,-222 1684,-222 1684,-222 1814,-222 1814,-222 1820,-222 1826,-228 1826,-234 1826,-234 1826,-248 1826,-248 1826,-254 1820,-260 1814,-260"/>
<text text-anchor="middle" x="1749" y="-244.8" font-family="Times,serif" font-size="14.00" fill="#000000">shootem.io</text>
<text text-anchor="middle" x="1749" y="-229.8" font-family="Times,serif" font-size="14.00" fill="#000000">Mathew Matakovic</text>
</g>
<!-- nightpoint.io&#45;&gt;shootem.io -->
<g id="edge34" class="edge">
<title>nightpoint.io&#45;&gt;shootem.io</title>
<path fill="none" stroke="#000000" d="M1802.9809,-369.9811C1790.2757,-360.6583 1776.5715,-348.3386 1768,-334 1756.4423,-314.666 1751.8101,-289.4651 1750.0028,-270.1743"/>
<polygon fill="#000000" stroke="#000000" points="1753.4889,-269.8557 1749.2633,-260.14 1746.5078,-270.3702 1753.4889,-269.8557"/>
</g>
<!-- bruh.io -->
<g id="node66" class="node">
<title>bruh.io</title>
<path fill="#fff176" stroke="#fff176" d="M1878.5,-334C1878.5,-334 1789.5,-334 1789.5,-334 1783.5,-334 1777.5,-328 1777.5,-322 1777.5,-322 1777.5,-308 1777.5,-308 1777.5,-302 1783.5,-296 1789.5,-296 1789.5,-296 1878.5,-296 1878.5,-296 1884.5,-296 1890.5,-302 1890.5,-308 1890.5,-308 1890.5,-322 1890.5,-322 1890.5,-328 1884.5,-334 1878.5,-334"/>
<text text-anchor="middle" x="1834" y="-318.8" font-family="Times,serif" font-size="14.00" fill="#000000">bruh.io</text>
<text text-anchor="middle" x="1834" y="-303.8" font-family="Times,serif" font-size="14.00" fill="#000000">Bitfox Games</text>
</g>
<!-- nightpoint.io&#45;&gt;bruh.io -->
<g id="edge33" class="edge">
<title>nightpoint.io&#45;&gt;bruh.io</title>
<path fill="none" stroke="#000000" d="M1834,-369.9432C1834,-362.1493 1834,-352.9538 1834,-344.3381"/>
<polygon fill="#000000" stroke="#000000" points="1837.5001,-344.2494 1834,-334.2495 1830.5001,-344.2495 1837.5001,-344.2494"/>
</g>
<!-- battlepoint.io -->
<g id="node69" class="node">
<title>battlepoint.io</title>
<path fill="#fff176" stroke="#fff176" d="M1937.5,-112C1937.5,-112 1848.5,-112 1848.5,-112 1842.5,-112 1836.5,-106 1836.5,-100 1836.5,-100 1836.5,-86 1836.5,-86 1836.5,-80 1842.5,-74 1848.5,-74 1848.5,-74 1937.5,-74 1937.5,-74 1943.5,-74 1949.5,-80 1949.5,-86 1949.5,-86 1949.5,-100 1949.5,-100 1949.5,-106 1943.5,-112 1937.5,-112"/>
<text text-anchor="middle" x="1893" y="-96.8" font-family="Times,serif" font-size="14.00" fill="#000000">battlepoint.io</text>
<text text-anchor="middle" x="1893" y="-81.8" font-family="Times,serif" font-size="14.00" fill="#000000">Sarunas</text>
</g>
<!-- nightpoint.io&#45;&gt;battlepoint.io -->
<g id="edge32" class="edge">
<title>nightpoint.io&#45;&gt;battlepoint.io</title>
<path fill="none" stroke="#000000" d="M1866.9771,-369.881C1879.4304,-360.7579 1892.2205,-348.6172 1899,-334 1931.5793,-263.7556 1913.9357,-169.1721 1901.6446,-122.1155"/>
<polygon fill="#000000" stroke="#000000" points="1904.973,-121.0167 1898.9718,-112.2854 1898.2183,-122.8534 1904.973,-121.0167"/>
</g>
<!-- doomed2.io -->
<g id="node60" class="node">
<title>doomed2.io</title>
<path fill="#90caf9" stroke="#90caf9" d="M321.5,-260C321.5,-260 246.5,-260 246.5,-260 240.5,-260 234.5,-254 234.5,-248 234.5,-248 234.5,-234 234.5,-234 234.5,-228 240.5,-222 246.5,-222 246.5,-222 321.5,-222 321.5,-222 327.5,-222 333.5,-228 333.5,-234 333.5,-234 333.5,-248 333.5,-248 333.5,-254 327.5,-260 321.5,-260"/>
<text text-anchor="middle" x="284" y="-244.8" font-family="Times,serif" font-size="14.00" fill="#000000">doomed2.io</text>
<text text-anchor="middle" x="284" y="-229.8" font-family="Times,serif" font-size="14.00" fill="#000000">Ginoda</text>
</g>
<!-- doomed.io&#45;&gt;doomed2.io -->
<g id="edge26" class="edge">
<title>doomed.io&#45;&gt;doomed2.io</title>
<path fill="none" stroke="#000000" d="M284,-295.9432C284,-288.1493 284,-278.9538 284,-270.3381"/>
<polygon fill="#000000" stroke="#000000" points="287.5001,-270.2494 284,-260.2495 280.5001,-270.2495 287.5001,-270.2494"/>
</g>
<!-- shellshock.io -->
<g id="node55" class="node">
<title>shellshock.io</title>
<path fill="#90caf9" stroke="#90caf9" d="M2045,-333C2045,-333 1959,-333 1959,-333 1953,-333 1947,-327 1947,-321 1947,-321 1947,-309 1947,-309 1947,-303 1953,-297 1959,-297 1959,-297 2045,-297 2045,-297 2051,-297 2057,-303 2057,-309 2057,-309 2057,-321 2057,-321 2057,-327 2051,-333 2045,-333"/>
<text text-anchor="middle" x="2002" y="-311.3" font-family="Times,serif" font-size="14.00" fill="#000000">shellshock.io</text>
</g>
<!-- krunker.io -->
<g id="node63" class="node">
<title>krunker.io</title>
<path fill="#90caf9" stroke="#90caf9" d="M2116.5,-186C2116.5,-186 2007.5,-186 2007.5,-186 2001.5,-186 1995.5,-180 1995.5,-174 1995.5,-174 1995.5,-160 1995.5,-160 1995.5,-154 2001.5,-148 2007.5,-148 2007.5,-148 2116.5,-148 2116.5,-148 2122.5,-148 2128.5,-154 2128.5,-160 2128.5,-160 2128.5,-174 2128.5,-174 2128.5,-180 2122.5,-186 2116.5,-186"/>
<text text-anchor="middle" x="2062" y="-170.8" font-family="Times,serif" font-size="14.00" fill="#000000">krunker.io</text>
<text text-anchor="middle" x="2062" y="-155.8" font-family="Times,serif" font-size="14.00" fill="#000000">Sydney de Vries</text>
</g>
<!-- shellshock.io&#45;&gt;krunker.io -->
<g id="edge47" class="edge">
<title>shellshock.io&#45;&gt;krunker.io</title>
<path fill="none" stroke="#000000" d="M2009.3572,-296.8523C2019.5908,-271.6094 2038.2285,-225.6363 2050.3593,-195.7138"/>
<polygon fill="#000000" stroke="#000000" points="2053.6887,-196.817 2054.2022,-186.2346 2047.2015,-194.187 2053.6887,-196.817"/>
</g>
<!-- warscrap.io -->
<g id="node56" class="node">
<title>warscrap.io</title>
<path fill="#90caf9" stroke="#90caf9" d="M2164.5,-334C2164.5,-334 2087.5,-334 2087.5,-334 2081.5,-334 2075.5,-328 2075.5,-322 2075.5,-322 2075.5,-308 2075.5,-308 2075.5,-302 2081.5,-296 2087.5,-296 2087.5,-296 2164.5,-296 2164.5,-296 2170.5,-296 2176.5,-302 2176.5,-308 2176.5,-308 2176.5,-322 2176.5,-322 2176.5,-328 2170.5,-334 2164.5,-334"/>
<text text-anchor="middle" x="2126" y="-318.8" font-family="Times,serif" font-size="14.00" fill="#000000">warscrap.io</text>
<text text-anchor="middle" x="2126" y="-303.8" font-family="Times,serif" font-size="14.00" fill="#000000">Evil Noob</text>
</g>
<!-- warscrap.io&#45;&gt;krunker.io -->
<g id="edge46" class="edge">
<title>warscrap.io&#45;&gt;krunker.io</title>
<path fill="none" stroke="#000000" d="M2117.7641,-295.9546C2106.7841,-270.5631 2087.2523,-225.3959 2074.4638,-195.8226"/>
<polygon fill="#000000" stroke="#000000" points="2077.5892,-194.2317 2070.4075,-186.4423 2071.1641,-197.0101 2077.5892,-194.2317"/>
</g>
<!-- airma.sh -->
<g id="node57" class="node">
<title>airma.sh</title>
<path fill="#90caf9" stroke="#90caf9" d="M2278.5,-333C2278.5,-333 2223.5,-333 2223.5,-333 2217.5,-333 2211.5,-327 2211.5,-321 2211.5,-321 2211.5,-309 2211.5,-309 2211.5,-303 2217.5,-297 2223.5,-297 2223.5,-297 2278.5,-297 2278.5,-297 2284.5,-297 2290.5,-303 2290.5,-309 2290.5,-309 2290.5,-321 2290.5,-321 2290.5,-327 2284.5,-333 2278.5,-333"/>
<text text-anchor="middle" x="2251" y="-311.3" font-family="Times,serif" font-size="14.00" fill="#000000">airma.sh</text>
</g>
<!-- skyroyale.io -->
<g id="node68" class="node">
<title>skyroyale.io</title>
<path fill="#fff176" stroke="#fff176" d="M2296.5,-186C2296.5,-186 2205.5,-186 2205.5,-186 2199.5,-186 2193.5,-180 2193.5,-174 2193.5,-174 2193.5,-160 2193.5,-160 2193.5,-154 2199.5,-148 2205.5,-148 2205.5,-148 2296.5,-148 2296.5,-148 2302.5,-148 2308.5,-154 2308.5,-160 2308.5,-160 2308.5,-174 2308.5,-174 2308.5,-180 2302.5,-186 2296.5,-186"/>
<text text-anchor="middle" x="2251" y="-170.8" font-family="Times,serif" font-size="14.00" fill="#000000">skyroyale.io</text>
<text text-anchor="middle" x="2251" y="-155.8" font-family="Times,serif" font-size="14.00" fill="#000000">Clown Games</text>
</g>
<!-- airma.sh&#45;&gt;skyroyale.io -->
<g id="edge53" class="edge">
<title>airma.sh&#45;&gt;skyroyale.io</title>
<path fill="none" stroke="#000000" d="M2251,-296.8523C2251,-271.8289 2251,-226.4343 2251,-196.498"/>
<polygon fill="#000000" stroke="#000000" points="2254.5001,-196.2345 2251,-186.2346 2247.5001,-196.2346 2254.5001,-196.2345"/>
</g>
<!-- bruh.io&#45;&gt;battlepoint.io -->
<g id="edge35" class="edge">
<title>bruh.io&#45;&gt;battlepoint.io</title>
<path fill="none" stroke="#000000" d="M1839.1327,-295.6873C1849.5106,-256.6382 1873.0389,-168.1078 1885.2782,-122.0551"/>
<polygon fill="#000000" stroke="#000000" points="1888.7352,-122.6735 1887.9212,-112.11 1881.9701,-120.8755 1888.7352,-122.6735"/>
</g>
<!-- buildroyale.io -->
<g id="node70" class="node">
<title>buildroyale.io</title>
<path fill="#fff176" stroke="#fff176" d="M264,-38C264,-38 134,-38 134,-38 128,-38 122,-32 122,-26 122,-26 122,-12 122,-12 122,-6 128,0 134,0 134,0 264,0 264,0 270,0 276,-6 276,-12 276,-12 276,-26 276,-26 276,-32 270,-38 264,-38"/>
<text text-anchor="middle" x="199" y="-22.8" font-family="Times,serif" font-size="14.00" fill="#000000">buildroyale.io</text>
<text text-anchor="middle" x="199" y="-7.8" font-family="Times,serif" font-size="14.00" fill="#000000">Mathew Matakovic</text>
</g>
</g>
</svg>
