<?xml version="1.0" encoding="UTF-8" standalone="no"?>
<!DOCTYPE svg PUBLIC "-//W3C//DTD SVG 1.1//EN"
 "http://www.w3.org/Graphics/SVG/1.1/DTD/svg11.dtd">
<!-- Generated by graphviz version 2.44.0 (0)
 -->
<!-- Title: iogames Pages: 1 -->
<svg width="3217pt" height="1870pt"
 viewBox="0.00 0.00 3217.00 1870.00" xmlns="http://www.w3.org/2000/svg" xmlns:xlink="http://www.w3.org/1999/xlink">
<g id="graph0" class="graph" transform="scale(1 1) rotate(0) translate(4 1866)">
<title>iogames</title>
<polygon fill="white" stroke="transparent" points="-4,4 -4,-1866 3213,-1866 3213,4 -4,4"/>
<text text-anchor="start" x="1526" y="-1847.8" font-family="Times,serif" font-weight="bold" text-decoration="underline" font-size="14.00">History of .io games</text>
<text text-anchor="start" x="1537.5" y="-1819.8" font-family="Times,serif" font-size="14.00">by </text>
<text text-anchor="start" x="1559.5" y="-1819.8" font-family="Times,serif" font-weight="bold" font-size="14.00">Julien Mourer</text>
<text text-anchor="start" x="1497.5" y="-1805.8" font-family="Times,serif" font-size="14.00">Licensed under the CC BY 4.0</text>
<text text-anchor="start" x="1454.5" y="-1791.8" font-family="Times,serif" font-size="14.00">https://github.com/getkey/io&#45;game&#45;history</text>
<!-- 2009q3 -->
<g id="node1" class="node">
<title>2009q3</title>
<text text-anchor="middle" x="51.5" y="-1761" font-family="Times,serif" font-size="20.00">Q3 2009</text>
</g>
<!-- ... -->
<g id="node24" class="node">
<title>...</title>
<text text-anchor="middle" x="51.5" y="-1689" font-family="Times,serif" font-size="20.00">...</text>
</g>
<!-- 2009q3&#45;&gt;... -->
<!-- 2014q4 -->
<g id="node2" class="node">
<title>2014q4</title>
<text text-anchor="middle" x="51.5" y="-1616" font-family="Times,serif" font-size="20.00">Q4 2014</text>
</g>
<!-- 2015q1 -->
<g id="node3" class="node">
<title>2015q1</title>
<text text-anchor="middle" x="51.5" y="-1543" font-family="Times,serif" font-size="20.00">Q1 2015</text>
</g>
<!-- 2014q4&#45;&gt;2015q1 -->
<!-- 2015q2 -->
<g id="node4" class="node">
<title>2015q2</title>
<text text-anchor="middle" x="51.5" y="-1470" font-family="Times,serif" font-size="20.00">Q2 2015</text>
</g>
<!-- 2015q1&#45;&gt;2015q2 -->
<!-- 2015q3 -->
<g id="node5" class="node">
<title>2015q3</title>
<text text-anchor="middle" x="51.5" y="-1397" font-family="Times,serif" font-size="20.00">Q3 2015</text>
</g>
<!-- 2015q2&#45;&gt;2015q3 -->
<!-- 2015q4 -->
<g id="node6" class="node">
<title>2015q4</title>
<text text-anchor="middle" x="51.5" y="-1324" font-family="Times,serif" font-size="20.00">Q4 2015</text>
</g>
<!-- 2015q3&#45;&gt;2015q4 -->
<!-- 2016q1 -->
<g id="node7" class="node">
<title>2016q1</title>
<text text-anchor="middle" x="51.5" y="-1250" font-family="Times,serif" font-size="20.00">Q1 2016</text>
</g>
<!-- 2015q4&#45;&gt;2016q1 -->
<!-- 2016q2 -->
<g id="node8" class="node">
<title>2016q2</title>
<text text-anchor="middle" x="51.5" y="-1176" font-family="Times,serif" font-size="20.00">Q2 2016</text>
</g>
<!-- 2016q1&#45;&gt;2016q2 -->
<!-- 2016q3 -->
<g id="node9" class="node">
<title>2016q3</title>
<text text-anchor="middle" x="51.5" y="-1102" font-family="Times,serif" font-size="20.00">Q3 2016</text>
</g>
<!-- 2016q2&#45;&gt;2016q3 -->
<!-- 2016q4 -->
<g id="node10" class="node">
<title>2016q4</title>
<text text-anchor="middle" x="51.5" y="-1020.5" font-family="Times,serif" font-size="20.00">Q4 2016</text>
</g>
<!-- 2016q3&#45;&gt;2016q4 -->
<!-- 2017q1 -->
<g id="node11" class="node">
<title>2017q1</title>
<text text-anchor="middle" x="51.5" y="-939" font-family="Times,serif" font-size="20.00">Q1 2017</text>
</g>
<!-- 2016q4&#45;&gt;2017q1 -->
<!-- 2017q2 -->
<g id="node12" class="node">
<title>2017q2</title>
<text text-anchor="middle" x="51.5" y="-865" font-family="Times,serif" font-size="20.00">Q2 2017</text>
</g>
<!-- 2017q1&#45;&gt;2017q2 -->
<!-- 2017q3 -->
<g id="node13" class="node">
<title>2017q3</title>
<text text-anchor="middle" x="51.5" y="-783.5" font-family="Times,serif" font-size="20.00">Q3 2017</text>
</g>
<!-- 2017q2&#45;&gt;2017q3 -->
<!-- 2017q4 -->
<g id="node14" class="node">
<title>2017q4</title>
<text text-anchor="middle" x="51.5" y="-694.5" font-family="Times,serif" font-size="20.00">Q4 2017</text>
</g>
<!-- 2017q3&#45;&gt;2017q4 -->
<!-- 2018q1 -->
<g id="node15" class="node">
<title>2018q1</title>
<text text-anchor="middle" x="51.5" y="-613" font-family="Times,serif" font-size="20.00">Q1 2018</text>
</g>
<!-- 2017q4&#45;&gt;2018q1 -->
<!-- 2018q2 -->
<g id="node16" class="node">
<title>2018q2</title>
<text text-anchor="middle" x="51.5" y="-539" font-family="Times,serif" font-size="20.00">Q2 2018</text>
</g>
<!-- 2018q1&#45;&gt;2018q2 -->
<!-- 2018q3 -->
<g id="node17" class="node">
<title>2018q3</title>
<text text-anchor="middle" x="51.5" y="-457.5" font-family="Times,serif" font-size="20.00">Q3 2018</text>
</g>
<!-- 2018q2&#45;&gt;2018q3 -->
<!-- 2018q4 -->
<g id="node18" class="node">
<title>2018q4</title>
<text text-anchor="middle" x="51.5" y="-376" font-family="Times,serif" font-size="20.00">Q4 2018</text>
</g>
<!-- 2018q3&#45;&gt;2018q4 -->
<!-- 2019q1 -->
<g id="node19" class="node">
<title>2019q1</title>
<text text-anchor="middle" x="51.5" y="-303" font-family="Times,serif" font-size="20.00">Q1 2019</text>
</g>
<!-- 2018q4&#45;&gt;2019q1 -->
<!-- 2019q2 -->
<g id="node20" class="node">
<title>2019q2</title>
<text text-anchor="middle" x="51.5" y="-231" font-family="Times,serif" font-size="20.00">Q2 2019</text>
</g>
<!-- 2019q1&#45;&gt;2019q2 -->
<!-- 2019q3 -->
<g id="node21" class="node">
<title>2019q3</title>
<text text-anchor="middle" x="51.5" y="-159" font-family="Times,serif" font-size="20.00">Q3 2019</text>
</g>
<!-- 2019q2&#45;&gt;2019q3 -->
<!-- 2019q4 -->
<g id="node22" class="node">
<title>2019q4</title>
<text text-anchor="middle" x="51.5" y="-87" font-family="Times,serif" font-size="20.00">Q4 2019</text>
</g>
<!-- 2019q3&#45;&gt;2019q4 -->
<!-- 2020q1 -->
<g id="node23" class="node">
<title>2020q1</title>
<text text-anchor="middle" x="51.5" y="-14" font-family="Times,serif" font-size="20.00">Q1 2020</text>
</g>
<!-- 2019q4&#45;&gt;2020q1 -->
<!-- ...&#45;&gt;2014q4 -->
<!-- pinturillo.com -->
<g id="node25" class="node">
<title>pinturillo.com</title>
<path fill="#e1fa91" stroke="#e1fa91" d="M225.5,-1784C225.5,-1784 133.5,-1784 133.5,-1784 127.5,-1784 121.5,-1778 121.5,-1772 121.5,-1772 121.5,-1760 121.5,-1760 121.5,-1754 127.5,-1748 133.5,-1748 133.5,-1748 225.5,-1748 225.5,-1748 231.5,-1748 237.5,-1754 237.5,-1760 237.5,-1760 237.5,-1772 237.5,-1772 237.5,-1778 231.5,-1784 225.5,-1784"/>
<text text-anchor="middle" x="179.5" y="-1762.3" font-family="Times,serif" font-size="14.00">pinturillo.com</text>
</g>
<!-- pinturillo2.com -->
<g id="node26" class="node">
<title>pinturillo2.com</title>
<path fill="#e1fa91" stroke="#e1fa91" d="M369,-1784C369,-1784 268,-1784 268,-1784 262,-1784 256,-1778 256,-1772 256,-1772 256,-1760 256,-1760 256,-1754 262,-1748 268,-1748 268,-1748 369,-1748 369,-1748 375,-1748 381,-1754 381,-1760 381,-1760 381,-1772 381,-1772 381,-1778 375,-1784 369,-1784"/>
<text text-anchor="middle" x="318.5" y="-1762.3" font-family="Times,serif" font-size="14.00">pinturillo2.com</text>
</g>
<!-- pinturillo.com&#45;&gt;pinturillo2.com -->
<g id="edge58" class="edge">
<title>pinturillo.com&#45;&gt;pinturillo2.com</title>
<path fill="none" stroke="black" d="M237.6,-1766C240.37,-1766 243.13,-1766 245.9,-1766"/>
<polygon fill="black" stroke="black" points="245.93,-1769.5 255.93,-1766 245.93,-1762.5 245.93,-1769.5"/>
</g>
<!-- drawthis.io -->
<g id="node45" class="node">
<title>drawthis.io</title>
<path fill="#90caf9" stroke="#90caf9" d="M278,-1125C278,-1125 205,-1125 205,-1125 199,-1125 193,-1119 193,-1113 193,-1113 193,-1101 193,-1101 193,-1095 199,-1089 205,-1089 205,-1089 278,-1089 278,-1089 284,-1089 290,-1095 290,-1101 290,-1101 290,-1113 290,-1113 290,-1119 284,-1125 278,-1125"/>
<text text-anchor="middle" x="241.5" y="-1103.3" font-family="Times,serif" font-size="14.00">drawthis.io</text>
</g>
<!-- pinturillo2.com&#45;&gt;drawthis.io -->
<g id="edge59" class="edge">
<title>pinturillo2.com&#45;&gt;drawthis.io</title>
<path fill="none" stroke="black" d="M306.69,-1747.83C289.99,-1721.83 261.5,-1670.37 261.5,-1622 261.5,-1622 261.5,-1622 261.5,-1254 261.5,-1212.3 253.39,-1164.52 247.5,-1135.3"/>
<polygon fill="black" stroke="black" points="250.91,-1134.5 245.45,-1125.42 244.06,-1135.93 250.91,-1134.5"/>
</g>
<!-- skribbl.io -->
<g id="node56" class="node">
<title>skribbl.io</title>
<path fill="#90caf9" stroke="#90caf9" d="M348,-963C348,-963 289,-963 289,-963 283,-963 277,-957 277,-951 277,-951 277,-937 277,-937 277,-931 283,-925 289,-925 289,-925 348,-925 348,-925 354,-925 360,-931 360,-937 360,-937 360,-951 360,-951 360,-957 354,-963 348,-963"/>
<text text-anchor="middle" x="318.5" y="-947.8" font-family="Times,serif" font-size="14.00">skribbl.io</text>
<text text-anchor="middle" x="318.5" y="-932.8" font-family="Times,serif" font-size="14.00">mel</text>
</g>
<!-- pinturillo2.com&#45;&gt;skribbl.io -->
<g id="edge61" class="edge">
<title>pinturillo2.com&#45;&gt;skribbl.io</title>
<path fill="none" stroke="black" d="M318.5,-1747.83C318.5,-1720.98 318.5,-1667.43 318.5,-1622 318.5,-1622 318.5,-1622 318.5,-1106 318.5,-1059.54 318.5,-1005.54 318.5,-973.38"/>
<polygon fill="black" stroke="black" points="322,-973.35 318.5,-963.35 315,-973.35 322,-973.35"/>
</g>
<!-- gartic.io -->
<g id="node65" class="node">
<title>gartic.io</title>
<path fill="#90caf9" stroke="#90caf9" d="M414.5,-807.5C414.5,-807.5 362.5,-807.5 362.5,-807.5 356.5,-807.5 350.5,-801.5 350.5,-795.5 350.5,-795.5 350.5,-781.5 350.5,-781.5 350.5,-775.5 356.5,-769.5 362.5,-769.5 362.5,-769.5 414.5,-769.5 414.5,-769.5 420.5,-769.5 426.5,-775.5 426.5,-781.5 426.5,-781.5 426.5,-795.5 426.5,-795.5 426.5,-801.5 420.5,-807.5 414.5,-807.5"/>
<text text-anchor="middle" x="388.5" y="-792.3" font-family="Times,serif" font-size="14.00">gartic.io</text>
<text text-anchor="middle" x="388.5" y="-777.3" font-family="Times,serif" font-size="14.00">Gartic</text>
</g>
<!-- pinturillo2.com&#45;&gt;gartic.io -->
<g id="edge62" class="edge">
<title>pinturillo2.com&#45;&gt;gartic.io</title>
<path fill="none" stroke="black" d="M333.35,-1747.83C353.89,-1722.24 388.5,-1671.75 388.5,-1622 388.5,-1622 388.5,-1622 388.5,-943 388.5,-899.38 388.5,-848.78 388.5,-817.96"/>
<polygon fill="black" stroke="black" points="392,-817.93 388.5,-807.93 385,-817.93 392,-817.93"/>
</g>
<!-- cursors.io -->
<g id="node27" class="node">
<title>cursors.io</title>
<path fill="#90caf9" stroke="#90caf9" d="M558,-1640C558,-1640 429,-1640 429,-1640 423,-1640 417,-1634 417,-1628 417,-1628 417,-1614 417,-1614 417,-1608 423,-1602 429,-1602 429,-1602 558,-1602 558,-1602 564,-1602 570,-1608 570,-1614 570,-1614 570,-1628 570,-1628 570,-1634 564,-1640 558,-1640"/>
<text text-anchor="middle" x="493.5" y="-1624.8" font-family="Times,serif" font-size="14.00">cursors.io</text>
<text text-anchor="middle" x="493.5" y="-1609.8" font-family="Times,serif" font-size="14.00">Matheus Valadares</text>
</g>
<!-- voar.io -->
<g id="node28" class="node">
<title>voar.io</title>
<path fill="#90caf9" stroke="#90caf9" d="M729,-1640C729,-1640 600,-1640 600,-1640 594,-1640 588,-1634 588,-1628 588,-1628 588,-1614 588,-1614 588,-1608 594,-1602 600,-1602 600,-1602 729,-1602 729,-1602 735,-1602 741,-1608 741,-1614 741,-1614 741,-1628 741,-1628 741,-1634 735,-1640 729,-1640"/>
<text text-anchor="middle" x="664.5" y="-1624.8" font-family="Times,serif" font-size="14.00">voar.io</text>
<text text-anchor="middle" x="664.5" y="-1609.8" font-family="Times,serif" font-size="14.00">Matheus Valadares</text>
</g>
<!-- agar.io -->
<g id="node29" class="node">
<title>agar.io</title>
<path fill="#90caf9" stroke="#90caf9" d="M936,-1494C936,-1494 807,-1494 807,-1494 801,-1494 795,-1488 795,-1482 795,-1482 795,-1468 795,-1468 795,-1462 801,-1456 807,-1456 807,-1456 936,-1456 936,-1456 942,-1456 948,-1462 948,-1468 948,-1468 948,-1482 948,-1482 948,-1488 942,-1494 936,-1494"/>
<text text-anchor="middle" x="871.5" y="-1478.8" font-family="Times,serif" font-size="14.00">agar.io</text>
<text text-anchor="middle" x="871.5" y="-1463.8" font-family="Times,serif" font-size="14.00">Matheus Valadares</text>
</g>
<!-- deeeep.io -->
<g id="node38" class="node">
<title>deeeep.io</title>
<path fill="#90caf9" stroke="#90caf9" d="M571,-1043.5C571,-1043.5 510,-1043.5 510,-1043.5 504,-1043.5 498,-1037.5 498,-1031.5 498,-1031.5 498,-1019.5 498,-1019.5 498,-1013.5 504,-1007.5 510,-1007.5 510,-1007.5 571,-1007.5 571,-1007.5 577,-1007.5 583,-1013.5 583,-1019.5 583,-1019.5 583,-1031.5 583,-1031.5 583,-1037.5 577,-1043.5 571,-1043.5"/>
<text text-anchor="middle" x="540.5" y="-1021.8" font-family="Times,serif" font-size="14.00">deeeep.io</text>
</g>
<!-- agar.io&#45;&gt;deeeep.io -->
<g id="edge54" class="edge">
<title>agar.io&#45;&gt;deeeep.io</title>
<path fill="none" stroke="black" d="M813.53,-1455.92C759.6,-1435.05 687.5,-1395 687.5,-1330 687.5,-1330 687.5,-1330 687.5,-1180 687.5,-1119.89 627.97,-1074.12 584.67,-1048.78"/>
<polygon fill="black" stroke="black" points="586.13,-1045.59 575.71,-1043.69 582.68,-1051.67 586.13,-1045.59"/>
</g>
<!-- pie.ai -->
<g id="node53" class="node">
<title>pie.ai</title>
<path fill="#90caf9" stroke="#90caf9" d="M872.5,-962C872.5,-962 840.5,-962 840.5,-962 834.5,-962 828.5,-956 828.5,-950 828.5,-950 828.5,-938 828.5,-938 828.5,-932 834.5,-926 840.5,-926 840.5,-926 872.5,-926 872.5,-926 878.5,-926 884.5,-932 884.5,-938 884.5,-938 884.5,-950 884.5,-950 884.5,-956 878.5,-962 872.5,-962"/>
<text text-anchor="middle" x="856.5" y="-940.3" font-family="Times,serif" font-size="14.00">pie.ai</text>
</g>
<!-- agar.io&#45;&gt;pie.ai -->
<g id="edge50" class="edge">
<title>agar.io&#45;&gt;pie.ai</title>
<path fill="none" stroke="black" d="M871.5,-1455.81C871.5,-1428.5 871.5,-1375.25 871.5,-1330 871.5,-1330 871.5,-1330 871.5,-1106 871.5,-1058.84 865.04,-1004.23 860.6,-972.27"/>
<polygon fill="black" stroke="black" points="864.06,-971.75 859.18,-962.34 857.13,-972.74 864.06,-971.75"/>
</g>
<!-- spinz.io -->
<g id="node59" class="node">
<title>spinz.io</title>
<path fill="#90caf9" stroke="#90caf9" d="M921.5,-889C921.5,-889 867.5,-889 867.5,-889 861.5,-889 855.5,-883 855.5,-877 855.5,-877 855.5,-863 855.5,-863 855.5,-857 861.5,-851 867.5,-851 867.5,-851 921.5,-851 921.5,-851 927.5,-851 933.5,-857 933.5,-863 933.5,-863 933.5,-877 933.5,-877 933.5,-883 927.5,-889 921.5,-889"/>
<text text-anchor="middle" x="894.5" y="-873.8" font-family="Times,serif" font-size="14.00">spinz.io</text>
<text text-anchor="middle" x="894.5" y="-858.8" font-family="Times,serif" font-size="14.00">Yang Lui</text>
</g>
<!-- agar.io&#45;&gt;spinz.io -->
<g id="edge47" class="edge">
<title>agar.io&#45;&gt;spinz.io</title>
<path fill="none" stroke="black" d="M880.2,-1455.83C892.23,-1428.97 912.5,-1376.79 912.5,-1330 912.5,-1330 912.5,-1330 912.5,-1024.5 912.5,-980.58 905.14,-930.06 899.83,-899.34"/>
<polygon fill="black" stroke="black" points="903.25,-898.58 898.06,-889.35 896.36,-899.81 903.25,-898.58"/>
</g>
<!-- vanar.io -->
<g id="node30" class="node">
<title>vanar.io</title>
<path fill="#90caf9" stroke="#90caf9" d="M1002,-1420C1002,-1420 953,-1420 953,-1420 947,-1420 941,-1414 941,-1408 941,-1408 941,-1396 941,-1396 941,-1390 947,-1384 953,-1384 953,-1384 1002,-1384 1002,-1384 1008,-1384 1014,-1390 1014,-1396 1014,-1396 1014,-1408 1014,-1408 1014,-1414 1008,-1420 1002,-1420"/>
<text text-anchor="middle" x="977.5" y="-1398.3" font-family="Times,serif" font-size="14.00">vanar.io</text>
</g>
<!-- vertix.io -->
<g id="node31" class="node">
<title>vertix.io</title>
<path fill="#90caf9" stroke="#90caf9" d="M1458.5,-1348C1458.5,-1348 1350.5,-1348 1350.5,-1348 1344.5,-1348 1338.5,-1342 1338.5,-1336 1338.5,-1336 1338.5,-1322 1338.5,-1322 1338.5,-1316 1344.5,-1310 1350.5,-1310 1350.5,-1310 1458.5,-1310 1458.5,-1310 1464.5,-1310 1470.5,-1316 1470.5,-1322 1470.5,-1322 1470.5,-1336 1470.5,-1336 1470.5,-1342 1464.5,-1348 1458.5,-1348"/>
<text text-anchor="middle" x="1404.5" y="-1332.8" font-family="Times,serif" font-size="14.00">vertix.io</text>
<text text-anchor="middle" x="1404.5" y="-1317.8" font-family="Times,serif" font-size="14.00">Sydney de Vries</text>
</g>
<!-- nightpoint.io -->
<g id="node67" class="node">
<title>nightpoint.io</title>
<path fill="#90caf9" stroke="#90caf9" d="M1446.5,-807.5C1446.5,-807.5 1362.5,-807.5 1362.5,-807.5 1356.5,-807.5 1350.5,-801.5 1350.5,-795.5 1350.5,-795.5 1350.5,-781.5 1350.5,-781.5 1350.5,-775.5 1356.5,-769.5 1362.5,-769.5 1362.5,-769.5 1446.5,-769.5 1446.5,-769.5 1452.5,-769.5 1458.5,-775.5 1458.5,-781.5 1458.5,-781.5 1458.5,-795.5 1458.5,-795.5 1458.5,-801.5 1452.5,-807.5 1446.5,-807.5"/>
<text text-anchor="middle" x="1404.5" y="-792.3" font-family="Times,serif" font-size="14.00">nightpoint.io</text>
<text text-anchor="middle" x="1404.5" y="-777.3" font-family="Times,serif" font-size="14.00">Sarunas</text>
</g>
<!-- vertix.io&#45;&gt;nightpoint.io -->
<g id="edge40" class="edge">
<title>vertix.io&#45;&gt;nightpoint.io</title>
<path fill="none" stroke="black" d="M1404.5,-1309.56C1404.5,-1281.87 1404.5,-1227.88 1404.5,-1182 1404.5,-1182 1404.5,-1182 1404.5,-943 1404.5,-899.38 1404.5,-848.78 1404.5,-817.96"/>
<polygon fill="black" stroke="black" points="1408,-817.93 1404.5,-807.93 1401,-817.93 1408,-817.93"/>
</g>
<!-- slither.io -->
<g id="node32" class="node">
<title>slither.io</title>
<path fill="#90caf9" stroke="#90caf9" d="M1631.5,-1274C1631.5,-1274 1545.5,-1274 1545.5,-1274 1539.5,-1274 1533.5,-1268 1533.5,-1262 1533.5,-1262 1533.5,-1248 1533.5,-1248 1533.5,-1242 1539.5,-1236 1545.5,-1236 1545.5,-1236 1631.5,-1236 1631.5,-1236 1637.5,-1236 1643.5,-1242 1643.5,-1248 1643.5,-1248 1643.5,-1262 1643.5,-1262 1643.5,-1268 1637.5,-1274 1631.5,-1274"/>
<text text-anchor="middle" x="1588.5" y="-1258.8" font-family="Times,serif" font-size="14.00">slither.io</text>
<text text-anchor="middle" x="1588.5" y="-1243.8" font-family="Times,serif" font-size="14.00">Steve Howse</text>
</g>
<!-- limax.io -->
<g id="node35" class="node">
<title>limax.io</title>
<path fill="#90caf9" stroke="#90caf9" d="M1520,-1200C1520,-1200 1445,-1200 1445,-1200 1439,-1200 1433,-1194 1433,-1188 1433,-1188 1433,-1174 1433,-1174 1433,-1168 1439,-1162 1445,-1162 1445,-1162 1520,-1162 1520,-1162 1526,-1162 1532,-1168 1532,-1174 1532,-1174 1532,-1188 1532,-1188 1532,-1194 1526,-1200 1520,-1200"/>
<text text-anchor="middle" x="1482.5" y="-1184.8" font-family="Times,serif" font-size="14.00">limax.io</text>
<text text-anchor="middle" x="1482.5" y="-1169.8" font-family="Times,serif" font-size="14.00">LapaMauve</text>
</g>
<!-- slither.io&#45;&gt;limax.io -->
<g id="edge26" class="edge">
<title>slither.io&#45;&gt;limax.io</title>
<path fill="none" stroke="black" d="M1561.75,-1235.83C1548.44,-1226.79 1532.18,-1215.75 1517.86,-1206.02"/>
<polygon fill="black" stroke="black" points="1519.48,-1202.89 1509.24,-1200.16 1515.55,-1208.68 1519.48,-1202.89"/>
</g>
<!-- wormax.io -->
<g id="node37" class="node">
<title>wormax.io</title>
<path fill="#90caf9" stroke="#90caf9" d="M1576,-1126C1576,-1126 1509,-1126 1509,-1126 1503,-1126 1497,-1120 1497,-1114 1497,-1114 1497,-1100 1497,-1100 1497,-1094 1503,-1088 1509,-1088 1509,-1088 1576,-1088 1576,-1088 1582,-1088 1588,-1094 1588,-1100 1588,-1100 1588,-1114 1588,-1114 1588,-1120 1582,-1126 1576,-1126"/>
<text text-anchor="middle" x="1542.5" y="-1110.8" font-family="Times,serif" font-size="14.00">wormax.io</text>
<text text-anchor="middle" x="1542.5" y="-1095.8" font-family="Times,serif" font-size="14.00">Elyland</text>
</g>
<!-- slither.io&#45;&gt;wormax.io -->
<g id="edge24" class="edge">
<title>slither.io&#45;&gt;wormax.io</title>
<path fill="none" stroke="black" d="M1582.77,-1235.8C1574.88,-1210.78 1560.62,-1165.5 1551.35,-1136.1"/>
<polygon fill="black" stroke="black" points="1554.65,-1134.91 1548.31,-1126.43 1547.97,-1137.01 1554.65,-1134.91"/>
</g>
<!-- wormate.io -->
<g id="node41" class="node">
<title>wormate.io</title>
<path fill="#90caf9" stroke="#90caf9" d="M1678.5,-1044.5C1678.5,-1044.5 1554.5,-1044.5 1554.5,-1044.5 1548.5,-1044.5 1542.5,-1038.5 1542.5,-1032.5 1542.5,-1032.5 1542.5,-1018.5 1542.5,-1018.5 1542.5,-1012.5 1548.5,-1006.5 1554.5,-1006.5 1554.5,-1006.5 1678.5,-1006.5 1678.5,-1006.5 1684.5,-1006.5 1690.5,-1012.5 1690.5,-1018.5 1690.5,-1018.5 1690.5,-1032.5 1690.5,-1032.5 1690.5,-1038.5 1684.5,-1044.5 1678.5,-1044.5"/>
<text text-anchor="middle" x="1616.5" y="-1029.3" font-family="Times,serif" font-size="14.00">wormate.io</text>
<text text-anchor="middle" x="1616.5" y="-1014.3" font-family="Times,serif" font-size="14.00">Oleksandr Godoba</text>
</g>
<!-- slither.io&#45;&gt;wormate.io -->
<g id="edge25" class="edge">
<title>slither.io&#45;&gt;wormate.io</title>
<path fill="none" stroke="black" d="M1590.74,-1235.77C1595.62,-1196.15 1607.21,-1101.98 1613.03,-1054.66"/>
<polygon fill="black" stroke="black" points="1616.54,-1054.86 1614.28,-1044.5 1609.59,-1054 1616.54,-1054.86"/>
</g>
<!-- powerline.io -->
<g id="node68" class="node">
<title>powerline.io</title>
<path fill="#90caf9" stroke="#90caf9" d="M1767.5,-718.5C1767.5,-718.5 1669.5,-718.5 1669.5,-718.5 1663.5,-718.5 1657.5,-712.5 1657.5,-706.5 1657.5,-706.5 1657.5,-692.5 1657.5,-692.5 1657.5,-686.5 1663.5,-680.5 1669.5,-680.5 1669.5,-680.5 1767.5,-680.5 1767.5,-680.5 1773.5,-680.5 1779.5,-686.5 1779.5,-692.5 1779.5,-692.5 1779.5,-706.5 1779.5,-706.5 1779.5,-712.5 1773.5,-718.5 1767.5,-718.5"/>
<text text-anchor="middle" x="1718.5" y="-703.3" font-family="Times,serif" font-size="14.00">powerline.io</text>
<text text-anchor="middle" x="1718.5" y="-688.3" font-family="Times,serif" font-size="14.00">Andre Almeida</text>
</g>
<!-- slither.io&#45;&gt;powerline.io -->
<g id="edge27" class="edge">
<title>slither.io&#45;&gt;powerline.io</title>
<path fill="none" stroke="black" d="M1621.64,-1235.81C1660.16,-1211.95 1718.5,-1166.21 1718.5,-1108 1718.5,-1108 1718.5,-1108 1718.5,-869 1718.5,-819.85 1718.5,-762.64 1718.5,-729.12"/>
<polygon fill="black" stroke="black" points="1722,-728.7 1718.5,-718.7 1715,-728.7 1722,-728.7"/>
</g>
<!-- diep.io -->
<g id="node33" class="node">
<title>diep.io</title>
<path fill="#90caf9" stroke="#90caf9" d="M1872,-1274C1872,-1274 1743,-1274 1743,-1274 1737,-1274 1731,-1268 1731,-1262 1731,-1262 1731,-1248 1731,-1248 1731,-1242 1737,-1236 1743,-1236 1743,-1236 1872,-1236 1872,-1236 1878,-1236 1884,-1242 1884,-1248 1884,-1248 1884,-1262 1884,-1262 1884,-1268 1878,-1274 1872,-1274"/>
<text text-anchor="middle" x="1807.5" y="-1258.8" font-family="Times,serif" font-size="14.00">diep.io</text>
<text text-anchor="middle" x="1807.5" y="-1243.8" font-family="Times,serif" font-size="14.00">Matheus Valadares</text>
</g>
<!-- tanksmith.io -->
<g id="node79" class="node">
<title>tanksmith.io</title>
<path fill="#90caf9" stroke="#90caf9" d="M1848.5,-563C1848.5,-563 1766.5,-563 1766.5,-563 1760.5,-563 1754.5,-557 1754.5,-551 1754.5,-551 1754.5,-537 1754.5,-537 1754.5,-531 1760.5,-525 1766.5,-525 1766.5,-525 1848.5,-525 1848.5,-525 1854.5,-525 1860.5,-531 1860.5,-537 1860.5,-537 1860.5,-551 1860.5,-551 1860.5,-557 1854.5,-563 1848.5,-563"/>
<text text-anchor="middle" x="1807.5" y="-547.8" font-family="Times,serif" font-size="14.00">tanksmith.io</text>
<text text-anchor="middle" x="1807.5" y="-532.8" font-family="Times,serif" font-size="14.00">IO Ninja</text>
</g>
<!-- diep.io&#45;&gt;tanksmith.io -->
<g id="edge55" class="edge">
<title>diep.io&#45;&gt;tanksmith.io</title>
<path fill="none" stroke="black" d="M1807.5,-1235.56C1807.5,-1207.87 1807.5,-1153.88 1807.5,-1108 1807.5,-1108 1807.5,-1108 1807.5,-698.5 1807.5,-654.88 1807.5,-604.28 1807.5,-573.46"/>
<polygon fill="black" stroke="black" points="1811,-573.43 1807.5,-563.43 1804,-573.43 1811,-573.43"/>
</g>
<!-- wings.io -->
<g id="node34" class="node">
<title>wings.io</title>
<path fill="#90caf9" stroke="#90caf9" d="M2012.5,-1274C2012.5,-1274 1914.5,-1274 1914.5,-1274 1908.5,-1274 1902.5,-1268 1902.5,-1262 1902.5,-1262 1902.5,-1248 1902.5,-1248 1902.5,-1242 1908.5,-1236 1914.5,-1236 1914.5,-1236 2012.5,-1236 2012.5,-1236 2018.5,-1236 2024.5,-1242 2024.5,-1248 2024.5,-1248 2024.5,-1262 2024.5,-1262 2024.5,-1268 2018.5,-1274 2012.5,-1274"/>
<text text-anchor="middle" x="1963.5" y="-1258.8" font-family="Times,serif" font-size="14.00">wings.io</text>
<text text-anchor="middle" x="1963.5" y="-1243.8" font-family="Times,serif" font-size="14.00">Andre Almeida</text>
</g>
<!-- wilds.io -->
<g id="node36" class="node">
<title>wilds.io</title>
<path fill="#90caf9" stroke="#90caf9" d="M1899,-1200C1899,-1200 1848,-1200 1848,-1200 1842,-1200 1836,-1194 1836,-1188 1836,-1188 1836,-1174 1836,-1174 1836,-1168 1842,-1162 1848,-1162 1848,-1162 1899,-1162 1899,-1162 1905,-1162 1911,-1168 1911,-1174 1911,-1174 1911,-1188 1911,-1188 1911,-1194 1905,-1200 1899,-1200"/>
<text text-anchor="middle" x="1873.5" y="-1184.8" font-family="Times,serif" font-size="14.00">wilds.io</text>
<text text-anchor="middle" x="1873.5" y="-1169.8" font-family="Times,serif" font-size="14.00">Rezoner</text>
</g>
<!-- wanderers.io -->
<g id="node70" class="node">
<title>wanderers.io</title>
<path fill="#90caf9" stroke="#90caf9" d="M1964.5,-718.5C1964.5,-718.5 1878.5,-718.5 1878.5,-718.5 1872.5,-718.5 1866.5,-712.5 1866.5,-706.5 1866.5,-706.5 1866.5,-692.5 1866.5,-692.5 1866.5,-686.5 1872.5,-680.5 1878.5,-680.5 1878.5,-680.5 1964.5,-680.5 1964.5,-680.5 1970.5,-680.5 1976.5,-686.5 1976.5,-692.5 1976.5,-692.5 1976.5,-706.5 1976.5,-706.5 1976.5,-712.5 1970.5,-718.5 1964.5,-718.5"/>
<text text-anchor="middle" x="1921.5" y="-703.3" font-family="Times,serif" font-size="14.00">wanderers.io</text>
<text text-anchor="middle" x="1921.5" y="-688.3" font-family="Times,serif" font-size="14.00">Rezoner</text>
</g>
<!-- wilds.io&#45;&gt;wanderers.io -->
<g id="edge45" class="edge">
<title>wilds.io&#45;&gt;wanderers.io</title>
<path fill="none" stroke="black" d="M1873.5,-1161.57C1873.5,-1132.75 1873.5,-1075.27 1873.5,-1026.5 1873.5,-1026.5 1873.5,-1026.5 1873.5,-869 1873.5,-817.73 1894.31,-760.92 1908.53,-728.1"/>
<polygon fill="black" stroke="black" points="1911.83,-729.27 1912.7,-718.72 1905.44,-726.43 1911.83,-729.27"/>
</g>
<!-- oceanar.io -->
<g id="node39" class="node">
<title>oceanar.io</title>
<path fill="#90caf9" stroke="#90caf9" d="M831,-1044.5C831,-1044.5 766,-1044.5 766,-1044.5 760,-1044.5 754,-1038.5 754,-1032.5 754,-1032.5 754,-1018.5 754,-1018.5 754,-1012.5 760,-1006.5 766,-1006.5 766,-1006.5 831,-1006.5 831,-1006.5 837,-1006.5 843,-1012.5 843,-1018.5 843,-1018.5 843,-1032.5 843,-1032.5 843,-1038.5 837,-1044.5 831,-1044.5"/>
<text text-anchor="middle" x="798.5" y="-1029.3" font-family="Times,serif" font-size="14.00">oceanar.io</text>
<text text-anchor="middle" x="798.5" y="-1014.3" font-family="Times,serif" font-size="14.00">S3Games</text>
</g>
<!-- deeeep.io&#45;&gt;oceanar.io -->
<g id="edge28" class="edge">
<title>deeeep.io&#45;&gt;oceanar.io</title>
<path fill="none" stroke="black" d="M558.77,-1043.62C570.06,-1053.5 585.42,-1064.76 601.5,-1070 658.12,-1088.46 678.74,-1088.03 735.5,-1070 747.96,-1066.04 760.09,-1058.63 770.31,-1050.97"/>
<polygon fill="black" stroke="black" points="772.76,-1053.5 778.43,-1044.55 768.41,-1048.01 772.76,-1053.5"/>
</g>
<!-- mope.io -->
<g id="node40" class="node">
<title>mope.io</title>
<path fill="#90caf9" stroke="#90caf9" d="M723.5,-1044.5C723.5,-1044.5 613.5,-1044.5 613.5,-1044.5 607.5,-1044.5 601.5,-1038.5 601.5,-1032.5 601.5,-1032.5 601.5,-1018.5 601.5,-1018.5 601.5,-1012.5 607.5,-1006.5 613.5,-1006.5 613.5,-1006.5 723.5,-1006.5 723.5,-1006.5 729.5,-1006.5 735.5,-1012.5 735.5,-1018.5 735.5,-1018.5 735.5,-1032.5 735.5,-1032.5 735.5,-1038.5 729.5,-1044.5 723.5,-1044.5"/>
<text text-anchor="middle" x="668.5" y="-1029.3" font-family="Times,serif" font-size="14.00">mope.io</text>
<text text-anchor="middle" x="668.5" y="-1014.3" font-family="Times,serif" font-size="14.00">Stan Tatarnykov</text>
</g>
<!-- deeeep.io&#45;&gt;mope.io -->
<g id="edge29" class="edge">
<title>deeeep.io&#45;&gt;mope.io</title>
<path fill="none" stroke="black" d="M583,-1025.5C585.77,-1025.5 588.55,-1025.5 591.32,-1025.5"/>
<polygon fill="black" stroke="black" points="591.37,-1029 601.37,-1025.5 591.37,-1022 591.37,-1029"/>
</g>
<!-- moomoo.io -->
<g id="node54" class="node">
<title>moomoo.io</title>
<path fill="#90caf9" stroke="#90caf9" d="M731.5,-963C731.5,-963 623.5,-963 623.5,-963 617.5,-963 611.5,-957 611.5,-951 611.5,-951 611.5,-937 611.5,-937 611.5,-931 617.5,-925 623.5,-925 623.5,-925 731.5,-925 731.5,-925 737.5,-925 743.5,-931 743.5,-937 743.5,-937 743.5,-951 743.5,-951 743.5,-957 737.5,-963 731.5,-963"/>
<text text-anchor="middle" x="677.5" y="-947.8" font-family="Times,serif" font-size="14.00">moomoo.io</text>
<text text-anchor="middle" x="677.5" y="-932.8" font-family="Times,serif" font-size="14.00">Sydney de Vries</text>
</g>
<!-- mope.io&#45;&gt;moomoo.io -->
<g id="edge30" class="edge">
<title>mope.io&#45;&gt;moomoo.io</title>
<path fill="none" stroke="black" d="M670.54,-1006.46C671.65,-996.67 673.05,-984.35 674.3,-973.31"/>
<polygon fill="black" stroke="black" points="677.79,-973.57 675.43,-963.24 670.83,-972.79 677.79,-973.57"/>
</g>
<!-- paper.io -->
<g id="node42" class="node">
<title>paper.io</title>
<path fill="#90caf9" stroke="#90caf9" d="M2169.5,-1126C2169.5,-1126 2119.5,-1126 2119.5,-1126 2113.5,-1126 2107.5,-1120 2107.5,-1114 2107.5,-1114 2107.5,-1100 2107.5,-1100 2107.5,-1094 2113.5,-1088 2119.5,-1088 2119.5,-1088 2169.5,-1088 2169.5,-1088 2175.5,-1088 2181.5,-1094 2181.5,-1100 2181.5,-1100 2181.5,-1114 2181.5,-1114 2181.5,-1120 2175.5,-1126 2169.5,-1126"/>
<text text-anchor="middle" x="2144.5" y="-1110.8" font-family="Times,serif" font-size="14.00">paper.io</text>
<text text-anchor="middle" x="2144.5" y="-1095.8" font-family="Times,serif" font-size="14.00">Voodoo</text>
</g>
<!-- narwhale.io -->
<g id="node43" class="node">
<title>narwhale.io</title>
<path fill="#90caf9" stroke="#90caf9" d="M2309,-1126C2309,-1126 2212,-1126 2212,-1126 2206,-1126 2200,-1120 2200,-1114 2200,-1114 2200,-1100 2200,-1100 2200,-1094 2206,-1088 2212,-1088 2212,-1088 2309,-1088 2309,-1088 2315,-1088 2321,-1094 2321,-1100 2321,-1100 2321,-1114 2321,-1114 2321,-1120 2315,-1126 2309,-1126"/>
<text text-anchor="middle" x="2260.5" y="-1110.8" font-family="Times,serif" font-size="14.00">narwhale.io</text>
<text text-anchor="middle" x="2260.5" y="-1095.8" font-family="Times,serif" font-size="14.00">Hsi&#45;Hung Shih</text>
</g>
<!-- pikes.io -->
<g id="node62" class="node">
<title>pikes.io</title>
<path fill="#90caf9" stroke="#90caf9" d="M2305.5,-889C2305.5,-889 2215.5,-889 2215.5,-889 2209.5,-889 2203.5,-883 2203.5,-877 2203.5,-877 2203.5,-863 2203.5,-863 2203.5,-857 2209.5,-851 2215.5,-851 2215.5,-851 2305.5,-851 2305.5,-851 2311.5,-851 2317.5,-857 2317.5,-863 2317.5,-863 2317.5,-877 2317.5,-877 2317.5,-883 2311.5,-889 2305.5,-889"/>
<text text-anchor="middle" x="2260.5" y="-873.8" font-family="Times,serif" font-size="14.00">pikes.io</text>
<text text-anchor="middle" x="2260.5" y="-858.8" font-family="Times,serif" font-size="14.00">Clown Games</text>
</g>
<!-- narwhale.io&#45;&gt;pikes.io -->
<g id="edge63" class="edge">
<title>narwhale.io&#45;&gt;pikes.io</title>
<path fill="none" stroke="black" d="M2260.5,-1087.95C2260.5,-1047.28 2260.5,-948.23 2260.5,-899.31"/>
<polygon fill="black" stroke="black" points="2264,-899.11 2260.5,-889.11 2257,-899.11 2264,-899.11"/>
</g>
<!-- splix.io -->
<g id="node44" class="node">
<title>splix.io</title>
<path fill="#90caf9" stroke="#90caf9" d="M2077.5,-1126C2077.5,-1126 2033.5,-1126 2033.5,-1126 2027.5,-1126 2021.5,-1120 2021.5,-1114 2021.5,-1114 2021.5,-1100 2021.5,-1100 2021.5,-1094 2027.5,-1088 2033.5,-1088 2033.5,-1088 2077.5,-1088 2077.5,-1088 2083.5,-1088 2089.5,-1094 2089.5,-1100 2089.5,-1100 2089.5,-1114 2089.5,-1114 2089.5,-1120 2083.5,-1126 2077.5,-1126"/>
<text text-anchor="middle" x="2055.5" y="-1110.8" font-family="Times,serif" font-size="14.00">splix.io</text>
<text text-anchor="middle" x="2055.5" y="-1095.8" font-family="Times,serif" font-size="14.00">Jesper</text>
</g>
<!-- splix.io&#45;&gt;paper.io -->
<g id="edge51" class="edge">
<title>splix.io&#45;&gt;paper.io</title>
<path fill="none" stroke="black" d="M2089.57,-1107C2092.04,-1107 2094.52,-1107 2096.99,-1107"/>
<polygon fill="black" stroke="black" points="2097.17,-1110.5 2107.16,-1107 2097.16,-1103.5 2097.17,-1110.5"/>
</g>
<!-- hexar.io -->
<g id="node52" class="node">
<title>hexar.io</title>
<path fill="#90caf9" stroke="#90caf9" d="M2080,-962C2080,-962 2031,-962 2031,-962 2025,-962 2019,-956 2019,-950 2019,-950 2019,-938 2019,-938 2019,-932 2025,-926 2031,-926 2031,-926 2080,-926 2080,-926 2086,-926 2092,-932 2092,-938 2092,-938 2092,-950 2092,-950 2092,-956 2086,-962 2080,-962"/>
<text text-anchor="middle" x="2055.5" y="-940.3" font-family="Times,serif" font-size="14.00">hexar.io</text>
</g>
<!-- splix.io&#45;&gt;hexar.io -->
<g id="edge52" class="edge">
<title>splix.io&#45;&gt;hexar.io</title>
<path fill="none" stroke="black" d="M2055.5,-1087.84C2055.5,-1059.77 2055.5,-1005.62 2055.5,-972.66"/>
<polygon fill="black" stroke="black" points="2059,-972.36 2055.5,-962.36 2052,-972.36 2059,-972.36"/>
</g>
<!-- drawthis2.io -->
<g id="node81" class="node">
<title>drawthis2.io</title>
<path fill="#90caf9" stroke="#90caf9" d="M282.5,-563C282.5,-563 200.5,-563 200.5,-563 194.5,-563 188.5,-557 188.5,-551 188.5,-551 188.5,-537 188.5,-537 188.5,-531 194.5,-525 200.5,-525 200.5,-525 282.5,-525 282.5,-525 288.5,-525 294.5,-531 294.5,-537 294.5,-537 294.5,-551 294.5,-551 294.5,-557 288.5,-563 282.5,-563"/>
<text text-anchor="middle" x="241.5" y="-547.8" font-family="Times,serif" font-size="14.00">drawthis2.io</text>
<text text-anchor="middle" x="241.5" y="-532.8" font-family="Times,serif" font-size="14.00">lagged.com</text>
</g>
<!-- drawthis.io&#45;&gt;drawthis2.io -->
<g id="edge60" class="edge">
<title>drawthis.io&#45;&gt;drawthis2.io</title>
<path fill="none" stroke="black" d="M241.5,-1088.61C241.5,-1059.08 241.5,-997.27 241.5,-945 241.5,-945 241.5,-945 241.5,-698.5 241.5,-654.88 241.5,-604.28 241.5,-573.46"/>
<polygon fill="black" stroke="black" points="245,-573.43 241.5,-563.43 238,-573.43 245,-573.43"/>
</g>
<!-- bonk.io -->
<g id="node46" class="node">
<title>bonk.io</title>
<path fill="#90caf9" stroke="#90caf9" d="M2395.5,-1126C2395.5,-1126 2351.5,-1126 2351.5,-1126 2345.5,-1126 2339.5,-1120 2339.5,-1114 2339.5,-1114 2339.5,-1100 2339.5,-1100 2339.5,-1094 2345.5,-1088 2351.5,-1088 2351.5,-1088 2395.5,-1088 2395.5,-1088 2401.5,-1088 2407.5,-1094 2407.5,-1100 2407.5,-1100 2407.5,-1114 2407.5,-1114 2407.5,-1120 2401.5,-1126 2395.5,-1126"/>
<text text-anchor="middle" x="2373.5" y="-1110.8" font-family="Times,serif" font-size="14.00">bonk.io</text>
<text text-anchor="middle" x="2373.5" y="-1095.8" font-family="Times,serif" font-size="14.00">Chaz</text>
</g>
<!-- bonk2.io -->
<g id="node87" class="node">
<title>bonk2.io</title>
<path fill="#90caf9" stroke="#90caf9" d="M2400,-38C2400,-38 2347,-38 2347,-38 2341,-38 2335,-32 2335,-26 2335,-26 2335,-12 2335,-12 2335,-6 2341,0 2347,0 2347,0 2400,0 2400,0 2406,0 2412,-6 2412,-12 2412,-12 2412,-26 2412,-26 2412,-32 2406,-38 2400,-38"/>
<text text-anchor="middle" x="2373.5" y="-22.8" font-family="Times,serif" font-size="14.00">bonk2.io</text>
<text text-anchor="middle" x="2373.5" y="-7.8" font-family="Times,serif" font-size="14.00">Chaz</text>
</g>
<!-- bonk.io&#45;&gt;bonk2.io -->
<g id="edge67" class="edge">
<title>bonk.io&#45;&gt;bonk2.io</title>
<path fill="none" stroke="black" d="M2373.5,-1087.65C2373.5,-1057.76 2373.5,-996.71 2373.5,-945 2373.5,-945 2373.5,-945 2373.5,-163 2373.5,-123.15 2373.5,-77.06 2373.5,-48.22"/>
<polygon fill="black" stroke="black" points="2377,-48.06 2373.5,-38.06 2370,-48.06 2377,-48.06"/>
</g>
<!-- hordes.io -->
<g id="node47" class="node">
<title>hordes.io</title>
<path fill="#90caf9" stroke="#90caf9" d="M2497,-1126C2497,-1126 2438,-1126 2438,-1126 2432,-1126 2426,-1120 2426,-1114 2426,-1114 2426,-1100 2426,-1100 2426,-1094 2432,-1088 2438,-1088 2438,-1088 2497,-1088 2497,-1088 2503,-1088 2509,-1094 2509,-1100 2509,-1100 2509,-1114 2509,-1114 2509,-1120 2503,-1126 2497,-1126"/>
<text text-anchor="middle" x="2467.5" y="-1110.8" font-family="Times,serif" font-size="14.00">hordes.io</text>
<text text-anchor="middle" x="2467.5" y="-1095.8" font-family="Times,serif" font-size="14.00">dek</text>
</g>
<!-- krew.io -->
<g id="node48" class="node">
<title>krew.io</title>
<path fill="#90caf9" stroke="#90caf9" d="M2467,-1052C2467,-1052 2414,-1052 2414,-1052 2408,-1052 2402,-1046 2402,-1040 2402,-1040 2402,-1011 2402,-1011 2402,-1005 2408,-999 2414,-999 2414,-999 2467,-999 2467,-999 2473,-999 2479,-1005 2479,-1011 2479,-1011 2479,-1040 2479,-1040 2479,-1046 2473,-1052 2467,-1052"/>
<text text-anchor="middle" x="2440.5" y="-1036.8" font-family="Times,serif" font-size="14.00">krew.io</text>
<text text-anchor="middle" x="2440.5" y="-1021.8" font-family="Times,serif" font-size="14.00">M0dE &amp;</text>
<text text-anchor="middle" x="2440.5" y="-1006.8" font-family="Times,serif" font-size="14.00"> dek</text>
</g>
<!-- starblast.io -->
<g id="node49" class="node">
<title>starblast.io</title>
<path fill="#90caf9" stroke="#90caf9" d="M2586,-1044.5C2586,-1044.5 2509,-1044.5 2509,-1044.5 2503,-1044.5 2497,-1038.5 2497,-1032.5 2497,-1032.5 2497,-1018.5 2497,-1018.5 2497,-1012.5 2503,-1006.5 2509,-1006.5 2509,-1006.5 2586,-1006.5 2586,-1006.5 2592,-1006.5 2598,-1012.5 2598,-1018.5 2598,-1018.5 2598,-1032.5 2598,-1032.5 2598,-1038.5 2592,-1044.5 2586,-1044.5"/>
<text text-anchor="middle" x="2547.5" y="-1029.3" font-family="Times,serif" font-size="14.00">starblast.io</text>
<text text-anchor="middle" x="2547.5" y="-1014.3" font-family="Times,serif" font-size="14.00">Neuronality</text>
</g>
<!-- microgravity.io -->
<g id="node83" class="node">
<title>microgravity.io</title>
<path fill="#90caf9" stroke="#90caf9" d="M2603.5,-489C2603.5,-489 2491.5,-489 2491.5,-489 2485.5,-489 2479.5,-483 2479.5,-477 2479.5,-477 2479.5,-448 2479.5,-448 2479.5,-442 2485.5,-436 2491.5,-436 2491.5,-436 2603.5,-436 2603.5,-436 2609.5,-436 2615.5,-442 2615.5,-448 2615.5,-448 2615.5,-477 2615.5,-477 2615.5,-483 2609.5,-489 2603.5,-489"/>
<text text-anchor="middle" x="2547.5" y="-473.8" font-family="Times,serif" font-size="14.00">microgravity.io</text>
<text text-anchor="middle" x="2547.5" y="-458.8" font-family="Times,serif" font-size="14.00">Nathan Flurry &amp;</text>
<text text-anchor="middle" x="2547.5" y="-443.8" font-family="Times,serif" font-size="14.00">Nicholas Kissel</text>
</g>
<!-- starblast.io&#45;&gt;microgravity.io -->
<g id="edge68" class="edge">
<title>starblast.io&#45;&gt;microgravity.io</title>
<path fill="none" stroke="black" d="M2547.5,-1006.07C2547.5,-977.25 2547.5,-919.77 2547.5,-871 2547.5,-871 2547.5,-871 2547.5,-617 2547.5,-576.71 2547.5,-530.48 2547.5,-499.37"/>
<polygon fill="black" stroke="black" points="2551,-499.03 2547.5,-489.03 2544,-499.03 2551,-499.03"/>
</g>
<!-- oib.io -->
<g id="node50" class="node">
<title>oib.io</title>
<path fill="#90caf9" stroke="#90caf9" d="M1989,-963C1989,-963 1914,-963 1914,-963 1908,-963 1902,-957 1902,-951 1902,-951 1902,-937 1902,-937 1902,-931 1908,-925 1914,-925 1914,-925 1989,-925 1989,-925 1995,-925 2001,-931 2001,-937 2001,-937 2001,-951 2001,-951 2001,-957 1995,-963 1989,-963"/>
<text text-anchor="middle" x="1951.5" y="-947.8" font-family="Times,serif" font-size="14.00">oib.io</text>
<text text-anchor="middle" x="1951.5" y="-932.8" font-family="Times,serif" font-size="14.00">LapaMauve</text>
</g>
<!-- oib.io&#45;&gt;wanderers.io -->
<g id="edge46" class="edge">
<title>oib.io&#45;&gt;wanderers.io</title>
<path fill="none" stroke="black" d="M1949.25,-924.77C1944.05,-882.8 1931.22,-779.09 1925,-728.77"/>
<polygon fill="black" stroke="black" points="1928.44,-728.1 1923.74,-718.61 1921.49,-728.96 1928.44,-728.1"/>
</g>
<!-- brutal.io -->
<g id="node51" class="node">
<title>brutal.io</title>
<path fill="#90caf9" stroke="#90caf9" d="M2685.5,-963C2685.5,-963 2587.5,-963 2587.5,-963 2581.5,-963 2575.5,-957 2575.5,-951 2575.5,-951 2575.5,-937 2575.5,-937 2575.5,-931 2581.5,-925 2587.5,-925 2587.5,-925 2685.5,-925 2685.5,-925 2691.5,-925 2697.5,-931 2697.5,-937 2697.5,-937 2697.5,-951 2697.5,-951 2697.5,-957 2691.5,-963 2685.5,-963"/>
<text text-anchor="middle" x="2636.5" y="-947.8" font-family="Times,serif" font-size="14.00">brutal.io</text>
<text text-anchor="middle" x="2636.5" y="-932.8" font-family="Times,serif" font-size="14.00">Andre Almeida</text>
</g>
<!-- superhex.io -->
<g id="node63" class="node">
<title>superhex.io</title>
<path fill="#90caf9" stroke="#90caf9" d="M2093.5,-888C2093.5,-888 2017.5,-888 2017.5,-888 2011.5,-888 2005.5,-882 2005.5,-876 2005.5,-876 2005.5,-864 2005.5,-864 2005.5,-858 2011.5,-852 2017.5,-852 2017.5,-852 2093.5,-852 2093.5,-852 2099.5,-852 2105.5,-858 2105.5,-864 2105.5,-864 2105.5,-876 2105.5,-876 2105.5,-882 2099.5,-888 2093.5,-888"/>
<text text-anchor="middle" x="2055.5" y="-866.3" font-family="Times,serif" font-size="14.00">superhex.io</text>
</g>
<!-- hexar.io&#45;&gt;superhex.io -->
<g id="edge53" class="edge">
<title>hexar.io&#45;&gt;superhex.io</title>
<path fill="none" stroke="black" d="M2055.5,-925.94C2055.5,-917.81 2055.5,-907.88 2055.5,-898.7"/>
<polygon fill="black" stroke="black" points="2059,-898.44 2055.5,-888.44 2052,-898.44 2059,-898.44"/>
</g>
<!-- starve.io -->
<g id="node55" class="node">
<title>starve.io</title>
<path fill="#90caf9" stroke="#90caf9" d="M1141,-963C1141,-963 1066,-963 1066,-963 1060,-963 1054,-957 1054,-951 1054,-951 1054,-937 1054,-937 1054,-931 1060,-925 1066,-925 1066,-925 1141,-925 1141,-925 1147,-925 1153,-931 1153,-937 1153,-937 1153,-951 1153,-951 1153,-957 1147,-963 1141,-963"/>
<text text-anchor="middle" x="1103.5" y="-947.8" font-family="Times,serif" font-size="14.00">starve.io</text>
<text text-anchor="middle" x="1103.5" y="-932.8" font-family="Times,serif" font-size="14.00">LapaMauve</text>
</g>
<!-- moomoo.io&#45;&gt;starve.io -->
<g id="edge34" class="edge">
<title>moomoo.io&#45;&gt;starve.io</title>
<path fill="none" stroke="black" d="M740.43,-963C767.29,-970.18 799.16,-977.46 828.5,-981 902.79,-989.97 988.17,-974.43 1043.83,-960.83"/>
<polygon fill="black" stroke="black" points="1045.02,-964.14 1053.87,-958.31 1043.32,-957.35 1045.02,-964.14"/>
</g>
<!-- zombs.io -->
<g id="node58" class="node">
<title>zombs.io</title>
<path fill="#90caf9" stroke="#90caf9" d="M789.5,-889C789.5,-889 733.5,-889 733.5,-889 727.5,-889 721.5,-883 721.5,-877 721.5,-877 721.5,-863 721.5,-863 721.5,-857 727.5,-851 733.5,-851 733.5,-851 789.5,-851 789.5,-851 795.5,-851 801.5,-857 801.5,-863 801.5,-863 801.5,-877 801.5,-877 801.5,-883 795.5,-889 789.5,-889"/>
<text text-anchor="middle" x="761.5" y="-873.8" font-family="Times,serif" font-size="14.00">zombs.io</text>
<text text-anchor="middle" x="761.5" y="-858.8" font-family="Times,serif" font-size="14.00">Yang Lui</text>
</g>
<!-- moomoo.io&#45;&gt;zombs.io -->
<g id="edge37" class="edge">
<title>moomoo.io&#45;&gt;zombs.io</title>
<path fill="none" stroke="black" d="M698.7,-924.83C708.94,-916.05 721.4,-905.37 732.51,-895.85"/>
<polygon fill="black" stroke="black" points="735,-898.33 740.31,-889.16 730.44,-893.01 735,-898.33"/>
</g>
<!-- foes.io -->
<g id="node66" class="node">
<title>foes.io</title>
<path fill="#90caf9" stroke="#90caf9" d="M564.5,-807.5C564.5,-807.5 456.5,-807.5 456.5,-807.5 450.5,-807.5 444.5,-801.5 444.5,-795.5 444.5,-795.5 444.5,-781.5 444.5,-781.5 444.5,-775.5 450.5,-769.5 456.5,-769.5 456.5,-769.5 564.5,-769.5 564.5,-769.5 570.5,-769.5 576.5,-775.5 576.5,-781.5 576.5,-781.5 576.5,-795.5 576.5,-795.5 576.5,-801.5 570.5,-807.5 564.5,-807.5"/>
<text text-anchor="middle" x="510.5" y="-792.3" font-family="Times,serif" font-size="14.00">foes.io</text>
<text text-anchor="middle" x="510.5" y="-777.3" font-family="Times,serif" font-size="14.00">Sydney de Vries</text>
</g>
<!-- moomoo.io&#45;&gt;foes.io -->
<g id="edge31" class="edge">
<title>moomoo.io&#45;&gt;foes.io</title>
<path fill="none" stroke="black" d="M642.61,-924.96C625.92,-915.46 606.21,-902.9 590.5,-889 565.85,-867.18 542.87,-837.18 527.92,-815.84"/>
<polygon fill="black" stroke="black" points="530.77,-813.81 522.22,-807.56 525.01,-817.78 530.77,-813.81"/>
</g>
<!-- doomed.io -->
<g id="node69" class="node">
<title>doomed.io</title>
<path fill="#90caf9" stroke="#90caf9" d="M637.5,-718.5C637.5,-718.5 571.5,-718.5 571.5,-718.5 565.5,-718.5 559.5,-712.5 559.5,-706.5 559.5,-706.5 559.5,-692.5 559.5,-692.5 559.5,-686.5 565.5,-680.5 571.5,-680.5 571.5,-680.5 637.5,-680.5 637.5,-680.5 643.5,-680.5 649.5,-686.5 649.5,-692.5 649.5,-692.5 649.5,-706.5 649.5,-706.5 649.5,-712.5 643.5,-718.5 637.5,-718.5"/>
<text text-anchor="middle" x="604.5" y="-703.3" font-family="Times,serif" font-size="14.00">doomed.io</text>
<text text-anchor="middle" x="604.5" y="-688.3" font-family="Times,serif" font-size="14.00">Ginoda</text>
</g>
<!-- moomoo.io&#45;&gt;doomed.io -->
<g id="edge32" class="edge">
<title>moomoo.io&#45;&gt;doomed.io</title>
<path fill="none" stroke="black" d="M668.23,-924.84C656.16,-900.47 635.24,-855.54 623.5,-815 615.14,-786.13 610.07,-752.03 607.3,-728.6"/>
<polygon fill="black" stroke="black" points="610.77,-728.19 606.18,-718.64 603.82,-728.97 610.77,-728.19"/>
</g>
<!-- surviv.io -->
<g id="node88" class="node">
<title>surviv.io</title>
<path fill="#fadc91" stroke="#fadc91" d="M728.5,-815C728.5,-815 644.5,-815 644.5,-815 638.5,-815 632.5,-809 632.5,-803 632.5,-803 632.5,-774 632.5,-774 632.5,-768 638.5,-762 644.5,-762 644.5,-762 728.5,-762 728.5,-762 734.5,-762 740.5,-768 740.5,-774 740.5,-774 740.5,-803 740.5,-803 740.5,-809 734.5,-815 728.5,-815"/>
<text text-anchor="middle" x="686.5" y="-799.8" font-family="Times,serif" font-size="14.00">surviv.io</text>
<text text-anchor="middle" x="686.5" y="-784.8" font-family="Times,serif" font-size="14.00">Justin Kim &amp;</text>
<text text-anchor="middle" x="686.5" y="-769.8" font-family="Times,serif" font-size="14.00"> Nick Clark</text>
</g>
<!-- moomoo.io&#45;&gt;surviv.io -->
<g id="edge36" class="edge">
<title>moomoo.io&#45;&gt;surviv.io</title>
<path fill="none" stroke="black" d="M678.57,-924.79C680,-900.32 682.58,-856.29 684.41,-825.12"/>
<polygon fill="black" stroke="black" points="687.91,-825.27 685,-815.09 680.92,-824.86 687.91,-825.27"/>
</g>
<!-- devast.io -->
<g id="node84" class="node">
<title>devast.io</title>
<path fill="#90caf9" stroke="#90caf9" d="M1253,-481.5C1253,-481.5 1178,-481.5 1178,-481.5 1172,-481.5 1166,-475.5 1166,-469.5 1166,-469.5 1166,-455.5 1166,-455.5 1166,-449.5 1172,-443.5 1178,-443.5 1178,-443.5 1253,-443.5 1253,-443.5 1259,-443.5 1265,-449.5 1265,-455.5 1265,-455.5 1265,-469.5 1265,-469.5 1265,-475.5 1259,-481.5 1253,-481.5"/>
<text text-anchor="middle" x="1215.5" y="-466.3" font-family="Times,serif" font-size="14.00">devast.io</text>
<text text-anchor="middle" x="1215.5" y="-451.3" font-family="Times,serif" font-size="14.00">LapaMauve</text>
</g>
<!-- starve.io&#45;&gt;devast.io -->
<g id="edge35" class="edge">
<title>starve.io&#45;&gt;devast.io</title>
<path fill="none" stroke="black" d="M1152.02,-924.75C1168.48,-916.26 1185.49,-904.54 1196.5,-889 1222.54,-852.27 1215.5,-834.52 1215.5,-789.5 1215.5,-789.5 1215.5,-789.5 1215.5,-617 1215.5,-573.38 1215.5,-522.78 1215.5,-491.96"/>
<polygon fill="black" stroke="black" points="1219,-491.93 1215.5,-481.93 1212,-491.93 1219,-491.93"/>
</g>
<!-- stabby.io -->
<g id="node57" class="node">
<title>stabby.io</title>
<path fill="#90caf9" stroke="#90caf9" d="M2651,-889C2651,-889 2588,-889 2588,-889 2582,-889 2576,-883 2576,-877 2576,-877 2576,-863 2576,-863 2576,-857 2582,-851 2588,-851 2588,-851 2651,-851 2651,-851 2657,-851 2663,-857 2663,-863 2663,-863 2663,-877 2663,-877 2663,-883 2657,-889 2651,-889"/>
<text text-anchor="middle" x="2619.5" y="-873.8" font-family="Times,serif" font-size="14.00">stabby.io</text>
<text text-anchor="middle" x="2619.5" y="-858.8" font-family="Times,serif" font-size="14.00">SoulFoam</text>
</g>
<!-- zombsroyale.io -->
<g id="node90" class="node">
<title>zombsroyale.io</title>
<path fill="#fadc91" stroke="#fadc91" d="M818.5,-637C818.5,-637 718.5,-637 718.5,-637 712.5,-637 706.5,-631 706.5,-625 706.5,-625 706.5,-611 706.5,-611 706.5,-605 712.5,-599 718.5,-599 718.5,-599 818.5,-599 818.5,-599 824.5,-599 830.5,-605 830.5,-611 830.5,-611 830.5,-625 830.5,-625 830.5,-631 824.5,-637 818.5,-637"/>
<text text-anchor="middle" x="768.5" y="-621.8" font-family="Times,serif" font-size="14.00">zombsroyale.io</text>
<text text-anchor="middle" x="768.5" y="-606.8" font-family="Times,serif" font-size="14.00">Yang Lui</text>
</g>
<!-- zombs.io&#45;&gt;zombsroyale.io -->
<g id="edge38" class="edge">
<title>zombs.io&#45;&gt;zombsroyale.io</title>
<path fill="none" stroke="black" d="M762.01,-850.62C763.23,-807.35 766.26,-698.85 767.71,-647.19"/>
<polygon fill="black" stroke="black" points="771.21,-647.17 767.99,-637.07 764.22,-646.97 771.21,-647.17"/>
</g>
<!-- superspin.io -->
<g id="node60" class="node">
<title>superspin.io</title>
<path fill="#90caf9" stroke="#90caf9" d="M1175.5,-889C1175.5,-889 1095.5,-889 1095.5,-889 1089.5,-889 1083.5,-883 1083.5,-877 1083.5,-877 1083.5,-863 1083.5,-863 1083.5,-857 1089.5,-851 1095.5,-851 1095.5,-851 1175.5,-851 1175.5,-851 1181.5,-851 1187.5,-857 1187.5,-863 1187.5,-863 1187.5,-877 1187.5,-877 1187.5,-883 1181.5,-889 1175.5,-889"/>
<text text-anchor="middle" x="1135.5" y="-873.8" font-family="Times,serif" font-size="14.00">superspin.io</text>
<text text-anchor="middle" x="1135.5" y="-858.8" font-family="Times,serif" font-size="14.00">Jetti Games</text>
</g>
<!-- spinz.io&#45;&gt;superspin.io -->
<g id="edge49" class="edge">
<title>spinz.io&#45;&gt;superspin.io</title>
<path fill="none" stroke="black" d="M917.38,-889.17C927.23,-896.23 939.28,-903.38 951.5,-907 1000.08,-921.39 1016.32,-919.2 1065.5,-907 1076.63,-904.24 1087.95,-899.35 1098.14,-894"/>
<polygon fill="black" stroke="black" points="1100.09,-896.92 1107.15,-889.02 1096.7,-890.8 1100.09,-896.92"/>
</g>
<!-- fisp.io -->
<g id="node61" class="node">
<title>fisp.io</title>
<path fill="#90caf9" stroke="#90caf9" d="M1053.5,-889C1053.5,-889 963.5,-889 963.5,-889 957.5,-889 951.5,-883 951.5,-877 951.5,-877 951.5,-863 951.5,-863 951.5,-857 957.5,-851 963.5,-851 963.5,-851 1053.5,-851 1053.5,-851 1059.5,-851 1065.5,-857 1065.5,-863 1065.5,-863 1065.5,-877 1065.5,-877 1065.5,-883 1059.5,-889 1053.5,-889"/>
<text text-anchor="middle" x="1008.5" y="-873.8" font-family="Times,serif" font-size="14.00">fisp.io</text>
<text text-anchor="middle" x="1008.5" y="-858.8" font-family="Times,serif" font-size="14.00">Clown Games</text>
</g>
<!-- spinz.io&#45;&gt;fisp.io -->
<g id="edge48" class="edge">
<title>spinz.io&#45;&gt;fisp.io</title>
<path fill="none" stroke="black" d="M933.69,-870C936.15,-870 938.62,-870 941.08,-870"/>
<polygon fill="black" stroke="black" points="941.22,-873.5 951.22,-870 941.22,-866.5 941.22,-873.5"/>
</g>
<!-- goons.io -->
<g id="node64" class="node">
<title>goons.io</title>
<path fill="#90caf9" stroke="#90caf9" d="M2305.5,-807.5C2305.5,-807.5 2215.5,-807.5 2215.5,-807.5 2209.5,-807.5 2203.5,-801.5 2203.5,-795.5 2203.5,-795.5 2203.5,-781.5 2203.5,-781.5 2203.5,-775.5 2209.5,-769.5 2215.5,-769.5 2215.5,-769.5 2305.5,-769.5 2305.5,-769.5 2311.5,-769.5 2317.5,-775.5 2317.5,-781.5 2317.5,-781.5 2317.5,-795.5 2317.5,-795.5 2317.5,-801.5 2311.5,-807.5 2305.5,-807.5"/>
<text text-anchor="middle" x="2260.5" y="-792.3" font-family="Times,serif" font-size="14.00">goons.io</text>
<text text-anchor="middle" x="2260.5" y="-777.3" font-family="Times,serif" font-size="14.00">Clown Games</text>
</g>
<!-- pikes.io&#45;&gt;goons.io -->
<g id="edge64" class="edge">
<title>pikes.io&#45;&gt;goons.io</title>
<path fill="none" stroke="black" d="M2260.5,-850.96C2260.5,-841.17 2260.5,-828.85 2260.5,-817.81"/>
<polygon fill="black" stroke="black" points="2264,-817.74 2260.5,-807.74 2257,-817.74 2264,-817.74"/>
</g>
<!-- knuckol.club -->
<g id="node76" class="node">
<title>knuckol.club</title>
<path fill="#90caf9" stroke="#90caf9" d="M2301.5,-637C2301.5,-637 2219.5,-637 2219.5,-637 2213.5,-637 2207.5,-631 2207.5,-625 2207.5,-625 2207.5,-611 2207.5,-611 2207.5,-605 2213.5,-599 2219.5,-599 2219.5,-599 2301.5,-599 2301.5,-599 2307.5,-599 2313.5,-605 2313.5,-611 2313.5,-611 2313.5,-625 2313.5,-625 2313.5,-631 2307.5,-637 2301.5,-637"/>
<text text-anchor="middle" x="2260.5" y="-621.8" font-family="Times,serif" font-size="14.00">knuckol.club</text>
<text text-anchor="middle" x="2260.5" y="-606.8" font-family="Times,serif" font-size="14.00">Erigato</text>
</g>
<!-- goons.io&#45;&gt;knuckol.club -->
<g id="edge65" class="edge">
<title>goons.io&#45;&gt;knuckol.club</title>
<path fill="none" stroke="black" d="M2260.5,-769.47C2260.5,-740.28 2260.5,-682.45 2260.5,-647.6"/>
<polygon fill="black" stroke="black" points="2264,-647.16 2260.5,-637.16 2257,-647.16 2264,-647.16"/>
</g>
<!-- shootem.io -->
<g id="node75" class="node">
<title>shootem.io</title>
<path fill="#90caf9" stroke="#90caf9" d="M1383.5,-637C1383.5,-637 1255.5,-637 1255.5,-637 1249.5,-637 1243.5,-631 1243.5,-625 1243.5,-625 1243.5,-611 1243.5,-611 1243.5,-605 1249.5,-599 1255.5,-599 1255.5,-599 1383.5,-599 1383.5,-599 1389.5,-599 1395.5,-605 1395.5,-611 1395.5,-611 1395.5,-625 1395.5,-625 1395.5,-631 1389.5,-637 1383.5,-637"/>
<text text-anchor="middle" x="1319.5" y="-621.8" font-family="Times,serif" font-size="14.00">shootem.io</text>
<text text-anchor="middle" x="1319.5" y="-606.8" font-family="Times,serif" font-size="14.00">Mathew Matakovic</text>
</g>
<!-- nightpoint.io&#45;&gt;shootem.io -->
<g id="edge43" class="edge">
<title>nightpoint.io&#45;&gt;shootem.io</title>
<path fill="none" stroke="black" d="M1378.02,-769.44C1364.07,-758.5 1347.93,-743.34 1338.5,-726 1325.25,-701.64 1320.95,-669.99 1319.69,-647.45"/>
<polygon fill="black" stroke="black" points="1323.18,-647.04 1319.29,-637.18 1316.19,-647.31 1323.18,-647.04"/>
</g>
<!-- bruh.io -->
<g id="node89" class="node">
<title>bruh.io</title>
<path fill="#fadc91" stroke="#fadc91" d="M1449,-718.5C1449,-718.5 1360,-718.5 1360,-718.5 1354,-718.5 1348,-712.5 1348,-706.5 1348,-706.5 1348,-692.5 1348,-692.5 1348,-686.5 1354,-680.5 1360,-680.5 1360,-680.5 1449,-680.5 1449,-680.5 1455,-680.5 1461,-686.5 1461,-692.5 1461,-692.5 1461,-706.5 1461,-706.5 1461,-712.5 1455,-718.5 1449,-718.5"/>
<text text-anchor="middle" x="1404.5" y="-703.3" font-family="Times,serif" font-size="14.00">bruh.io</text>
<text text-anchor="middle" x="1404.5" y="-688.3" font-family="Times,serif" font-size="14.00">Bitfox Games</text>
</g>
<!-- nightpoint.io&#45;&gt;bruh.io -->
<g id="edge42" class="edge">
<title>nightpoint.io&#45;&gt;bruh.io</title>
<path fill="none" stroke="black" d="M1404.5,-769.47C1404.5,-757.69 1404.5,-742.06 1404.5,-728.66"/>
<polygon fill="black" stroke="black" points="1408,-728.5 1404.5,-718.5 1401,-728.5 1408,-728.5"/>
</g>
<!-- battlepoint.io -->
<g id="node92" class="node">
<title>battlepoint.io</title>
<path fill="#fadc91" stroke="#fadc91" d="M1508,-481.5C1508,-481.5 1419,-481.5 1419,-481.5 1413,-481.5 1407,-475.5 1407,-469.5 1407,-469.5 1407,-455.5 1407,-455.5 1407,-449.5 1413,-443.5 1419,-443.5 1419,-443.5 1508,-443.5 1508,-443.5 1514,-443.5 1520,-449.5 1520,-455.5 1520,-455.5 1520,-469.5 1520,-469.5 1520,-475.5 1514,-481.5 1508,-481.5"/>
<text text-anchor="middle" x="1463.5" y="-466.3" font-family="Times,serif" font-size="14.00">battlepoint.io</text>
<text text-anchor="middle" x="1463.5" y="-451.3" font-family="Times,serif" font-size="14.00">Sarunas</text>
</g>
<!-- nightpoint.io&#45;&gt;battlepoint.io -->
<g id="edge41" class="edge">
<title>nightpoint.io&#45;&gt;battlepoint.io</title>
<path fill="none" stroke="black" d="M1432.45,-769.42C1446.39,-758.68 1461.88,-743.69 1469.5,-726 1503.66,-646.65 1483.95,-540.92 1471.42,-491.36"/>
<polygon fill="black" stroke="black" points="1474.79,-490.45 1468.87,-481.67 1468.02,-492.23 1474.79,-490.45"/>
</g>
<!-- doomed2.io -->
<g id="node78" class="node">
<title>doomed2.io</title>
<path fill="#90caf9" stroke="#90caf9" d="M642,-637C642,-637 567,-637 567,-637 561,-637 555,-631 555,-625 555,-625 555,-611 555,-611 555,-605 561,-599 567,-599 567,-599 642,-599 642,-599 648,-599 654,-605 654,-611 654,-611 654,-625 654,-625 654,-631 648,-637 642,-637"/>
<text text-anchor="middle" x="604.5" y="-621.8" font-family="Times,serif" font-size="14.00">doomed2.io</text>
<text text-anchor="middle" x="604.5" y="-606.8" font-family="Times,serif" font-size="14.00">Ginoda</text>
</g>
<!-- doomed.io&#45;&gt;doomed2.io -->
<g id="edge33" class="edge">
<title>doomed.io&#45;&gt;doomed2.io</title>
<path fill="none" stroke="black" d="M604.5,-680.46C604.5,-670.67 604.5,-658.35 604.5,-647.31"/>
<polygon fill="black" stroke="black" points="608,-647.24 604.5,-637.24 601,-647.24 608,-647.24"/>
</g>
<!-- shellshock.io -->
<g id="node71" class="node">
<title>shellshock.io</title>
<path fill="#90caf9" stroke="#90caf9" d="M2671.5,-717.5C2671.5,-717.5 2587.5,-717.5 2587.5,-717.5 2581.5,-717.5 2575.5,-711.5 2575.5,-705.5 2575.5,-705.5 2575.5,-693.5 2575.5,-693.5 2575.5,-687.5 2581.5,-681.5 2587.5,-681.5 2587.5,-681.5 2671.5,-681.5 2671.5,-681.5 2677.5,-681.5 2683.5,-687.5 2683.5,-693.5 2683.5,-693.5 2683.5,-705.5 2683.5,-705.5 2683.5,-711.5 2677.5,-717.5 2671.5,-717.5"/>
<text text-anchor="middle" x="2629.5" y="-695.8" font-family="Times,serif" font-size="14.00">shellshock.io</text>
</g>
<!-- krunker.io -->
<g id="node82" class="node">
<title>krunker.io</title>
<path fill="#90caf9" stroke="#90caf9" d="M2742.5,-563C2742.5,-563 2634.5,-563 2634.5,-563 2628.5,-563 2622.5,-557 2622.5,-551 2622.5,-551 2622.5,-537 2622.5,-537 2622.5,-531 2628.5,-525 2634.5,-525 2634.5,-525 2742.5,-525 2742.5,-525 2748.5,-525 2754.5,-531 2754.5,-537 2754.5,-537 2754.5,-551 2754.5,-551 2754.5,-557 2748.5,-563 2742.5,-563"/>
<text text-anchor="middle" x="2688.5" y="-547.8" font-family="Times,serif" font-size="14.00">krunker.io</text>
<text text-anchor="middle" x="2688.5" y="-532.8" font-family="Times,serif" font-size="14.00">Sydney de Vries</text>
</g>
<!-- shellshock.io&#45;&gt;krunker.io -->
<g id="edge57" class="edge">
<title>shellshock.io&#45;&gt;krunker.io</title>
<path fill="none" stroke="black" d="M2636.04,-681.49C2646.16,-655.14 2665.73,-604.23 2677.9,-572.58"/>
<polygon fill="black" stroke="black" points="2681.25,-573.63 2681.57,-563.04 2674.71,-571.12 2681.25,-573.63"/>
</g>
<!-- warscrap.io -->
<g id="node72" class="node">
<title>warscrap.io</title>
<path fill="#90caf9" stroke="#90caf9" d="M2789.5,-718.5C2789.5,-718.5 2713.5,-718.5 2713.5,-718.5 2707.5,-718.5 2701.5,-712.5 2701.5,-706.5 2701.5,-706.5 2701.5,-692.5 2701.5,-692.5 2701.5,-686.5 2707.5,-680.5 2713.5,-680.5 2713.5,-680.5 2789.5,-680.5 2789.5,-680.5 2795.5,-680.5 2801.5,-686.5 2801.5,-692.5 2801.5,-692.5 2801.5,-706.5 2801.5,-706.5 2801.5,-712.5 2795.5,-718.5 2789.5,-718.5"/>
<text text-anchor="middle" x="2751.5" y="-703.3" font-family="Times,serif" font-size="14.00">warscrap.io</text>
<text text-anchor="middle" x="2751.5" y="-688.3" font-family="Times,serif" font-size="14.00">Evil Noob</text>
</g>
<!-- warscrap.io&#45;&gt;krunker.io -->
<g id="edge56" class="edge">
<title>warscrap.io&#45;&gt;krunker.io</title>
<path fill="none" stroke="black" d="M2744.03,-680.29C2733.08,-653.63 2712.62,-603.78 2699.83,-572.6"/>
<polygon fill="black" stroke="black" points="2703,-571.11 2695.96,-563.19 2696.52,-573.77 2703,-571.11"/>
</g>
<!-- airma.sh -->
<g id="node73" class="node">
<title>airma.sh</title>
<path fill="#90caf9" stroke="#90caf9" d="M2903,-717.5C2903,-717.5 2848,-717.5 2848,-717.5 2842,-717.5 2836,-711.5 2836,-705.5 2836,-705.5 2836,-693.5 2836,-693.5 2836,-687.5 2842,-681.5 2848,-681.5 2848,-681.5 2903,-681.5 2903,-681.5 2909,-681.5 2915,-687.5 2915,-693.5 2915,-693.5 2915,-705.5 2915,-705.5 2915,-711.5 2909,-717.5 2903,-717.5"/>
<text text-anchor="middle" x="2875.5" y="-695.8" font-family="Times,serif" font-size="14.00">airma.sh</text>
</g>
<!-- skyroyale.io -->
<g id="node91" class="node">
<title>skyroyale.io</title>
<path fill="#fadc91" stroke="#fadc91" d="M2920.5,-563C2920.5,-563 2830.5,-563 2830.5,-563 2824.5,-563 2818.5,-557 2818.5,-551 2818.5,-551 2818.5,-537 2818.5,-537 2818.5,-531 2824.5,-525 2830.5,-525 2830.5,-525 2920.5,-525 2920.5,-525 2926.5,-525 2932.5,-531 2932.5,-537 2932.5,-537 2932.5,-551 2932.5,-551 2932.5,-557 2926.5,-563 2920.5,-563"/>
<text text-anchor="middle" x="2875.5" y="-547.8" font-family="Times,serif" font-size="14.00">skyroyale.io</text>
<text text-anchor="middle" x="2875.5" y="-532.8" font-family="Times,serif" font-size="14.00">Clown Games</text>
</g>
<!-- airma.sh&#45;&gt;skyroyale.io -->
<g id="edge66" class="edge">
<title>airma.sh&#45;&gt;skyroyale.io</title>
<path fill="none" stroke="black" d="M2875.5,-681.49C2875.5,-655.37 2875.5,-605.11 2875.5,-573.41"/>
<polygon fill="black" stroke="black" points="2879,-573.04 2875.5,-563.04 2872,-573.04 2879,-573.04"/>
</g>
<!-- pockey.io -->
<g id="node74" class="node">
<title>pockey.io</title>
<path fill="#90caf9" stroke="#90caf9" d="M3058,-726C3058,-726 2945,-726 2945,-726 2939,-726 2933,-720 2933,-714 2933,-714 2933,-685 2933,-685 2933,-679 2939,-673 2945,-673 2945,-673 3058,-673 3058,-673 3064,-673 3070,-679 3070,-685 3070,-685 3070,-714 3070,-714 3070,-720 3064,-726 3058,-726"/>
<text text-anchor="middle" x="3001.5" y="-710.8" font-family="Times,serif" font-size="14.00">pockey.io</text>
<text text-anchor="middle" x="3001.5" y="-695.8" font-family="Times,serif" font-size="14.00">Starcade</text>
<text text-anchor="middle" x="3001.5" y="-680.8" font-family="Times,serif" font-size="14.00">(KidComet &amp; al.)</text>
</g>
<!-- nend.io -->
<g id="node77" class="node">
<title>nend.io</title>
<path fill="#90caf9" stroke="#90caf9" d="M2991,-637C2991,-637 2916,-637 2916,-637 2910,-637 2904,-631 2904,-625 2904,-625 2904,-611 2904,-611 2904,-605 2910,-599 2916,-599 2916,-599 2991,-599 2991,-599 2997,-599 3003,-605 3003,-611 3003,-611 3003,-625 3003,-625 3003,-631 2997,-637 2991,-637"/>
<text text-anchor="middle" x="2953.5" y="-621.8" font-family="Times,serif" font-size="14.00">nend.io</text>
<text text-anchor="middle" x="2953.5" y="-606.8" font-family="Times,serif" font-size="14.00">LapaMauve</text>
</g>
<!-- flyordie.io -->
<g id="node80" class="node">
<title>flyordie.io</title>
<path fill="#90caf9" stroke="#90caf9" d="M3040,-563C3040,-563 2963,-563 2963,-563 2957,-563 2951,-557 2951,-551 2951,-551 2951,-537 2951,-537 2951,-531 2957,-525 2963,-525 2963,-525 3040,-525 3040,-525 3046,-525 3052,-531 3052,-537 3052,-537 3052,-551 3052,-551 3052,-557 3046,-563 3040,-563"/>
<text text-anchor="middle" x="3001.5" y="-547.8" font-family="Times,serif" font-size="14.00">flyordie.io</text>
<text text-anchor="middle" x="3001.5" y="-532.8" font-family="Times,serif" font-size="14.00">Pixel Voices</text>
</g>
<!-- llam.io -->
<g id="node85" class="node">
<title>llam.io</title>
<path fill="#90caf9" stroke="#90caf9" d="M3040,-400C3040,-400 2963,-400 2963,-400 2957,-400 2951,-394 2951,-388 2951,-388 2951,-374 2951,-374 2951,-368 2957,-362 2963,-362 2963,-362 3040,-362 3040,-362 3046,-362 3052,-368 3052,-374 3052,-374 3052,-388 3052,-388 3052,-394 3046,-400 3040,-400"/>
<text text-anchor="middle" x="3001.5" y="-384.8" font-family="Times,serif" font-size="14.00">llam.io</text>
<text text-anchor="middle" x="3001.5" y="-369.8" font-family="Times,serif" font-size="14.00">Pixel Voices</text>
</g>
<!-- flyordie.io&#45;&gt;llam.io -->
<g id="edge69" class="edge">
<title>flyordie.io&#45;&gt;llam.io</title>
<path fill="none" stroke="black" d="M3001.5,-524.84C3001.5,-497.06 3001.5,-443.76 3001.5,-410.7"/>
<polygon fill="black" stroke="black" points="3005,-410.34 3001.5,-400.34 2998,-410.34 3005,-410.34"/>
</g>
<!-- acolytefight.io -->
<g id="node86" class="node">
<title>acolytefight.io</title>
<path fill="#90caf9" stroke="#90caf9" d="M3197,-400C3197,-400 3082,-400 3082,-400 3076,-400 3070,-394 3070,-388 3070,-388 3070,-374 3070,-374 3070,-368 3076,-362 3082,-362 3082,-362 3197,-362 3197,-362 3203,-362 3209,-368 3209,-374 3209,-374 3209,-388 3209,-388 3209,-394 3203,-400 3197,-400"/>
<text text-anchor="middle" x="3139.5" y="-384.8" font-family="Times,serif" font-size="14.00">acolytefight.io</text>
<text text-anchor="middle" x="3139.5" y="-369.8" font-family="Times,serif" font-size="14.00">raysplaceinspace</text>
</g>
<!-- bruh.io&#45;&gt;battlepoint.io -->
<g id="edge44" class="edge">
<title>bruh.io&#45;&gt;battlepoint.io</title>
<path fill="none" stroke="black" d="M1409.03,-680.45C1419.26,-639.7 1444.21,-540.32 1456.47,-491.5"/>
<polygon fill="black" stroke="black" points="1459.91,-492.16 1458.95,-481.61 1453.12,-490.46 1459.91,-492.16"/>
</g>
<!-- buildroyale.io -->
<g id="node93" class="node">
<title>buildroyale.io</title>
<path fill="#fadc91" stroke="#fadc91" d="M832.5,-400C832.5,-400 704.5,-400 704.5,-400 698.5,-400 692.5,-394 692.5,-388 692.5,-388 692.5,-374 692.5,-374 692.5,-368 698.5,-362 704.5,-362 704.5,-362 832.5,-362 832.5,-362 838.5,-362 844.5,-368 844.5,-374 844.5,-374 844.5,-388 844.5,-388 844.5,-394 838.5,-400 832.5,-400"/>
<text text-anchor="middle" x="768.5" y="-384.8" font-family="Times,serif" font-size="14.00">buildroyale.io</text>
<text text-anchor="middle" x="768.5" y="-369.8" font-family="Times,serif" font-size="14.00">Mathew Matakovic</text>
</g>
<!-- zombsroyale.io&#45;&gt;buildroyale.io -->
<g id="edge39" class="edge">
<title>zombsroyale.io&#45;&gt;buildroyale.io</title>
<path fill="none" stroke="black" d="M768.5,-598.95C768.5,-558.28 768.5,-459.23 768.5,-410.31"/>
<polygon fill="black" stroke="black" points="772,-410.11 768.5,-400.11 765,-410.11 772,-410.11"/>
</g>
</g>
</svg>
