<?xml version="1.0" encoding="UTF-8" standalone="no"?>
<!DOCTYPE svg PUBLIC "-//W3C//DTD SVG 1.1//EN"
 "http://www.w3.org/Graphics/SVG/1.1/DTD/svg11.dtd">
<!-- Generated by graphviz version 2.40.1 (20161225.0304)
 -->
<!-- Title: iogames Pages: 1 -->
<svg width="2432pt" height="1274pt"
 viewBox="0.00 0.00 2431.50 1274.00" xmlns="http://www.w3.org/2000/svg" xmlns:xlink="http://www.w3.org/1999/xlink">
<g id="graph0" class="graph" transform="scale(1 1) rotate(0) translate(4 1270)">
<title>iogames</title>
<polygon fill="#ffffff" stroke="transparent" points="-4,4 -4,-1270 2427.5,-1270 2427.5,4 -4,4"/>
<text text-anchor="start" x="1130.25" y="-1251.8" font-family="Times,serif" font-weight="bold" text-decoration="underline" font-size="14.00" fill="#000000">History of .io games</text>
<text text-anchor="start" x="1144.25" y="-1237.8" font-family="Times,serif" font-size="14.00" fill="#000000">by </text>
<text text-anchor="start" x="1166.25" y="-1237.8" font-family="Times,serif" font-weight="bold" font-size="14.00" fill="#000000">Julien Mourer</text>
<text text-anchor="start" x="1102.75" y="-1223.8" font-family="Times,serif" font-size="14.00" fill="#000000">Licensed under the CC BY 4.0</text>
<!-- 2014q4 -->
<g id="node1" class="node">
<title>2014q4</title>
<text text-anchor="middle" x="52" y="-1192" font-family="Times,serif" font-size="20.00" fill="#000000">Q4 2014</text>
</g>
<!-- 2015q1 -->
<g id="node2" class="node">
<title>2015q1</title>
<text text-anchor="middle" x="52" y="-1119" font-family="Times,serif" font-size="20.00" fill="#000000">Q1 2015</text>
</g>
<!-- 2014q4&#45;&gt;2015q1 -->
<!-- 2015q2 -->
<g id="node3" class="node">
<title>2015q2</title>
<text text-anchor="middle" x="52" y="-1046" font-family="Times,serif" font-size="20.00" fill="#000000">Q2 2015</text>
</g>
<!-- 2015q1&#45;&gt;2015q2 -->
<!-- 2015q3 -->
<g id="node4" class="node">
<title>2015q3</title>
<text text-anchor="middle" x="52" y="-973" font-family="Times,serif" font-size="20.00" fill="#000000">Q3 2015</text>
</g>
<!-- 2015q2&#45;&gt;2015q3 -->
<!-- 2015q4 -->
<g id="node5" class="node">
<title>2015q4</title>
<text text-anchor="middle" x="52" y="-901" font-family="Times,serif" font-size="20.00" fill="#000000">Q4 2015</text>
</g>
<!-- 2015q3&#45;&gt;2015q4 -->
<!-- 2016q1 -->
<g id="node6" class="node">
<title>2016q1</title>
<text text-anchor="middle" x="52" y="-828" font-family="Times,serif" font-size="20.00" fill="#000000">Q1 2016</text>
</g>
<!-- 2015q4&#45;&gt;2016q1 -->
<!-- 2016q2 -->
<g id="node7" class="node">
<title>2016q2</title>
<text text-anchor="middle" x="52" y="-754" font-family="Times,serif" font-size="20.00" fill="#000000">Q2 2016</text>
</g>
<!-- 2016q1&#45;&gt;2016q2 -->
<!-- 2016q3 -->
<g id="node8" class="node">
<title>2016q3</title>
<text text-anchor="middle" x="52" y="-680" font-family="Times,serif" font-size="20.00" fill="#000000">Q3 2016</text>
</g>
<!-- 2016q2&#45;&gt;2016q3 -->
<!-- 2016q4 -->
<g id="node9" class="node">
<title>2016q4</title>
<text text-anchor="middle" x="52" y="-606" font-family="Times,serif" font-size="20.00" fill="#000000">Q4 2016</text>
</g>
<!-- 2016q3&#45;&gt;2016q4 -->
<!-- 2017q1 -->
<g id="node10" class="node">
<title>2017q1</title>
<text text-anchor="middle" x="52" y="-532" font-family="Times,serif" font-size="20.00" fill="#000000">Q1 2017</text>
</g>
<!-- 2016q4&#45;&gt;2017q1 -->
<!-- 2017q2 -->
<g id="node11" class="node">
<title>2017q2</title>
<text text-anchor="middle" x="52" y="-458" font-family="Times,serif" font-size="20.00" fill="#000000">Q2 2017</text>
</g>
<!-- 2017q1&#45;&gt;2017q2 -->
<!-- 2017q3 -->
<g id="node12" class="node">
<title>2017q3</title>
<text text-anchor="middle" x="52" y="-384" font-family="Times,serif" font-size="20.00" fill="#000000">Q3 2017</text>
</g>
<!-- 2017q2&#45;&gt;2017q3 -->
<!-- 2017q4 -->
<g id="node13" class="node">
<title>2017q4</title>
<text text-anchor="middle" x="52" y="-310" font-family="Times,serif" font-size="20.00" fill="#000000">Q4 2017</text>
</g>
<!-- 2017q3&#45;&gt;2017q4 -->
<!-- 2018q1 -->
<g id="node14" class="node">
<title>2018q1</title>
<text text-anchor="middle" x="52" y="-236" font-family="Times,serif" font-size="20.00" fill="#000000">Q1 2018</text>
</g>
<!-- 2017q4&#45;&gt;2018q1 -->
<!-- 2018q2 -->
<g id="node15" class="node">
<title>2018q2</title>
<text text-anchor="middle" x="52" y="-162" font-family="Times,serif" font-size="20.00" fill="#000000">Q2 2018</text>
</g>
<!-- 2018q1&#45;&gt;2018q2 -->
<!-- 2018q3 -->
<g id="node16" class="node">
<title>2018q3</title>
<text text-anchor="middle" x="52" y="-88" font-family="Times,serif" font-size="20.00" fill="#000000">Q3 2018</text>
</g>
<!-- 2018q2&#45;&gt;2018q3 -->
<!-- 2018q4 -->
<g id="node17" class="node">
<title>2018q4</title>
<text text-anchor="middle" x="52" y="-14" font-family="Times,serif" font-size="20.00" fill="#000000">Q4 2018</text>
</g>
<!-- 2018q3&#45;&gt;2018q4 -->
<!-- cursors.io -->
<g id="node18" class="node">
<title>cursors.io</title>
<path fill="#90caf9" stroke="#90caf9" d="M263.5,-1216C263.5,-1216 134.5,-1216 134.5,-1216 128.5,-1216 122.5,-1210 122.5,-1204 122.5,-1204 122.5,-1190 122.5,-1190 122.5,-1184 128.5,-1178 134.5,-1178 134.5,-1178 263.5,-1178 263.5,-1178 269.5,-1178 275.5,-1184 275.5,-1190 275.5,-1190 275.5,-1204 275.5,-1204 275.5,-1210 269.5,-1216 263.5,-1216"/>
<text text-anchor="middle" x="199" y="-1200.8" font-family="Times,serif" font-size="14.00" fill="#000000">cursors.io</text>
<text text-anchor="middle" x="199" y="-1185.8" font-family="Times,serif" font-size="14.00" fill="#000000">Matheus Valadares</text>
</g>
<!-- agar.io -->
<g id="node19" class="node">
<title>agar.io</title>
<path fill="#90caf9" stroke="#90caf9" d="M729.5,-1070C729.5,-1070 600.5,-1070 600.5,-1070 594.5,-1070 588.5,-1064 588.5,-1058 588.5,-1058 588.5,-1044 588.5,-1044 588.5,-1038 594.5,-1032 600.5,-1032 600.5,-1032 729.5,-1032 729.5,-1032 735.5,-1032 741.5,-1038 741.5,-1044 741.5,-1044 741.5,-1058 741.5,-1058 741.5,-1064 735.5,-1070 729.5,-1070"/>
<text text-anchor="middle" x="665" y="-1054.8" font-family="Times,serif" font-size="14.00" fill="#000000">agar.io</text>
<text text-anchor="middle" x="665" y="-1039.8" font-family="Times,serif" font-size="14.00" fill="#000000">Matheus Valadares</text>
</g>
<!-- deeeep.io -->
<g id="node26" class="node">
<title>deeeep.io</title>
<path fill="#90caf9" stroke="#90caf9" d="M364.5,-629C364.5,-629 303.5,-629 303.5,-629 297.5,-629 291.5,-623 291.5,-617 291.5,-617 291.5,-605 291.5,-605 291.5,-599 297.5,-593 303.5,-593 303.5,-593 364.5,-593 364.5,-593 370.5,-593 376.5,-599 376.5,-605 376.5,-605 376.5,-617 376.5,-617 376.5,-623 370.5,-629 364.5,-629"/>
<text text-anchor="middle" x="334" y="-607.3" font-family="Times,serif" font-size="14.00" fill="#000000">deeeep.io</text>
</g>
<!-- agar.io&#45;&gt;deeeep.io -->
<g id="edge45" class="edge">
<title>agar.io&#45;&gt;deeeep.io</title>
<path fill="none" stroke="#000000" d="M605.2605,-1031.9749C551.5337,-1010.6871 481,-970.4641 481,-906 481,-906 481,-906 481,-759 481,-701.523 424.4997,-658.4287 381.5554,-633.9752"/>
<polygon fill="#000000" stroke="#000000" points="383.0683,-630.8125 372.6225,-629.0416 379.684,-636.9401 383.0683,-630.8125"/>
</g>
<!-- pie.ai -->
<g id="node38" class="node">
<title>pie.ai</title>
<path fill="#90caf9" stroke="#90caf9" d="M672,-555C672,-555 640,-555 640,-555 634,-555 628,-549 628,-543 628,-543 628,-531 628,-531 628,-525 634,-519 640,-519 640,-519 672,-519 672,-519 678,-519 684,-525 684,-531 684,-531 684,-543 684,-543 684,-549 678,-555 672,-555"/>
<text text-anchor="middle" x="656" y="-533.3" font-family="Times,serif" font-size="14.00" fill="#000000">pie.ai</text>
</g>
<!-- agar.io&#45;&gt;pie.ai -->
<g id="edge41" class="edge">
<title>agar.io&#45;&gt;pie.ai</title>
<path fill="none" stroke="#000000" d="M665,-1031.767C665,-1003.9984 665,-951.0608 665,-906 665,-906 665,-906 665,-685 665,-643.274 661.3918,-595.0525 658.7446,-565.2898"/>
<polygon fill="#000000" stroke="#000000" points="662.2186,-564.8452 657.8213,-555.206 655.2478,-565.4835 662.2186,-564.8452"/>
</g>
<!-- spinz.io -->
<g id="node44" class="node">
<title>spinz.io</title>
<path fill="#90caf9" stroke="#90caf9" d="M730,-482C730,-482 674,-482 674,-482 668,-482 662,-476 662,-470 662,-470 662,-456 662,-456 662,-450 668,-444 674,-444 674,-444 730,-444 730,-444 736,-444 742,-450 742,-456 742,-456 742,-470 742,-470 742,-476 736,-482 730,-482"/>
<text text-anchor="middle" x="702" y="-466.8" font-family="Times,serif" font-size="14.00" fill="#000000">spinz.io</text>
<text text-anchor="middle" x="702" y="-451.8" font-family="Times,serif" font-size="14.00" fill="#000000">Yang Lui</text>
</g>
<!-- agar.io&#45;&gt;spinz.io -->
<g id="edge38" class="edge">
<title>agar.io&#45;&gt;spinz.io</title>
<path fill="none" stroke="#000000" d="M675.4308,-1031.9385C689.2774,-1004.8057 712,-953.1042 712,-906 712,-906 712,-906 712,-611 712,-569.7147 708.0785,-522.0982 705.1469,-492.2702"/>
<polygon fill="#000000" stroke="#000000" points="708.6099,-491.7272 704.1207,-482.1304 701.6455,-492.432 708.6099,-491.7272"/>
</g>
<!-- slither.io -->
<g id="node20" class="node">
<title>slither.io</title>
<path fill="#90caf9" stroke="#90caf9" d="M1029,-852C1029,-852 943,-852 943,-852 937,-852 931,-846 931,-840 931,-840 931,-826 931,-826 931,-820 937,-814 943,-814 943,-814 1029,-814 1029,-814 1035,-814 1041,-820 1041,-826 1041,-826 1041,-840 1041,-840 1041,-846 1035,-852 1029,-852"/>
<text text-anchor="middle" x="986" y="-836.8" font-family="Times,serif" font-size="14.00" fill="#000000">slither.io</text>
<text text-anchor="middle" x="986" y="-821.8" font-family="Times,serif" font-size="14.00" fill="#000000">Steve Howse</text>
</g>
<!-- limax.io -->
<g id="node23" class="node">
<title>limax.io</title>
<path fill="#90caf9" stroke="#90caf9" d="M918,-778C918,-778 842,-778 842,-778 836,-778 830,-772 830,-766 830,-766 830,-752 830,-752 830,-746 836,-740 842,-740 842,-740 918,-740 918,-740 924,-740 930,-746 930,-752 930,-752 930,-766 930,-766 930,-772 924,-778 918,-778"/>
<text text-anchor="middle" x="880" y="-762.8" font-family="Times,serif" font-size="14.00" fill="#000000">limax.io</text>
<text text-anchor="middle" x="880" y="-747.8" font-family="Times,serif" font-size="14.00" fill="#000000">LapaMauve</text>
</g>
<!-- slither.io&#45;&gt;limax.io -->
<g id="edge19" class="edge">
<title>slither.io&#45;&gt;limax.io</title>
<path fill="none" stroke="#000000" d="M958.7024,-813.9432C945.6979,-804.8646 929.9694,-793.8843 916.0023,-784.1337"/>
<polygon fill="#000000" stroke="#000000" points="917.7766,-781.1039 907.5735,-778.2495 913.7696,-786.8436 917.7766,-781.1039"/>
</g>
<!-- wormax.io -->
<g id="node25" class="node">
<title>wormax.io</title>
<path fill="#90caf9" stroke="#90caf9" d="M973.5,-704C973.5,-704 906.5,-704 906.5,-704 900.5,-704 894.5,-698 894.5,-692 894.5,-692 894.5,-678 894.5,-678 894.5,-672 900.5,-666 906.5,-666 906.5,-666 973.5,-666 973.5,-666 979.5,-666 985.5,-672 985.5,-678 985.5,-678 985.5,-692 985.5,-692 985.5,-698 979.5,-704 973.5,-704"/>
<text text-anchor="middle" x="940" y="-688.8" font-family="Times,serif" font-size="14.00" fill="#000000">wormax.io</text>
<text text-anchor="middle" x="940" y="-673.8" font-family="Times,serif" font-size="14.00" fill="#000000">Elyland</text>
</g>
<!-- slither.io&#45;&gt;wormax.io -->
<g id="edge17" class="edge">
<title>slither.io&#45;&gt;wormax.io</title>
<path fill="none" stroke="#000000" d="M980.0805,-813.9546C972.2229,-788.6735 958.272,-743.7883 949.0785,-714.2092"/>
<polygon fill="#000000" stroke="#000000" points="952.3533,-712.9528 946.0429,-704.4423 945.6687,-715.0305 952.3533,-712.9528"/>
</g>
<!-- wormate.io -->
<g id="node29" class="node">
<title>wormate.io</title>
<path fill="#90caf9" stroke="#90caf9" d="M1076.5,-630C1076.5,-630 951.5,-630 951.5,-630 945.5,-630 939.5,-624 939.5,-618 939.5,-618 939.5,-604 939.5,-604 939.5,-598 945.5,-592 951.5,-592 951.5,-592 1076.5,-592 1076.5,-592 1082.5,-592 1088.5,-598 1088.5,-604 1088.5,-604 1088.5,-618 1088.5,-618 1088.5,-624 1082.5,-630 1076.5,-630"/>
<text text-anchor="middle" x="1014" y="-614.8" font-family="Times,serif" font-size="14.00" fill="#000000">wormate.io</text>
<text text-anchor="middle" x="1014" y="-599.8" font-family="Times,serif" font-size="14.00" fill="#000000">Oleksandr Godoba</text>
</g>
<!-- slither.io&#45;&gt;wormate.io -->
<g id="edge18" class="edge">
<title>slither.io&#45;&gt;wormate.io</title>
<path fill="none" stroke="#000000" d="M988.4358,-813.6873C993.3609,-774.6382 1004.5269,-686.1078 1010.3354,-640.0551"/>
<polygon fill="#000000" stroke="#000000" points="1013.8108,-640.4694 1011.5897,-630.11 1006.8658,-639.5934 1013.8108,-640.4694"/>
</g>
<!-- powerline.io -->
<g id="node53" class="node">
<title>powerline.io</title>
<path fill="#90caf9" stroke="#90caf9" d="M1165.5,-334C1165.5,-334 1066.5,-334 1066.5,-334 1060.5,-334 1054.5,-328 1054.5,-322 1054.5,-322 1054.5,-308 1054.5,-308 1054.5,-302 1060.5,-296 1066.5,-296 1066.5,-296 1165.5,-296 1165.5,-296 1171.5,-296 1177.5,-302 1177.5,-308 1177.5,-308 1177.5,-322 1177.5,-322 1177.5,-328 1171.5,-334 1165.5,-334"/>
<text text-anchor="middle" x="1116" y="-318.8" font-family="Times,serif" font-size="14.00" fill="#000000">powerline.io</text>
<text text-anchor="middle" x="1116" y="-303.8" font-family="Times,serif" font-size="14.00" fill="#000000">Andre Almeida</text>
</g>
<!-- slither.io&#45;&gt;powerline.io -->
<g id="edge20" class="edge">
<title>slither.io&#45;&gt;powerline.io</title>
<path fill="none" stroke="#000000" d="M1020.156,-813.7983C1058.6727,-789.3268 1116,-743.1386 1116,-685 1116,-685 1116,-685 1116,-463 1116,-421.8086 1116,-374.1685 1116,-344.3096"/>
<polygon fill="#000000" stroke="#000000" points="1119.5001,-344.1583 1116,-334.1583 1112.5001,-344.1583 1119.5001,-344.1583"/>
</g>
<!-- diep.io -->
<g id="node21" class="node">
<title>diep.io</title>
<path fill="#90caf9" stroke="#90caf9" d="M1270.5,-852C1270.5,-852 1141.5,-852 1141.5,-852 1135.5,-852 1129.5,-846 1129.5,-840 1129.5,-840 1129.5,-826 1129.5,-826 1129.5,-820 1135.5,-814 1141.5,-814 1141.5,-814 1270.5,-814 1270.5,-814 1276.5,-814 1282.5,-820 1282.5,-826 1282.5,-826 1282.5,-840 1282.5,-840 1282.5,-846 1276.5,-852 1270.5,-852"/>
<text text-anchor="middle" x="1206" y="-836.8" font-family="Times,serif" font-size="14.00" fill="#000000">diep.io</text>
<text text-anchor="middle" x="1206" y="-821.8" font-family="Times,serif" font-size="14.00" fill="#000000">Matheus Valadares</text>
</g>
<!-- tanksmith.io -->
<g id="node65" class="node">
<title>tanksmith.io</title>
<path fill="#90caf9" stroke="#90caf9" d="M1247.5,-186C1247.5,-186 1164.5,-186 1164.5,-186 1158.5,-186 1152.5,-180 1152.5,-174 1152.5,-174 1152.5,-160 1152.5,-160 1152.5,-154 1158.5,-148 1164.5,-148 1164.5,-148 1247.5,-148 1247.5,-148 1253.5,-148 1259.5,-154 1259.5,-160 1259.5,-160 1259.5,-174 1259.5,-174 1259.5,-180 1253.5,-186 1247.5,-186"/>
<text text-anchor="middle" x="1206" y="-170.8" font-family="Times,serif" font-size="14.00" fill="#000000">tanksmith.io</text>
<text text-anchor="middle" x="1206" y="-155.8" font-family="Times,serif" font-size="14.00" fill="#000000">IO Ninja</text>
</g>
<!-- diep.io&#45;&gt;tanksmith.io -->
<g id="edge46" class="edge">
<title>diep.io&#45;&gt;tanksmith.io</title>
<path fill="none" stroke="#000000" d="M1206,-813.8417C1206,-785.6299 1206,-731.25 1206,-685 1206,-685 1206,-685 1206,-315 1206,-273.8086 1206,-226.1685 1206,-196.3096"/>
<polygon fill="#000000" stroke="#000000" points="1209.5001,-196.1583 1206,-186.1583 1202.5001,-196.1583 1209.5001,-196.1583"/>
</g>
<!-- wings.io -->
<g id="node22" class="node">
<title>wings.io</title>
<path fill="#90caf9" stroke="#90caf9" d="M1411.5,-852C1411.5,-852 1312.5,-852 1312.5,-852 1306.5,-852 1300.5,-846 1300.5,-840 1300.5,-840 1300.5,-826 1300.5,-826 1300.5,-820 1306.5,-814 1312.5,-814 1312.5,-814 1411.5,-814 1411.5,-814 1417.5,-814 1423.5,-820 1423.5,-826 1423.5,-826 1423.5,-840 1423.5,-840 1423.5,-846 1417.5,-852 1411.5,-852"/>
<text text-anchor="middle" x="1362" y="-836.8" font-family="Times,serif" font-size="14.00" fill="#000000">wings.io</text>
<text text-anchor="middle" x="1362" y="-821.8" font-family="Times,serif" font-size="14.00" fill="#000000">Andre Almeida</text>
</g>
<!-- wilds.io -->
<g id="node24" class="node">
<title>wilds.io</title>
<path fill="#90caf9" stroke="#90caf9" d="M1314.5,-778C1314.5,-778 1263.5,-778 1263.5,-778 1257.5,-778 1251.5,-772 1251.5,-766 1251.5,-766 1251.5,-752 1251.5,-752 1251.5,-746 1257.5,-740 1263.5,-740 1263.5,-740 1314.5,-740 1314.5,-740 1320.5,-740 1326.5,-746 1326.5,-752 1326.5,-752 1326.5,-766 1326.5,-766 1326.5,-772 1320.5,-778 1314.5,-778"/>
<text text-anchor="middle" x="1289" y="-762.8" font-family="Times,serif" font-size="14.00" fill="#000000">wilds.io</text>
<text text-anchor="middle" x="1289" y="-747.8" font-family="Times,serif" font-size="14.00" fill="#000000">Rezoner</text>
</g>
<!-- wanderers.io -->
<g id="node56" class="node">
<title>wanderers.io</title>
<path fill="#90caf9" stroke="#90caf9" d="M1332,-334C1332,-334 1246,-334 1246,-334 1240,-334 1234,-328 1234,-322 1234,-322 1234,-308 1234,-308 1234,-302 1240,-296 1246,-296 1246,-296 1332,-296 1332,-296 1338,-296 1344,-302 1344,-308 1344,-308 1344,-322 1344,-322 1344,-328 1338,-334 1332,-334"/>
<text text-anchor="middle" x="1289" y="-318.8" font-family="Times,serif" font-size="14.00" fill="#000000">wanderers.io</text>
<text text-anchor="middle" x="1289" y="-303.8" font-family="Times,serif" font-size="14.00" fill="#000000">Rezoner</text>
</g>
<!-- wilds.io&#45;&gt;wanderers.io -->
<g id="edge37" class="edge">
<title>wilds.io&#45;&gt;wanderers.io</title>
<path fill="none" stroke="#000000" d="M1289,-739.8417C1289,-711.6299 1289,-657.25 1289,-611 1289,-611 1289,-611 1289,-463 1289,-421.8086 1289,-374.1685 1289,-344.3096"/>
<polygon fill="#000000" stroke="#000000" points="1292.5001,-344.1583 1289,-334.1583 1285.5001,-344.1583 1292.5001,-344.1583"/>
</g>
<!-- oceanar.io -->
<g id="node27" class="node">
<title>oceanar.io</title>
<path fill="#90caf9" stroke="#90caf9" d="M624.5,-630C624.5,-630 559.5,-630 559.5,-630 553.5,-630 547.5,-624 547.5,-618 547.5,-618 547.5,-604 547.5,-604 547.5,-598 553.5,-592 559.5,-592 559.5,-592 624.5,-592 624.5,-592 630.5,-592 636.5,-598 636.5,-604 636.5,-604 636.5,-618 636.5,-618 636.5,-624 630.5,-630 624.5,-630"/>
<text text-anchor="middle" x="592" y="-614.8" font-family="Times,serif" font-size="14.00" fill="#000000">oceanar.io</text>
<text text-anchor="middle" x="592" y="-599.8" font-family="Times,serif" font-size="14.00" fill="#000000">S3Games</text>
</g>
<!-- deeeep.io&#45;&gt;oceanar.io -->
<g id="edge21" class="edge">
<title>deeeep.io&#45;&gt;oceanar.io</title>
<path fill="none" stroke="#000000" d="M356.5131,-629.0102C367.2115,-636.4407 380.5778,-644.1942 394,-648 451.7244,-664.3674 471.1026,-663.7444 529,-648 539.0061,-645.279 549.046,-640.5227 558.0778,-635.3085"/>
<polygon fill="#000000" stroke="#000000" points="560.0395,-638.2113 566.7349,-630.0001 556.3804,-632.2438 560.0395,-638.2113"/>
</g>
<!-- mope.io -->
<g id="node28" class="node">
<title>mope.io</title>
<path fill="#90caf9" stroke="#90caf9" d="M517.5,-630C517.5,-630 406.5,-630 406.5,-630 400.5,-630 394.5,-624 394.5,-618 394.5,-618 394.5,-604 394.5,-604 394.5,-598 400.5,-592 406.5,-592 406.5,-592 517.5,-592 517.5,-592 523.5,-592 529.5,-598 529.5,-604 529.5,-604 529.5,-618 529.5,-618 529.5,-624 523.5,-630 517.5,-630"/>
<text text-anchor="middle" x="462" y="-614.8" font-family="Times,serif" font-size="14.00" fill="#000000">mope.io</text>
<text text-anchor="middle" x="462" y="-599.8" font-family="Times,serif" font-size="14.00" fill="#000000">Stan Tatarnykov</text>
</g>
<!-- deeeep.io&#45;&gt;mope.io -->
<g id="edge22" class="edge">
<title>deeeep.io&#45;&gt;mope.io</title>
<path fill="none" stroke="#000000" d="M376.5,-611C378.9892,-611 381.4785,-611 383.9677,-611"/>
<polygon fill="#000000" stroke="#000000" points="384.2012,-614.5001 394.2012,-611 384.2011,-607.5001 384.2012,-614.5001"/>
</g>
<!-- moomoo.io -->
<g id="node39" class="node">
<title>moomoo.io</title>
<path fill="#90caf9" stroke="#90caf9" d="M537.5,-556C537.5,-556 428.5,-556 428.5,-556 422.5,-556 416.5,-550 416.5,-544 416.5,-544 416.5,-530 416.5,-530 416.5,-524 422.5,-518 428.5,-518 428.5,-518 537.5,-518 537.5,-518 543.5,-518 549.5,-524 549.5,-530 549.5,-530 549.5,-544 549.5,-544 549.5,-550 543.5,-556 537.5,-556"/>
<text text-anchor="middle" x="483" y="-540.8" font-family="Times,serif" font-size="14.00" fill="#000000">moomoo.io</text>
<text text-anchor="middle" x="483" y="-525.8" font-family="Times,serif" font-size="14.00" fill="#000000">Sydney de Vries</text>
</g>
<!-- mope.io&#45;&gt;moomoo.io -->
<g id="edge23" class="edge">
<title>mope.io&#45;&gt;moomoo.io</title>
<path fill="none" stroke="#000000" d="M467.408,-591.9432C469.6441,-584.0636 472.2867,-574.7516 474.7549,-566.0543"/>
<polygon fill="#000000" stroke="#000000" points="478.1743,-566.8251 477.5373,-556.2495 471.4402,-564.914 478.1743,-566.8251"/>
</g>
<!-- paper.io -->
<g id="node30" class="node">
<title>paper.io</title>
<path fill="#90caf9" stroke="#90caf9" d="M1407,-778C1407,-778 1357,-778 1357,-778 1351,-778 1345,-772 1345,-766 1345,-766 1345,-752 1345,-752 1345,-746 1351,-740 1357,-740 1357,-740 1407,-740 1407,-740 1413,-740 1419,-746 1419,-752 1419,-752 1419,-766 1419,-766 1419,-772 1413,-778 1407,-778"/>
<text text-anchor="middle" x="1382" y="-762.8" font-family="Times,serif" font-size="14.00" fill="#000000">paper.io</text>
<text text-anchor="middle" x="1382" y="-747.8" font-family="Times,serif" font-size="14.00" fill="#000000">Voodoo</text>
</g>
<!-- splix.io -->
<g id="node32" class="node">
<title>splix.io</title>
<path fill="#90caf9" stroke="#90caf9" d="M1404,-704C1404,-704 1360,-704 1360,-704 1354,-704 1348,-698 1348,-692 1348,-692 1348,-678 1348,-678 1348,-672 1354,-666 1360,-666 1360,-666 1404,-666 1404,-666 1410,-666 1416,-672 1416,-678 1416,-678 1416,-692 1416,-692 1416,-698 1410,-704 1404,-704"/>
<text text-anchor="middle" x="1382" y="-688.8" font-family="Times,serif" font-size="14.00" fill="#000000">splix.io</text>
<text text-anchor="middle" x="1382" y="-673.8" font-family="Times,serif" font-size="14.00" fill="#000000">Jesper</text>
</g>
<!-- paper.io&#45;&gt;splix.io -->
<g id="edge42" class="edge">
<title>paper.io&#45;&gt;splix.io</title>
<path fill="none" stroke="#000000" d="M1382,-739.9432C1382,-732.1493 1382,-722.9538 1382,-714.3381"/>
<polygon fill="#000000" stroke="#000000" points="1385.5001,-714.2494 1382,-704.2495 1378.5001,-714.2495 1385.5001,-714.2494"/>
</g>
<!-- narwhale.io -->
<g id="node31" class="node">
<title>narwhale.io</title>
<path fill="#90caf9" stroke="#90caf9" d="M1601,-704C1601,-704 1503,-704 1503,-704 1497,-704 1491,-698 1491,-692 1491,-692 1491,-678 1491,-678 1491,-672 1497,-666 1503,-666 1503,-666 1601,-666 1601,-666 1607,-666 1613,-672 1613,-678 1613,-678 1613,-692 1613,-692 1613,-698 1607,-704 1601,-704"/>
<text text-anchor="middle" x="1552" y="-688.8" font-family="Times,serif" font-size="14.00" fill="#000000">narwhale.io</text>
<text text-anchor="middle" x="1552" y="-673.8" font-family="Times,serif" font-size="14.00" fill="#000000">Hsi&#45;Hung Shih</text>
</g>
<!-- pikes.io -->
<g id="node47" class="node">
<title>pikes.io</title>
<path fill="#90caf9" stroke="#90caf9" d="M1553.5,-482C1553.5,-482 1462.5,-482 1462.5,-482 1456.5,-482 1450.5,-476 1450.5,-470 1450.5,-470 1450.5,-456 1450.5,-456 1450.5,-450 1456.5,-444 1462.5,-444 1462.5,-444 1553.5,-444 1553.5,-444 1559.5,-444 1565.5,-450 1565.5,-456 1565.5,-456 1565.5,-470 1565.5,-470 1565.5,-476 1559.5,-482 1553.5,-482"/>
<text text-anchor="middle" x="1508" y="-466.8" font-family="Times,serif" font-size="14.00" fill="#000000">pikes.io</text>
<text text-anchor="middle" x="1508" y="-451.8" font-family="Times,serif" font-size="14.00" fill="#000000">Clown Games</text>
</g>
<!-- narwhale.io&#45;&gt;pikes.io -->
<g id="edge51" class="edge">
<title>narwhale.io&#45;&gt;pikes.io</title>
<path fill="none" stroke="#000000" d="M1548.1723,-665.6873C1540.4328,-626.6382 1522.8862,-538.1078 1513.7587,-492.0551"/>
<polygon fill="#000000" stroke="#000000" points="1517.165,-491.2387 1511.7876,-482.11 1510.2986,-492.5996 1517.165,-491.2387"/>
</g>
<!-- knuckol.club -->
<g id="node62" class="node">
<title>knuckol.club</title>
<path fill="#90caf9" stroke="#90caf9" d="M1636.5,-260C1636.5,-260 1551.5,-260 1551.5,-260 1545.5,-260 1539.5,-254 1539.5,-248 1539.5,-248 1539.5,-234 1539.5,-234 1539.5,-228 1545.5,-222 1551.5,-222 1551.5,-222 1636.5,-222 1636.5,-222 1642.5,-222 1648.5,-228 1648.5,-234 1648.5,-234 1648.5,-248 1648.5,-248 1648.5,-254 1642.5,-260 1636.5,-260"/>
<text text-anchor="middle" x="1594" y="-244.8" font-family="Times,serif" font-size="14.00" fill="#000000">knuckol.club</text>
<text text-anchor="middle" x="1594" y="-229.8" font-family="Times,serif" font-size="14.00" fill="#000000">Erigato</text>
</g>
<!-- narwhale.io&#45;&gt;knuckol.club -->
<g id="edge53" class="edge">
<title>narwhale.io&#45;&gt;knuckol.club</title>
<path fill="none" stroke="#000000" d="M1561.1134,-665.862C1573.4659,-638.1184 1594,-584.8092 1594,-537 1594,-537 1594,-537 1594,-389 1594,-347.8086 1594,-300.1685 1594,-270.3096"/>
<polygon fill="#000000" stroke="#000000" points="1597.5001,-270.1583 1594,-260.1583 1590.5001,-270.1583 1597.5001,-270.1583"/>
</g>
<!-- hexar.io -->
<g id="node37" class="node">
<title>hexar.io</title>
<path fill="#90caf9" stroke="#90caf9" d="M1406.5,-555C1406.5,-555 1357.5,-555 1357.5,-555 1351.5,-555 1345.5,-549 1345.5,-543 1345.5,-543 1345.5,-531 1345.5,-531 1345.5,-525 1351.5,-519 1357.5,-519 1357.5,-519 1406.5,-519 1406.5,-519 1412.5,-519 1418.5,-525 1418.5,-531 1418.5,-531 1418.5,-543 1418.5,-543 1418.5,-549 1412.5,-555 1406.5,-555"/>
<text text-anchor="middle" x="1382" y="-533.3" font-family="Times,serif" font-size="14.00" fill="#000000">hexar.io</text>
</g>
<!-- splix.io&#45;&gt;hexar.io -->
<g id="edge43" class="edge">
<title>splix.io&#45;&gt;hexar.io</title>
<path fill="none" stroke="#000000" d="M1382,-665.9546C1382,-640.3667 1382,-594.696 1382,-565.1392"/>
<polygon fill="#000000" stroke="#000000" points="1385.5001,-565.0459 1382,-555.0459 1378.5001,-565.046 1385.5001,-565.0459"/>
</g>
<!-- drawthis.io -->
<g id="node33" class="node">
<title>drawthis.io</title>
<path fill="#90caf9" stroke="#90caf9" d="M1730.5,-703C1730.5,-703 1657.5,-703 1657.5,-703 1651.5,-703 1645.5,-697 1645.5,-691 1645.5,-691 1645.5,-679 1645.5,-679 1645.5,-673 1651.5,-667 1657.5,-667 1657.5,-667 1730.5,-667 1730.5,-667 1736.5,-667 1742.5,-673 1742.5,-679 1742.5,-679 1742.5,-691 1742.5,-691 1742.5,-697 1736.5,-703 1730.5,-703"/>
<text text-anchor="middle" x="1694" y="-681.3" font-family="Times,serif" font-size="14.00" fill="#000000">drawthis.io</text>
</g>
<!-- skribbl.io -->
<g id="node41" class="node">
<title>skribbl.io</title>
<path fill="#90caf9" stroke="#90caf9" d="M1714,-555C1714,-555 1654,-555 1654,-555 1648,-555 1642,-549 1642,-543 1642,-543 1642,-531 1642,-531 1642,-525 1648,-519 1654,-519 1654,-519 1714,-519 1714,-519 1720,-519 1726,-525 1726,-531 1726,-531 1726,-543 1726,-543 1726,-549 1720,-555 1714,-555"/>
<text text-anchor="middle" x="1684" y="-533.3" font-family="Times,serif" font-size="14.00" fill="#000000">skribbl.io</text>
</g>
<!-- drawthis.io&#45;&gt;skribbl.io -->
<g id="edge49" class="edge">
<title>drawthis.io&#45;&gt;skribbl.io</title>
<path fill="none" stroke="#000000" d="M1692.7738,-666.8523C1691.0645,-641.5539 1687.9483,-595.4342 1685.9268,-565.5167"/>
<polygon fill="#000000" stroke="#000000" points="1689.4025,-565.0374 1685.2362,-555.2961 1682.4184,-565.5094 1689.4025,-565.0374"/>
</g>
<!-- drawthis2.io -->
<g id="node66" class="node">
<title>drawthis2.io</title>
<path fill="#90caf9" stroke="#90caf9" d="M1795,-186C1795,-186 1713,-186 1713,-186 1707,-186 1701,-180 1701,-174 1701,-174 1701,-160 1701,-160 1701,-154 1707,-148 1713,-148 1713,-148 1795,-148 1795,-148 1801,-148 1807,-154 1807,-160 1807,-160 1807,-174 1807,-174 1807,-180 1801,-186 1795,-186"/>
<text text-anchor="middle" x="1754" y="-170.8" font-family="Times,serif" font-size="14.00" fill="#000000">drawthis2.io</text>
<text text-anchor="middle" x="1754" y="-155.8" font-family="Times,serif" font-size="14.00" fill="#000000">lagged.com</text>
</g>
<!-- drawthis.io&#45;&gt;drawthis2.io -->
<g id="edge50" class="edge">
<title>drawthis.io&#45;&gt;drawthis2.io</title>
<path fill="none" stroke="#000000" d="M1706.7245,-666.8084C1724.3369,-639.8007 1754,-586.9062 1754,-537 1754,-537 1754,-537 1754,-315 1754,-273.8086 1754,-226.1685 1754,-196.3096"/>
<polygon fill="#000000" stroke="#000000" points="1757.5001,-196.1583 1754,-186.1583 1750.5001,-196.1583 1757.5001,-196.1583"/>
</g>
<!-- bonk.io -->
<g id="node34" class="node">
<title>bonk.io</title>
<path fill="#90caf9" stroke="#90caf9" d="M1817.5,-704C1817.5,-704 1772.5,-704 1772.5,-704 1766.5,-704 1760.5,-698 1760.5,-692 1760.5,-692 1760.5,-678 1760.5,-678 1760.5,-672 1766.5,-666 1772.5,-666 1772.5,-666 1817.5,-666 1817.5,-666 1823.5,-666 1829.5,-672 1829.5,-678 1829.5,-678 1829.5,-692 1829.5,-692 1829.5,-698 1823.5,-704 1817.5,-704"/>
<text text-anchor="middle" x="1795" y="-688.8" font-family="Times,serif" font-size="14.00" fill="#000000">bonk.io</text>
<text text-anchor="middle" x="1795" y="-673.8" font-family="Times,serif" font-size="14.00" fill="#000000">Chaz</text>
</g>
<!-- krew.io -->
<g id="node35" class="node">
<title>krew.io</title>
<path fill="#90caf9" stroke="#90caf9" d="M1838,-630C1838,-630 1794,-630 1794,-630 1788,-630 1782,-624 1782,-618 1782,-618 1782,-604 1782,-604 1782,-598 1788,-592 1794,-592 1794,-592 1838,-592 1838,-592 1844,-592 1850,-598 1850,-604 1850,-604 1850,-618 1850,-618 1850,-624 1844,-630 1838,-630"/>
<text text-anchor="middle" x="1816" y="-614.8" font-family="Times,serif" font-size="14.00" fill="#000000">krew.io</text>
<text text-anchor="middle" x="1816" y="-599.8" font-family="Times,serif" font-size="14.00" fill="#000000">M0dE</text>
</g>
<!-- brutal.io -->
<g id="node36" class="node">
<title>brutal.io</title>
<path fill="#90caf9" stroke="#90caf9" d="M1893.5,-556C1893.5,-556 1794.5,-556 1794.5,-556 1788.5,-556 1782.5,-550 1782.5,-544 1782.5,-544 1782.5,-530 1782.5,-530 1782.5,-524 1788.5,-518 1794.5,-518 1794.5,-518 1893.5,-518 1893.5,-518 1899.5,-518 1905.5,-524 1905.5,-530 1905.5,-530 1905.5,-544 1905.5,-544 1905.5,-550 1899.5,-556 1893.5,-556"/>
<text text-anchor="middle" x="1844" y="-540.8" font-family="Times,serif" font-size="14.00" fill="#000000">brutal.io</text>
<text text-anchor="middle" x="1844" y="-525.8" font-family="Times,serif" font-size="14.00" fill="#000000">Andre Almeida</text>
</g>
<!-- superhex.io -->
<g id="node48" class="node">
<title>superhex.io</title>
<path fill="#90caf9" stroke="#90caf9" d="M1420,-481C1420,-481 1344,-481 1344,-481 1338,-481 1332,-475 1332,-469 1332,-469 1332,-457 1332,-457 1332,-451 1338,-445 1344,-445 1344,-445 1420,-445 1420,-445 1426,-445 1432,-451 1432,-457 1432,-457 1432,-469 1432,-469 1432,-475 1426,-481 1420,-481"/>
<text text-anchor="middle" x="1382" y="-459.3" font-family="Times,serif" font-size="14.00" fill="#000000">superhex.io</text>
</g>
<!-- hexar.io&#45;&gt;superhex.io -->
<g id="edge44" class="edge">
<title>hexar.io&#45;&gt;superhex.io</title>
<path fill="none" stroke="#000000" d="M1382,-518.7079C1382,-510.4635 1382,-500.5376 1382,-491.3622"/>
<polygon fill="#000000" stroke="#000000" points="1385.5001,-491.0817 1382,-481.0817 1378.5001,-491.0818 1385.5001,-491.0817"/>
</g>
<!-- starve.io -->
<g id="node40" class="node">
<title>starve.io</title>
<path fill="#90caf9" stroke="#90caf9" d="M941,-556C941,-556 865,-556 865,-556 859,-556 853,-550 853,-544 853,-544 853,-530 853,-530 853,-524 859,-518 865,-518 865,-518 941,-518 941,-518 947,-518 953,-524 953,-530 953,-530 953,-544 953,-544 953,-550 947,-556 941,-556"/>
<text text-anchor="middle" x="903" y="-540.8" font-family="Times,serif" font-size="14.00" fill="#000000">starve.io</text>
<text text-anchor="middle" x="903" y="-525.8" font-family="Times,serif" font-size="14.00" fill="#000000">LapaMauve</text>
</g>
<!-- moomoo.io&#45;&gt;starve.io -->
<g id="edge27" class="edge">
<title>moomoo.io&#45;&gt;starve.io</title>
<path fill="none" stroke="#000000" d="M543.3766,-556.0004C569.1649,-563.1738 599.7733,-570.4555 628,-574 702.174,-583.3143 787.4727,-567.7404 843.1532,-554.0292"/>
<polygon fill="#000000" stroke="#000000" points="844.0115,-557.4224 852.8534,-551.5855 842.3014,-550.6345 844.0115,-557.4224"/>
</g>
<!-- zombs.io -->
<g id="node43" class="node">
<title>zombs.io</title>
<path fill="#90caf9" stroke="#90caf9" d="M591,-482C591,-482 535,-482 535,-482 529,-482 523,-476 523,-470 523,-470 523,-456 523,-456 523,-450 529,-444 535,-444 535,-444 591,-444 591,-444 597,-444 603,-450 603,-456 603,-456 603,-470 603,-470 603,-476 597,-482 591,-482"/>
<text text-anchor="middle" x="563" y="-466.8" font-family="Times,serif" font-size="14.00" fill="#000000">zombs.io</text>
<text text-anchor="middle" x="563" y="-451.8" font-family="Times,serif" font-size="14.00" fill="#000000">Yang Lui</text>
</g>
<!-- moomoo.io&#45;&gt;zombs.io -->
<g id="edge30" class="edge">
<title>moomoo.io&#45;&gt;zombs.io</title>
<path fill="none" stroke="#000000" d="M503.602,-517.9432C513.0463,-509.2072 524.3943,-498.7103 534.6296,-489.2426"/>
<polygon fill="#000000" stroke="#000000" points="537.2254,-491.6093 542.1898,-482.2495 532.4721,-486.4705 537.2254,-491.6093"/>
</g>
<!-- foes.io -->
<g id="node50" class="node">
<title>foes.io</title>
<path fill="#90caf9" stroke="#90caf9" d="M243.5,-408C243.5,-408 134.5,-408 134.5,-408 128.5,-408 122.5,-402 122.5,-396 122.5,-396 122.5,-382 122.5,-382 122.5,-376 128.5,-370 134.5,-370 134.5,-370 243.5,-370 243.5,-370 249.5,-370 255.5,-376 255.5,-382 255.5,-382 255.5,-396 255.5,-396 255.5,-402 249.5,-408 243.5,-408"/>
<text text-anchor="middle" x="189" y="-392.8" font-family="Times,serif" font-size="14.00" fill="#000000">foes.io</text>
<text text-anchor="middle" x="189" y="-377.8" font-family="Times,serif" font-size="14.00" fill="#000000">Sydney de Vries</text>
</g>
<!-- moomoo.io&#45;&gt;foes.io -->
<g id="edge24" class="edge">
<title>moomoo.io&#45;&gt;foes.io</title>
<path fill="none" stroke="#000000" d="M445.1665,-517.9546C391.7286,-491.0539 294.1974,-441.9565 236.123,-412.7218"/>
<polygon fill="#000000" stroke="#000000" points="237.6598,-409.577 227.1539,-408.2067 234.5123,-415.8295 237.6598,-409.577"/>
</g>
<!-- surviv.io -->
<g id="node51" class="node">
<title>surviv.io</title>
<path fill="#90caf9" stroke="#90caf9" d="M454,-408C454,-408 286,-408 286,-408 280,-408 274,-402 274,-396 274,-396 274,-382 274,-382 274,-376 280,-370 286,-370 286,-370 454,-370 454,-370 460,-370 466,-376 466,-382 466,-382 466,-396 466,-396 466,-402 460,-408 454,-408"/>
<text text-anchor="middle" x="370" y="-392.8" font-family="Times,serif" font-size="14.00" fill="#000000">surviv.io</text>
<text text-anchor="middle" x="370" y="-377.8" font-family="Times,serif" font-size="14.00" fill="#000000">Justin Kim &amp; Nick Clark</text>
</g>
<!-- moomoo.io&#45;&gt;surviv.io -->
<g id="edge29" class="edge">
<title>moomoo.io&#45;&gt;surviv.io</title>
<path fill="none" stroke="#000000" d="M468.4586,-517.9546C448.819,-492.232 413.6838,-446.2142 391.129,-416.6734"/>
<polygon fill="#000000" stroke="#000000" points="393.6949,-414.2665 384.8445,-408.4423 388.1311,-418.5145 393.6949,-414.2665"/>
</g>
<!-- doomed.io -->
<g id="node54" class="node">
<title>doomed.io</title>
<path fill="#90caf9" stroke="#90caf9" d="M497,-334C497,-334 431,-334 431,-334 425,-334 419,-328 419,-322 419,-322 419,-308 419,-308 419,-302 425,-296 431,-296 431,-296 497,-296 497,-296 503,-296 509,-302 509,-308 509,-308 509,-322 509,-322 509,-328 503,-334 497,-334"/>
<text text-anchor="middle" x="464" y="-318.8" font-family="Times,serif" font-size="14.00" fill="#000000">doomed.io</text>
<text text-anchor="middle" x="464" y="-303.8" font-family="Times,serif" font-size="14.00" fill="#000000">Ginoda</text>
</g>
<!-- moomoo.io&#45;&gt;doomed.io -->
<g id="edge25" class="edge">
<title>moomoo.io&#45;&gt;doomed.io</title>
<path fill="none" stroke="#000000" d="M483.011,-517.887C482.8214,-486.775 481.5687,-423.2954 475,-370 473.9615,-361.5737 472.3544,-352.5074 470.6866,-344.2145"/>
<polygon fill="#000000" stroke="#000000" points="474.069,-343.2919 468.5796,-334.2301 467.2199,-344.7373 474.069,-343.2919"/>
</g>
<!-- devast.io -->
<g id="node68" class="node">
<title>devast.io</title>
<path fill="#90caf9" stroke="#90caf9" d="M1064,-112C1064,-112 988,-112 988,-112 982,-112 976,-106 976,-100 976,-100 976,-86 976,-86 976,-80 982,-74 988,-74 988,-74 1064,-74 1064,-74 1070,-74 1076,-80 1076,-86 1076,-86 1076,-100 1076,-100 1076,-106 1070,-112 1064,-112"/>
<text text-anchor="middle" x="1026" y="-96.8" font-family="Times,serif" font-size="14.00" fill="#000000">devast.io</text>
<text text-anchor="middle" x="1026" y="-81.8" font-family="Times,serif" font-size="14.00" fill="#000000">LapaMauve</text>
</g>
<!-- starve.io&#45;&gt;devast.io -->
<g id="edge28" class="edge">
<title>starve.io&#45;&gt;devast.io</title>
<path fill="none" stroke="#000000" d="M953.021,-521.1656C972.6254,-512.5496 993.591,-499.8999 1007,-482 1032.2931,-448.2359 1026,-431.1871 1026,-389 1026,-389 1026,-389 1026,-241 1026,-199.8086 1026,-152.1685 1026,-122.3096"/>
<polygon fill="#000000" stroke="#000000" points="1029.5001,-122.1583 1026,-112.1583 1022.5001,-122.1583 1029.5001,-122.1583"/>
</g>
<!-- stabby.io -->
<g id="node42" class="node">
<title>stabby.io</title>
<path fill="#90caf9" stroke="#90caf9" d="M1850,-482C1850,-482 1794,-482 1794,-482 1788,-482 1782,-476 1782,-470 1782,-470 1782,-456 1782,-456 1782,-450 1788,-444 1794,-444 1794,-444 1850,-444 1850,-444 1856,-444 1862,-450 1862,-456 1862,-456 1862,-470 1862,-470 1862,-476 1856,-482 1850,-482"/>
<text text-anchor="middle" x="1822" y="-466.8" font-family="Times,serif" font-size="14.00" fill="#000000">stabby.io</text>
<text text-anchor="middle" x="1822" y="-451.8" font-family="Times,serif" font-size="14.00" fill="#000000">Arcan</text>
</g>
<!-- zombsroyale.io -->
<g id="node61" class="node">
<title>zombsroyale.io</title>
<path fill="#90caf9" stroke="#90caf9" d="M629,-260C629,-260 529,-260 529,-260 523,-260 517,-254 517,-248 517,-248 517,-234 517,-234 517,-228 523,-222 529,-222 529,-222 629,-222 629,-222 635,-222 641,-228 641,-234 641,-234 641,-248 641,-248 641,-254 635,-260 629,-260"/>
<text text-anchor="middle" x="579" y="-244.8" font-family="Times,serif" font-size="14.00" fill="#000000">zombsroyale.io</text>
<text text-anchor="middle" x="579" y="-229.8" font-family="Times,serif" font-size="14.00" fill="#000000">Yang Lui</text>
</g>
<!-- zombs.io&#45;&gt;zombsroyale.io -->
<g id="edge31" class="edge">
<title>zombs.io&#45;&gt;zombsroyale.io</title>
<path fill="none" stroke="#000000" d="M564.3919,-443.6873C567.2003,-404.7205 573.56,-316.4803 576.8849,-270.3465"/>
<polygon fill="#000000" stroke="#000000" points="580.3947,-270.3357 577.6227,-260.11 573.4128,-269.8325 580.3947,-270.3357"/>
</g>
<!-- superspin.io -->
<g id="node45" class="node">
<title>superspin.io</title>
<path fill="#90caf9" stroke="#90caf9" d="M986,-482C986,-482 906,-482 906,-482 900,-482 894,-476 894,-470 894,-470 894,-456 894,-456 894,-450 900,-444 906,-444 906,-444 986,-444 986,-444 992,-444 998,-450 998,-456 998,-456 998,-470 998,-470 998,-476 992,-482 986,-482"/>
<text text-anchor="middle" x="946" y="-466.8" font-family="Times,serif" font-size="14.00" fill="#000000">superspin.io</text>
<text text-anchor="middle" x="946" y="-451.8" font-family="Times,serif" font-size="14.00" fill="#000000">Jetti Games</text>
</g>
<!-- spinz.io&#45;&gt;superspin.io -->
<g id="edge40" class="edge">
<title>spinz.io&#45;&gt;superspin.io</title>
<path fill="none" stroke="#000000" d="M725.3253,-482.1775C735.3594,-489.2368 747.617,-496.3866 760,-500 809.0648,-514.3174 825.3563,-512.1593 875,-500 886.3817,-497.2123 897.9669,-492.248 908.3873,-486.8431"/>
<polygon fill="#000000" stroke="#000000" points="910.1121,-489.8891 917.2103,-482.0235 906.7564,-483.7459 910.1121,-489.8891"/>
</g>
<!-- fisp.io -->
<g id="node46" class="node">
<title>fisp.io</title>
<path fill="#90caf9" stroke="#90caf9" d="M863.5,-482C863.5,-482 772.5,-482 772.5,-482 766.5,-482 760.5,-476 760.5,-470 760.5,-470 760.5,-456 760.5,-456 760.5,-450 766.5,-444 772.5,-444 772.5,-444 863.5,-444 863.5,-444 869.5,-444 875.5,-450 875.5,-456 875.5,-456 875.5,-470 875.5,-470 875.5,-476 869.5,-482 863.5,-482"/>
<text text-anchor="middle" x="818" y="-466.8" font-family="Times,serif" font-size="14.00" fill="#000000">fisp.io</text>
<text text-anchor="middle" x="818" y="-451.8" font-family="Times,serif" font-size="14.00" fill="#000000">Clown Games</text>
</g>
<!-- spinz.io&#45;&gt;fisp.io -->
<g id="edge39" class="edge">
<title>spinz.io&#45;&gt;fisp.io</title>
<path fill="none" stroke="#000000" d="M742.3281,-463C744.9577,-463 747.5872,-463 750.2168,-463"/>
<polygon fill="#000000" stroke="#000000" points="750.3593,-466.5001 760.3593,-463 750.3593,-459.5001 750.3593,-466.5001"/>
</g>
<!-- goons.io -->
<g id="node49" class="node">
<title>goons.io</title>
<path fill="#90caf9" stroke="#90caf9" d="M1553.5,-408C1553.5,-408 1462.5,-408 1462.5,-408 1456.5,-408 1450.5,-402 1450.5,-396 1450.5,-396 1450.5,-382 1450.5,-382 1450.5,-376 1456.5,-370 1462.5,-370 1462.5,-370 1553.5,-370 1553.5,-370 1559.5,-370 1565.5,-376 1565.5,-382 1565.5,-382 1565.5,-396 1565.5,-396 1565.5,-402 1559.5,-408 1553.5,-408"/>
<text text-anchor="middle" x="1508" y="-392.8" font-family="Times,serif" font-size="14.00" fill="#000000">goons.io</text>
<text text-anchor="middle" x="1508" y="-377.8" font-family="Times,serif" font-size="14.00" fill="#000000">Clown Games</text>
</g>
<!-- pikes.io&#45;&gt;goons.io -->
<g id="edge52" class="edge">
<title>pikes.io&#45;&gt;goons.io</title>
<path fill="none" stroke="#000000" d="M1508,-443.9432C1508,-436.1493 1508,-426.9538 1508,-418.3381"/>
<polygon fill="#000000" stroke="#000000" points="1511.5001,-418.2494 1508,-408.2495 1504.5001,-418.2495 1511.5001,-418.2494"/>
</g>
<!-- nightpoint.io -->
<g id="node52" class="node">
<title>nightpoint.io</title>
<path fill="#90caf9" stroke="#90caf9" d="M1982,-408C1982,-408 1898,-408 1898,-408 1892,-408 1886,-402 1886,-396 1886,-396 1886,-382 1886,-382 1886,-376 1892,-370 1898,-370 1898,-370 1982,-370 1982,-370 1988,-370 1994,-376 1994,-382 1994,-382 1994,-396 1994,-396 1994,-402 1988,-408 1982,-408"/>
<text text-anchor="middle" x="1940" y="-392.8" font-family="Times,serif" font-size="14.00" fill="#000000">nightpoint.io</text>
<text text-anchor="middle" x="1940" y="-377.8" font-family="Times,serif" font-size="14.00" fill="#000000">Sarunas</text>
</g>
<!-- bruh.io -->
<g id="node55" class="node">
<title>bruh.io</title>
<path fill="#90caf9" stroke="#90caf9" d="M1891.5,-334C1891.5,-334 1802.5,-334 1802.5,-334 1796.5,-334 1790.5,-328 1790.5,-322 1790.5,-322 1790.5,-308 1790.5,-308 1790.5,-302 1796.5,-296 1802.5,-296 1802.5,-296 1891.5,-296 1891.5,-296 1897.5,-296 1903.5,-302 1903.5,-308 1903.5,-308 1903.5,-322 1903.5,-322 1903.5,-328 1897.5,-334 1891.5,-334"/>
<text text-anchor="middle" x="1847" y="-318.8" font-family="Times,serif" font-size="14.00" fill="#000000">bruh.io</text>
<text text-anchor="middle" x="1847" y="-303.8" font-family="Times,serif" font-size="14.00" fill="#000000">Bitfox Games</text>
</g>
<!-- nightpoint.io&#45;&gt;bruh.io -->
<g id="edge34" class="edge">
<title>nightpoint.io&#45;&gt;bruh.io</title>
<path fill="none" stroke="#000000" d="M1916.0502,-369.9432C1904.8559,-361.0359 1891.361,-350.298 1879.2822,-340.6869"/>
<polygon fill="#000000" stroke="#000000" points="1881.1962,-337.7371 1871.1919,-334.2495 1876.8377,-343.2147 1881.1962,-337.7371"/>
</g>
<!-- shootem.io -->
<g id="node60" class="node">
<title>shootem.io</title>
<path fill="#90caf9" stroke="#90caf9" d="M2005,-260C2005,-260 1875,-260 1875,-260 1869,-260 1863,-254 1863,-248 1863,-248 1863,-234 1863,-234 1863,-228 1869,-222 1875,-222 1875,-222 2005,-222 2005,-222 2011,-222 2017,-228 2017,-234 2017,-234 2017,-248 2017,-248 2017,-254 2011,-260 2005,-260"/>
<text text-anchor="middle" x="1940" y="-244.8" font-family="Times,serif" font-size="14.00" fill="#000000">shootem.io</text>
<text text-anchor="middle" x="1940" y="-229.8" font-family="Times,serif" font-size="14.00" fill="#000000">Mathew Matakovic</text>
</g>
<!-- nightpoint.io&#45;&gt;shootem.io -->
<g id="edge35" class="edge">
<title>nightpoint.io&#45;&gt;shootem.io</title>
<path fill="none" stroke="#000000" d="M1940,-369.9546C1940,-344.7839 1940,-300.1799 1940,-270.5976"/>
<polygon fill="#000000" stroke="#000000" points="1943.5001,-270.4423 1940,-260.4423 1936.5001,-270.4423 1943.5001,-270.4423"/>
</g>
<!-- battlepoint.io -->
<g id="node69" class="node">
<title>battlepoint.io</title>
<path fill="#90caf9" stroke="#90caf9" d="M1984.5,-112C1984.5,-112 1895.5,-112 1895.5,-112 1889.5,-112 1883.5,-106 1883.5,-100 1883.5,-100 1883.5,-86 1883.5,-86 1883.5,-80 1889.5,-74 1895.5,-74 1895.5,-74 1984.5,-74 1984.5,-74 1990.5,-74 1996.5,-80 1996.5,-86 1996.5,-86 1996.5,-100 1996.5,-100 1996.5,-106 1990.5,-112 1984.5,-112"/>
<text text-anchor="middle" x="1940" y="-96.8" font-family="Times,serif" font-size="14.00" fill="#000000">battlepoint.io</text>
<text text-anchor="middle" x="1940" y="-81.8" font-family="Times,serif" font-size="14.00" fill="#000000">Sarunas</text>
</g>
<!-- nightpoint.io&#45;&gt;battlepoint.io -->
<g id="edge33" class="edge">
<title>nightpoint.io&#45;&gt;battlepoint.io</title>
<path fill="none" stroke="#000000" d="M1958.1062,-369.9339C1979.1668,-346.3108 2012.7401,-303.7946 2026,-260 2042.0106,-207.1207 1999.1649,-151.0912 1968.3518,-119.2403"/>
<polygon fill="#000000" stroke="#000000" points="1970.7434,-116.6816 1961.2096,-112.0602 1965.7806,-121.6183 1970.7434,-116.6816"/>
</g>
<!-- doomed2.io -->
<g id="node63" class="node">
<title>doomed2.io</title>
<path fill="#90caf9" stroke="#90caf9" d="M486.5,-260C486.5,-260 411.5,-260 411.5,-260 405.5,-260 399.5,-254 399.5,-248 399.5,-248 399.5,-234 399.5,-234 399.5,-228 405.5,-222 411.5,-222 411.5,-222 486.5,-222 486.5,-222 492.5,-222 498.5,-228 498.5,-234 498.5,-234 498.5,-248 498.5,-248 498.5,-254 492.5,-260 486.5,-260"/>
<text text-anchor="middle" x="449" y="-244.8" font-family="Times,serif" font-size="14.00" fill="#000000">doomed2.io</text>
<text text-anchor="middle" x="449" y="-229.8" font-family="Times,serif" font-size="14.00" fill="#000000">Ginoda</text>
</g>
<!-- doomed.io&#45;&gt;doomed2.io -->
<g id="edge26" class="edge">
<title>doomed.io&#45;&gt;doomed2.io</title>
<path fill="none" stroke="#000000" d="M460.1371,-295.9432C458.5399,-288.0636 456.6523,-278.7516 454.8894,-270.0543"/>
<polygon fill="#000000" stroke="#000000" points="458.3189,-269.3548 452.9019,-260.2495 451.4584,-270.7455 458.3189,-269.3548"/>
</g>
<!-- bruh.io&#45;&gt;battlepoint.io -->
<g id="edge36" class="edge">
<title>bruh.io&#45;&gt;battlepoint.io</title>
<path fill="none" stroke="#000000" d="M1845.6571,-295.9082C1844.9408,-276.6997 1845.5669,-246.4954 1854,-222 1867.3825,-183.1285 1895.4085,-144.7219 1915.8413,-120.0619"/>
<polygon fill="#000000" stroke="#000000" points="1918.6658,-122.1421 1922.4475,-112.2451 1913.3194,-117.6236 1918.6658,-122.1421"/>
</g>
<!-- shellshock.io -->
<g id="node57" class="node">
<title>shellshock.io</title>
<path fill="#90caf9" stroke="#90caf9" d="M2177,-333C2177,-333 2091,-333 2091,-333 2085,-333 2079,-327 2079,-321 2079,-321 2079,-309 2079,-309 2079,-303 2085,-297 2091,-297 2091,-297 2177,-297 2177,-297 2183,-297 2189,-303 2189,-309 2189,-309 2189,-321 2189,-321 2189,-327 2183,-333 2177,-333"/>
<text text-anchor="middle" x="2134" y="-311.3" font-family="Times,serif" font-size="14.00" fill="#000000">shellshock.io</text>
</g>
<!-- krunker.io -->
<g id="node67" class="node">
<title>krunker.io</title>
<path fill="#90caf9" stroke="#90caf9" d="M2236.5,-186C2236.5,-186 2127.5,-186 2127.5,-186 2121.5,-186 2115.5,-180 2115.5,-174 2115.5,-174 2115.5,-160 2115.5,-160 2115.5,-154 2121.5,-148 2127.5,-148 2127.5,-148 2236.5,-148 2236.5,-148 2242.5,-148 2248.5,-154 2248.5,-160 2248.5,-160 2248.5,-174 2248.5,-174 2248.5,-180 2242.5,-186 2236.5,-186"/>
<text text-anchor="middle" x="2182" y="-170.8" font-family="Times,serif" font-size="14.00" fill="#000000">krunker.io</text>
<text text-anchor="middle" x="2182" y="-155.8" font-family="Times,serif" font-size="14.00" fill="#000000">Sydney de Vries</text>
</g>
<!-- shellshock.io&#45;&gt;krunker.io -->
<g id="edge48" class="edge">
<title>shellshock.io&#45;&gt;krunker.io</title>
<path fill="none" stroke="#000000" d="M2139.8857,-296.8523C2148.037,-271.7192 2162.8533,-226.0357 2172.5605,-196.105"/>
<polygon fill="#000000" stroke="#000000" points="2176.0059,-196.8266 2175.7618,-186.2346 2169.3474,-194.667 2176.0059,-196.8266"/>
</g>
<!-- warscrap.io -->
<g id="node58" class="node">
<title>warscrap.io</title>
<path fill="#90caf9" stroke="#90caf9" d="M2296.5,-334C2296.5,-334 2219.5,-334 2219.5,-334 2213.5,-334 2207.5,-328 2207.5,-322 2207.5,-322 2207.5,-308 2207.5,-308 2207.5,-302 2213.5,-296 2219.5,-296 2219.5,-296 2296.5,-296 2296.5,-296 2302.5,-296 2308.5,-302 2308.5,-308 2308.5,-308 2308.5,-322 2308.5,-322 2308.5,-328 2302.5,-334 2296.5,-334"/>
<text text-anchor="middle" x="2258" y="-318.8" font-family="Times,serif" font-size="14.00" fill="#000000">warscrap.io</text>
<text text-anchor="middle" x="2258" y="-303.8" font-family="Times,serif" font-size="14.00" fill="#000000">Evil Noob</text>
</g>
<!-- warscrap.io&#45;&gt;krunker.io -->
<g id="edge47" class="edge">
<title>warscrap.io&#45;&gt;krunker.io</title>
<path fill="none" stroke="#000000" d="M2248.2199,-295.9546C2235.1244,-270.4527 2211.7852,-225.0027 2196.6032,-195.4377"/>
<polygon fill="#000000" stroke="#000000" points="2199.6655,-193.7391 2191.9839,-186.4423 2193.4385,-196.9368 2199.6655,-193.7391"/>
</g>
<!-- airma.sh -->
<g id="node59" class="node">
<title>airma.sh</title>
<path fill="#90caf9" stroke="#90caf9" d="M2393.5,-333C2393.5,-333 2338.5,-333 2338.5,-333 2332.5,-333 2326.5,-327 2326.5,-321 2326.5,-321 2326.5,-309 2326.5,-309 2326.5,-303 2332.5,-297 2338.5,-297 2338.5,-297 2393.5,-297 2393.5,-297 2399.5,-297 2405.5,-303 2405.5,-309 2405.5,-309 2405.5,-321 2405.5,-321 2405.5,-327 2399.5,-333 2393.5,-333"/>
<text text-anchor="middle" x="2366" y="-311.3" font-family="Times,serif" font-size="14.00" fill="#000000">airma.sh</text>
</g>
<!-- skyroyale.io -->
<g id="node64" class="node">
<title>skyroyale.io</title>
<path fill="#90caf9" stroke="#90caf9" d="M2411.5,-186C2411.5,-186 2320.5,-186 2320.5,-186 2314.5,-186 2308.5,-180 2308.5,-174 2308.5,-174 2308.5,-160 2308.5,-160 2308.5,-154 2314.5,-148 2320.5,-148 2320.5,-148 2411.5,-148 2411.5,-148 2417.5,-148 2423.5,-154 2423.5,-160 2423.5,-160 2423.5,-174 2423.5,-174 2423.5,-180 2417.5,-186 2411.5,-186"/>
<text text-anchor="middle" x="2366" y="-170.8" font-family="Times,serif" font-size="14.00" fill="#000000">skyroyale.io</text>
<text text-anchor="middle" x="2366" y="-155.8" font-family="Times,serif" font-size="14.00" fill="#000000">Clown Games</text>
</g>
<!-- airma.sh&#45;&gt;skyroyale.io -->
<g id="edge54" class="edge">
<title>airma.sh&#45;&gt;skyroyale.io</title>
<path fill="none" stroke="#000000" d="M2366,-296.8523C2366,-271.8289 2366,-226.4343 2366,-196.498"/>
<polygon fill="#000000" stroke="#000000" points="2369.5001,-196.2345 2366,-186.2346 2362.5001,-196.2346 2369.5001,-196.2345"/>
</g>
<!-- buildroyale.io -->
<g id="node70" class="node">
<title>buildroyale.io</title>
<path fill="#90caf9" stroke="#90caf9" d="M644,-38C644,-38 514,-38 514,-38 508,-38 502,-32 502,-26 502,-26 502,-12 502,-12 502,-6 508,0 514,0 514,0 644,0 644,0 650,0 656,-6 656,-12 656,-12 656,-26 656,-26 656,-32 650,-38 644,-38"/>
<text text-anchor="middle" x="579" y="-22.8" font-family="Times,serif" font-size="14.00" fill="#000000">buildroyale.io</text>
<text text-anchor="middle" x="579" y="-7.8" font-family="Times,serif" font-size="14.00" fill="#000000">Mathew Matakovic</text>
</g>
<!-- zombsroyale.io&#45;&gt;buildroyale.io -->
<g id="edge32" class="edge">
<title>zombsroyale.io&#45;&gt;buildroyale.io</title>
<path fill="none" stroke="#000000" d="M579,-221.6873C579,-182.7205 579,-94.4803 579,-48.3465"/>
<polygon fill="#000000" stroke="#000000" points="582.5001,-48.1099 579,-38.11 575.5001,-48.11 582.5001,-48.1099"/>
</g>
</g>
</svg>
