<?xml version="1.0" encoding="UTF-8" standalone="no"?>
<!DOCTYPE svg PUBLIC "-//W3C//DTD SVG 1.1//EN"
 "http://www.w3.org/Graphics/SVG/1.1/DTD/svg11.dtd">
<!-- Generated by graphviz version 2.43.0 (0)
 -->
<!-- Title: iogames Pages: 1 -->
<svg width="2998pt" height="2109pt"
 viewBox="0.00 0.00 2997.50 2109.00" xmlns="http://www.w3.org/2000/svg" xmlns:xlink="http://www.w3.org/1999/xlink">
<g id="graph0" class="graph" transform="scale(1 1) rotate(0) translate(4 2105)">
<title>iogames</title>
<polygon fill="white" stroke="transparent" points="-4,4 -4,-2105 2993.5,-2105 2993.5,4 -4,4"/>
<text text-anchor="start" x="1324.25" y="-2074" font-family="Times-Roman" font-weight="bold" text-decoration="underline" font-size="30.00">History of .io games</text>
<text text-anchor="start" x="1430.75" y="-2042.8" font-family="Times-Roman" font-size="14.00">by </text>
<text text-anchor="start" x="1452.75" y="-2042.8" font-family="Times-Roman" font-weight="bold" font-size="14.00">Julien Mourer</text>
<text text-anchor="start" x="1391.25" y="-2028.8" font-family="Times-Roman" font-size="14.00">Licensed under the CC BY 4.0</text>
<text text-anchor="start" x="1347.25" y="-2014.8" font-family="Times-Roman" font-size="14.00">https://github.com/getkey/io&#45;game&#45;history</text>
<g id="clust98" class="cluster">
<title>cluster_battle_royale</title>
<polygon fill="none" stroke="black" points="434,-591 434,-757 950,-757 950,-591 434,-591"/>
<text text-anchor="middle" x="692" y="-741.8" font-family="Times-Roman" font-size="14.00">Battle Royale</text>
</g>
<!-- 2009q3 -->
<g id="node1" class="node">
<title>2009q3</title>
<path fill="white" stroke="transparent" d="M90,-2007C90,-2007 12,-2007 12,-2007 6,-2007 0,-2001 0,-1995 0,-1995 0,-1983 0,-1983 0,-1977 6,-1971 12,-1971 12,-1971 90,-1971 90,-1971 96,-1971 102,-1977 102,-1983 102,-1983 102,-1995 102,-1995 102,-2001 96,-2007 90,-2007"/>
<text text-anchor="middle" x="51" y="-1984" font-family="Times-Roman" font-size="20.00">Q3 2009</text>
</g>
<!-- 2009q4 -->
<g id="node2" class="node">
<title>2009q4</title>
<path fill="white" stroke="transparent" d="M90,-1935C90,-1935 12,-1935 12,-1935 6,-1935 0,-1929 0,-1923 0,-1923 0,-1911 0,-1911 0,-1905 6,-1899 12,-1899 12,-1899 90,-1899 90,-1899 96,-1899 102,-1905 102,-1911 102,-1911 102,-1923 102,-1923 102,-1929 96,-1935 90,-1935"/>
<text text-anchor="middle" x="51" y="-1912" font-family="Times-Roman" font-size="20.00">Q4 2009</text>
</g>
<!-- 2009q3&#45;&gt;2009q4 -->
<!-- 2010q1 -->
<g id="node3" class="node">
<title>2010q1</title>
<path fill="white" stroke="transparent" d="M90,-1862C90,-1862 12,-1862 12,-1862 6,-1862 0,-1856 0,-1850 0,-1850 0,-1838 0,-1838 0,-1832 6,-1826 12,-1826 12,-1826 90,-1826 90,-1826 96,-1826 102,-1832 102,-1838 102,-1838 102,-1850 102,-1850 102,-1856 96,-1862 90,-1862"/>
<text text-anchor="middle" x="51" y="-1839" font-family="Times-Roman" font-size="20.00">Q1 2010</text>
</g>
<!-- 2009q4&#45;&gt;2010q1 -->
<!-- ... -->
<g id="node27" class="node">
<title>...</title>
<path fill="white" stroke="transparent" d="M66,-1789C66,-1789 36,-1789 36,-1789 30,-1789 24,-1783 24,-1777 24,-1777 24,-1765 24,-1765 24,-1759 30,-1753 36,-1753 36,-1753 66,-1753 66,-1753 72,-1753 78,-1759 78,-1765 78,-1765 78,-1777 78,-1777 78,-1783 72,-1789 66,-1789"/>
<text text-anchor="middle" x="51" y="-1766" font-family="Times-Roman" font-size="20.00">...</text>
</g>
<!-- 2010q1&#45;&gt;... -->
<!-- 2014q4 -->
<g id="node4" class="node">
<title>2014q4</title>
<path fill="white" stroke="transparent" d="M90,-1716C90,-1716 12,-1716 12,-1716 6,-1716 0,-1710 0,-1704 0,-1704 0,-1692 0,-1692 0,-1686 6,-1680 12,-1680 12,-1680 90,-1680 90,-1680 96,-1680 102,-1686 102,-1692 102,-1692 102,-1704 102,-1704 102,-1710 96,-1716 90,-1716"/>
<text text-anchor="middle" x="51" y="-1693" font-family="Times-Roman" font-size="20.00">Q4 2014</text>
</g>
<!-- 2015q1 -->
<g id="node5" class="node">
<title>2015q1</title>
<path fill="white" stroke="transparent" d="M90,-1643C90,-1643 12,-1643 12,-1643 6,-1643 0,-1637 0,-1631 0,-1631 0,-1619 0,-1619 0,-1613 6,-1607 12,-1607 12,-1607 90,-1607 90,-1607 96,-1607 102,-1613 102,-1619 102,-1619 102,-1631 102,-1631 102,-1637 96,-1643 90,-1643"/>
<text text-anchor="middle" x="51" y="-1620" font-family="Times-Roman" font-size="20.00">Q1 2015</text>
</g>
<!-- 2014q4&#45;&gt;2015q1 -->
<!-- 2015q2 -->
<g id="node6" class="node">
<title>2015q2</title>
<path fill="white" stroke="transparent" d="M90,-1570C90,-1570 12,-1570 12,-1570 6,-1570 0,-1564 0,-1558 0,-1558 0,-1546 0,-1546 0,-1540 6,-1534 12,-1534 12,-1534 90,-1534 90,-1534 96,-1534 102,-1540 102,-1546 102,-1546 102,-1558 102,-1558 102,-1564 96,-1570 90,-1570"/>
<text text-anchor="middle" x="51" y="-1547" font-family="Times-Roman" font-size="20.00">Q2 2015</text>
</g>
<!-- 2015q1&#45;&gt;2015q2 -->
<!-- 2015q3 -->
<g id="node7" class="node">
<title>2015q3</title>
<path fill="white" stroke="transparent" d="M90,-1497C90,-1497 12,-1497 12,-1497 6,-1497 0,-1491 0,-1485 0,-1485 0,-1473 0,-1473 0,-1467 6,-1461 12,-1461 12,-1461 90,-1461 90,-1461 96,-1461 102,-1467 102,-1473 102,-1473 102,-1485 102,-1485 102,-1491 96,-1497 90,-1497"/>
<text text-anchor="middle" x="51" y="-1474" font-family="Times-Roman" font-size="20.00">Q3 2015</text>
</g>
<!-- 2015q2&#45;&gt;2015q3 -->
<!-- 2015q4 -->
<g id="node8" class="node">
<title>2015q4</title>
<path fill="white" stroke="transparent" d="M90,-1424C90,-1424 12,-1424 12,-1424 6,-1424 0,-1418 0,-1412 0,-1412 0,-1400 0,-1400 0,-1394 6,-1388 12,-1388 12,-1388 90,-1388 90,-1388 96,-1388 102,-1394 102,-1400 102,-1400 102,-1412 102,-1412 102,-1418 96,-1424 90,-1424"/>
<text text-anchor="middle" x="51" y="-1401" font-family="Times-Roman" font-size="20.00">Q4 2015</text>
</g>
<!-- 2015q3&#45;&gt;2015q4 -->
<!-- 2016q1 -->
<g id="node9" class="node">
<title>2016q1</title>
<path fill="white" stroke="transparent" d="M90,-1350C90,-1350 12,-1350 12,-1350 6,-1350 0,-1344 0,-1338 0,-1338 0,-1326 0,-1326 0,-1320 6,-1314 12,-1314 12,-1314 90,-1314 90,-1314 96,-1314 102,-1320 102,-1326 102,-1326 102,-1338 102,-1338 102,-1344 96,-1350 90,-1350"/>
<text text-anchor="middle" x="51" y="-1327" font-family="Times-Roman" font-size="20.00">Q1 2016</text>
</g>
<!-- 2015q4&#45;&gt;2016q1 -->
<!-- 2016q2 -->
<g id="node10" class="node">
<title>2016q2</title>
<path fill="white" stroke="transparent" d="M90,-1276C90,-1276 12,-1276 12,-1276 6,-1276 0,-1270 0,-1264 0,-1264 0,-1252 0,-1252 0,-1246 6,-1240 12,-1240 12,-1240 90,-1240 90,-1240 96,-1240 102,-1246 102,-1252 102,-1252 102,-1264 102,-1264 102,-1270 96,-1276 90,-1276"/>
<text text-anchor="middle" x="51" y="-1253" font-family="Times-Roman" font-size="20.00">Q2 2016</text>
</g>
<!-- 2016q1&#45;&gt;2016q2 -->
<!-- 2016q3 -->
<g id="node11" class="node">
<title>2016q3</title>
<path fill="white" stroke="transparent" d="M90,-1202C90,-1202 12,-1202 12,-1202 6,-1202 0,-1196 0,-1190 0,-1190 0,-1178 0,-1178 0,-1172 6,-1166 12,-1166 12,-1166 90,-1166 90,-1166 96,-1166 102,-1172 102,-1178 102,-1178 102,-1190 102,-1190 102,-1196 96,-1202 90,-1202"/>
<text text-anchor="middle" x="51" y="-1179" font-family="Times-Roman" font-size="20.00">Q3 2016</text>
</g>
<!-- 2016q2&#45;&gt;2016q3 -->
<!-- 2016q4 -->
<g id="node12" class="node">
<title>2016q4</title>
<path fill="white" stroke="transparent" d="M90,-1120.5C90,-1120.5 12,-1120.5 12,-1120.5 6,-1120.5 0,-1114.5 0,-1108.5 0,-1108.5 0,-1096.5 0,-1096.5 0,-1090.5 6,-1084.5 12,-1084.5 12,-1084.5 90,-1084.5 90,-1084.5 96,-1084.5 102,-1090.5 102,-1096.5 102,-1096.5 102,-1108.5 102,-1108.5 102,-1114.5 96,-1120.5 90,-1120.5"/>
<text text-anchor="middle" x="51" y="-1097.5" font-family="Times-Roman" font-size="20.00">Q4 2016</text>
</g>
<!-- 2016q3&#45;&gt;2016q4 -->
<!-- 2017q1 -->
<g id="node13" class="node">
<title>2017q1</title>
<path fill="white" stroke="transparent" d="M90,-1039C90,-1039 12,-1039 12,-1039 6,-1039 0,-1033 0,-1027 0,-1027 0,-1015 0,-1015 0,-1009 6,-1003 12,-1003 12,-1003 90,-1003 90,-1003 96,-1003 102,-1009 102,-1015 102,-1015 102,-1027 102,-1027 102,-1033 96,-1039 90,-1039"/>
<text text-anchor="middle" x="51" y="-1016" font-family="Times-Roman" font-size="20.00">Q1 2017</text>
</g>
<!-- 2016q4&#45;&gt;2017q1 -->
<!-- 2017q2 -->
<g id="node14" class="node">
<title>2017q2</title>
<path fill="white" stroke="transparent" d="M90,-965C90,-965 12,-965 12,-965 6,-965 0,-959 0,-953 0,-953 0,-941 0,-941 0,-935 6,-929 12,-929 12,-929 90,-929 90,-929 96,-929 102,-935 102,-941 102,-941 102,-953 102,-953 102,-959 96,-965 90,-965"/>
<text text-anchor="middle" x="51" y="-942" font-family="Times-Roman" font-size="20.00">Q2 2017</text>
</g>
<!-- 2017q1&#45;&gt;2017q2 -->
<!-- 2017q3 -->
<g id="node15" class="node">
<title>2017q3</title>
<path fill="white" stroke="transparent" d="M90,-891C90,-891 12,-891 12,-891 6,-891 0,-885 0,-879 0,-879 0,-867 0,-867 0,-861 6,-855 12,-855 12,-855 90,-855 90,-855 96,-855 102,-861 102,-867 102,-867 102,-879 102,-879 102,-885 96,-891 90,-891"/>
<text text-anchor="middle" x="51" y="-868" font-family="Times-Roman" font-size="20.00">Q3 2017</text>
</g>
<!-- 2017q2&#45;&gt;2017q3 -->
<!-- 2017q4 -->
<g id="node16" class="node">
<title>2017q4</title>
<path fill="white" stroke="transparent" d="M90,-809.5C90,-809.5 12,-809.5 12,-809.5 6,-809.5 0,-803.5 0,-797.5 0,-797.5 0,-785.5 0,-785.5 0,-779.5 6,-773.5 12,-773.5 12,-773.5 90,-773.5 90,-773.5 96,-773.5 102,-779.5 102,-785.5 102,-785.5 102,-797.5 102,-797.5 102,-803.5 96,-809.5 90,-809.5"/>
<text text-anchor="middle" x="51" y="-786.5" font-family="Times-Roman" font-size="20.00">Q4 2017</text>
</g>
<!-- 2017q3&#45;&gt;2017q4 -->
<!-- 2018q1 -->
<g id="node17" class="node">
<title>2018q1</title>
<path fill="white" stroke="transparent" d="M90,-717.5C90,-717.5 12,-717.5 12,-717.5 6,-717.5 0,-711.5 0,-705.5 0,-705.5 0,-693.5 0,-693.5 0,-687.5 6,-681.5 12,-681.5 12,-681.5 90,-681.5 90,-681.5 96,-681.5 102,-687.5 102,-693.5 102,-693.5 102,-705.5 102,-705.5 102,-711.5 96,-717.5 90,-717.5"/>
<text text-anchor="middle" x="51" y="-694.5" font-family="Times-Roman" font-size="20.00">Q1 2018</text>
</g>
<!-- 2017q4&#45;&gt;2018q1 -->
<!-- 2018q2 -->
<g id="node18" class="node">
<title>2018q2</title>
<path fill="white" stroke="transparent" d="M90,-636C90,-636 12,-636 12,-636 6,-636 0,-630 0,-624 0,-624 0,-612 0,-612 0,-606 6,-600 12,-600 12,-600 90,-600 90,-600 96,-600 102,-606 102,-612 102,-612 102,-624 102,-624 102,-630 96,-636 90,-636"/>
<text text-anchor="middle" x="51" y="-613" font-family="Times-Roman" font-size="20.00">Q2 2018</text>
</g>
<!-- 2018q1&#45;&gt;2018q2 -->
<!-- 2018q3 -->
<g id="node19" class="node">
<title>2018q3</title>
<path fill="white" stroke="transparent" d="M90,-554.5C90,-554.5 12,-554.5 12,-554.5 6,-554.5 0,-548.5 0,-542.5 0,-542.5 0,-530.5 0,-530.5 0,-524.5 6,-518.5 12,-518.5 12,-518.5 90,-518.5 90,-518.5 96,-518.5 102,-524.5 102,-530.5 102,-530.5 102,-542.5 102,-542.5 102,-548.5 96,-554.5 90,-554.5"/>
<text text-anchor="middle" x="51" y="-531.5" font-family="Times-Roman" font-size="20.00">Q3 2018</text>
</g>
<!-- 2018q2&#45;&gt;2018q3 -->
<!-- 2018q4 -->
<g id="node20" class="node">
<title>2018q4</title>
<path fill="white" stroke="transparent" d="M90,-473C90,-473 12,-473 12,-473 6,-473 0,-467 0,-461 0,-461 0,-449 0,-449 0,-443 6,-437 12,-437 12,-437 90,-437 90,-437 96,-437 102,-443 102,-449 102,-449 102,-461 102,-461 102,-467 96,-473 90,-473"/>
<text text-anchor="middle" x="51" y="-450" font-family="Times-Roman" font-size="20.00">Q4 2018</text>
</g>
<!-- 2018q3&#45;&gt;2018q4 -->
<!-- 2019q1 -->
<g id="node21" class="node">
<title>2019q1</title>
<path fill="white" stroke="transparent" d="M90,-400C90,-400 12,-400 12,-400 6,-400 0,-394 0,-388 0,-388 0,-376 0,-376 0,-370 6,-364 12,-364 12,-364 90,-364 90,-364 96,-364 102,-370 102,-376 102,-376 102,-388 102,-388 102,-394 96,-400 90,-400"/>
<text text-anchor="middle" x="51" y="-377" font-family="Times-Roman" font-size="20.00">Q1 2019</text>
</g>
<!-- 2018q4&#45;&gt;2019q1 -->
<!-- 2019q2 -->
<g id="node22" class="node">
<title>2019q2</title>
<path fill="white" stroke="transparent" d="M90,-328C90,-328 12,-328 12,-328 6,-328 0,-322 0,-316 0,-316 0,-304 0,-304 0,-298 6,-292 12,-292 12,-292 90,-292 90,-292 96,-292 102,-298 102,-304 102,-304 102,-316 102,-316 102,-322 96,-328 90,-328"/>
<text text-anchor="middle" x="51" y="-305" font-family="Times-Roman" font-size="20.00">Q2 2019</text>
</g>
<!-- 2019q1&#45;&gt;2019q2 -->
<!-- 2019q3 -->
<g id="node23" class="node">
<title>2019q3</title>
<path fill="white" stroke="transparent" d="M90,-256C90,-256 12,-256 12,-256 6,-256 0,-250 0,-244 0,-244 0,-232 0,-232 0,-226 6,-220 12,-220 12,-220 90,-220 90,-220 96,-220 102,-226 102,-232 102,-232 102,-244 102,-244 102,-250 96,-256 90,-256"/>
<text text-anchor="middle" x="51" y="-233" font-family="Times-Roman" font-size="20.00">Q3 2019</text>
</g>
<!-- 2019q2&#45;&gt;2019q3 -->
<!-- 2019q4 -->
<g id="node24" class="node">
<title>2019q4</title>
<path fill="white" stroke="transparent" d="M90,-184C90,-184 12,-184 12,-184 6,-184 0,-178 0,-172 0,-172 0,-160 0,-160 0,-154 6,-148 12,-148 12,-148 90,-148 90,-148 96,-148 102,-154 102,-160 102,-160 102,-172 102,-172 102,-178 96,-184 90,-184"/>
<text text-anchor="middle" x="51" y="-161" font-family="Times-Roman" font-size="20.00">Q4 2019</text>
</g>
<!-- 2019q3&#45;&gt;2019q4 -->
<!-- 2020q1 -->
<g id="node25" class="node">
<title>2020q1</title>
<path fill="white" stroke="transparent" d="M90,-111C90,-111 12,-111 12,-111 6,-111 0,-105 0,-99 0,-99 0,-87 0,-87 0,-81 6,-75 12,-75 12,-75 90,-75 90,-75 96,-75 102,-81 102,-87 102,-87 102,-99 102,-99 102,-105 96,-111 90,-111"/>
<text text-anchor="middle" x="51" y="-88" font-family="Times-Roman" font-size="20.00">Q1 2020</text>
</g>
<!-- 2019q4&#45;&gt;2020q1 -->
<!-- 2020q2 -->
<g id="node26" class="node">
<title>2020q2</title>
<path fill="white" stroke="transparent" d="M90,-37C90,-37 12,-37 12,-37 6,-37 0,-31 0,-25 0,-25 0,-13 0,-13 0,-7 6,-1 12,-1 12,-1 90,-1 90,-1 96,-1 102,-7 102,-13 102,-13 102,-25 102,-25 102,-31 96,-37 90,-37"/>
<text text-anchor="middle" x="51" y="-14" font-family="Times-Roman" font-size="20.00">Q2 2020</text>
</g>
<!-- 2020q1&#45;&gt;2020q2 -->
<!-- ...&#45;&gt;2014q4 -->
<!-- pinturillo.com -->
<g id="node28" class="node">
<title>pinturillo.com</title>
<path fill="#e1fa91" stroke="#e1fa91" d="M220,-2007C220,-2007 132,-2007 132,-2007 126,-2007 120,-2001 120,-1995 120,-1995 120,-1983 120,-1983 120,-1977 126,-1971 132,-1971 132,-1971 220,-1971 220,-1971 226,-1971 232,-1977 232,-1983 232,-1983 232,-1995 232,-1995 232,-2001 226,-2007 220,-2007"/>
<text text-anchor="middle" x="176" y="-1985.3" font-family="Times-Roman" font-size="14.00">pinturillo.com</text>
</g>
<!-- pinturillo2.com -->
<g id="node29" class="node">
<title>pinturillo2.com</title>
<path fill="#e1fa91" stroke="#e1fa91" d="M359.5,-2007C359.5,-2007 262.5,-2007 262.5,-2007 256.5,-2007 250.5,-2001 250.5,-1995 250.5,-1995 250.5,-1983 250.5,-1983 250.5,-1977 256.5,-1971 262.5,-1971 262.5,-1971 359.5,-1971 359.5,-1971 365.5,-1971 371.5,-1977 371.5,-1983 371.5,-1983 371.5,-1995 371.5,-1995 371.5,-2001 365.5,-2007 359.5,-2007"/>
<text text-anchor="middle" x="311" y="-1985.3" font-family="Times-Roman" font-size="14.00">pinturillo2.com</text>
</g>
<!-- pinturillo.com&#45;&gt;pinturillo2.com -->
<g id="edge66" class="edge">
<title>pinturillo.com&#45;&gt;pinturillo2.com</title>
<path fill="none" stroke="black" d="M232.16,-1989C234.81,-1989 237.46,-1989 240.11,-1989"/>
<polygon fill="black" stroke="black" points="240.33,-1992.5 250.33,-1989 240.33,-1985.5 240.33,-1992.5"/>
</g>
<!-- Gartic -->
<g id="node30" class="node">
<title>Gartic</title>
<path fill="#e1fa91" stroke="#e1fa91" d="M193,-1863C193,-1863 159,-1863 159,-1863 153,-1863 147,-1857 147,-1851 147,-1851 147,-1837 147,-1837 147,-1831 153,-1825 159,-1825 159,-1825 193,-1825 193,-1825 199,-1825 205,-1831 205,-1837 205,-1837 205,-1851 205,-1851 205,-1857 199,-1863 193,-1863"/>
<text text-anchor="middle" x="176" y="-1847.8" font-family="Times-Roman" font-size="14.00">Gartic</text>
<text text-anchor="middle" x="176" y="-1832.8" font-family="Times-Roman" font-size="14.00">Gartic</text>
</g>
<!-- pinturillo.com&#45;&gt;Gartic -->
<g id="edge70" class="edge">
<title>pinturillo.com&#45;&gt;Gartic</title>
<path fill="none" stroke="black" d="M176,-1970.75C176,-1946.64 176,-1902.57 176,-1873.53"/>
<polygon fill="black" stroke="black" points="179.5,-1873.21 176,-1863.21 172.5,-1873.21 179.5,-1873.21"/>
</g>
<!-- drawthis.io -->
<g id="node49" class="node">
<title>drawthis.io</title>
<path fill="#90caf9" stroke="#90caf9" d="M307.5,-1202C307.5,-1202 238.5,-1202 238.5,-1202 232.5,-1202 226.5,-1196 226.5,-1190 226.5,-1190 226.5,-1178 226.5,-1178 226.5,-1172 232.5,-1166 238.5,-1166 238.5,-1166 307.5,-1166 307.5,-1166 313.5,-1166 319.5,-1172 319.5,-1178 319.5,-1178 319.5,-1190 319.5,-1190 319.5,-1196 313.5,-1202 307.5,-1202"/>
<text text-anchor="middle" x="273" y="-1180.3" font-family="Times-Roman" font-size="14.00">drawthis.io</text>
</g>
<!-- pinturillo2.com&#45;&gt;drawthis.io -->
<g id="edge67" class="edge">
<title>pinturillo2.com&#45;&gt;drawthis.io</title>
<path fill="none" stroke="black" d="M307.05,-1970.94C301.22,-1944.24 291,-1890.87 291,-1845 291,-1845 291,-1845 291,-1331 291,-1289.38 283.7,-1241.57 278.4,-1212.33"/>
<polygon fill="black" stroke="black" points="281.83,-1211.63 276.56,-1202.44 274.95,-1212.92 281.83,-1211.63"/>
</g>
<!-- skribbl.io -->
<g id="node60" class="node">
<title>skribbl.io</title>
<path fill="#90caf9" stroke="#90caf9" d="M376,-1040C376,-1040 320,-1040 320,-1040 314,-1040 308,-1034 308,-1028 308,-1028 308,-1014 308,-1014 308,-1008 314,-1002 320,-1002 320,-1002 376,-1002 376,-1002 382,-1002 388,-1008 388,-1014 388,-1014 388,-1028 388,-1028 388,-1034 382,-1040 376,-1040"/>
<text text-anchor="middle" x="348" y="-1024.8" font-family="Times-Roman" font-size="14.00">skribbl.io</text>
<text text-anchor="middle" x="348" y="-1009.8" font-family="Times-Roman" font-size="14.00">mel</text>
</g>
<!-- pinturillo2.com&#45;&gt;skribbl.io -->
<g id="edge69" class="edge">
<title>pinturillo2.com&#45;&gt;skribbl.io</title>
<path fill="none" stroke="black" d="M318.49,-1970.76C329.3,-1944.26 348,-1891.67 348,-1845 348,-1845 348,-1845 348,-1183 348,-1136.54 348,-1082.54 348,-1050.38"/>
<polygon fill="black" stroke="black" points="351.5,-1050.35 348,-1040.35 344.5,-1050.35 351.5,-1050.35"/>
</g>
<!-- cursors.io -->
<g id="node31" class="node">
<title>cursors.io</title>
<path fill="#90caf9" stroke="#90caf9" d="M511.5,-1717C511.5,-1717 388.5,-1717 388.5,-1717 382.5,-1717 376.5,-1711 376.5,-1705 376.5,-1705 376.5,-1691 376.5,-1691 376.5,-1685 382.5,-1679 388.5,-1679 388.5,-1679 511.5,-1679 511.5,-1679 517.5,-1679 523.5,-1685 523.5,-1691 523.5,-1691 523.5,-1705 523.5,-1705 523.5,-1711 517.5,-1717 511.5,-1717"/>
<text text-anchor="middle" x="450" y="-1701.8" font-family="Times-Roman" font-size="14.00">cursors.io</text>
<text text-anchor="middle" x="450" y="-1686.8" font-family="Times-Roman" font-size="14.00">Matheus Valadares</text>
</g>
<!-- voar.io -->
<g id="node32" class="node">
<title>voar.io</title>
<path fill="#90caf9" stroke="#90caf9" d="M676.5,-1717C676.5,-1717 553.5,-1717 553.5,-1717 547.5,-1717 541.5,-1711 541.5,-1705 541.5,-1705 541.5,-1691 541.5,-1691 541.5,-1685 547.5,-1679 553.5,-1679 553.5,-1679 676.5,-1679 676.5,-1679 682.5,-1679 688.5,-1685 688.5,-1691 688.5,-1691 688.5,-1705 688.5,-1705 688.5,-1711 682.5,-1717 676.5,-1717"/>
<text text-anchor="middle" x="615" y="-1701.8" font-family="Times-Roman" font-size="14.00">voar.io</text>
<text text-anchor="middle" x="615" y="-1686.8" font-family="Times-Roman" font-size="14.00">Matheus Valadares</text>
</g>
<!-- agar.io -->
<g id="node33" class="node">
<title>agar.io</title>
<path fill="#90caf9" stroke="#90caf9" d="M1006.5,-1571C1006.5,-1571 883.5,-1571 883.5,-1571 877.5,-1571 871.5,-1565 871.5,-1559 871.5,-1559 871.5,-1545 871.5,-1545 871.5,-1539 877.5,-1533 883.5,-1533 883.5,-1533 1006.5,-1533 1006.5,-1533 1012.5,-1533 1018.5,-1539 1018.5,-1545 1018.5,-1545 1018.5,-1559 1018.5,-1559 1018.5,-1565 1012.5,-1571 1006.5,-1571"/>
<text text-anchor="middle" x="945" y="-1555.8" font-family="Times-Roman" font-size="14.00">agar.io</text>
<text text-anchor="middle" x="945" y="-1540.8" font-family="Times-Roman" font-size="14.00">Matheus Valadares</text>
</g>
<!-- mope.io -->
<g id="node44" class="node">
<title>mope.io</title>
<path fill="#90caf9" stroke="#90caf9" d="M578.5,-1121.5C578.5,-1121.5 475.5,-1121.5 475.5,-1121.5 469.5,-1121.5 463.5,-1115.5 463.5,-1109.5 463.5,-1109.5 463.5,-1095.5 463.5,-1095.5 463.5,-1089.5 469.5,-1083.5 475.5,-1083.5 475.5,-1083.5 578.5,-1083.5 578.5,-1083.5 584.5,-1083.5 590.5,-1089.5 590.5,-1095.5 590.5,-1095.5 590.5,-1109.5 590.5,-1109.5 590.5,-1115.5 584.5,-1121.5 578.5,-1121.5"/>
<text text-anchor="middle" x="527" y="-1106.3" font-family="Times-Roman" font-size="14.00">mope.io</text>
<text text-anchor="middle" x="527" y="-1091.3" font-family="Times-Roman" font-size="14.00">Stan Tatarnykov</text>
</g>
<!-- agar.io&#45;&gt;mope.io -->
<g id="edge54" class="edge">
<title>agar.io&#45;&gt;mope.io</title>
<path fill="none" stroke="black" d="M871.38,-1547.95C779.98,-1539.75 636,-1510.43 636,-1407 636,-1407 636,-1407 636,-1257 636,-1203.52 591.47,-1155.69 559.33,-1128.14"/>
<polygon fill="black" stroke="black" points="561.38,-1125.3 551.46,-1121.58 556.9,-1130.67 561.38,-1125.3"/>
</g>
<!-- pie.ai -->
<g id="node57" class="node">
<title>pie.ai</title>
<path fill="#90caf9" stroke="#90caf9" d="M952,-1039C952,-1039 922,-1039 922,-1039 916,-1039 910,-1033 910,-1027 910,-1027 910,-1015 910,-1015 910,-1009 916,-1003 922,-1003 922,-1003 952,-1003 952,-1003 958,-1003 964,-1009 964,-1015 964,-1015 964,-1027 964,-1027 964,-1033 958,-1039 952,-1039"/>
<text text-anchor="middle" x="937" y="-1017.3" font-family="Times-Roman" font-size="14.00">pie.ai</text>
</g>
<!-- agar.io&#45;&gt;pie.ai -->
<g id="edge53" class="edge">
<title>agar.io&#45;&gt;pie.ai</title>
<path fill="none" stroke="black" d="M945,-1532.81C945,-1505.5 945,-1452.25 945,-1407 945,-1407 945,-1407 945,-1183 945,-1136.19 941.58,-1081.81 939.22,-1049.74"/>
<polygon fill="black" stroke="black" points="942.68,-1049.08 938.43,-1039.38 935.7,-1049.61 942.68,-1049.08"/>
</g>
<!-- spinz.io -->
<g id="node63" class="node">
<title>spinz.io</title>
<path fill="#90caf9" stroke="#90caf9" d="M994,-966C994,-966 944,-966 944,-966 938,-966 932,-960 932,-954 932,-954 932,-940 932,-940 932,-934 938,-928 944,-928 944,-928 994,-928 994,-928 1000,-928 1006,-934 1006,-940 1006,-940 1006,-954 1006,-954 1006,-960 1000,-966 994,-966"/>
<text text-anchor="middle" x="969" y="-950.8" font-family="Times-Roman" font-size="14.00">spinz.io</text>
<text text-anchor="middle" x="969" y="-935.8" font-family="Times-Roman" font-size="14.00">Yang Lui</text>
</g>
<!-- agar.io&#45;&gt;spinz.io -->
<g id="edge50" class="edge">
<title>agar.io&#45;&gt;spinz.io</title>
<path fill="none" stroke="black" d="M954.97,-1532.98C968.76,-1506.3 992,-1454.34 992,-1407 992,-1407 992,-1407 992,-1101.5 992,-1057.39 982.6,-1006.93 975.81,-976.27"/>
<polygon fill="black" stroke="black" points="979.18,-975.27 973.54,-966.3 972.35,-976.82 979.18,-975.27"/>
</g>
<!-- vanar.io -->
<g id="node34" class="node">
<title>vanar.io</title>
<path fill="#90caf9" stroke="#90caf9" d="M1437.5,-1497C1437.5,-1497 1390.5,-1497 1390.5,-1497 1384.5,-1497 1378.5,-1491 1378.5,-1485 1378.5,-1485 1378.5,-1473 1378.5,-1473 1378.5,-1467 1384.5,-1461 1390.5,-1461 1390.5,-1461 1437.5,-1461 1437.5,-1461 1443.5,-1461 1449.5,-1467 1449.5,-1473 1449.5,-1473 1449.5,-1485 1449.5,-1485 1449.5,-1491 1443.5,-1497 1437.5,-1497"/>
<text text-anchor="middle" x="1414" y="-1475.3" font-family="Times-Roman" font-size="14.00">vanar.io</text>
</g>
<!-- starblast.io -->
<g id="node53" class="node">
<title>starblast.io</title>
<path fill="#90caf9" stroke="#90caf9" d="M1450,-1121.5C1450,-1121.5 1378,-1121.5 1378,-1121.5 1372,-1121.5 1366,-1115.5 1366,-1109.5 1366,-1109.5 1366,-1095.5 1366,-1095.5 1366,-1089.5 1372,-1083.5 1378,-1083.5 1378,-1083.5 1450,-1083.5 1450,-1083.5 1456,-1083.5 1462,-1089.5 1462,-1095.5 1462,-1095.5 1462,-1109.5 1462,-1109.5 1462,-1115.5 1456,-1121.5 1450,-1121.5"/>
<text text-anchor="middle" x="1414" y="-1106.3" font-family="Times-Roman" font-size="14.00">starblast.io</text>
<text text-anchor="middle" x="1414" y="-1091.3" font-family="Times-Roman" font-size="14.00">Neuronality</text>
</g>
<!-- vanar.io&#45;&gt;starblast.io -->
<g id="edge75" class="edge">
<title>vanar.io&#45;&gt;starblast.io</title>
<path fill="none" stroke="black" d="M1414,-1460.59C1414,-1433.37 1414,-1379.07 1414,-1333 1414,-1333 1414,-1333 1414,-1257 1414,-1213.38 1414,-1162.78 1414,-1131.96"/>
<polygon fill="black" stroke="black" points="1417.5,-1131.93 1414,-1121.93 1410.5,-1131.93 1417.5,-1131.93"/>
</g>
<!-- vertix.io -->
<g id="node35" class="node">
<title>vertix.io</title>
<path fill="#90caf9" stroke="#90caf9" d="M905,-1425C905,-1425 799,-1425 799,-1425 793,-1425 787,-1419 787,-1413 787,-1413 787,-1399 787,-1399 787,-1393 793,-1387 799,-1387 799,-1387 905,-1387 905,-1387 911,-1387 917,-1393 917,-1399 917,-1399 917,-1413 917,-1413 917,-1419 911,-1425 905,-1425"/>
<text text-anchor="middle" x="852" y="-1409.8" font-family="Times-Roman" font-size="14.00">vertix.io</text>
<text text-anchor="middle" x="852" y="-1394.8" font-family="Times-Roman" font-size="14.00">Sydney de Vries</text>
</g>
<!-- nightpoint.io -->
<g id="node70" class="node">
<title>nightpoint.io</title>
<path fill="#90caf9" stroke="#90caf9" d="M980,-892C980,-892 900,-892 900,-892 894,-892 888,-886 888,-880 888,-880 888,-866 888,-866 888,-860 894,-854 900,-854 900,-854 980,-854 980,-854 986,-854 992,-860 992,-866 992,-866 992,-880 992,-880 992,-886 986,-892 980,-892"/>
<text text-anchor="middle" x="940" y="-876.8" font-family="Times-Roman" font-size="14.00">nightpoint.io</text>
<text text-anchor="middle" x="940" y="-861.8" font-family="Times-Roman" font-size="14.00">Sarunas</text>
</g>
<!-- vertix.io&#45;&gt;nightpoint.io -->
<g id="edge31" class="edge">
<title>vertix.io&#45;&gt;nightpoint.io</title>
<path fill="none" stroke="black" d="M855.11,-1386.62C859.5,-1359.01 867,-1305.12 867,-1259 867,-1259 867,-1259 867,-1020 867,-974.29 895.99,-928.21 917.43,-900.38"/>
<polygon fill="black" stroke="black" points="920.32,-902.36 923.8,-892.35 914.84,-898.01 920.32,-902.36"/>
</g>
<!-- slither.io -->
<g id="node36" class="node">
<title>slither.io</title>
<path fill="#90caf9" stroke="#90caf9" d="M1635,-1351C1635,-1351 1553,-1351 1553,-1351 1547,-1351 1541,-1345 1541,-1339 1541,-1339 1541,-1325 1541,-1325 1541,-1319 1547,-1313 1553,-1313 1553,-1313 1635,-1313 1635,-1313 1641,-1313 1647,-1319 1647,-1325 1647,-1325 1647,-1339 1647,-1339 1647,-1345 1641,-1351 1635,-1351"/>
<text text-anchor="middle" x="1594" y="-1335.8" font-family="Times-Roman" font-size="14.00">slither.io</text>
<text text-anchor="middle" x="1594" y="-1320.8" font-family="Times-Roman" font-size="14.00">Steve Howse</text>
</g>
<!-- limax.io -->
<g id="node39" class="node">
<title>limax.io</title>
<path fill="#90caf9" stroke="#90caf9" d="M1525.5,-1277C1525.5,-1277 1454.5,-1277 1454.5,-1277 1448.5,-1277 1442.5,-1271 1442.5,-1265 1442.5,-1265 1442.5,-1251 1442.5,-1251 1442.5,-1245 1448.5,-1239 1454.5,-1239 1454.5,-1239 1525.5,-1239 1525.5,-1239 1531.5,-1239 1537.5,-1245 1537.5,-1251 1537.5,-1251 1537.5,-1265 1537.5,-1265 1537.5,-1271 1531.5,-1277 1525.5,-1277"/>
<text text-anchor="middle" x="1490" y="-1261.8" font-family="Times-Roman" font-size="14.00">limax.io</text>
<text text-anchor="middle" x="1490" y="-1246.8" font-family="Times-Roman" font-size="14.00">LapaMauve</text>
</g>
<!-- slither.io&#45;&gt;limax.io -->
<g id="edge29" class="edge">
<title>slither.io&#45;&gt;limax.io</title>
<path fill="none" stroke="black" d="M1567.76,-1312.83C1554.7,-1303.79 1538.75,-1292.75 1524.7,-1283.02"/>
<polygon fill="black" stroke="black" points="1526.45,-1279.98 1516.24,-1277.16 1522.46,-1285.73 1526.45,-1279.98"/>
</g>
<!-- wormax.io -->
<g id="node41" class="node">
<title>wormax.io</title>
<path fill="#90caf9" stroke="#90caf9" d="M1581,-1203C1581,-1203 1517,-1203 1517,-1203 1511,-1203 1505,-1197 1505,-1191 1505,-1191 1505,-1177 1505,-1177 1505,-1171 1511,-1165 1517,-1165 1517,-1165 1581,-1165 1581,-1165 1587,-1165 1593,-1171 1593,-1177 1593,-1177 1593,-1191 1593,-1191 1593,-1197 1587,-1203 1581,-1203"/>
<text text-anchor="middle" x="1549" y="-1187.8" font-family="Times-Roman" font-size="14.00">wormax.io</text>
<text text-anchor="middle" x="1549" y="-1172.8" font-family="Times-Roman" font-size="14.00">Elyland</text>
</g>
<!-- slither.io&#45;&gt;wormax.io -->
<g id="edge27" class="edge">
<title>slither.io&#45;&gt;wormax.io</title>
<path fill="none" stroke="black" d="M1588.39,-1312.8C1580.68,-1287.78 1566.72,-1242.5 1557.66,-1213.1"/>
<polygon fill="black" stroke="black" points="1560.97,-1211.95 1554.68,-1203.43 1554.28,-1214.01 1560.97,-1211.95"/>
</g>
<!-- wormate.io -->
<g id="node45" class="node">
<title>wormate.io</title>
<path fill="#90caf9" stroke="#90caf9" d="M1682,-1121.5C1682,-1121.5 1560,-1121.5 1560,-1121.5 1554,-1121.5 1548,-1115.5 1548,-1109.5 1548,-1109.5 1548,-1095.5 1548,-1095.5 1548,-1089.5 1554,-1083.5 1560,-1083.5 1560,-1083.5 1682,-1083.5 1682,-1083.5 1688,-1083.5 1694,-1089.5 1694,-1095.5 1694,-1095.5 1694,-1109.5 1694,-1109.5 1694,-1115.5 1688,-1121.5 1682,-1121.5"/>
<text text-anchor="middle" x="1621" y="-1106.3" font-family="Times-Roman" font-size="14.00">wormate.io</text>
<text text-anchor="middle" x="1621" y="-1091.3" font-family="Times-Roman" font-size="14.00">Oleksandr Godoba</text>
</g>
<!-- slither.io&#45;&gt;wormate.io -->
<g id="edge28" class="edge">
<title>slither.io&#45;&gt;wormate.io</title>
<path fill="none" stroke="black" d="M1596.16,-1312.77C1600.87,-1273.15 1612.04,-1178.98 1617.66,-1131.66"/>
<polygon fill="black" stroke="black" points="1621.16,-1131.85 1618.86,-1121.5 1614.21,-1131.02 1621.16,-1131.85"/>
</g>
<!-- powerline.io -->
<g id="node71" class="node">
<title>powerline.io</title>
<path fill="#90caf9" stroke="#90caf9" d="M1769.5,-810.5C1769.5,-810.5 1674.5,-810.5 1674.5,-810.5 1668.5,-810.5 1662.5,-804.5 1662.5,-798.5 1662.5,-798.5 1662.5,-784.5 1662.5,-784.5 1662.5,-778.5 1668.5,-772.5 1674.5,-772.5 1674.5,-772.5 1769.5,-772.5 1769.5,-772.5 1775.5,-772.5 1781.5,-778.5 1781.5,-784.5 1781.5,-784.5 1781.5,-798.5 1781.5,-798.5 1781.5,-804.5 1775.5,-810.5 1769.5,-810.5"/>
<text text-anchor="middle" x="1722" y="-795.3" font-family="Times-Roman" font-size="14.00">powerline.io</text>
<text text-anchor="middle" x="1722" y="-780.3" font-family="Times-Roman" font-size="14.00">Andre Almeida</text>
</g>
<!-- slither.io&#45;&gt;powerline.io -->
<g id="edge30" class="edge">
<title>slither.io&#45;&gt;powerline.io</title>
<path fill="none" stroke="black" d="M1626.3,-1312.89C1664.22,-1288.96 1722,-1242.98 1722,-1185 1722,-1185 1722,-1185 1722,-946 1722,-902.38 1722,-851.78 1722,-820.96"/>
<polygon fill="black" stroke="black" points="1725.5,-820.93 1722,-810.93 1718.5,-820.93 1725.5,-820.93"/>
</g>
<!-- diep.io -->
<g id="node37" class="node">
<title>diep.io</title>
<path fill="#90caf9" stroke="#90caf9" d="M1951.5,-1351C1951.5,-1351 1828.5,-1351 1828.5,-1351 1822.5,-1351 1816.5,-1345 1816.5,-1339 1816.5,-1339 1816.5,-1325 1816.5,-1325 1816.5,-1319 1822.5,-1313 1828.5,-1313 1828.5,-1313 1951.5,-1313 1951.5,-1313 1957.5,-1313 1963.5,-1319 1963.5,-1325 1963.5,-1325 1963.5,-1339 1963.5,-1339 1963.5,-1345 1957.5,-1351 1951.5,-1351"/>
<text text-anchor="middle" x="1890" y="-1335.8" font-family="Times-Roman" font-size="14.00">diep.io</text>
<text text-anchor="middle" x="1890" y="-1320.8" font-family="Times-Roman" font-size="14.00">Matheus Valadares</text>
</g>
<!-- tanksmith.io -->
<g id="node82" class="node">
<title>tanksmith.io</title>
<path fill="#90caf9" stroke="#90caf9" d="M1849.5,-637C1849.5,-637 1770.5,-637 1770.5,-637 1764.5,-637 1758.5,-631 1758.5,-625 1758.5,-625 1758.5,-611 1758.5,-611 1758.5,-605 1764.5,-599 1770.5,-599 1770.5,-599 1849.5,-599 1849.5,-599 1855.5,-599 1861.5,-605 1861.5,-611 1861.5,-611 1861.5,-625 1861.5,-625 1861.5,-631 1855.5,-637 1849.5,-637"/>
<text text-anchor="middle" x="1810" y="-621.8" font-family="Times-Roman" font-size="14.00">tanksmith.io</text>
<text text-anchor="middle" x="1810" y="-606.8" font-family="Times-Roman" font-size="14.00">IO Ninja</text>
</g>
<!-- diep.io&#45;&gt;tanksmith.io -->
<g id="edge55" class="edge">
<title>diep.io&#45;&gt;tanksmith.io</title>
<path fill="none" stroke="black" d="M1872.25,-1312.93C1848.68,-1286.94 1810,-1236.45 1810,-1185 1810,-1185 1810,-1185 1810,-790.5 1810,-739.99 1810,-681.11 1810,-647.14"/>
<polygon fill="black" stroke="black" points="1813.5,-647.02 1810,-637.02 1806.5,-647.02 1813.5,-647.02"/>
</g>
<!-- florr.io -->
<g id="node91" class="node">
<title>florr.io</title>
<path fill="#90caf9" stroke="#90caf9" d="M1951.5,-112C1951.5,-112 1828.5,-112 1828.5,-112 1822.5,-112 1816.5,-106 1816.5,-100 1816.5,-100 1816.5,-86 1816.5,-86 1816.5,-80 1822.5,-74 1828.5,-74 1828.5,-74 1951.5,-74 1951.5,-74 1957.5,-74 1963.5,-80 1963.5,-86 1963.5,-86 1963.5,-100 1963.5,-100 1963.5,-106 1957.5,-112 1951.5,-112"/>
<text text-anchor="middle" x="1890" y="-96.8" font-family="Times-Roman" font-size="14.00">florr.io</text>
<text text-anchor="middle" x="1890" y="-81.8" font-family="Times-Roman" font-size="14.00">Matheus Valadares</text>
</g>
<!-- diep.io&#45;&gt;florr.io -->
<g id="edge56" class="edge">
<title>diep.io&#45;&gt;florr.io</title>
<path fill="none" stroke="black" d="M1890,-1312.56C1890,-1284.87 1890,-1230.88 1890,-1185 1890,-1185 1890,-1185 1890,-237 1890,-197.15 1890,-151.06 1890,-122.22"/>
<polygon fill="black" stroke="black" points="1893.5,-122.06 1890,-112.06 1886.5,-122.06 1893.5,-122.06"/>
</g>
<!-- doblons.io -->
<g id="node94" class="node">
<title>doblons.io</title>
<path fill="#90caf9" stroke="#90caf9" d="M2036,-1121.5C2036,-1121.5 1930,-1121.5 1930,-1121.5 1924,-1121.5 1918,-1115.5 1918,-1109.5 1918,-1109.5 1918,-1095.5 1918,-1095.5 1918,-1089.5 1924,-1083.5 1930,-1083.5 1930,-1083.5 2036,-1083.5 2036,-1083.5 2042,-1083.5 2048,-1089.5 2048,-1095.5 2048,-1095.5 2048,-1109.5 2048,-1109.5 2048,-1115.5 2042,-1121.5 2036,-1121.5"/>
<text text-anchor="middle" x="1983" y="-1106.3" font-family="Times-Roman" font-size="14.00">doblons.io</text>
<text text-anchor="middle" x="1983" y="-1091.3" font-family="Times-Roman" font-size="14.00">Sydney de Vries</text>
</g>
<!-- diep.io&#45;&gt;doblons.io -->
<g id="edge57" class="edge">
<title>diep.io&#45;&gt;doblons.io</title>
<path fill="none" stroke="black" d="M1897.45,-1312.77C1913.75,-1272.9 1952.63,-1177.79 1971.85,-1130.77"/>
<polygon fill="black" stroke="black" points="1975.1,-1132.08 1975.64,-1121.5 1968.62,-1129.44 1975.1,-1132.08"/>
</g>
<!-- wings.io -->
<g id="node38" class="node">
<title>wings.io</title>
<path fill="#90caf9" stroke="#90caf9" d="M2088.5,-1351C2088.5,-1351 1993.5,-1351 1993.5,-1351 1987.5,-1351 1981.5,-1345 1981.5,-1339 1981.5,-1339 1981.5,-1325 1981.5,-1325 1981.5,-1319 1987.5,-1313 1993.5,-1313 1993.5,-1313 2088.5,-1313 2088.5,-1313 2094.5,-1313 2100.5,-1319 2100.5,-1325 2100.5,-1325 2100.5,-1339 2100.5,-1339 2100.5,-1345 2094.5,-1351 2088.5,-1351"/>
<text text-anchor="middle" x="2041" y="-1335.8" font-family="Times-Roman" font-size="14.00">wings.io</text>
<text text-anchor="middle" x="2041" y="-1320.8" font-family="Times-Roman" font-size="14.00">Andre Almeida</text>
</g>
<!-- wilds.io -->
<g id="node40" class="node">
<title>wilds.io</title>
<path fill="#90caf9" stroke="#90caf9" d="M2100.5,-1277C2100.5,-1277 2051.5,-1277 2051.5,-1277 2045.5,-1277 2039.5,-1271 2039.5,-1265 2039.5,-1265 2039.5,-1251 2039.5,-1251 2039.5,-1245 2045.5,-1239 2051.5,-1239 2051.5,-1239 2100.5,-1239 2100.5,-1239 2106.5,-1239 2112.5,-1245 2112.5,-1251 2112.5,-1251 2112.5,-1265 2112.5,-1265 2112.5,-1271 2106.5,-1277 2100.5,-1277"/>
<text text-anchor="middle" x="2076" y="-1261.8" font-family="Times-Roman" font-size="14.00">wilds.io</text>
<text text-anchor="middle" x="2076" y="-1246.8" font-family="Times-Roman" font-size="14.00">Rezoner</text>
</g>
<!-- wanderers.io -->
<g id="node73" class="node">
<title>wanderers.io</title>
<path fill="#90caf9" stroke="#90caf9" d="M2155,-810.5C2155,-810.5 2073,-810.5 2073,-810.5 2067,-810.5 2061,-804.5 2061,-798.5 2061,-798.5 2061,-784.5 2061,-784.5 2061,-778.5 2067,-772.5 2073,-772.5 2073,-772.5 2155,-772.5 2155,-772.5 2161,-772.5 2167,-778.5 2167,-784.5 2167,-784.5 2167,-798.5 2167,-798.5 2167,-804.5 2161,-810.5 2155,-810.5"/>
<text text-anchor="middle" x="2114" y="-795.3" font-family="Times-Roman" font-size="14.00">wanderers.io</text>
<text text-anchor="middle" x="2114" y="-780.3" font-family="Times-Roman" font-size="14.00">Rezoner</text>
</g>
<!-- wilds.io&#45;&gt;wanderers.io -->
<g id="edge48" class="edge">
<title>wilds.io&#45;&gt;wanderers.io</title>
<path fill="none" stroke="black" d="M2076,-1238.57C2076,-1209.75 2076,-1152.27 2076,-1103.5 2076,-1103.5 2076,-1103.5 2076,-946 2076,-900.86 2091.67,-850.39 2102.89,-820.05"/>
<polygon fill="black" stroke="black" points="2106.21,-821.16 2106.49,-810.57 2099.67,-818.67 2106.21,-821.16"/>
</g>
<!-- deeeep.io -->
<g id="node42" class="node">
<title>deeeep.io</title>
<path fill="#90caf9" stroke="#90caf9" d="M721.5,-1121.5C721.5,-1121.5 620.5,-1121.5 620.5,-1121.5 614.5,-1121.5 608.5,-1115.5 608.5,-1109.5 608.5,-1109.5 608.5,-1095.5 608.5,-1095.5 608.5,-1089.5 614.5,-1083.5 620.5,-1083.5 620.5,-1083.5 721.5,-1083.5 721.5,-1083.5 727.5,-1083.5 733.5,-1089.5 733.5,-1095.5 733.5,-1095.5 733.5,-1109.5 733.5,-1109.5 733.5,-1115.5 727.5,-1121.5 721.5,-1121.5"/>
<text text-anchor="middle" x="671" y="-1106.3" font-family="Times-Roman" font-size="14.00">deeeep.io</text>
<text text-anchor="middle" x="671" y="-1091.3" font-family="Times-Roman" font-size="14.00">Federico Mouse</text>
</g>
<!-- oceanar.io -->
<g id="node43" class="node">
<title>oceanar.io</title>
<path fill="#90caf9" stroke="#90caf9" d="M826.5,-1121.5C826.5,-1121.5 763.5,-1121.5 763.5,-1121.5 757.5,-1121.5 751.5,-1115.5 751.5,-1109.5 751.5,-1109.5 751.5,-1095.5 751.5,-1095.5 751.5,-1089.5 757.5,-1083.5 763.5,-1083.5 763.5,-1083.5 826.5,-1083.5 826.5,-1083.5 832.5,-1083.5 838.5,-1089.5 838.5,-1095.5 838.5,-1095.5 838.5,-1109.5 838.5,-1109.5 838.5,-1115.5 832.5,-1121.5 826.5,-1121.5"/>
<text text-anchor="middle" x="795" y="-1106.3" font-family="Times-Roman" font-size="14.00">oceanar.io</text>
<text text-anchor="middle" x="795" y="-1091.3" font-family="Times-Roman" font-size="14.00">S3Games</text>
</g>
<!-- deeeep.io&#45;&gt;oceanar.io -->
<g id="edge36" class="edge">
<title>deeeep.io&#45;&gt;oceanar.io</title>
<path fill="none" stroke="black" d="M733.97,-1102.5C736.29,-1102.5 738.62,-1102.5 740.94,-1102.5"/>
<polygon fill="black" stroke="black" points="741.13,-1106 751.13,-1102.5 741.13,-1099 741.13,-1106"/>
</g>
<!-- mope.io&#45;&gt;deeeep.io -->
<g id="edge37" class="edge">
<title>mope.io&#45;&gt;deeeep.io</title>
<path fill="none" stroke="black" d="M590.56,-1102.5C593.17,-1102.5 595.79,-1102.5 598.4,-1102.5"/>
<polygon fill="black" stroke="black" points="598.47,-1106 608.47,-1102.5 598.47,-1099 598.47,-1106"/>
</g>
<!-- moomoo.io -->
<g id="node58" class="node">
<title>moomoo.io</title>
<path fill="#90caf9" stroke="#90caf9" d="M580,-1040C580,-1040 474,-1040 474,-1040 468,-1040 462,-1034 462,-1028 462,-1028 462,-1014 462,-1014 462,-1008 468,-1002 474,-1002 474,-1002 580,-1002 580,-1002 586,-1002 592,-1008 592,-1014 592,-1014 592,-1028 592,-1028 592,-1034 586,-1040 580,-1040"/>
<text text-anchor="middle" x="527" y="-1024.8" font-family="Times-Roman" font-size="14.00">moomoo.io</text>
<text text-anchor="middle" x="527" y="-1009.8" font-family="Times-Roman" font-size="14.00">Sydney de Vries</text>
</g>
<!-- mope.io&#45;&gt;moomoo.io -->
<g id="edge38" class="edge">
<title>mope.io&#45;&gt;moomoo.io</title>
<path fill="none" stroke="black" d="M527,-1083.46C527,-1073.67 527,-1061.35 527,-1050.31"/>
<polygon fill="black" stroke="black" points="530.5,-1050.24 527,-1040.24 523.5,-1050.24 530.5,-1050.24"/>
</g>
<!-- paper.io -->
<g id="node46" class="node">
<title>paper.io</title>
<path fill="#90caf9" stroke="#90caf9" d="M2364,-1203C2364,-1203 2316,-1203 2316,-1203 2310,-1203 2304,-1197 2304,-1191 2304,-1191 2304,-1177 2304,-1177 2304,-1171 2310,-1165 2316,-1165 2316,-1165 2364,-1165 2364,-1165 2370,-1165 2376,-1171 2376,-1177 2376,-1177 2376,-1191 2376,-1191 2376,-1197 2370,-1203 2364,-1203"/>
<text text-anchor="middle" x="2340" y="-1187.8" font-family="Times-Roman" font-size="14.00">paper.io</text>
<text text-anchor="middle" x="2340" y="-1172.8" font-family="Times-Roman" font-size="14.00">Voodoo</text>
</g>
<!-- narwhale.io -->
<g id="node47" class="node">
<title>narwhale.io</title>
<path fill="#90caf9" stroke="#90caf9" d="M2498,-1203C2498,-1203 2406,-1203 2406,-1203 2400,-1203 2394,-1197 2394,-1191 2394,-1191 2394,-1177 2394,-1177 2394,-1171 2400,-1165 2406,-1165 2406,-1165 2498,-1165 2498,-1165 2504,-1165 2510,-1171 2510,-1177 2510,-1177 2510,-1191 2510,-1191 2510,-1197 2504,-1203 2498,-1203"/>
<text text-anchor="middle" x="2452" y="-1187.8" font-family="Times-Roman" font-size="14.00">narwhale.io</text>
<text text-anchor="middle" x="2452" y="-1172.8" font-family="Times-Roman" font-size="14.00">Hsi&#45;Hung Shih</text>
</g>
<!-- pikes.io -->
<g id="node66" class="node">
<title>pikes.io</title>
<path fill="#90caf9" stroke="#90caf9" d="M2495.5,-966C2495.5,-966 2408.5,-966 2408.5,-966 2402.5,-966 2396.5,-960 2396.5,-954 2396.5,-954 2396.5,-940 2396.5,-940 2396.5,-934 2402.5,-928 2408.5,-928 2408.5,-928 2495.5,-928 2495.5,-928 2501.5,-928 2507.5,-934 2507.5,-940 2507.5,-940 2507.5,-954 2507.5,-954 2507.5,-960 2501.5,-966 2495.5,-966"/>
<text text-anchor="middle" x="2452" y="-950.8" font-family="Times-Roman" font-size="14.00">pikes.io</text>
<text text-anchor="middle" x="2452" y="-935.8" font-family="Times-Roman" font-size="14.00">Clown Games</text>
</g>
<!-- narwhale.io&#45;&gt;pikes.io -->
<g id="edge71" class="edge">
<title>narwhale.io&#45;&gt;pikes.io</title>
<path fill="none" stroke="black" d="M2452,-1164.95C2452,-1124.28 2452,-1025.23 2452,-976.31"/>
<polygon fill="black" stroke="black" points="2455.5,-976.11 2452,-966.11 2448.5,-976.11 2455.5,-976.11"/>
</g>
<!-- splix.io -->
<g id="node48" class="node">
<title>splix.io</title>
<path fill="#90caf9" stroke="#90caf9" d="M2273.5,-1203C2273.5,-1203 2232.5,-1203 2232.5,-1203 2226.5,-1203 2220.5,-1197 2220.5,-1191 2220.5,-1191 2220.5,-1177 2220.5,-1177 2220.5,-1171 2226.5,-1165 2232.5,-1165 2232.5,-1165 2273.5,-1165 2273.5,-1165 2279.5,-1165 2285.5,-1171 2285.5,-1177 2285.5,-1177 2285.5,-1191 2285.5,-1191 2285.5,-1197 2279.5,-1203 2273.5,-1203"/>
<text text-anchor="middle" x="2253" y="-1187.8" font-family="Times-Roman" font-size="14.00">splix.io</text>
<text text-anchor="middle" x="2253" y="-1172.8" font-family="Times-Roman" font-size="14.00">Jesper</text>
</g>
<!-- splix.io&#45;&gt;paper.io -->
<g id="edge60" class="edge">
<title>splix.io&#45;&gt;paper.io</title>
<path fill="none" stroke="black" d="M2285.62,-1184C2288.29,-1184 2290.95,-1184 2293.62,-1184"/>
<polygon fill="black" stroke="black" points="2293.89,-1187.5 2303.89,-1184 2293.89,-1180.5 2293.89,-1187.5"/>
</g>
<!-- hexar.io -->
<g id="node56" class="node">
<title>hexar.io</title>
<path fill="#90caf9" stroke="#90caf9" d="M2276.5,-1039C2276.5,-1039 2229.5,-1039 2229.5,-1039 2223.5,-1039 2217.5,-1033 2217.5,-1027 2217.5,-1027 2217.5,-1015 2217.5,-1015 2217.5,-1009 2223.5,-1003 2229.5,-1003 2229.5,-1003 2276.5,-1003 2276.5,-1003 2282.5,-1003 2288.5,-1009 2288.5,-1015 2288.5,-1015 2288.5,-1027 2288.5,-1027 2288.5,-1033 2282.5,-1039 2276.5,-1039"/>
<text text-anchor="middle" x="2253" y="-1017.3" font-family="Times-Roman" font-size="14.00">hexar.io</text>
</g>
<!-- splix.io&#45;&gt;hexar.io -->
<g id="edge61" class="edge">
<title>splix.io&#45;&gt;hexar.io</title>
<path fill="none" stroke="black" d="M2253,-1164.84C2253,-1136.77 2253,-1082.62 2253,-1049.66"/>
<polygon fill="black" stroke="black" points="2256.5,-1049.36 2253,-1039.36 2249.5,-1049.36 2256.5,-1049.36"/>
</g>
<!-- drawthis2.io -->
<g id="node84" class="node">
<title>drawthis2.io</title>
<path fill="#90caf9" stroke="#90caf9" d="M312,-637C312,-637 234,-637 234,-637 228,-637 222,-631 222,-625 222,-625 222,-611 222,-611 222,-605 228,-599 234,-599 234,-599 312,-599 312,-599 318,-599 324,-605 324,-611 324,-611 324,-625 324,-625 324,-631 318,-637 312,-637"/>
<text text-anchor="middle" x="273" y="-621.8" font-family="Times-Roman" font-size="14.00">drawthis2.io</text>
<text text-anchor="middle" x="273" y="-606.8" font-family="Times-Roman" font-size="14.00">lagged.com</text>
</g>
<!-- drawthis.io&#45;&gt;drawthis2.io -->
<g id="edge68" class="edge">
<title>drawthis.io&#45;&gt;drawthis2.io</title>
<path fill="none" stroke="black" d="M273,-1165.61C273,-1136.08 273,-1074.27 273,-1022 273,-1022 273,-1022 273,-790.5 273,-739.99 273,-681.11 273,-647.14"/>
<polygon fill="black" stroke="black" points="276.5,-647.02 273,-637.02 269.5,-647.02 276.5,-647.02"/>
</g>
<!-- bonk.io -->
<g id="node50" class="node">
<title>bonk.io</title>
<path fill="#90caf9" stroke="#90caf9" d="M2584,-1203C2584,-1203 2540,-1203 2540,-1203 2534,-1203 2528,-1197 2528,-1191 2528,-1191 2528,-1177 2528,-1177 2528,-1171 2534,-1165 2540,-1165 2540,-1165 2584,-1165 2584,-1165 2590,-1165 2596,-1171 2596,-1177 2596,-1177 2596,-1191 2596,-1191 2596,-1197 2590,-1203 2584,-1203"/>
<text text-anchor="middle" x="2562" y="-1187.8" font-family="Times-Roman" font-size="14.00">bonk.io</text>
<text text-anchor="middle" x="2562" y="-1172.8" font-family="Times-Roman" font-size="14.00">Chaz</text>
</g>
<!-- bonk2.io -->
<g id="node90" class="node">
<title>bonk2.io</title>
<path fill="#90caf9" stroke="#90caf9" d="M2588.5,-112C2588.5,-112 2535.5,-112 2535.5,-112 2529.5,-112 2523.5,-106 2523.5,-100 2523.5,-100 2523.5,-86 2523.5,-86 2523.5,-80 2529.5,-74 2535.5,-74 2535.5,-74 2588.5,-74 2588.5,-74 2594.5,-74 2600.5,-80 2600.5,-86 2600.5,-86 2600.5,-100 2600.5,-100 2600.5,-106 2594.5,-112 2588.5,-112"/>
<text text-anchor="middle" x="2562" y="-96.8" font-family="Times-Roman" font-size="14.00">bonk2.io</text>
<text text-anchor="middle" x="2562" y="-81.8" font-family="Times-Roman" font-size="14.00">Chaz</text>
</g>
<!-- bonk.io&#45;&gt;bonk2.io -->
<g id="edge58" class="edge">
<title>bonk.io&#45;&gt;bonk2.io</title>
<path fill="none" stroke="black" d="M2562,-1164.65C2562,-1134.76 2562,-1073.71 2562,-1022 2562,-1022 2562,-1022 2562,-237 2562,-197.15 2562,-151.06 2562,-122.22"/>
<polygon fill="black" stroke="black" points="2565.5,-122.06 2562,-112.06 2558.5,-122.06 2565.5,-122.06"/>
</g>
<!-- hordes.io -->
<g id="node51" class="node">
<title>hordes.io</title>
<path fill="#90caf9" stroke="#90caf9" d="M2682,-1203C2682,-1203 2626,-1203 2626,-1203 2620,-1203 2614,-1197 2614,-1191 2614,-1191 2614,-1177 2614,-1177 2614,-1171 2620,-1165 2626,-1165 2626,-1165 2682,-1165 2682,-1165 2688,-1165 2694,-1171 2694,-1177 2694,-1177 2694,-1191 2694,-1191 2694,-1197 2688,-1203 2682,-1203"/>
<text text-anchor="middle" x="2654" y="-1187.8" font-family="Times-Roman" font-size="14.00">hordes.io</text>
<text text-anchor="middle" x="2654" y="-1172.8" font-family="Times-Roman" font-size="14.00">dek</text>
</g>
<!-- krew.io -->
<g id="node52" class="node">
<title>krew.io</title>
<path fill="#90caf9" stroke="#90caf9" d="M2649.5,-1129C2649.5,-1129 2602.5,-1129 2602.5,-1129 2596.5,-1129 2590.5,-1123 2590.5,-1117 2590.5,-1117 2590.5,-1088 2590.5,-1088 2590.5,-1082 2596.5,-1076 2602.5,-1076 2602.5,-1076 2649.5,-1076 2649.5,-1076 2655.5,-1076 2661.5,-1082 2661.5,-1088 2661.5,-1088 2661.5,-1117 2661.5,-1117 2661.5,-1123 2655.5,-1129 2649.5,-1129"/>
<text text-anchor="middle" x="2626" y="-1113.8" font-family="Times-Roman" font-size="14.00">krew.io</text>
<text text-anchor="middle" x="2626" y="-1098.8" font-family="Times-Roman" font-size="14.00">M0dE &amp;</text>
<text text-anchor="middle" x="2626" y="-1083.8" font-family="Times-Roman" font-size="14.00"> dek</text>
</g>
<!-- microgravity.io -->
<g id="node86" class="node">
<title>microgravity.io</title>
<path fill="#90caf9" stroke="#90caf9" d="M1466,-563C1466,-563 1362,-563 1362,-563 1356,-563 1350,-557 1350,-551 1350,-551 1350,-522 1350,-522 1350,-516 1356,-510 1362,-510 1362,-510 1466,-510 1466,-510 1472,-510 1478,-516 1478,-522 1478,-522 1478,-551 1478,-551 1478,-557 1472,-563 1466,-563"/>
<text text-anchor="middle" x="1414" y="-547.8" font-family="Times-Roman" font-size="14.00">microgravity.io</text>
<text text-anchor="middle" x="1414" y="-532.8" font-family="Times-Roman" font-size="14.00">Nathan Flurry &amp;</text>
<text text-anchor="middle" x="1414" y="-517.8" font-family="Times-Roman" font-size="14.00">Nicholas Kissel</text>
</g>
<!-- starblast.io&#45;&gt;microgravity.io -->
<g id="edge76" class="edge">
<title>starblast.io&#45;&gt;microgravity.io</title>
<path fill="none" stroke="black" d="M1414,-1083.07C1414,-1054.25 1414,-996.77 1414,-948 1414,-948 1414,-948 1414,-698.5 1414,-655.56 1414,-606.17 1414,-573.54"/>
<polygon fill="black" stroke="black" points="1417.5,-573.15 1414,-563.15 1410.5,-573.15 1417.5,-573.15"/>
</g>
<!-- oib.io -->
<g id="node54" class="node">
<title>oib.io</title>
<path fill="#90caf9" stroke="#90caf9" d="M2187.5,-1040C2187.5,-1040 2116.5,-1040 2116.5,-1040 2110.5,-1040 2104.5,-1034 2104.5,-1028 2104.5,-1028 2104.5,-1014 2104.5,-1014 2104.5,-1008 2110.5,-1002 2116.5,-1002 2116.5,-1002 2187.5,-1002 2187.5,-1002 2193.5,-1002 2199.5,-1008 2199.5,-1014 2199.5,-1014 2199.5,-1028 2199.5,-1028 2199.5,-1034 2193.5,-1040 2187.5,-1040"/>
<text text-anchor="middle" x="2152" y="-1024.8" font-family="Times-Roman" font-size="14.00">oib.io</text>
<text text-anchor="middle" x="2152" y="-1009.8" font-family="Times-Roman" font-size="14.00">LapaMauve</text>
</g>
<!-- oib.io&#45;&gt;wanderers.io -->
<g id="edge49" class="edge">
<title>oib.io&#45;&gt;wanderers.io</title>
<path fill="none" stroke="black" d="M2148.95,-1001.77C2142.34,-962.15 2126.61,-867.98 2118.7,-820.66"/>
<polygon fill="black" stroke="black" points="2122.11,-819.79 2117.01,-810.5 2115.2,-820.94 2122.11,-819.79"/>
</g>
<!-- brutal.io -->
<g id="node55" class="node">
<title>brutal.io</title>
<path fill="#90caf9" stroke="#90caf9" d="M2697.5,-1040C2697.5,-1040 2602.5,-1040 2602.5,-1040 2596.5,-1040 2590.5,-1034 2590.5,-1028 2590.5,-1028 2590.5,-1014 2590.5,-1014 2590.5,-1008 2596.5,-1002 2602.5,-1002 2602.5,-1002 2697.5,-1002 2697.5,-1002 2703.5,-1002 2709.5,-1008 2709.5,-1014 2709.5,-1014 2709.5,-1028 2709.5,-1028 2709.5,-1034 2703.5,-1040 2697.5,-1040"/>
<text text-anchor="middle" x="2650" y="-1024.8" font-family="Times-Roman" font-size="14.00">brutal.io</text>
<text text-anchor="middle" x="2650" y="-1009.8" font-family="Times-Roman" font-size="14.00">Andre Almeida</text>
</g>
<!-- superhex.io -->
<g id="node67" class="node">
<title>superhex.io</title>
<path fill="#90caf9" stroke="#90caf9" d="M2290,-965C2290,-965 2216,-965 2216,-965 2210,-965 2204,-959 2204,-953 2204,-953 2204,-941 2204,-941 2204,-935 2210,-929 2216,-929 2216,-929 2290,-929 2290,-929 2296,-929 2302,-935 2302,-941 2302,-941 2302,-953 2302,-953 2302,-959 2296,-965 2290,-965"/>
<text text-anchor="middle" x="2253" y="-943.3" font-family="Times-Roman" font-size="14.00">superhex.io</text>
</g>
<!-- hexar.io&#45;&gt;superhex.io -->
<g id="edge62" class="edge">
<title>hexar.io&#45;&gt;superhex.io</title>
<path fill="none" stroke="black" d="M2253,-1002.94C2253,-994.81 2253,-984.88 2253,-975.7"/>
<polygon fill="black" stroke="black" points="2256.5,-975.44 2253,-965.44 2249.5,-975.44 2256.5,-975.44"/>
</g>
<!-- starve.io -->
<g id="node59" class="node">
<title>starve.io</title>
<path fill="#90caf9" stroke="#90caf9" d="M1219.5,-1040C1219.5,-1040 1148.5,-1040 1148.5,-1040 1142.5,-1040 1136.5,-1034 1136.5,-1028 1136.5,-1028 1136.5,-1014 1136.5,-1014 1136.5,-1008 1142.5,-1002 1148.5,-1002 1148.5,-1002 1219.5,-1002 1219.5,-1002 1225.5,-1002 1231.5,-1008 1231.5,-1014 1231.5,-1014 1231.5,-1028 1231.5,-1028 1231.5,-1034 1225.5,-1040 1219.5,-1040"/>
<text text-anchor="middle" x="1184" y="-1024.8" font-family="Times-Roman" font-size="14.00">starve.io</text>
<text text-anchor="middle" x="1184" y="-1009.8" font-family="Times-Roman" font-size="14.00">LapaMauve</text>
</g>
<!-- moomoo.io&#45;&gt;starve.io -->
<g id="edge42" class="edge">
<title>moomoo.io&#45;&gt;starve.io</title>
<path fill="none" stroke="black" d="M592.07,-1033.37C682.85,-1048.97 852.61,-1072.15 997,-1058 1040.8,-1053.71 1089.57,-1043.89 1126.31,-1035.44"/>
<polygon fill="black" stroke="black" points="1127.4,-1038.79 1136.34,-1033.11 1125.81,-1031.97 1127.4,-1038.79"/>
</g>
<!-- zombs.io -->
<g id="node62" class="node">
<title>zombs.io</title>
<path fill="#90caf9" stroke="#90caf9" d="M554.5,-966C554.5,-966 499.5,-966 499.5,-966 493.5,-966 487.5,-960 487.5,-954 487.5,-954 487.5,-940 487.5,-940 487.5,-934 493.5,-928 499.5,-928 499.5,-928 554.5,-928 554.5,-928 560.5,-928 566.5,-934 566.5,-940 566.5,-940 566.5,-954 566.5,-954 566.5,-960 560.5,-966 554.5,-966"/>
<text text-anchor="middle" x="527" y="-950.8" font-family="Times-Roman" font-size="14.00">zombs.io</text>
<text text-anchor="middle" x="527" y="-935.8" font-family="Times-Roman" font-size="14.00">Yang Lui</text>
</g>
<!-- moomoo.io&#45;&gt;zombs.io -->
<g id="edge45" class="edge">
<title>moomoo.io&#45;&gt;zombs.io</title>
<path fill="none" stroke="black" d="M527,-1001.83C527,-994.13 527,-984.97 527,-976.42"/>
<polygon fill="black" stroke="black" points="530.5,-976.41 527,-966.41 523.5,-976.41 530.5,-976.41"/>
</g>
<!-- foes.io -->
<g id="node69" class="node">
<title>foes.io</title>
<path fill="#90caf9" stroke="#90caf9" d="M419,-892C419,-892 313,-892 313,-892 307,-892 301,-886 301,-880 301,-880 301,-866 301,-866 301,-860 307,-854 313,-854 313,-854 419,-854 419,-854 425,-854 431,-860 431,-866 431,-866 431,-880 431,-880 431,-886 425,-892 419,-892"/>
<text text-anchor="middle" x="366" y="-876.8" font-family="Times-Roman" font-size="14.00">foes.io</text>
<text text-anchor="middle" x="366" y="-861.8" font-family="Times-Roman" font-size="14.00">Sydney de Vries</text>
</g>
<!-- moomoo.io&#45;&gt;foes.io -->
<g id="edge39" class="edge">
<title>moomoo.io&#45;&gt;foes.io</title>
<path fill="none" stroke="black" d="M495.16,-1001.92C479.33,-992.23 460.35,-979.52 445,-966 422.42,-946.13 400.44,-919.78 385.42,-900.38"/>
<polygon fill="black" stroke="black" points="388.08,-898.09 379.23,-892.27 382.52,-902.34 388.08,-898.09"/>
</g>
<!-- doomed.io -->
<g id="node72" class="node">
<title>doomed.io</title>
<path fill="#90caf9" stroke="#90caf9" d="M439.5,-810.5C439.5,-810.5 374.5,-810.5 374.5,-810.5 368.5,-810.5 362.5,-804.5 362.5,-798.5 362.5,-798.5 362.5,-784.5 362.5,-784.5 362.5,-778.5 368.5,-772.5 374.5,-772.5 374.5,-772.5 439.5,-772.5 439.5,-772.5 445.5,-772.5 451.5,-778.5 451.5,-784.5 451.5,-784.5 451.5,-798.5 451.5,-798.5 451.5,-804.5 445.5,-810.5 439.5,-810.5"/>
<text text-anchor="middle" x="407" y="-795.3" font-family="Times-Roman" font-size="14.00">doomed.io</text>
<text text-anchor="middle" x="407" y="-780.3" font-family="Times-Roman" font-size="14.00">Ginoda</text>
</g>
<!-- moomoo.io&#45;&gt;doomed.io -->
<g id="edge40" class="edge">
<title>moomoo.io&#45;&gt;doomed.io</title>
<path fill="none" stroke="black" d="M507.68,-1001.95C498.01,-992.08 486.75,-979.2 479,-966 452.31,-920.55 461.19,-902.26 440,-854 434.91,-842.42 428.49,-830.05 422.66,-819.47"/>
<polygon fill="black" stroke="black" points="425.68,-817.7 417.74,-810.69 419.58,-821.13 425.68,-817.7"/>
</g>
<!-- surviv.io -->
<g id="node96" class="node">
<title>surviv.io</title>
<path fill="#90caf9" stroke="#90caf9" d="M672,-726C672,-726 594,-726 594,-726 588,-726 582,-720 582,-714 582,-714 582,-685 582,-685 582,-679 588,-673 594,-673 594,-673 672,-673 672,-673 678,-673 684,-679 684,-685 684,-685 684,-714 684,-714 684,-720 678,-726 672,-726"/>
<text text-anchor="middle" x="633" y="-710.8" font-family="Times-Roman" font-size="14.00">surviv.io</text>
<text text-anchor="middle" x="633" y="-695.8" font-family="Times-Roman" font-size="14.00">Justin Kim &amp;</text>
<text text-anchor="middle" x="633" y="-680.8" font-family="Times-Roman" font-size="14.00"> Nick Clark</text>
</g>
<!-- moomoo.io&#45;&gt;surviv.io -->
<g id="edge44" class="edge">
<title>moomoo.io&#45;&gt;surviv.io</title>
<path fill="none" stroke="black" d="M547.92,-1001.91C557.86,-992.23 569.06,-979.52 576,-966 614.87,-890.27 627.26,-789.29 631.19,-736.35"/>
<polygon fill="black" stroke="black" points="634.7,-736.33 631.89,-726.12 627.72,-735.86 634.7,-736.33"/>
</g>
<!-- devast.io -->
<g id="node87" class="node">
<title>devast.io</title>
<path fill="#90caf9" stroke="#90caf9" d="M1319.5,-555.5C1319.5,-555.5 1248.5,-555.5 1248.5,-555.5 1242.5,-555.5 1236.5,-549.5 1236.5,-543.5 1236.5,-543.5 1236.5,-529.5 1236.5,-529.5 1236.5,-523.5 1242.5,-517.5 1248.5,-517.5 1248.5,-517.5 1319.5,-517.5 1319.5,-517.5 1325.5,-517.5 1331.5,-523.5 1331.5,-529.5 1331.5,-529.5 1331.5,-543.5 1331.5,-543.5 1331.5,-549.5 1325.5,-555.5 1319.5,-555.5"/>
<text text-anchor="middle" x="1284" y="-540.3" font-family="Times-Roman" font-size="14.00">devast.io</text>
<text text-anchor="middle" x="1284" y="-525.3" font-family="Times-Roman" font-size="14.00">LapaMauve</text>
</g>
<!-- starve.io&#45;&gt;devast.io -->
<g id="edge43" class="edge">
<title>starve.io&#45;&gt;devast.io</title>
<path fill="none" stroke="black" d="M1223.68,-1001.9C1238.79,-993.11 1254.8,-981.13 1265,-966 1288.34,-931.38 1284,-915.75 1284,-874 1284,-874 1284,-874 1284,-698.5 1284,-652.04 1284,-598.04 1284,-565.88"/>
<polygon fill="black" stroke="black" points="1287.5,-565.85 1284,-555.85 1280.5,-565.85 1287.5,-565.85"/>
</g>
<!-- stabby.io -->
<g id="node61" class="node">
<title>stabby.io</title>
<path fill="#90caf9" stroke="#90caf9" d="M2662,-966C2662,-966 2602,-966 2602,-966 2596,-966 2590,-960 2590,-954 2590,-954 2590,-940 2590,-940 2590,-934 2596,-928 2602,-928 2602,-928 2662,-928 2662,-928 2668,-928 2674,-934 2674,-940 2674,-940 2674,-954 2674,-954 2674,-960 2668,-966 2662,-966"/>
<text text-anchor="middle" x="2632" y="-950.8" font-family="Times-Roman" font-size="14.00">stabby.io</text>
<text text-anchor="middle" x="2632" y="-935.8" font-family="Times-Roman" font-size="14.00">SoulFoam</text>
</g>
<!-- zombsroyale.io -->
<g id="node98" class="node">
<title>zombsroyale.io</title>
<path fill="#90caf9" stroke="#90caf9" d="M551.5,-718.5C551.5,-718.5 454.5,-718.5 454.5,-718.5 448.5,-718.5 442.5,-712.5 442.5,-706.5 442.5,-706.5 442.5,-692.5 442.5,-692.5 442.5,-686.5 448.5,-680.5 454.5,-680.5 454.5,-680.5 551.5,-680.5 551.5,-680.5 557.5,-680.5 563.5,-686.5 563.5,-692.5 563.5,-692.5 563.5,-706.5 563.5,-706.5 563.5,-712.5 557.5,-718.5 551.5,-718.5"/>
<text text-anchor="middle" x="503" y="-703.3" font-family="Times-Roman" font-size="14.00">zombsroyale.io</text>
<text text-anchor="middle" x="503" y="-688.3" font-family="Times-Roman" font-size="14.00">Yang Lui</text>
</g>
<!-- zombs.io&#45;&gt;zombsroyale.io -->
<g id="edge46" class="edge">
<title>zombs.io&#45;&gt;zombsroyale.io</title>
<path fill="none" stroke="black" d="M525.24,-927.95C521.09,-885.56 510.72,-779.43 505.74,-728.55"/>
<polygon fill="black" stroke="black" points="509.22,-728.19 504.77,-718.58 502.26,-728.87 509.22,-728.19"/>
</g>
<!-- superspin.io -->
<g id="node64" class="node">
<title>superspin.io</title>
<path fill="#90caf9" stroke="#90caf9" d="M1114,-966C1114,-966 1036,-966 1036,-966 1030,-966 1024,-960 1024,-954 1024,-954 1024,-940 1024,-940 1024,-934 1030,-928 1036,-928 1036,-928 1114,-928 1114,-928 1120,-928 1126,-934 1126,-940 1126,-940 1126,-954 1126,-954 1126,-960 1120,-966 1114,-966"/>
<text text-anchor="middle" x="1075" y="-950.8" font-family="Times-Roman" font-size="14.00">superspin.io</text>
<text text-anchor="middle" x="1075" y="-935.8" font-family="Times-Roman" font-size="14.00">Jetti Games</text>
</g>
<!-- spinz.io&#45;&gt;superspin.io -->
<g id="edge52" class="edge">
<title>spinz.io&#45;&gt;superspin.io</title>
<path fill="none" stroke="black" d="M1006.27,-947C1008.76,-947 1011.25,-947 1013.74,-947"/>
<polygon fill="black" stroke="black" points="1013.99,-950.5 1023.99,-947 1013.99,-943.5 1013.99,-950.5"/>
</g>
<!-- fisp.io -->
<g id="node65" class="node">
<title>fisp.io</title>
<path fill="#90caf9" stroke="#90caf9" d="M1243.5,-966C1243.5,-966 1156.5,-966 1156.5,-966 1150.5,-966 1144.5,-960 1144.5,-954 1144.5,-954 1144.5,-940 1144.5,-940 1144.5,-934 1150.5,-928 1156.5,-928 1156.5,-928 1243.5,-928 1243.5,-928 1249.5,-928 1255.5,-934 1255.5,-940 1255.5,-940 1255.5,-954 1255.5,-954 1255.5,-960 1249.5,-966 1243.5,-966"/>
<text text-anchor="middle" x="1200" y="-950.8" font-family="Times-Roman" font-size="14.00">fisp.io</text>
<text text-anchor="middle" x="1200" y="-935.8" font-family="Times-Roman" font-size="14.00">Clown Games</text>
</g>
<!-- spinz.io&#45;&gt;fisp.io -->
<g id="edge51" class="edge">
<title>spinz.io&#45;&gt;fisp.io</title>
<path fill="none" stroke="black" d="M990.97,-966.16C1000.47,-973.22 1012.11,-980.37 1024,-984 1067.36,-997.23 1081.88,-994.42 1126,-984 1137.9,-981.19 1150.08,-976.16 1161.02,-970.69"/>
<polygon fill="black" stroke="black" points="1162.67,-973.78 1169.89,-966.03 1159.41,-967.58 1162.67,-973.78"/>
</g>
<!-- goons.io -->
<g id="node68" class="node">
<title>goons.io</title>
<path fill="#90caf9" stroke="#90caf9" d="M2495.5,-892C2495.5,-892 2408.5,-892 2408.5,-892 2402.5,-892 2396.5,-886 2396.5,-880 2396.5,-880 2396.5,-866 2396.5,-866 2396.5,-860 2402.5,-854 2408.5,-854 2408.5,-854 2495.5,-854 2495.5,-854 2501.5,-854 2507.5,-860 2507.5,-866 2507.5,-866 2507.5,-880 2507.5,-880 2507.5,-886 2501.5,-892 2495.5,-892"/>
<text text-anchor="middle" x="2452" y="-876.8" font-family="Times-Roman" font-size="14.00">goons.io</text>
<text text-anchor="middle" x="2452" y="-861.8" font-family="Times-Roman" font-size="14.00">Clown Games</text>
</g>
<!-- pikes.io&#45;&gt;goons.io -->
<g id="edge72" class="edge">
<title>pikes.io&#45;&gt;goons.io</title>
<path fill="none" stroke="black" d="M2452,-927.83C2452,-920.13 2452,-910.97 2452,-902.42"/>
<polygon fill="black" stroke="black" points="2455.5,-902.41 2452,-892.41 2448.5,-902.41 2455.5,-902.41"/>
</g>
<!-- knuckol.club -->
<g id="node79" class="node">
<title>knuckol.club</title>
<path fill="#90caf9" stroke="#90caf9" d="M2492,-718.5C2492,-718.5 2412,-718.5 2412,-718.5 2406,-718.5 2400,-712.5 2400,-706.5 2400,-706.5 2400,-692.5 2400,-692.5 2400,-686.5 2406,-680.5 2412,-680.5 2412,-680.5 2492,-680.5 2492,-680.5 2498,-680.5 2504,-686.5 2504,-692.5 2504,-692.5 2504,-706.5 2504,-706.5 2504,-712.5 2498,-718.5 2492,-718.5"/>
<text text-anchor="middle" x="2452" y="-703.3" font-family="Times-Roman" font-size="14.00">knuckol.club</text>
<text text-anchor="middle" x="2452" y="-688.3" font-family="Times-Roman" font-size="14.00">Erigato</text>
</g>
<!-- goons.io&#45;&gt;knuckol.club -->
<g id="edge73" class="edge">
<title>goons.io&#45;&gt;knuckol.club</title>
<path fill="none" stroke="black" d="M2452,-853.97C2452,-824.12 2452,-764.21 2452,-728.72"/>
<polygon fill="black" stroke="black" points="2455.5,-728.55 2452,-718.55 2448.5,-728.55 2455.5,-728.55"/>
</g>
<!-- shootem.io -->
<g id="node78" class="node">
<title>shootem.io</title>
<path fill="#90caf9" stroke="#90caf9" d="M1130,-718.5C1130,-718.5 1010,-718.5 1010,-718.5 1004,-718.5 998,-712.5 998,-706.5 998,-706.5 998,-692.5 998,-692.5 998,-686.5 1004,-680.5 1010,-680.5 1010,-680.5 1130,-680.5 1130,-680.5 1136,-680.5 1142,-686.5 1142,-692.5 1142,-692.5 1142,-706.5 1142,-706.5 1142,-712.5 1136,-718.5 1130,-718.5"/>
<text text-anchor="middle" x="1070" y="-703.3" font-family="Times-Roman" font-size="14.00">shootem.io</text>
<text text-anchor="middle" x="1070" y="-688.3" font-family="Times-Roman" font-size="14.00">Mathew Matakovic</text>
</g>
<!-- nightpoint.io&#45;&gt;shootem.io -->
<g id="edge34" class="edge">
<title>nightpoint.io&#45;&gt;shootem.io</title>
<path fill="none" stroke="black" d="M955.31,-853.7C963.88,-843.33 974.68,-830.06 984,-818 1007.81,-787.18 1034.11,-750.89 1051.28,-726.89"/>
<polygon fill="black" stroke="black" points="1054.21,-728.8 1057.17,-718.63 1048.52,-724.74 1054.21,-728.8"/>
</g>
<!-- bruh.io -->
<g id="node97" class="node">
<title>bruh.io</title>
<path fill="#90caf9" stroke="#90caf9" d="M930,-718.5C930,-718.5 844,-718.5 844,-718.5 838,-718.5 832,-712.5 832,-706.5 832,-706.5 832,-692.5 832,-692.5 832,-686.5 838,-680.5 844,-680.5 844,-680.5 930,-680.5 930,-680.5 936,-680.5 942,-686.5 942,-692.5 942,-692.5 942,-706.5 942,-706.5 942,-712.5 936,-718.5 930,-718.5"/>
<text text-anchor="middle" x="887" y="-703.3" font-family="Times-Roman" font-size="14.00">bruh.io</text>
<text text-anchor="middle" x="887" y="-688.3" font-family="Times-Roman" font-size="14.00">Bitfox Games</text>
</g>
<!-- nightpoint.io&#45;&gt;bruh.io -->
<g id="edge33" class="edge">
<title>nightpoint.io&#45;&gt;bruh.io</title>
<path fill="none" stroke="black" d="M934.43,-853.97C925.16,-823.99 906.53,-763.69 895.58,-728.26"/>
<polygon fill="black" stroke="black" points="898.87,-727.07 892.58,-718.55 892.19,-729.13 898.87,-727.07"/>
</g>
<!-- battlepoint.io -->
<g id="node100" class="node">
<title>battlepoint.io</title>
<path fill="#90caf9" stroke="#90caf9" d="M929,-637C929,-637 845,-637 845,-637 839,-637 833,-631 833,-625 833,-625 833,-611 833,-611 833,-605 839,-599 845,-599 845,-599 929,-599 929,-599 935,-599 941,-605 941,-611 941,-611 941,-625 941,-625 941,-631 935,-637 929,-637"/>
<text text-anchor="middle" x="887" y="-621.8" font-family="Times-Roman" font-size="14.00">battlepoint.io</text>
<text text-anchor="middle" x="887" y="-606.8" font-family="Times-Roman" font-size="14.00">Sarunas</text>
</g>
<!-- nightpoint.io&#45;&gt;battlepoint.io -->
<g id="edge32" class="edge">
<title>nightpoint.io&#45;&gt;battlepoint.io</title>
<path fill="none" stroke="black" d="M946.42,-853.91C958.17,-817.62 979.43,-734.19 951,-673 945.59,-661.35 936.28,-651.31 926.42,-643.15"/>
<polygon fill="black" stroke="black" points="928.52,-640.35 918.46,-637.02 924.25,-645.89 928.52,-640.35"/>
</g>
<!-- doomed2.io -->
<g id="node81" class="node">
<title>doomed2.io</title>
<path fill="#90caf9" stroke="#90caf9" d="M412,-718.5C412,-718.5 338,-718.5 338,-718.5 332,-718.5 326,-712.5 326,-706.5 326,-706.5 326,-692.5 326,-692.5 326,-686.5 332,-680.5 338,-680.5 338,-680.5 412,-680.5 412,-680.5 418,-680.5 424,-686.5 424,-692.5 424,-692.5 424,-706.5 424,-706.5 424,-712.5 418,-718.5 412,-718.5"/>
<text text-anchor="middle" x="375" y="-703.3" font-family="Times-Roman" font-size="14.00">doomed2.io</text>
<text text-anchor="middle" x="375" y="-688.3" font-family="Times-Roman" font-size="14.00">Ginoda</text>
</g>
<!-- doomed.io&#45;&gt;doomed2.io -->
<g id="edge41" class="edge">
<title>doomed.io&#45;&gt;doomed2.io</title>
<path fill="none" stroke="black" d="M400.52,-772.29C396.06,-759.72 390.03,-742.78 384.96,-728.5"/>
<polygon fill="black" stroke="black" points="388.11,-726.94 381.47,-718.69 381.52,-729.28 388.11,-726.94"/>
</g>
<!-- shellshock.io -->
<g id="node74" class="node">
<title>shellshock.io</title>
<path fill="#90caf9" stroke="#90caf9" d="M2690,-809.5C2690,-809.5 2608,-809.5 2608,-809.5 2602,-809.5 2596,-803.5 2596,-797.5 2596,-797.5 2596,-785.5 2596,-785.5 2596,-779.5 2602,-773.5 2608,-773.5 2608,-773.5 2690,-773.5 2690,-773.5 2696,-773.5 2702,-779.5 2702,-785.5 2702,-785.5 2702,-797.5 2702,-797.5 2702,-803.5 2696,-809.5 2690,-809.5"/>
<text text-anchor="middle" x="2649" y="-787.8" font-family="Times-Roman" font-size="14.00">shellshock.io</text>
</g>
<!-- krunker.io -->
<g id="node85" class="node">
<title>krunker.io</title>
<path fill="#90caf9" stroke="#90caf9" d="M2708,-637C2708,-637 2602,-637 2602,-637 2596,-637 2590,-631 2590,-625 2590,-625 2590,-611 2590,-611 2590,-605 2596,-599 2602,-599 2602,-599 2708,-599 2708,-599 2714,-599 2720,-605 2720,-611 2720,-611 2720,-625 2720,-625 2720,-631 2714,-637 2708,-637"/>
<text text-anchor="middle" x="2655" y="-621.8" font-family="Times-Roman" font-size="14.00">krunker.io</text>
<text text-anchor="middle" x="2655" y="-606.8" font-family="Times-Roman" font-size="14.00">Sydney de Vries</text>
</g>
<!-- shellshock.io&#45;&gt;krunker.io -->
<g id="edge64" class="edge">
<title>shellshock.io&#45;&gt;krunker.io</title>
<path fill="none" stroke="black" d="M2649.6,-773.43C2650.63,-743.94 2652.75,-683.2 2654.01,-647.31"/>
<polygon fill="black" stroke="black" points="2657.52,-647.15 2654.37,-637.03 2650.52,-646.9 2657.52,-647.15"/>
</g>
<!-- warscrap.io -->
<g id="node75" class="node">
<title>warscrap.io</title>
<path fill="#90caf9" stroke="#90caf9" d="M2805.5,-810.5C2805.5,-810.5 2732.5,-810.5 2732.5,-810.5 2726.5,-810.5 2720.5,-804.5 2720.5,-798.5 2720.5,-798.5 2720.5,-784.5 2720.5,-784.5 2720.5,-778.5 2726.5,-772.5 2732.5,-772.5 2732.5,-772.5 2805.5,-772.5 2805.5,-772.5 2811.5,-772.5 2817.5,-778.5 2817.5,-784.5 2817.5,-784.5 2817.5,-798.5 2817.5,-798.5 2817.5,-804.5 2811.5,-810.5 2805.5,-810.5"/>
<text text-anchor="middle" x="2769" y="-795.3" font-family="Times-Roman" font-size="14.00">warscrap.io</text>
<text text-anchor="middle" x="2769" y="-780.3" font-family="Times-Roman" font-size="14.00">Evil Noob</text>
</g>
<!-- warscrap.io&#45;&gt;krunker.io -->
<g id="edge63" class="edge">
<title>warscrap.io&#45;&gt;krunker.io</title>
<path fill="none" stroke="black" d="M2757.02,-772.47C2736.83,-742.11 2695.97,-680.64 2672.55,-645.4"/>
<polygon fill="black" stroke="black" points="2675.45,-643.44 2667,-637.05 2669.62,-647.31 2675.45,-643.44"/>
</g>
<!-- airma.sh -->
<g id="node76" class="node">
<title>airma.sh</title>
<path fill="#90caf9" stroke="#90caf9" d="M784.5,-809.5C784.5,-809.5 731.5,-809.5 731.5,-809.5 725.5,-809.5 719.5,-803.5 719.5,-797.5 719.5,-797.5 719.5,-785.5 719.5,-785.5 719.5,-779.5 725.5,-773.5 731.5,-773.5 731.5,-773.5 784.5,-773.5 784.5,-773.5 790.5,-773.5 796.5,-779.5 796.5,-785.5 796.5,-785.5 796.5,-797.5 796.5,-797.5 796.5,-803.5 790.5,-809.5 784.5,-809.5"/>
<text text-anchor="middle" x="758" y="-787.8" font-family="Times-Roman" font-size="14.00">airma.sh</text>
</g>
<!-- skyroyale.io -->
<g id="node99" class="node">
<title>skyroyale.io</title>
<path fill="#90caf9" stroke="#90caf9" d="M801.5,-718.5C801.5,-718.5 714.5,-718.5 714.5,-718.5 708.5,-718.5 702.5,-712.5 702.5,-706.5 702.5,-706.5 702.5,-692.5 702.5,-692.5 702.5,-686.5 708.5,-680.5 714.5,-680.5 714.5,-680.5 801.5,-680.5 801.5,-680.5 807.5,-680.5 813.5,-686.5 813.5,-692.5 813.5,-692.5 813.5,-706.5 813.5,-706.5 813.5,-712.5 807.5,-718.5 801.5,-718.5"/>
<text text-anchor="middle" x="758" y="-703.3" font-family="Times-Roman" font-size="14.00">skyroyale.io</text>
<text text-anchor="middle" x="758" y="-688.3" font-family="Times-Roman" font-size="14.00">Clown Games</text>
</g>
<!-- airma.sh&#45;&gt;skyroyale.io -->
<g id="edge74" class="edge">
<title>airma.sh&#45;&gt;skyroyale.io</title>
<path fill="none" stroke="black" d="M758,-773.15C758,-760.57 758,-743.29 758,-728.73"/>
<polygon fill="black" stroke="black" points="761.5,-728.73 758,-718.73 754.5,-728.73 761.5,-728.73"/>
</g>
<!-- pockey.io -->
<g id="node77" class="node">
<title>pockey.io</title>
<path fill="#90caf9" stroke="#90caf9" d="M2954.5,-818C2954.5,-818 2847.5,-818 2847.5,-818 2841.5,-818 2835.5,-812 2835.5,-806 2835.5,-806 2835.5,-777 2835.5,-777 2835.5,-771 2841.5,-765 2847.5,-765 2847.5,-765 2954.5,-765 2954.5,-765 2960.5,-765 2966.5,-771 2966.5,-777 2966.5,-777 2966.5,-806 2966.5,-806 2966.5,-812 2960.5,-818 2954.5,-818"/>
<text text-anchor="middle" x="2901" y="-802.8" font-family="Times-Roman" font-size="14.00">pockey.io</text>
<text text-anchor="middle" x="2901" y="-787.8" font-family="Times-Roman" font-size="14.00">Starcade</text>
<text text-anchor="middle" x="2901" y="-772.8" font-family="Times-Roman" font-size="14.00">(KidComet &amp; al.)</text>
</g>
<!-- nend.io -->
<g id="node80" class="node">
<title>nend.io</title>
<path fill="#90caf9" stroke="#90caf9" d="M2880.5,-718.5C2880.5,-718.5 2809.5,-718.5 2809.5,-718.5 2803.5,-718.5 2797.5,-712.5 2797.5,-706.5 2797.5,-706.5 2797.5,-692.5 2797.5,-692.5 2797.5,-686.5 2803.5,-680.5 2809.5,-680.5 2809.5,-680.5 2880.5,-680.5 2880.5,-680.5 2886.5,-680.5 2892.5,-686.5 2892.5,-692.5 2892.5,-692.5 2892.5,-706.5 2892.5,-706.5 2892.5,-712.5 2886.5,-718.5 2880.5,-718.5"/>
<text text-anchor="middle" x="2845" y="-703.3" font-family="Times-Roman" font-size="14.00">nend.io</text>
<text text-anchor="middle" x="2845" y="-688.3" font-family="Times-Roman" font-size="14.00">LapaMauve</text>
</g>
<!-- flyordie.io -->
<g id="node83" class="node">
<title>flyordie.io</title>
<path fill="#90caf9" stroke="#90caf9" d="M2822,-637C2822,-637 2750,-637 2750,-637 2744,-637 2738,-631 2738,-625 2738,-625 2738,-611 2738,-611 2738,-605 2744,-599 2750,-599 2750,-599 2822,-599 2822,-599 2828,-599 2834,-605 2834,-611 2834,-611 2834,-625 2834,-625 2834,-631 2828,-637 2822,-637"/>
<text text-anchor="middle" x="2786" y="-621.8" font-family="Times-Roman" font-size="14.00">flyordie.io</text>
<text text-anchor="middle" x="2786" y="-606.8" font-family="Times-Roman" font-size="14.00">Pixel Voices</text>
</g>
<!-- llam.io -->
<g id="node88" class="node">
<title>llam.io</title>
<path fill="#90caf9" stroke="#90caf9" d="M2822,-474C2822,-474 2750,-474 2750,-474 2744,-474 2738,-468 2738,-462 2738,-462 2738,-448 2738,-448 2738,-442 2744,-436 2750,-436 2750,-436 2822,-436 2822,-436 2828,-436 2834,-442 2834,-448 2834,-448 2834,-462 2834,-462 2834,-468 2828,-474 2822,-474"/>
<text text-anchor="middle" x="2786" y="-458.8" font-family="Times-Roman" font-size="14.00">llam.io</text>
<text text-anchor="middle" x="2786" y="-443.8" font-family="Times-Roman" font-size="14.00">Pixel Voices</text>
</g>
<!-- flyordie.io&#45;&gt;llam.io -->
<g id="edge59" class="edge">
<title>flyordie.io&#45;&gt;llam.io</title>
<path fill="none" stroke="black" d="M2786,-598.84C2786,-571.06 2786,-517.76 2786,-484.7"/>
<polygon fill="black" stroke="black" points="2789.5,-484.34 2786,-474.34 2782.5,-484.34 2789.5,-484.34"/>
</g>
<!-- venge.io -->
<g id="node93" class="node">
<title>venge.io</title>
<path fill="#90caf9" stroke="#90caf9" d="M2690.5,-38C2690.5,-38 2619.5,-38 2619.5,-38 2613.5,-38 2607.5,-32 2607.5,-26 2607.5,-26 2607.5,-12 2607.5,-12 2607.5,-6 2613.5,0 2619.5,0 2619.5,0 2690.5,0 2690.5,0 2696.5,0 2702.5,-6 2702.5,-12 2702.5,-12 2702.5,-26 2702.5,-26 2702.5,-32 2696.5,-38 2690.5,-38"/>
<text text-anchor="middle" x="2655" y="-22.8" font-family="Times-Roman" font-size="14.00">venge.io</text>
<text text-anchor="middle" x="2655" y="-7.8" font-family="Times-Roman" font-size="14.00">Cem Demir</text>
</g>
<!-- krunker.io&#45;&gt;venge.io -->
<g id="edge65" class="edge">
<title>krunker.io&#45;&gt;venge.io</title>
<path fill="none" stroke="black" d="M2655,-598.65C2655,-568.76 2655,-507.71 2655,-456 2655,-456 2655,-456 2655,-165 2655,-124.6 2655,-77.86 2655,-48.62"/>
<polygon fill="black" stroke="black" points="2658.5,-48.31 2655,-38.31 2651.5,-48.31 2658.5,-48.31"/>
</g>
<!-- acolytefight.io -->
<g id="node89" class="node">
<title>acolytefight.io</title>
<path fill="#90caf9" stroke="#90caf9" d="M2977.5,-474C2977.5,-474 2864.5,-474 2864.5,-474 2858.5,-474 2852.5,-468 2852.5,-462 2852.5,-462 2852.5,-448 2852.5,-448 2852.5,-442 2858.5,-436 2864.5,-436 2864.5,-436 2977.5,-436 2977.5,-436 2983.5,-436 2989.5,-442 2989.5,-448 2989.5,-448 2989.5,-462 2989.5,-462 2989.5,-468 2983.5,-474 2977.5,-474"/>
<text text-anchor="middle" x="2921" y="-458.8" font-family="Times-Roman" font-size="14.00">acolytefight.io</text>
<text text-anchor="middle" x="2921" y="-443.8" font-family="Times-Roman" font-size="14.00">raysplaceinspace</text>
</g>
<!-- tetr.io -->
<g id="node92" class="node">
<title>tetr.io</title>
<path fill="#90caf9" stroke="#90caf9" d="M2727,-112C2727,-112 2695,-112 2695,-112 2689,-112 2683,-106 2683,-100 2683,-100 2683,-86 2683,-86 2683,-80 2689,-74 2695,-74 2695,-74 2727,-74 2727,-74 2733,-74 2739,-80 2739,-86 2739,-86 2739,-100 2739,-100 2739,-106 2733,-112 2727,-112"/>
<text text-anchor="middle" x="2711" y="-96.8" font-family="Times-Roman" font-size="14.00">tetr.io</text>
<text text-anchor="middle" x="2711" y="-81.8" font-family="Times-Roman" font-size="14.00">osk</text>
</g>
<!-- generals.io -->
<g id="node95" class="node">
<title>generals.io</title>
<path fill="#90caf9" stroke="#90caf9" d="M2764.5,-1121.5C2764.5,-1121.5 2691.5,-1121.5 2691.5,-1121.5 2685.5,-1121.5 2679.5,-1115.5 2679.5,-1109.5 2679.5,-1109.5 2679.5,-1095.5 2679.5,-1095.5 2679.5,-1089.5 2685.5,-1083.5 2691.5,-1083.5 2691.5,-1083.5 2764.5,-1083.5 2764.5,-1083.5 2770.5,-1083.5 2776.5,-1089.5 2776.5,-1095.5 2776.5,-1095.5 2776.5,-1109.5 2776.5,-1109.5 2776.5,-1115.5 2770.5,-1121.5 2764.5,-1121.5"/>
<text text-anchor="middle" x="2728" y="-1106.3" font-family="Times-Roman" font-size="14.00">generals.io</text>
<text text-anchor="middle" x="2728" y="-1091.3" font-family="Times-Roman" font-size="14.00">Victor Zhou</text>
</g>
<!-- bruh.io&#45;&gt;battlepoint.io -->
<g id="edge35" class="edge">
<title>bruh.io&#45;&gt;battlepoint.io</title>
<path fill="none" stroke="black" d="M887,-680.46C887,-670.67 887,-658.35 887,-647.31"/>
<polygon fill="black" stroke="black" points="890.5,-647.24 887,-637.24 883.5,-647.24 890.5,-647.24"/>
</g>
<!-- buildroyale.io -->
<g id="node101" class="node">
<title>buildroyale.io</title>
<path fill="#90caf9" stroke="#90caf9" d="M574,-637C574,-637 454,-637 454,-637 448,-637 442,-631 442,-625 442,-625 442,-611 442,-611 442,-605 448,-599 454,-599 454,-599 574,-599 574,-599 580,-599 586,-605 586,-611 586,-611 586,-625 586,-625 586,-631 580,-637 574,-637"/>
<text text-anchor="middle" x="514" y="-621.8" font-family="Times-Roman" font-size="14.00">buildroyale.io</text>
<text text-anchor="middle" x="514" y="-606.8" font-family="Times-Roman" font-size="14.00">Mathew Matakovic</text>
</g>
<!-- zombsroyale.io&#45;&gt;buildroyale.io -->
<g id="edge47" class="edge">
<title>zombsroyale.io&#45;&gt;buildroyale.io</title>
<path fill="none" stroke="black" d="M505.5,-680.46C506.85,-670.67 508.56,-658.35 510.08,-647.31"/>
<polygon fill="black" stroke="black" points="513.57,-647.63 511.48,-637.24 506.64,-646.67 513.57,-647.63"/>
</g>
</g>
</svg>
