<?xml version="1.0" encoding="UTF-8" standalone="no"?>
<!DOCTYPE svg PUBLIC "-//W3C//DTD SVG 1.1//EN"
 "http://www.w3.org/Graphics/SVG/1.1/DTD/svg11.dtd">
<!-- Generated by graphviz version 2.40.1 (20161225.0304)
 -->
<!-- Title: iogames Pages: 1 -->
<svg width="2355pt" height="1302pt"
 viewBox="0.00 0.00 2354.50 1302.00" xmlns="http://www.w3.org/2000/svg" xmlns:xlink="http://www.w3.org/1999/xlink">
<g id="graph0" class="graph" transform="scale(1 1) rotate(0) translate(4 1298)">
<title>iogames</title>
<polygon fill="#ffffff" stroke="transparent" points="-4,4 -4,-1298 2350.5,-1298 2350.5,4 -4,4"/>
<text text-anchor="start" x="1091.75" y="-1279.8" font-family="Times,serif" font-weight="bold" text-decoration="underline" font-size="14.00" fill="#000000">History of .io games</text>
<text text-anchor="start" x="1105.75" y="-1251.8" font-family="Times,serif" font-size="14.00" fill="#000000">by </text>
<text text-anchor="start" x="1127.75" y="-1251.8" font-family="Times,serif" font-weight="bold" font-size="14.00" fill="#000000">Julien Mourer</text>
<text text-anchor="start" x="1064.25" y="-1237.8" font-family="Times,serif" font-size="14.00" fill="#000000">Licensed under the CC BY 4.0</text>
<text text-anchor="start" x="1022.75" y="-1223.8" font-family="Times,serif" font-size="14.00" fill="#000000">https://github.com/getkey/io&#45;game&#45;history</text>
<!-- 2014q4 -->
<g id="node1" class="node">
<title>2014q4</title>
<text text-anchor="middle" x="52" y="-1192" font-family="Times,serif" font-size="20.00" fill="#000000">Q4 2014</text>
</g>
<!-- 2015q1 -->
<g id="node2" class="node">
<title>2015q1</title>
<text text-anchor="middle" x="52" y="-1119" font-family="Times,serif" font-size="20.00" fill="#000000">Q1 2015</text>
</g>
<!-- 2014q4&#45;&gt;2015q1 -->
<!-- 2015q2 -->
<g id="node3" class="node">
<title>2015q2</title>
<text text-anchor="middle" x="52" y="-1046" font-family="Times,serif" font-size="20.00" fill="#000000">Q2 2015</text>
</g>
<!-- 2015q1&#45;&gt;2015q2 -->
<!-- 2015q3 -->
<g id="node4" class="node">
<title>2015q3</title>
<text text-anchor="middle" x="52" y="-973" font-family="Times,serif" font-size="20.00" fill="#000000">Q3 2015</text>
</g>
<!-- 2015q2&#45;&gt;2015q3 -->
<!-- 2015q4 -->
<g id="node5" class="node">
<title>2015q4</title>
<text text-anchor="middle" x="52" y="-901" font-family="Times,serif" font-size="20.00" fill="#000000">Q4 2015</text>
</g>
<!-- 2015q3&#45;&gt;2015q4 -->
<!-- 2016q1 -->
<g id="node6" class="node">
<title>2016q1</title>
<text text-anchor="middle" x="52" y="-828" font-family="Times,serif" font-size="20.00" fill="#000000">Q1 2016</text>
</g>
<!-- 2015q4&#45;&gt;2016q1 -->
<!-- 2016q2 -->
<g id="node7" class="node">
<title>2016q2</title>
<text text-anchor="middle" x="52" y="-754" font-family="Times,serif" font-size="20.00" fill="#000000">Q2 2016</text>
</g>
<!-- 2016q1&#45;&gt;2016q2 -->
<!-- 2016q3 -->
<g id="node8" class="node">
<title>2016q3</title>
<text text-anchor="middle" x="52" y="-680" font-family="Times,serif" font-size="20.00" fill="#000000">Q3 2016</text>
</g>
<!-- 2016q2&#45;&gt;2016q3 -->
<!-- 2016q4 -->
<g id="node9" class="node">
<title>2016q4</title>
<text text-anchor="middle" x="52" y="-606" font-family="Times,serif" font-size="20.00" fill="#000000">Q4 2016</text>
</g>
<!-- 2016q3&#45;&gt;2016q4 -->
<!-- 2017q1 -->
<g id="node10" class="node">
<title>2017q1</title>
<text text-anchor="middle" x="52" y="-532" font-family="Times,serif" font-size="20.00" fill="#000000">Q1 2017</text>
</g>
<!-- 2016q4&#45;&gt;2017q1 -->
<!-- 2017q2 -->
<g id="node11" class="node">
<title>2017q2</title>
<text text-anchor="middle" x="52" y="-458" font-family="Times,serif" font-size="20.00" fill="#000000">Q2 2017</text>
</g>
<!-- 2017q1&#45;&gt;2017q2 -->
<!-- 2017q3 -->
<g id="node12" class="node">
<title>2017q3</title>
<text text-anchor="middle" x="52" y="-384" font-family="Times,serif" font-size="20.00" fill="#000000">Q3 2017</text>
</g>
<!-- 2017q2&#45;&gt;2017q3 -->
<!-- 2017q4 -->
<g id="node13" class="node">
<title>2017q4</title>
<text text-anchor="middle" x="52" y="-310" font-family="Times,serif" font-size="20.00" fill="#000000">Q4 2017</text>
</g>
<!-- 2017q3&#45;&gt;2017q4 -->
<!-- 2018q1 -->
<g id="node14" class="node">
<title>2018q1</title>
<text text-anchor="middle" x="52" y="-236" font-family="Times,serif" font-size="20.00" fill="#000000">Q1 2018</text>
</g>
<!-- 2017q4&#45;&gt;2018q1 -->
<!-- 2018q2 -->
<g id="node15" class="node">
<title>2018q2</title>
<text text-anchor="middle" x="52" y="-162" font-family="Times,serif" font-size="20.00" fill="#000000">Q2 2018</text>
</g>
<!-- 2018q1&#45;&gt;2018q2 -->
<!-- 2018q3 -->
<g id="node16" class="node">
<title>2018q3</title>
<text text-anchor="middle" x="52" y="-88" font-family="Times,serif" font-size="20.00" fill="#000000">Q3 2018</text>
</g>
<!-- 2018q2&#45;&gt;2018q3 -->
<!-- 2018q4 -->
<g id="node17" class="node">
<title>2018q4</title>
<text text-anchor="middle" x="52" y="-14" font-family="Times,serif" font-size="20.00" fill="#000000">Q4 2018</text>
</g>
<!-- 2018q3&#45;&gt;2018q4 -->
<!-- cursors.io -->
<g id="node18" class="node">
<title>cursors.io</title>
<path fill="#90caf9" stroke="#90caf9" d="M263.5,-1216C263.5,-1216 134.5,-1216 134.5,-1216 128.5,-1216 122.5,-1210 122.5,-1204 122.5,-1204 122.5,-1190 122.5,-1190 122.5,-1184 128.5,-1178 134.5,-1178 134.5,-1178 263.5,-1178 263.5,-1178 269.5,-1178 275.5,-1184 275.5,-1190 275.5,-1190 275.5,-1204 275.5,-1204 275.5,-1210 269.5,-1216 263.5,-1216"/>
<text text-anchor="middle" x="199" y="-1200.8" font-family="Times,serif" font-size="14.00" fill="#000000">cursors.io</text>
<text text-anchor="middle" x="199" y="-1185.8" font-family="Times,serif" font-size="14.00" fill="#000000">Matheus Valadares</text>
</g>
<!-- agar.io -->
<g id="node19" class="node">
<title>agar.io</title>
<path fill="#90caf9" stroke="#90caf9" d="M702.5,-1070C702.5,-1070 573.5,-1070 573.5,-1070 567.5,-1070 561.5,-1064 561.5,-1058 561.5,-1058 561.5,-1044 561.5,-1044 561.5,-1038 567.5,-1032 573.5,-1032 573.5,-1032 702.5,-1032 702.5,-1032 708.5,-1032 714.5,-1038 714.5,-1044 714.5,-1044 714.5,-1058 714.5,-1058 714.5,-1064 708.5,-1070 702.5,-1070"/>
<text text-anchor="middle" x="638" y="-1054.8" font-family="Times,serif" font-size="14.00" fill="#000000">agar.io</text>
<text text-anchor="middle" x="638" y="-1039.8" font-family="Times,serif" font-size="14.00" fill="#000000">Matheus Valadares</text>
</g>
<!-- deeeep.io -->
<g id="node26" class="node">
<title>deeeep.io</title>
<path fill="#90caf9" stroke="#90caf9" d="M337.5,-629C337.5,-629 276.5,-629 276.5,-629 270.5,-629 264.5,-623 264.5,-617 264.5,-617 264.5,-605 264.5,-605 264.5,-599 270.5,-593 276.5,-593 276.5,-593 337.5,-593 337.5,-593 343.5,-593 349.5,-599 349.5,-605 349.5,-605 349.5,-617 349.5,-617 349.5,-623 343.5,-629 337.5,-629"/>
<text text-anchor="middle" x="307" y="-607.3" font-family="Times,serif" font-size="14.00" fill="#000000">deeeep.io</text>
</g>
<!-- agar.io&#45;&gt;deeeep.io -->
<g id="edge45" class="edge">
<title>agar.io&#45;&gt;deeeep.io</title>
<path fill="none" stroke="#000000" d="M577.6801,-1031.9686C523.6935,-1010.7251 453,-970.5784 453,-906 453,-906 453,-906 453,-759 453,-701.7169 396.884,-658.5761 354.2319,-634.0592"/>
<polygon fill="#000000" stroke="#000000" points="355.7983,-630.9253 345.3598,-629.1119 352.3891,-637.0391 355.7983,-630.9253"/>
</g>
<!-- pie.ai -->
<g id="node38" class="node">
<title>pie.ai</title>
<path fill="#90caf9" stroke="#90caf9" d="M645,-555C645,-555 613,-555 613,-555 607,-555 601,-549 601,-543 601,-543 601,-531 601,-531 601,-525 607,-519 613,-519 613,-519 645,-519 645,-519 651,-519 657,-525 657,-531 657,-531 657,-543 657,-543 657,-549 651,-555 645,-555"/>
<text text-anchor="middle" x="629" y="-533.3" font-family="Times,serif" font-size="14.00" fill="#000000">pie.ai</text>
</g>
<!-- agar.io&#45;&gt;pie.ai -->
<g id="edge41" class="edge">
<title>agar.io&#45;&gt;pie.ai</title>
<path fill="none" stroke="#000000" d="M638,-1031.767C638,-1003.9984 638,-951.0608 638,-906 638,-906 638,-906 638,-685 638,-643.274 634.3918,-595.0525 631.7446,-565.2898"/>
<polygon fill="#000000" stroke="#000000" points="635.2186,-564.8452 630.8213,-555.206 628.2478,-565.4835 635.2186,-564.8452"/>
</g>
<!-- spinz.io -->
<g id="node44" class="node">
<title>spinz.io</title>
<path fill="#90caf9" stroke="#90caf9" d="M690,-482C690,-482 634,-482 634,-482 628,-482 622,-476 622,-470 622,-470 622,-456 622,-456 622,-450 628,-444 634,-444 634,-444 690,-444 690,-444 696,-444 702,-450 702,-456 702,-456 702,-470 702,-470 702,-476 696,-482 690,-482"/>
<text text-anchor="middle" x="662" y="-466.8" font-family="Times,serif" font-size="14.00" fill="#000000">spinz.io</text>
<text text-anchor="middle" x="662" y="-451.8" font-family="Times,serif" font-size="14.00" fill="#000000">Yang Lui</text>
</g>
<!-- agar.io&#45;&gt;spinz.io -->
<g id="edge38" class="edge">
<title>agar.io&#45;&gt;spinz.io</title>
<path fill="none" stroke="#000000" d="M648.4308,-1031.9385C662.2774,-1004.8057 685,-953.1042 685,-906 685,-906 685,-906 685,-611 685,-569.3142 675.9805,-521.7988 669.2379,-492.1023"/>
<polygon fill="#000000" stroke="#000000" points="672.5633,-490.9516 666.8777,-482.0115 665.7472,-492.5459 672.5633,-490.9516"/>
</g>
<!-- slither.io -->
<g id="node20" class="node">
<title>slither.io</title>
<path fill="#90caf9" stroke="#90caf9" d="M989,-852C989,-852 903,-852 903,-852 897,-852 891,-846 891,-840 891,-840 891,-826 891,-826 891,-820 897,-814 903,-814 903,-814 989,-814 989,-814 995,-814 1001,-820 1001,-826 1001,-826 1001,-840 1001,-840 1001,-846 995,-852 989,-852"/>
<text text-anchor="middle" x="946" y="-836.8" font-family="Times,serif" font-size="14.00" fill="#000000">slither.io</text>
<text text-anchor="middle" x="946" y="-821.8" font-family="Times,serif" font-size="14.00" fill="#000000">Steve Howse</text>
</g>
<!-- limax.io -->
<g id="node23" class="node">
<title>limax.io</title>
<path fill="#90caf9" stroke="#90caf9" d="M878,-778C878,-778 802,-778 802,-778 796,-778 790,-772 790,-766 790,-766 790,-752 790,-752 790,-746 796,-740 802,-740 802,-740 878,-740 878,-740 884,-740 890,-746 890,-752 890,-752 890,-766 890,-766 890,-772 884,-778 878,-778"/>
<text text-anchor="middle" x="840" y="-762.8" font-family="Times,serif" font-size="14.00" fill="#000000">limax.io</text>
<text text-anchor="middle" x="840" y="-747.8" font-family="Times,serif" font-size="14.00" fill="#000000">LapaMauve</text>
</g>
<!-- slither.io&#45;&gt;limax.io -->
<g id="edge19" class="edge">
<title>slither.io&#45;&gt;limax.io</title>
<path fill="none" stroke="#000000" d="M918.7024,-813.9432C905.6979,-804.8646 889.9694,-793.8843 876.0023,-784.1337"/>
<polygon fill="#000000" stroke="#000000" points="877.7766,-781.1039 867.5735,-778.2495 873.7696,-786.8436 877.7766,-781.1039"/>
</g>
<!-- wormax.io -->
<g id="node25" class="node">
<title>wormax.io</title>
<path fill="#90caf9" stroke="#90caf9" d="M933.5,-704C933.5,-704 866.5,-704 866.5,-704 860.5,-704 854.5,-698 854.5,-692 854.5,-692 854.5,-678 854.5,-678 854.5,-672 860.5,-666 866.5,-666 866.5,-666 933.5,-666 933.5,-666 939.5,-666 945.5,-672 945.5,-678 945.5,-678 945.5,-692 945.5,-692 945.5,-698 939.5,-704 933.5,-704"/>
<text text-anchor="middle" x="900" y="-688.8" font-family="Times,serif" font-size="14.00" fill="#000000">wormax.io</text>
<text text-anchor="middle" x="900" y="-673.8" font-family="Times,serif" font-size="14.00" fill="#000000">Elyland</text>
</g>
<!-- slither.io&#45;&gt;wormax.io -->
<g id="edge17" class="edge">
<title>slither.io&#45;&gt;wormax.io</title>
<path fill="none" stroke="#000000" d="M940.0805,-813.9546C932.2229,-788.6735 918.272,-743.7883 909.0785,-714.2092"/>
<polygon fill="#000000" stroke="#000000" points="912.3533,-712.9528 906.0429,-704.4423 905.6687,-715.0305 912.3533,-712.9528"/>
</g>
<!-- wormate.io -->
<g id="node29" class="node">
<title>wormate.io</title>
<path fill="#90caf9" stroke="#90caf9" d="M1036.5,-630C1036.5,-630 911.5,-630 911.5,-630 905.5,-630 899.5,-624 899.5,-618 899.5,-618 899.5,-604 899.5,-604 899.5,-598 905.5,-592 911.5,-592 911.5,-592 1036.5,-592 1036.5,-592 1042.5,-592 1048.5,-598 1048.5,-604 1048.5,-604 1048.5,-618 1048.5,-618 1048.5,-624 1042.5,-630 1036.5,-630"/>
<text text-anchor="middle" x="974" y="-614.8" font-family="Times,serif" font-size="14.00" fill="#000000">wormate.io</text>
<text text-anchor="middle" x="974" y="-599.8" font-family="Times,serif" font-size="14.00" fill="#000000">Oleksandr Godoba</text>
</g>
<!-- slither.io&#45;&gt;wormate.io -->
<g id="edge18" class="edge">
<title>slither.io&#45;&gt;wormate.io</title>
<path fill="none" stroke="#000000" d="M948.4358,-813.6873C953.3609,-774.6382 964.5269,-686.1078 970.3354,-640.0551"/>
<polygon fill="#000000" stroke="#000000" points="973.8108,-640.4694 971.5897,-630.11 966.8658,-639.5934 973.8108,-640.4694"/>
</g>
<!-- powerline.io -->
<g id="node53" class="node">
<title>powerline.io</title>
<path fill="#90caf9" stroke="#90caf9" d="M1125.5,-334C1125.5,-334 1026.5,-334 1026.5,-334 1020.5,-334 1014.5,-328 1014.5,-322 1014.5,-322 1014.5,-308 1014.5,-308 1014.5,-302 1020.5,-296 1026.5,-296 1026.5,-296 1125.5,-296 1125.5,-296 1131.5,-296 1137.5,-302 1137.5,-308 1137.5,-308 1137.5,-322 1137.5,-322 1137.5,-328 1131.5,-334 1125.5,-334"/>
<text text-anchor="middle" x="1076" y="-318.8" font-family="Times,serif" font-size="14.00" fill="#000000">powerline.io</text>
<text text-anchor="middle" x="1076" y="-303.8" font-family="Times,serif" font-size="14.00" fill="#000000">Andre Almeida</text>
</g>
<!-- slither.io&#45;&gt;powerline.io -->
<g id="edge20" class="edge">
<title>slither.io&#45;&gt;powerline.io</title>
<path fill="none" stroke="#000000" d="M980.156,-813.7983C1018.6727,-789.3268 1076,-743.1386 1076,-685 1076,-685 1076,-685 1076,-463 1076,-421.8086 1076,-374.1685 1076,-344.3096"/>
<polygon fill="#000000" stroke="#000000" points="1079.5001,-344.1583 1076,-334.1583 1072.5001,-344.1583 1079.5001,-344.1583"/>
</g>
<!-- diep.io -->
<g id="node21" class="node">
<title>diep.io</title>
<path fill="#90caf9" stroke="#90caf9" d="M1230.5,-852C1230.5,-852 1101.5,-852 1101.5,-852 1095.5,-852 1089.5,-846 1089.5,-840 1089.5,-840 1089.5,-826 1089.5,-826 1089.5,-820 1095.5,-814 1101.5,-814 1101.5,-814 1230.5,-814 1230.5,-814 1236.5,-814 1242.5,-820 1242.5,-826 1242.5,-826 1242.5,-840 1242.5,-840 1242.5,-846 1236.5,-852 1230.5,-852"/>
<text text-anchor="middle" x="1166" y="-836.8" font-family="Times,serif" font-size="14.00" fill="#000000">diep.io</text>
<text text-anchor="middle" x="1166" y="-821.8" font-family="Times,serif" font-size="14.00" fill="#000000">Matheus Valadares</text>
</g>
<!-- tanksmith.io -->
<g id="node65" class="node">
<title>tanksmith.io</title>
<path fill="#90caf9" stroke="#90caf9" d="M1207.5,-186C1207.5,-186 1124.5,-186 1124.5,-186 1118.5,-186 1112.5,-180 1112.5,-174 1112.5,-174 1112.5,-160 1112.5,-160 1112.5,-154 1118.5,-148 1124.5,-148 1124.5,-148 1207.5,-148 1207.5,-148 1213.5,-148 1219.5,-154 1219.5,-160 1219.5,-160 1219.5,-174 1219.5,-174 1219.5,-180 1213.5,-186 1207.5,-186"/>
<text text-anchor="middle" x="1166" y="-170.8" font-family="Times,serif" font-size="14.00" fill="#000000">tanksmith.io</text>
<text text-anchor="middle" x="1166" y="-155.8" font-family="Times,serif" font-size="14.00" fill="#000000">IO Ninja</text>
</g>
<!-- diep.io&#45;&gt;tanksmith.io -->
<g id="edge46" class="edge">
<title>diep.io&#45;&gt;tanksmith.io</title>
<path fill="none" stroke="#000000" d="M1166,-813.8417C1166,-785.6299 1166,-731.25 1166,-685 1166,-685 1166,-685 1166,-315 1166,-273.8086 1166,-226.1685 1166,-196.3096"/>
<polygon fill="#000000" stroke="#000000" points="1169.5001,-196.1583 1166,-186.1583 1162.5001,-196.1583 1169.5001,-196.1583"/>
</g>
<!-- wings.io -->
<g id="node22" class="node">
<title>wings.io</title>
<path fill="#90caf9" stroke="#90caf9" d="M1371.5,-852C1371.5,-852 1272.5,-852 1272.5,-852 1266.5,-852 1260.5,-846 1260.5,-840 1260.5,-840 1260.5,-826 1260.5,-826 1260.5,-820 1266.5,-814 1272.5,-814 1272.5,-814 1371.5,-814 1371.5,-814 1377.5,-814 1383.5,-820 1383.5,-826 1383.5,-826 1383.5,-840 1383.5,-840 1383.5,-846 1377.5,-852 1371.5,-852"/>
<text text-anchor="middle" x="1322" y="-836.8" font-family="Times,serif" font-size="14.00" fill="#000000">wings.io</text>
<text text-anchor="middle" x="1322" y="-821.8" font-family="Times,serif" font-size="14.00" fill="#000000">Andre Almeida</text>
</g>
<!-- wilds.io -->
<g id="node24" class="node">
<title>wilds.io</title>
<path fill="#90caf9" stroke="#90caf9" d="M1274.5,-778C1274.5,-778 1223.5,-778 1223.5,-778 1217.5,-778 1211.5,-772 1211.5,-766 1211.5,-766 1211.5,-752 1211.5,-752 1211.5,-746 1217.5,-740 1223.5,-740 1223.5,-740 1274.5,-740 1274.5,-740 1280.5,-740 1286.5,-746 1286.5,-752 1286.5,-752 1286.5,-766 1286.5,-766 1286.5,-772 1280.5,-778 1274.5,-778"/>
<text text-anchor="middle" x="1249" y="-762.8" font-family="Times,serif" font-size="14.00" fill="#000000">wilds.io</text>
<text text-anchor="middle" x="1249" y="-747.8" font-family="Times,serif" font-size="14.00" fill="#000000">Rezoner</text>
</g>
<!-- wanderers.io -->
<g id="node56" class="node">
<title>wanderers.io</title>
<path fill="#90caf9" stroke="#90caf9" d="M1292,-334C1292,-334 1206,-334 1206,-334 1200,-334 1194,-328 1194,-322 1194,-322 1194,-308 1194,-308 1194,-302 1200,-296 1206,-296 1206,-296 1292,-296 1292,-296 1298,-296 1304,-302 1304,-308 1304,-308 1304,-322 1304,-322 1304,-328 1298,-334 1292,-334"/>
<text text-anchor="middle" x="1249" y="-318.8" font-family="Times,serif" font-size="14.00" fill="#000000">wanderers.io</text>
<text text-anchor="middle" x="1249" y="-303.8" font-family="Times,serif" font-size="14.00" fill="#000000">Rezoner</text>
</g>
<!-- wilds.io&#45;&gt;wanderers.io -->
<g id="edge37" class="edge">
<title>wilds.io&#45;&gt;wanderers.io</title>
<path fill="none" stroke="#000000" d="M1249,-739.8417C1249,-711.6299 1249,-657.25 1249,-611 1249,-611 1249,-611 1249,-463 1249,-421.8086 1249,-374.1685 1249,-344.3096"/>
<polygon fill="#000000" stroke="#000000" points="1252.5001,-344.1583 1249,-334.1583 1245.5001,-344.1583 1252.5001,-344.1583"/>
</g>
<!-- oceanar.io -->
<g id="node27" class="node">
<title>oceanar.io</title>
<path fill="#90caf9" stroke="#90caf9" d="M597.5,-630C597.5,-630 532.5,-630 532.5,-630 526.5,-630 520.5,-624 520.5,-618 520.5,-618 520.5,-604 520.5,-604 520.5,-598 526.5,-592 532.5,-592 532.5,-592 597.5,-592 597.5,-592 603.5,-592 609.5,-598 609.5,-604 609.5,-604 609.5,-618 609.5,-618 609.5,-624 603.5,-630 597.5,-630"/>
<text text-anchor="middle" x="565" y="-614.8" font-family="Times,serif" font-size="14.00" fill="#000000">oceanar.io</text>
<text text-anchor="middle" x="565" y="-599.8" font-family="Times,serif" font-size="14.00" fill="#000000">S3Games</text>
</g>
<!-- deeeep.io&#45;&gt;oceanar.io -->
<g id="edge21" class="edge">
<title>deeeep.io&#45;&gt;oceanar.io</title>
<path fill="none" stroke="#000000" d="M329.5131,-629.0102C340.2115,-636.4407 353.5778,-644.1942 367,-648 424.7244,-664.3674 444.1026,-663.7444 502,-648 512.0061,-645.279 522.046,-640.5227 531.0778,-635.3085"/>
<polygon fill="#000000" stroke="#000000" points="533.0395,-638.2113 539.7349,-630.0001 529.3804,-632.2438 533.0395,-638.2113"/>
</g>
<!-- mope.io -->
<g id="node28" class="node">
<title>mope.io</title>
<path fill="#90caf9" stroke="#90caf9" d="M490.5,-630C490.5,-630 379.5,-630 379.5,-630 373.5,-630 367.5,-624 367.5,-618 367.5,-618 367.5,-604 367.5,-604 367.5,-598 373.5,-592 379.5,-592 379.5,-592 490.5,-592 490.5,-592 496.5,-592 502.5,-598 502.5,-604 502.5,-604 502.5,-618 502.5,-618 502.5,-624 496.5,-630 490.5,-630"/>
<text text-anchor="middle" x="435" y="-614.8" font-family="Times,serif" font-size="14.00" fill="#000000">mope.io</text>
<text text-anchor="middle" x="435" y="-599.8" font-family="Times,serif" font-size="14.00" fill="#000000">Stan Tatarnykov</text>
</g>
<!-- deeeep.io&#45;&gt;mope.io -->
<g id="edge22" class="edge">
<title>deeeep.io&#45;&gt;mope.io</title>
<path fill="none" stroke="#000000" d="M349.5,-611C351.9892,-611 354.4785,-611 356.9677,-611"/>
<polygon fill="#000000" stroke="#000000" points="357.2012,-614.5001 367.2012,-611 357.2011,-607.5001 357.2012,-614.5001"/>
</g>
<!-- moomoo.io -->
<g id="node39" class="node">
<title>moomoo.io</title>
<path fill="#90caf9" stroke="#90caf9" d="M525.5,-556C525.5,-556 416.5,-556 416.5,-556 410.5,-556 404.5,-550 404.5,-544 404.5,-544 404.5,-530 404.5,-530 404.5,-524 410.5,-518 416.5,-518 416.5,-518 525.5,-518 525.5,-518 531.5,-518 537.5,-524 537.5,-530 537.5,-530 537.5,-544 537.5,-544 537.5,-550 531.5,-556 525.5,-556"/>
<text text-anchor="middle" x="471" y="-540.8" font-family="Times,serif" font-size="14.00" fill="#000000">moomoo.io</text>
<text text-anchor="middle" x="471" y="-525.8" font-family="Times,serif" font-size="14.00" fill="#000000">Sydney de Vries</text>
</g>
<!-- mope.io&#45;&gt;moomoo.io -->
<g id="edge23" class="edge">
<title>mope.io&#45;&gt;moomoo.io</title>
<path fill="none" stroke="#000000" d="M444.2709,-591.9432C448.1875,-583.8923 452.8317,-574.346 457.141,-565.4879"/>
<polygon fill="#000000" stroke="#000000" points="460.408,-566.773 461.6354,-556.2495 454.1134,-563.7107 460.408,-566.773"/>
</g>
<!-- paper.io -->
<g id="node30" class="node">
<title>paper.io</title>
<path fill="#90caf9" stroke="#90caf9" d="M1425,-704C1425,-704 1375,-704 1375,-704 1369,-704 1363,-698 1363,-692 1363,-692 1363,-678 1363,-678 1363,-672 1369,-666 1375,-666 1375,-666 1425,-666 1425,-666 1431,-666 1437,-672 1437,-678 1437,-678 1437,-692 1437,-692 1437,-698 1431,-704 1425,-704"/>
<text text-anchor="middle" x="1400" y="-688.8" font-family="Times,serif" font-size="14.00" fill="#000000">paper.io</text>
<text text-anchor="middle" x="1400" y="-673.8" font-family="Times,serif" font-size="14.00" fill="#000000">Voodoo</text>
</g>
<!-- hexar.io -->
<g id="node37" class="node">
<title>hexar.io</title>
<path fill="#90caf9" stroke="#90caf9" d="M1424.5,-555C1424.5,-555 1375.5,-555 1375.5,-555 1369.5,-555 1363.5,-549 1363.5,-543 1363.5,-543 1363.5,-531 1363.5,-531 1363.5,-525 1369.5,-519 1375.5,-519 1375.5,-519 1424.5,-519 1424.5,-519 1430.5,-519 1436.5,-525 1436.5,-531 1436.5,-531 1436.5,-543 1436.5,-543 1436.5,-549 1430.5,-555 1424.5,-555"/>
<text text-anchor="middle" x="1400" y="-533.3" font-family="Times,serif" font-size="14.00" fill="#000000">hexar.io</text>
</g>
<!-- paper.io&#45;&gt;hexar.io -->
<g id="edge43" class="edge">
<title>paper.io&#45;&gt;hexar.io</title>
<path fill="none" stroke="#000000" d="M1400,-665.9546C1400,-640.3667 1400,-594.696 1400,-565.1392"/>
<polygon fill="#000000" stroke="#000000" points="1403.5001,-565.0459 1400,-555.0459 1396.5001,-565.046 1403.5001,-565.0459"/>
</g>
<!-- narwhale.io -->
<g id="node31" class="node">
<title>narwhale.io</title>
<path fill="#90caf9" stroke="#90caf9" d="M1575,-704C1575,-704 1477,-704 1477,-704 1471,-704 1465,-698 1465,-692 1465,-692 1465,-678 1465,-678 1465,-672 1471,-666 1477,-666 1477,-666 1575,-666 1575,-666 1581,-666 1587,-672 1587,-678 1587,-678 1587,-692 1587,-692 1587,-698 1581,-704 1575,-704"/>
<text text-anchor="middle" x="1526" y="-688.8" font-family="Times,serif" font-size="14.00" fill="#000000">narwhale.io</text>
<text text-anchor="middle" x="1526" y="-673.8" font-family="Times,serif" font-size="14.00" fill="#000000">Hsi&#45;Hung Shih</text>
</g>
<!-- pikes.io -->
<g id="node47" class="node">
<title>pikes.io</title>
<path fill="#90caf9" stroke="#90caf9" d="M1571.5,-482C1571.5,-482 1480.5,-482 1480.5,-482 1474.5,-482 1468.5,-476 1468.5,-470 1468.5,-470 1468.5,-456 1468.5,-456 1468.5,-450 1474.5,-444 1480.5,-444 1480.5,-444 1571.5,-444 1571.5,-444 1577.5,-444 1583.5,-450 1583.5,-456 1583.5,-456 1583.5,-470 1583.5,-470 1583.5,-476 1577.5,-482 1571.5,-482"/>
<text text-anchor="middle" x="1526" y="-466.8" font-family="Times,serif" font-size="14.00" fill="#000000">pikes.io</text>
<text text-anchor="middle" x="1526" y="-451.8" font-family="Times,serif" font-size="14.00" fill="#000000">Clown Games</text>
</g>
<!-- narwhale.io&#45;&gt;pikes.io -->
<g id="edge51" class="edge">
<title>narwhale.io&#45;&gt;pikes.io</title>
<path fill="none" stroke="#000000" d="M1526,-665.6873C1526,-626.7205 1526,-538.4803 1526,-492.3465"/>
<polygon fill="#000000" stroke="#000000" points="1529.5001,-492.1099 1526,-482.11 1522.5001,-492.11 1529.5001,-492.1099"/>
</g>
<!-- splix.io -->
<g id="node32" class="node">
<title>splix.io</title>
<path fill="#90caf9" stroke="#90caf9" d="M1333,-704C1333,-704 1289,-704 1289,-704 1283,-704 1277,-698 1277,-692 1277,-692 1277,-678 1277,-678 1277,-672 1283,-666 1289,-666 1289,-666 1333,-666 1333,-666 1339,-666 1345,-672 1345,-678 1345,-678 1345,-692 1345,-692 1345,-698 1339,-704 1333,-704"/>
<text text-anchor="middle" x="1311" y="-688.8" font-family="Times,serif" font-size="14.00" fill="#000000">splix.io</text>
<text text-anchor="middle" x="1311" y="-673.8" font-family="Times,serif" font-size="14.00" fill="#000000">Jesper</text>
</g>
<!-- splix.io&#45;&gt;paper.io -->
<g id="edge42" class="edge">
<title>splix.io&#45;&gt;paper.io</title>
<path fill="none" stroke="#000000" d="M1345.0703,-685C1347.5446,-685 1350.0188,-685 1352.4931,-685"/>
<polygon fill="#000000" stroke="#000000" points="1352.665,-688.5001 1362.665,-685 1352.6649,-681.5001 1352.665,-688.5001"/>
</g>
<!-- drawthis.io -->
<g id="node33" class="node">
<title>drawthis.io</title>
<path fill="#90caf9" stroke="#90caf9" d="M1696.5,-703C1696.5,-703 1623.5,-703 1623.5,-703 1617.5,-703 1611.5,-697 1611.5,-691 1611.5,-691 1611.5,-679 1611.5,-679 1611.5,-673 1617.5,-667 1623.5,-667 1623.5,-667 1696.5,-667 1696.5,-667 1702.5,-667 1708.5,-673 1708.5,-679 1708.5,-679 1708.5,-691 1708.5,-691 1708.5,-697 1702.5,-703 1696.5,-703"/>
<text text-anchor="middle" x="1660" y="-681.3" font-family="Times,serif" font-size="14.00" fill="#000000">drawthis.io</text>
</g>
<!-- skribbl.io -->
<g id="node41" class="node">
<title>skribbl.io</title>
<path fill="#90caf9" stroke="#90caf9" d="M1626,-555C1626,-555 1566,-555 1566,-555 1560,-555 1554,-549 1554,-543 1554,-543 1554,-531 1554,-531 1554,-525 1560,-519 1566,-519 1566,-519 1626,-519 1626,-519 1632,-519 1638,-525 1638,-531 1638,-531 1638,-543 1638,-543 1638,-549 1632,-555 1626,-555"/>
<text text-anchor="middle" x="1596" y="-533.3" font-family="Times,serif" font-size="14.00" fill="#000000">skribbl.io</text>
</g>
<!-- drawthis.io&#45;&gt;skribbl.io -->
<g id="edge49" class="edge">
<title>drawthis.io&#45;&gt;skribbl.io</title>
<path fill="none" stroke="#000000" d="M1652.1523,-666.8523C1641.1165,-641.332 1620.9182,-594.6234 1607.9927,-564.7332"/>
<polygon fill="#000000" stroke="#000000" points="1611.0935,-563.0855 1603.9118,-555.2961 1604.6685,-565.8639 1611.0935,-563.0855"/>
</g>
<!-- drawthis2.io -->
<g id="node66" class="node">
<title>drawthis2.io</title>
<path fill="#90caf9" stroke="#90caf9" d="M1707,-186C1707,-186 1625,-186 1625,-186 1619,-186 1613,-180 1613,-174 1613,-174 1613,-160 1613,-160 1613,-154 1619,-148 1625,-148 1625,-148 1707,-148 1707,-148 1713,-148 1719,-154 1719,-160 1719,-160 1719,-174 1719,-174 1719,-180 1713,-186 1707,-186"/>
<text text-anchor="middle" x="1666" y="-170.8" font-family="Times,serif" font-size="14.00" fill="#000000">drawthis2.io</text>
<text text-anchor="middle" x="1666" y="-155.8" font-family="Times,serif" font-size="14.00" fill="#000000">lagged.com</text>
</g>
<!-- drawthis.io&#45;&gt;drawthis2.io -->
<g id="edge50" class="edge">
<title>drawthis.io&#45;&gt;drawthis2.io</title>
<path fill="none" stroke="#000000" d="M1661.2142,-666.782C1662.9674,-638.8615 1666,-583.8023 1666,-537 1666,-537 1666,-537 1666,-315 1666,-273.8086 1666,-226.1685 1666,-196.3096"/>
<polygon fill="#000000" stroke="#000000" points="1669.5001,-196.1583 1666,-186.1583 1662.5001,-196.1583 1669.5001,-196.1583"/>
</g>
<!-- bonk.io -->
<g id="node34" class="node">
<title>bonk.io</title>
<path fill="#90caf9" stroke="#90caf9" d="M1783.5,-704C1783.5,-704 1738.5,-704 1738.5,-704 1732.5,-704 1726.5,-698 1726.5,-692 1726.5,-692 1726.5,-678 1726.5,-678 1726.5,-672 1732.5,-666 1738.5,-666 1738.5,-666 1783.5,-666 1783.5,-666 1789.5,-666 1795.5,-672 1795.5,-678 1795.5,-678 1795.5,-692 1795.5,-692 1795.5,-698 1789.5,-704 1783.5,-704"/>
<text text-anchor="middle" x="1761" y="-688.8" font-family="Times,serif" font-size="14.00" fill="#000000">bonk.io</text>
<text text-anchor="middle" x="1761" y="-673.8" font-family="Times,serif" font-size="14.00" fill="#000000">Chaz</text>
</g>
<!-- krew.io -->
<g id="node35" class="node">
<title>krew.io</title>
<path fill="#90caf9" stroke="#90caf9" d="M1750,-630C1750,-630 1706,-630 1706,-630 1700,-630 1694,-624 1694,-618 1694,-618 1694,-604 1694,-604 1694,-598 1700,-592 1706,-592 1706,-592 1750,-592 1750,-592 1756,-592 1762,-598 1762,-604 1762,-604 1762,-618 1762,-618 1762,-624 1756,-630 1750,-630"/>
<text text-anchor="middle" x="1728" y="-614.8" font-family="Times,serif" font-size="14.00" fill="#000000">krew.io</text>
<text text-anchor="middle" x="1728" y="-599.8" font-family="Times,serif" font-size="14.00" fill="#000000">M0dE</text>
</g>
<!-- brutal.io -->
<g id="node36" class="node">
<title>brutal.io</title>
<path fill="#90caf9" stroke="#90caf9" d="M1805.5,-556C1805.5,-556 1706.5,-556 1706.5,-556 1700.5,-556 1694.5,-550 1694.5,-544 1694.5,-544 1694.5,-530 1694.5,-530 1694.5,-524 1700.5,-518 1706.5,-518 1706.5,-518 1805.5,-518 1805.5,-518 1811.5,-518 1817.5,-524 1817.5,-530 1817.5,-530 1817.5,-544 1817.5,-544 1817.5,-550 1811.5,-556 1805.5,-556"/>
<text text-anchor="middle" x="1756" y="-540.8" font-family="Times,serif" font-size="14.00" fill="#000000">brutal.io</text>
<text text-anchor="middle" x="1756" y="-525.8" font-family="Times,serif" font-size="14.00" fill="#000000">Andre Almeida</text>
</g>
<!-- superhex.io -->
<g id="node48" class="node">
<title>superhex.io</title>
<path fill="#90caf9" stroke="#90caf9" d="M1438,-481C1438,-481 1362,-481 1362,-481 1356,-481 1350,-475 1350,-469 1350,-469 1350,-457 1350,-457 1350,-451 1356,-445 1362,-445 1362,-445 1438,-445 1438,-445 1444,-445 1450,-451 1450,-457 1450,-457 1450,-469 1450,-469 1450,-475 1444,-481 1438,-481"/>
<text text-anchor="middle" x="1400" y="-459.3" font-family="Times,serif" font-size="14.00" fill="#000000">superhex.io</text>
</g>
<!-- hexar.io&#45;&gt;superhex.io -->
<g id="edge44" class="edge">
<title>hexar.io&#45;&gt;superhex.io</title>
<path fill="none" stroke="#000000" d="M1400,-518.7079C1400,-510.4635 1400,-500.5376 1400,-491.3622"/>
<polygon fill="#000000" stroke="#000000" points="1403.5001,-491.0817 1400,-481.0817 1396.5001,-491.0818 1403.5001,-491.0817"/>
</g>
<!-- starve.io -->
<g id="node40" class="node">
<title>starve.io</title>
<path fill="#90caf9" stroke="#90caf9" d="M901,-556C901,-556 825,-556 825,-556 819,-556 813,-550 813,-544 813,-544 813,-530 813,-530 813,-524 819,-518 825,-518 825,-518 901,-518 901,-518 907,-518 913,-524 913,-530 913,-530 913,-544 913,-544 913,-550 907,-556 901,-556"/>
<text text-anchor="middle" x="863" y="-540.8" font-family="Times,serif" font-size="14.00" fill="#000000">starve.io</text>
<text text-anchor="middle" x="863" y="-525.8" font-family="Times,serif" font-size="14.00" fill="#000000">LapaMauve</text>
</g>
<!-- moomoo.io&#45;&gt;starve.io -->
<g id="edge27" class="edge">
<title>moomoo.io&#45;&gt;starve.io</title>
<path fill="none" stroke="#000000" d="M525.3082,-556.0923C548.3398,-563.2328 575.6677,-570.4652 601,-574 670.242,-583.6618 749.7536,-568.759 802.8522,-555.084"/>
<polygon fill="#000000" stroke="#000000" points="804.005,-558.3996 812.7798,-552.4621 802.2175,-551.6317 804.005,-558.3996"/>
</g>
<!-- zombs.io -->
<g id="node43" class="node">
<title>zombs.io</title>
<path fill="#90caf9" stroke="#90caf9" d="M591,-482C591,-482 535,-482 535,-482 529,-482 523,-476 523,-470 523,-470 523,-456 523,-456 523,-450 529,-444 535,-444 535,-444 591,-444 591,-444 597,-444 603,-450 603,-456 603,-456 603,-470 603,-470 603,-476 597,-482 591,-482"/>
<text text-anchor="middle" x="563" y="-466.8" font-family="Times,serif" font-size="14.00" fill="#000000">zombs.io</text>
<text text-anchor="middle" x="563" y="-451.8" font-family="Times,serif" font-size="14.00" fill="#000000">Yang Lui</text>
</g>
<!-- moomoo.io&#45;&gt;zombs.io -->
<g id="edge30" class="edge">
<title>moomoo.io&#45;&gt;zombs.io</title>
<path fill="none" stroke="#000000" d="M494.6923,-517.9432C505.7662,-509.0359 519.116,-498.298 531.0649,-488.6869"/>
<polygon fill="#000000" stroke="#000000" points="533.4698,-491.2443 539.0682,-482.2495 529.0824,-485.7898 533.4698,-491.2443"/>
</g>
<!-- foes.io -->
<g id="node50" class="node">
<title>foes.io</title>
<path fill="#90caf9" stroke="#90caf9" d="M243.5,-408C243.5,-408 134.5,-408 134.5,-408 128.5,-408 122.5,-402 122.5,-396 122.5,-396 122.5,-382 122.5,-382 122.5,-376 128.5,-370 134.5,-370 134.5,-370 243.5,-370 243.5,-370 249.5,-370 255.5,-376 255.5,-382 255.5,-382 255.5,-396 255.5,-396 255.5,-402 249.5,-408 243.5,-408"/>
<text text-anchor="middle" x="189" y="-392.8" font-family="Times,serif" font-size="14.00" fill="#000000">foes.io</text>
<text text-anchor="middle" x="189" y="-377.8" font-family="Times,serif" font-size="14.00" fill="#000000">Sydney de Vries</text>
</g>
<!-- moomoo.io&#45;&gt;foes.io -->
<g id="edge24" class="edge">
<title>moomoo.io&#45;&gt;foes.io</title>
<path fill="none" stroke="#000000" d="M434.7107,-517.9546C383.5595,-491.1092 290.2884,-442.1584 234.5439,-412.9025"/>
<polygon fill="#000000" stroke="#000000" points="236.0778,-409.7548 225.5966,-408.2067 232.8248,-415.953 236.0778,-409.7548"/>
</g>
<!-- surviv.io -->
<g id="node51" class="node">
<title>surviv.io</title>
<path fill="#90caf9" stroke="#90caf9" d="M454,-408C454,-408 286,-408 286,-408 280,-408 274,-402 274,-396 274,-396 274,-382 274,-382 274,-376 280,-370 286,-370 286,-370 454,-370 454,-370 460,-370 466,-376 466,-382 466,-382 466,-396 466,-396 466,-402 460,-408 454,-408"/>
<text text-anchor="middle" x="370" y="-392.8" font-family="Times,serif" font-size="14.00" fill="#000000">surviv.io</text>
<text text-anchor="middle" x="370" y="-377.8" font-family="Times,serif" font-size="14.00" fill="#000000">Justin Kim &amp; Nick Clark</text>
</g>
<!-- moomoo.io&#45;&gt;surviv.io -->
<g id="edge29" class="edge">
<title>moomoo.io&#45;&gt;surviv.io</title>
<path fill="none" stroke="#000000" d="M458.0028,-517.9546C440.5242,-492.3423 409.3142,-446.6089 389.1454,-417.0547"/>
<polygon fill="#000000" stroke="#000000" points="391.7959,-414.7293 383.268,-408.4423 386.0139,-418.6751 391.7959,-414.7293"/>
</g>
<!-- doomed.io -->
<g id="node54" class="node">
<title>doomed.io</title>
<path fill="#90caf9" stroke="#90caf9" d="M519,-334C519,-334 453,-334 453,-334 447,-334 441,-328 441,-322 441,-322 441,-308 441,-308 441,-302 447,-296 453,-296 453,-296 519,-296 519,-296 525,-296 531,-302 531,-308 531,-308 531,-322 531,-322 531,-328 525,-334 519,-334"/>
<text text-anchor="middle" x="486" y="-318.8" font-family="Times,serif" font-size="14.00" fill="#000000">doomed.io</text>
<text text-anchor="middle" x="486" y="-303.8" font-family="Times,serif" font-size="14.00" fill="#000000">Ginoda</text>
</g>
<!-- moomoo.io&#45;&gt;doomed.io -->
<g id="edge25" class="edge">
<title>moomoo.io&#45;&gt;doomed.io</title>
<path fill="none" stroke="#000000" d="M472.3049,-517.6873C474.9378,-478.7205 480.9,-390.4803 484.0171,-344.3465"/>
<polygon fill="#000000" stroke="#000000" points="487.5266,-344.3232 484.7088,-334.11 480.5425,-343.8512 487.5266,-344.3232"/>
</g>
<!-- devast.io -->
<g id="node68" class="node">
<title>devast.io</title>
<path fill="#90caf9" stroke="#90caf9" d="M1024,-112C1024,-112 948,-112 948,-112 942,-112 936,-106 936,-100 936,-100 936,-86 936,-86 936,-80 942,-74 948,-74 948,-74 1024,-74 1024,-74 1030,-74 1036,-80 1036,-86 1036,-86 1036,-100 1036,-100 1036,-106 1030,-112 1024,-112"/>
<text text-anchor="middle" x="986" y="-96.8" font-family="Times,serif" font-size="14.00" fill="#000000">devast.io</text>
<text text-anchor="middle" x="986" y="-81.8" font-family="Times,serif" font-size="14.00" fill="#000000">LapaMauve</text>
</g>
<!-- starve.io&#45;&gt;devast.io -->
<g id="edge28" class="edge">
<title>starve.io&#45;&gt;devast.io</title>
<path fill="none" stroke="#000000" d="M913.021,-521.1656C932.6254,-512.5496 953.591,-499.8999 967,-482 992.2931,-448.2359 986,-431.1871 986,-389 986,-389 986,-389 986,-241 986,-199.8086 986,-152.1685 986,-122.3096"/>
<polygon fill="#000000" stroke="#000000" points="989.5001,-122.1583 986,-112.1583 982.5001,-122.1583 989.5001,-122.1583"/>
</g>
<!-- stabby.io -->
<g id="node42" class="node">
<title>stabby.io</title>
<path fill="#90caf9" stroke="#90caf9" d="M1762,-482C1762,-482 1706,-482 1706,-482 1700,-482 1694,-476 1694,-470 1694,-470 1694,-456 1694,-456 1694,-450 1700,-444 1706,-444 1706,-444 1762,-444 1762,-444 1768,-444 1774,-450 1774,-456 1774,-456 1774,-470 1774,-470 1774,-476 1768,-482 1762,-482"/>
<text text-anchor="middle" x="1734" y="-466.8" font-family="Times,serif" font-size="14.00" fill="#000000">stabby.io</text>
<text text-anchor="middle" x="1734" y="-451.8" font-family="Times,serif" font-size="14.00" fill="#000000">Arcan</text>
</g>
<!-- zombsroyale.io -->
<g id="node61" class="node">
<title>zombsroyale.io</title>
<path fill="#90caf9" stroke="#90caf9" d="M659,-260C659,-260 559,-260 559,-260 553,-260 547,-254 547,-248 547,-248 547,-234 547,-234 547,-228 553,-222 559,-222 559,-222 659,-222 659,-222 665,-222 671,-228 671,-234 671,-234 671,-248 671,-248 671,-254 665,-260 659,-260"/>
<text text-anchor="middle" x="609" y="-244.8" font-family="Times,serif" font-size="14.00" fill="#000000">zombsroyale.io</text>
<text text-anchor="middle" x="609" y="-229.8" font-family="Times,serif" font-size="14.00" fill="#000000">Yang Lui</text>
</g>
<!-- zombs.io&#45;&gt;zombsroyale.io -->
<g id="edge31" class="edge">
<title>zombs.io&#45;&gt;zombsroyale.io</title>
<path fill="none" stroke="#000000" d="M567.0017,-443.6873C575.093,-404.6382 593.4371,-316.1078 602.9796,-270.0551"/>
<polygon fill="#000000" stroke="#000000" points="606.4384,-270.6121 605.0403,-260.11 599.584,-269.1918 606.4384,-270.6121"/>
</g>
<!-- superspin.io -->
<g id="node45" class="node">
<title>superspin.io</title>
<path fill="#90caf9" stroke="#90caf9" d="M946,-482C946,-482 866,-482 866,-482 860,-482 854,-476 854,-470 854,-470 854,-456 854,-456 854,-450 860,-444 866,-444 866,-444 946,-444 946,-444 952,-444 958,-450 958,-456 958,-456 958,-470 958,-470 958,-476 952,-482 946,-482"/>
<text text-anchor="middle" x="906" y="-466.8" font-family="Times,serif" font-size="14.00" fill="#000000">superspin.io</text>
<text text-anchor="middle" x="906" y="-451.8" font-family="Times,serif" font-size="14.00" fill="#000000">Jetti Games</text>
</g>
<!-- spinz.io&#45;&gt;superspin.io -->
<g id="edge40" class="edge">
<title>spinz.io&#45;&gt;superspin.io</title>
<path fill="none" stroke="#000000" d="M685.3253,-482.1775C695.3594,-489.2368 707.617,-496.3866 720,-500 769.0648,-514.3174 785.3563,-512.1593 835,-500 846.3817,-497.2123 857.9669,-492.248 868.3873,-486.8431"/>
<polygon fill="#000000" stroke="#000000" points="870.1121,-489.8891 877.2103,-482.0235 866.7564,-483.7459 870.1121,-489.8891"/>
</g>
<!-- fisp.io -->
<g id="node46" class="node">
<title>fisp.io</title>
<path fill="#90caf9" stroke="#90caf9" d="M823.5,-482C823.5,-482 732.5,-482 732.5,-482 726.5,-482 720.5,-476 720.5,-470 720.5,-470 720.5,-456 720.5,-456 720.5,-450 726.5,-444 732.5,-444 732.5,-444 823.5,-444 823.5,-444 829.5,-444 835.5,-450 835.5,-456 835.5,-456 835.5,-470 835.5,-470 835.5,-476 829.5,-482 823.5,-482"/>
<text text-anchor="middle" x="778" y="-466.8" font-family="Times,serif" font-size="14.00" fill="#000000">fisp.io</text>
<text text-anchor="middle" x="778" y="-451.8" font-family="Times,serif" font-size="14.00" fill="#000000">Clown Games</text>
</g>
<!-- spinz.io&#45;&gt;fisp.io -->
<g id="edge39" class="edge">
<title>spinz.io&#45;&gt;fisp.io</title>
<path fill="none" stroke="#000000" d="M702.3281,-463C704.9577,-463 707.5872,-463 710.2168,-463"/>
<polygon fill="#000000" stroke="#000000" points="710.3593,-466.5001 720.3593,-463 710.3593,-459.5001 710.3593,-466.5001"/>
</g>
<!-- goons.io -->
<g id="node49" class="node">
<title>goons.io</title>
<path fill="#90caf9" stroke="#90caf9" d="M1571.5,-408C1571.5,-408 1480.5,-408 1480.5,-408 1474.5,-408 1468.5,-402 1468.5,-396 1468.5,-396 1468.5,-382 1468.5,-382 1468.5,-376 1474.5,-370 1480.5,-370 1480.5,-370 1571.5,-370 1571.5,-370 1577.5,-370 1583.5,-376 1583.5,-382 1583.5,-382 1583.5,-396 1583.5,-396 1583.5,-402 1577.5,-408 1571.5,-408"/>
<text text-anchor="middle" x="1526" y="-392.8" font-family="Times,serif" font-size="14.00" fill="#000000">goons.io</text>
<text text-anchor="middle" x="1526" y="-377.8" font-family="Times,serif" font-size="14.00" fill="#000000">Clown Games</text>
</g>
<!-- pikes.io&#45;&gt;goons.io -->
<g id="edge52" class="edge">
<title>pikes.io&#45;&gt;goons.io</title>
<path fill="none" stroke="#000000" d="M1526,-443.9432C1526,-436.1493 1526,-426.9538 1526,-418.3381"/>
<polygon fill="#000000" stroke="#000000" points="1529.5001,-418.2494 1526,-408.2495 1522.5001,-418.2495 1529.5001,-418.2494"/>
</g>
<!-- knuckol.club -->
<g id="node62" class="node">
<title>knuckol.club</title>
<path fill="#90caf9" stroke="#90caf9" d="M1568.5,-260C1568.5,-260 1483.5,-260 1483.5,-260 1477.5,-260 1471.5,-254 1471.5,-248 1471.5,-248 1471.5,-234 1471.5,-234 1471.5,-228 1477.5,-222 1483.5,-222 1483.5,-222 1568.5,-222 1568.5,-222 1574.5,-222 1580.5,-228 1580.5,-234 1580.5,-234 1580.5,-248 1580.5,-248 1580.5,-254 1574.5,-260 1568.5,-260"/>
<text text-anchor="middle" x="1526" y="-244.8" font-family="Times,serif" font-size="14.00" fill="#000000">knuckol.club</text>
<text text-anchor="middle" x="1526" y="-229.8" font-family="Times,serif" font-size="14.00" fill="#000000">Erigato</text>
</g>
<!-- goons.io&#45;&gt;knuckol.club -->
<g id="edge53" class="edge">
<title>goons.io&#45;&gt;knuckol.club</title>
<path fill="none" stroke="#000000" d="M1526,-369.9546C1526,-344.7839 1526,-300.1799 1526,-270.5976"/>
<polygon fill="#000000" stroke="#000000" points="1529.5001,-270.4423 1526,-260.4423 1522.5001,-270.4423 1529.5001,-270.4423"/>
</g>
<!-- nightpoint.io -->
<g id="node52" class="node">
<title>nightpoint.io</title>
<path fill="#90caf9" stroke="#90caf9" d="M1894,-408C1894,-408 1810,-408 1810,-408 1804,-408 1798,-402 1798,-396 1798,-396 1798,-382 1798,-382 1798,-376 1804,-370 1810,-370 1810,-370 1894,-370 1894,-370 1900,-370 1906,-376 1906,-382 1906,-382 1906,-396 1906,-396 1906,-402 1900,-408 1894,-408"/>
<text text-anchor="middle" x="1852" y="-392.8" font-family="Times,serif" font-size="14.00" fill="#000000">nightpoint.io</text>
<text text-anchor="middle" x="1852" y="-377.8" font-family="Times,serif" font-size="14.00" fill="#000000">Sarunas</text>
</g>
<!-- bruh.io -->
<g id="node55" class="node">
<title>bruh.io</title>
<path fill="#90caf9" stroke="#90caf9" d="M1803.5,-334C1803.5,-334 1714.5,-334 1714.5,-334 1708.5,-334 1702.5,-328 1702.5,-322 1702.5,-322 1702.5,-308 1702.5,-308 1702.5,-302 1708.5,-296 1714.5,-296 1714.5,-296 1803.5,-296 1803.5,-296 1809.5,-296 1815.5,-302 1815.5,-308 1815.5,-308 1815.5,-322 1815.5,-322 1815.5,-328 1809.5,-334 1803.5,-334"/>
<text text-anchor="middle" x="1759" y="-318.8" font-family="Times,serif" font-size="14.00" fill="#000000">bruh.io</text>
<text text-anchor="middle" x="1759" y="-303.8" font-family="Times,serif" font-size="14.00" fill="#000000">Bitfox Games</text>
</g>
<!-- nightpoint.io&#45;&gt;bruh.io -->
<g id="edge34" class="edge">
<title>nightpoint.io&#45;&gt;bruh.io</title>
<path fill="none" stroke="#000000" d="M1828.0502,-369.9432C1816.8559,-361.0359 1803.361,-350.298 1791.2822,-340.6869"/>
<polygon fill="#000000" stroke="#000000" points="1793.1962,-337.7371 1783.1919,-334.2495 1788.8377,-343.2147 1793.1962,-337.7371"/>
</g>
<!-- shootem.io -->
<g id="node60" class="node">
<title>shootem.io</title>
<path fill="#90caf9" stroke="#90caf9" d="M1917,-260C1917,-260 1787,-260 1787,-260 1781,-260 1775,-254 1775,-248 1775,-248 1775,-234 1775,-234 1775,-228 1781,-222 1787,-222 1787,-222 1917,-222 1917,-222 1923,-222 1929,-228 1929,-234 1929,-234 1929,-248 1929,-248 1929,-254 1923,-260 1917,-260"/>
<text text-anchor="middle" x="1852" y="-244.8" font-family="Times,serif" font-size="14.00" fill="#000000">shootem.io</text>
<text text-anchor="middle" x="1852" y="-229.8" font-family="Times,serif" font-size="14.00" fill="#000000">Mathew Matakovic</text>
</g>
<!-- nightpoint.io&#45;&gt;shootem.io -->
<g id="edge35" class="edge">
<title>nightpoint.io&#45;&gt;shootem.io</title>
<path fill="none" stroke="#000000" d="M1852,-369.9546C1852,-344.7839 1852,-300.1799 1852,-270.5976"/>
<polygon fill="#000000" stroke="#000000" points="1855.5001,-270.4423 1852,-260.4423 1848.5001,-270.4423 1855.5001,-270.4423"/>
</g>
<!-- battlepoint.io -->
<g id="node69" class="node">
<title>battlepoint.io</title>
<path fill="#90caf9" stroke="#90caf9" d="M1896.5,-112C1896.5,-112 1807.5,-112 1807.5,-112 1801.5,-112 1795.5,-106 1795.5,-100 1795.5,-100 1795.5,-86 1795.5,-86 1795.5,-80 1801.5,-74 1807.5,-74 1807.5,-74 1896.5,-74 1896.5,-74 1902.5,-74 1908.5,-80 1908.5,-86 1908.5,-86 1908.5,-100 1908.5,-100 1908.5,-106 1902.5,-112 1896.5,-112"/>
<text text-anchor="middle" x="1852" y="-96.8" font-family="Times,serif" font-size="14.00" fill="#000000">battlepoint.io</text>
<text text-anchor="middle" x="1852" y="-81.8" font-family="Times,serif" font-size="14.00" fill="#000000">Sarunas</text>
</g>
<!-- nightpoint.io&#45;&gt;battlepoint.io -->
<g id="edge33" class="edge">
<title>nightpoint.io&#45;&gt;battlepoint.io</title>
<path fill="none" stroke="#000000" d="M1870.1062,-369.9339C1891.1668,-346.3108 1924.7401,-303.7946 1938,-260 1954.0106,-207.1207 1911.1649,-151.0912 1880.3518,-119.2403"/>
<polygon fill="#000000" stroke="#000000" points="1882.7434,-116.6816 1873.2096,-112.0602 1877.7806,-121.6183 1882.7434,-116.6816"/>
</g>
<!-- doomed2.io -->
<g id="node63" class="node">
<title>doomed2.io</title>
<path fill="#90caf9" stroke="#90caf9" d="M516.5,-260C516.5,-260 441.5,-260 441.5,-260 435.5,-260 429.5,-254 429.5,-248 429.5,-248 429.5,-234 429.5,-234 429.5,-228 435.5,-222 441.5,-222 441.5,-222 516.5,-222 516.5,-222 522.5,-222 528.5,-228 528.5,-234 528.5,-234 528.5,-248 528.5,-248 528.5,-254 522.5,-260 516.5,-260"/>
<text text-anchor="middle" x="479" y="-244.8" font-family="Times,serif" font-size="14.00" fill="#000000">doomed2.io</text>
<text text-anchor="middle" x="479" y="-229.8" font-family="Times,serif" font-size="14.00" fill="#000000">Ginoda</text>
</g>
<!-- doomed.io&#45;&gt;doomed2.io -->
<g id="edge26" class="edge">
<title>doomed.io&#45;&gt;doomed2.io</title>
<path fill="none" stroke="#000000" d="M484.1973,-295.9432C483.4601,-288.1493 482.5902,-278.9538 481.7752,-270.3381"/>
<polygon fill="#000000" stroke="#000000" points="485.2472,-269.8754 480.8209,-260.2495 478.2783,-270.5347 485.2472,-269.8754"/>
</g>
<!-- bruh.io&#45;&gt;battlepoint.io -->
<g id="edge36" class="edge">
<title>bruh.io&#45;&gt;battlepoint.io</title>
<path fill="none" stroke="#000000" d="M1757.6571,-295.9082C1756.9408,-276.6997 1757.5669,-246.4954 1766,-222 1779.3825,-183.1285 1807.4085,-144.7219 1827.8413,-120.0619"/>
<polygon fill="#000000" stroke="#000000" points="1830.6658,-122.1421 1834.4475,-112.2451 1825.3194,-117.6236 1830.6658,-122.1421"/>
</g>
<!-- shellshock.io -->
<g id="node57" class="node">
<title>shellshock.io</title>
<path fill="#90caf9" stroke="#90caf9" d="M2083,-333C2083,-333 1997,-333 1997,-333 1991,-333 1985,-327 1985,-321 1985,-321 1985,-309 1985,-309 1985,-303 1991,-297 1997,-297 1997,-297 2083,-297 2083,-297 2089,-297 2095,-303 2095,-309 2095,-309 2095,-321 2095,-321 2095,-327 2089,-333 2083,-333"/>
<text text-anchor="middle" x="2040" y="-311.3" font-family="Times,serif" font-size="14.00" fill="#000000">shellshock.io</text>
</g>
<!-- krunker.io -->
<g id="node67" class="node">
<title>krunker.io</title>
<path fill="#90caf9" stroke="#90caf9" d="M2154.5,-186C2154.5,-186 2045.5,-186 2045.5,-186 2039.5,-186 2033.5,-180 2033.5,-174 2033.5,-174 2033.5,-160 2033.5,-160 2033.5,-154 2039.5,-148 2045.5,-148 2045.5,-148 2154.5,-148 2154.5,-148 2160.5,-148 2166.5,-154 2166.5,-160 2166.5,-160 2166.5,-174 2166.5,-174 2166.5,-180 2160.5,-186 2154.5,-186"/>
<text text-anchor="middle" x="2100" y="-170.8" font-family="Times,serif" font-size="14.00" fill="#000000">krunker.io</text>
<text text-anchor="middle" x="2100" y="-155.8" font-family="Times,serif" font-size="14.00" fill="#000000">Sydney de Vries</text>
</g>
<!-- shellshock.io&#45;&gt;krunker.io -->
<g id="edge48" class="edge">
<title>shellshock.io&#45;&gt;krunker.io</title>
<path fill="none" stroke="#000000" d="M2047.3572,-296.8523C2057.5908,-271.6094 2076.2285,-225.6363 2088.3593,-195.7138"/>
<polygon fill="#000000" stroke="#000000" points="2091.6887,-196.817 2092.2022,-186.2346 2085.2015,-194.187 2091.6887,-196.817"/>
</g>
<!-- warscrap.io -->
<g id="node58" class="node">
<title>warscrap.io</title>
<path fill="#90caf9" stroke="#90caf9" d="M2202.5,-334C2202.5,-334 2125.5,-334 2125.5,-334 2119.5,-334 2113.5,-328 2113.5,-322 2113.5,-322 2113.5,-308 2113.5,-308 2113.5,-302 2119.5,-296 2125.5,-296 2125.5,-296 2202.5,-296 2202.5,-296 2208.5,-296 2214.5,-302 2214.5,-308 2214.5,-308 2214.5,-322 2214.5,-322 2214.5,-328 2208.5,-334 2202.5,-334"/>
<text text-anchor="middle" x="2164" y="-318.8" font-family="Times,serif" font-size="14.00" fill="#000000">warscrap.io</text>
<text text-anchor="middle" x="2164" y="-303.8" font-family="Times,serif" font-size="14.00" fill="#000000">Evil Noob</text>
</g>
<!-- warscrap.io&#45;&gt;krunker.io -->
<g id="edge47" class="edge">
<title>warscrap.io&#45;&gt;krunker.io</title>
<path fill="none" stroke="#000000" d="M2155.7641,-295.9546C2144.7841,-270.5631 2125.2523,-225.3959 2112.4638,-195.8226"/>
<polygon fill="#000000" stroke="#000000" points="2115.5892,-194.2317 2108.4075,-186.4423 2109.1641,-197.0101 2115.5892,-194.2317"/>
</g>
<!-- airma.sh -->
<g id="node59" class="node">
<title>airma.sh</title>
<path fill="#90caf9" stroke="#90caf9" d="M2316.5,-333C2316.5,-333 2261.5,-333 2261.5,-333 2255.5,-333 2249.5,-327 2249.5,-321 2249.5,-321 2249.5,-309 2249.5,-309 2249.5,-303 2255.5,-297 2261.5,-297 2261.5,-297 2316.5,-297 2316.5,-297 2322.5,-297 2328.5,-303 2328.5,-309 2328.5,-309 2328.5,-321 2328.5,-321 2328.5,-327 2322.5,-333 2316.5,-333"/>
<text text-anchor="middle" x="2289" y="-311.3" font-family="Times,serif" font-size="14.00" fill="#000000">airma.sh</text>
</g>
<!-- skyroyale.io -->
<g id="node64" class="node">
<title>skyroyale.io</title>
<path fill="#90caf9" stroke="#90caf9" d="M2334.5,-186C2334.5,-186 2243.5,-186 2243.5,-186 2237.5,-186 2231.5,-180 2231.5,-174 2231.5,-174 2231.5,-160 2231.5,-160 2231.5,-154 2237.5,-148 2243.5,-148 2243.5,-148 2334.5,-148 2334.5,-148 2340.5,-148 2346.5,-154 2346.5,-160 2346.5,-160 2346.5,-174 2346.5,-174 2346.5,-180 2340.5,-186 2334.5,-186"/>
<text text-anchor="middle" x="2289" y="-170.8" font-family="Times,serif" font-size="14.00" fill="#000000">skyroyale.io</text>
<text text-anchor="middle" x="2289" y="-155.8" font-family="Times,serif" font-size="14.00" fill="#000000">Clown Games</text>
</g>
<!-- airma.sh&#45;&gt;skyroyale.io -->
<g id="edge54" class="edge">
<title>airma.sh&#45;&gt;skyroyale.io</title>
<path fill="none" stroke="#000000" d="M2289,-296.8523C2289,-271.8289 2289,-226.4343 2289,-196.498"/>
<polygon fill="#000000" stroke="#000000" points="2292.5001,-196.2345 2289,-186.2346 2285.5001,-196.2346 2292.5001,-196.2345"/>
</g>
<!-- buildroyale.io -->
<g id="node70" class="node">
<title>buildroyale.io</title>
<path fill="#90caf9" stroke="#90caf9" d="M674,-38C674,-38 544,-38 544,-38 538,-38 532,-32 532,-26 532,-26 532,-12 532,-12 532,-6 538,0 544,0 544,0 674,0 674,0 680,0 686,-6 686,-12 686,-12 686,-26 686,-26 686,-32 680,-38 674,-38"/>
<text text-anchor="middle" x="609" y="-22.8" font-family="Times,serif" font-size="14.00" fill="#000000">buildroyale.io</text>
<text text-anchor="middle" x="609" y="-7.8" font-family="Times,serif" font-size="14.00" fill="#000000">Mathew Matakovic</text>
</g>
<!-- zombsroyale.io&#45;&gt;buildroyale.io -->
<g id="edge32" class="edge">
<title>zombsroyale.io&#45;&gt;buildroyale.io</title>
<path fill="none" stroke="#000000" d="M609,-221.6873C609,-182.7205 609,-94.4803 609,-48.3465"/>
<polygon fill="#000000" stroke="#000000" points="612.5001,-48.1099 609,-38.11 605.5001,-48.11 612.5001,-48.1099"/>
</g>
</g>
</svg>
