<?xml version="1.0" encoding="UTF-8" standalone="no"?>
<!DOCTYPE svg PUBLIC "-//W3C//DTD SVG 1.1//EN"
 "http://www.w3.org/Graphics/SVG/1.1/DTD/svg11.dtd">
<!-- Generated by graphviz version 2.44.0 (0)
 -->
<!-- Title: iogames Pages: 1 -->
<svg width="2858pt" height="1681pt"
 viewBox="0.00 0.00 2858.00 1681.00" xmlns="http://www.w3.org/2000/svg" xmlns:xlink="http://www.w3.org/1999/xlink">
<g id="graph0" class="graph" transform="scale(1 1) rotate(0) translate(4 1677)">
<title>iogames</title>
<polygon fill="white" stroke="transparent" points="-4,4 -4,-1677 2854,-1677 2854,4 -4,4"/>
<text text-anchor="start" x="1346.5" y="-1658.8" font-family="Times,serif" font-weight="bold" text-decoration="underline" font-size="14.00">History of .io games</text>
<text text-anchor="start" x="1358" y="-1630.8" font-family="Times,serif" font-size="14.00">by </text>
<text text-anchor="start" x="1380" y="-1630.8" font-family="Times,serif" font-weight="bold" font-size="14.00">Julien Mourer</text>
<text text-anchor="start" x="1318" y="-1616.8" font-family="Times,serif" font-size="14.00">Licensed under the CC BY 4.0</text>
<text text-anchor="start" x="1275" y="-1602.8" font-family="Times,serif" font-size="14.00">https://github.com/getkey/io&#45;game&#45;history</text>
<!-- 2014q4 -->
<g id="node1" class="node">
<title>2014q4</title>
<text text-anchor="middle" x="51.5" y="-1571" font-family="Times,serif" font-size="20.00">Q4 2014</text>
</g>
<!-- 2015q1 -->
<g id="node2" class="node">
<title>2015q1</title>
<text text-anchor="middle" x="51.5" y="-1498" font-family="Times,serif" font-size="20.00">Q1 2015</text>
</g>
<!-- 2014q4&#45;&gt;2015q1 -->
<!-- 2015q2 -->
<g id="node3" class="node">
<title>2015q2</title>
<text text-anchor="middle" x="51.5" y="-1425" font-family="Times,serif" font-size="20.00">Q2 2015</text>
</g>
<!-- 2015q1&#45;&gt;2015q2 -->
<!-- 2015q3 -->
<g id="node4" class="node">
<title>2015q3</title>
<text text-anchor="middle" x="51.5" y="-1352" font-family="Times,serif" font-size="20.00">Q3 2015</text>
</g>
<!-- 2015q2&#45;&gt;2015q3 -->
<!-- 2015q4 -->
<g id="node5" class="node">
<title>2015q4</title>
<text text-anchor="middle" x="51.5" y="-1279" font-family="Times,serif" font-size="20.00">Q4 2015</text>
</g>
<!-- 2015q3&#45;&gt;2015q4 -->
<!-- 2016q1 -->
<g id="node6" class="node">
<title>2016q1</title>
<text text-anchor="middle" x="51.5" y="-1205" font-family="Times,serif" font-size="20.00">Q1 2016</text>
</g>
<!-- 2015q4&#45;&gt;2016q1 -->
<!-- 2016q2 -->
<g id="node7" class="node">
<title>2016q2</title>
<text text-anchor="middle" x="51.5" y="-1131" font-family="Times,serif" font-size="20.00">Q2 2016</text>
</g>
<!-- 2016q1&#45;&gt;2016q2 -->
<!-- 2016q3 -->
<g id="node8" class="node">
<title>2016q3</title>
<text text-anchor="middle" x="51.5" y="-1057" font-family="Times,serif" font-size="20.00">Q3 2016</text>
</g>
<!-- 2016q2&#45;&gt;2016q3 -->
<!-- 2016q4 -->
<g id="node9" class="node">
<title>2016q4</title>
<text text-anchor="middle" x="51.5" y="-983" font-family="Times,serif" font-size="20.00">Q4 2016</text>
</g>
<!-- 2016q3&#45;&gt;2016q4 -->
<!-- 2017q1 -->
<g id="node10" class="node">
<title>2017q1</title>
<text text-anchor="middle" x="51.5" y="-909" font-family="Times,serif" font-size="20.00">Q1 2017</text>
</g>
<!-- 2016q4&#45;&gt;2017q1 -->
<!-- 2017q2 -->
<g id="node11" class="node">
<title>2017q2</title>
<text text-anchor="middle" x="51.5" y="-835" font-family="Times,serif" font-size="20.00">Q2 2017</text>
</g>
<!-- 2017q1&#45;&gt;2017q2 -->
<!-- 2017q3 -->
<g id="node12" class="node">
<title>2017q3</title>
<text text-anchor="middle" x="51.5" y="-761" font-family="Times,serif" font-size="20.00">Q3 2017</text>
</g>
<!-- 2017q2&#45;&gt;2017q3 -->
<!-- 2017q4 -->
<g id="node13" class="node">
<title>2017q4</title>
<text text-anchor="middle" x="51.5" y="-687" font-family="Times,serif" font-size="20.00">Q4 2017</text>
</g>
<!-- 2017q3&#45;&gt;2017q4 -->
<!-- 2018q1 -->
<g id="node14" class="node">
<title>2018q1</title>
<text text-anchor="middle" x="51.5" y="-613" font-family="Times,serif" font-size="20.00">Q1 2018</text>
</g>
<!-- 2017q4&#45;&gt;2018q1 -->
<!-- 2018q2 -->
<g id="node15" class="node">
<title>2018q2</title>
<text text-anchor="middle" x="51.5" y="-539" font-family="Times,serif" font-size="20.00">Q2 2018</text>
</g>
<!-- 2018q1&#45;&gt;2018q2 -->
<!-- 2018q3 -->
<g id="node16" class="node">
<title>2018q3</title>
<text text-anchor="middle" x="51.5" y="-457.5" font-family="Times,serif" font-size="20.00">Q3 2018</text>
</g>
<!-- 2018q2&#45;&gt;2018q3 -->
<!-- 2018q4 -->
<g id="node17" class="node">
<title>2018q4</title>
<text text-anchor="middle" x="51.5" y="-376" font-family="Times,serif" font-size="20.00">Q4 2018</text>
</g>
<!-- 2018q3&#45;&gt;2018q4 -->
<!-- 2019q1 -->
<g id="node18" class="node">
<title>2019q1</title>
<text text-anchor="middle" x="51.5" y="-303" font-family="Times,serif" font-size="20.00">Q1 2019</text>
</g>
<!-- 2018q4&#45;&gt;2019q1 -->
<!-- 2019q2 -->
<g id="node19" class="node">
<title>2019q2</title>
<text text-anchor="middle" x="51.5" y="-231" font-family="Times,serif" font-size="20.00">Q2 2019</text>
</g>
<!-- 2019q1&#45;&gt;2019q2 -->
<!-- 2019q3 -->
<g id="node20" class="node">
<title>2019q3</title>
<text text-anchor="middle" x="51.5" y="-159" font-family="Times,serif" font-size="20.00">Q3 2019</text>
</g>
<!-- 2019q2&#45;&gt;2019q3 -->
<!-- 2019q4 -->
<g id="node21" class="node">
<title>2019q4</title>
<text text-anchor="middle" x="51.5" y="-87" font-family="Times,serif" font-size="20.00">Q4 2019</text>
</g>
<!-- 2019q3&#45;&gt;2019q4 -->
<!-- 2020q1 -->
<g id="node22" class="node">
<title>2020q1</title>
<text text-anchor="middle" x="51.5" y="-14" font-family="Times,serif" font-size="20.00">Q1 2020</text>
</g>
<!-- 2019q4&#45;&gt;2020q1 -->
<!-- cursors.io -->
<g id="node23" class="node">
<title>cursors.io</title>
<path fill="#90caf9" stroke="#90caf9" d="M262,-1595C262,-1595 133,-1595 133,-1595 127,-1595 121,-1589 121,-1583 121,-1583 121,-1569 121,-1569 121,-1563 127,-1557 133,-1557 133,-1557 262,-1557 262,-1557 268,-1557 274,-1563 274,-1569 274,-1569 274,-1583 274,-1583 274,-1589 268,-1595 262,-1595"/>
<text text-anchor="middle" x="197.5" y="-1579.8" font-family="Times,serif" font-size="14.00">cursors.io</text>
<text text-anchor="middle" x="197.5" y="-1564.8" font-family="Times,serif" font-size="14.00">Matheus Valadares</text>
</g>
<!-- voar.io -->
<g id="node24" class="node">
<title>voar.io</title>
<path fill="#90caf9" stroke="#90caf9" d="M433,-1595C433,-1595 304,-1595 304,-1595 298,-1595 292,-1589 292,-1583 292,-1583 292,-1569 292,-1569 292,-1563 298,-1557 304,-1557 304,-1557 433,-1557 433,-1557 439,-1557 445,-1563 445,-1569 445,-1569 445,-1583 445,-1583 445,-1589 439,-1595 433,-1595"/>
<text text-anchor="middle" x="368.5" y="-1579.8" font-family="Times,serif" font-size="14.00">voar.io</text>
<text text-anchor="middle" x="368.5" y="-1564.8" font-family="Times,serif" font-size="14.00">Matheus Valadares</text>
</g>
<!-- agar.io -->
<g id="node25" class="node">
<title>agar.io</title>
<path fill="#90caf9" stroke="#90caf9" d="M625,-1449C625,-1449 496,-1449 496,-1449 490,-1449 484,-1443 484,-1437 484,-1437 484,-1423 484,-1423 484,-1417 490,-1411 496,-1411 496,-1411 625,-1411 625,-1411 631,-1411 637,-1417 637,-1423 637,-1423 637,-1437 637,-1437 637,-1443 631,-1449 625,-1449"/>
<text text-anchor="middle" x="560.5" y="-1433.8" font-family="Times,serif" font-size="14.00">agar.io</text>
<text text-anchor="middle" x="560.5" y="-1418.8" font-family="Times,serif" font-size="14.00">Matheus Valadares</text>
</g>
<!-- deeeep.io -->
<g id="node33" class="node">
<title>deeeep.io</title>
<path fill="#90caf9" stroke="#90caf9" d="M260,-1006C260,-1006 199,-1006 199,-1006 193,-1006 187,-1000 187,-994 187,-994 187,-982 187,-982 187,-976 193,-970 199,-970 199,-970 260,-970 260,-970 266,-970 272,-976 272,-982 272,-982 272,-994 272,-994 272,-1000 266,-1006 260,-1006"/>
<text text-anchor="middle" x="229.5" y="-984.3" font-family="Times,serif" font-size="14.00">deeeep.io</text>
</g>
<!-- agar.io&#45;&gt;deeeep.io -->
<g id="edge52" class="edge">
<title>agar.io&#45;&gt;deeeep.io</title>
<path fill="none" stroke="black" d="M502.53,-1410.92C448.6,-1390.05 376.5,-1350 376.5,-1285 376.5,-1285 376.5,-1285 376.5,-1135 376.5,-1077.41 319,-1034.75 275.92,-1010.87"/>
<polygon fill="black" stroke="black" points="277.44,-1007.71 266.97,-1006.06 274.13,-1013.87 277.44,-1007.71"/>
</g>
<!-- pie.ai -->
<g id="node47" class="node">
<title>pie.ai</title>
<path fill="#90caf9" stroke="#90caf9" d="M567.5,-932C567.5,-932 535.5,-932 535.5,-932 529.5,-932 523.5,-926 523.5,-920 523.5,-920 523.5,-908 523.5,-908 523.5,-902 529.5,-896 535.5,-896 535.5,-896 567.5,-896 567.5,-896 573.5,-896 579.5,-902 579.5,-908 579.5,-908 579.5,-920 579.5,-920 579.5,-926 573.5,-932 567.5,-932"/>
<text text-anchor="middle" x="551.5" y="-910.3" font-family="Times,serif" font-size="14.00">pie.ai</text>
</g>
<!-- agar.io&#45;&gt;pie.ai -->
<g id="edge48" class="edge">
<title>agar.io&#45;&gt;pie.ai</title>
<path fill="none" stroke="black" d="M560.5,-1410.81C560.5,-1383.5 560.5,-1330.25 560.5,-1285 560.5,-1285 560.5,-1285 560.5,-1061 560.5,-1019.57 556.84,-971.64 554.19,-942.33"/>
<polygon fill="black" stroke="black" points="557.65,-941.69 553.24,-932.06 550.68,-942.34 557.65,-941.69"/>
</g>
<!-- spinz.io -->
<g id="node53" class="node">
<title>spinz.io</title>
<path fill="#90caf9" stroke="#90caf9" d="M628.5,-859C628.5,-859 574.5,-859 574.5,-859 568.5,-859 562.5,-853 562.5,-847 562.5,-847 562.5,-833 562.5,-833 562.5,-827 568.5,-821 574.5,-821 574.5,-821 628.5,-821 628.5,-821 634.5,-821 640.5,-827 640.5,-833 640.5,-833 640.5,-847 640.5,-847 640.5,-853 634.5,-859 628.5,-859"/>
<text text-anchor="middle" x="601.5" y="-843.8" font-family="Times,serif" font-size="14.00">spinz.io</text>
<text text-anchor="middle" x="601.5" y="-828.8" font-family="Times,serif" font-size="14.00">Yang Lui</text>
</g>
<!-- agar.io&#45;&gt;spinz.io -->
<g id="edge45" class="edge">
<title>agar.io&#45;&gt;spinz.io</title>
<path fill="none" stroke="black" d="M570.47,-1410.98C584.26,-1384.3 607.5,-1332.34 607.5,-1285 607.5,-1285 607.5,-1285 607.5,-987 607.5,-946.1 605.12,-898.82 603.36,-869.41"/>
<polygon fill="black" stroke="black" points="606.85,-869.19 602.74,-859.43 599.87,-869.62 606.85,-869.19"/>
</g>
<!-- vertix.io -->
<g id="node26" class="node">
<title>vertix.io</title>
<path fill="#90caf9" stroke="#90caf9" d="M1165.5,-1303C1165.5,-1303 1057.5,-1303 1057.5,-1303 1051.5,-1303 1045.5,-1297 1045.5,-1291 1045.5,-1291 1045.5,-1277 1045.5,-1277 1045.5,-1271 1051.5,-1265 1057.5,-1265 1057.5,-1265 1165.5,-1265 1165.5,-1265 1171.5,-1265 1177.5,-1271 1177.5,-1277 1177.5,-1277 1177.5,-1291 1177.5,-1291 1177.5,-1297 1171.5,-1303 1165.5,-1303"/>
<text text-anchor="middle" x="1111.5" y="-1287.8" font-family="Times,serif" font-size="14.00">vertix.io</text>
<text text-anchor="middle" x="1111.5" y="-1272.8" font-family="Times,serif" font-size="14.00">Sydney de Vries</text>
</g>
<!-- nightpoint.io -->
<g id="node60" class="node">
<title>nightpoint.io</title>
<path fill="#90caf9" stroke="#90caf9" d="M1153.5,-785C1153.5,-785 1069.5,-785 1069.5,-785 1063.5,-785 1057.5,-779 1057.5,-773 1057.5,-773 1057.5,-759 1057.5,-759 1057.5,-753 1063.5,-747 1069.5,-747 1069.5,-747 1153.5,-747 1153.5,-747 1159.5,-747 1165.5,-753 1165.5,-759 1165.5,-759 1165.5,-773 1165.5,-773 1165.5,-779 1159.5,-785 1153.5,-785"/>
<text text-anchor="middle" x="1111.5" y="-769.8" font-family="Times,serif" font-size="14.00">nightpoint.io</text>
<text text-anchor="middle" x="1111.5" y="-754.8" font-family="Times,serif" font-size="14.00">Sarunas</text>
</g>
<!-- vertix.io&#45;&gt;nightpoint.io -->
<g id="edge38" class="edge">
<title>vertix.io&#45;&gt;nightpoint.io</title>
<path fill="none" stroke="black" d="M1111.5,-1264.56C1111.5,-1236.87 1111.5,-1182.88 1111.5,-1137 1111.5,-1137 1111.5,-1137 1111.5,-913 1111.5,-872.32 1111.5,-825.26 1111.5,-795.81"/>
<polygon fill="black" stroke="black" points="1115,-795.44 1111.5,-785.44 1108,-795.44 1115,-795.44"/>
</g>
<!-- slither.io -->
<g id="node27" class="node">
<title>slither.io</title>
<path fill="#90caf9" stroke="#90caf9" d="M1338.5,-1229C1338.5,-1229 1252.5,-1229 1252.5,-1229 1246.5,-1229 1240.5,-1223 1240.5,-1217 1240.5,-1217 1240.5,-1203 1240.5,-1203 1240.5,-1197 1246.5,-1191 1252.5,-1191 1252.5,-1191 1338.5,-1191 1338.5,-1191 1344.5,-1191 1350.5,-1197 1350.5,-1203 1350.5,-1203 1350.5,-1217 1350.5,-1217 1350.5,-1223 1344.5,-1229 1338.5,-1229"/>
<text text-anchor="middle" x="1295.5" y="-1213.8" font-family="Times,serif" font-size="14.00">slither.io</text>
<text text-anchor="middle" x="1295.5" y="-1198.8" font-family="Times,serif" font-size="14.00">Steve Howse</text>
</g>
<!-- limax.io -->
<g id="node30" class="node">
<title>limax.io</title>
<path fill="#90caf9" stroke="#90caf9" d="M1227,-1155C1227,-1155 1152,-1155 1152,-1155 1146,-1155 1140,-1149 1140,-1143 1140,-1143 1140,-1129 1140,-1129 1140,-1123 1146,-1117 1152,-1117 1152,-1117 1227,-1117 1227,-1117 1233,-1117 1239,-1123 1239,-1129 1239,-1129 1239,-1143 1239,-1143 1239,-1149 1233,-1155 1227,-1155"/>
<text text-anchor="middle" x="1189.5" y="-1139.8" font-family="Times,serif" font-size="14.00">limax.io</text>
<text text-anchor="middle" x="1189.5" y="-1124.8" font-family="Times,serif" font-size="14.00">LapaMauve</text>
</g>
<!-- slither.io&#45;&gt;limax.io -->
<g id="edge24" class="edge">
<title>slither.io&#45;&gt;limax.io</title>
<path fill="none" stroke="black" d="M1268.75,-1190.83C1255.44,-1181.79 1239.18,-1170.75 1224.86,-1161.02"/>
<polygon fill="black" stroke="black" points="1226.48,-1157.89 1216.24,-1155.16 1222.55,-1163.68 1226.48,-1157.89"/>
</g>
<!-- wormax.io -->
<g id="node32" class="node">
<title>wormax.io</title>
<path fill="#90caf9" stroke="#90caf9" d="M1283,-1081C1283,-1081 1216,-1081 1216,-1081 1210,-1081 1204,-1075 1204,-1069 1204,-1069 1204,-1055 1204,-1055 1204,-1049 1210,-1043 1216,-1043 1216,-1043 1283,-1043 1283,-1043 1289,-1043 1295,-1049 1295,-1055 1295,-1055 1295,-1069 1295,-1069 1295,-1075 1289,-1081 1283,-1081"/>
<text text-anchor="middle" x="1249.5" y="-1065.8" font-family="Times,serif" font-size="14.00">wormax.io</text>
<text text-anchor="middle" x="1249.5" y="-1050.8" font-family="Times,serif" font-size="14.00">Elyland</text>
</g>
<!-- slither.io&#45;&gt;wormax.io -->
<g id="edge22" class="edge">
<title>slither.io&#45;&gt;wormax.io</title>
<path fill="none" stroke="black" d="M1289.77,-1190.8C1281.88,-1165.78 1267.62,-1120.5 1258.35,-1091.1"/>
<polygon fill="black" stroke="black" points="1261.65,-1089.91 1255.31,-1081.43 1254.97,-1092.01 1261.65,-1089.91"/>
</g>
<!-- wormate.io -->
<g id="node36" class="node">
<title>wormate.io</title>
<path fill="#90caf9" stroke="#90caf9" d="M1385.5,-1007C1385.5,-1007 1261.5,-1007 1261.5,-1007 1255.5,-1007 1249.5,-1001 1249.5,-995 1249.5,-995 1249.5,-981 1249.5,-981 1249.5,-975 1255.5,-969 1261.5,-969 1261.5,-969 1385.5,-969 1385.5,-969 1391.5,-969 1397.5,-975 1397.5,-981 1397.5,-981 1397.5,-995 1397.5,-995 1397.5,-1001 1391.5,-1007 1385.5,-1007"/>
<text text-anchor="middle" x="1323.5" y="-991.8" font-family="Times,serif" font-size="14.00">wormate.io</text>
<text text-anchor="middle" x="1323.5" y="-976.8" font-family="Times,serif" font-size="14.00">Oleksandr Godoba</text>
</g>
<!-- slither.io&#45;&gt;wormate.io -->
<g id="edge23" class="edge">
<title>slither.io&#45;&gt;wormate.io</title>
<path fill="none" stroke="black" d="M1297.79,-1191C1302.65,-1152.8 1314.03,-1063.41 1319.88,-1017.43"/>
<polygon fill="black" stroke="black" points="1323.39,-1017.61 1321.18,-1007.25 1316.44,-1016.73 1323.39,-1017.61"/>
</g>
<!-- powerline.io -->
<g id="node61" class="node">
<title>powerline.io</title>
<path fill="#90caf9" stroke="#90caf9" d="M1474.5,-711C1474.5,-711 1376.5,-711 1376.5,-711 1370.5,-711 1364.5,-705 1364.5,-699 1364.5,-699 1364.5,-685 1364.5,-685 1364.5,-679 1370.5,-673 1376.5,-673 1376.5,-673 1474.5,-673 1474.5,-673 1480.5,-673 1486.5,-679 1486.5,-685 1486.5,-685 1486.5,-699 1486.5,-699 1486.5,-705 1480.5,-711 1474.5,-711"/>
<text text-anchor="middle" x="1425.5" y="-695.8" font-family="Times,serif" font-size="14.00">powerline.io</text>
<text text-anchor="middle" x="1425.5" y="-680.8" font-family="Times,serif" font-size="14.00">Andre Almeida</text>
</g>
<!-- slither.io&#45;&gt;powerline.io -->
<g id="edge25" class="edge">
<title>slither.io&#45;&gt;powerline.io</title>
<path fill="none" stroke="black" d="M1328.64,-1190.81C1367.16,-1166.95 1425.5,-1121.21 1425.5,-1063 1425.5,-1063 1425.5,-1063 1425.5,-839 1425.5,-798.32 1425.5,-751.26 1425.5,-721.81"/>
<polygon fill="black" stroke="black" points="1429,-721.44 1425.5,-711.44 1422,-721.44 1429,-721.44"/>
</g>
<!-- diep.io -->
<g id="node28" class="node">
<title>diep.io</title>
<path fill="#90caf9" stroke="#90caf9" d="M1579,-1229C1579,-1229 1450,-1229 1450,-1229 1444,-1229 1438,-1223 1438,-1217 1438,-1217 1438,-1203 1438,-1203 1438,-1197 1444,-1191 1450,-1191 1450,-1191 1579,-1191 1579,-1191 1585,-1191 1591,-1197 1591,-1203 1591,-1203 1591,-1217 1591,-1217 1591,-1223 1585,-1229 1579,-1229"/>
<text text-anchor="middle" x="1514.5" y="-1213.8" font-family="Times,serif" font-size="14.00">diep.io</text>
<text text-anchor="middle" x="1514.5" y="-1198.8" font-family="Times,serif" font-size="14.00">Matheus Valadares</text>
</g>
<!-- tanksmith.io -->
<g id="node71" class="node">
<title>tanksmith.io</title>
<path fill="#90caf9" stroke="#90caf9" d="M1555.5,-563C1555.5,-563 1473.5,-563 1473.5,-563 1467.5,-563 1461.5,-557 1461.5,-551 1461.5,-551 1461.5,-537 1461.5,-537 1461.5,-531 1467.5,-525 1473.5,-525 1473.5,-525 1555.5,-525 1555.5,-525 1561.5,-525 1567.5,-531 1567.5,-537 1567.5,-537 1567.5,-551 1567.5,-551 1567.5,-557 1561.5,-563 1555.5,-563"/>
<text text-anchor="middle" x="1514.5" y="-547.8" font-family="Times,serif" font-size="14.00">tanksmith.io</text>
<text text-anchor="middle" x="1514.5" y="-532.8" font-family="Times,serif" font-size="14.00">IO Ninja</text>
</g>
<!-- diep.io&#45;&gt;tanksmith.io -->
<g id="edge53" class="edge">
<title>diep.io&#45;&gt;tanksmith.io</title>
<path fill="none" stroke="black" d="M1514.5,-1190.56C1514.5,-1162.87 1514.5,-1108.88 1514.5,-1063 1514.5,-1063 1514.5,-1063 1514.5,-691 1514.5,-650.32 1514.5,-603.26 1514.5,-573.81"/>
<polygon fill="black" stroke="black" points="1518,-573.44 1514.5,-563.44 1511,-573.44 1518,-573.44"/>
</g>
<!-- wings.io -->
<g id="node29" class="node">
<title>wings.io</title>
<path fill="#90caf9" stroke="#90caf9" d="M1719.5,-1229C1719.5,-1229 1621.5,-1229 1621.5,-1229 1615.5,-1229 1609.5,-1223 1609.5,-1217 1609.5,-1217 1609.5,-1203 1609.5,-1203 1609.5,-1197 1615.5,-1191 1621.5,-1191 1621.5,-1191 1719.5,-1191 1719.5,-1191 1725.5,-1191 1731.5,-1197 1731.5,-1203 1731.5,-1203 1731.5,-1217 1731.5,-1217 1731.5,-1223 1725.5,-1229 1719.5,-1229"/>
<text text-anchor="middle" x="1670.5" y="-1213.8" font-family="Times,serif" font-size="14.00">wings.io</text>
<text text-anchor="middle" x="1670.5" y="-1198.8" font-family="Times,serif" font-size="14.00">Andre Almeida</text>
</g>
<!-- wilds.io -->
<g id="node31" class="node">
<title>wilds.io</title>
<path fill="#90caf9" stroke="#90caf9" d="M1614,-1155C1614,-1155 1563,-1155 1563,-1155 1557,-1155 1551,-1149 1551,-1143 1551,-1143 1551,-1129 1551,-1129 1551,-1123 1557,-1117 1563,-1117 1563,-1117 1614,-1117 1614,-1117 1620,-1117 1626,-1123 1626,-1129 1626,-1129 1626,-1143 1626,-1143 1626,-1149 1620,-1155 1614,-1155"/>
<text text-anchor="middle" x="1588.5" y="-1139.8" font-family="Times,serif" font-size="14.00">wilds.io</text>
<text text-anchor="middle" x="1588.5" y="-1124.8" font-family="Times,serif" font-size="14.00">Rezoner</text>
</g>
<!-- wanderers.io -->
<g id="node63" class="node">
<title>wanderers.io</title>
<path fill="#90caf9" stroke="#90caf9" d="M1674.5,-711C1674.5,-711 1588.5,-711 1588.5,-711 1582.5,-711 1576.5,-705 1576.5,-699 1576.5,-699 1576.5,-685 1576.5,-685 1576.5,-679 1582.5,-673 1588.5,-673 1588.5,-673 1674.5,-673 1674.5,-673 1680.5,-673 1686.5,-679 1686.5,-685 1686.5,-685 1686.5,-699 1686.5,-699 1686.5,-705 1680.5,-711 1674.5,-711"/>
<text text-anchor="middle" x="1631.5" y="-695.8" font-family="Times,serif" font-size="14.00">wanderers.io</text>
<text text-anchor="middle" x="1631.5" y="-680.8" font-family="Times,serif" font-size="14.00">Rezoner</text>
</g>
<!-- wilds.io&#45;&gt;wanderers.io -->
<g id="edge43" class="edge">
<title>wilds.io&#45;&gt;wanderers.io</title>
<path fill="none" stroke="black" d="M1588.5,-1116.56C1588.5,-1088.87 1588.5,-1034.88 1588.5,-989 1588.5,-989 1588.5,-989 1588.5,-839 1588.5,-796.45 1605.51,-749.67 1618.13,-720.81"/>
<polygon fill="black" stroke="black" points="1621.46,-721.94 1622.38,-711.39 1615.08,-719.07 1621.46,-721.94"/>
</g>
<!-- oceanar.io -->
<g id="node34" class="node">
<title>oceanar.io</title>
<path fill="#90caf9" stroke="#90caf9" d="M520,-1007C520,-1007 455,-1007 455,-1007 449,-1007 443,-1001 443,-995 443,-995 443,-981 443,-981 443,-975 449,-969 455,-969 455,-969 520,-969 520,-969 526,-969 532,-975 532,-981 532,-981 532,-995 532,-995 532,-1001 526,-1007 520,-1007"/>
<text text-anchor="middle" x="487.5" y="-991.8" font-family="Times,serif" font-size="14.00">oceanar.io</text>
<text text-anchor="middle" x="487.5" y="-976.8" font-family="Times,serif" font-size="14.00">S3Games</text>
</g>
<!-- deeeep.io&#45;&gt;oceanar.io -->
<g id="edge26" class="edge">
<title>deeeep.io&#45;&gt;oceanar.io</title>
<path fill="none" stroke="black" d="M252.43,-1006.01C263.32,-1013.45 276.9,-1021.2 290.5,-1025 347.86,-1041.04 367.03,-1040.63 424.5,-1025 434.51,-1022.28 444.55,-1017.52 453.58,-1012.31"/>
<polygon fill="black" stroke="black" points="455.54,-1015.21 462.23,-1007 451.88,-1009.24 455.54,-1015.21"/>
</g>
<!-- mope.io -->
<g id="node35" class="node">
<title>mope.io</title>
<path fill="#90caf9" stroke="#90caf9" d="M412.5,-1007C412.5,-1007 302.5,-1007 302.5,-1007 296.5,-1007 290.5,-1001 290.5,-995 290.5,-995 290.5,-981 290.5,-981 290.5,-975 296.5,-969 302.5,-969 302.5,-969 412.5,-969 412.5,-969 418.5,-969 424.5,-975 424.5,-981 424.5,-981 424.5,-995 424.5,-995 424.5,-1001 418.5,-1007 412.5,-1007"/>
<text text-anchor="middle" x="357.5" y="-991.8" font-family="Times,serif" font-size="14.00">mope.io</text>
<text text-anchor="middle" x="357.5" y="-976.8" font-family="Times,serif" font-size="14.00">Stan Tatarnykov</text>
</g>
<!-- deeeep.io&#45;&gt;mope.io -->
<g id="edge27" class="edge">
<title>deeeep.io&#45;&gt;mope.io</title>
<path fill="none" stroke="black" d="M272,-988C274.77,-988 277.55,-988 280.32,-988"/>
<polygon fill="black" stroke="black" points="280.37,-991.5 290.37,-988 280.37,-984.5 280.37,-991.5"/>
</g>
<!-- moomoo.io -->
<g id="node48" class="node">
<title>moomoo.io</title>
<path fill="#90caf9" stroke="#90caf9" d="M452.5,-933C452.5,-933 344.5,-933 344.5,-933 338.5,-933 332.5,-927 332.5,-921 332.5,-921 332.5,-907 332.5,-907 332.5,-901 338.5,-895 344.5,-895 344.5,-895 452.5,-895 452.5,-895 458.5,-895 464.5,-901 464.5,-907 464.5,-907 464.5,-921 464.5,-921 464.5,-927 458.5,-933 452.5,-933"/>
<text text-anchor="middle" x="398.5" y="-917.8" font-family="Times,serif" font-size="14.00">moomoo.io</text>
<text text-anchor="middle" x="398.5" y="-902.8" font-family="Times,serif" font-size="14.00">Sydney de Vries</text>
</g>
<!-- mope.io&#45;&gt;moomoo.io -->
<g id="edge28" class="edge">
<title>mope.io&#45;&gt;moomoo.io</title>
<path fill="none" stroke="black" d="M367.85,-968.83C372.42,-960.79 377.91,-951.17 382.96,-942.29"/>
<polygon fill="black" stroke="black" points="386.11,-943.84 388.01,-933.41 380.02,-940.37 386.11,-943.84"/>
</g>
<!-- paper.io -->
<g id="node37" class="node">
<title>paper.io</title>
<path fill="#90caf9" stroke="#90caf9" d="M1884.5,-1081C1884.5,-1081 1834.5,-1081 1834.5,-1081 1828.5,-1081 1822.5,-1075 1822.5,-1069 1822.5,-1069 1822.5,-1055 1822.5,-1055 1822.5,-1049 1828.5,-1043 1834.5,-1043 1834.5,-1043 1884.5,-1043 1884.5,-1043 1890.5,-1043 1896.5,-1049 1896.5,-1055 1896.5,-1055 1896.5,-1069 1896.5,-1069 1896.5,-1075 1890.5,-1081 1884.5,-1081"/>
<text text-anchor="middle" x="1859.5" y="-1065.8" font-family="Times,serif" font-size="14.00">paper.io</text>
<text text-anchor="middle" x="1859.5" y="-1050.8" font-family="Times,serif" font-size="14.00">Voodoo</text>
</g>
<!-- narwhale.io -->
<g id="node38" class="node">
<title>narwhale.io</title>
<path fill="#90caf9" stroke="#90caf9" d="M2024,-1081C2024,-1081 1927,-1081 1927,-1081 1921,-1081 1915,-1075 1915,-1069 1915,-1069 1915,-1055 1915,-1055 1915,-1049 1921,-1043 1927,-1043 1927,-1043 2024,-1043 2024,-1043 2030,-1043 2036,-1049 2036,-1055 2036,-1055 2036,-1069 2036,-1069 2036,-1075 2030,-1081 2024,-1081"/>
<text text-anchor="middle" x="1975.5" y="-1065.8" font-family="Times,serif" font-size="14.00">narwhale.io</text>
<text text-anchor="middle" x="1975.5" y="-1050.8" font-family="Times,serif" font-size="14.00">Hsi&#45;Hung Shih</text>
</g>
<!-- pikes.io -->
<g id="node56" class="node">
<title>pikes.io</title>
<path fill="#90caf9" stroke="#90caf9" d="M2020.5,-859C2020.5,-859 1930.5,-859 1930.5,-859 1924.5,-859 1918.5,-853 1918.5,-847 1918.5,-847 1918.5,-833 1918.5,-833 1918.5,-827 1924.5,-821 1930.5,-821 1930.5,-821 2020.5,-821 2020.5,-821 2026.5,-821 2032.5,-827 2032.5,-833 2032.5,-833 2032.5,-847 2032.5,-847 2032.5,-853 2026.5,-859 2020.5,-859"/>
<text text-anchor="middle" x="1975.5" y="-843.8" font-family="Times,serif" font-size="14.00">pikes.io</text>
<text text-anchor="middle" x="1975.5" y="-828.8" font-family="Times,serif" font-size="14.00">Clown Games</text>
</g>
<!-- narwhale.io&#45;&gt;pikes.io -->
<g id="edge58" class="edge">
<title>narwhale.io&#45;&gt;pikes.io</title>
<path fill="none" stroke="black" d="M1975.5,-1043C1975.5,-1004.8 1975.5,-915.41 1975.5,-869.43"/>
<polygon fill="black" stroke="black" points="1979,-869.25 1975.5,-859.25 1972,-869.25 1979,-869.25"/>
</g>
<!-- splix.io -->
<g id="node39" class="node">
<title>splix.io</title>
<path fill="#90caf9" stroke="#90caf9" d="M1792.5,-1081C1792.5,-1081 1748.5,-1081 1748.5,-1081 1742.5,-1081 1736.5,-1075 1736.5,-1069 1736.5,-1069 1736.5,-1055 1736.5,-1055 1736.5,-1049 1742.5,-1043 1748.5,-1043 1748.5,-1043 1792.5,-1043 1792.5,-1043 1798.5,-1043 1804.5,-1049 1804.5,-1055 1804.5,-1055 1804.5,-1069 1804.5,-1069 1804.5,-1075 1798.5,-1081 1792.5,-1081"/>
<text text-anchor="middle" x="1770.5" y="-1065.8" font-family="Times,serif" font-size="14.00">splix.io</text>
<text text-anchor="middle" x="1770.5" y="-1050.8" font-family="Times,serif" font-size="14.00">Jesper</text>
</g>
<!-- splix.io&#45;&gt;paper.io -->
<g id="edge49" class="edge">
<title>splix.io&#45;&gt;paper.io</title>
<path fill="none" stroke="black" d="M1804.57,-1062C1807.04,-1062 1809.52,-1062 1811.99,-1062"/>
<polygon fill="black" stroke="black" points="1812.17,-1065.5 1822.16,-1062 1812.16,-1058.5 1812.17,-1065.5"/>
</g>
<!-- hexar.io -->
<g id="node46" class="node">
<title>hexar.io</title>
<path fill="#90caf9" stroke="#90caf9" d="M1795,-932C1795,-932 1746,-932 1746,-932 1740,-932 1734,-926 1734,-920 1734,-920 1734,-908 1734,-908 1734,-902 1740,-896 1746,-896 1746,-896 1795,-896 1795,-896 1801,-896 1807,-902 1807,-908 1807,-908 1807,-920 1807,-920 1807,-926 1801,-932 1795,-932"/>
<text text-anchor="middle" x="1770.5" y="-910.3" font-family="Times,serif" font-size="14.00">hexar.io</text>
</g>
<!-- splix.io&#45;&gt;hexar.io -->
<g id="edge50" class="edge">
<title>splix.io&#45;&gt;hexar.io</title>
<path fill="none" stroke="black" d="M1770.5,-1042.8C1770.5,-1017.59 1770.5,-971.82 1770.5,-942.44"/>
<polygon fill="black" stroke="black" points="1774,-942.06 1770.5,-932.06 1767,-942.06 1774,-942.06"/>
</g>
<!-- drawthis.io -->
<g id="node40" class="node">
<title>drawthis.io</title>
<path fill="#90caf9" stroke="#90caf9" d="M2139,-1080C2139,-1080 2066,-1080 2066,-1080 2060,-1080 2054,-1074 2054,-1068 2054,-1068 2054,-1056 2054,-1056 2054,-1050 2060,-1044 2066,-1044 2066,-1044 2139,-1044 2139,-1044 2145,-1044 2151,-1050 2151,-1056 2151,-1056 2151,-1068 2151,-1068 2151,-1074 2145,-1080 2139,-1080"/>
<text text-anchor="middle" x="2102.5" y="-1058.3" font-family="Times,serif" font-size="14.00">drawthis.io</text>
</g>
<!-- skribbl.io -->
<g id="node50" class="node">
<title>skribbl.io</title>
<path fill="#90caf9" stroke="#90caf9" d="M2091,-932C2091,-932 2032,-932 2032,-932 2026,-932 2020,-926 2020,-920 2020,-920 2020,-908 2020,-908 2020,-902 2026,-896 2032,-896 2032,-896 2091,-896 2091,-896 2097,-896 2103,-902 2103,-908 2103,-908 2103,-920 2103,-920 2103,-926 2097,-932 2091,-932"/>
<text text-anchor="middle" x="2061.5" y="-910.3" font-family="Times,serif" font-size="14.00">skribbl.io</text>
</g>
<!-- drawthis.io&#45;&gt;skribbl.io -->
<g id="edge56" class="edge">
<title>drawthis.io&#45;&gt;skribbl.io</title>
<path fill="none" stroke="black" d="M2097.72,-1043.97C2090.69,-1018.94 2077.5,-971.96 2069.12,-942.15"/>
<polygon fill="black" stroke="black" points="2072.45,-941.06 2066.38,-932.38 2065.71,-942.95 2072.45,-941.06"/>
</g>
<!-- drawthis2.io -->
<g id="node72" class="node">
<title>drawthis2.io</title>
<path fill="#90caf9" stroke="#90caf9" d="M2172.5,-563C2172.5,-563 2090.5,-563 2090.5,-563 2084.5,-563 2078.5,-557 2078.5,-551 2078.5,-551 2078.5,-537 2078.5,-537 2078.5,-531 2084.5,-525 2090.5,-525 2090.5,-525 2172.5,-525 2172.5,-525 2178.5,-525 2184.5,-531 2184.5,-537 2184.5,-537 2184.5,-551 2184.5,-551 2184.5,-557 2178.5,-563 2172.5,-563"/>
<text text-anchor="middle" x="2131.5" y="-547.8" font-family="Times,serif" font-size="14.00">drawthis2.io</text>
<text text-anchor="middle" x="2131.5" y="-532.8" font-family="Times,serif" font-size="14.00">lagged.com</text>
</g>
<!-- drawthis.io&#45;&gt;drawthis2.io -->
<g id="edge57" class="edge">
<title>drawthis.io&#45;&gt;drawthis2.io</title>
<path fill="none" stroke="black" d="M2108.23,-1043.69C2116.68,-1016.58 2131.5,-962.29 2131.5,-915 2131.5,-915 2131.5,-915 2131.5,-691 2131.5,-650.32 2131.5,-603.26 2131.5,-573.81"/>
<polygon fill="black" stroke="black" points="2135,-573.44 2131.5,-563.44 2128,-573.44 2135,-573.44"/>
</g>
<!-- bonk.io -->
<g id="node41" class="node">
<title>bonk.io</title>
<path fill="#90caf9" stroke="#90caf9" d="M2250.5,-1081C2250.5,-1081 2206.5,-1081 2206.5,-1081 2200.5,-1081 2194.5,-1075 2194.5,-1069 2194.5,-1069 2194.5,-1055 2194.5,-1055 2194.5,-1049 2200.5,-1043 2206.5,-1043 2206.5,-1043 2250.5,-1043 2250.5,-1043 2256.5,-1043 2262.5,-1049 2262.5,-1055 2262.5,-1055 2262.5,-1069 2262.5,-1069 2262.5,-1075 2256.5,-1081 2250.5,-1081"/>
<text text-anchor="middle" x="2228.5" y="-1065.8" font-family="Times,serif" font-size="14.00">bonk.io</text>
<text text-anchor="middle" x="2228.5" y="-1050.8" font-family="Times,serif" font-size="14.00">Chaz</text>
</g>
<!-- bonk2.io -->
<g id="node77" class="node">
<title>bonk2.io</title>
<path fill="#90caf9" stroke="#90caf9" d="M2255,-38C2255,-38 2202,-38 2202,-38 2196,-38 2190,-32 2190,-26 2190,-26 2190,-12 2190,-12 2190,-6 2196,0 2202,0 2202,0 2255,0 2255,0 2261,0 2267,-6 2267,-12 2267,-12 2267,-26 2267,-26 2267,-32 2261,-38 2255,-38"/>
<text text-anchor="middle" x="2228.5" y="-22.8" font-family="Times,serif" font-size="14.00">bonk2.io</text>
<text text-anchor="middle" x="2228.5" y="-7.8" font-family="Times,serif" font-size="14.00">Chaz</text>
</g>
<!-- bonk.io&#45;&gt;bonk2.io -->
<g id="edge62" class="edge">
<title>bonk.io&#45;&gt;bonk2.io</title>
<path fill="none" stroke="black" d="M2228.5,-1042.56C2228.5,-1014.87 2228.5,-960.88 2228.5,-915 2228.5,-915 2228.5,-915 2228.5,-163 2228.5,-123.15 2228.5,-77.06 2228.5,-48.22"/>
<polygon fill="black" stroke="black" points="2232,-48.06 2228.5,-38.06 2225,-48.06 2232,-48.06"/>
</g>
<!-- krew.io -->
<g id="node42" class="node">
<title>krew.io</title>
<path fill="#90caf9" stroke="#90caf9" d="M2312.5,-1007C2312.5,-1007 2268.5,-1007 2268.5,-1007 2262.5,-1007 2256.5,-1001 2256.5,-995 2256.5,-995 2256.5,-981 2256.5,-981 2256.5,-975 2262.5,-969 2268.5,-969 2268.5,-969 2312.5,-969 2312.5,-969 2318.5,-969 2324.5,-975 2324.5,-981 2324.5,-981 2324.5,-995 2324.5,-995 2324.5,-1001 2318.5,-1007 2312.5,-1007"/>
<text text-anchor="middle" x="2290.5" y="-991.8" font-family="Times,serif" font-size="14.00">krew.io</text>
<text text-anchor="middle" x="2290.5" y="-976.8" font-family="Times,serif" font-size="14.00">M0dE</text>
</g>
<!-- starblast.io -->
<g id="node43" class="node">
<title>starblast.io</title>
<path fill="#90caf9" stroke="#90caf9" d="M2432,-1007C2432,-1007 2355,-1007 2355,-1007 2349,-1007 2343,-1001 2343,-995 2343,-995 2343,-981 2343,-981 2343,-975 2349,-969 2355,-969 2355,-969 2432,-969 2432,-969 2438,-969 2444,-975 2444,-981 2444,-981 2444,-995 2444,-995 2444,-1001 2438,-1007 2432,-1007"/>
<text text-anchor="middle" x="2393.5" y="-991.8" font-family="Times,serif" font-size="14.00">starblast.io</text>
<text text-anchor="middle" x="2393.5" y="-976.8" font-family="Times,serif" font-size="14.00">Neuronality</text>
</g>
<!-- microgravity.io -->
<g id="node74" class="node">
<title>microgravity.io</title>
<path fill="#90caf9" stroke="#90caf9" d="M2449.5,-489C2449.5,-489 2337.5,-489 2337.5,-489 2331.5,-489 2325.5,-483 2325.5,-477 2325.5,-477 2325.5,-448 2325.5,-448 2325.5,-442 2331.5,-436 2337.5,-436 2337.5,-436 2449.5,-436 2449.5,-436 2455.5,-436 2461.5,-442 2461.5,-448 2461.5,-448 2461.5,-477 2461.5,-477 2461.5,-483 2455.5,-489 2449.5,-489"/>
<text text-anchor="middle" x="2393.5" y="-473.8" font-family="Times,serif" font-size="14.00">microgravity.io</text>
<text text-anchor="middle" x="2393.5" y="-458.8" font-family="Times,serif" font-size="14.00">Nathan Flurry &amp;</text>
<text text-anchor="middle" x="2393.5" y="-443.8" font-family="Times,serif" font-size="14.00">Nicholas Kissel</text>
</g>
<!-- starblast.io&#45;&gt;microgravity.io -->
<g id="edge63" class="edge">
<title>starblast.io&#45;&gt;microgravity.io</title>
<path fill="none" stroke="black" d="M2393.5,-968.56C2393.5,-940.87 2393.5,-886.88 2393.5,-841 2393.5,-841 2393.5,-841 2393.5,-617 2393.5,-576.71 2393.5,-530.48 2393.5,-499.37"/>
<polygon fill="black" stroke="black" points="2397,-499.03 2393.5,-489.03 2390,-499.03 2397,-499.03"/>
</g>
<!-- oib.io -->
<g id="node44" class="node">
<title>oib.io</title>
<path fill="#90caf9" stroke="#90caf9" d="M1704,-933C1704,-933 1629,-933 1629,-933 1623,-933 1617,-927 1617,-921 1617,-921 1617,-907 1617,-907 1617,-901 1623,-895 1629,-895 1629,-895 1704,-895 1704,-895 1710,-895 1716,-901 1716,-907 1716,-907 1716,-921 1716,-921 1716,-927 1710,-933 1704,-933"/>
<text text-anchor="middle" x="1666.5" y="-917.8" font-family="Times,serif" font-size="14.00">oib.io</text>
<text text-anchor="middle" x="1666.5" y="-902.8" font-family="Times,serif" font-size="14.00">LapaMauve</text>
</g>
<!-- oib.io&#45;&gt;wanderers.io -->
<g id="edge44" class="edge">
<title>oib.io&#45;&gt;wanderers.io</title>
<path fill="none" stroke="black" d="M1663.64,-895C1657.55,-856.72 1643.28,-767.03 1635.98,-721.14"/>
<polygon fill="black" stroke="black" points="1639.43,-720.58 1634.4,-711.25 1632.52,-721.68 1639.43,-720.58"/>
</g>
<!-- brutal.io -->
<g id="node45" class="node">
<title>brutal.io</title>
<path fill="#90caf9" stroke="#90caf9" d="M2531.5,-933C2531.5,-933 2433.5,-933 2433.5,-933 2427.5,-933 2421.5,-927 2421.5,-921 2421.5,-921 2421.5,-907 2421.5,-907 2421.5,-901 2427.5,-895 2433.5,-895 2433.5,-895 2531.5,-895 2531.5,-895 2537.5,-895 2543.5,-901 2543.5,-907 2543.5,-907 2543.5,-921 2543.5,-921 2543.5,-927 2537.5,-933 2531.5,-933"/>
<text text-anchor="middle" x="2482.5" y="-917.8" font-family="Times,serif" font-size="14.00">brutal.io</text>
<text text-anchor="middle" x="2482.5" y="-902.8" font-family="Times,serif" font-size="14.00">Andre Almeida</text>
</g>
<!-- superhex.io -->
<g id="node57" class="node">
<title>superhex.io</title>
<path fill="#90caf9" stroke="#90caf9" d="M1808.5,-858C1808.5,-858 1732.5,-858 1732.5,-858 1726.5,-858 1720.5,-852 1720.5,-846 1720.5,-846 1720.5,-834 1720.5,-834 1720.5,-828 1726.5,-822 1732.5,-822 1732.5,-822 1808.5,-822 1808.5,-822 1814.5,-822 1820.5,-828 1820.5,-834 1820.5,-834 1820.5,-846 1820.5,-846 1820.5,-852 1814.5,-858 1808.5,-858"/>
<text text-anchor="middle" x="1770.5" y="-836.3" font-family="Times,serif" font-size="14.00">superhex.io</text>
</g>
<!-- hexar.io&#45;&gt;superhex.io -->
<g id="edge51" class="edge">
<title>hexar.io&#45;&gt;superhex.io</title>
<path fill="none" stroke="black" d="M1770.5,-895.94C1770.5,-887.81 1770.5,-877.88 1770.5,-868.7"/>
<polygon fill="black" stroke="black" points="1774,-868.44 1770.5,-858.44 1767,-868.44 1774,-868.44"/>
</g>
<!-- starve.io -->
<g id="node49" class="node">
<title>starve.io</title>
<path fill="#90caf9" stroke="#90caf9" d="M844,-933C844,-933 769,-933 769,-933 763,-933 757,-927 757,-921 757,-921 757,-907 757,-907 757,-901 763,-895 769,-895 769,-895 844,-895 844,-895 850,-895 856,-901 856,-907 856,-907 856,-921 856,-921 856,-927 850,-933 844,-933"/>
<text text-anchor="middle" x="806.5" y="-917.8" font-family="Times,serif" font-size="14.00">starve.io</text>
<text text-anchor="middle" x="806.5" y="-902.8" font-family="Times,serif" font-size="14.00">LapaMauve</text>
</g>
<!-- moomoo.io&#45;&gt;starve.io -->
<g id="edge32" class="edge">
<title>moomoo.io&#45;&gt;starve.io</title>
<path fill="none" stroke="black" d="M450.66,-933.09C472.8,-940.23 499.09,-947.46 523.5,-951 600.52,-962.16 689.57,-945.7 746.88,-931.31"/>
<polygon fill="black" stroke="black" points="748.04,-934.62 756.85,-928.74 746.3,-927.84 748.04,-934.62"/>
</g>
<!-- zombs.io -->
<g id="node52" class="node">
<title>zombs.io</title>
<path fill="#90caf9" stroke="#90caf9" d="M521.5,-859C521.5,-859 465.5,-859 465.5,-859 459.5,-859 453.5,-853 453.5,-847 453.5,-847 453.5,-833 453.5,-833 453.5,-827 459.5,-821 465.5,-821 465.5,-821 521.5,-821 521.5,-821 527.5,-821 533.5,-827 533.5,-833 533.5,-833 533.5,-847 533.5,-847 533.5,-853 527.5,-859 521.5,-859"/>
<text text-anchor="middle" x="493.5" y="-843.8" font-family="Times,serif" font-size="14.00">zombs.io</text>
<text text-anchor="middle" x="493.5" y="-828.8" font-family="Times,serif" font-size="14.00">Yang Lui</text>
</g>
<!-- moomoo.io&#45;&gt;zombs.io -->
<g id="edge35" class="edge">
<title>moomoo.io&#45;&gt;zombs.io</title>
<path fill="none" stroke="black" d="M422.47,-894.83C434.29,-885.88 448.7,-874.96 461.44,-865.3"/>
<polygon fill="black" stroke="black" points="463.68,-867.99 469.54,-859.16 459.45,-862.41 463.68,-867.99"/>
</g>
<!-- foes.io -->
<g id="node59" class="node">
<title>foes.io</title>
<path fill="#90caf9" stroke="#90caf9" d="M241.5,-785C241.5,-785 133.5,-785 133.5,-785 127.5,-785 121.5,-779 121.5,-773 121.5,-773 121.5,-759 121.5,-759 121.5,-753 127.5,-747 133.5,-747 133.5,-747 241.5,-747 241.5,-747 247.5,-747 253.5,-753 253.5,-759 253.5,-759 253.5,-773 253.5,-773 253.5,-779 247.5,-785 241.5,-785"/>
<text text-anchor="middle" x="187.5" y="-769.8" font-family="Times,serif" font-size="14.00">foes.io</text>
<text text-anchor="middle" x="187.5" y="-754.8" font-family="Times,serif" font-size="14.00">Sydney de Vries</text>
</g>
<!-- moomoo.io&#45;&gt;foes.io -->
<g id="edge29" class="edge">
<title>moomoo.io&#45;&gt;foes.io</title>
<path fill="none" stroke="black" d="M338.42,-894.9C315.02,-886.2 288.78,-874.29 267.5,-859 242.38,-840.95 219.87,-813.53 205.18,-793.32"/>
<polygon fill="black" stroke="black" points="208.02,-791.28 199.38,-785.15 202.31,-795.33 208.02,-791.28"/>
</g>
<!-- doomed.io -->
<g id="node62" class="node">
<title>doomed.io</title>
<path fill="#90caf9" stroke="#90caf9" d="M314.5,-711C314.5,-711 248.5,-711 248.5,-711 242.5,-711 236.5,-705 236.5,-699 236.5,-699 236.5,-685 236.5,-685 236.5,-679 242.5,-673 248.5,-673 248.5,-673 314.5,-673 314.5,-673 320.5,-673 326.5,-679 326.5,-685 326.5,-685 326.5,-699 326.5,-699 326.5,-705 320.5,-711 314.5,-711"/>
<text text-anchor="middle" x="281.5" y="-695.8" font-family="Times,serif" font-size="14.00">doomed.io</text>
<text text-anchor="middle" x="281.5" y="-680.8" font-family="Times,serif" font-size="14.00">Ginoda</text>
</g>
<!-- moomoo.io&#45;&gt;doomed.io -->
<g id="edge30" class="edge">
<title>moomoo.io&#45;&gt;doomed.io</title>
<path fill="none" stroke="black" d="M380.23,-894.84C357.87,-871.52 320.5,-828.79 300.5,-785 291.22,-764.69 286.43,-739.8 283.99,-721.03"/>
<polygon fill="black" stroke="black" points="287.46,-720.56 282.83,-711.03 280.5,-721.37 287.46,-720.56"/>
</g>
<!-- surviv.io -->
<g id="node78" class="node">
<title>surviv.io</title>
<path fill="#fff176" stroke="#fff176" d="M485.5,-785C485.5,-785 321.5,-785 321.5,-785 315.5,-785 309.5,-779 309.5,-773 309.5,-773 309.5,-759 309.5,-759 309.5,-753 315.5,-747 321.5,-747 321.5,-747 485.5,-747 485.5,-747 491.5,-747 497.5,-753 497.5,-759 497.5,-759 497.5,-773 497.5,-773 497.5,-779 491.5,-785 485.5,-785"/>
<text text-anchor="middle" x="403.5" y="-769.8" font-family="Times,serif" font-size="14.00">surviv.io</text>
<text text-anchor="middle" x="403.5" y="-754.8" font-family="Times,serif" font-size="14.00">Justin Kim &amp; Nick Clark</text>
</g>
<!-- moomoo.io&#45;&gt;surviv.io -->
<g id="edge34" class="edge">
<title>moomoo.io&#45;&gt;surviv.io</title>
<path fill="none" stroke="black" d="M399.12,-894.8C399.98,-869.89 401.52,-824.89 402.52,-795.49"/>
<polygon fill="black" stroke="black" points="406.02,-795.54 402.87,-785.43 399.03,-795.3 406.02,-795.54"/>
</g>
<!-- devast.io -->
<g id="node75" class="node">
<title>devast.io</title>
<path fill="#90caf9" stroke="#90caf9" d="M960,-481.5C960,-481.5 885,-481.5 885,-481.5 879,-481.5 873,-475.5 873,-469.5 873,-469.5 873,-455.5 873,-455.5 873,-449.5 879,-443.5 885,-443.5 885,-443.5 960,-443.5 960,-443.5 966,-443.5 972,-449.5 972,-455.5 972,-455.5 972,-469.5 972,-469.5 972,-475.5 966,-481.5 960,-481.5"/>
<text text-anchor="middle" x="922.5" y="-466.3" font-family="Times,serif" font-size="14.00">devast.io</text>
<text text-anchor="middle" x="922.5" y="-451.3" font-family="Times,serif" font-size="14.00">LapaMauve</text>
</g>
<!-- starve.io&#45;&gt;devast.io -->
<g id="edge33" class="edge">
<title>starve.io&#45;&gt;devast.io</title>
<path fill="none" stroke="black" d="M856.19,-895.46C873.58,-886.99 891.7,-875.08 903.5,-859 928.21,-825.34 922.5,-808.75 922.5,-767 922.5,-767 922.5,-767 922.5,-617 922.5,-573.38 922.5,-522.78 922.5,-491.96"/>
<polygon fill="black" stroke="black" points="926,-491.93 922.5,-481.93 919,-491.93 926,-491.93"/>
</g>
<!-- stabby.io -->
<g id="node51" class="node">
<title>stabby.io</title>
<path fill="#90caf9" stroke="#90caf9" d="M2497,-859C2497,-859 2434,-859 2434,-859 2428,-859 2422,-853 2422,-847 2422,-847 2422,-833 2422,-833 2422,-827 2428,-821 2434,-821 2434,-821 2497,-821 2497,-821 2503,-821 2509,-827 2509,-833 2509,-833 2509,-847 2509,-847 2509,-853 2503,-859 2497,-859"/>
<text text-anchor="middle" x="2465.5" y="-843.8" font-family="Times,serif" font-size="14.00">stabby.io</text>
<text text-anchor="middle" x="2465.5" y="-828.8" font-family="Times,serif" font-size="14.00">SoulFoam</text>
</g>
<!-- zombsroyale.io -->
<g id="node80" class="node">
<title>zombsroyale.io</title>
<path fill="#fff176" stroke="#fff176" d="M575.5,-637C575.5,-637 475.5,-637 475.5,-637 469.5,-637 463.5,-631 463.5,-625 463.5,-625 463.5,-611 463.5,-611 463.5,-605 469.5,-599 475.5,-599 475.5,-599 575.5,-599 575.5,-599 581.5,-599 587.5,-605 587.5,-611 587.5,-611 587.5,-625 587.5,-625 587.5,-631 581.5,-637 575.5,-637"/>
<text text-anchor="middle" x="525.5" y="-621.8" font-family="Times,serif" font-size="14.00">zombsroyale.io</text>
<text text-anchor="middle" x="525.5" y="-606.8" font-family="Times,serif" font-size="14.00">Yang Lui</text>
</g>
<!-- zombs.io&#45;&gt;zombsroyale.io -->
<g id="edge36" class="edge">
<title>zombs.io&#45;&gt;zombsroyale.io</title>
<path fill="none" stroke="black" d="M498.51,-820.62C501.2,-810.23 504.38,-796.96 506.5,-785 514.99,-737.01 520.52,-680.51 523.32,-647.34"/>
<polygon fill="black" stroke="black" points="526.83,-647.29 524.16,-637.04 519.86,-646.72 526.83,-647.29"/>
</g>
<!-- superspin.io -->
<g id="node54" class="node">
<title>superspin.io</title>
<path fill="#90caf9" stroke="#90caf9" d="M882.5,-859C882.5,-859 802.5,-859 802.5,-859 796.5,-859 790.5,-853 790.5,-847 790.5,-847 790.5,-833 790.5,-833 790.5,-827 796.5,-821 802.5,-821 802.5,-821 882.5,-821 882.5,-821 888.5,-821 894.5,-827 894.5,-833 894.5,-833 894.5,-847 894.5,-847 894.5,-853 888.5,-859 882.5,-859"/>
<text text-anchor="middle" x="842.5" y="-843.8" font-family="Times,serif" font-size="14.00">superspin.io</text>
<text text-anchor="middle" x="842.5" y="-828.8" font-family="Times,serif" font-size="14.00">Jetti Games</text>
</g>
<!-- spinz.io&#45;&gt;superspin.io -->
<g id="edge47" class="edge">
<title>spinz.io&#45;&gt;superspin.io</title>
<path fill="none" stroke="black" d="M624.38,-859.17C634.23,-866.23 646.28,-873.38 658.5,-877 707.08,-891.39 723.32,-889.2 772.5,-877 783.63,-874.24 794.95,-869.35 805.14,-864"/>
<polygon fill="black" stroke="black" points="807.09,-866.92 814.15,-859.02 803.7,-860.8 807.09,-866.92"/>
</g>
<!-- fisp.io -->
<g id="node55" class="node">
<title>fisp.io</title>
<path fill="#90caf9" stroke="#90caf9" d="M760.5,-859C760.5,-859 670.5,-859 670.5,-859 664.5,-859 658.5,-853 658.5,-847 658.5,-847 658.5,-833 658.5,-833 658.5,-827 664.5,-821 670.5,-821 670.5,-821 760.5,-821 760.5,-821 766.5,-821 772.5,-827 772.5,-833 772.5,-833 772.5,-847 772.5,-847 772.5,-853 766.5,-859 760.5,-859"/>
<text text-anchor="middle" x="715.5" y="-843.8" font-family="Times,serif" font-size="14.00">fisp.io</text>
<text text-anchor="middle" x="715.5" y="-828.8" font-family="Times,serif" font-size="14.00">Clown Games</text>
</g>
<!-- spinz.io&#45;&gt;fisp.io -->
<g id="edge46" class="edge">
<title>spinz.io&#45;&gt;fisp.io</title>
<path fill="none" stroke="black" d="M640.69,-840C643.15,-840 645.62,-840 648.08,-840"/>
<polygon fill="black" stroke="black" points="648.22,-843.5 658.22,-840 648.22,-836.5 648.22,-843.5"/>
</g>
<!-- goons.io -->
<g id="node58" class="node">
<title>goons.io</title>
<path fill="#90caf9" stroke="#90caf9" d="M2020.5,-785C2020.5,-785 1930.5,-785 1930.5,-785 1924.5,-785 1918.5,-779 1918.5,-773 1918.5,-773 1918.5,-759 1918.5,-759 1918.5,-753 1924.5,-747 1930.5,-747 1930.5,-747 2020.5,-747 2020.5,-747 2026.5,-747 2032.5,-753 2032.5,-759 2032.5,-759 2032.5,-773 2032.5,-773 2032.5,-779 2026.5,-785 2020.5,-785"/>
<text text-anchor="middle" x="1975.5" y="-769.8" font-family="Times,serif" font-size="14.00">goons.io</text>
<text text-anchor="middle" x="1975.5" y="-754.8" font-family="Times,serif" font-size="14.00">Clown Games</text>
</g>
<!-- pikes.io&#45;&gt;goons.io -->
<g id="edge59" class="edge">
<title>pikes.io&#45;&gt;goons.io</title>
<path fill="none" stroke="black" d="M1975.5,-820.83C1975.5,-813.13 1975.5,-803.97 1975.5,-795.42"/>
<polygon fill="black" stroke="black" points="1979,-795.41 1975.5,-785.41 1972,-795.41 1979,-795.41"/>
</g>
<!-- knuckol.club -->
<g id="node68" class="node">
<title>knuckol.club</title>
<path fill="#90caf9" stroke="#90caf9" d="M2016.5,-637C2016.5,-637 1934.5,-637 1934.5,-637 1928.5,-637 1922.5,-631 1922.5,-625 1922.5,-625 1922.5,-611 1922.5,-611 1922.5,-605 1928.5,-599 1934.5,-599 1934.5,-599 2016.5,-599 2016.5,-599 2022.5,-599 2028.5,-605 2028.5,-611 2028.5,-611 2028.5,-625 2028.5,-625 2028.5,-631 2022.5,-637 2016.5,-637"/>
<text text-anchor="middle" x="1975.5" y="-621.8" font-family="Times,serif" font-size="14.00">knuckol.club</text>
<text text-anchor="middle" x="1975.5" y="-606.8" font-family="Times,serif" font-size="14.00">Erigato</text>
</g>
<!-- goons.io&#45;&gt;knuckol.club -->
<g id="edge60" class="edge">
<title>goons.io&#45;&gt;knuckol.club</title>
<path fill="none" stroke="black" d="M1975.5,-746.8C1975.5,-721.89 1975.5,-676.89 1975.5,-647.49"/>
<polygon fill="black" stroke="black" points="1979,-647.43 1975.5,-637.43 1972,-647.43 1979,-647.43"/>
</g>
<!-- shootem.io -->
<g id="node67" class="node">
<title>shootem.io</title>
<path fill="#90caf9" stroke="#90caf9" d="M1090.5,-637C1090.5,-637 962.5,-637 962.5,-637 956.5,-637 950.5,-631 950.5,-625 950.5,-625 950.5,-611 950.5,-611 950.5,-605 956.5,-599 962.5,-599 962.5,-599 1090.5,-599 1090.5,-599 1096.5,-599 1102.5,-605 1102.5,-611 1102.5,-611 1102.5,-625 1102.5,-625 1102.5,-631 1096.5,-637 1090.5,-637"/>
<text text-anchor="middle" x="1026.5" y="-621.8" font-family="Times,serif" font-size="14.00">shootem.io</text>
<text text-anchor="middle" x="1026.5" y="-606.8" font-family="Times,serif" font-size="14.00">Mathew Matakovic</text>
</g>
<!-- nightpoint.io&#45;&gt;shootem.io -->
<g id="edge41" class="edge">
<title>nightpoint.io&#45;&gt;shootem.io</title>
<path fill="none" stroke="black" d="M1081.18,-746.91C1068.28,-737.73 1054.24,-725.44 1045.5,-711 1033.87,-691.78 1029.25,-666.61 1027.47,-647.46"/>
<polygon fill="black" stroke="black" points="1030.94,-646.96 1026.73,-637.24 1023.96,-647.47 1030.94,-646.96"/>
</g>
<!-- bruh.io -->
<g id="node79" class="node">
<title>bruh.io</title>
<path fill="#fff176" stroke="#fff176" d="M1156,-711C1156,-711 1067,-711 1067,-711 1061,-711 1055,-705 1055,-699 1055,-699 1055,-685 1055,-685 1055,-679 1061,-673 1067,-673 1067,-673 1156,-673 1156,-673 1162,-673 1168,-679 1168,-685 1168,-685 1168,-699 1168,-699 1168,-705 1162,-711 1156,-711"/>
<text text-anchor="middle" x="1111.5" y="-695.8" font-family="Times,serif" font-size="14.00">bruh.io</text>
<text text-anchor="middle" x="1111.5" y="-680.8" font-family="Times,serif" font-size="14.00">Bitfox Games</text>
</g>
<!-- nightpoint.io&#45;&gt;bruh.io -->
<g id="edge40" class="edge">
<title>nightpoint.io&#45;&gt;bruh.io</title>
<path fill="none" stroke="black" d="M1111.5,-746.83C1111.5,-739.13 1111.5,-729.97 1111.5,-721.42"/>
<polygon fill="black" stroke="black" points="1115,-721.41 1111.5,-711.41 1108,-721.41 1115,-721.41"/>
</g>
<!-- battlepoint.io -->
<g id="node82" class="node">
<title>battlepoint.io</title>
<path fill="#fff176" stroke="#fff176" d="M1215,-481.5C1215,-481.5 1126,-481.5 1126,-481.5 1120,-481.5 1114,-475.5 1114,-469.5 1114,-469.5 1114,-455.5 1114,-455.5 1114,-449.5 1120,-443.5 1126,-443.5 1126,-443.5 1215,-443.5 1215,-443.5 1221,-443.5 1227,-449.5 1227,-455.5 1227,-455.5 1227,-469.5 1227,-469.5 1227,-475.5 1221,-481.5 1215,-481.5"/>
<text text-anchor="middle" x="1170.5" y="-466.3" font-family="Times,serif" font-size="14.00">battlepoint.io</text>
<text text-anchor="middle" x="1170.5" y="-451.3" font-family="Times,serif" font-size="14.00">Sarunas</text>
</g>
<!-- nightpoint.io&#45;&gt;battlepoint.io -->
<g id="edge39" class="edge">
<title>nightpoint.io&#45;&gt;battlepoint.io</title>
<path fill="none" stroke="black" d="M1143.78,-746.84C1156.44,-737.85 1169.58,-725.74 1176.5,-711 1210.71,-638.11 1191.64,-539.37 1178.95,-491.64"/>
<polygon fill="black" stroke="black" points="1182.24,-490.42 1176.2,-481.72 1175.5,-492.29 1182.24,-490.42"/>
</g>
<!-- doomed2.io -->
<g id="node70" class="node">
<title>doomed2.io</title>
<path fill="#90caf9" stroke="#90caf9" d="M319,-637C319,-637 244,-637 244,-637 238,-637 232,-631 232,-625 232,-625 232,-611 232,-611 232,-605 238,-599 244,-599 244,-599 319,-599 319,-599 325,-599 331,-605 331,-611 331,-611 331,-625 331,-625 331,-631 325,-637 319,-637"/>
<text text-anchor="middle" x="281.5" y="-621.8" font-family="Times,serif" font-size="14.00">doomed2.io</text>
<text text-anchor="middle" x="281.5" y="-606.8" font-family="Times,serif" font-size="14.00">Ginoda</text>
</g>
<!-- doomed.io&#45;&gt;doomed2.io -->
<g id="edge31" class="edge">
<title>doomed.io&#45;&gt;doomed2.io</title>
<path fill="none" stroke="black" d="M281.5,-672.83C281.5,-665.13 281.5,-655.97 281.5,-647.42"/>
<polygon fill="black" stroke="black" points="285,-647.41 281.5,-637.41 278,-647.41 285,-647.41"/>
</g>
<!-- shellshock.io -->
<g id="node64" class="node">
<title>shellshock.io</title>
<path fill="#90caf9" stroke="#90caf9" d="M2517.5,-710C2517.5,-710 2433.5,-710 2433.5,-710 2427.5,-710 2421.5,-704 2421.5,-698 2421.5,-698 2421.5,-686 2421.5,-686 2421.5,-680 2427.5,-674 2433.5,-674 2433.5,-674 2517.5,-674 2517.5,-674 2523.5,-674 2529.5,-680 2529.5,-686 2529.5,-686 2529.5,-698 2529.5,-698 2529.5,-704 2523.5,-710 2517.5,-710"/>
<text text-anchor="middle" x="2475.5" y="-688.3" font-family="Times,serif" font-size="14.00">shellshock.io</text>
</g>
<!-- krunker.io -->
<g id="node73" class="node">
<title>krunker.io</title>
<path fill="#90caf9" stroke="#90caf9" d="M2635.5,-563C2635.5,-563 2527.5,-563 2527.5,-563 2521.5,-563 2515.5,-557 2515.5,-551 2515.5,-551 2515.5,-537 2515.5,-537 2515.5,-531 2521.5,-525 2527.5,-525 2527.5,-525 2635.5,-525 2635.5,-525 2641.5,-525 2647.5,-531 2647.5,-537 2647.5,-537 2647.5,-551 2647.5,-551 2647.5,-557 2641.5,-563 2635.5,-563"/>
<text text-anchor="middle" x="2581.5" y="-547.8" font-family="Times,serif" font-size="14.00">krunker.io</text>
<text text-anchor="middle" x="2581.5" y="-532.8" font-family="Times,serif" font-size="14.00">Sydney de Vries</text>
</g>
<!-- shellshock.io&#45;&gt;krunker.io -->
<g id="edge55" class="edge">
<title>shellshock.io&#45;&gt;krunker.io</title>
<path fill="none" stroke="black" d="M2487.87,-673.97C2506.16,-648.77 2540.59,-601.35 2562.21,-571.56"/>
<polygon fill="black" stroke="black" points="2565.17,-573.45 2568.22,-563.3 2559.51,-569.33 2565.17,-573.45"/>
</g>
<!-- warscrap.io -->
<g id="node65" class="node">
<title>warscrap.io</title>
<path fill="#90caf9" stroke="#90caf9" d="M2635.5,-711C2635.5,-711 2559.5,-711 2559.5,-711 2553.5,-711 2547.5,-705 2547.5,-699 2547.5,-699 2547.5,-685 2547.5,-685 2547.5,-679 2553.5,-673 2559.5,-673 2559.5,-673 2635.5,-673 2635.5,-673 2641.5,-673 2647.5,-679 2647.5,-685 2647.5,-685 2647.5,-699 2647.5,-699 2647.5,-705 2641.5,-711 2635.5,-711"/>
<text text-anchor="middle" x="2597.5" y="-695.8" font-family="Times,serif" font-size="14.00">warscrap.io</text>
<text text-anchor="middle" x="2597.5" y="-680.8" font-family="Times,serif" font-size="14.00">Evil Noob</text>
</g>
<!-- warscrap.io&#45;&gt;krunker.io -->
<g id="edge54" class="edge">
<title>warscrap.io&#45;&gt;krunker.io</title>
<path fill="none" stroke="black" d="M2595.51,-672.8C2592.78,-647.89 2587.84,-602.89 2584.62,-573.49"/>
<polygon fill="black" stroke="black" points="2588.09,-572.98 2583.52,-563.43 2581.13,-573.75 2588.09,-572.98"/>
</g>
<!-- airma.sh -->
<g id="node66" class="node">
<title>airma.sh</title>
<path fill="#90caf9" stroke="#90caf9" d="M2750,-710C2750,-710 2695,-710 2695,-710 2689,-710 2683,-704 2683,-698 2683,-698 2683,-686 2683,-686 2683,-680 2689,-674 2695,-674 2695,-674 2750,-674 2750,-674 2756,-674 2762,-680 2762,-686 2762,-686 2762,-698 2762,-698 2762,-704 2756,-710 2750,-710"/>
<text text-anchor="middle" x="2722.5" y="-688.3" font-family="Times,serif" font-size="14.00">airma.sh</text>
</g>
<!-- skyroyale.io -->
<g id="node81" class="node">
<title>skyroyale.io</title>
<path fill="#fff176" stroke="#fff176" d="M2767.5,-563C2767.5,-563 2677.5,-563 2677.5,-563 2671.5,-563 2665.5,-557 2665.5,-551 2665.5,-551 2665.5,-537 2665.5,-537 2665.5,-531 2671.5,-525 2677.5,-525 2677.5,-525 2767.5,-525 2767.5,-525 2773.5,-525 2779.5,-531 2779.5,-537 2779.5,-537 2779.5,-551 2779.5,-551 2779.5,-557 2773.5,-563 2767.5,-563"/>
<text text-anchor="middle" x="2722.5" y="-547.8" font-family="Times,serif" font-size="14.00">skyroyale.io</text>
<text text-anchor="middle" x="2722.5" y="-532.8" font-family="Times,serif" font-size="14.00">Clown Games</text>
</g>
<!-- airma.sh&#45;&gt;skyroyale.io -->
<g id="edge61" class="edge">
<title>airma.sh&#45;&gt;skyroyale.io</title>
<path fill="none" stroke="black" d="M2722.5,-673.97C2722.5,-649.31 2722.5,-603.38 2722.5,-573.51"/>
<polygon fill="black" stroke="black" points="2726,-573.3 2722.5,-563.3 2719,-573.3 2726,-573.3"/>
</g>
<!-- nend.io -->
<g id="node69" class="node">
<title>nend.io</title>
<path fill="#90caf9" stroke="#90caf9" d="M2838,-637C2838,-637 2763,-637 2763,-637 2757,-637 2751,-631 2751,-625 2751,-625 2751,-611 2751,-611 2751,-605 2757,-599 2763,-599 2763,-599 2838,-599 2838,-599 2844,-599 2850,-605 2850,-611 2850,-611 2850,-625 2850,-625 2850,-631 2844,-637 2838,-637"/>
<text text-anchor="middle" x="2800.5" y="-621.8" font-family="Times,serif" font-size="14.00">nend.io</text>
<text text-anchor="middle" x="2800.5" y="-606.8" font-family="Times,serif" font-size="14.00">LapaMauve</text>
</g>
<!-- acolytefight.io -->
<g id="node76" class="node">
<title>acolytefight.io</title>
<path fill="#90caf9" stroke="#90caf9" d="M2384,-400C2384,-400 2269,-400 2269,-400 2263,-400 2257,-394 2257,-388 2257,-388 2257,-374 2257,-374 2257,-368 2263,-362 2269,-362 2269,-362 2384,-362 2384,-362 2390,-362 2396,-368 2396,-374 2396,-374 2396,-388 2396,-388 2396,-394 2390,-400 2384,-400"/>
<text text-anchor="middle" x="2326.5" y="-384.8" font-family="Times,serif" font-size="14.00">acolytefight.io</text>
<text text-anchor="middle" x="2326.5" y="-369.8" font-family="Times,serif" font-size="14.00">raysplaceinspace</text>
</g>
<!-- bruh.io&#45;&gt;battlepoint.io -->
<g id="edge42" class="edge">
<title>bruh.io&#45;&gt;battlepoint.io</title>
<path fill="none" stroke="black" d="M1116.23,-672.77C1126.52,-633.07 1151.03,-538.58 1163.27,-491.36"/>
<polygon fill="black" stroke="black" points="1166.71,-492.06 1165.83,-481.5 1159.93,-490.3 1166.71,-492.06"/>
</g>
<!-- buildroyale.io -->
<g id="node83" class="node">
<title>buildroyale.io</title>
<path fill="#fff176" stroke="#fff176" d="M589.5,-400C589.5,-400 461.5,-400 461.5,-400 455.5,-400 449.5,-394 449.5,-388 449.5,-388 449.5,-374 449.5,-374 449.5,-368 455.5,-362 461.5,-362 461.5,-362 589.5,-362 589.5,-362 595.5,-362 601.5,-368 601.5,-374 601.5,-374 601.5,-388 601.5,-388 601.5,-394 595.5,-400 589.5,-400"/>
<text text-anchor="middle" x="525.5" y="-384.8" font-family="Times,serif" font-size="14.00">buildroyale.io</text>
<text text-anchor="middle" x="525.5" y="-369.8" font-family="Times,serif" font-size="14.00">Mathew Matakovic</text>
</g>
<!-- zombsroyale.io&#45;&gt;buildroyale.io -->
<g id="edge37" class="edge">
<title>zombsroyale.io&#45;&gt;buildroyale.io</title>
<path fill="none" stroke="black" d="M525.5,-598.95C525.5,-558.28 525.5,-459.23 525.5,-410.31"/>
<polygon fill="black" stroke="black" points="529,-410.11 525.5,-400.11 522,-410.11 529,-410.11"/>
</g>
</g>
</svg>
