<?xml version="1.0" encoding="UTF-8" standalone="no"?>
<!DOCTYPE svg PUBLIC "-//W3C//DTD SVG 1.1//EN"
 "http://www.w3.org/Graphics/SVG/1.1/DTD/svg11.dtd">
<!-- Generated by graphviz version 2.44.1 (20200629.0846)
 -->
<!-- Title: iogames Pages: 1 -->
<svg width="2671pt" height="2032pt"
 viewBox="0.00 0.00 2670.50 2032.00" xmlns="http://www.w3.org/2000/svg" xmlns:xlink="http://www.w3.org/1999/xlink">
<g id="graph0" class="graph" transform="scale(1 1) rotate(0) translate(4 2028)">
<title>iogames</title>
<polygon fill="white" stroke="transparent" points="-4,4 -4,-2028 2666.5,-2028 2666.5,4 -4,4"/>
<text text-anchor="start" x="1203.25" y="-1997" font-family="Times,serif" font-weight="bold" text-decoration="underline" font-size="30.00">History of .io games</text>
<text text-anchor="start" x="1279.75" y="-1965.8" font-family="Times,serif" font-size="14.00">by </text>
<text text-anchor="start" x="1297.75" y="-1965.8" font-family="Times,serif" font-weight="bold" font-size="14.00">Julien Mourer</text>
<text text-anchor="start" x="1246.75" y="-1951.8" font-family="Times,serif" font-size="14.00">Licensed under the CC BY 4.0</text>
<text text-anchor="start" x="1215.75" y="-1937.8" font-family="Times,serif" font-size="14.00">https://github.com/getkey/io&#45;game&#45;history</text>
<!-- 2009q3 -->
<g id="node1" class="node">
<title>2009q3</title>
<text text-anchor="middle" x="42.5" y="-1907" font-family="Times,serif" font-size="20.00">Q3 2009</text>
</g>
<!-- 2009q4 -->
<g id="node2" class="node">
<title>2009q4</title>
<text text-anchor="middle" x="42.5" y="-1835" font-family="Times,serif" font-size="20.00">Q4 2009</text>
</g>
<!-- 2009q3&#45;&gt;2009q4 -->
<!-- 2010q1 -->
<g id="node3" class="node">
<title>2010q1</title>
<text text-anchor="middle" x="42.5" y="-1762" font-family="Times,serif" font-size="20.00">Q1 2010</text>
</g>
<!-- 2009q4&#45;&gt;2010q1 -->
<!-- ... -->
<g id="node26" class="node">
<title>...</title>
<text text-anchor="middle" x="42.5" y="-1689" font-family="Times,serif" font-size="20.00">...</text>
</g>
<!-- 2010q1&#45;&gt;... -->
<!-- 2014q4 -->
<g id="node4" class="node">
<title>2014q4</title>
<text text-anchor="middle" x="42.5" y="-1616" font-family="Times,serif" font-size="20.00">Q4 2014</text>
</g>
<!-- 2015q1 -->
<g id="node5" class="node">
<title>2015q1</title>
<text text-anchor="middle" x="42.5" y="-1543" font-family="Times,serif" font-size="20.00">Q1 2015</text>
</g>
<!-- 2014q4&#45;&gt;2015q1 -->
<!-- 2015q2 -->
<g id="node6" class="node">
<title>2015q2</title>
<text text-anchor="middle" x="42.5" y="-1470" font-family="Times,serif" font-size="20.00">Q2 2015</text>
</g>
<!-- 2015q1&#45;&gt;2015q2 -->
<!-- 2015q3 -->
<g id="node7" class="node">
<title>2015q3</title>
<text text-anchor="middle" x="42.5" y="-1397" font-family="Times,serif" font-size="20.00">Q3 2015</text>
</g>
<!-- 2015q2&#45;&gt;2015q3 -->
<!-- 2015q4 -->
<g id="node8" class="node">
<title>2015q4</title>
<text text-anchor="middle" x="42.5" y="-1324" font-family="Times,serif" font-size="20.00">Q4 2015</text>
</g>
<!-- 2015q3&#45;&gt;2015q4 -->
<!-- 2016q1 -->
<g id="node9" class="node">
<title>2016q1</title>
<text text-anchor="middle" x="42.5" y="-1250" font-family="Times,serif" font-size="20.00">Q1 2016</text>
</g>
<!-- 2015q4&#45;&gt;2016q1 -->
<!-- 2016q2 -->
<g id="node10" class="node">
<title>2016q2</title>
<text text-anchor="middle" x="42.5" y="-1176" font-family="Times,serif" font-size="20.00">Q2 2016</text>
</g>
<!-- 2016q1&#45;&gt;2016q2 -->
<!-- 2016q3 -->
<g id="node11" class="node">
<title>2016q3</title>
<text text-anchor="middle" x="42.5" y="-1102" font-family="Times,serif" font-size="20.00">Q3 2016</text>
</g>
<!-- 2016q2&#45;&gt;2016q3 -->
<!-- 2016q4 -->
<g id="node12" class="node">
<title>2016q4</title>
<text text-anchor="middle" x="42.5" y="-1020.5" font-family="Times,serif" font-size="20.00">Q4 2016</text>
</g>
<!-- 2016q3&#45;&gt;2016q4 -->
<!-- 2017q1 -->
<g id="node13" class="node">
<title>2017q1</title>
<text text-anchor="middle" x="42.5" y="-939" font-family="Times,serif" font-size="20.00">Q1 2017</text>
</g>
<!-- 2016q4&#45;&gt;2017q1 -->
<!-- 2017q2 -->
<g id="node14" class="node">
<title>2017q2</title>
<text text-anchor="middle" x="42.5" y="-865" font-family="Times,serif" font-size="20.00">Q2 2017</text>
</g>
<!-- 2017q1&#45;&gt;2017q2 -->
<!-- 2017q3 -->
<g id="node15" class="node">
<title>2017q3</title>
<text text-anchor="middle" x="42.5" y="-783.5" font-family="Times,serif" font-size="20.00">Q3 2017</text>
</g>
<!-- 2017q2&#45;&gt;2017q3 -->
<!-- 2017q4 -->
<g id="node16" class="node">
<title>2017q4</title>
<text text-anchor="middle" x="42.5" y="-694.5" font-family="Times,serif" font-size="20.00">Q4 2017</text>
</g>
<!-- 2017q3&#45;&gt;2017q4 -->
<!-- 2018q1 -->
<g id="node17" class="node">
<title>2018q1</title>
<text text-anchor="middle" x="42.5" y="-613" font-family="Times,serif" font-size="20.00">Q1 2018</text>
</g>
<!-- 2017q4&#45;&gt;2018q1 -->
<!-- 2018q2 -->
<g id="node18" class="node">
<title>2018q2</title>
<text text-anchor="middle" x="42.5" y="-539" font-family="Times,serif" font-size="20.00">Q2 2018</text>
</g>
<!-- 2018q1&#45;&gt;2018q2 -->
<!-- 2018q3 -->
<g id="node19" class="node">
<title>2018q3</title>
<text text-anchor="middle" x="42.5" y="-457.5" font-family="Times,serif" font-size="20.00">Q3 2018</text>
</g>
<!-- 2018q2&#45;&gt;2018q3 -->
<!-- 2018q4 -->
<g id="node20" class="node">
<title>2018q4</title>
<text text-anchor="middle" x="42.5" y="-376" font-family="Times,serif" font-size="20.00">Q4 2018</text>
</g>
<!-- 2018q3&#45;&gt;2018q4 -->
<!-- 2019q1 -->
<g id="node21" class="node">
<title>2019q1</title>
<text text-anchor="middle" x="42.5" y="-303" font-family="Times,serif" font-size="20.00">Q1 2019</text>
</g>
<!-- 2018q4&#45;&gt;2019q1 -->
<!-- 2019q2 -->
<g id="node22" class="node">
<title>2019q2</title>
<text text-anchor="middle" x="42.5" y="-231" font-family="Times,serif" font-size="20.00">Q2 2019</text>
</g>
<!-- 2019q1&#45;&gt;2019q2 -->
<!-- 2019q3 -->
<g id="node23" class="node">
<title>2019q3</title>
<text text-anchor="middle" x="42.5" y="-159" font-family="Times,serif" font-size="20.00">Q3 2019</text>
</g>
<!-- 2019q2&#45;&gt;2019q3 -->
<!-- 2019q4 -->
<g id="node24" class="node">
<title>2019q4</title>
<text text-anchor="middle" x="42.5" y="-87" font-family="Times,serif" font-size="20.00">Q4 2019</text>
</g>
<!-- 2019q3&#45;&gt;2019q4 -->
<!-- 2020q1 -->
<g id="node25" class="node">
<title>2020q1</title>
<text text-anchor="middle" x="42.5" y="-14" font-family="Times,serif" font-size="20.00">Q1 2020</text>
</g>
<!-- 2019q4&#45;&gt;2020q1 -->
<!-- ...&#45;&gt;2014q4 -->
<!-- pinturillo.com -->
<g id="node27" class="node">
<title>pinturillo.com</title>
<path fill="#e1fa91" stroke="#e1fa91" d="M186,-1930C186,-1930 115,-1930 115,-1930 109,-1930 103,-1924 103,-1918 103,-1918 103,-1906 103,-1906 103,-1900 109,-1894 115,-1894 115,-1894 186,-1894 186,-1894 192,-1894 198,-1900 198,-1906 198,-1906 198,-1918 198,-1918 198,-1924 192,-1930 186,-1930"/>
<text text-anchor="middle" x="150.5" y="-1908.3" font-family="Times,serif" font-size="14.00">pinturillo.com</text>
</g>
<!-- pinturillo2.com -->
<g id="node28" class="node">
<title>pinturillo2.com</title>
<path fill="#e1fa91" stroke="#e1fa91" d="M305,-1930C305,-1930 228,-1930 228,-1930 222,-1930 216,-1924 216,-1918 216,-1918 216,-1906 216,-1906 216,-1900 222,-1894 228,-1894 228,-1894 305,-1894 305,-1894 311,-1894 317,-1900 317,-1906 317,-1906 317,-1918 317,-1918 317,-1924 311,-1930 305,-1930"/>
<text text-anchor="middle" x="266.5" y="-1908.3" font-family="Times,serif" font-size="14.00">pinturillo2.com</text>
</g>
<!-- pinturillo.com&#45;&gt;pinturillo2.com -->
<g id="edge63" class="edge">
<title>pinturillo.com&#45;&gt;pinturillo2.com</title>
<path fill="none" stroke="black" d="M198.08,-1912C200.69,-1912 203.3,-1912 205.91,-1912"/>
<polygon fill="black" stroke="black" points="205.99,-1915.5 215.99,-1912 205.99,-1908.5 205.99,-1915.5"/>
</g>
<!-- Gartic -->
<g id="node29" class="node">
<title>Gartic</title>
<path fill="#e1fa91" stroke="#e1fa91" d="M165.5,-1786C165.5,-1786 135.5,-1786 135.5,-1786 129.5,-1786 123.5,-1780 123.5,-1774 123.5,-1774 123.5,-1760 123.5,-1760 123.5,-1754 129.5,-1748 135.5,-1748 135.5,-1748 165.5,-1748 165.5,-1748 171.5,-1748 177.5,-1754 177.5,-1760 177.5,-1760 177.5,-1774 177.5,-1774 177.5,-1780 171.5,-1786 165.5,-1786"/>
<text text-anchor="middle" x="150.5" y="-1770.8" font-family="Times,serif" font-size="14.00">Gartic</text>
<text text-anchor="middle" x="150.5" y="-1755.8" font-family="Times,serif" font-size="14.00">Gartic</text>
</g>
<!-- pinturillo.com&#45;&gt;Gartic -->
<g id="edge67" class="edge">
<title>pinturillo.com&#45;&gt;Gartic</title>
<path fill="none" stroke="black" d="M150.5,-1893.75C150.5,-1869.64 150.5,-1825.57 150.5,-1796.53"/>
<polygon fill="black" stroke="black" points="154,-1796.21 150.5,-1786.21 147,-1796.21 154,-1796.21"/>
</g>
<!-- drawthis.io -->
<g id="node48" class="node">
<title>drawthis.io</title>
<path fill="#90caf9" stroke="#90caf9" d="M250,-1125C250,-1125 197,-1125 197,-1125 191,-1125 185,-1119 185,-1113 185,-1113 185,-1101 185,-1101 185,-1095 191,-1089 197,-1089 197,-1089 250,-1089 250,-1089 256,-1089 262,-1095 262,-1101 262,-1101 262,-1113 262,-1113 262,-1119 256,-1125 250,-1125"/>
<text text-anchor="middle" x="223.5" y="-1103.3" font-family="Times,serif" font-size="14.00">drawthis.io</text>
</g>
<!-- pinturillo2.com&#45;&gt;drawthis.io -->
<g id="edge64" class="edge">
<title>pinturillo2.com&#45;&gt;drawthis.io</title>
<path fill="none" stroke="black" d="M261.56,-1894C254.28,-1867.38 241.5,-1814.12 241.5,-1768 241.5,-1768 241.5,-1768 241.5,-1254 241.5,-1212.38 234.2,-1164.57 228.9,-1135.33"/>
<polygon fill="black" stroke="black" points="232.33,-1134.63 227.06,-1125.44 225.45,-1135.92 232.33,-1134.63"/>
</g>
<!-- skribbl.io -->
<g id="node59" class="node">
<title>skribbl.io</title>
<path fill="#90caf9" stroke="#90caf9" d="M312.5,-963C312.5,-963 268.5,-963 268.5,-963 262.5,-963 256.5,-957 256.5,-951 256.5,-951 256.5,-937 256.5,-937 256.5,-931 262.5,-925 268.5,-925 268.5,-925 312.5,-925 312.5,-925 318.5,-925 324.5,-931 324.5,-937 324.5,-937 324.5,-951 324.5,-951 324.5,-957 318.5,-963 312.5,-963"/>
<text text-anchor="middle" x="290.5" y="-947.8" font-family="Times,serif" font-size="14.00">skribbl.io</text>
<text text-anchor="middle" x="290.5" y="-932.8" font-family="Times,serif" font-size="14.00">mel</text>
</g>
<!-- pinturillo2.com&#45;&gt;skribbl.io -->
<g id="edge66" class="edge">
<title>pinturillo2.com&#45;&gt;skribbl.io</title>
<path fill="none" stroke="black" d="M271.24,-1893.99C278.24,-1867.35 290.5,-1814.07 290.5,-1768 290.5,-1768 290.5,-1768 290.5,-1106 290.5,-1059.54 290.5,-1005.54 290.5,-973.38"/>
<polygon fill="black" stroke="black" points="294,-973.35 290.5,-963.35 287,-973.35 294,-973.35"/>
</g>
<!-- cursors.io -->
<g id="node30" class="node">
<title>cursors.io</title>
<path fill="#90caf9" stroke="#90caf9" d="M426.5,-1640C426.5,-1640 330.5,-1640 330.5,-1640 324.5,-1640 318.5,-1634 318.5,-1628 318.5,-1628 318.5,-1614 318.5,-1614 318.5,-1608 324.5,-1602 330.5,-1602 330.5,-1602 426.5,-1602 426.5,-1602 432.5,-1602 438.5,-1608 438.5,-1614 438.5,-1614 438.5,-1628 438.5,-1628 438.5,-1634 432.5,-1640 426.5,-1640"/>
<text text-anchor="middle" x="378.5" y="-1624.8" font-family="Times,serif" font-size="14.00">cursors.io</text>
<text text-anchor="middle" x="378.5" y="-1609.8" font-family="Times,serif" font-size="14.00">Matheus Valadares</text>
</g>
<!-- voar.io -->
<g id="node31" class="node">
<title>voar.io</title>
<path fill="#90caf9" stroke="#90caf9" d="M564.5,-1640C564.5,-1640 468.5,-1640 468.5,-1640 462.5,-1640 456.5,-1634 456.5,-1628 456.5,-1628 456.5,-1614 456.5,-1614 456.5,-1608 462.5,-1602 468.5,-1602 468.5,-1602 564.5,-1602 564.5,-1602 570.5,-1602 576.5,-1608 576.5,-1614 576.5,-1614 576.5,-1628 576.5,-1628 576.5,-1634 570.5,-1640 564.5,-1640"/>
<text text-anchor="middle" x="516.5" y="-1624.8" font-family="Times,serif" font-size="14.00">voar.io</text>
<text text-anchor="middle" x="516.5" y="-1609.8" font-family="Times,serif" font-size="14.00">Matheus Valadares</text>
</g>
<!-- agar.io -->
<g id="node32" class="node">
<title>agar.io</title>
<path fill="#90caf9" stroke="#90caf9" d="M679.5,-1494C679.5,-1494 583.5,-1494 583.5,-1494 577.5,-1494 571.5,-1488 571.5,-1482 571.5,-1482 571.5,-1468 571.5,-1468 571.5,-1462 577.5,-1456 583.5,-1456 583.5,-1456 679.5,-1456 679.5,-1456 685.5,-1456 691.5,-1462 691.5,-1468 691.5,-1468 691.5,-1482 691.5,-1482 691.5,-1488 685.5,-1494 679.5,-1494"/>
<text text-anchor="middle" x="631.5" y="-1478.8" font-family="Times,serif" font-size="14.00">agar.io</text>
<text text-anchor="middle" x="631.5" y="-1463.8" font-family="Times,serif" font-size="14.00">Matheus Valadares</text>
</g>
<!-- deeeep.io -->
<g id="node41" class="node">
<title>deeeep.io</title>
<path fill="#90caf9" stroke="#90caf9" d="M375.5,-1043.5C375.5,-1043.5 331.5,-1043.5 331.5,-1043.5 325.5,-1043.5 319.5,-1037.5 319.5,-1031.5 319.5,-1031.5 319.5,-1019.5 319.5,-1019.5 319.5,-1013.5 325.5,-1007.5 331.5,-1007.5 331.5,-1007.5 375.5,-1007.5 375.5,-1007.5 381.5,-1007.5 387.5,-1013.5 387.5,-1019.5 387.5,-1019.5 387.5,-1031.5 387.5,-1031.5 387.5,-1037.5 381.5,-1043.5 375.5,-1043.5"/>
<text text-anchor="middle" x="353.5" y="-1021.8" font-family="Times,serif" font-size="14.00">deeeep.io</text>
</g>
<!-- agar.io&#45;&gt;deeeep.io -->
<g id="edge53" class="edge">
<title>agar.io&#45;&gt;deeeep.io</title>
<path fill="none" stroke="black" d="M586.65,-1455.96C539.93,-1433.87 473.5,-1391.61 473.5,-1330 473.5,-1330 473.5,-1330 473.5,-1180 473.5,-1124.1 423.5,-1076.41 388.05,-1049.62"/>
<polygon fill="black" stroke="black" points="389.97,-1046.69 379.83,-1043.59 385.82,-1052.33 389.97,-1046.69"/>
</g>
<!-- pie.ai -->
<g id="node56" class="node">
<title>pie.ai</title>
<path fill="#90caf9" stroke="#90caf9" d="M638.5,-962C638.5,-962 608.5,-962 608.5,-962 602.5,-962 596.5,-956 596.5,-950 596.5,-950 596.5,-938 596.5,-938 596.5,-932 602.5,-926 608.5,-926 608.5,-926 638.5,-926 638.5,-926 644.5,-926 650.5,-932 650.5,-938 650.5,-938 650.5,-950 650.5,-950 650.5,-956 644.5,-962 638.5,-962"/>
<text text-anchor="middle" x="623.5" y="-940.3" font-family="Times,serif" font-size="14.00">pie.ai</text>
</g>
<!-- agar.io&#45;&gt;pie.ai -->
<g id="edge52" class="edge">
<title>agar.io&#45;&gt;pie.ai</title>
<path fill="none" stroke="black" d="M631.5,-1455.81C631.5,-1428.5 631.5,-1375.25 631.5,-1330 631.5,-1330 631.5,-1330 631.5,-1106 631.5,-1059.19 628.08,-1004.81 625.72,-972.74"/>
<polygon fill="black" stroke="black" points="629.18,-972.08 624.93,-962.38 622.2,-972.61 629.18,-972.08"/>
</g>
<!-- spinz.io -->
<g id="node62" class="node">
<title>spinz.io</title>
<path fill="#90caf9" stroke="#90caf9" d="M669.5,-889C669.5,-889 625.5,-889 625.5,-889 619.5,-889 613.5,-883 613.5,-877 613.5,-877 613.5,-863 613.5,-863 613.5,-857 619.5,-851 625.5,-851 625.5,-851 669.5,-851 669.5,-851 675.5,-851 681.5,-857 681.5,-863 681.5,-863 681.5,-877 681.5,-877 681.5,-883 675.5,-889 669.5,-889"/>
<text text-anchor="middle" x="647.5" y="-873.8" font-family="Times,serif" font-size="14.00">spinz.io</text>
<text text-anchor="middle" x="647.5" y="-858.8" font-family="Times,serif" font-size="14.00">Yang Lui</text>
</g>
<!-- agar.io&#45;&gt;spinz.io -->
<g id="edge49" class="edge">
<title>agar.io&#45;&gt;spinz.io</title>
<path fill="none" stroke="black" d="M641.47,-1455.98C655.26,-1429.3 678.5,-1377.34 678.5,-1330 678.5,-1330 678.5,-1330 678.5,-1024.5 678.5,-979.99 665.82,-929.64 656.68,-899.12"/>
<polygon fill="black" stroke="black" points="659.91,-897.72 653.62,-889.19 653.22,-899.78 659.91,-897.72"/>
</g>
<!-- vanar.io -->
<g id="node33" class="node">
<title>vanar.io</title>
<path fill="#90caf9" stroke="#90caf9" d="M1055.5,-1420C1055.5,-1420 1019.5,-1420 1019.5,-1420 1013.5,-1420 1007.5,-1414 1007.5,-1408 1007.5,-1408 1007.5,-1396 1007.5,-1396 1007.5,-1390 1013.5,-1384 1019.5,-1384 1019.5,-1384 1055.5,-1384 1055.5,-1384 1061.5,-1384 1067.5,-1390 1067.5,-1396 1067.5,-1396 1067.5,-1408 1067.5,-1408 1067.5,-1414 1061.5,-1420 1055.5,-1420"/>
<text text-anchor="middle" x="1037.5" y="-1398.3" font-family="Times,serif" font-size="14.00">vanar.io</text>
</g>
<!-- starblast.io -->
<g id="node52" class="node">
<title>starblast.io</title>
<path fill="#90caf9" stroke="#90caf9" d="M1066,-1044.5C1066,-1044.5 1009,-1044.5 1009,-1044.5 1003,-1044.5 997,-1038.5 997,-1032.5 997,-1032.5 997,-1018.5 997,-1018.5 997,-1012.5 1003,-1006.5 1009,-1006.5 1009,-1006.5 1066,-1006.5 1066,-1006.5 1072,-1006.5 1078,-1012.5 1078,-1018.5 1078,-1018.5 1078,-1032.5 1078,-1032.5 1078,-1038.5 1072,-1044.5 1066,-1044.5"/>
<text text-anchor="middle" x="1037.5" y="-1029.3" font-family="Times,serif" font-size="14.00">starblast.io</text>
<text text-anchor="middle" x="1037.5" y="-1014.3" font-family="Times,serif" font-size="14.00">Neuronality</text>
</g>
<!-- vanar.io&#45;&gt;starblast.io -->
<g id="edge72" class="edge">
<title>vanar.io&#45;&gt;starblast.io</title>
<path fill="none" stroke="black" d="M1037.5,-1383.59C1037.5,-1356.37 1037.5,-1302.07 1037.5,-1256 1037.5,-1256 1037.5,-1256 1037.5,-1180 1037.5,-1136.38 1037.5,-1085.78 1037.5,-1054.96"/>
<polygon fill="black" stroke="black" points="1041,-1054.93 1037.5,-1044.93 1034,-1054.93 1041,-1054.93"/>
</g>
<!-- vertix.io -->
<g id="node34" class="node">
<title>vertix.io</title>
<path fill="#90caf9" stroke="#90caf9" d="M1244,-1348C1244,-1348 1161,-1348 1161,-1348 1155,-1348 1149,-1342 1149,-1336 1149,-1336 1149,-1322 1149,-1322 1149,-1316 1155,-1310 1161,-1310 1161,-1310 1244,-1310 1244,-1310 1250,-1310 1256,-1316 1256,-1322 1256,-1322 1256,-1336 1256,-1336 1256,-1342 1250,-1348 1244,-1348"/>
<text text-anchor="middle" x="1202.5" y="-1332.8" font-family="Times,serif" font-size="14.00">vertix.io</text>
<text text-anchor="middle" x="1202.5" y="-1317.8" font-family="Times,serif" font-size="14.00">Sydney de Vries</text>
</g>
<!-- nightpoint.io -->
<g id="node69" class="node">
<title>nightpoint.io</title>
<path fill="#90caf9" stroke="#90caf9" d="M1233.5,-807.5C1233.5,-807.5 1171.5,-807.5 1171.5,-807.5 1165.5,-807.5 1159.5,-801.5 1159.5,-795.5 1159.5,-795.5 1159.5,-781.5 1159.5,-781.5 1159.5,-775.5 1165.5,-769.5 1171.5,-769.5 1171.5,-769.5 1233.5,-769.5 1233.5,-769.5 1239.5,-769.5 1245.5,-775.5 1245.5,-781.5 1245.5,-781.5 1245.5,-795.5 1245.5,-795.5 1245.5,-801.5 1239.5,-807.5 1233.5,-807.5"/>
<text text-anchor="middle" x="1202.5" y="-792.3" font-family="Times,serif" font-size="14.00">nightpoint.io</text>
<text text-anchor="middle" x="1202.5" y="-777.3" font-family="Times,serif" font-size="14.00">Sarunas</text>
</g>
<!-- vertix.io&#45;&gt;nightpoint.io -->
<g id="edge30" class="edge">
<title>vertix.io&#45;&gt;nightpoint.io</title>
<path fill="none" stroke="black" d="M1202.5,-1309.56C1202.5,-1281.87 1202.5,-1227.88 1202.5,-1182 1202.5,-1182 1202.5,-1182 1202.5,-943 1202.5,-899.38 1202.5,-848.78 1202.5,-817.96"/>
<polygon fill="black" stroke="black" points="1206,-817.93 1202.5,-807.93 1199,-817.93 1206,-817.93"/>
</g>
<!-- slither.io -->
<g id="node35" class="node">
<title>slither.io</title>
<path fill="#90caf9" stroke="#90caf9" d="M1398.5,-1274C1398.5,-1274 1334.5,-1274 1334.5,-1274 1328.5,-1274 1322.5,-1268 1322.5,-1262 1322.5,-1262 1322.5,-1248 1322.5,-1248 1322.5,-1242 1328.5,-1236 1334.5,-1236 1334.5,-1236 1398.5,-1236 1398.5,-1236 1404.5,-1236 1410.5,-1242 1410.5,-1248 1410.5,-1248 1410.5,-1262 1410.5,-1262 1410.5,-1268 1404.5,-1274 1398.5,-1274"/>
<text text-anchor="middle" x="1366.5" y="-1258.8" font-family="Times,serif" font-size="14.00">slither.io</text>
<text text-anchor="middle" x="1366.5" y="-1243.8" font-family="Times,serif" font-size="14.00">Steve Howse</text>
</g>
<!-- limax.io -->
<g id="node38" class="node">
<title>limax.io</title>
<path fill="#90caf9" stroke="#90caf9" d="M1300.5,-1200C1300.5,-1200 1242.5,-1200 1242.5,-1200 1236.5,-1200 1230.5,-1194 1230.5,-1188 1230.5,-1188 1230.5,-1174 1230.5,-1174 1230.5,-1168 1236.5,-1162 1242.5,-1162 1242.5,-1162 1300.5,-1162 1300.5,-1162 1306.5,-1162 1312.5,-1168 1312.5,-1174 1312.5,-1174 1312.5,-1188 1312.5,-1188 1312.5,-1194 1306.5,-1200 1300.5,-1200"/>
<text text-anchor="middle" x="1271.5" y="-1184.8" font-family="Times,serif" font-size="14.00">limax.io</text>
<text text-anchor="middle" x="1271.5" y="-1169.8" font-family="Times,serif" font-size="14.00">LapaMauve</text>
</g>
<!-- slither.io&#45;&gt;limax.io -->
<g id="edge28" class="edge">
<title>slither.io&#45;&gt;limax.io</title>
<path fill="none" stroke="black" d="M1342.53,-1235.83C1330.71,-1226.88 1316.3,-1215.96 1303.56,-1206.3"/>
<polygon fill="black" stroke="black" points="1305.55,-1203.41 1295.46,-1200.16 1301.32,-1208.99 1305.55,-1203.41"/>
</g>
<!-- wormax.io -->
<g id="node40" class="node">
<title>wormax.io</title>
<path fill="#90caf9" stroke="#90caf9" d="M1352.5,-1126C1352.5,-1126 1300.5,-1126 1300.5,-1126 1294.5,-1126 1288.5,-1120 1288.5,-1114 1288.5,-1114 1288.5,-1100 1288.5,-1100 1288.5,-1094 1294.5,-1088 1300.5,-1088 1300.5,-1088 1352.5,-1088 1352.5,-1088 1358.5,-1088 1364.5,-1094 1364.5,-1100 1364.5,-1100 1364.5,-1114 1364.5,-1114 1364.5,-1120 1358.5,-1126 1352.5,-1126"/>
<text text-anchor="middle" x="1326.5" y="-1110.8" font-family="Times,serif" font-size="14.00">wormax.io</text>
<text text-anchor="middle" x="1326.5" y="-1095.8" font-family="Times,serif" font-size="14.00">Elyland</text>
</g>
<!-- slither.io&#45;&gt;wormax.io -->
<g id="edge26" class="edge">
<title>slither.io&#45;&gt;wormax.io</title>
<path fill="none" stroke="black" d="M1361.51,-1235.8C1354.66,-1210.78 1342.25,-1165.5 1334.2,-1136.1"/>
<polygon fill="black" stroke="black" points="1337.57,-1135.14 1331.55,-1126.43 1330.81,-1136.99 1337.57,-1135.14"/>
</g>
<!-- wormate.io -->
<g id="node44" class="node">
<title>wormate.io</title>
<path fill="#90caf9" stroke="#90caf9" d="M1440,-1044.5C1440,-1044.5 1345,-1044.5 1345,-1044.5 1339,-1044.5 1333,-1038.5 1333,-1032.5 1333,-1032.5 1333,-1018.5 1333,-1018.5 1333,-1012.5 1339,-1006.5 1345,-1006.5 1345,-1006.5 1440,-1006.5 1440,-1006.5 1446,-1006.5 1452,-1012.5 1452,-1018.5 1452,-1018.5 1452,-1032.5 1452,-1032.5 1452,-1038.5 1446,-1044.5 1440,-1044.5"/>
<text text-anchor="middle" x="1392.5" y="-1029.3" font-family="Times,serif" font-size="14.00">wormate.io</text>
<text text-anchor="middle" x="1392.5" y="-1014.3" font-family="Times,serif" font-size="14.00">Oleksandr Godoba</text>
</g>
<!-- slither.io&#45;&gt;wormate.io -->
<g id="edge27" class="edge">
<title>slither.io&#45;&gt;wormate.io</title>
<path fill="none" stroke="black" d="M1368.58,-1235.77C1373.11,-1196.15 1383.87,-1101.98 1389.28,-1054.66"/>
<polygon fill="black" stroke="black" points="1392.78,-1054.84 1390.44,-1044.5 1385.83,-1054.04 1392.78,-1054.84"/>
</g>
<!-- powerline.io -->
<g id="node70" class="node">
<title>powerline.io</title>
<path fill="#90caf9" stroke="#90caf9" d="M1519,-718.5C1519,-718.5 1442,-718.5 1442,-718.5 1436,-718.5 1430,-712.5 1430,-706.5 1430,-706.5 1430,-692.5 1430,-692.5 1430,-686.5 1436,-680.5 1442,-680.5 1442,-680.5 1519,-680.5 1519,-680.5 1525,-680.5 1531,-686.5 1531,-692.5 1531,-692.5 1531,-706.5 1531,-706.5 1531,-712.5 1525,-718.5 1519,-718.5"/>
<text text-anchor="middle" x="1480.5" y="-703.3" font-family="Times,serif" font-size="14.00">powerline.io</text>
<text text-anchor="middle" x="1480.5" y="-688.3" font-family="Times,serif" font-size="14.00">Andre Almeida</text>
</g>
<!-- slither.io&#45;&gt;powerline.io -->
<g id="edge29" class="edge">
<title>slither.io&#45;&gt;powerline.io</title>
<path fill="none" stroke="black" d="M1394.1,-1235.88C1427.83,-1211.3 1480.5,-1163.96 1480.5,-1108 1480.5,-1108 1480.5,-1108 1480.5,-869 1480.5,-819.85 1480.5,-762.64 1480.5,-729.12"/>
<polygon fill="black" stroke="black" points="1484,-728.7 1480.5,-718.7 1477,-728.7 1484,-728.7"/>
</g>
<!-- diep.io -->
<g id="node36" class="node">
<title>diep.io</title>
<path fill="#90caf9" stroke="#90caf9" d="M1642.5,-1274C1642.5,-1274 1546.5,-1274 1546.5,-1274 1540.5,-1274 1534.5,-1268 1534.5,-1262 1534.5,-1262 1534.5,-1248 1534.5,-1248 1534.5,-1242 1540.5,-1236 1546.5,-1236 1546.5,-1236 1642.5,-1236 1642.5,-1236 1648.5,-1236 1654.5,-1242 1654.5,-1248 1654.5,-1248 1654.5,-1262 1654.5,-1262 1654.5,-1268 1648.5,-1274 1642.5,-1274"/>
<text text-anchor="middle" x="1594.5" y="-1258.8" font-family="Times,serif" font-size="14.00">diep.io</text>
<text text-anchor="middle" x="1594.5" y="-1243.8" font-family="Times,serif" font-size="14.00">Matheus Valadares</text>
</g>
<!-- tanksmith.io -->
<g id="node81" class="node">
<title>tanksmith.io</title>
<path fill="#90caf9" stroke="#90caf9" d="M1590,-563C1590,-563 1529,-563 1529,-563 1523,-563 1517,-557 1517,-551 1517,-551 1517,-537 1517,-537 1517,-531 1523,-525 1529,-525 1529,-525 1590,-525 1590,-525 1596,-525 1602,-531 1602,-537 1602,-537 1602,-551 1602,-551 1602,-557 1596,-563 1590,-563"/>
<text text-anchor="middle" x="1559.5" y="-547.8" font-family="Times,serif" font-size="14.00">tanksmith.io</text>
<text text-anchor="middle" x="1559.5" y="-532.8" font-family="Times,serif" font-size="14.00">IO Ninja</text>
</g>
<!-- diep.io&#45;&gt;tanksmith.io -->
<g id="edge54" class="edge">
<title>diep.io&#45;&gt;tanksmith.io</title>
<path fill="none" stroke="black" d="M1587.25,-1235.9C1577,-1208.63 1559.5,-1155.18 1559.5,-1108 1559.5,-1108 1559.5,-1108 1559.5,-698.5 1559.5,-654.88 1559.5,-604.28 1559.5,-573.46"/>
<polygon fill="black" stroke="black" points="1563,-573.43 1559.5,-563.43 1556,-573.43 1563,-573.43"/>
</g>
<!-- florr.io -->
<g id="node90" class="node">
<title>florr.io</title>
<path fill="#90caf9" stroke="#90caf9" d="M1678.5,-38C1678.5,-38 1582.5,-38 1582.5,-38 1576.5,-38 1570.5,-32 1570.5,-26 1570.5,-26 1570.5,-12 1570.5,-12 1570.5,-6 1576.5,0 1582.5,0 1582.5,0 1678.5,0 1678.5,0 1684.5,0 1690.5,-6 1690.5,-12 1690.5,-12 1690.5,-26 1690.5,-26 1690.5,-32 1684.5,-38 1678.5,-38"/>
<text text-anchor="middle" x="1630.5" y="-22.8" font-family="Times,serif" font-size="14.00">florr.io</text>
<text text-anchor="middle" x="1630.5" y="-7.8" font-family="Times,serif" font-size="14.00">Matheus Valadares</text>
</g>
<!-- diep.io&#45;&gt;florr.io -->
<g id="edge55" class="edge">
<title>diep.io&#45;&gt;florr.io</title>
<path fill="none" stroke="black" d="M1601.96,-1235.92C1612.5,-1208.67 1630.5,-1155.25 1630.5,-1108 1630.5,-1108 1630.5,-1108 1630.5,-163 1630.5,-123.15 1630.5,-77.06 1630.5,-48.22"/>
<polygon fill="black" stroke="black" points="1634,-48.06 1630.5,-38.06 1627,-48.06 1634,-48.06"/>
</g>
<!-- wings.io -->
<g id="node37" class="node">
<title>wings.io</title>
<path fill="#90caf9" stroke="#90caf9" d="M1762,-1274C1762,-1274 1685,-1274 1685,-1274 1679,-1274 1673,-1268 1673,-1262 1673,-1262 1673,-1248 1673,-1248 1673,-1242 1679,-1236 1685,-1236 1685,-1236 1762,-1236 1762,-1236 1768,-1236 1774,-1242 1774,-1248 1774,-1248 1774,-1262 1774,-1262 1774,-1268 1768,-1274 1762,-1274"/>
<text text-anchor="middle" x="1723.5" y="-1258.8" font-family="Times,serif" font-size="14.00">wings.io</text>
<text text-anchor="middle" x="1723.5" y="-1243.8" font-family="Times,serif" font-size="14.00">Andre Almeida</text>
</g>
<!-- wilds.io -->
<g id="node39" class="node">
<title>wilds.io</title>
<path fill="#90caf9" stroke="#90caf9" d="M1708.5,-1200C1708.5,-1200 1670.5,-1200 1670.5,-1200 1664.5,-1200 1658.5,-1194 1658.5,-1188 1658.5,-1188 1658.5,-1174 1658.5,-1174 1658.5,-1168 1664.5,-1162 1670.5,-1162 1670.5,-1162 1708.5,-1162 1708.5,-1162 1714.5,-1162 1720.5,-1168 1720.5,-1174 1720.5,-1174 1720.5,-1188 1720.5,-1188 1720.5,-1194 1714.5,-1200 1708.5,-1200"/>
<text text-anchor="middle" x="1689.5" y="-1184.8" font-family="Times,serif" font-size="14.00">wilds.io</text>
<text text-anchor="middle" x="1689.5" y="-1169.8" font-family="Times,serif" font-size="14.00">Rezoner</text>
</g>
<!-- wanderers.io -->
<g id="node72" class="node">
<title>wanderers.io</title>
<path fill="#90caf9" stroke="#90caf9" d="M1761.5,-718.5C1761.5,-718.5 1699.5,-718.5 1699.5,-718.5 1693.5,-718.5 1687.5,-712.5 1687.5,-706.5 1687.5,-706.5 1687.5,-692.5 1687.5,-692.5 1687.5,-686.5 1693.5,-680.5 1699.5,-680.5 1699.5,-680.5 1761.5,-680.5 1761.5,-680.5 1767.5,-680.5 1773.5,-686.5 1773.5,-692.5 1773.5,-692.5 1773.5,-706.5 1773.5,-706.5 1773.5,-712.5 1767.5,-718.5 1761.5,-718.5"/>
<text text-anchor="middle" x="1730.5" y="-703.3" font-family="Times,serif" font-size="14.00">wanderers.io</text>
<text text-anchor="middle" x="1730.5" y="-688.3" font-family="Times,serif" font-size="14.00">Rezoner</text>
</g>
<!-- wilds.io&#45;&gt;wanderers.io -->
<g id="edge47" class="edge">
<title>wilds.io&#45;&gt;wanderers.io</title>
<path fill="none" stroke="black" d="M1689.5,-1161.57C1689.5,-1132.75 1689.5,-1075.27 1689.5,-1026.5 1689.5,-1026.5 1689.5,-1026.5 1689.5,-869 1689.5,-818.25 1707.28,-761.28 1719.42,-728.28"/>
<polygon fill="black" stroke="black" points="1722.72,-729.44 1722.98,-718.84 1716.17,-726.96 1722.72,-729.44"/>
</g>
<!-- oceanar.io -->
<g id="node42" class="node">
<title>oceanar.io</title>
<path fill="#90caf9" stroke="#90caf9" d="M591.5,-1044.5C591.5,-1044.5 543.5,-1044.5 543.5,-1044.5 537.5,-1044.5 531.5,-1038.5 531.5,-1032.5 531.5,-1032.5 531.5,-1018.5 531.5,-1018.5 531.5,-1012.5 537.5,-1006.5 543.5,-1006.5 543.5,-1006.5 591.5,-1006.5 591.5,-1006.5 597.5,-1006.5 603.5,-1012.5 603.5,-1018.5 603.5,-1018.5 603.5,-1032.5 603.5,-1032.5 603.5,-1038.5 597.5,-1044.5 591.5,-1044.5"/>
<text text-anchor="middle" x="567.5" y="-1029.3" font-family="Times,serif" font-size="14.00">oceanar.io</text>
<text text-anchor="middle" x="567.5" y="-1014.3" font-family="Times,serif" font-size="14.00">S3Games</text>
</g>
<!-- deeeep.io&#45;&gt;oceanar.io -->
<g id="edge35" class="edge">
<title>deeeep.io&#45;&gt;oceanar.io</title>
<path fill="none" stroke="black" d="M368.8,-1043.8C378.23,-1053.6 391.23,-1064.73 405.5,-1070 450.11,-1086.48 467.67,-1085.86 512.5,-1070 523.49,-1066.11 533.9,-1058.98 542.64,-1051.56"/>
<polygon fill="black" stroke="black" points="545.1,-1054.05 550.16,-1044.74 540.4,-1048.86 545.1,-1054.05"/>
</g>
<!-- mope.io -->
<g id="node43" class="node">
<title>mope.io</title>
<path fill="#90caf9" stroke="#90caf9" d="M501,-1044.5C501,-1044.5 418,-1044.5 418,-1044.5 412,-1044.5 406,-1038.5 406,-1032.5 406,-1032.5 406,-1018.5 406,-1018.5 406,-1012.5 412,-1006.5 418,-1006.5 418,-1006.5 501,-1006.5 501,-1006.5 507,-1006.5 513,-1012.5 513,-1018.5 513,-1018.5 513,-1032.5 513,-1032.5 513,-1038.5 507,-1044.5 501,-1044.5"/>
<text text-anchor="middle" x="459.5" y="-1029.3" font-family="Times,serif" font-size="14.00">mope.io</text>
<text text-anchor="middle" x="459.5" y="-1014.3" font-family="Times,serif" font-size="14.00">Stan Tatarnykov</text>
</g>
<!-- deeeep.io&#45;&gt;mope.io -->
<g id="edge36" class="edge">
<title>deeeep.io&#45;&gt;mope.io</title>
<path fill="none" stroke="black" d="M387.87,-1025.5C390.48,-1025.5 393.09,-1025.5 395.7,-1025.5"/>
<polygon fill="black" stroke="black" points="395.78,-1029 405.78,-1025.5 395.78,-1022 395.78,-1029"/>
</g>
<!-- moomoo.io -->
<g id="node57" class="node">
<title>moomoo.io</title>
<path fill="#90caf9" stroke="#90caf9" d="M502,-963C502,-963 419,-963 419,-963 413,-963 407,-957 407,-951 407,-951 407,-937 407,-937 407,-931 413,-925 419,-925 419,-925 502,-925 502,-925 508,-925 514,-931 514,-937 514,-937 514,-951 514,-951 514,-957 508,-963 502,-963"/>
<text text-anchor="middle" x="460.5" y="-947.8" font-family="Times,serif" font-size="14.00">moomoo.io</text>
<text text-anchor="middle" x="460.5" y="-932.8" font-family="Times,serif" font-size="14.00">Sydney de Vries</text>
</g>
<!-- mope.io&#45;&gt;moomoo.io -->
<g id="edge37" class="edge">
<title>mope.io&#45;&gt;moomoo.io</title>
<path fill="none" stroke="black" d="M459.73,-1006.46C459.85,-996.67 460.01,-984.35 460.14,-973.31"/>
<polygon fill="black" stroke="black" points="463.64,-973.29 460.27,-963.24 456.64,-973.2 463.64,-973.29"/>
</g>
<!-- paper.io -->
<g id="node45" class="node">
<title>paper.io</title>
<path fill="#90caf9" stroke="#90caf9" d="M1942.5,-1126C1942.5,-1126 1906.5,-1126 1906.5,-1126 1900.5,-1126 1894.5,-1120 1894.5,-1114 1894.5,-1114 1894.5,-1100 1894.5,-1100 1894.5,-1094 1900.5,-1088 1906.5,-1088 1906.5,-1088 1942.5,-1088 1942.5,-1088 1948.5,-1088 1954.5,-1094 1954.5,-1100 1954.5,-1100 1954.5,-1114 1954.5,-1114 1954.5,-1120 1948.5,-1126 1942.5,-1126"/>
<text text-anchor="middle" x="1924.5" y="-1110.8" font-family="Times,serif" font-size="14.00">paper.io</text>
<text text-anchor="middle" x="1924.5" y="-1095.8" font-family="Times,serif" font-size="14.00">Voodoo</text>
</g>
<!-- narwhale.io -->
<g id="node46" class="node">
<title>narwhale.io</title>
<path fill="#90caf9" stroke="#90caf9" d="M2058.5,-1126C2058.5,-1126 1984.5,-1126 1984.5,-1126 1978.5,-1126 1972.5,-1120 1972.5,-1114 1972.5,-1114 1972.5,-1100 1972.5,-1100 1972.5,-1094 1978.5,-1088 1984.5,-1088 1984.5,-1088 2058.5,-1088 2058.5,-1088 2064.5,-1088 2070.5,-1094 2070.5,-1100 2070.5,-1100 2070.5,-1114 2070.5,-1114 2070.5,-1120 2064.5,-1126 2058.5,-1126"/>
<text text-anchor="middle" x="2021.5" y="-1110.8" font-family="Times,serif" font-size="14.00">narwhale.io</text>
<text text-anchor="middle" x="2021.5" y="-1095.8" font-family="Times,serif" font-size="14.00">Hsi&#45;Hung Shih</text>
</g>
<!-- pikes.io -->
<g id="node65" class="node">
<title>pikes.io</title>
<path fill="#90caf9" stroke="#90caf9" d="M2057,-889C2057,-889 1986,-889 1986,-889 1980,-889 1974,-883 1974,-877 1974,-877 1974,-863 1974,-863 1974,-857 1980,-851 1986,-851 1986,-851 2057,-851 2057,-851 2063,-851 2069,-857 2069,-863 2069,-863 2069,-877 2069,-877 2069,-883 2063,-889 2057,-889"/>
<text text-anchor="middle" x="2021.5" y="-873.8" font-family="Times,serif" font-size="14.00">pikes.io</text>
<text text-anchor="middle" x="2021.5" y="-858.8" font-family="Times,serif" font-size="14.00">Clown Games</text>
</g>
<!-- narwhale.io&#45;&gt;pikes.io -->
<g id="edge68" class="edge">
<title>narwhale.io&#45;&gt;pikes.io</title>
<path fill="none" stroke="black" d="M2021.5,-1087.95C2021.5,-1047.28 2021.5,-948.23 2021.5,-899.31"/>
<polygon fill="black" stroke="black" points="2025,-899.11 2021.5,-889.11 2018,-899.11 2025,-899.11"/>
</g>
<!-- splix.io -->
<g id="node47" class="node">
<title>splix.io</title>
<path fill="#90caf9" stroke="#90caf9" d="M1864,-1126C1864,-1126 1831,-1126 1831,-1126 1825,-1126 1819,-1120 1819,-1114 1819,-1114 1819,-1100 1819,-1100 1819,-1094 1825,-1088 1831,-1088 1831,-1088 1864,-1088 1864,-1088 1870,-1088 1876,-1094 1876,-1100 1876,-1100 1876,-1114 1876,-1114 1876,-1120 1870,-1126 1864,-1126"/>
<text text-anchor="middle" x="1847.5" y="-1110.8" font-family="Times,serif" font-size="14.00">splix.io</text>
<text text-anchor="middle" x="1847.5" y="-1095.8" font-family="Times,serif" font-size="14.00">Jesper</text>
</g>
<!-- splix.io&#45;&gt;paper.io -->
<g id="edge58" class="edge">
<title>splix.io&#45;&gt;paper.io</title>
<path fill="none" stroke="black" d="M1876.07,-1107C1878.72,-1107 1881.37,-1107 1884.02,-1107"/>
<polygon fill="black" stroke="black" points="1884.23,-1110.5 1894.23,-1107 1884.23,-1103.5 1884.23,-1110.5"/>
</g>
<!-- hexar.io -->
<g id="node55" class="node">
<title>hexar.io</title>
<path fill="#90caf9" stroke="#90caf9" d="M1865.5,-962C1865.5,-962 1829.5,-962 1829.5,-962 1823.5,-962 1817.5,-956 1817.5,-950 1817.5,-950 1817.5,-938 1817.5,-938 1817.5,-932 1823.5,-926 1829.5,-926 1829.5,-926 1865.5,-926 1865.5,-926 1871.5,-926 1877.5,-932 1877.5,-938 1877.5,-938 1877.5,-950 1877.5,-950 1877.5,-956 1871.5,-962 1865.5,-962"/>
<text text-anchor="middle" x="1847.5" y="-940.3" font-family="Times,serif" font-size="14.00">hexar.io</text>
</g>
<!-- splix.io&#45;&gt;hexar.io -->
<g id="edge59" class="edge">
<title>splix.io&#45;&gt;hexar.io</title>
<path fill="none" stroke="black" d="M1847.5,-1087.84C1847.5,-1059.77 1847.5,-1005.62 1847.5,-972.66"/>
<polygon fill="black" stroke="black" points="1851,-972.36 1847.5,-962.36 1844,-972.36 1851,-972.36"/>
</g>
<!-- drawthis2.io -->
<g id="node83" class="node">
<title>drawthis2.io</title>
<path fill="#90caf9" stroke="#90caf9" d="M253.5,-563C253.5,-563 193.5,-563 193.5,-563 187.5,-563 181.5,-557 181.5,-551 181.5,-551 181.5,-537 181.5,-537 181.5,-531 187.5,-525 193.5,-525 193.5,-525 253.5,-525 253.5,-525 259.5,-525 265.5,-531 265.5,-537 265.5,-537 265.5,-551 265.5,-551 265.5,-557 259.5,-563 253.5,-563"/>
<text text-anchor="middle" x="223.5" y="-547.8" font-family="Times,serif" font-size="14.00">drawthis2.io</text>
<text text-anchor="middle" x="223.5" y="-532.8" font-family="Times,serif" font-size="14.00">lagged.com</text>
</g>
<!-- drawthis.io&#45;&gt;drawthis2.io -->
<g id="edge65" class="edge">
<title>drawthis.io&#45;&gt;drawthis2.io</title>
<path fill="none" stroke="black" d="M223.5,-1088.61C223.5,-1059.08 223.5,-997.27 223.5,-945 223.5,-945 223.5,-945 223.5,-698.5 223.5,-654.88 223.5,-604.28 223.5,-573.46"/>
<polygon fill="black" stroke="black" points="227,-573.43 223.5,-563.43 220,-573.43 227,-573.43"/>
</g>
<!-- bonk.io -->
<g id="node49" class="node">
<title>bonk.io</title>
<path fill="#90caf9" stroke="#90caf9" d="M2134.5,-1126C2134.5,-1126 2100.5,-1126 2100.5,-1126 2094.5,-1126 2088.5,-1120 2088.5,-1114 2088.5,-1114 2088.5,-1100 2088.5,-1100 2088.5,-1094 2094.5,-1088 2100.5,-1088 2100.5,-1088 2134.5,-1088 2134.5,-1088 2140.5,-1088 2146.5,-1094 2146.5,-1100 2146.5,-1100 2146.5,-1114 2146.5,-1114 2146.5,-1120 2140.5,-1126 2134.5,-1126"/>
<text text-anchor="middle" x="2117.5" y="-1110.8" font-family="Times,serif" font-size="14.00">bonk.io</text>
<text text-anchor="middle" x="2117.5" y="-1095.8" font-family="Times,serif" font-size="14.00">Chaz</text>
</g>
<!-- bonk2.io -->
<g id="node89" class="node">
<title>bonk2.io</title>
<path fill="#90caf9" stroke="#90caf9" d="M2138,-38C2138,-38 2097,-38 2097,-38 2091,-38 2085,-32 2085,-26 2085,-26 2085,-12 2085,-12 2085,-6 2091,0 2097,0 2097,0 2138,0 2138,0 2144,0 2150,-6 2150,-12 2150,-12 2150,-26 2150,-26 2150,-32 2144,-38 2138,-38"/>
<text text-anchor="middle" x="2117.5" y="-22.8" font-family="Times,serif" font-size="14.00">bonk2.io</text>
<text text-anchor="middle" x="2117.5" y="-7.8" font-family="Times,serif" font-size="14.00">Chaz</text>
</g>
<!-- bonk.io&#45;&gt;bonk2.io -->
<g id="edge56" class="edge">
<title>bonk.io&#45;&gt;bonk2.io</title>
<path fill="none" stroke="black" d="M2117.5,-1087.65C2117.5,-1057.76 2117.5,-996.71 2117.5,-945 2117.5,-945 2117.5,-945 2117.5,-163 2117.5,-123.15 2117.5,-77.06 2117.5,-48.22"/>
<polygon fill="black" stroke="black" points="2121,-48.06 2117.5,-38.06 2114,-48.06 2121,-48.06"/>
</g>
<!-- hordes.io -->
<g id="node50" class="node">
<title>hordes.io</title>
<path fill="#90caf9" stroke="#90caf9" d="M2220,-1126C2220,-1126 2177,-1126 2177,-1126 2171,-1126 2165,-1120 2165,-1114 2165,-1114 2165,-1100 2165,-1100 2165,-1094 2171,-1088 2177,-1088 2177,-1088 2220,-1088 2220,-1088 2226,-1088 2232,-1094 2232,-1100 2232,-1100 2232,-1114 2232,-1114 2232,-1120 2226,-1126 2220,-1126"/>
<text text-anchor="middle" x="2198.5" y="-1110.8" font-family="Times,serif" font-size="14.00">hordes.io</text>
<text text-anchor="middle" x="2198.5" y="-1095.8" font-family="Times,serif" font-size="14.00">dek</text>
</g>
<!-- krew.io -->
<g id="node51" class="node">
<title>krew.io</title>
<path fill="#90caf9" stroke="#90caf9" d="M2199.5,-1052C2199.5,-1052 2157.5,-1052 2157.5,-1052 2151.5,-1052 2145.5,-1046 2145.5,-1040 2145.5,-1040 2145.5,-1011 2145.5,-1011 2145.5,-1005 2151.5,-999 2157.5,-999 2157.5,-999 2199.5,-999 2199.5,-999 2205.5,-999 2211.5,-1005 2211.5,-1011 2211.5,-1011 2211.5,-1040 2211.5,-1040 2211.5,-1046 2205.5,-1052 2199.5,-1052"/>
<text text-anchor="middle" x="2178.5" y="-1036.8" font-family="Times,serif" font-size="14.00">krew.io</text>
<text text-anchor="middle" x="2178.5" y="-1021.8" font-family="Times,serif" font-size="14.00">M0dE &amp;</text>
<text text-anchor="middle" x="2178.5" y="-1006.8" font-family="Times,serif" font-size="14.00"> dek</text>
</g>
<!-- microgravity.io -->
<g id="node85" class="node">
<title>microgravity.io</title>
<path fill="#90caf9" stroke="#90caf9" d="M1079.5,-489C1079.5,-489 995.5,-489 995.5,-489 989.5,-489 983.5,-483 983.5,-477 983.5,-477 983.5,-448 983.5,-448 983.5,-442 989.5,-436 995.5,-436 995.5,-436 1079.5,-436 1079.5,-436 1085.5,-436 1091.5,-442 1091.5,-448 1091.5,-448 1091.5,-477 1091.5,-477 1091.5,-483 1085.5,-489 1079.5,-489"/>
<text text-anchor="middle" x="1037.5" y="-473.8" font-family="Times,serif" font-size="14.00">microgravity.io</text>
<text text-anchor="middle" x="1037.5" y="-458.8" font-family="Times,serif" font-size="14.00">Nathan Flurry &amp;</text>
<text text-anchor="middle" x="1037.5" y="-443.8" font-family="Times,serif" font-size="14.00">Nicholas Kissel</text>
</g>
<!-- starblast.io&#45;&gt;microgravity.io -->
<g id="edge73" class="edge">
<title>starblast.io&#45;&gt;microgravity.io</title>
<path fill="none" stroke="black" d="M1037.5,-1006.07C1037.5,-977.25 1037.5,-919.77 1037.5,-871 1037.5,-871 1037.5,-871 1037.5,-617 1037.5,-576.71 1037.5,-530.48 1037.5,-499.37"/>
<polygon fill="black" stroke="black" points="1041,-499.03 1037.5,-489.03 1034,-499.03 1041,-499.03"/>
</g>
<!-- oib.io -->
<g id="node53" class="node">
<title>oib.io</title>
<path fill="#90caf9" stroke="#90caf9" d="M1787.5,-963C1787.5,-963 1729.5,-963 1729.5,-963 1723.5,-963 1717.5,-957 1717.5,-951 1717.5,-951 1717.5,-937 1717.5,-937 1717.5,-931 1723.5,-925 1729.5,-925 1729.5,-925 1787.5,-925 1787.5,-925 1793.5,-925 1799.5,-931 1799.5,-937 1799.5,-937 1799.5,-951 1799.5,-951 1799.5,-957 1793.5,-963 1787.5,-963"/>
<text text-anchor="middle" x="1758.5" y="-947.8" font-family="Times,serif" font-size="14.00">oib.io</text>
<text text-anchor="middle" x="1758.5" y="-932.8" font-family="Times,serif" font-size="14.00">LapaMauve</text>
</g>
<!-- oib.io&#45;&gt;wanderers.io -->
<g id="edge48" class="edge">
<title>oib.io&#45;&gt;wanderers.io</title>
<path fill="none" stroke="black" d="M1756.4,-924.77C1751.55,-882.8 1739.57,-779.09 1733.76,-728.77"/>
<polygon fill="black" stroke="black" points="1737.21,-728.14 1732.59,-718.61 1730.26,-728.94 1737.21,-728.14"/>
</g>
<!-- brutal.io -->
<g id="node54" class="node">
<title>brutal.io</title>
<path fill="#90caf9" stroke="#90caf9" d="M2235,-963C2235,-963 2158,-963 2158,-963 2152,-963 2146,-957 2146,-951 2146,-951 2146,-937 2146,-937 2146,-931 2152,-925 2158,-925 2158,-925 2235,-925 2235,-925 2241,-925 2247,-931 2247,-937 2247,-937 2247,-951 2247,-951 2247,-957 2241,-963 2235,-963"/>
<text text-anchor="middle" x="2196.5" y="-947.8" font-family="Times,serif" font-size="14.00">brutal.io</text>
<text text-anchor="middle" x="2196.5" y="-932.8" font-family="Times,serif" font-size="14.00">Andre Almeida</text>
</g>
<!-- superhex.io -->
<g id="node66" class="node">
<title>superhex.io</title>
<path fill="#90caf9" stroke="#90caf9" d="M1875.5,-888C1875.5,-888 1819.5,-888 1819.5,-888 1813.5,-888 1807.5,-882 1807.5,-876 1807.5,-876 1807.5,-864 1807.5,-864 1807.5,-858 1813.5,-852 1819.5,-852 1819.5,-852 1875.5,-852 1875.5,-852 1881.5,-852 1887.5,-858 1887.5,-864 1887.5,-864 1887.5,-876 1887.5,-876 1887.5,-882 1881.5,-888 1875.5,-888"/>
<text text-anchor="middle" x="1847.5" y="-866.3" font-family="Times,serif" font-size="14.00">superhex.io</text>
</g>
<!-- hexar.io&#45;&gt;superhex.io -->
<g id="edge60" class="edge">
<title>hexar.io&#45;&gt;superhex.io</title>
<path fill="none" stroke="black" d="M1847.5,-925.94C1847.5,-917.81 1847.5,-907.88 1847.5,-898.7"/>
<polygon fill="black" stroke="black" points="1851,-898.44 1847.5,-888.44 1844,-898.44 1851,-898.44"/>
</g>
<!-- starve.io -->
<g id="node58" class="node">
<title>starve.io</title>
<path fill="#90caf9" stroke="#90caf9" d="M840.5,-963C840.5,-963 782.5,-963 782.5,-963 776.5,-963 770.5,-957 770.5,-951 770.5,-951 770.5,-937 770.5,-937 770.5,-931 776.5,-925 782.5,-925 782.5,-925 840.5,-925 840.5,-925 846.5,-925 852.5,-931 852.5,-937 852.5,-937 852.5,-951 852.5,-951 852.5,-957 846.5,-963 840.5,-963"/>
<text text-anchor="middle" x="811.5" y="-947.8" font-family="Times,serif" font-size="14.00">starve.io</text>
<text text-anchor="middle" x="811.5" y="-932.8" font-family="Times,serif" font-size="14.00">LapaMauve</text>
</g>
<!-- moomoo.io&#45;&gt;starve.io -->
<g id="edge41" class="edge">
<title>moomoo.io&#45;&gt;starve.io</title>
<path fill="none" stroke="black" d="M514.09,-962.11C538.86,-969.56 568.85,-977.31 596.5,-981 634.83,-986.12 645.22,-986.42 683.5,-981 709.45,-977.32 737.51,-969.65 760.72,-962.24"/>
<polygon fill="black" stroke="black" points="761.93,-965.53 770.35,-959.1 759.76,-958.88 761.93,-965.53"/>
</g>
<!-- zombs.io -->
<g id="node61" class="node">
<title>zombs.io</title>
<path fill="#90caf9" stroke="#90caf9" d="M551.5,-889C551.5,-889 507.5,-889 507.5,-889 501.5,-889 495.5,-883 495.5,-877 495.5,-877 495.5,-863 495.5,-863 495.5,-857 501.5,-851 507.5,-851 507.5,-851 551.5,-851 551.5,-851 557.5,-851 563.5,-857 563.5,-863 563.5,-863 563.5,-877 563.5,-877 563.5,-883 557.5,-889 551.5,-889"/>
<text text-anchor="middle" x="529.5" y="-873.8" font-family="Times,serif" font-size="14.00">zombs.io</text>
<text text-anchor="middle" x="529.5" y="-858.8" font-family="Times,serif" font-size="14.00">Yang Lui</text>
</g>
<!-- moomoo.io&#45;&gt;zombs.io -->
<g id="edge44" class="edge">
<title>moomoo.io&#45;&gt;zombs.io</title>
<path fill="none" stroke="black" d="M477.91,-924.83C486.02,-916.37 495.82,-906.15 504.68,-896.9"/>
<polygon fill="black" stroke="black" points="507.46,-899.05 511.85,-889.41 502.41,-894.21 507.46,-899.05"/>
</g>
<!-- foes.io -->
<g id="node68" class="node">
<title>foes.io</title>
<path fill="#90caf9" stroke="#90caf9" d="M347,-807.5C347,-807.5 264,-807.5 264,-807.5 258,-807.5 252,-801.5 252,-795.5 252,-795.5 252,-781.5 252,-781.5 252,-775.5 258,-769.5 264,-769.5 264,-769.5 347,-769.5 347,-769.5 353,-769.5 359,-775.5 359,-781.5 359,-781.5 359,-795.5 359,-795.5 359,-801.5 353,-807.5 347,-807.5"/>
<text text-anchor="middle" x="305.5" y="-792.3" font-family="Times,serif" font-size="14.00">foes.io</text>
<text text-anchor="middle" x="305.5" y="-777.3" font-family="Times,serif" font-size="14.00">Sydney de Vries</text>
</g>
<!-- moomoo.io&#45;&gt;foes.io -->
<g id="edge38" class="edge">
<title>moomoo.io&#45;&gt;foes.io</title>
<path fill="none" stroke="black" d="M423.84,-924.76C407.33,-915.47 388.27,-903.13 373.5,-889 351.25,-867.7 332.1,-838 319.85,-816.6"/>
<polygon fill="black" stroke="black" points="322.8,-814.72 314.87,-807.69 316.69,-818.13 322.8,-814.72"/>
</g>
<!-- doomed.io -->
<g id="node71" class="node">
<title>doomed.io</title>
<path fill="#90caf9" stroke="#90caf9" d="M413,-718.5C413,-718.5 362,-718.5 362,-718.5 356,-718.5 350,-712.5 350,-706.5 350,-706.5 350,-692.5 350,-692.5 350,-686.5 356,-680.5 362,-680.5 362,-680.5 413,-680.5 413,-680.5 419,-680.5 425,-686.5 425,-692.5 425,-692.5 425,-706.5 425,-706.5 425,-712.5 419,-718.5 413,-718.5"/>
<text text-anchor="middle" x="387.5" y="-703.3" font-family="Times,serif" font-size="14.00">doomed.io</text>
<text text-anchor="middle" x="387.5" y="-688.3" font-family="Times,serif" font-size="14.00">Ginoda</text>
</g>
<!-- moomoo.io&#45;&gt;doomed.io -->
<g id="edge39" class="edge">
<title>moomoo.io&#45;&gt;doomed.io</title>
<path fill="none" stroke="black" d="M451.23,-924.84C439.16,-900.47 418.24,-855.54 406.5,-815 398.14,-786.13 393.07,-752.03 390.3,-728.6"/>
<polygon fill="black" stroke="black" points="393.77,-728.19 389.18,-718.64 386.82,-728.97 393.77,-728.19"/>
</g>
<!-- surviv.io -->
<g id="node91" class="node">
<title>surviv.io</title>
<path fill="#fadc91" stroke="#fadc91" d="M495.5,-815C495.5,-815 427.5,-815 427.5,-815 421.5,-815 415.5,-809 415.5,-803 415.5,-803 415.5,-774 415.5,-774 415.5,-768 421.5,-762 427.5,-762 427.5,-762 495.5,-762 495.5,-762 501.5,-762 507.5,-768 507.5,-774 507.5,-774 507.5,-803 507.5,-803 507.5,-809 501.5,-815 495.5,-815"/>
<text text-anchor="middle" x="461.5" y="-799.8" font-family="Times,serif" font-size="14.00">surviv.io</text>
<text text-anchor="middle" x="461.5" y="-784.8" font-family="Times,serif" font-size="14.00">Justin Kim &amp;</text>
<text text-anchor="middle" x="461.5" y="-769.8" font-family="Times,serif" font-size="14.00"> Nick Clark</text>
</g>
<!-- moomoo.io&#45;&gt;surviv.io -->
<g id="edge43" class="edge">
<title>moomoo.io&#45;&gt;surviv.io</title>
<path fill="none" stroke="black" d="M460.62,-924.79C460.78,-900.32 461.06,-856.29 461.27,-825.12"/>
<polygon fill="black" stroke="black" points="464.77,-825.11 461.33,-815.09 457.77,-825.06 464.77,-825.11"/>
</g>
<!-- devast.io -->
<g id="node86" class="node">
<title>devast.io</title>
<path fill="#90caf9" stroke="#90caf9" d="M953.5,-481.5C953.5,-481.5 895.5,-481.5 895.5,-481.5 889.5,-481.5 883.5,-475.5 883.5,-469.5 883.5,-469.5 883.5,-455.5 883.5,-455.5 883.5,-449.5 889.5,-443.5 895.5,-443.5 895.5,-443.5 953.5,-443.5 953.5,-443.5 959.5,-443.5 965.5,-449.5 965.5,-455.5 965.5,-455.5 965.5,-469.5 965.5,-469.5 965.5,-475.5 959.5,-481.5 953.5,-481.5"/>
<text text-anchor="middle" x="924.5" y="-466.3" font-family="Times,serif" font-size="14.00">devast.io</text>
<text text-anchor="middle" x="924.5" y="-451.3" font-family="Times,serif" font-size="14.00">LapaMauve</text>
</g>
<!-- starve.io&#45;&gt;devast.io -->
<g id="edge42" class="edge">
<title>starve.io&#45;&gt;devast.io</title>
<path fill="none" stroke="black" d="M852.73,-928.23C871.26,-919.56 891.78,-906.76 904.5,-889 930.77,-852.33 924.5,-834.61 924.5,-789.5 924.5,-789.5 924.5,-789.5 924.5,-617 924.5,-573.38 924.5,-522.78 924.5,-491.96"/>
<polygon fill="black" stroke="black" points="928,-491.93 924.5,-481.93 921,-491.93 928,-491.93"/>
</g>
<!-- stabby.io -->
<g id="node60" class="node">
<title>stabby.io</title>
<path fill="#90caf9" stroke="#90caf9" d="M2207,-889C2207,-889 2158,-889 2158,-889 2152,-889 2146,-883 2146,-877 2146,-877 2146,-863 2146,-863 2146,-857 2152,-851 2158,-851 2158,-851 2207,-851 2207,-851 2213,-851 2219,-857 2219,-863 2219,-863 2219,-877 2219,-877 2219,-883 2213,-889 2207,-889"/>
<text text-anchor="middle" x="2182.5" y="-873.8" font-family="Times,serif" font-size="14.00">stabby.io</text>
<text text-anchor="middle" x="2182.5" y="-858.8" font-family="Times,serif" font-size="14.00">SoulFoam</text>
</g>
<!-- zombsroyale.io -->
<g id="node93" class="node">
<title>zombsroyale.io</title>
<path fill="#fadc91" stroke="#fadc91" d="M574,-637C574,-637 497,-637 497,-637 491,-637 485,-631 485,-625 485,-625 485,-611 485,-611 485,-605 491,-599 497,-599 497,-599 574,-599 574,-599 580,-599 586,-605 586,-611 586,-611 586,-625 586,-625 586,-631 580,-637 574,-637"/>
<text text-anchor="middle" x="535.5" y="-621.8" font-family="Times,serif" font-size="14.00">zombsroyale.io</text>
<text text-anchor="middle" x="535.5" y="-606.8" font-family="Times,serif" font-size="14.00">Yang Lui</text>
</g>
<!-- zombs.io&#45;&gt;zombsroyale.io -->
<g id="edge45" class="edge">
<title>zombs.io&#45;&gt;zombsroyale.io</title>
<path fill="none" stroke="black" d="M529.94,-850.62C530.98,-807.35 533.58,-698.85 534.82,-647.19"/>
<polygon fill="black" stroke="black" points="538.33,-647.15 535.07,-637.07 531.33,-646.99 538.33,-647.15"/>
</g>
<!-- superspin.io -->
<g id="node63" class="node">
<title>superspin.io</title>
<path fill="#90caf9" stroke="#90caf9" d="M884,-889C884,-889 825,-889 825,-889 819,-889 813,-883 813,-877 813,-877 813,-863 813,-863 813,-857 819,-851 825,-851 825,-851 884,-851 884,-851 890,-851 896,-857 896,-863 896,-863 896,-877 896,-877 896,-883 890,-889 884,-889"/>
<text text-anchor="middle" x="854.5" y="-873.8" font-family="Times,serif" font-size="14.00">superspin.io</text>
<text text-anchor="middle" x="854.5" y="-858.8" font-family="Times,serif" font-size="14.00">Jetti Games</text>
</g>
<!-- spinz.io&#45;&gt;superspin.io -->
<g id="edge51" class="edge">
<title>spinz.io&#45;&gt;superspin.io</title>
<path fill="none" stroke="black" d="M668.11,-889.15C677.07,-896.2 688.1,-903.36 699.5,-907 739.72,-919.85 753.88,-918.52 794.5,-907 803.94,-904.32 813.35,-899.7 821.82,-894.6"/>
<polygon fill="black" stroke="black" points="823.74,-897.53 830.28,-889.19 819.97,-891.63 823.74,-897.53"/>
</g>
<!-- fisp.io -->
<g id="node64" class="node">
<title>fisp.io</title>
<path fill="#90caf9" stroke="#90caf9" d="M783,-889C783,-889 712,-889 712,-889 706,-889 700,-883 700,-877 700,-877 700,-863 700,-863 700,-857 706,-851 712,-851 712,-851 783,-851 783,-851 789,-851 795,-857 795,-863 795,-863 795,-877 795,-877 795,-883 789,-889 783,-889"/>
<text text-anchor="middle" x="747.5" y="-873.8" font-family="Times,serif" font-size="14.00">fisp.io</text>
<text text-anchor="middle" x="747.5" y="-858.8" font-family="Times,serif" font-size="14.00">Clown Games</text>
</g>
<!-- spinz.io&#45;&gt;fisp.io -->
<g id="edge50" class="edge">
<title>spinz.io&#45;&gt;fisp.io</title>
<path fill="none" stroke="black" d="M681.88,-870C684.49,-870 687.11,-870 689.73,-870"/>
<polygon fill="black" stroke="black" points="689.82,-873.5 699.82,-870 689.82,-866.5 689.82,-873.5"/>
</g>
<!-- goons.io -->
<g id="node67" class="node">
<title>goons.io</title>
<path fill="#90caf9" stroke="#90caf9" d="M2057,-807.5C2057,-807.5 1986,-807.5 1986,-807.5 1980,-807.5 1974,-801.5 1974,-795.5 1974,-795.5 1974,-781.5 1974,-781.5 1974,-775.5 1980,-769.5 1986,-769.5 1986,-769.5 2057,-769.5 2057,-769.5 2063,-769.5 2069,-775.5 2069,-781.5 2069,-781.5 2069,-795.5 2069,-795.5 2069,-801.5 2063,-807.5 2057,-807.5"/>
<text text-anchor="middle" x="2021.5" y="-792.3" font-family="Times,serif" font-size="14.00">goons.io</text>
<text text-anchor="middle" x="2021.5" y="-777.3" font-family="Times,serif" font-size="14.00">Clown Games</text>
</g>
<!-- pikes.io&#45;&gt;goons.io -->
<g id="edge69" class="edge">
<title>pikes.io&#45;&gt;goons.io</title>
<path fill="none" stroke="black" d="M2021.5,-850.96C2021.5,-841.17 2021.5,-828.85 2021.5,-817.81"/>
<polygon fill="black" stroke="black" points="2025,-817.74 2021.5,-807.74 2018,-817.74 2025,-817.74"/>
</g>
<!-- knuckol.club -->
<g id="node78" class="node">
<title>knuckol.club</title>
<path fill="#90caf9" stroke="#90caf9" d="M2053,-637C2053,-637 1990,-637 1990,-637 1984,-637 1978,-631 1978,-625 1978,-625 1978,-611 1978,-611 1978,-605 1984,-599 1990,-599 1990,-599 2053,-599 2053,-599 2059,-599 2065,-605 2065,-611 2065,-611 2065,-625 2065,-625 2065,-631 2059,-637 2053,-637"/>
<text text-anchor="middle" x="2021.5" y="-621.8" font-family="Times,serif" font-size="14.00">knuckol.club</text>
<text text-anchor="middle" x="2021.5" y="-606.8" font-family="Times,serif" font-size="14.00">Erigato</text>
</g>
<!-- goons.io&#45;&gt;knuckol.club -->
<g id="edge70" class="edge">
<title>goons.io&#45;&gt;knuckol.club</title>
<path fill="none" stroke="black" d="M2021.5,-769.47C2021.5,-740.28 2021.5,-682.45 2021.5,-647.6"/>
<polygon fill="black" stroke="black" points="2025,-647.16 2021.5,-637.16 2018,-647.16 2025,-647.16"/>
</g>
<!-- shootem.io -->
<g id="node77" class="node">
<title>shootem.io</title>
<path fill="#90caf9" stroke="#90caf9" d="M1177.5,-637C1177.5,-637 1077.5,-637 1077.5,-637 1071.5,-637 1065.5,-631 1065.5,-625 1065.5,-625 1065.5,-611 1065.5,-611 1065.5,-605 1071.5,-599 1077.5,-599 1077.5,-599 1177.5,-599 1177.5,-599 1183.5,-599 1189.5,-605 1189.5,-611 1189.5,-611 1189.5,-625 1189.5,-625 1189.5,-631 1183.5,-637 1177.5,-637"/>
<text text-anchor="middle" x="1127.5" y="-621.8" font-family="Times,serif" font-size="14.00">shootem.io</text>
<text text-anchor="middle" x="1127.5" y="-606.8" font-family="Times,serif" font-size="14.00">Mathew Matakovic</text>
</g>
<!-- nightpoint.io&#45;&gt;shootem.io -->
<g id="edge33" class="edge">
<title>nightpoint.io&#45;&gt;shootem.io</title>
<path fill="none" stroke="black" d="M1180.9,-769.45C1168.88,-758.2 1154.72,-742.71 1146.5,-726 1134.33,-701.27 1129.87,-669.92 1128.27,-647.56"/>
<polygon fill="black" stroke="black" points="1131.75,-647.16 1127.7,-637.37 1124.77,-647.55 1131.75,-647.16"/>
</g>
<!-- bruh.io -->
<g id="node92" class="node">
<title>bruh.io</title>
<path fill="#fadc91" stroke="#fadc91" d="M1237,-718.5C1237,-718.5 1168,-718.5 1168,-718.5 1162,-718.5 1156,-712.5 1156,-706.5 1156,-706.5 1156,-692.5 1156,-692.5 1156,-686.5 1162,-680.5 1168,-680.5 1168,-680.5 1237,-680.5 1237,-680.5 1243,-680.5 1249,-686.5 1249,-692.5 1249,-692.5 1249,-706.5 1249,-706.5 1249,-712.5 1243,-718.5 1237,-718.5"/>
<text text-anchor="middle" x="1202.5" y="-703.3" font-family="Times,serif" font-size="14.00">bruh.io</text>
<text text-anchor="middle" x="1202.5" y="-688.3" font-family="Times,serif" font-size="14.00">Bitfox Games</text>
</g>
<!-- nightpoint.io&#45;&gt;bruh.io -->
<g id="edge32" class="edge">
<title>nightpoint.io&#45;&gt;bruh.io</title>
<path fill="none" stroke="black" d="M1202.5,-769.47C1202.5,-757.69 1202.5,-742.06 1202.5,-728.66"/>
<polygon fill="black" stroke="black" points="1206,-728.5 1202.5,-718.5 1199,-728.5 1206,-728.5"/>
</g>
<!-- battlepoint.io -->
<g id="node95" class="node">
<title>battlepoint.io</title>
<path fill="#fadc91" stroke="#fadc91" d="M1286,-481.5C1286,-481.5 1221,-481.5 1221,-481.5 1215,-481.5 1209,-475.5 1209,-469.5 1209,-469.5 1209,-455.5 1209,-455.5 1209,-449.5 1215,-443.5 1221,-443.5 1221,-443.5 1286,-443.5 1286,-443.5 1292,-443.5 1298,-449.5 1298,-455.5 1298,-455.5 1298,-469.5 1298,-469.5 1298,-475.5 1292,-481.5 1286,-481.5"/>
<text text-anchor="middle" x="1253.5" y="-466.3" font-family="Times,serif" font-size="14.00">battlepoint.io</text>
<text text-anchor="middle" x="1253.5" y="-451.3" font-family="Times,serif" font-size="14.00">Sarunas</text>
</g>
<!-- nightpoint.io&#45;&gt;battlepoint.io -->
<g id="edge31" class="edge">
<title>nightpoint.io&#45;&gt;battlepoint.io</title>
<path fill="none" stroke="black" d="M1225.38,-769.34C1237.42,-758.26 1251.01,-742.99 1257.5,-726 1288.18,-645.67 1271.47,-541.18 1260.55,-491.76"/>
<polygon fill="black" stroke="black" points="1263.92,-490.77 1258.27,-481.8 1257.09,-492.33 1263.92,-490.77"/>
</g>
<!-- doomed2.io -->
<g id="node80" class="node">
<title>doomed2.io</title>
<path fill="#90caf9" stroke="#90caf9" d="M416.5,-637C416.5,-637 358.5,-637 358.5,-637 352.5,-637 346.5,-631 346.5,-625 346.5,-625 346.5,-611 346.5,-611 346.5,-605 352.5,-599 358.5,-599 358.5,-599 416.5,-599 416.5,-599 422.5,-599 428.5,-605 428.5,-611 428.5,-611 428.5,-625 428.5,-625 428.5,-631 422.5,-637 416.5,-637"/>
<text text-anchor="middle" x="387.5" y="-621.8" font-family="Times,serif" font-size="14.00">doomed2.io</text>
<text text-anchor="middle" x="387.5" y="-606.8" font-family="Times,serif" font-size="14.00">Ginoda</text>
</g>
<!-- doomed.io&#45;&gt;doomed2.io -->
<g id="edge40" class="edge">
<title>doomed.io&#45;&gt;doomed2.io</title>
<path fill="none" stroke="black" d="M387.5,-680.46C387.5,-670.67 387.5,-658.35 387.5,-647.31"/>
<polygon fill="black" stroke="black" points="391,-647.24 387.5,-637.24 384,-647.24 391,-647.24"/>
</g>
<!-- shellshock.io -->
<g id="node73" class="node">
<title>shellshock.io</title>
<path fill="#90caf9" stroke="#90caf9" d="M2226.5,-717.5C2226.5,-717.5 2162.5,-717.5 2162.5,-717.5 2156.5,-717.5 2150.5,-711.5 2150.5,-705.5 2150.5,-705.5 2150.5,-693.5 2150.5,-693.5 2150.5,-687.5 2156.5,-681.5 2162.5,-681.5 2162.5,-681.5 2226.5,-681.5 2226.5,-681.5 2232.5,-681.5 2238.5,-687.5 2238.5,-693.5 2238.5,-693.5 2238.5,-705.5 2238.5,-705.5 2238.5,-711.5 2232.5,-717.5 2226.5,-717.5"/>
<text text-anchor="middle" x="2194.5" y="-695.8" font-family="Times,serif" font-size="14.00">shellshock.io</text>
</g>
<!-- krunker.io -->
<g id="node84" class="node">
<title>krunker.io</title>
<path fill="#90caf9" stroke="#90caf9" d="M2241,-563C2241,-563 2158,-563 2158,-563 2152,-563 2146,-557 2146,-551 2146,-551 2146,-537 2146,-537 2146,-531 2152,-525 2158,-525 2158,-525 2241,-525 2241,-525 2247,-525 2253,-531 2253,-537 2253,-537 2253,-551 2253,-551 2253,-557 2247,-563 2241,-563"/>
<text text-anchor="middle" x="2199.5" y="-547.8" font-family="Times,serif" font-size="14.00">krunker.io</text>
<text text-anchor="middle" x="2199.5" y="-532.8" font-family="Times,serif" font-size="14.00">Sydney de Vries</text>
</g>
<!-- shellshock.io&#45;&gt;krunker.io -->
<g id="edge62" class="edge">
<title>shellshock.io&#45;&gt;krunker.io</title>
<path fill="none" stroke="black" d="M2195.05,-681.49C2195.9,-655.37 2197.54,-605.11 2198.57,-573.41"/>
<polygon fill="black" stroke="black" points="2202.08,-573.15 2198.91,-563.04 2195.09,-572.92 2202.08,-573.15"/>
</g>
<!-- warscrap.io -->
<g id="node74" class="node">
<title>warscrap.io</title>
<path fill="#90caf9" stroke="#90caf9" d="M2324.5,-718.5C2324.5,-718.5 2268.5,-718.5 2268.5,-718.5 2262.5,-718.5 2256.5,-712.5 2256.5,-706.5 2256.5,-706.5 2256.5,-692.5 2256.5,-692.5 2256.5,-686.5 2262.5,-680.5 2268.5,-680.5 2268.5,-680.5 2324.5,-680.5 2324.5,-680.5 2330.5,-680.5 2336.5,-686.5 2336.5,-692.5 2336.5,-692.5 2336.5,-706.5 2336.5,-706.5 2336.5,-712.5 2330.5,-718.5 2324.5,-718.5"/>
<text text-anchor="middle" x="2296.5" y="-703.3" font-family="Times,serif" font-size="14.00">warscrap.io</text>
<text text-anchor="middle" x="2296.5" y="-688.3" font-family="Times,serif" font-size="14.00">Evil Noob</text>
</g>
<!-- warscrap.io&#45;&gt;krunker.io -->
<g id="edge61" class="edge">
<title>warscrap.io&#45;&gt;krunker.io</title>
<path fill="none" stroke="black" d="M2284.99,-680.29C2268,-653.4 2236.1,-602.91 2216.43,-571.79"/>
<polygon fill="black" stroke="black" points="2219.29,-569.77 2210.99,-563.19 2213.38,-573.51 2219.29,-569.77"/>
</g>
<!-- airma.sh -->
<g id="node75" class="node">
<title>airma.sh</title>
<path fill="#90caf9" stroke="#90caf9" d="M2406.5,-717.5C2406.5,-717.5 2366.5,-717.5 2366.5,-717.5 2360.5,-717.5 2354.5,-711.5 2354.5,-705.5 2354.5,-705.5 2354.5,-693.5 2354.5,-693.5 2354.5,-687.5 2360.5,-681.5 2366.5,-681.5 2366.5,-681.5 2406.5,-681.5 2406.5,-681.5 2412.5,-681.5 2418.5,-687.5 2418.5,-693.5 2418.5,-693.5 2418.5,-705.5 2418.5,-705.5 2418.5,-711.5 2412.5,-717.5 2406.5,-717.5"/>
<text text-anchor="middle" x="2386.5" y="-695.8" font-family="Times,serif" font-size="14.00">airma.sh</text>
</g>
<!-- skyroyale.io -->
<g id="node94" class="node">
<title>skyroyale.io</title>
<path fill="#fadc91" stroke="#fadc91" d="M2422,-563C2422,-563 2351,-563 2351,-563 2345,-563 2339,-557 2339,-551 2339,-551 2339,-537 2339,-537 2339,-531 2345,-525 2351,-525 2351,-525 2422,-525 2422,-525 2428,-525 2434,-531 2434,-537 2434,-537 2434,-551 2434,-551 2434,-557 2428,-563 2422,-563"/>
<text text-anchor="middle" x="2386.5" y="-547.8" font-family="Times,serif" font-size="14.00">skyroyale.io</text>
<text text-anchor="middle" x="2386.5" y="-532.8" font-family="Times,serif" font-size="14.00">Clown Games</text>
</g>
<!-- airma.sh&#45;&gt;skyroyale.io -->
<g id="edge71" class="edge">
<title>airma.sh&#45;&gt;skyroyale.io</title>
<path fill="none" stroke="black" d="M2386.5,-681.49C2386.5,-655.37 2386.5,-605.11 2386.5,-573.41"/>
<polygon fill="black" stroke="black" points="2390,-573.04 2386.5,-563.04 2383,-573.04 2390,-573.04"/>
</g>
<!-- pockey.io -->
<g id="node76" class="node">
<title>pockey.io</title>
<path fill="#90caf9" stroke="#90caf9" d="M2540,-726C2540,-726 2449,-726 2449,-726 2443,-726 2437,-720 2437,-714 2437,-714 2437,-685 2437,-685 2437,-679 2443,-673 2449,-673 2449,-673 2540,-673 2540,-673 2546,-673 2552,-679 2552,-685 2552,-685 2552,-714 2552,-714 2552,-720 2546,-726 2540,-726"/>
<text text-anchor="middle" x="2494.5" y="-710.8" font-family="Times,serif" font-size="14.00">pockey.io</text>
<text text-anchor="middle" x="2494.5" y="-695.8" font-family="Times,serif" font-size="14.00">Starcade</text>
<text text-anchor="middle" x="2494.5" y="-680.8" font-family="Times,serif" font-size="14.00">(KidComet &amp; al.)</text>
</g>
<!-- nend.io -->
<g id="node79" class="node">
<title>nend.io</title>
<path fill="#90caf9" stroke="#90caf9" d="M2484.5,-637C2484.5,-637 2426.5,-637 2426.5,-637 2420.5,-637 2414.5,-631 2414.5,-625 2414.5,-625 2414.5,-611 2414.5,-611 2414.5,-605 2420.5,-599 2426.5,-599 2426.5,-599 2484.5,-599 2484.5,-599 2490.5,-599 2496.5,-605 2496.5,-611 2496.5,-611 2496.5,-625 2496.5,-625 2496.5,-631 2490.5,-637 2484.5,-637"/>
<text text-anchor="middle" x="2455.5" y="-621.8" font-family="Times,serif" font-size="14.00">nend.io</text>
<text text-anchor="middle" x="2455.5" y="-606.8" font-family="Times,serif" font-size="14.00">LapaMauve</text>
</g>
<!-- flyordie.io -->
<g id="node82" class="node">
<title>flyordie.io</title>
<path fill="#90caf9" stroke="#90caf9" d="M2524.5,-563C2524.5,-563 2464.5,-563 2464.5,-563 2458.5,-563 2452.5,-557 2452.5,-551 2452.5,-551 2452.5,-537 2452.5,-537 2452.5,-531 2458.5,-525 2464.5,-525 2464.5,-525 2524.5,-525 2524.5,-525 2530.5,-525 2536.5,-531 2536.5,-537 2536.5,-537 2536.5,-551 2536.5,-551 2536.5,-557 2530.5,-563 2524.5,-563"/>
<text text-anchor="middle" x="2494.5" y="-547.8" font-family="Times,serif" font-size="14.00">flyordie.io</text>
<text text-anchor="middle" x="2494.5" y="-532.8" font-family="Times,serif" font-size="14.00">Pixel Voices</text>
</g>
<!-- llam.io -->
<g id="node87" class="node">
<title>llam.io</title>
<path fill="#90caf9" stroke="#90caf9" d="M2524.5,-400C2524.5,-400 2464.5,-400 2464.5,-400 2458.5,-400 2452.5,-394 2452.5,-388 2452.5,-388 2452.5,-374 2452.5,-374 2452.5,-368 2458.5,-362 2464.5,-362 2464.5,-362 2524.5,-362 2524.5,-362 2530.5,-362 2536.5,-368 2536.5,-374 2536.5,-374 2536.5,-388 2536.5,-388 2536.5,-394 2530.5,-400 2524.5,-400"/>
<text text-anchor="middle" x="2494.5" y="-384.8" font-family="Times,serif" font-size="14.00">llam.io</text>
<text text-anchor="middle" x="2494.5" y="-369.8" font-family="Times,serif" font-size="14.00">Pixel Voices</text>
</g>
<!-- flyordie.io&#45;&gt;llam.io -->
<g id="edge57" class="edge">
<title>flyordie.io&#45;&gt;llam.io</title>
<path fill="none" stroke="black" d="M2494.5,-524.84C2494.5,-497.06 2494.5,-443.76 2494.5,-410.7"/>
<polygon fill="black" stroke="black" points="2498,-410.34 2494.5,-400.34 2491,-410.34 2498,-410.34"/>
</g>
<!-- acolytefight.io -->
<g id="node88" class="node">
<title>acolytefight.io</title>
<path fill="#90caf9" stroke="#90caf9" d="M2650.5,-400C2650.5,-400 2566.5,-400 2566.5,-400 2560.5,-400 2554.5,-394 2554.5,-388 2554.5,-388 2554.5,-374 2554.5,-374 2554.5,-368 2560.5,-362 2566.5,-362 2566.5,-362 2650.5,-362 2650.5,-362 2656.5,-362 2662.5,-368 2662.5,-374 2662.5,-374 2662.5,-388 2662.5,-388 2662.5,-394 2656.5,-400 2650.5,-400"/>
<text text-anchor="middle" x="2608.5" y="-384.8" font-family="Times,serif" font-size="14.00">acolytefight.io</text>
<text text-anchor="middle" x="2608.5" y="-369.8" font-family="Times,serif" font-size="14.00">raysplaceinspace</text>
</g>
<!-- bruh.io&#45;&gt;battlepoint.io -->
<g id="edge34" class="edge">
<title>bruh.io&#45;&gt;battlepoint.io</title>
<path fill="none" stroke="black" d="M1206.42,-680.45C1215.26,-639.7 1236.83,-540.32 1247.42,-491.5"/>
<polygon fill="black" stroke="black" points="1250.87,-492.13 1249.57,-481.61 1244.03,-490.64 1250.87,-492.13"/>
</g>
<!-- buildroyale.io -->
<g id="node96" class="node">
<title>buildroyale.io</title>
<path fill="#fadc91" stroke="#fadc91" d="M585.5,-400C585.5,-400 485.5,-400 485.5,-400 479.5,-400 473.5,-394 473.5,-388 473.5,-388 473.5,-374 473.5,-374 473.5,-368 479.5,-362 485.5,-362 485.5,-362 585.5,-362 585.5,-362 591.5,-362 597.5,-368 597.5,-374 597.5,-374 597.5,-388 597.5,-388 597.5,-394 591.5,-400 585.5,-400"/>
<text text-anchor="middle" x="535.5" y="-384.8" font-family="Times,serif" font-size="14.00">buildroyale.io</text>
<text text-anchor="middle" x="535.5" y="-369.8" font-family="Times,serif" font-size="14.00">Mathew Matakovic</text>
</g>
<!-- zombsroyale.io&#45;&gt;buildroyale.io -->
<g id="edge46" class="edge">
<title>zombsroyale.io&#45;&gt;buildroyale.io</title>
<path fill="none" stroke="black" d="M535.5,-598.95C535.5,-558.28 535.5,-459.23 535.5,-410.31"/>
<polygon fill="black" stroke="black" points="539,-410.11 535.5,-400.11 532,-410.11 539,-410.11"/>
</g>
</g>
</svg>
