<?xml version="1.0" encoding="UTF-8" standalone="no"?>
<!DOCTYPE svg PUBLIC "-//W3C//DTD SVG 1.1//EN"
 "http://www.w3.org/Graphics/SVG/1.1/DTD/svg11.dtd">
<!-- Generated by graphviz version 2.44.0 (0)
 -->
<!-- Title: iogames Pages: 1 -->
<svg width="3138pt" height="1886pt"
 viewBox="0.00 0.00 3138.00 1886.00" xmlns="http://www.w3.org/2000/svg" xmlns:xlink="http://www.w3.org/1999/xlink">
<g id="graph0" class="graph" transform="scale(1 1) rotate(0) translate(4 1882)">
<title>iogames</title>
<polygon fill="white" stroke="transparent" points="-4,4 -4,-1882 3134,-1882 3134,4 -4,4"/>
<text text-anchor="start" x="1395.5" y="-1851" font-family="Times,serif" font-weight="bold" text-decoration="underline" font-size="30.00">History of .io games</text>
<text text-anchor="start" x="1498" y="-1819.8" font-family="Times,serif" font-size="14.00">by </text>
<text text-anchor="start" x="1520" y="-1819.8" font-family="Times,serif" font-weight="bold" font-size="14.00">Julien Mourer</text>
<text text-anchor="start" x="1458" y="-1805.8" font-family="Times,serif" font-size="14.00">Licensed under the CC BY 4.0</text>
<text text-anchor="start" x="1415" y="-1791.8" font-family="Times,serif" font-size="14.00">https://github.com/getkey/io&#45;game&#45;history</text>
<!-- 2009q3 -->
<g id="node1" class="node">
<title>2009q3</title>
<text text-anchor="middle" x="51.5" y="-1761" font-family="Times,serif" font-size="20.00">Q3 2009</text>
</g>
<!-- ... -->
<g id="node24" class="node">
<title>...</title>
<text text-anchor="middle" x="51.5" y="-1689" font-family="Times,serif" font-size="20.00">...</text>
</g>
<!-- 2009q3&#45;&gt;... -->
<!-- 2014q4 -->
<g id="node2" class="node">
<title>2014q4</title>
<text text-anchor="middle" x="51.5" y="-1616" font-family="Times,serif" font-size="20.00">Q4 2014</text>
</g>
<!-- 2015q1 -->
<g id="node3" class="node">
<title>2015q1</title>
<text text-anchor="middle" x="51.5" y="-1543" font-family="Times,serif" font-size="20.00">Q1 2015</text>
</g>
<!-- 2014q4&#45;&gt;2015q1 -->
<!-- 2015q2 -->
<g id="node4" class="node">
<title>2015q2</title>
<text text-anchor="middle" x="51.5" y="-1470" font-family="Times,serif" font-size="20.00">Q2 2015</text>
</g>
<!-- 2015q1&#45;&gt;2015q2 -->
<!-- 2015q3 -->
<g id="node5" class="node">
<title>2015q3</title>
<text text-anchor="middle" x="51.5" y="-1397" font-family="Times,serif" font-size="20.00">Q3 2015</text>
</g>
<!-- 2015q2&#45;&gt;2015q3 -->
<!-- 2015q4 -->
<g id="node6" class="node">
<title>2015q4</title>
<text text-anchor="middle" x="51.5" y="-1324" font-family="Times,serif" font-size="20.00">Q4 2015</text>
</g>
<!-- 2015q3&#45;&gt;2015q4 -->
<!-- 2016q1 -->
<g id="node7" class="node">
<title>2016q1</title>
<text text-anchor="middle" x="51.5" y="-1250" font-family="Times,serif" font-size="20.00">Q1 2016</text>
</g>
<!-- 2015q4&#45;&gt;2016q1 -->
<!-- 2016q2 -->
<g id="node8" class="node">
<title>2016q2</title>
<text text-anchor="middle" x="51.5" y="-1176" font-family="Times,serif" font-size="20.00">Q2 2016</text>
</g>
<!-- 2016q1&#45;&gt;2016q2 -->
<!-- 2016q3 -->
<g id="node9" class="node">
<title>2016q3</title>
<text text-anchor="middle" x="51.5" y="-1102" font-family="Times,serif" font-size="20.00">Q3 2016</text>
</g>
<!-- 2016q2&#45;&gt;2016q3 -->
<!-- 2016q4 -->
<g id="node10" class="node">
<title>2016q4</title>
<text text-anchor="middle" x="51.5" y="-1020.5" font-family="Times,serif" font-size="20.00">Q4 2016</text>
</g>
<!-- 2016q3&#45;&gt;2016q4 -->
<!-- 2017q1 -->
<g id="node11" class="node">
<title>2017q1</title>
<text text-anchor="middle" x="51.5" y="-939" font-family="Times,serif" font-size="20.00">Q1 2017</text>
</g>
<!-- 2016q4&#45;&gt;2017q1 -->
<!-- 2017q2 -->
<g id="node12" class="node">
<title>2017q2</title>
<text text-anchor="middle" x="51.5" y="-865" font-family="Times,serif" font-size="20.00">Q2 2017</text>
</g>
<!-- 2017q1&#45;&gt;2017q2 -->
<!-- 2017q3 -->
<g id="node13" class="node">
<title>2017q3</title>
<text text-anchor="middle" x="51.5" y="-783.5" font-family="Times,serif" font-size="20.00">Q3 2017</text>
</g>
<!-- 2017q2&#45;&gt;2017q3 -->
<!-- 2017q4 -->
<g id="node14" class="node">
<title>2017q4</title>
<text text-anchor="middle" x="51.5" y="-694.5" font-family="Times,serif" font-size="20.00">Q4 2017</text>
</g>
<!-- 2017q3&#45;&gt;2017q4 -->
<!-- 2018q1 -->
<g id="node15" class="node">
<title>2018q1</title>
<text text-anchor="middle" x="51.5" y="-613" font-family="Times,serif" font-size="20.00">Q1 2018</text>
</g>
<!-- 2017q4&#45;&gt;2018q1 -->
<!-- 2018q2 -->
<g id="node16" class="node">
<title>2018q2</title>
<text text-anchor="middle" x="51.5" y="-539" font-family="Times,serif" font-size="20.00">Q2 2018</text>
</g>
<!-- 2018q1&#45;&gt;2018q2 -->
<!-- 2018q3 -->
<g id="node17" class="node">
<title>2018q3</title>
<text text-anchor="middle" x="51.5" y="-457.5" font-family="Times,serif" font-size="20.00">Q3 2018</text>
</g>
<!-- 2018q2&#45;&gt;2018q3 -->
<!-- 2018q4 -->
<g id="node18" class="node">
<title>2018q4</title>
<text text-anchor="middle" x="51.5" y="-376" font-family="Times,serif" font-size="20.00">Q4 2018</text>
</g>
<!-- 2018q3&#45;&gt;2018q4 -->
<!-- 2019q1 -->
<g id="node19" class="node">
<title>2019q1</title>
<text text-anchor="middle" x="51.5" y="-303" font-family="Times,serif" font-size="20.00">Q1 2019</text>
</g>
<!-- 2018q4&#45;&gt;2019q1 -->
<!-- 2019q2 -->
<g id="node20" class="node">
<title>2019q2</title>
<text text-anchor="middle" x="51.5" y="-231" font-family="Times,serif" font-size="20.00">Q2 2019</text>
</g>
<!-- 2019q1&#45;&gt;2019q2 -->
<!-- 2019q3 -->
<g id="node21" class="node">
<title>2019q3</title>
<text text-anchor="middle" x="51.5" y="-159" font-family="Times,serif" font-size="20.00">Q3 2019</text>
</g>
<!-- 2019q2&#45;&gt;2019q3 -->
<!-- 2019q4 -->
<g id="node22" class="node">
<title>2019q4</title>
<text text-anchor="middle" x="51.5" y="-87" font-family="Times,serif" font-size="20.00">Q4 2019</text>
</g>
<!-- 2019q3&#45;&gt;2019q4 -->
<!-- 2020q1 -->
<g id="node23" class="node">
<title>2020q1</title>
<text text-anchor="middle" x="51.5" y="-14" font-family="Times,serif" font-size="20.00">Q1 2020</text>
</g>
<!-- 2019q4&#45;&gt;2020q1 -->
<!-- ...&#45;&gt;2014q4 -->
<!-- pinturillo.com -->
<g id="node25" class="node">
<title>pinturillo.com</title>
<path fill="#e1fa91" stroke="#e1fa91" d="M225.5,-1784C225.5,-1784 133.5,-1784 133.5,-1784 127.5,-1784 121.5,-1778 121.5,-1772 121.5,-1772 121.5,-1760 121.5,-1760 121.5,-1754 127.5,-1748 133.5,-1748 133.5,-1748 225.5,-1748 225.5,-1748 231.5,-1748 237.5,-1754 237.5,-1760 237.5,-1760 237.5,-1772 237.5,-1772 237.5,-1778 231.5,-1784 225.5,-1784"/>
<text text-anchor="middle" x="179.5" y="-1762.3" font-family="Times,serif" font-size="14.00">pinturillo.com</text>
</g>
<!-- pinturillo2.com -->
<g id="node26" class="node">
<title>pinturillo2.com</title>
<path fill="#e1fa91" stroke="#e1fa91" d="M369,-1784C369,-1784 268,-1784 268,-1784 262,-1784 256,-1778 256,-1772 256,-1772 256,-1760 256,-1760 256,-1754 262,-1748 268,-1748 268,-1748 369,-1748 369,-1748 375,-1748 381,-1754 381,-1760 381,-1760 381,-1772 381,-1772 381,-1778 375,-1784 369,-1784"/>
<text text-anchor="middle" x="318.5" y="-1762.3" font-family="Times,serif" font-size="14.00">pinturillo2.com</text>
</g>
<!-- pinturillo.com&#45;&gt;pinturillo2.com -->
<g id="edge60" class="edge">
<title>pinturillo.com&#45;&gt;pinturillo2.com</title>
<path fill="none" stroke="black" d="M237.6,-1766C240.37,-1766 243.13,-1766 245.9,-1766"/>
<polygon fill="black" stroke="black" points="245.93,-1769.5 255.93,-1766 245.93,-1762.5 245.93,-1769.5"/>
</g>
<!-- drawthis.io -->
<g id="node45" class="node">
<title>drawthis.io</title>
<path fill="#90caf9" stroke="#90caf9" d="M278,-1125C278,-1125 205,-1125 205,-1125 199,-1125 193,-1119 193,-1113 193,-1113 193,-1101 193,-1101 193,-1095 199,-1089 205,-1089 205,-1089 278,-1089 278,-1089 284,-1089 290,-1095 290,-1101 290,-1101 290,-1113 290,-1113 290,-1119 284,-1125 278,-1125"/>
<text text-anchor="middle" x="241.5" y="-1103.3" font-family="Times,serif" font-size="14.00">drawthis.io</text>
</g>
<!-- pinturillo2.com&#45;&gt;drawthis.io -->
<g id="edge61" class="edge">
<title>pinturillo2.com&#45;&gt;drawthis.io</title>
<path fill="none" stroke="black" d="M306.48,-1747.86C289.49,-1721.9 260.5,-1670.49 260.5,-1622 260.5,-1622 260.5,-1622 260.5,-1254 260.5,-1212.34 252.8,-1164.55 247.2,-1135.32"/>
<polygon fill="black" stroke="black" points="250.62,-1134.57 245.25,-1125.43 243.75,-1135.92 250.62,-1134.57"/>
</g>
<!-- skribbl.io -->
<g id="node56" class="node">
<title>skribbl.io</title>
<path fill="#90caf9" stroke="#90caf9" d="M348,-963C348,-963 289,-963 289,-963 283,-963 277,-957 277,-951 277,-951 277,-937 277,-937 277,-931 283,-925 289,-925 289,-925 348,-925 348,-925 354,-925 360,-931 360,-937 360,-937 360,-951 360,-951 360,-957 354,-963 348,-963"/>
<text text-anchor="middle" x="318.5" y="-947.8" font-family="Times,serif" font-size="14.00">skribbl.io</text>
<text text-anchor="middle" x="318.5" y="-932.8" font-family="Times,serif" font-size="14.00">mel</text>
</g>
<!-- pinturillo2.com&#45;&gt;skribbl.io -->
<g id="edge63" class="edge">
<title>pinturillo2.com&#45;&gt;skribbl.io</title>
<path fill="none" stroke="black" d="M318.5,-1747.83C318.5,-1720.98 318.5,-1667.43 318.5,-1622 318.5,-1622 318.5,-1622 318.5,-1106 318.5,-1059.54 318.5,-1005.54 318.5,-973.38"/>
<polygon fill="black" stroke="black" points="322,-973.35 318.5,-963.35 315,-973.35 322,-973.35"/>
</g>
<!-- gartic.io -->
<g id="node65" class="node">
<title>gartic.io</title>
<path fill="#90caf9" stroke="#90caf9" d="M414.5,-807.5C414.5,-807.5 362.5,-807.5 362.5,-807.5 356.5,-807.5 350.5,-801.5 350.5,-795.5 350.5,-795.5 350.5,-781.5 350.5,-781.5 350.5,-775.5 356.5,-769.5 362.5,-769.5 362.5,-769.5 414.5,-769.5 414.5,-769.5 420.5,-769.5 426.5,-775.5 426.5,-781.5 426.5,-781.5 426.5,-795.5 426.5,-795.5 426.5,-801.5 420.5,-807.5 414.5,-807.5"/>
<text text-anchor="middle" x="388.5" y="-792.3" font-family="Times,serif" font-size="14.00">gartic.io</text>
<text text-anchor="middle" x="388.5" y="-777.3" font-family="Times,serif" font-size="14.00">Gartic</text>
</g>
<!-- pinturillo2.com&#45;&gt;gartic.io -->
<g id="edge64" class="edge">
<title>pinturillo2.com&#45;&gt;gartic.io</title>
<path fill="none" stroke="black" d="M333.35,-1747.83C353.89,-1722.24 388.5,-1671.75 388.5,-1622 388.5,-1622 388.5,-1622 388.5,-943 388.5,-899.38 388.5,-848.78 388.5,-817.96"/>
<polygon fill="black" stroke="black" points="392,-817.93 388.5,-807.93 385,-817.93 392,-817.93"/>
</g>
<!-- cursors.io -->
<g id="node27" class="node">
<title>cursors.io</title>
<path fill="#90caf9" stroke="#90caf9" d="M558,-1640C558,-1640 429,-1640 429,-1640 423,-1640 417,-1634 417,-1628 417,-1628 417,-1614 417,-1614 417,-1608 423,-1602 429,-1602 429,-1602 558,-1602 558,-1602 564,-1602 570,-1608 570,-1614 570,-1614 570,-1628 570,-1628 570,-1634 564,-1640 558,-1640"/>
<text text-anchor="middle" x="493.5" y="-1624.8" font-family="Times,serif" font-size="14.00">cursors.io</text>
<text text-anchor="middle" x="493.5" y="-1609.8" font-family="Times,serif" font-size="14.00">Matheus Valadares</text>
</g>
<!-- voar.io -->
<g id="node28" class="node">
<title>voar.io</title>
<path fill="#90caf9" stroke="#90caf9" d="M729,-1640C729,-1640 600,-1640 600,-1640 594,-1640 588,-1634 588,-1628 588,-1628 588,-1614 588,-1614 588,-1608 594,-1602 600,-1602 600,-1602 729,-1602 729,-1602 735,-1602 741,-1608 741,-1614 741,-1614 741,-1628 741,-1628 741,-1634 735,-1640 729,-1640"/>
<text text-anchor="middle" x="664.5" y="-1624.8" font-family="Times,serif" font-size="14.00">voar.io</text>
<text text-anchor="middle" x="664.5" y="-1609.8" font-family="Times,serif" font-size="14.00">Matheus Valadares</text>
</g>
<!-- agar.io -->
<g id="node29" class="node">
<title>agar.io</title>
<path fill="#90caf9" stroke="#90caf9" d="M891,-1494C891,-1494 762,-1494 762,-1494 756,-1494 750,-1488 750,-1482 750,-1482 750,-1468 750,-1468 750,-1462 756,-1456 762,-1456 762,-1456 891,-1456 891,-1456 897,-1456 903,-1462 903,-1468 903,-1468 903,-1482 903,-1482 903,-1488 897,-1494 891,-1494"/>
<text text-anchor="middle" x="826.5" y="-1478.8" font-family="Times,serif" font-size="14.00">agar.io</text>
<text text-anchor="middle" x="826.5" y="-1463.8" font-family="Times,serif" font-size="14.00">Matheus Valadares</text>
</g>
<!-- deeeep.io -->
<g id="node38" class="node">
<title>deeeep.io</title>
<path fill="#90caf9" stroke="#90caf9" d="M526,-1043.5C526,-1043.5 465,-1043.5 465,-1043.5 459,-1043.5 453,-1037.5 453,-1031.5 453,-1031.5 453,-1019.5 453,-1019.5 453,-1013.5 459,-1007.5 465,-1007.5 465,-1007.5 526,-1007.5 526,-1007.5 532,-1007.5 538,-1013.5 538,-1019.5 538,-1019.5 538,-1031.5 538,-1031.5 538,-1037.5 532,-1043.5 526,-1043.5"/>
<text text-anchor="middle" x="495.5" y="-1021.8" font-family="Times,serif" font-size="14.00">deeeep.io</text>
</g>
<!-- agar.io&#45;&gt;deeeep.io -->
<g id="edge51" class="edge">
<title>agar.io&#45;&gt;deeeep.io</title>
<path fill="none" stroke="black" d="M767.96,-1455.91C713.77,-1435.09 641.5,-1395.12 641.5,-1330 641.5,-1330 641.5,-1330 641.5,-1180 641.5,-1119.91 582.03,-1074 539.01,-1048.64"/>
<polygon fill="black" stroke="black" points="540.52,-1045.48 530.1,-1043.55 537.04,-1051.55 540.52,-1045.48"/>
</g>
<!-- pie.ai -->
<g id="node53" class="node">
<title>pie.ai</title>
<path fill="#90caf9" stroke="#90caf9" d="M833.5,-962C833.5,-962 801.5,-962 801.5,-962 795.5,-962 789.5,-956 789.5,-950 789.5,-950 789.5,-938 789.5,-938 789.5,-932 795.5,-926 801.5,-926 801.5,-926 833.5,-926 833.5,-926 839.5,-926 845.5,-932 845.5,-938 845.5,-938 845.5,-950 845.5,-950 845.5,-956 839.5,-962 833.5,-962"/>
<text text-anchor="middle" x="817.5" y="-940.3" font-family="Times,serif" font-size="14.00">pie.ai</text>
</g>
<!-- agar.io&#45;&gt;pie.ai -->
<g id="edge50" class="edge">
<title>agar.io&#45;&gt;pie.ai</title>
<path fill="none" stroke="black" d="M826.5,-1455.81C826.5,-1428.5 826.5,-1375.25 826.5,-1330 826.5,-1330 826.5,-1330 826.5,-1106 826.5,-1059.17 822.66,-1004.8 819.99,-972.74"/>
<polygon fill="black" stroke="black" points="823.45,-972.04 819.11,-962.37 816.47,-972.64 823.45,-972.04"/>
</g>
<!-- spinz.io -->
<g id="node59" class="node">
<title>spinz.io</title>
<path fill="#90caf9" stroke="#90caf9" d="M880.5,-889C880.5,-889 826.5,-889 826.5,-889 820.5,-889 814.5,-883 814.5,-877 814.5,-877 814.5,-863 814.5,-863 814.5,-857 820.5,-851 826.5,-851 826.5,-851 880.5,-851 880.5,-851 886.5,-851 892.5,-857 892.5,-863 892.5,-863 892.5,-877 892.5,-877 892.5,-883 886.5,-889 880.5,-889"/>
<text text-anchor="middle" x="853.5" y="-873.8" font-family="Times,serif" font-size="14.00">spinz.io</text>
<text text-anchor="middle" x="853.5" y="-858.8" font-family="Times,serif" font-size="14.00">Yang Lui</text>
</g>
<!-- agar.io&#45;&gt;spinz.io -->
<g id="edge47" class="edge">
<title>agar.io&#45;&gt;spinz.io</title>
<path fill="none" stroke="black" d="M836.47,-1455.98C850.26,-1429.3 873.5,-1377.34 873.5,-1330 873.5,-1330 873.5,-1330 873.5,-1024.5 873.5,-980.51 865.32,-930.01 859.42,-899.32"/>
<polygon fill="black" stroke="black" points="862.82,-898.46 857.45,-889.33 855.96,-899.82 862.82,-898.46"/>
</g>
<!-- vanar.io -->
<g id="node30" class="node">
<title>vanar.io</title>
<path fill="#90caf9" stroke="#90caf9" d="M1335,-1420C1335,-1420 1286,-1420 1286,-1420 1280,-1420 1274,-1414 1274,-1408 1274,-1408 1274,-1396 1274,-1396 1274,-1390 1280,-1384 1286,-1384 1286,-1384 1335,-1384 1335,-1384 1341,-1384 1347,-1390 1347,-1396 1347,-1396 1347,-1408 1347,-1408 1347,-1414 1341,-1420 1335,-1420"/>
<text text-anchor="middle" x="1310.5" y="-1398.3" font-family="Times,serif" font-size="14.00">vanar.io</text>
</g>
<!-- starblast.io -->
<g id="node49" class="node">
<title>starblast.io</title>
<path fill="#90caf9" stroke="#90caf9" d="M1349,-1044.5C1349,-1044.5 1272,-1044.5 1272,-1044.5 1266,-1044.5 1260,-1038.5 1260,-1032.5 1260,-1032.5 1260,-1018.5 1260,-1018.5 1260,-1012.5 1266,-1006.5 1272,-1006.5 1272,-1006.5 1349,-1006.5 1349,-1006.5 1355,-1006.5 1361,-1012.5 1361,-1018.5 1361,-1018.5 1361,-1032.5 1361,-1032.5 1361,-1038.5 1355,-1044.5 1349,-1044.5"/>
<text text-anchor="middle" x="1310.5" y="-1029.3" font-family="Times,serif" font-size="14.00">starblast.io</text>
<text text-anchor="middle" x="1310.5" y="-1014.3" font-family="Times,serif" font-size="14.00">Neuronality</text>
</g>
<!-- vanar.io&#45;&gt;starblast.io -->
<g id="edge69" class="edge">
<title>vanar.io&#45;&gt;starblast.io</title>
<path fill="none" stroke="black" d="M1310.5,-1383.59C1310.5,-1356.37 1310.5,-1302.07 1310.5,-1256 1310.5,-1256 1310.5,-1256 1310.5,-1180 1310.5,-1136.38 1310.5,-1085.78 1310.5,-1054.96"/>
<polygon fill="black" stroke="black" points="1314,-1054.93 1310.5,-1044.93 1307,-1054.93 1314,-1054.93"/>
</g>
<!-- vertix.io -->
<g id="node31" class="node">
<title>vertix.io</title>
<path fill="#90caf9" stroke="#90caf9" d="M1553.5,-1348C1553.5,-1348 1445.5,-1348 1445.5,-1348 1439.5,-1348 1433.5,-1342 1433.5,-1336 1433.5,-1336 1433.5,-1322 1433.5,-1322 1433.5,-1316 1439.5,-1310 1445.5,-1310 1445.5,-1310 1553.5,-1310 1553.5,-1310 1559.5,-1310 1565.5,-1316 1565.5,-1322 1565.5,-1322 1565.5,-1336 1565.5,-1336 1565.5,-1342 1559.5,-1348 1553.5,-1348"/>
<text text-anchor="middle" x="1499.5" y="-1332.8" font-family="Times,serif" font-size="14.00">vertix.io</text>
<text text-anchor="middle" x="1499.5" y="-1317.8" font-family="Times,serif" font-size="14.00">Sydney de Vries</text>
</g>
<!-- nightpoint.io -->
<g id="node67" class="node">
<title>nightpoint.io</title>
<path fill="#90caf9" stroke="#90caf9" d="M1541.5,-807.5C1541.5,-807.5 1457.5,-807.5 1457.5,-807.5 1451.5,-807.5 1445.5,-801.5 1445.5,-795.5 1445.5,-795.5 1445.5,-781.5 1445.5,-781.5 1445.5,-775.5 1451.5,-769.5 1457.5,-769.5 1457.5,-769.5 1541.5,-769.5 1541.5,-769.5 1547.5,-769.5 1553.5,-775.5 1553.5,-781.5 1553.5,-781.5 1553.5,-795.5 1553.5,-795.5 1553.5,-801.5 1547.5,-807.5 1541.5,-807.5"/>
<text text-anchor="middle" x="1499.5" y="-792.3" font-family="Times,serif" font-size="14.00">nightpoint.io</text>
<text text-anchor="middle" x="1499.5" y="-777.3" font-family="Times,serif" font-size="14.00">Sarunas</text>
</g>
<!-- vertix.io&#45;&gt;nightpoint.io -->
<g id="edge28" class="edge">
<title>vertix.io&#45;&gt;nightpoint.io</title>
<path fill="none" stroke="black" d="M1499.5,-1309.56C1499.5,-1281.87 1499.5,-1227.88 1499.5,-1182 1499.5,-1182 1499.5,-1182 1499.5,-943 1499.5,-899.38 1499.5,-848.78 1499.5,-817.96"/>
<polygon fill="black" stroke="black" points="1503,-817.93 1499.5,-807.93 1496,-817.93 1503,-817.93"/>
</g>
<!-- slither.io -->
<g id="node32" class="node">
<title>slither.io</title>
<path fill="#90caf9" stroke="#90caf9" d="M1735.5,-1274C1735.5,-1274 1649.5,-1274 1649.5,-1274 1643.5,-1274 1637.5,-1268 1637.5,-1262 1637.5,-1262 1637.5,-1248 1637.5,-1248 1637.5,-1242 1643.5,-1236 1649.5,-1236 1649.5,-1236 1735.5,-1236 1735.5,-1236 1741.5,-1236 1747.5,-1242 1747.5,-1248 1747.5,-1248 1747.5,-1262 1747.5,-1262 1747.5,-1268 1741.5,-1274 1735.5,-1274"/>
<text text-anchor="middle" x="1692.5" y="-1258.8" font-family="Times,serif" font-size="14.00">slither.io</text>
<text text-anchor="middle" x="1692.5" y="-1243.8" font-family="Times,serif" font-size="14.00">Steve Howse</text>
</g>
<!-- limax.io -->
<g id="node35" class="node">
<title>limax.io</title>
<path fill="#90caf9" stroke="#90caf9" d="M1615,-1200C1615,-1200 1540,-1200 1540,-1200 1534,-1200 1528,-1194 1528,-1188 1528,-1188 1528,-1174 1528,-1174 1528,-1168 1534,-1162 1540,-1162 1540,-1162 1615,-1162 1615,-1162 1621,-1162 1627,-1168 1627,-1174 1627,-1174 1627,-1188 1627,-1188 1627,-1194 1621,-1200 1615,-1200"/>
<text text-anchor="middle" x="1577.5" y="-1184.8" font-family="Times,serif" font-size="14.00">limax.io</text>
<text text-anchor="middle" x="1577.5" y="-1169.8" font-family="Times,serif" font-size="14.00">LapaMauve</text>
</g>
<!-- slither.io&#45;&gt;limax.io -->
<g id="edge26" class="edge">
<title>slither.io&#45;&gt;limax.io</title>
<path fill="none" stroke="black" d="M1663.48,-1235.83C1648.77,-1226.62 1630.74,-1215.33 1614.99,-1205.47"/>
<polygon fill="black" stroke="black" points="1616.84,-1202.5 1606.51,-1200.16 1613.13,-1208.44 1616.84,-1202.5"/>
</g>
<!-- wormax.io -->
<g id="node37" class="node">
<title>wormax.io</title>
<path fill="#90caf9" stroke="#90caf9" d="M1671,-1126C1671,-1126 1604,-1126 1604,-1126 1598,-1126 1592,-1120 1592,-1114 1592,-1114 1592,-1100 1592,-1100 1592,-1094 1598,-1088 1604,-1088 1604,-1088 1671,-1088 1671,-1088 1677,-1088 1683,-1094 1683,-1100 1683,-1100 1683,-1114 1683,-1114 1683,-1120 1677,-1126 1671,-1126"/>
<text text-anchor="middle" x="1637.5" y="-1110.8" font-family="Times,serif" font-size="14.00">wormax.io</text>
<text text-anchor="middle" x="1637.5" y="-1095.8" font-family="Times,serif" font-size="14.00">Elyland</text>
</g>
<!-- slither.io&#45;&gt;wormax.io -->
<g id="edge24" class="edge">
<title>slither.io&#45;&gt;wormax.io</title>
<path fill="none" stroke="black" d="M1685.65,-1235.8C1676.22,-1210.78 1659.16,-1165.5 1648.09,-1136.1"/>
<polygon fill="black" stroke="black" points="1651.24,-1134.55 1644.44,-1126.43 1644.69,-1137.02 1651.24,-1134.55"/>
</g>
<!-- wormate.io -->
<g id="node41" class="node">
<title>wormate.io</title>
<path fill="#90caf9" stroke="#90caf9" d="M1773.5,-1044.5C1773.5,-1044.5 1649.5,-1044.5 1649.5,-1044.5 1643.5,-1044.5 1637.5,-1038.5 1637.5,-1032.5 1637.5,-1032.5 1637.5,-1018.5 1637.5,-1018.5 1637.5,-1012.5 1643.5,-1006.5 1649.5,-1006.5 1649.5,-1006.5 1773.5,-1006.5 1773.5,-1006.5 1779.5,-1006.5 1785.5,-1012.5 1785.5,-1018.5 1785.5,-1018.5 1785.5,-1032.5 1785.5,-1032.5 1785.5,-1038.5 1779.5,-1044.5 1773.5,-1044.5"/>
<text text-anchor="middle" x="1711.5" y="-1029.3" font-family="Times,serif" font-size="14.00">wormate.io</text>
<text text-anchor="middle" x="1711.5" y="-1014.3" font-family="Times,serif" font-size="14.00">Oleksandr Godoba</text>
</g>
<!-- slither.io&#45;&gt;wormate.io -->
<g id="edge25" class="edge">
<title>slither.io&#45;&gt;wormate.io</title>
<path fill="none" stroke="black" d="M1694.02,-1235.77C1697.33,-1196.15 1705.2,-1101.98 1709.15,-1054.66"/>
<polygon fill="black" stroke="black" points="1712.65,-1054.76 1710,-1044.5 1705.68,-1054.18 1712.65,-1054.76"/>
</g>
<!-- powerline.io -->
<g id="node68" class="node">
<title>powerline.io</title>
<path fill="#90caf9" stroke="#90caf9" d="M1862.5,-718.5C1862.5,-718.5 1764.5,-718.5 1764.5,-718.5 1758.5,-718.5 1752.5,-712.5 1752.5,-706.5 1752.5,-706.5 1752.5,-692.5 1752.5,-692.5 1752.5,-686.5 1758.5,-680.5 1764.5,-680.5 1764.5,-680.5 1862.5,-680.5 1862.5,-680.5 1868.5,-680.5 1874.5,-686.5 1874.5,-692.5 1874.5,-692.5 1874.5,-706.5 1874.5,-706.5 1874.5,-712.5 1868.5,-718.5 1862.5,-718.5"/>
<text text-anchor="middle" x="1813.5" y="-703.3" font-family="Times,serif" font-size="14.00">powerline.io</text>
<text text-anchor="middle" x="1813.5" y="-688.3" font-family="Times,serif" font-size="14.00">Andre Almeida</text>
</g>
<!-- slither.io&#45;&gt;powerline.io -->
<g id="edge27" class="edge">
<title>slither.io&#45;&gt;powerline.io</title>
<path fill="none" stroke="black" d="M1722.41,-1235.87C1758.24,-1211.61 1813.5,-1164.95 1813.5,-1108 1813.5,-1108 1813.5,-1108 1813.5,-869 1813.5,-819.85 1813.5,-762.64 1813.5,-729.12"/>
<polygon fill="black" stroke="black" points="1817,-728.7 1813.5,-718.7 1810,-728.7 1817,-728.7"/>
</g>
<!-- diep.io -->
<g id="node33" class="node">
<title>diep.io</title>
<path fill="#90caf9" stroke="#90caf9" d="M1967,-1274C1967,-1274 1838,-1274 1838,-1274 1832,-1274 1826,-1268 1826,-1262 1826,-1262 1826,-1248 1826,-1248 1826,-1242 1832,-1236 1838,-1236 1838,-1236 1967,-1236 1967,-1236 1973,-1236 1979,-1242 1979,-1248 1979,-1248 1979,-1262 1979,-1262 1979,-1268 1973,-1274 1967,-1274"/>
<text text-anchor="middle" x="1902.5" y="-1258.8" font-family="Times,serif" font-size="14.00">diep.io</text>
<text text-anchor="middle" x="1902.5" y="-1243.8" font-family="Times,serif" font-size="14.00">Matheus Valadares</text>
</g>
<!-- tanksmith.io -->
<g id="node79" class="node">
<title>tanksmith.io</title>
<path fill="#90caf9" stroke="#90caf9" d="M1943.5,-563C1943.5,-563 1861.5,-563 1861.5,-563 1855.5,-563 1849.5,-557 1849.5,-551 1849.5,-551 1849.5,-537 1849.5,-537 1849.5,-531 1855.5,-525 1861.5,-525 1861.5,-525 1943.5,-525 1943.5,-525 1949.5,-525 1955.5,-531 1955.5,-537 1955.5,-537 1955.5,-551 1955.5,-551 1955.5,-557 1949.5,-563 1943.5,-563"/>
<text text-anchor="middle" x="1902.5" y="-547.8" font-family="Times,serif" font-size="14.00">tanksmith.io</text>
<text text-anchor="middle" x="1902.5" y="-532.8" font-family="Times,serif" font-size="14.00">IO Ninja</text>
</g>
<!-- diep.io&#45;&gt;tanksmith.io -->
<g id="edge52" class="edge">
<title>diep.io&#45;&gt;tanksmith.io</title>
<path fill="none" stroke="black" d="M1902.5,-1235.56C1902.5,-1207.87 1902.5,-1153.88 1902.5,-1108 1902.5,-1108 1902.5,-1108 1902.5,-698.5 1902.5,-654.88 1902.5,-604.28 1902.5,-573.46"/>
<polygon fill="black" stroke="black" points="1906,-573.43 1902.5,-563.43 1899,-573.43 1906,-573.43"/>
</g>
<!-- wings.io -->
<g id="node34" class="node">
<title>wings.io</title>
<path fill="#90caf9" stroke="#90caf9" d="M2107.5,-1274C2107.5,-1274 2009.5,-1274 2009.5,-1274 2003.5,-1274 1997.5,-1268 1997.5,-1262 1997.5,-1262 1997.5,-1248 1997.5,-1248 1997.5,-1242 2003.5,-1236 2009.5,-1236 2009.5,-1236 2107.5,-1236 2107.5,-1236 2113.5,-1236 2119.5,-1242 2119.5,-1248 2119.5,-1248 2119.5,-1262 2119.5,-1262 2119.5,-1268 2113.5,-1274 2107.5,-1274"/>
<text text-anchor="middle" x="2058.5" y="-1258.8" font-family="Times,serif" font-size="14.00">wings.io</text>
<text text-anchor="middle" x="2058.5" y="-1243.8" font-family="Times,serif" font-size="14.00">Andre Almeida</text>
</g>
<!-- wilds.io -->
<g id="node36" class="node">
<title>wilds.io</title>
<path fill="#90caf9" stroke="#90caf9" d="M1994,-1200C1994,-1200 1943,-1200 1943,-1200 1937,-1200 1931,-1194 1931,-1188 1931,-1188 1931,-1174 1931,-1174 1931,-1168 1937,-1162 1943,-1162 1943,-1162 1994,-1162 1994,-1162 2000,-1162 2006,-1168 2006,-1174 2006,-1174 2006,-1188 2006,-1188 2006,-1194 2000,-1200 1994,-1200"/>
<text text-anchor="middle" x="1968.5" y="-1184.8" font-family="Times,serif" font-size="14.00">wilds.io</text>
<text text-anchor="middle" x="1968.5" y="-1169.8" font-family="Times,serif" font-size="14.00">Rezoner</text>
</g>
<!-- wanderers.io -->
<g id="node70" class="node">
<title>wanderers.io</title>
<path fill="#90caf9" stroke="#90caf9" d="M2059.5,-718.5C2059.5,-718.5 1973.5,-718.5 1973.5,-718.5 1967.5,-718.5 1961.5,-712.5 1961.5,-706.5 1961.5,-706.5 1961.5,-692.5 1961.5,-692.5 1961.5,-686.5 1967.5,-680.5 1973.5,-680.5 1973.5,-680.5 2059.5,-680.5 2059.5,-680.5 2065.5,-680.5 2071.5,-686.5 2071.5,-692.5 2071.5,-692.5 2071.5,-706.5 2071.5,-706.5 2071.5,-712.5 2065.5,-718.5 2059.5,-718.5"/>
<text text-anchor="middle" x="2016.5" y="-703.3" font-family="Times,serif" font-size="14.00">wanderers.io</text>
<text text-anchor="middle" x="2016.5" y="-688.3" font-family="Times,serif" font-size="14.00">Rezoner</text>
</g>
<!-- wilds.io&#45;&gt;wanderers.io -->
<g id="edge45" class="edge">
<title>wilds.io&#45;&gt;wanderers.io</title>
<path fill="none" stroke="black" d="M1968.5,-1161.57C1968.5,-1132.75 1968.5,-1075.27 1968.5,-1026.5 1968.5,-1026.5 1968.5,-1026.5 1968.5,-869 1968.5,-817.73 1989.31,-760.92 2003.53,-728.1"/>
<polygon fill="black" stroke="black" points="2006.83,-729.27 2007.7,-718.72 2000.44,-726.43 2006.83,-729.27"/>
</g>
<!-- oceanar.io -->
<g id="node39" class="node">
<title>oceanar.io</title>
<path fill="#90caf9" stroke="#90caf9" d="M786,-1044.5C786,-1044.5 721,-1044.5 721,-1044.5 715,-1044.5 709,-1038.5 709,-1032.5 709,-1032.5 709,-1018.5 709,-1018.5 709,-1012.5 715,-1006.5 721,-1006.5 721,-1006.5 786,-1006.5 786,-1006.5 792,-1006.5 798,-1012.5 798,-1018.5 798,-1018.5 798,-1032.5 798,-1032.5 798,-1038.5 792,-1044.5 786,-1044.5"/>
<text text-anchor="middle" x="753.5" y="-1029.3" font-family="Times,serif" font-size="14.00">oceanar.io</text>
<text text-anchor="middle" x="753.5" y="-1014.3" font-family="Times,serif" font-size="14.00">S3Games</text>
</g>
<!-- deeeep.io&#45;&gt;oceanar.io -->
<g id="edge33" class="edge">
<title>deeeep.io&#45;&gt;oceanar.io</title>
<path fill="none" stroke="black" d="M513.77,-1043.62C525.06,-1053.5 540.42,-1064.76 556.5,-1070 613.12,-1088.46 633.74,-1088.03 690.5,-1070 702.96,-1066.04 715.09,-1058.63 725.31,-1050.97"/>
<polygon fill="black" stroke="black" points="727.76,-1053.5 733.43,-1044.55 723.41,-1048.01 727.76,-1053.5"/>
</g>
<!-- mope.io -->
<g id="node40" class="node">
<title>mope.io</title>
<path fill="#90caf9" stroke="#90caf9" d="M678.5,-1044.5C678.5,-1044.5 568.5,-1044.5 568.5,-1044.5 562.5,-1044.5 556.5,-1038.5 556.5,-1032.5 556.5,-1032.5 556.5,-1018.5 556.5,-1018.5 556.5,-1012.5 562.5,-1006.5 568.5,-1006.5 568.5,-1006.5 678.5,-1006.5 678.5,-1006.5 684.5,-1006.5 690.5,-1012.5 690.5,-1018.5 690.5,-1018.5 690.5,-1032.5 690.5,-1032.5 690.5,-1038.5 684.5,-1044.5 678.5,-1044.5"/>
<text text-anchor="middle" x="623.5" y="-1029.3" font-family="Times,serif" font-size="14.00">mope.io</text>
<text text-anchor="middle" x="623.5" y="-1014.3" font-family="Times,serif" font-size="14.00">Stan Tatarnykov</text>
</g>
<!-- deeeep.io&#45;&gt;mope.io -->
<g id="edge34" class="edge">
<title>deeeep.io&#45;&gt;mope.io</title>
<path fill="none" stroke="black" d="M538,-1025.5C540.77,-1025.5 543.55,-1025.5 546.32,-1025.5"/>
<polygon fill="black" stroke="black" points="546.37,-1029 556.37,-1025.5 546.37,-1022 546.37,-1029"/>
</g>
<!-- moomoo.io -->
<g id="node54" class="node">
<title>moomoo.io</title>
<path fill="#90caf9" stroke="#90caf9" d="M719.5,-963C719.5,-963 611.5,-963 611.5,-963 605.5,-963 599.5,-957 599.5,-951 599.5,-951 599.5,-937 599.5,-937 599.5,-931 605.5,-925 611.5,-925 611.5,-925 719.5,-925 719.5,-925 725.5,-925 731.5,-931 731.5,-937 731.5,-937 731.5,-951 731.5,-951 731.5,-957 725.5,-963 719.5,-963"/>
<text text-anchor="middle" x="665.5" y="-947.8" font-family="Times,serif" font-size="14.00">moomoo.io</text>
<text text-anchor="middle" x="665.5" y="-932.8" font-family="Times,serif" font-size="14.00">Sydney de Vries</text>
</g>
<!-- mope.io&#45;&gt;moomoo.io -->
<g id="edge35" class="edge">
<title>mope.io&#45;&gt;moomoo.io</title>
<path fill="none" stroke="black" d="M633.03,-1006.46C638.36,-996.37 645.12,-983.58 651.08,-972.29"/>
<polygon fill="black" stroke="black" points="654.29,-973.72 655.86,-963.24 648.1,-970.45 654.29,-973.72"/>
</g>
<!-- paper.io -->
<g id="node42" class="node">
<title>paper.io</title>
<path fill="#90caf9" stroke="#90caf9" d="M2264.5,-1126C2264.5,-1126 2214.5,-1126 2214.5,-1126 2208.5,-1126 2202.5,-1120 2202.5,-1114 2202.5,-1114 2202.5,-1100 2202.5,-1100 2202.5,-1094 2208.5,-1088 2214.5,-1088 2214.5,-1088 2264.5,-1088 2264.5,-1088 2270.5,-1088 2276.5,-1094 2276.5,-1100 2276.5,-1100 2276.5,-1114 2276.5,-1114 2276.5,-1120 2270.5,-1126 2264.5,-1126"/>
<text text-anchor="middle" x="2239.5" y="-1110.8" font-family="Times,serif" font-size="14.00">paper.io</text>
<text text-anchor="middle" x="2239.5" y="-1095.8" font-family="Times,serif" font-size="14.00">Voodoo</text>
</g>
<!-- narwhale.io -->
<g id="node43" class="node">
<title>narwhale.io</title>
<path fill="#90caf9" stroke="#90caf9" d="M2404,-1126C2404,-1126 2307,-1126 2307,-1126 2301,-1126 2295,-1120 2295,-1114 2295,-1114 2295,-1100 2295,-1100 2295,-1094 2301,-1088 2307,-1088 2307,-1088 2404,-1088 2404,-1088 2410,-1088 2416,-1094 2416,-1100 2416,-1100 2416,-1114 2416,-1114 2416,-1120 2410,-1126 2404,-1126"/>
<text text-anchor="middle" x="2355.5" y="-1110.8" font-family="Times,serif" font-size="14.00">narwhale.io</text>
<text text-anchor="middle" x="2355.5" y="-1095.8" font-family="Times,serif" font-size="14.00">Hsi&#45;Hung Shih</text>
</g>
<!-- pikes.io -->
<g id="node62" class="node">
<title>pikes.io</title>
<path fill="#90caf9" stroke="#90caf9" d="M2400.5,-889C2400.5,-889 2310.5,-889 2310.5,-889 2304.5,-889 2298.5,-883 2298.5,-877 2298.5,-877 2298.5,-863 2298.5,-863 2298.5,-857 2304.5,-851 2310.5,-851 2310.5,-851 2400.5,-851 2400.5,-851 2406.5,-851 2412.5,-857 2412.5,-863 2412.5,-863 2412.5,-877 2412.5,-877 2412.5,-883 2406.5,-889 2400.5,-889"/>
<text text-anchor="middle" x="2355.5" y="-873.8" font-family="Times,serif" font-size="14.00">pikes.io</text>
<text text-anchor="middle" x="2355.5" y="-858.8" font-family="Times,serif" font-size="14.00">Clown Games</text>
</g>
<!-- narwhale.io&#45;&gt;pikes.io -->
<g id="edge65" class="edge">
<title>narwhale.io&#45;&gt;pikes.io</title>
<path fill="none" stroke="black" d="M2355.5,-1087.95C2355.5,-1047.28 2355.5,-948.23 2355.5,-899.31"/>
<polygon fill="black" stroke="black" points="2359,-899.11 2355.5,-889.11 2352,-899.11 2359,-899.11"/>
</g>
<!-- splix.io -->
<g id="node44" class="node">
<title>splix.io</title>
<path fill="#90caf9" stroke="#90caf9" d="M2172.5,-1126C2172.5,-1126 2128.5,-1126 2128.5,-1126 2122.5,-1126 2116.5,-1120 2116.5,-1114 2116.5,-1114 2116.5,-1100 2116.5,-1100 2116.5,-1094 2122.5,-1088 2128.5,-1088 2128.5,-1088 2172.5,-1088 2172.5,-1088 2178.5,-1088 2184.5,-1094 2184.5,-1100 2184.5,-1100 2184.5,-1114 2184.5,-1114 2184.5,-1120 2178.5,-1126 2172.5,-1126"/>
<text text-anchor="middle" x="2150.5" y="-1110.8" font-family="Times,serif" font-size="14.00">splix.io</text>
<text text-anchor="middle" x="2150.5" y="-1095.8" font-family="Times,serif" font-size="14.00">Jesper</text>
</g>
<!-- splix.io&#45;&gt;paper.io -->
<g id="edge55" class="edge">
<title>splix.io&#45;&gt;paper.io</title>
<path fill="none" stroke="black" d="M2184.57,-1107C2187.04,-1107 2189.52,-1107 2191.99,-1107"/>
<polygon fill="black" stroke="black" points="2192.17,-1110.5 2202.16,-1107 2192.16,-1103.5 2192.17,-1110.5"/>
</g>
<!-- hexar.io -->
<g id="node52" class="node">
<title>hexar.io</title>
<path fill="#90caf9" stroke="#90caf9" d="M2175,-962C2175,-962 2126,-962 2126,-962 2120,-962 2114,-956 2114,-950 2114,-950 2114,-938 2114,-938 2114,-932 2120,-926 2126,-926 2126,-926 2175,-926 2175,-926 2181,-926 2187,-932 2187,-938 2187,-938 2187,-950 2187,-950 2187,-956 2181,-962 2175,-962"/>
<text text-anchor="middle" x="2150.5" y="-940.3" font-family="Times,serif" font-size="14.00">hexar.io</text>
</g>
<!-- splix.io&#45;&gt;hexar.io -->
<g id="edge56" class="edge">
<title>splix.io&#45;&gt;hexar.io</title>
<path fill="none" stroke="black" d="M2150.5,-1087.84C2150.5,-1059.77 2150.5,-1005.62 2150.5,-972.66"/>
<polygon fill="black" stroke="black" points="2154,-972.36 2150.5,-962.36 2147,-972.36 2154,-972.36"/>
</g>
<!-- drawthis2.io -->
<g id="node81" class="node">
<title>drawthis2.io</title>
<path fill="#90caf9" stroke="#90caf9" d="M282.5,-563C282.5,-563 200.5,-563 200.5,-563 194.5,-563 188.5,-557 188.5,-551 188.5,-551 188.5,-537 188.5,-537 188.5,-531 194.5,-525 200.5,-525 200.5,-525 282.5,-525 282.5,-525 288.5,-525 294.5,-531 294.5,-537 294.5,-537 294.5,-551 294.5,-551 294.5,-557 288.5,-563 282.5,-563"/>
<text text-anchor="middle" x="241.5" y="-547.8" font-family="Times,serif" font-size="14.00">drawthis2.io</text>
<text text-anchor="middle" x="241.5" y="-532.8" font-family="Times,serif" font-size="14.00">lagged.com</text>
</g>
<!-- drawthis.io&#45;&gt;drawthis2.io -->
<g id="edge62" class="edge">
<title>drawthis.io&#45;&gt;drawthis2.io</title>
<path fill="none" stroke="black" d="M241.5,-1088.61C241.5,-1059.08 241.5,-997.27 241.5,-945 241.5,-945 241.5,-945 241.5,-698.5 241.5,-654.88 241.5,-604.28 241.5,-573.46"/>
<polygon fill="black" stroke="black" points="245,-573.43 241.5,-563.43 238,-573.43 245,-573.43"/>
</g>
<!-- bonk.io -->
<g id="node46" class="node">
<title>bonk.io</title>
<path fill="#90caf9" stroke="#90caf9" d="M2490.5,-1126C2490.5,-1126 2446.5,-1126 2446.5,-1126 2440.5,-1126 2434.5,-1120 2434.5,-1114 2434.5,-1114 2434.5,-1100 2434.5,-1100 2434.5,-1094 2440.5,-1088 2446.5,-1088 2446.5,-1088 2490.5,-1088 2490.5,-1088 2496.5,-1088 2502.5,-1094 2502.5,-1100 2502.5,-1100 2502.5,-1114 2502.5,-1114 2502.5,-1120 2496.5,-1126 2490.5,-1126"/>
<text text-anchor="middle" x="2468.5" y="-1110.8" font-family="Times,serif" font-size="14.00">bonk.io</text>
<text text-anchor="middle" x="2468.5" y="-1095.8" font-family="Times,serif" font-size="14.00">Chaz</text>
</g>
<!-- bonk2.io -->
<g id="node87" class="node">
<title>bonk2.io</title>
<path fill="#90caf9" stroke="#90caf9" d="M2495,-38C2495,-38 2442,-38 2442,-38 2436,-38 2430,-32 2430,-26 2430,-26 2430,-12 2430,-12 2430,-6 2436,0 2442,0 2442,0 2495,0 2495,0 2501,0 2507,-6 2507,-12 2507,-12 2507,-26 2507,-26 2507,-32 2501,-38 2495,-38"/>
<text text-anchor="middle" x="2468.5" y="-22.8" font-family="Times,serif" font-size="14.00">bonk2.io</text>
<text text-anchor="middle" x="2468.5" y="-7.8" font-family="Times,serif" font-size="14.00">Chaz</text>
</g>
<!-- bonk.io&#45;&gt;bonk2.io -->
<g id="edge53" class="edge">
<title>bonk.io&#45;&gt;bonk2.io</title>
<path fill="none" stroke="black" d="M2468.5,-1087.65C2468.5,-1057.76 2468.5,-996.71 2468.5,-945 2468.5,-945 2468.5,-945 2468.5,-163 2468.5,-123.15 2468.5,-77.06 2468.5,-48.22"/>
<polygon fill="black" stroke="black" points="2472,-48.06 2468.5,-38.06 2465,-48.06 2472,-48.06"/>
</g>
<!-- hordes.io -->
<g id="node47" class="node">
<title>hordes.io</title>
<path fill="#90caf9" stroke="#90caf9" d="M2592,-1126C2592,-1126 2533,-1126 2533,-1126 2527,-1126 2521,-1120 2521,-1114 2521,-1114 2521,-1100 2521,-1100 2521,-1094 2527,-1088 2533,-1088 2533,-1088 2592,-1088 2592,-1088 2598,-1088 2604,-1094 2604,-1100 2604,-1100 2604,-1114 2604,-1114 2604,-1120 2598,-1126 2592,-1126"/>
<text text-anchor="middle" x="2562.5" y="-1110.8" font-family="Times,serif" font-size="14.00">hordes.io</text>
<text text-anchor="middle" x="2562.5" y="-1095.8" font-family="Times,serif" font-size="14.00">dek</text>
</g>
<!-- krew.io -->
<g id="node48" class="node">
<title>krew.io</title>
<path fill="#90caf9" stroke="#90caf9" d="M2562,-1052C2562,-1052 2509,-1052 2509,-1052 2503,-1052 2497,-1046 2497,-1040 2497,-1040 2497,-1011 2497,-1011 2497,-1005 2503,-999 2509,-999 2509,-999 2562,-999 2562,-999 2568,-999 2574,-1005 2574,-1011 2574,-1011 2574,-1040 2574,-1040 2574,-1046 2568,-1052 2562,-1052"/>
<text text-anchor="middle" x="2535.5" y="-1036.8" font-family="Times,serif" font-size="14.00">krew.io</text>
<text text-anchor="middle" x="2535.5" y="-1021.8" font-family="Times,serif" font-size="14.00">M0dE &amp;</text>
<text text-anchor="middle" x="2535.5" y="-1006.8" font-family="Times,serif" font-size="14.00"> dek</text>
</g>
<!-- microgravity.io -->
<g id="node83" class="node">
<title>microgravity.io</title>
<path fill="#90caf9" stroke="#90caf9" d="M1366.5,-489C1366.5,-489 1254.5,-489 1254.5,-489 1248.5,-489 1242.5,-483 1242.5,-477 1242.5,-477 1242.5,-448 1242.5,-448 1242.5,-442 1248.5,-436 1254.5,-436 1254.5,-436 1366.5,-436 1366.5,-436 1372.5,-436 1378.5,-442 1378.5,-448 1378.5,-448 1378.5,-477 1378.5,-477 1378.5,-483 1372.5,-489 1366.5,-489"/>
<text text-anchor="middle" x="1310.5" y="-473.8" font-family="Times,serif" font-size="14.00">microgravity.io</text>
<text text-anchor="middle" x="1310.5" y="-458.8" font-family="Times,serif" font-size="14.00">Nathan Flurry &amp;</text>
<text text-anchor="middle" x="1310.5" y="-443.8" font-family="Times,serif" font-size="14.00">Nicholas Kissel</text>
</g>
<!-- starblast.io&#45;&gt;microgravity.io -->
<g id="edge70" class="edge">
<title>starblast.io&#45;&gt;microgravity.io</title>
<path fill="none" stroke="black" d="M1310.5,-1006.07C1310.5,-977.25 1310.5,-919.77 1310.5,-871 1310.5,-871 1310.5,-871 1310.5,-617 1310.5,-576.71 1310.5,-530.48 1310.5,-499.37"/>
<polygon fill="black" stroke="black" points="1314,-499.03 1310.5,-489.03 1307,-499.03 1314,-499.03"/>
</g>
<!-- oib.io -->
<g id="node50" class="node">
<title>oib.io</title>
<path fill="#90caf9" stroke="#90caf9" d="M2084,-963C2084,-963 2009,-963 2009,-963 2003,-963 1997,-957 1997,-951 1997,-951 1997,-937 1997,-937 1997,-931 2003,-925 2009,-925 2009,-925 2084,-925 2084,-925 2090,-925 2096,-931 2096,-937 2096,-937 2096,-951 2096,-951 2096,-957 2090,-963 2084,-963"/>
<text text-anchor="middle" x="2046.5" y="-947.8" font-family="Times,serif" font-size="14.00">oib.io</text>
<text text-anchor="middle" x="2046.5" y="-932.8" font-family="Times,serif" font-size="14.00">LapaMauve</text>
</g>
<!-- oib.io&#45;&gt;wanderers.io -->
<g id="edge46" class="edge">
<title>oib.io&#45;&gt;wanderers.io</title>
<path fill="none" stroke="black" d="M2044.25,-924.77C2039.05,-882.8 2026.22,-779.09 2020,-728.77"/>
<polygon fill="black" stroke="black" points="2023.44,-728.1 2018.74,-718.61 2016.49,-728.96 2023.44,-728.1"/>
</g>
<!-- brutal.io -->
<g id="node51" class="node">
<title>brutal.io</title>
<path fill="#90caf9" stroke="#90caf9" d="M2606.5,-963C2606.5,-963 2508.5,-963 2508.5,-963 2502.5,-963 2496.5,-957 2496.5,-951 2496.5,-951 2496.5,-937 2496.5,-937 2496.5,-931 2502.5,-925 2508.5,-925 2508.5,-925 2606.5,-925 2606.5,-925 2612.5,-925 2618.5,-931 2618.5,-937 2618.5,-937 2618.5,-951 2618.5,-951 2618.5,-957 2612.5,-963 2606.5,-963"/>
<text text-anchor="middle" x="2557.5" y="-947.8" font-family="Times,serif" font-size="14.00">brutal.io</text>
<text text-anchor="middle" x="2557.5" y="-932.8" font-family="Times,serif" font-size="14.00">Andre Almeida</text>
</g>
<!-- superhex.io -->
<g id="node63" class="node">
<title>superhex.io</title>
<path fill="#90caf9" stroke="#90caf9" d="M2188.5,-888C2188.5,-888 2112.5,-888 2112.5,-888 2106.5,-888 2100.5,-882 2100.5,-876 2100.5,-876 2100.5,-864 2100.5,-864 2100.5,-858 2106.5,-852 2112.5,-852 2112.5,-852 2188.5,-852 2188.5,-852 2194.5,-852 2200.5,-858 2200.5,-864 2200.5,-864 2200.5,-876 2200.5,-876 2200.5,-882 2194.5,-888 2188.5,-888"/>
<text text-anchor="middle" x="2150.5" y="-866.3" font-family="Times,serif" font-size="14.00">superhex.io</text>
</g>
<!-- hexar.io&#45;&gt;superhex.io -->
<g id="edge57" class="edge">
<title>hexar.io&#45;&gt;superhex.io</title>
<path fill="none" stroke="black" d="M2150.5,-925.94C2150.5,-917.81 2150.5,-907.88 2150.5,-898.7"/>
<polygon fill="black" stroke="black" points="2154,-898.44 2150.5,-888.44 2147,-898.44 2154,-898.44"/>
</g>
<!-- starve.io -->
<g id="node55" class="node">
<title>starve.io</title>
<path fill="#90caf9" stroke="#90caf9" d="M1091,-963C1091,-963 1016,-963 1016,-963 1010,-963 1004,-957 1004,-951 1004,-951 1004,-937 1004,-937 1004,-931 1010,-925 1016,-925 1016,-925 1091,-925 1091,-925 1097,-925 1103,-931 1103,-937 1103,-937 1103,-951 1103,-951 1103,-957 1097,-963 1091,-963"/>
<text text-anchor="middle" x="1053.5" y="-947.8" font-family="Times,serif" font-size="14.00">starve.io</text>
<text text-anchor="middle" x="1053.5" y="-932.8" font-family="Times,serif" font-size="14.00">LapaMauve</text>
</g>
<!-- moomoo.io&#45;&gt;starve.io -->
<g id="edge39" class="edge">
<title>moomoo.io&#45;&gt;starve.io</title>
<path fill="none" stroke="black" d="M717.23,-963.09C739.19,-970.23 765.27,-977.46 789.5,-981 859.77,-991.26 940.65,-975.93 994.18,-962"/>
<polygon fill="black" stroke="black" points="995.09,-965.38 1003.85,-959.42 993.28,-958.61 995.09,-965.38"/>
</g>
<!-- zombs.io -->
<g id="node58" class="node">
<title>zombs.io</title>
<path fill="#90caf9" stroke="#90caf9" d="M783.5,-889C783.5,-889 727.5,-889 727.5,-889 721.5,-889 715.5,-883 715.5,-877 715.5,-877 715.5,-863 715.5,-863 715.5,-857 721.5,-851 727.5,-851 727.5,-851 783.5,-851 783.5,-851 789.5,-851 795.5,-857 795.5,-863 795.5,-863 795.5,-877 795.5,-877 795.5,-883 789.5,-889 783.5,-889"/>
<text text-anchor="middle" x="755.5" y="-873.8" font-family="Times,serif" font-size="14.00">zombs.io</text>
<text text-anchor="middle" x="755.5" y="-858.8" font-family="Times,serif" font-size="14.00">Yang Lui</text>
</g>
<!-- moomoo.io&#45;&gt;zombs.io -->
<g id="edge42" class="edge">
<title>moomoo.io&#45;&gt;zombs.io</title>
<path fill="none" stroke="black" d="M688.21,-924.83C699.3,-915.96 712.8,-905.16 724.79,-895.57"/>
<polygon fill="black" stroke="black" points="727.17,-898.14 732.8,-889.16 722.8,-892.68 727.17,-898.14"/>
</g>
<!-- foes.io -->
<g id="node66" class="node">
<title>foes.io</title>
<path fill="#90caf9" stroke="#90caf9" d="M564.5,-807.5C564.5,-807.5 456.5,-807.5 456.5,-807.5 450.5,-807.5 444.5,-801.5 444.5,-795.5 444.5,-795.5 444.5,-781.5 444.5,-781.5 444.5,-775.5 450.5,-769.5 456.5,-769.5 456.5,-769.5 564.5,-769.5 564.5,-769.5 570.5,-769.5 576.5,-775.5 576.5,-781.5 576.5,-781.5 576.5,-795.5 576.5,-795.5 576.5,-801.5 570.5,-807.5 564.5,-807.5"/>
<text text-anchor="middle" x="510.5" y="-792.3" font-family="Times,serif" font-size="14.00">foes.io</text>
<text text-anchor="middle" x="510.5" y="-777.3" font-family="Times,serif" font-size="14.00">Sydney de Vries</text>
</g>
<!-- moomoo.io&#45;&gt;foes.io -->
<g id="edge36" class="edge">
<title>moomoo.io&#45;&gt;foes.io</title>
<path fill="none" stroke="black" d="M636.68,-924.93C622.11,-915.15 604.59,-902.36 590.5,-889 566.75,-866.48 543.78,-836.84 528.6,-815.78"/>
<polygon fill="black" stroke="black" points="531.43,-813.73 522.78,-807.61 525.73,-817.78 531.43,-813.73"/>
</g>
<!-- doomed.io -->
<g id="node69" class="node">
<title>doomed.io</title>
<path fill="#90caf9" stroke="#90caf9" d="M637.5,-718.5C637.5,-718.5 571.5,-718.5 571.5,-718.5 565.5,-718.5 559.5,-712.5 559.5,-706.5 559.5,-706.5 559.5,-692.5 559.5,-692.5 559.5,-686.5 565.5,-680.5 571.5,-680.5 571.5,-680.5 637.5,-680.5 637.5,-680.5 643.5,-680.5 649.5,-686.5 649.5,-692.5 649.5,-692.5 649.5,-706.5 649.5,-706.5 649.5,-712.5 643.5,-718.5 637.5,-718.5"/>
<text text-anchor="middle" x="604.5" y="-703.3" font-family="Times,serif" font-size="14.00">doomed.io</text>
<text text-anchor="middle" x="604.5" y="-688.3" font-family="Times,serif" font-size="14.00">Ginoda</text>
</g>
<!-- moomoo.io&#45;&gt;doomed.io -->
<g id="edge37" class="edge">
<title>moomoo.io&#45;&gt;doomed.io</title>
<path fill="none" stroke="black" d="M658.48,-924.6C649.3,-899.97 633.26,-854.75 623.5,-815 616.37,-785.94 611.12,-752.07 607.96,-728.75"/>
<polygon fill="black" stroke="black" points="611.39,-727.98 606.63,-718.52 604.45,-728.89 611.39,-727.98"/>
</g>
<!-- surviv.io -->
<g id="node88" class="node">
<title>surviv.io</title>
<path fill="#fadc91" stroke="#fadc91" d="M728.5,-815C728.5,-815 644.5,-815 644.5,-815 638.5,-815 632.5,-809 632.5,-803 632.5,-803 632.5,-774 632.5,-774 632.5,-768 638.5,-762 644.5,-762 644.5,-762 728.5,-762 728.5,-762 734.5,-762 740.5,-768 740.5,-774 740.5,-774 740.5,-803 740.5,-803 740.5,-809 734.5,-815 728.5,-815"/>
<text text-anchor="middle" x="686.5" y="-799.8" font-family="Times,serif" font-size="14.00">surviv.io</text>
<text text-anchor="middle" x="686.5" y="-784.8" font-family="Times,serif" font-size="14.00">Justin Kim &amp;</text>
<text text-anchor="middle" x="686.5" y="-769.8" font-family="Times,serif" font-size="14.00"> Nick Clark</text>
</g>
<!-- moomoo.io&#45;&gt;surviv.io -->
<g id="edge41" class="edge">
<title>moomoo.io&#45;&gt;surviv.io</title>
<path fill="none" stroke="black" d="M667.99,-924.79C671.34,-900.32 677.36,-856.29 681.63,-825.12"/>
<polygon fill="black" stroke="black" points="685.11,-825.47 683,-815.09 678.18,-824.52 685.11,-825.47"/>
</g>
<!-- devast.io -->
<g id="node84" class="node">
<title>devast.io</title>
<path fill="#90caf9" stroke="#90caf9" d="M1212,-481.5C1212,-481.5 1137,-481.5 1137,-481.5 1131,-481.5 1125,-475.5 1125,-469.5 1125,-469.5 1125,-455.5 1125,-455.5 1125,-449.5 1131,-443.5 1137,-443.5 1137,-443.5 1212,-443.5 1212,-443.5 1218,-443.5 1224,-449.5 1224,-455.5 1224,-455.5 1224,-469.5 1224,-469.5 1224,-475.5 1218,-481.5 1212,-481.5"/>
<text text-anchor="middle" x="1174.5" y="-466.3" font-family="Times,serif" font-size="14.00">devast.io</text>
<text text-anchor="middle" x="1174.5" y="-451.3" font-family="Times,serif" font-size="14.00">LapaMauve</text>
</g>
<!-- starve.io&#45;&gt;devast.io -->
<g id="edge40" class="edge">
<title>starve.io&#45;&gt;devast.io</title>
<path fill="none" stroke="black" d="M1103.2,-927.29C1122.29,-918.85 1142.58,-906.49 1155.5,-889 1182.25,-852.79 1174.5,-834.52 1174.5,-789.5 1174.5,-789.5 1174.5,-789.5 1174.5,-617 1174.5,-573.38 1174.5,-522.78 1174.5,-491.96"/>
<polygon fill="black" stroke="black" points="1178,-491.93 1174.5,-481.93 1171,-491.93 1178,-491.93"/>
</g>
<!-- stabby.io -->
<g id="node57" class="node">
<title>stabby.io</title>
<path fill="#90caf9" stroke="#90caf9" d="M2572,-889C2572,-889 2509,-889 2509,-889 2503,-889 2497,-883 2497,-877 2497,-877 2497,-863 2497,-863 2497,-857 2503,-851 2509,-851 2509,-851 2572,-851 2572,-851 2578,-851 2584,-857 2584,-863 2584,-863 2584,-877 2584,-877 2584,-883 2578,-889 2572,-889"/>
<text text-anchor="middle" x="2540.5" y="-873.8" font-family="Times,serif" font-size="14.00">stabby.io</text>
<text text-anchor="middle" x="2540.5" y="-858.8" font-family="Times,serif" font-size="14.00">SoulFoam</text>
</g>
<!-- zombsroyale.io -->
<g id="node90" class="node">
<title>zombsroyale.io</title>
<path fill="#fadc91" stroke="#fadc91" d="M818.5,-637C818.5,-637 718.5,-637 718.5,-637 712.5,-637 706.5,-631 706.5,-625 706.5,-625 706.5,-611 706.5,-611 706.5,-605 712.5,-599 718.5,-599 718.5,-599 818.5,-599 818.5,-599 824.5,-599 830.5,-605 830.5,-611 830.5,-611 830.5,-625 830.5,-625 830.5,-631 824.5,-637 818.5,-637"/>
<text text-anchor="middle" x="768.5" y="-621.8" font-family="Times,serif" font-size="14.00">zombsroyale.io</text>
<text text-anchor="middle" x="768.5" y="-606.8" font-family="Times,serif" font-size="14.00">Yang Lui</text>
</g>
<!-- zombs.io&#45;&gt;zombsroyale.io -->
<g id="edge43" class="edge">
<title>zombs.io&#45;&gt;zombsroyale.io</title>
<path fill="none" stroke="black" d="M756.46,-850.62C758.71,-807.35 764.35,-698.85 767.03,-647.19"/>
<polygon fill="black" stroke="black" points="770.54,-647.24 767.56,-637.07 763.55,-646.88 770.54,-647.24"/>
</g>
<!-- superspin.io -->
<g id="node60" class="node">
<title>superspin.io</title>
<path fill="#90caf9" stroke="#90caf9" d="M1134.5,-889C1134.5,-889 1054.5,-889 1054.5,-889 1048.5,-889 1042.5,-883 1042.5,-877 1042.5,-877 1042.5,-863 1042.5,-863 1042.5,-857 1048.5,-851 1054.5,-851 1054.5,-851 1134.5,-851 1134.5,-851 1140.5,-851 1146.5,-857 1146.5,-863 1146.5,-863 1146.5,-877 1146.5,-877 1146.5,-883 1140.5,-889 1134.5,-889"/>
<text text-anchor="middle" x="1094.5" y="-873.8" font-family="Times,serif" font-size="14.00">superspin.io</text>
<text text-anchor="middle" x="1094.5" y="-858.8" font-family="Times,serif" font-size="14.00">Jetti Games</text>
</g>
<!-- spinz.io&#45;&gt;superspin.io -->
<g id="edge49" class="edge">
<title>spinz.io&#45;&gt;superspin.io</title>
<path fill="none" stroke="black" d="M876.38,-889.17C886.23,-896.23 898.28,-903.38 910.5,-907 959.08,-921.39 975.32,-919.2 1024.5,-907 1035.63,-904.24 1046.95,-899.35 1057.14,-894"/>
<polygon fill="black" stroke="black" points="1059.09,-896.92 1066.15,-889.02 1055.7,-890.8 1059.09,-896.92"/>
</g>
<!-- fisp.io -->
<g id="node61" class="node">
<title>fisp.io</title>
<path fill="#90caf9" stroke="#90caf9" d="M1012.5,-889C1012.5,-889 922.5,-889 922.5,-889 916.5,-889 910.5,-883 910.5,-877 910.5,-877 910.5,-863 910.5,-863 910.5,-857 916.5,-851 922.5,-851 922.5,-851 1012.5,-851 1012.5,-851 1018.5,-851 1024.5,-857 1024.5,-863 1024.5,-863 1024.5,-877 1024.5,-877 1024.5,-883 1018.5,-889 1012.5,-889"/>
<text text-anchor="middle" x="967.5" y="-873.8" font-family="Times,serif" font-size="14.00">fisp.io</text>
<text text-anchor="middle" x="967.5" y="-858.8" font-family="Times,serif" font-size="14.00">Clown Games</text>
</g>
<!-- spinz.io&#45;&gt;fisp.io -->
<g id="edge48" class="edge">
<title>spinz.io&#45;&gt;fisp.io</title>
<path fill="none" stroke="black" d="M892.69,-870C895.15,-870 897.62,-870 900.08,-870"/>
<polygon fill="black" stroke="black" points="900.22,-873.5 910.22,-870 900.22,-866.5 900.22,-873.5"/>
</g>
<!-- goons.io -->
<g id="node64" class="node">
<title>goons.io</title>
<path fill="#90caf9" stroke="#90caf9" d="M2400.5,-807.5C2400.5,-807.5 2310.5,-807.5 2310.5,-807.5 2304.5,-807.5 2298.5,-801.5 2298.5,-795.5 2298.5,-795.5 2298.5,-781.5 2298.5,-781.5 2298.5,-775.5 2304.5,-769.5 2310.5,-769.5 2310.5,-769.5 2400.5,-769.5 2400.5,-769.5 2406.5,-769.5 2412.5,-775.5 2412.5,-781.5 2412.5,-781.5 2412.5,-795.5 2412.5,-795.5 2412.5,-801.5 2406.5,-807.5 2400.5,-807.5"/>
<text text-anchor="middle" x="2355.5" y="-792.3" font-family="Times,serif" font-size="14.00">goons.io</text>
<text text-anchor="middle" x="2355.5" y="-777.3" font-family="Times,serif" font-size="14.00">Clown Games</text>
</g>
<!-- pikes.io&#45;&gt;goons.io -->
<g id="edge66" class="edge">
<title>pikes.io&#45;&gt;goons.io</title>
<path fill="none" stroke="black" d="M2355.5,-850.96C2355.5,-841.17 2355.5,-828.85 2355.5,-817.81"/>
<polygon fill="black" stroke="black" points="2359,-817.74 2355.5,-807.74 2352,-817.74 2359,-817.74"/>
</g>
<!-- knuckol.club -->
<g id="node76" class="node">
<title>knuckol.club</title>
<path fill="#90caf9" stroke="#90caf9" d="M2396.5,-637C2396.5,-637 2314.5,-637 2314.5,-637 2308.5,-637 2302.5,-631 2302.5,-625 2302.5,-625 2302.5,-611 2302.5,-611 2302.5,-605 2308.5,-599 2314.5,-599 2314.5,-599 2396.5,-599 2396.5,-599 2402.5,-599 2408.5,-605 2408.5,-611 2408.5,-611 2408.5,-625 2408.5,-625 2408.5,-631 2402.5,-637 2396.5,-637"/>
<text text-anchor="middle" x="2355.5" y="-621.8" font-family="Times,serif" font-size="14.00">knuckol.club</text>
<text text-anchor="middle" x="2355.5" y="-606.8" font-family="Times,serif" font-size="14.00">Erigato</text>
</g>
<!-- goons.io&#45;&gt;knuckol.club -->
<g id="edge67" class="edge">
<title>goons.io&#45;&gt;knuckol.club</title>
<path fill="none" stroke="black" d="M2355.5,-769.47C2355.5,-740.28 2355.5,-682.45 2355.5,-647.6"/>
<polygon fill="black" stroke="black" points="2359,-647.16 2355.5,-637.16 2352,-647.16 2359,-647.16"/>
</g>
<!-- shootem.io -->
<g id="node75" class="node">
<title>shootem.io</title>
<path fill="#90caf9" stroke="#90caf9" d="M1478.5,-637C1478.5,-637 1350.5,-637 1350.5,-637 1344.5,-637 1338.5,-631 1338.5,-625 1338.5,-625 1338.5,-611 1338.5,-611 1338.5,-605 1344.5,-599 1350.5,-599 1350.5,-599 1478.5,-599 1478.5,-599 1484.5,-599 1490.5,-605 1490.5,-611 1490.5,-611 1490.5,-625 1490.5,-625 1490.5,-631 1484.5,-637 1478.5,-637"/>
<text text-anchor="middle" x="1414.5" y="-621.8" font-family="Times,serif" font-size="14.00">shootem.io</text>
<text text-anchor="middle" x="1414.5" y="-606.8" font-family="Times,serif" font-size="14.00">Mathew Matakovic</text>
</g>
<!-- nightpoint.io&#45;&gt;shootem.io -->
<g id="edge31" class="edge">
<title>nightpoint.io&#45;&gt;shootem.io</title>
<path fill="none" stroke="black" d="M1473.02,-769.44C1459.07,-758.5 1442.93,-743.34 1433.5,-726 1420.25,-701.64 1415.95,-669.99 1414.69,-647.45"/>
<polygon fill="black" stroke="black" points="1418.18,-647.04 1414.29,-637.18 1411.19,-647.31 1418.18,-647.04"/>
</g>
<!-- bruh.io -->
<g id="node89" class="node">
<title>bruh.io</title>
<path fill="#fadc91" stroke="#fadc91" d="M1544,-718.5C1544,-718.5 1455,-718.5 1455,-718.5 1449,-718.5 1443,-712.5 1443,-706.5 1443,-706.5 1443,-692.5 1443,-692.5 1443,-686.5 1449,-680.5 1455,-680.5 1455,-680.5 1544,-680.5 1544,-680.5 1550,-680.5 1556,-686.5 1556,-692.5 1556,-692.5 1556,-706.5 1556,-706.5 1556,-712.5 1550,-718.5 1544,-718.5"/>
<text text-anchor="middle" x="1499.5" y="-703.3" font-family="Times,serif" font-size="14.00">bruh.io</text>
<text text-anchor="middle" x="1499.5" y="-688.3" font-family="Times,serif" font-size="14.00">Bitfox Games</text>
</g>
<!-- nightpoint.io&#45;&gt;bruh.io -->
<g id="edge30" class="edge">
<title>nightpoint.io&#45;&gt;bruh.io</title>
<path fill="none" stroke="black" d="M1499.5,-769.47C1499.5,-757.69 1499.5,-742.06 1499.5,-728.66"/>
<polygon fill="black" stroke="black" points="1503,-728.5 1499.5,-718.5 1496,-728.5 1503,-728.5"/>
</g>
<!-- battlepoint.io -->
<g id="node92" class="node">
<title>battlepoint.io</title>
<path fill="#fadc91" stroke="#fadc91" d="M1603,-481.5C1603,-481.5 1514,-481.5 1514,-481.5 1508,-481.5 1502,-475.5 1502,-469.5 1502,-469.5 1502,-455.5 1502,-455.5 1502,-449.5 1508,-443.5 1514,-443.5 1514,-443.5 1603,-443.5 1603,-443.5 1609,-443.5 1615,-449.5 1615,-455.5 1615,-455.5 1615,-469.5 1615,-469.5 1615,-475.5 1609,-481.5 1603,-481.5"/>
<text text-anchor="middle" x="1558.5" y="-466.3" font-family="Times,serif" font-size="14.00">battlepoint.io</text>
<text text-anchor="middle" x="1558.5" y="-451.3" font-family="Times,serif" font-size="14.00">Sarunas</text>
</g>
<!-- nightpoint.io&#45;&gt;battlepoint.io -->
<g id="edge29" class="edge">
<title>nightpoint.io&#45;&gt;battlepoint.io</title>
<path fill="none" stroke="black" d="M1527.45,-769.42C1541.39,-758.68 1556.88,-743.69 1564.5,-726 1598.66,-646.65 1578.95,-540.92 1566.42,-491.36"/>
<polygon fill="black" stroke="black" points="1569.79,-490.45 1563.87,-481.67 1563.02,-492.23 1569.79,-490.45"/>
</g>
<!-- doomed2.io -->
<g id="node78" class="node">
<title>doomed2.io</title>
<path fill="#90caf9" stroke="#90caf9" d="M642,-637C642,-637 567,-637 567,-637 561,-637 555,-631 555,-625 555,-625 555,-611 555,-611 555,-605 561,-599 567,-599 567,-599 642,-599 642,-599 648,-599 654,-605 654,-611 654,-611 654,-625 654,-625 654,-631 648,-637 642,-637"/>
<text text-anchor="middle" x="604.5" y="-621.8" font-family="Times,serif" font-size="14.00">doomed2.io</text>
<text text-anchor="middle" x="604.5" y="-606.8" font-family="Times,serif" font-size="14.00">Ginoda</text>
</g>
<!-- doomed.io&#45;&gt;doomed2.io -->
<g id="edge38" class="edge">
<title>doomed.io&#45;&gt;doomed2.io</title>
<path fill="none" stroke="black" d="M604.5,-680.46C604.5,-670.67 604.5,-658.35 604.5,-647.31"/>
<polygon fill="black" stroke="black" points="608,-647.24 604.5,-637.24 601,-647.24 608,-647.24"/>
</g>
<!-- shellshock.io -->
<g id="node71" class="node">
<title>shellshock.io</title>
<path fill="#90caf9" stroke="#90caf9" d="M2592.5,-717.5C2592.5,-717.5 2508.5,-717.5 2508.5,-717.5 2502.5,-717.5 2496.5,-711.5 2496.5,-705.5 2496.5,-705.5 2496.5,-693.5 2496.5,-693.5 2496.5,-687.5 2502.5,-681.5 2508.5,-681.5 2508.5,-681.5 2592.5,-681.5 2592.5,-681.5 2598.5,-681.5 2604.5,-687.5 2604.5,-693.5 2604.5,-693.5 2604.5,-705.5 2604.5,-705.5 2604.5,-711.5 2598.5,-717.5 2592.5,-717.5"/>
<text text-anchor="middle" x="2550.5" y="-695.8" font-family="Times,serif" font-size="14.00">shellshock.io</text>
</g>
<!-- krunker.io -->
<g id="node82" class="node">
<title>krunker.io</title>
<path fill="#90caf9" stroke="#90caf9" d="M2663.5,-563C2663.5,-563 2555.5,-563 2555.5,-563 2549.5,-563 2543.5,-557 2543.5,-551 2543.5,-551 2543.5,-537 2543.5,-537 2543.5,-531 2549.5,-525 2555.5,-525 2555.5,-525 2663.5,-525 2663.5,-525 2669.5,-525 2675.5,-531 2675.5,-537 2675.5,-537 2675.5,-551 2675.5,-551 2675.5,-557 2669.5,-563 2663.5,-563"/>
<text text-anchor="middle" x="2609.5" y="-547.8" font-family="Times,serif" font-size="14.00">krunker.io</text>
<text text-anchor="middle" x="2609.5" y="-532.8" font-family="Times,serif" font-size="14.00">Sydney de Vries</text>
</g>
<!-- shellshock.io&#45;&gt;krunker.io -->
<g id="edge59" class="edge">
<title>shellshock.io&#45;&gt;krunker.io</title>
<path fill="none" stroke="black" d="M2557.04,-681.49C2567.16,-655.14 2586.73,-604.23 2598.9,-572.58"/>
<polygon fill="black" stroke="black" points="2602.25,-573.63 2602.57,-563.04 2595.71,-571.12 2602.25,-573.63"/>
</g>
<!-- warscrap.io -->
<g id="node72" class="node">
<title>warscrap.io</title>
<path fill="#90caf9" stroke="#90caf9" d="M2710.5,-718.5C2710.5,-718.5 2634.5,-718.5 2634.5,-718.5 2628.5,-718.5 2622.5,-712.5 2622.5,-706.5 2622.5,-706.5 2622.5,-692.5 2622.5,-692.5 2622.5,-686.5 2628.5,-680.5 2634.5,-680.5 2634.5,-680.5 2710.5,-680.5 2710.5,-680.5 2716.5,-680.5 2722.5,-686.5 2722.5,-692.5 2722.5,-692.5 2722.5,-706.5 2722.5,-706.5 2722.5,-712.5 2716.5,-718.5 2710.5,-718.5"/>
<text text-anchor="middle" x="2672.5" y="-703.3" font-family="Times,serif" font-size="14.00">warscrap.io</text>
<text text-anchor="middle" x="2672.5" y="-688.3" font-family="Times,serif" font-size="14.00">Evil Noob</text>
</g>
<!-- warscrap.io&#45;&gt;krunker.io -->
<g id="edge58" class="edge">
<title>warscrap.io&#45;&gt;krunker.io</title>
<path fill="none" stroke="black" d="M2665.03,-680.29C2654.08,-653.63 2633.62,-603.78 2620.83,-572.6"/>
<polygon fill="black" stroke="black" points="2624,-571.11 2616.96,-563.19 2617.52,-573.77 2624,-571.11"/>
</g>
<!-- airma.sh -->
<g id="node73" class="node">
<title>airma.sh</title>
<path fill="#90caf9" stroke="#90caf9" d="M2824,-717.5C2824,-717.5 2769,-717.5 2769,-717.5 2763,-717.5 2757,-711.5 2757,-705.5 2757,-705.5 2757,-693.5 2757,-693.5 2757,-687.5 2763,-681.5 2769,-681.5 2769,-681.5 2824,-681.5 2824,-681.5 2830,-681.5 2836,-687.5 2836,-693.5 2836,-693.5 2836,-705.5 2836,-705.5 2836,-711.5 2830,-717.5 2824,-717.5"/>
<text text-anchor="middle" x="2796.5" y="-695.8" font-family="Times,serif" font-size="14.00">airma.sh</text>
</g>
<!-- skyroyale.io -->
<g id="node91" class="node">
<title>skyroyale.io</title>
<path fill="#fadc91" stroke="#fadc91" d="M2841.5,-563C2841.5,-563 2751.5,-563 2751.5,-563 2745.5,-563 2739.5,-557 2739.5,-551 2739.5,-551 2739.5,-537 2739.5,-537 2739.5,-531 2745.5,-525 2751.5,-525 2751.5,-525 2841.5,-525 2841.5,-525 2847.5,-525 2853.5,-531 2853.5,-537 2853.5,-537 2853.5,-551 2853.5,-551 2853.5,-557 2847.5,-563 2841.5,-563"/>
<text text-anchor="middle" x="2796.5" y="-547.8" font-family="Times,serif" font-size="14.00">skyroyale.io</text>
<text text-anchor="middle" x="2796.5" y="-532.8" font-family="Times,serif" font-size="14.00">Clown Games</text>
</g>
<!-- airma.sh&#45;&gt;skyroyale.io -->
<g id="edge68" class="edge">
<title>airma.sh&#45;&gt;skyroyale.io</title>
<path fill="none" stroke="black" d="M2796.5,-681.49C2796.5,-655.37 2796.5,-605.11 2796.5,-573.41"/>
<polygon fill="black" stroke="black" points="2800,-573.04 2796.5,-563.04 2793,-573.04 2800,-573.04"/>
</g>
<!-- pockey.io -->
<g id="node74" class="node">
<title>pockey.io</title>
<path fill="#90caf9" stroke="#90caf9" d="M2979,-726C2979,-726 2866,-726 2866,-726 2860,-726 2854,-720 2854,-714 2854,-714 2854,-685 2854,-685 2854,-679 2860,-673 2866,-673 2866,-673 2979,-673 2979,-673 2985,-673 2991,-679 2991,-685 2991,-685 2991,-714 2991,-714 2991,-720 2985,-726 2979,-726"/>
<text text-anchor="middle" x="2922.5" y="-710.8" font-family="Times,serif" font-size="14.00">pockey.io</text>
<text text-anchor="middle" x="2922.5" y="-695.8" font-family="Times,serif" font-size="14.00">Starcade</text>
<text text-anchor="middle" x="2922.5" y="-680.8" font-family="Times,serif" font-size="14.00">(KidComet &amp; al.)</text>
</g>
<!-- nend.io -->
<g id="node77" class="node">
<title>nend.io</title>
<path fill="#90caf9" stroke="#90caf9" d="M2912,-637C2912,-637 2837,-637 2837,-637 2831,-637 2825,-631 2825,-625 2825,-625 2825,-611 2825,-611 2825,-605 2831,-599 2837,-599 2837,-599 2912,-599 2912,-599 2918,-599 2924,-605 2924,-611 2924,-611 2924,-625 2924,-625 2924,-631 2918,-637 2912,-637"/>
<text text-anchor="middle" x="2874.5" y="-621.8" font-family="Times,serif" font-size="14.00">nend.io</text>
<text text-anchor="middle" x="2874.5" y="-606.8" font-family="Times,serif" font-size="14.00">LapaMauve</text>
</g>
<!-- flyordie.io -->
<g id="node80" class="node">
<title>flyordie.io</title>
<path fill="#90caf9" stroke="#90caf9" d="M2961,-563C2961,-563 2884,-563 2884,-563 2878,-563 2872,-557 2872,-551 2872,-551 2872,-537 2872,-537 2872,-531 2878,-525 2884,-525 2884,-525 2961,-525 2961,-525 2967,-525 2973,-531 2973,-537 2973,-537 2973,-551 2973,-551 2973,-557 2967,-563 2961,-563"/>
<text text-anchor="middle" x="2922.5" y="-547.8" font-family="Times,serif" font-size="14.00">flyordie.io</text>
<text text-anchor="middle" x="2922.5" y="-532.8" font-family="Times,serif" font-size="14.00">Pixel Voices</text>
</g>
<!-- llam.io -->
<g id="node85" class="node">
<title>llam.io</title>
<path fill="#90caf9" stroke="#90caf9" d="M2961,-400C2961,-400 2884,-400 2884,-400 2878,-400 2872,-394 2872,-388 2872,-388 2872,-374 2872,-374 2872,-368 2878,-362 2884,-362 2884,-362 2961,-362 2961,-362 2967,-362 2973,-368 2973,-374 2973,-374 2973,-388 2973,-388 2973,-394 2967,-400 2961,-400"/>
<text text-anchor="middle" x="2922.5" y="-384.8" font-family="Times,serif" font-size="14.00">llam.io</text>
<text text-anchor="middle" x="2922.5" y="-369.8" font-family="Times,serif" font-size="14.00">Pixel Voices</text>
</g>
<!-- flyordie.io&#45;&gt;llam.io -->
<g id="edge54" class="edge">
<title>flyordie.io&#45;&gt;llam.io</title>
<path fill="none" stroke="black" d="M2922.5,-524.84C2922.5,-497.06 2922.5,-443.76 2922.5,-410.7"/>
<polygon fill="black" stroke="black" points="2926,-410.34 2922.5,-400.34 2919,-410.34 2926,-410.34"/>
</g>
<!-- acolytefight.io -->
<g id="node86" class="node">
<title>acolytefight.io</title>
<path fill="#90caf9" stroke="#90caf9" d="M3118,-400C3118,-400 3003,-400 3003,-400 2997,-400 2991,-394 2991,-388 2991,-388 2991,-374 2991,-374 2991,-368 2997,-362 3003,-362 3003,-362 3118,-362 3118,-362 3124,-362 3130,-368 3130,-374 3130,-374 3130,-388 3130,-388 3130,-394 3124,-400 3118,-400"/>
<text text-anchor="middle" x="3060.5" y="-384.8" font-family="Times,serif" font-size="14.00">acolytefight.io</text>
<text text-anchor="middle" x="3060.5" y="-369.8" font-family="Times,serif" font-size="14.00">raysplaceinspace</text>
</g>
<!-- bruh.io&#45;&gt;battlepoint.io -->
<g id="edge32" class="edge">
<title>bruh.io&#45;&gt;battlepoint.io</title>
<path fill="none" stroke="black" d="M1504.03,-680.45C1514.26,-639.7 1539.21,-540.32 1551.47,-491.5"/>
<polygon fill="black" stroke="black" points="1554.91,-492.16 1553.95,-481.61 1548.12,-490.46 1554.91,-492.16"/>
</g>
<!-- buildroyale.io -->
<g id="node93" class="node">
<title>buildroyale.io</title>
<path fill="#fadc91" stroke="#fadc91" d="M832.5,-400C832.5,-400 704.5,-400 704.5,-400 698.5,-400 692.5,-394 692.5,-388 692.5,-388 692.5,-374 692.5,-374 692.5,-368 698.5,-362 704.5,-362 704.5,-362 832.5,-362 832.5,-362 838.5,-362 844.5,-368 844.5,-374 844.5,-374 844.5,-388 844.5,-388 844.5,-394 838.5,-400 832.5,-400"/>
<text text-anchor="middle" x="768.5" y="-384.8" font-family="Times,serif" font-size="14.00">buildroyale.io</text>
<text text-anchor="middle" x="768.5" y="-369.8" font-family="Times,serif" font-size="14.00">Mathew Matakovic</text>
</g>
<!-- zombsroyale.io&#45;&gt;buildroyale.io -->
<g id="edge44" class="edge">
<title>zombsroyale.io&#45;&gt;buildroyale.io</title>
<path fill="none" stroke="black" d="M768.5,-598.95C768.5,-558.28 768.5,-459.23 768.5,-410.31"/>
<polygon fill="black" stroke="black" points="772,-410.11 768.5,-400.11 765,-410.11 772,-410.11"/>
</g>
</g>
</svg>
