<?xml version="1.0" encoding="UTF-8" standalone="no"?>
<!DOCTYPE svg PUBLIC "-//W3C//DTD SVG 1.1//EN"
 "http://www.w3.org/Graphics/SVG/1.1/DTD/svg11.dtd">
<!-- Generated by graphviz version 2.44.0 (0)
 -->
<!-- Title: iogames Pages: 1 -->
<svg width="2934pt" height="1711pt"
 viewBox="0.00 0.00 2934.00 1711.00" xmlns="http://www.w3.org/2000/svg" xmlns:xlink="http://www.w3.org/1999/xlink">
<g id="graph0" class="graph" transform="scale(1 1) rotate(0) translate(4 1707)">
<title>iogames</title>
<polygon fill="white" stroke="transparent" points="-4,4 -4,-1707 2930,-1707 2930,4 -4,4"/>
<text text-anchor="start" x="1384.5" y="-1688.8" font-family="Times,serif" font-weight="bold" text-decoration="underline" font-size="14.00">History of .io games</text>
<text text-anchor="start" x="1396" y="-1660.8" font-family="Times,serif" font-size="14.00">by </text>
<text text-anchor="start" x="1418" y="-1660.8" font-family="Times,serif" font-weight="bold" font-size="14.00">Julien Mourer</text>
<text text-anchor="start" x="1356" y="-1646.8" font-family="Times,serif" font-size="14.00">Licensed under the CC BY 4.0</text>
<text text-anchor="start" x="1313" y="-1632.8" font-family="Times,serif" font-size="14.00">https://github.com/getkey/io&#45;game&#45;history</text>
<!-- 2014q4 -->
<g id="node1" class="node">
<title>2014q4</title>
<text text-anchor="middle" x="51.5" y="-1601" font-family="Times,serif" font-size="20.00">Q4 2014</text>
</g>
<!-- 2015q1 -->
<g id="node2" class="node">
<title>2015q1</title>
<text text-anchor="middle" x="51.5" y="-1528" font-family="Times,serif" font-size="20.00">Q1 2015</text>
</g>
<!-- 2014q4&#45;&gt;2015q1 -->
<!-- 2015q2 -->
<g id="node3" class="node">
<title>2015q2</title>
<text text-anchor="middle" x="51.5" y="-1455" font-family="Times,serif" font-size="20.00">Q2 2015</text>
</g>
<!-- 2015q1&#45;&gt;2015q2 -->
<!-- 2015q3 -->
<g id="node4" class="node">
<title>2015q3</title>
<text text-anchor="middle" x="51.5" y="-1382" font-family="Times,serif" font-size="20.00">Q3 2015</text>
</g>
<!-- 2015q2&#45;&gt;2015q3 -->
<!-- 2015q4 -->
<g id="node5" class="node">
<title>2015q4</title>
<text text-anchor="middle" x="51.5" y="-1309" font-family="Times,serif" font-size="20.00">Q4 2015</text>
</g>
<!-- 2015q3&#45;&gt;2015q4 -->
<!-- 2016q1 -->
<g id="node6" class="node">
<title>2016q1</title>
<text text-anchor="middle" x="51.5" y="-1235" font-family="Times,serif" font-size="20.00">Q1 2016</text>
</g>
<!-- 2015q4&#45;&gt;2016q1 -->
<!-- 2016q2 -->
<g id="node7" class="node">
<title>2016q2</title>
<text text-anchor="middle" x="51.5" y="-1161" font-family="Times,serif" font-size="20.00">Q2 2016</text>
</g>
<!-- 2016q1&#45;&gt;2016q2 -->
<!-- 2016q3 -->
<g id="node8" class="node">
<title>2016q3</title>
<text text-anchor="middle" x="51.5" y="-1087" font-family="Times,serif" font-size="20.00">Q3 2016</text>
</g>
<!-- 2016q2&#45;&gt;2016q3 -->
<!-- 2016q4 -->
<g id="node9" class="node">
<title>2016q4</title>
<text text-anchor="middle" x="51.5" y="-1005.5" font-family="Times,serif" font-size="20.00">Q4 2016</text>
</g>
<!-- 2016q3&#45;&gt;2016q4 -->
<!-- 2017q1 -->
<g id="node10" class="node">
<title>2017q1</title>
<text text-anchor="middle" x="51.5" y="-924" font-family="Times,serif" font-size="20.00">Q1 2017</text>
</g>
<!-- 2016q4&#45;&gt;2017q1 -->
<!-- 2017q2 -->
<g id="node11" class="node">
<title>2017q2</title>
<text text-anchor="middle" x="51.5" y="-850" font-family="Times,serif" font-size="20.00">Q2 2017</text>
</g>
<!-- 2017q1&#45;&gt;2017q2 -->
<!-- 2017q3 -->
<g id="node12" class="node">
<title>2017q3</title>
<text text-anchor="middle" x="51.5" y="-776" font-family="Times,serif" font-size="20.00">Q3 2017</text>
</g>
<!-- 2017q2&#45;&gt;2017q3 -->
<!-- 2017q4 -->
<g id="node13" class="node">
<title>2017q4</title>
<text text-anchor="middle" x="51.5" y="-694.5" font-family="Times,serif" font-size="20.00">Q4 2017</text>
</g>
<!-- 2017q3&#45;&gt;2017q4 -->
<!-- 2018q1 -->
<g id="node14" class="node">
<title>2018q1</title>
<text text-anchor="middle" x="51.5" y="-613" font-family="Times,serif" font-size="20.00">Q1 2018</text>
</g>
<!-- 2017q4&#45;&gt;2018q1 -->
<!-- 2018q2 -->
<g id="node15" class="node">
<title>2018q2</title>
<text text-anchor="middle" x="51.5" y="-539" font-family="Times,serif" font-size="20.00">Q2 2018</text>
</g>
<!-- 2018q1&#45;&gt;2018q2 -->
<!-- 2018q3 -->
<g id="node16" class="node">
<title>2018q3</title>
<text text-anchor="middle" x="51.5" y="-457.5" font-family="Times,serif" font-size="20.00">Q3 2018</text>
</g>
<!-- 2018q2&#45;&gt;2018q3 -->
<!-- 2018q4 -->
<g id="node17" class="node">
<title>2018q4</title>
<text text-anchor="middle" x="51.5" y="-376" font-family="Times,serif" font-size="20.00">Q4 2018</text>
</g>
<!-- 2018q3&#45;&gt;2018q4 -->
<!-- 2019q1 -->
<g id="node18" class="node">
<title>2019q1</title>
<text text-anchor="middle" x="51.5" y="-303" font-family="Times,serif" font-size="20.00">Q1 2019</text>
</g>
<!-- 2018q4&#45;&gt;2019q1 -->
<!-- 2019q2 -->
<g id="node19" class="node">
<title>2019q2</title>
<text text-anchor="middle" x="51.5" y="-231" font-family="Times,serif" font-size="20.00">Q2 2019</text>
</g>
<!-- 2019q1&#45;&gt;2019q2 -->
<!-- 2019q3 -->
<g id="node20" class="node">
<title>2019q3</title>
<text text-anchor="middle" x="51.5" y="-159" font-family="Times,serif" font-size="20.00">Q3 2019</text>
</g>
<!-- 2019q2&#45;&gt;2019q3 -->
<!-- 2019q4 -->
<g id="node21" class="node">
<title>2019q4</title>
<text text-anchor="middle" x="51.5" y="-87" font-family="Times,serif" font-size="20.00">Q4 2019</text>
</g>
<!-- 2019q3&#45;&gt;2019q4 -->
<!-- 2020q1 -->
<g id="node22" class="node">
<title>2020q1</title>
<text text-anchor="middle" x="51.5" y="-14" font-family="Times,serif" font-size="20.00">Q1 2020</text>
</g>
<!-- 2019q4&#45;&gt;2020q1 -->
<!-- cursors.io -->
<g id="node23" class="node">
<title>cursors.io</title>
<path fill="#90caf9" stroke="#90caf9" d="M262,-1625C262,-1625 133,-1625 133,-1625 127,-1625 121,-1619 121,-1613 121,-1613 121,-1599 121,-1599 121,-1593 127,-1587 133,-1587 133,-1587 262,-1587 262,-1587 268,-1587 274,-1593 274,-1599 274,-1599 274,-1613 274,-1613 274,-1619 268,-1625 262,-1625"/>
<text text-anchor="middle" x="197.5" y="-1609.8" font-family="Times,serif" font-size="14.00">cursors.io</text>
<text text-anchor="middle" x="197.5" y="-1594.8" font-family="Times,serif" font-size="14.00">Matheus Valadares</text>
</g>
<!-- voar.io -->
<g id="node24" class="node">
<title>voar.io</title>
<path fill="#90caf9" stroke="#90caf9" d="M433,-1625C433,-1625 304,-1625 304,-1625 298,-1625 292,-1619 292,-1613 292,-1613 292,-1599 292,-1599 292,-1593 298,-1587 304,-1587 304,-1587 433,-1587 433,-1587 439,-1587 445,-1593 445,-1599 445,-1599 445,-1613 445,-1613 445,-1619 439,-1625 433,-1625"/>
<text text-anchor="middle" x="368.5" y="-1609.8" font-family="Times,serif" font-size="14.00">voar.io</text>
<text text-anchor="middle" x="368.5" y="-1594.8" font-family="Times,serif" font-size="14.00">Matheus Valadares</text>
</g>
<!-- agar.io -->
<g id="node25" class="node">
<title>agar.io</title>
<path fill="#90caf9" stroke="#90caf9" d="M625,-1479C625,-1479 496,-1479 496,-1479 490,-1479 484,-1473 484,-1467 484,-1467 484,-1453 484,-1453 484,-1447 490,-1441 496,-1441 496,-1441 625,-1441 625,-1441 631,-1441 637,-1447 637,-1453 637,-1453 637,-1467 637,-1467 637,-1473 631,-1479 625,-1479"/>
<text text-anchor="middle" x="560.5" y="-1463.8" font-family="Times,serif" font-size="14.00">agar.io</text>
<text text-anchor="middle" x="560.5" y="-1448.8" font-family="Times,serif" font-size="14.00">Matheus Valadares</text>
</g>
<!-- deeeep.io -->
<g id="node33" class="node">
<title>deeeep.io</title>
<path fill="#90caf9" stroke="#90caf9" d="M260,-1028.5C260,-1028.5 199,-1028.5 199,-1028.5 193,-1028.5 187,-1022.5 187,-1016.5 187,-1016.5 187,-1004.5 187,-1004.5 187,-998.5 193,-992.5 199,-992.5 199,-992.5 260,-992.5 260,-992.5 266,-992.5 272,-998.5 272,-1004.5 272,-1004.5 272,-1016.5 272,-1016.5 272,-1022.5 266,-1028.5 260,-1028.5"/>
<text text-anchor="middle" x="229.5" y="-1006.8" font-family="Times,serif" font-size="14.00">deeeep.io</text>
</g>
<!-- agar.io&#45;&gt;deeeep.io -->
<g id="edge52" class="edge">
<title>agar.io&#45;&gt;deeeep.io</title>
<path fill="none" stroke="black" d="M502.53,-1440.92C448.6,-1420.05 376.5,-1380 376.5,-1315 376.5,-1315 376.5,-1315 376.5,-1165 376.5,-1104.89 316.97,-1059.12 273.67,-1033.78"/>
<polygon fill="black" stroke="black" points="275.13,-1030.59 264.71,-1028.69 271.68,-1036.67 275.13,-1030.59"/>
</g>
<!-- pie.ai -->
<g id="node48" class="node">
<title>pie.ai</title>
<path fill="#90caf9" stroke="#90caf9" d="M567.5,-947C567.5,-947 535.5,-947 535.5,-947 529.5,-947 523.5,-941 523.5,-935 523.5,-935 523.5,-923 523.5,-923 523.5,-917 529.5,-911 535.5,-911 535.5,-911 567.5,-911 567.5,-911 573.5,-911 579.5,-917 579.5,-923 579.5,-923 579.5,-935 579.5,-935 579.5,-941 573.5,-947 567.5,-947"/>
<text text-anchor="middle" x="551.5" y="-925.3" font-family="Times,serif" font-size="14.00">pie.ai</text>
</g>
<!-- agar.io&#45;&gt;pie.ai -->
<g id="edge48" class="edge">
<title>agar.io&#45;&gt;pie.ai</title>
<path fill="none" stroke="black" d="M560.5,-1440.81C560.5,-1413.5 560.5,-1360.25 560.5,-1315 560.5,-1315 560.5,-1315 560.5,-1091 560.5,-1044.17 556.66,-989.8 553.99,-957.74"/>
<polygon fill="black" stroke="black" points="557.45,-957.04 553.11,-947.37 550.47,-957.64 557.45,-957.04"/>
</g>
<!-- spinz.io -->
<g id="node54" class="node">
<title>spinz.io</title>
<path fill="#90caf9" stroke="#90caf9" d="M628.5,-874C628.5,-874 574.5,-874 574.5,-874 568.5,-874 562.5,-868 562.5,-862 562.5,-862 562.5,-848 562.5,-848 562.5,-842 568.5,-836 574.5,-836 574.5,-836 628.5,-836 628.5,-836 634.5,-836 640.5,-842 640.5,-848 640.5,-848 640.5,-862 640.5,-862 640.5,-868 634.5,-874 628.5,-874"/>
<text text-anchor="middle" x="601.5" y="-858.8" font-family="Times,serif" font-size="14.00">spinz.io</text>
<text text-anchor="middle" x="601.5" y="-843.8" font-family="Times,serif" font-size="14.00">Yang Lui</text>
</g>
<!-- agar.io&#45;&gt;spinz.io -->
<g id="edge45" class="edge">
<title>agar.io&#45;&gt;spinz.io</title>
<path fill="none" stroke="black" d="M570.47,-1440.98C584.26,-1414.3 607.5,-1362.34 607.5,-1315 607.5,-1315 607.5,-1315 607.5,-1009.5 607.5,-965.84 605.05,-915.25 603.28,-884.45"/>
<polygon fill="black" stroke="black" points="606.77,-884.2 602.69,-874.42 599.78,-884.61 606.77,-884.2"/>
</g>
<!-- vertix.io -->
<g id="node26" class="node">
<title>vertix.io</title>
<path fill="#90caf9" stroke="#90caf9" d="M1165.5,-1333C1165.5,-1333 1057.5,-1333 1057.5,-1333 1051.5,-1333 1045.5,-1327 1045.5,-1321 1045.5,-1321 1045.5,-1307 1045.5,-1307 1045.5,-1301 1051.5,-1295 1057.5,-1295 1057.5,-1295 1165.5,-1295 1165.5,-1295 1171.5,-1295 1177.5,-1301 1177.5,-1307 1177.5,-1307 1177.5,-1321 1177.5,-1321 1177.5,-1327 1171.5,-1333 1165.5,-1333"/>
<text text-anchor="middle" x="1111.5" y="-1317.8" font-family="Times,serif" font-size="14.00">vertix.io</text>
<text text-anchor="middle" x="1111.5" y="-1302.8" font-family="Times,serif" font-size="14.00">Sydney de Vries</text>
</g>
<!-- nightpoint.io -->
<g id="node61" class="node">
<title>nightpoint.io</title>
<path fill="#90caf9" stroke="#90caf9" d="M1153.5,-800C1153.5,-800 1069.5,-800 1069.5,-800 1063.5,-800 1057.5,-794 1057.5,-788 1057.5,-788 1057.5,-774 1057.5,-774 1057.5,-768 1063.5,-762 1069.5,-762 1069.5,-762 1153.5,-762 1153.5,-762 1159.5,-762 1165.5,-768 1165.5,-774 1165.5,-774 1165.5,-788 1165.5,-788 1165.5,-794 1159.5,-800 1153.5,-800"/>
<text text-anchor="middle" x="1111.5" y="-784.8" font-family="Times,serif" font-size="14.00">nightpoint.io</text>
<text text-anchor="middle" x="1111.5" y="-769.8" font-family="Times,serif" font-size="14.00">Sarunas</text>
</g>
<!-- vertix.io&#45;&gt;nightpoint.io -->
<g id="edge38" class="edge">
<title>vertix.io&#45;&gt;nightpoint.io</title>
<path fill="none" stroke="black" d="M1111.5,-1294.56C1111.5,-1266.87 1111.5,-1212.88 1111.5,-1167 1111.5,-1167 1111.5,-1167 1111.5,-928 1111.5,-887.32 1111.5,-840.26 1111.5,-810.81"/>
<polygon fill="black" stroke="black" points="1115,-810.44 1111.5,-800.44 1108,-810.44 1115,-810.44"/>
</g>
<!-- slither.io -->
<g id="node27" class="node">
<title>slither.io</title>
<path fill="#90caf9" stroke="#90caf9" d="M1338.5,-1259C1338.5,-1259 1252.5,-1259 1252.5,-1259 1246.5,-1259 1240.5,-1253 1240.5,-1247 1240.5,-1247 1240.5,-1233 1240.5,-1233 1240.5,-1227 1246.5,-1221 1252.5,-1221 1252.5,-1221 1338.5,-1221 1338.5,-1221 1344.5,-1221 1350.5,-1227 1350.5,-1233 1350.5,-1233 1350.5,-1247 1350.5,-1247 1350.5,-1253 1344.5,-1259 1338.5,-1259"/>
<text text-anchor="middle" x="1295.5" y="-1243.8" font-family="Times,serif" font-size="14.00">slither.io</text>
<text text-anchor="middle" x="1295.5" y="-1228.8" font-family="Times,serif" font-size="14.00">Steve Howse</text>
</g>
<!-- limax.io -->
<g id="node30" class="node">
<title>limax.io</title>
<path fill="#90caf9" stroke="#90caf9" d="M1227,-1185C1227,-1185 1152,-1185 1152,-1185 1146,-1185 1140,-1179 1140,-1173 1140,-1173 1140,-1159 1140,-1159 1140,-1153 1146,-1147 1152,-1147 1152,-1147 1227,-1147 1227,-1147 1233,-1147 1239,-1153 1239,-1159 1239,-1159 1239,-1173 1239,-1173 1239,-1179 1233,-1185 1227,-1185"/>
<text text-anchor="middle" x="1189.5" y="-1169.8" font-family="Times,serif" font-size="14.00">limax.io</text>
<text text-anchor="middle" x="1189.5" y="-1154.8" font-family="Times,serif" font-size="14.00">LapaMauve</text>
</g>
<!-- slither.io&#45;&gt;limax.io -->
<g id="edge24" class="edge">
<title>slither.io&#45;&gt;limax.io</title>
<path fill="none" stroke="black" d="M1268.75,-1220.83C1255.44,-1211.79 1239.18,-1200.75 1224.86,-1191.02"/>
<polygon fill="black" stroke="black" points="1226.48,-1187.89 1216.24,-1185.16 1222.55,-1193.68 1226.48,-1187.89"/>
</g>
<!-- wormax.io -->
<g id="node32" class="node">
<title>wormax.io</title>
<path fill="#90caf9" stroke="#90caf9" d="M1283,-1111C1283,-1111 1216,-1111 1216,-1111 1210,-1111 1204,-1105 1204,-1099 1204,-1099 1204,-1085 1204,-1085 1204,-1079 1210,-1073 1216,-1073 1216,-1073 1283,-1073 1283,-1073 1289,-1073 1295,-1079 1295,-1085 1295,-1085 1295,-1099 1295,-1099 1295,-1105 1289,-1111 1283,-1111"/>
<text text-anchor="middle" x="1249.5" y="-1095.8" font-family="Times,serif" font-size="14.00">wormax.io</text>
<text text-anchor="middle" x="1249.5" y="-1080.8" font-family="Times,serif" font-size="14.00">Elyland</text>
</g>
<!-- slither.io&#45;&gt;wormax.io -->
<g id="edge22" class="edge">
<title>slither.io&#45;&gt;wormax.io</title>
<path fill="none" stroke="black" d="M1289.77,-1220.8C1281.88,-1195.78 1267.62,-1150.5 1258.35,-1121.1"/>
<polygon fill="black" stroke="black" points="1261.65,-1119.91 1255.31,-1111.43 1254.97,-1122.01 1261.65,-1119.91"/>
</g>
<!-- wormate.io -->
<g id="node36" class="node">
<title>wormate.io</title>
<path fill="#90caf9" stroke="#90caf9" d="M1385.5,-1029.5C1385.5,-1029.5 1261.5,-1029.5 1261.5,-1029.5 1255.5,-1029.5 1249.5,-1023.5 1249.5,-1017.5 1249.5,-1017.5 1249.5,-1003.5 1249.5,-1003.5 1249.5,-997.5 1255.5,-991.5 1261.5,-991.5 1261.5,-991.5 1385.5,-991.5 1385.5,-991.5 1391.5,-991.5 1397.5,-997.5 1397.5,-1003.5 1397.5,-1003.5 1397.5,-1017.5 1397.5,-1017.5 1397.5,-1023.5 1391.5,-1029.5 1385.5,-1029.5"/>
<text text-anchor="middle" x="1323.5" y="-1014.3" font-family="Times,serif" font-size="14.00">wormate.io</text>
<text text-anchor="middle" x="1323.5" y="-999.3" font-family="Times,serif" font-size="14.00">Oleksandr Godoba</text>
</g>
<!-- slither.io&#45;&gt;wormate.io -->
<g id="edge23" class="edge">
<title>slither.io&#45;&gt;wormate.io</title>
<path fill="none" stroke="black" d="M1297.74,-1220.77C1302.62,-1181.15 1314.21,-1086.98 1320.03,-1039.66"/>
<polygon fill="black" stroke="black" points="1323.54,-1039.86 1321.28,-1029.5 1316.59,-1039 1323.54,-1039.86"/>
</g>
<!-- powerline.io -->
<g id="node62" class="node">
<title>powerline.io</title>
<path fill="#90caf9" stroke="#90caf9" d="M1474.5,-718.5C1474.5,-718.5 1376.5,-718.5 1376.5,-718.5 1370.5,-718.5 1364.5,-712.5 1364.5,-706.5 1364.5,-706.5 1364.5,-692.5 1364.5,-692.5 1364.5,-686.5 1370.5,-680.5 1376.5,-680.5 1376.5,-680.5 1474.5,-680.5 1474.5,-680.5 1480.5,-680.5 1486.5,-686.5 1486.5,-692.5 1486.5,-692.5 1486.5,-706.5 1486.5,-706.5 1486.5,-712.5 1480.5,-718.5 1474.5,-718.5"/>
<text text-anchor="middle" x="1425.5" y="-703.3" font-family="Times,serif" font-size="14.00">powerline.io</text>
<text text-anchor="middle" x="1425.5" y="-688.3" font-family="Times,serif" font-size="14.00">Andre Almeida</text>
</g>
<!-- slither.io&#45;&gt;powerline.io -->
<g id="edge25" class="edge">
<title>slither.io&#45;&gt;powerline.io</title>
<path fill="none" stroke="black" d="M1328.64,-1220.81C1367.16,-1196.95 1425.5,-1151.21 1425.5,-1093 1425.5,-1093 1425.5,-1093 1425.5,-854 1425.5,-810.38 1425.5,-759.78 1425.5,-728.96"/>
<polygon fill="black" stroke="black" points="1429,-728.93 1425.5,-718.93 1422,-728.93 1429,-728.93"/>
</g>
<!-- diep.io -->
<g id="node28" class="node">
<title>diep.io</title>
<path fill="#90caf9" stroke="#90caf9" d="M1579,-1259C1579,-1259 1450,-1259 1450,-1259 1444,-1259 1438,-1253 1438,-1247 1438,-1247 1438,-1233 1438,-1233 1438,-1227 1444,-1221 1450,-1221 1450,-1221 1579,-1221 1579,-1221 1585,-1221 1591,-1227 1591,-1233 1591,-1233 1591,-1247 1591,-1247 1591,-1253 1585,-1259 1579,-1259"/>
<text text-anchor="middle" x="1514.5" y="-1243.8" font-family="Times,serif" font-size="14.00">diep.io</text>
<text text-anchor="middle" x="1514.5" y="-1228.8" font-family="Times,serif" font-size="14.00">Matheus Valadares</text>
</g>
<!-- tanksmith.io -->
<g id="node73" class="node">
<title>tanksmith.io</title>
<path fill="#90caf9" stroke="#90caf9" d="M1555.5,-563C1555.5,-563 1473.5,-563 1473.5,-563 1467.5,-563 1461.5,-557 1461.5,-551 1461.5,-551 1461.5,-537 1461.5,-537 1461.5,-531 1467.5,-525 1473.5,-525 1473.5,-525 1555.5,-525 1555.5,-525 1561.5,-525 1567.5,-531 1567.5,-537 1567.5,-537 1567.5,-551 1567.5,-551 1567.5,-557 1561.5,-563 1555.5,-563"/>
<text text-anchor="middle" x="1514.5" y="-547.8" font-family="Times,serif" font-size="14.00">tanksmith.io</text>
<text text-anchor="middle" x="1514.5" y="-532.8" font-family="Times,serif" font-size="14.00">IO Ninja</text>
</g>
<!-- diep.io&#45;&gt;tanksmith.io -->
<g id="edge53" class="edge">
<title>diep.io&#45;&gt;tanksmith.io</title>
<path fill="none" stroke="black" d="M1514.5,-1220.56C1514.5,-1192.87 1514.5,-1138.88 1514.5,-1093 1514.5,-1093 1514.5,-1093 1514.5,-698.5 1514.5,-654.88 1514.5,-604.28 1514.5,-573.46"/>
<polygon fill="black" stroke="black" points="1518,-573.43 1514.5,-563.43 1511,-573.43 1518,-573.43"/>
</g>
<!-- wings.io -->
<g id="node29" class="node">
<title>wings.io</title>
<path fill="#90caf9" stroke="#90caf9" d="M1719.5,-1259C1719.5,-1259 1621.5,-1259 1621.5,-1259 1615.5,-1259 1609.5,-1253 1609.5,-1247 1609.5,-1247 1609.5,-1233 1609.5,-1233 1609.5,-1227 1615.5,-1221 1621.5,-1221 1621.5,-1221 1719.5,-1221 1719.5,-1221 1725.5,-1221 1731.5,-1227 1731.5,-1233 1731.5,-1233 1731.5,-1247 1731.5,-1247 1731.5,-1253 1725.5,-1259 1719.5,-1259"/>
<text text-anchor="middle" x="1670.5" y="-1243.8" font-family="Times,serif" font-size="14.00">wings.io</text>
<text text-anchor="middle" x="1670.5" y="-1228.8" font-family="Times,serif" font-size="14.00">Andre Almeida</text>
</g>
<!-- wilds.io -->
<g id="node31" class="node">
<title>wilds.io</title>
<path fill="#90caf9" stroke="#90caf9" d="M1614,-1185C1614,-1185 1563,-1185 1563,-1185 1557,-1185 1551,-1179 1551,-1173 1551,-1173 1551,-1159 1551,-1159 1551,-1153 1557,-1147 1563,-1147 1563,-1147 1614,-1147 1614,-1147 1620,-1147 1626,-1153 1626,-1159 1626,-1159 1626,-1173 1626,-1173 1626,-1179 1620,-1185 1614,-1185"/>
<text text-anchor="middle" x="1588.5" y="-1169.8" font-family="Times,serif" font-size="14.00">wilds.io</text>
<text text-anchor="middle" x="1588.5" y="-1154.8" font-family="Times,serif" font-size="14.00">Rezoner</text>
</g>
<!-- wanderers.io -->
<g id="node64" class="node">
<title>wanderers.io</title>
<path fill="#90caf9" stroke="#90caf9" d="M1674.5,-718.5C1674.5,-718.5 1588.5,-718.5 1588.5,-718.5 1582.5,-718.5 1576.5,-712.5 1576.5,-706.5 1576.5,-706.5 1576.5,-692.5 1576.5,-692.5 1576.5,-686.5 1582.5,-680.5 1588.5,-680.5 1588.5,-680.5 1674.5,-680.5 1674.5,-680.5 1680.5,-680.5 1686.5,-686.5 1686.5,-692.5 1686.5,-692.5 1686.5,-706.5 1686.5,-706.5 1686.5,-712.5 1680.5,-718.5 1674.5,-718.5"/>
<text text-anchor="middle" x="1631.5" y="-703.3" font-family="Times,serif" font-size="14.00">wanderers.io</text>
<text text-anchor="middle" x="1631.5" y="-688.3" font-family="Times,serif" font-size="14.00">Rezoner</text>
</g>
<!-- wilds.io&#45;&gt;wanderers.io -->
<g id="edge43" class="edge">
<title>wilds.io&#45;&gt;wanderers.io</title>
<path fill="none" stroke="black" d="M1588.5,-1146.57C1588.5,-1117.75 1588.5,-1060.27 1588.5,-1011.5 1588.5,-1011.5 1588.5,-1011.5 1588.5,-854 1588.5,-808.75 1606.04,-758.68 1618.72,-728.41"/>
<polygon fill="black" stroke="black" points="1622.06,-729.51 1622.8,-718.94 1615.63,-726.74 1622.06,-729.51"/>
</g>
<!-- oceanar.io -->
<g id="node34" class="node">
<title>oceanar.io</title>
<path fill="#90caf9" stroke="#90caf9" d="M520,-1029.5C520,-1029.5 455,-1029.5 455,-1029.5 449,-1029.5 443,-1023.5 443,-1017.5 443,-1017.5 443,-1003.5 443,-1003.5 443,-997.5 449,-991.5 455,-991.5 455,-991.5 520,-991.5 520,-991.5 526,-991.5 532,-997.5 532,-1003.5 532,-1003.5 532,-1017.5 532,-1017.5 532,-1023.5 526,-1029.5 520,-1029.5"/>
<text text-anchor="middle" x="487.5" y="-1014.3" font-family="Times,serif" font-size="14.00">oceanar.io</text>
<text text-anchor="middle" x="487.5" y="-999.3" font-family="Times,serif" font-size="14.00">S3Games</text>
</g>
<!-- deeeep.io&#45;&gt;oceanar.io -->
<g id="edge26" class="edge">
<title>deeeep.io&#45;&gt;oceanar.io</title>
<path fill="none" stroke="black" d="M247.77,-1028.62C259.06,-1038.5 274.42,-1049.76 290.5,-1055 347.12,-1073.46 367.74,-1073.03 424.5,-1055 436.96,-1051.04 449.09,-1043.63 459.31,-1035.97"/>
<polygon fill="black" stroke="black" points="461.76,-1038.5 467.43,-1029.55 457.41,-1033.01 461.76,-1038.5"/>
</g>
<!-- mope.io -->
<g id="node35" class="node">
<title>mope.io</title>
<path fill="#90caf9" stroke="#90caf9" d="M412.5,-1029.5C412.5,-1029.5 302.5,-1029.5 302.5,-1029.5 296.5,-1029.5 290.5,-1023.5 290.5,-1017.5 290.5,-1017.5 290.5,-1003.5 290.5,-1003.5 290.5,-997.5 296.5,-991.5 302.5,-991.5 302.5,-991.5 412.5,-991.5 412.5,-991.5 418.5,-991.5 424.5,-997.5 424.5,-1003.5 424.5,-1003.5 424.5,-1017.5 424.5,-1017.5 424.5,-1023.5 418.5,-1029.5 412.5,-1029.5"/>
<text text-anchor="middle" x="357.5" y="-1014.3" font-family="Times,serif" font-size="14.00">mope.io</text>
<text text-anchor="middle" x="357.5" y="-999.3" font-family="Times,serif" font-size="14.00">Stan Tatarnykov</text>
</g>
<!-- deeeep.io&#45;&gt;mope.io -->
<g id="edge27" class="edge">
<title>deeeep.io&#45;&gt;mope.io</title>
<path fill="none" stroke="black" d="M272,-1010.5C274.77,-1010.5 277.55,-1010.5 280.32,-1010.5"/>
<polygon fill="black" stroke="black" points="280.37,-1014 290.37,-1010.5 280.37,-1007 280.37,-1014"/>
</g>
<!-- moomoo.io -->
<g id="node49" class="node">
<title>moomoo.io</title>
<path fill="#90caf9" stroke="#90caf9" d="M452.5,-948C452.5,-948 344.5,-948 344.5,-948 338.5,-948 332.5,-942 332.5,-936 332.5,-936 332.5,-922 332.5,-922 332.5,-916 338.5,-910 344.5,-910 344.5,-910 452.5,-910 452.5,-910 458.5,-910 464.5,-916 464.5,-922 464.5,-922 464.5,-936 464.5,-936 464.5,-942 458.5,-948 452.5,-948"/>
<text text-anchor="middle" x="398.5" y="-932.8" font-family="Times,serif" font-size="14.00">moomoo.io</text>
<text text-anchor="middle" x="398.5" y="-917.8" font-family="Times,serif" font-size="14.00">Sydney de Vries</text>
</g>
<!-- mope.io&#45;&gt;moomoo.io -->
<g id="edge28" class="edge">
<title>mope.io&#45;&gt;moomoo.io</title>
<path fill="none" stroke="black" d="M366.8,-991.46C372.01,-981.37 378.6,-968.58 384.43,-957.29"/>
<polygon fill="black" stroke="black" points="387.62,-958.74 389.09,-948.24 381.4,-955.53 387.62,-958.74"/>
</g>
<!-- paper.io -->
<g id="node37" class="node">
<title>paper.io</title>
<path fill="#90caf9" stroke="#90caf9" d="M1884.5,-1111C1884.5,-1111 1834.5,-1111 1834.5,-1111 1828.5,-1111 1822.5,-1105 1822.5,-1099 1822.5,-1099 1822.5,-1085 1822.5,-1085 1822.5,-1079 1828.5,-1073 1834.5,-1073 1834.5,-1073 1884.5,-1073 1884.5,-1073 1890.5,-1073 1896.5,-1079 1896.5,-1085 1896.5,-1085 1896.5,-1099 1896.5,-1099 1896.5,-1105 1890.5,-1111 1884.5,-1111"/>
<text text-anchor="middle" x="1859.5" y="-1095.8" font-family="Times,serif" font-size="14.00">paper.io</text>
<text text-anchor="middle" x="1859.5" y="-1080.8" font-family="Times,serif" font-size="14.00">Voodoo</text>
</g>
<!-- narwhale.io -->
<g id="node38" class="node">
<title>narwhale.io</title>
<path fill="#90caf9" stroke="#90caf9" d="M2024,-1111C2024,-1111 1927,-1111 1927,-1111 1921,-1111 1915,-1105 1915,-1099 1915,-1099 1915,-1085 1915,-1085 1915,-1079 1921,-1073 1927,-1073 1927,-1073 2024,-1073 2024,-1073 2030,-1073 2036,-1079 2036,-1085 2036,-1085 2036,-1099 2036,-1099 2036,-1105 2030,-1111 2024,-1111"/>
<text text-anchor="middle" x="1975.5" y="-1095.8" font-family="Times,serif" font-size="14.00">narwhale.io</text>
<text text-anchor="middle" x="1975.5" y="-1080.8" font-family="Times,serif" font-size="14.00">Hsi&#45;Hung Shih</text>
</g>
<!-- pikes.io -->
<g id="node57" class="node">
<title>pikes.io</title>
<path fill="#90caf9" stroke="#90caf9" d="M2020.5,-874C2020.5,-874 1930.5,-874 1930.5,-874 1924.5,-874 1918.5,-868 1918.5,-862 1918.5,-862 1918.5,-848 1918.5,-848 1918.5,-842 1924.5,-836 1930.5,-836 1930.5,-836 2020.5,-836 2020.5,-836 2026.5,-836 2032.5,-842 2032.5,-848 2032.5,-848 2032.5,-862 2032.5,-862 2032.5,-868 2026.5,-874 2020.5,-874"/>
<text text-anchor="middle" x="1975.5" y="-858.8" font-family="Times,serif" font-size="14.00">pikes.io</text>
<text text-anchor="middle" x="1975.5" y="-843.8" font-family="Times,serif" font-size="14.00">Clown Games</text>
</g>
<!-- narwhale.io&#45;&gt;pikes.io -->
<g id="edge58" class="edge">
<title>narwhale.io&#45;&gt;pikes.io</title>
<path fill="none" stroke="black" d="M1975.5,-1072.95C1975.5,-1032.28 1975.5,-933.23 1975.5,-884.31"/>
<polygon fill="black" stroke="black" points="1979,-884.11 1975.5,-874.11 1972,-884.11 1979,-884.11"/>
</g>
<!-- splix.io -->
<g id="node39" class="node">
<title>splix.io</title>
<path fill="#90caf9" stroke="#90caf9" d="M1792.5,-1111C1792.5,-1111 1748.5,-1111 1748.5,-1111 1742.5,-1111 1736.5,-1105 1736.5,-1099 1736.5,-1099 1736.5,-1085 1736.5,-1085 1736.5,-1079 1742.5,-1073 1748.5,-1073 1748.5,-1073 1792.5,-1073 1792.5,-1073 1798.5,-1073 1804.5,-1079 1804.5,-1085 1804.5,-1085 1804.5,-1099 1804.5,-1099 1804.5,-1105 1798.5,-1111 1792.5,-1111"/>
<text text-anchor="middle" x="1770.5" y="-1095.8" font-family="Times,serif" font-size="14.00">splix.io</text>
<text text-anchor="middle" x="1770.5" y="-1080.8" font-family="Times,serif" font-size="14.00">Jesper</text>
</g>
<!-- splix.io&#45;&gt;paper.io -->
<g id="edge49" class="edge">
<title>splix.io&#45;&gt;paper.io</title>
<path fill="none" stroke="black" d="M1804.57,-1092C1807.04,-1092 1809.52,-1092 1811.99,-1092"/>
<polygon fill="black" stroke="black" points="1812.17,-1095.5 1822.16,-1092 1812.16,-1088.5 1812.17,-1095.5"/>
</g>
<!-- hexar.io -->
<g id="node47" class="node">
<title>hexar.io</title>
<path fill="#90caf9" stroke="#90caf9" d="M1795,-947C1795,-947 1746,-947 1746,-947 1740,-947 1734,-941 1734,-935 1734,-935 1734,-923 1734,-923 1734,-917 1740,-911 1746,-911 1746,-911 1795,-911 1795,-911 1801,-911 1807,-917 1807,-923 1807,-923 1807,-935 1807,-935 1807,-941 1801,-947 1795,-947"/>
<text text-anchor="middle" x="1770.5" y="-925.3" font-family="Times,serif" font-size="14.00">hexar.io</text>
</g>
<!-- splix.io&#45;&gt;hexar.io -->
<g id="edge50" class="edge">
<title>splix.io&#45;&gt;hexar.io</title>
<path fill="none" stroke="black" d="M1770.5,-1072.84C1770.5,-1044.77 1770.5,-990.62 1770.5,-957.66"/>
<polygon fill="black" stroke="black" points="1774,-957.36 1770.5,-947.36 1767,-957.36 1774,-957.36"/>
</g>
<!-- drawthis.io -->
<g id="node40" class="node">
<title>drawthis.io</title>
<path fill="#90caf9" stroke="#90caf9" d="M2139,-1110C2139,-1110 2066,-1110 2066,-1110 2060,-1110 2054,-1104 2054,-1098 2054,-1098 2054,-1086 2054,-1086 2054,-1080 2060,-1074 2066,-1074 2066,-1074 2139,-1074 2139,-1074 2145,-1074 2151,-1080 2151,-1086 2151,-1086 2151,-1098 2151,-1098 2151,-1104 2145,-1110 2139,-1110"/>
<text text-anchor="middle" x="2102.5" y="-1088.3" font-family="Times,serif" font-size="14.00">drawthis.io</text>
</g>
<!-- skribbl.io -->
<g id="node51" class="node">
<title>skribbl.io</title>
<path fill="#90caf9" stroke="#90caf9" d="M2091,-948C2091,-948 2032,-948 2032,-948 2026,-948 2020,-942 2020,-936 2020,-936 2020,-922 2020,-922 2020,-916 2026,-910 2032,-910 2032,-910 2091,-910 2091,-910 2097,-910 2103,-916 2103,-922 2103,-922 2103,-936 2103,-936 2103,-942 2097,-948 2091,-948"/>
<text text-anchor="middle" x="2061.5" y="-932.8" font-family="Times,serif" font-size="14.00">skribbl.io</text>
<text text-anchor="middle" x="2061.5" y="-917.8" font-family="Times,serif" font-size="14.00">mel</text>
</g>
<!-- drawthis.io&#45;&gt;skribbl.io -->
<g id="edge56" class="edge">
<title>drawthis.io&#45;&gt;skribbl.io</title>
<path fill="none" stroke="black" d="M2098.11,-1073.77C2091.07,-1046.1 2077.16,-991.49 2068.66,-958.12"/>
<polygon fill="black" stroke="black" points="2071.97,-956.91 2066.11,-948.09 2065.18,-958.64 2071.97,-956.91"/>
</g>
<!-- drawthis2.io -->
<g id="node74" class="node">
<title>drawthis2.io</title>
<path fill="#90caf9" stroke="#90caf9" d="M2172.5,-563C2172.5,-563 2090.5,-563 2090.5,-563 2084.5,-563 2078.5,-557 2078.5,-551 2078.5,-551 2078.5,-537 2078.5,-537 2078.5,-531 2084.5,-525 2090.5,-525 2090.5,-525 2172.5,-525 2172.5,-525 2178.5,-525 2184.5,-531 2184.5,-537 2184.5,-537 2184.5,-551 2184.5,-551 2184.5,-557 2178.5,-563 2172.5,-563"/>
<text text-anchor="middle" x="2131.5" y="-547.8" font-family="Times,serif" font-size="14.00">drawthis2.io</text>
<text text-anchor="middle" x="2131.5" y="-532.8" font-family="Times,serif" font-size="14.00">lagged.com</text>
</g>
<!-- drawthis.io&#45;&gt;drawthis2.io -->
<g id="edge57" class="edge">
<title>drawthis.io&#45;&gt;drawthis2.io</title>
<path fill="none" stroke="black" d="M2107.68,-1073.79C2116.03,-1044.54 2131.5,-983.11 2131.5,-930 2131.5,-930 2131.5,-930 2131.5,-698.5 2131.5,-654.88 2131.5,-604.28 2131.5,-573.46"/>
<polygon fill="black" stroke="black" points="2135,-573.43 2131.5,-563.43 2128,-573.43 2135,-573.43"/>
</g>
<!-- bonk.io -->
<g id="node41" class="node">
<title>bonk.io</title>
<path fill="#90caf9" stroke="#90caf9" d="M2250.5,-1111C2250.5,-1111 2206.5,-1111 2206.5,-1111 2200.5,-1111 2194.5,-1105 2194.5,-1099 2194.5,-1099 2194.5,-1085 2194.5,-1085 2194.5,-1079 2200.5,-1073 2206.5,-1073 2206.5,-1073 2250.5,-1073 2250.5,-1073 2256.5,-1073 2262.5,-1079 2262.5,-1085 2262.5,-1085 2262.5,-1099 2262.5,-1099 2262.5,-1105 2256.5,-1111 2250.5,-1111"/>
<text text-anchor="middle" x="2228.5" y="-1095.8" font-family="Times,serif" font-size="14.00">bonk.io</text>
<text text-anchor="middle" x="2228.5" y="-1080.8" font-family="Times,serif" font-size="14.00">Chaz</text>
</g>
<!-- bonk2.io -->
<g id="node79" class="node">
<title>bonk2.io</title>
<path fill="#90caf9" stroke="#90caf9" d="M2255,-38C2255,-38 2202,-38 2202,-38 2196,-38 2190,-32 2190,-26 2190,-26 2190,-12 2190,-12 2190,-6 2196,0 2202,0 2202,0 2255,0 2255,0 2261,0 2267,-6 2267,-12 2267,-12 2267,-26 2267,-26 2267,-32 2261,-38 2255,-38"/>
<text text-anchor="middle" x="2228.5" y="-22.8" font-family="Times,serif" font-size="14.00">bonk2.io</text>
<text text-anchor="middle" x="2228.5" y="-7.8" font-family="Times,serif" font-size="14.00">Chaz</text>
</g>
<!-- bonk.io&#45;&gt;bonk2.io -->
<g id="edge62" class="edge">
<title>bonk.io&#45;&gt;bonk2.io</title>
<path fill="none" stroke="black" d="M2228.5,-1072.65C2228.5,-1042.76 2228.5,-981.71 2228.5,-930 2228.5,-930 2228.5,-930 2228.5,-163 2228.5,-123.15 2228.5,-77.06 2228.5,-48.22"/>
<polygon fill="black" stroke="black" points="2232,-48.06 2228.5,-38.06 2225,-48.06 2232,-48.06"/>
</g>
<!-- hordes.io -->
<g id="node42" class="node">
<title>hordes.io</title>
<path fill="#90caf9" stroke="#90caf9" d="M2352,-1111C2352,-1111 2293,-1111 2293,-1111 2287,-1111 2281,-1105 2281,-1099 2281,-1099 2281,-1085 2281,-1085 2281,-1079 2287,-1073 2293,-1073 2293,-1073 2352,-1073 2352,-1073 2358,-1073 2364,-1079 2364,-1085 2364,-1085 2364,-1099 2364,-1099 2364,-1105 2358,-1111 2352,-1111"/>
<text text-anchor="middle" x="2322.5" y="-1095.8" font-family="Times,serif" font-size="14.00">hordes.io</text>
<text text-anchor="middle" x="2322.5" y="-1080.8" font-family="Times,serif" font-size="14.00">dek</text>
</g>
<!-- krew.io -->
<g id="node43" class="node">
<title>krew.io</title>
<path fill="#90caf9" stroke="#90caf9" d="M2322,-1037C2322,-1037 2269,-1037 2269,-1037 2263,-1037 2257,-1031 2257,-1025 2257,-1025 2257,-996 2257,-996 2257,-990 2263,-984 2269,-984 2269,-984 2322,-984 2322,-984 2328,-984 2334,-990 2334,-996 2334,-996 2334,-1025 2334,-1025 2334,-1031 2328,-1037 2322,-1037"/>
<text text-anchor="middle" x="2295.5" y="-1021.8" font-family="Times,serif" font-size="14.00">krew.io</text>
<text text-anchor="middle" x="2295.5" y="-1006.8" font-family="Times,serif" font-size="14.00">M0dE &amp;</text>
<text text-anchor="middle" x="2295.5" y="-991.8" font-family="Times,serif" font-size="14.00"> dek</text>
</g>
<!-- starblast.io -->
<g id="node44" class="node">
<title>starblast.io</title>
<path fill="#90caf9" stroke="#90caf9" d="M2441,-1029.5C2441,-1029.5 2364,-1029.5 2364,-1029.5 2358,-1029.5 2352,-1023.5 2352,-1017.5 2352,-1017.5 2352,-1003.5 2352,-1003.5 2352,-997.5 2358,-991.5 2364,-991.5 2364,-991.5 2441,-991.5 2441,-991.5 2447,-991.5 2453,-997.5 2453,-1003.5 2453,-1003.5 2453,-1017.5 2453,-1017.5 2453,-1023.5 2447,-1029.5 2441,-1029.5"/>
<text text-anchor="middle" x="2402.5" y="-1014.3" font-family="Times,serif" font-size="14.00">starblast.io</text>
<text text-anchor="middle" x="2402.5" y="-999.3" font-family="Times,serif" font-size="14.00">Neuronality</text>
</g>
<!-- microgravity.io -->
<g id="node76" class="node">
<title>microgravity.io</title>
<path fill="#90caf9" stroke="#90caf9" d="M2458.5,-489C2458.5,-489 2346.5,-489 2346.5,-489 2340.5,-489 2334.5,-483 2334.5,-477 2334.5,-477 2334.5,-448 2334.5,-448 2334.5,-442 2340.5,-436 2346.5,-436 2346.5,-436 2458.5,-436 2458.5,-436 2464.5,-436 2470.5,-442 2470.5,-448 2470.5,-448 2470.5,-477 2470.5,-477 2470.5,-483 2464.5,-489 2458.5,-489"/>
<text text-anchor="middle" x="2402.5" y="-473.8" font-family="Times,serif" font-size="14.00">microgravity.io</text>
<text text-anchor="middle" x="2402.5" y="-458.8" font-family="Times,serif" font-size="14.00">Nathan Flurry &amp;</text>
<text text-anchor="middle" x="2402.5" y="-443.8" font-family="Times,serif" font-size="14.00">Nicholas Kissel</text>
</g>
<!-- starblast.io&#45;&gt;microgravity.io -->
<g id="edge63" class="edge">
<title>starblast.io&#45;&gt;microgravity.io</title>
<path fill="none" stroke="black" d="M2402.5,-991.07C2402.5,-962.25 2402.5,-904.77 2402.5,-856 2402.5,-856 2402.5,-856 2402.5,-617 2402.5,-576.71 2402.5,-530.48 2402.5,-499.37"/>
<polygon fill="black" stroke="black" points="2406,-499.03 2402.5,-489.03 2399,-499.03 2406,-499.03"/>
</g>
<!-- oib.io -->
<g id="node45" class="node">
<title>oib.io</title>
<path fill="#90caf9" stroke="#90caf9" d="M1704,-948C1704,-948 1629,-948 1629,-948 1623,-948 1617,-942 1617,-936 1617,-936 1617,-922 1617,-922 1617,-916 1623,-910 1629,-910 1629,-910 1704,-910 1704,-910 1710,-910 1716,-916 1716,-922 1716,-922 1716,-936 1716,-936 1716,-942 1710,-948 1704,-948"/>
<text text-anchor="middle" x="1666.5" y="-932.8" font-family="Times,serif" font-size="14.00">oib.io</text>
<text text-anchor="middle" x="1666.5" y="-917.8" font-family="Times,serif" font-size="14.00">LapaMauve</text>
</g>
<!-- oib.io&#45;&gt;wanderers.io -->
<g id="edge44" class="edge">
<title>oib.io&#45;&gt;wanderers.io</title>
<path fill="none" stroke="black" d="M1663.69,-909.77C1657.6,-870.15 1643.11,-775.98 1635.83,-728.66"/>
<polygon fill="black" stroke="black" points="1639.25,-727.86 1634.27,-718.5 1632.33,-728.92 1639.25,-727.86"/>
</g>
<!-- brutal.io -->
<g id="node46" class="node">
<title>brutal.io</title>
<path fill="#90caf9" stroke="#90caf9" d="M2540.5,-948C2540.5,-948 2442.5,-948 2442.5,-948 2436.5,-948 2430.5,-942 2430.5,-936 2430.5,-936 2430.5,-922 2430.5,-922 2430.5,-916 2436.5,-910 2442.5,-910 2442.5,-910 2540.5,-910 2540.5,-910 2546.5,-910 2552.5,-916 2552.5,-922 2552.5,-922 2552.5,-936 2552.5,-936 2552.5,-942 2546.5,-948 2540.5,-948"/>
<text text-anchor="middle" x="2491.5" y="-932.8" font-family="Times,serif" font-size="14.00">brutal.io</text>
<text text-anchor="middle" x="2491.5" y="-917.8" font-family="Times,serif" font-size="14.00">Andre Almeida</text>
</g>
<!-- superhex.io -->
<g id="node58" class="node">
<title>superhex.io</title>
<path fill="#90caf9" stroke="#90caf9" d="M1808.5,-873C1808.5,-873 1732.5,-873 1732.5,-873 1726.5,-873 1720.5,-867 1720.5,-861 1720.5,-861 1720.5,-849 1720.5,-849 1720.5,-843 1726.5,-837 1732.5,-837 1732.5,-837 1808.5,-837 1808.5,-837 1814.5,-837 1820.5,-843 1820.5,-849 1820.5,-849 1820.5,-861 1820.5,-861 1820.5,-867 1814.5,-873 1808.5,-873"/>
<text text-anchor="middle" x="1770.5" y="-851.3" font-family="Times,serif" font-size="14.00">superhex.io</text>
</g>
<!-- hexar.io&#45;&gt;superhex.io -->
<g id="edge51" class="edge">
<title>hexar.io&#45;&gt;superhex.io</title>
<path fill="none" stroke="black" d="M1770.5,-910.94C1770.5,-902.81 1770.5,-892.88 1770.5,-883.7"/>
<polygon fill="black" stroke="black" points="1774,-883.44 1770.5,-873.44 1767,-883.44 1774,-883.44"/>
</g>
<!-- starve.io -->
<g id="node50" class="node">
<title>starve.io</title>
<path fill="#90caf9" stroke="#90caf9" d="M844,-948C844,-948 769,-948 769,-948 763,-948 757,-942 757,-936 757,-936 757,-922 757,-922 757,-916 763,-910 769,-910 769,-910 844,-910 844,-910 850,-910 856,-916 856,-922 856,-922 856,-936 856,-936 856,-942 850,-948 844,-948"/>
<text text-anchor="middle" x="806.5" y="-932.8" font-family="Times,serif" font-size="14.00">starve.io</text>
<text text-anchor="middle" x="806.5" y="-917.8" font-family="Times,serif" font-size="14.00">LapaMauve</text>
</g>
<!-- moomoo.io&#45;&gt;starve.io -->
<g id="edge32" class="edge">
<title>moomoo.io&#45;&gt;starve.io</title>
<path fill="none" stroke="black" d="M450.66,-948.09C472.8,-955.23 499.09,-962.46 523.5,-966 600.52,-977.16 689.57,-960.7 746.88,-946.31"/>
<polygon fill="black" stroke="black" points="748.04,-949.62 756.85,-943.74 746.3,-942.84 748.04,-949.62"/>
</g>
<!-- zombs.io -->
<g id="node53" class="node">
<title>zombs.io</title>
<path fill="#90caf9" stroke="#90caf9" d="M521.5,-874C521.5,-874 465.5,-874 465.5,-874 459.5,-874 453.5,-868 453.5,-862 453.5,-862 453.5,-848 453.5,-848 453.5,-842 459.5,-836 465.5,-836 465.5,-836 521.5,-836 521.5,-836 527.5,-836 533.5,-842 533.5,-848 533.5,-848 533.5,-862 533.5,-862 533.5,-868 527.5,-874 521.5,-874"/>
<text text-anchor="middle" x="493.5" y="-858.8" font-family="Times,serif" font-size="14.00">zombs.io</text>
<text text-anchor="middle" x="493.5" y="-843.8" font-family="Times,serif" font-size="14.00">Yang Lui</text>
</g>
<!-- moomoo.io&#45;&gt;zombs.io -->
<g id="edge35" class="edge">
<title>moomoo.io&#45;&gt;zombs.io</title>
<path fill="none" stroke="black" d="M422.47,-909.83C434.29,-900.88 448.7,-889.96 461.44,-880.3"/>
<polygon fill="black" stroke="black" points="463.68,-882.99 469.54,-874.16 459.45,-877.41 463.68,-882.99"/>
</g>
<!-- foes.io -->
<g id="node60" class="node">
<title>foes.io</title>
<path fill="#90caf9" stroke="#90caf9" d="M241.5,-800C241.5,-800 133.5,-800 133.5,-800 127.5,-800 121.5,-794 121.5,-788 121.5,-788 121.5,-774 121.5,-774 121.5,-768 127.5,-762 133.5,-762 133.5,-762 241.5,-762 241.5,-762 247.5,-762 253.5,-768 253.5,-774 253.5,-774 253.5,-788 253.5,-788 253.5,-794 247.5,-800 241.5,-800"/>
<text text-anchor="middle" x="187.5" y="-784.8" font-family="Times,serif" font-size="14.00">foes.io</text>
<text text-anchor="middle" x="187.5" y="-769.8" font-family="Times,serif" font-size="14.00">Sydney de Vries</text>
</g>
<!-- moomoo.io&#45;&gt;foes.io -->
<g id="edge29" class="edge">
<title>moomoo.io&#45;&gt;foes.io</title>
<path fill="none" stroke="black" d="M338.42,-909.9C315.02,-901.2 288.78,-889.29 267.5,-874 242.38,-855.95 219.87,-828.53 205.18,-808.32"/>
<polygon fill="black" stroke="black" points="208.02,-806.28 199.38,-800.15 202.31,-810.33 208.02,-806.28"/>
</g>
<!-- doomed.io -->
<g id="node63" class="node">
<title>doomed.io</title>
<path fill="#90caf9" stroke="#90caf9" d="M314.5,-718.5C314.5,-718.5 248.5,-718.5 248.5,-718.5 242.5,-718.5 236.5,-712.5 236.5,-706.5 236.5,-706.5 236.5,-692.5 236.5,-692.5 236.5,-686.5 242.5,-680.5 248.5,-680.5 248.5,-680.5 314.5,-680.5 314.5,-680.5 320.5,-680.5 326.5,-686.5 326.5,-692.5 326.5,-692.5 326.5,-706.5 326.5,-706.5 326.5,-712.5 320.5,-718.5 314.5,-718.5"/>
<text text-anchor="middle" x="281.5" y="-703.3" font-family="Times,serif" font-size="14.00">doomed.io</text>
<text text-anchor="middle" x="281.5" y="-688.3" font-family="Times,serif" font-size="14.00">Ginoda</text>
</g>
<!-- moomoo.io&#45;&gt;doomed.io -->
<g id="edge30" class="edge">
<title>moomoo.io&#45;&gt;doomed.io</title>
<path fill="none" stroke="black" d="M380.13,-909.89C357.65,-886.61 320.18,-843.93 300.5,-800 290.34,-777.31 285.61,-749.34 283.41,-728.84"/>
<polygon fill="black" stroke="black" points="286.89,-728.5 282.47,-718.87 279.92,-729.15 286.89,-728.5"/>
</g>
<!-- surviv.io -->
<g id="node80" class="node">
<title>surviv.io</title>
<path fill="#fff176" stroke="#fff176" d="M485.5,-800C485.5,-800 321.5,-800 321.5,-800 315.5,-800 309.5,-794 309.5,-788 309.5,-788 309.5,-774 309.5,-774 309.5,-768 315.5,-762 321.5,-762 321.5,-762 485.5,-762 485.5,-762 491.5,-762 497.5,-768 497.5,-774 497.5,-774 497.5,-788 497.5,-788 497.5,-794 491.5,-800 485.5,-800"/>
<text text-anchor="middle" x="403.5" y="-784.8" font-family="Times,serif" font-size="14.00">surviv.io</text>
<text text-anchor="middle" x="403.5" y="-769.8" font-family="Times,serif" font-size="14.00">Justin Kim &amp; Nick Clark</text>
</g>
<!-- moomoo.io&#45;&gt;surviv.io -->
<g id="edge34" class="edge">
<title>moomoo.io&#45;&gt;surviv.io</title>
<path fill="none" stroke="black" d="M399.12,-909.8C399.98,-884.89 401.52,-839.89 402.52,-810.49"/>
<polygon fill="black" stroke="black" points="406.02,-810.54 402.87,-800.43 399.03,-810.3 406.02,-810.54"/>
</g>
<!-- devast.io -->
<g id="node77" class="node">
<title>devast.io</title>
<path fill="#90caf9" stroke="#90caf9" d="M960,-481.5C960,-481.5 885,-481.5 885,-481.5 879,-481.5 873,-475.5 873,-469.5 873,-469.5 873,-455.5 873,-455.5 873,-449.5 879,-443.5 885,-443.5 885,-443.5 960,-443.5 960,-443.5 966,-443.5 972,-449.5 972,-455.5 972,-455.5 972,-469.5 972,-469.5 972,-475.5 966,-481.5 960,-481.5"/>
<text text-anchor="middle" x="922.5" y="-466.3" font-family="Times,serif" font-size="14.00">devast.io</text>
<text text-anchor="middle" x="922.5" y="-451.3" font-family="Times,serif" font-size="14.00">LapaMauve</text>
</g>
<!-- starve.io&#45;&gt;devast.io -->
<g id="edge33" class="edge">
<title>starve.io&#45;&gt;devast.io</title>
<path fill="none" stroke="black" d="M856.19,-910.46C873.58,-901.99 891.7,-890.08 903.5,-874 928.21,-840.34 922.5,-823.75 922.5,-782 922.5,-782 922.5,-782 922.5,-617 922.5,-573.38 922.5,-522.78 922.5,-491.96"/>
<polygon fill="black" stroke="black" points="926,-491.93 922.5,-481.93 919,-491.93 926,-491.93"/>
</g>
<!-- stabby.io -->
<g id="node52" class="node">
<title>stabby.io</title>
<path fill="#90caf9" stroke="#90caf9" d="M2506,-874C2506,-874 2443,-874 2443,-874 2437,-874 2431,-868 2431,-862 2431,-862 2431,-848 2431,-848 2431,-842 2437,-836 2443,-836 2443,-836 2506,-836 2506,-836 2512,-836 2518,-842 2518,-848 2518,-848 2518,-862 2518,-862 2518,-868 2512,-874 2506,-874"/>
<text text-anchor="middle" x="2474.5" y="-858.8" font-family="Times,serif" font-size="14.00">stabby.io</text>
<text text-anchor="middle" x="2474.5" y="-843.8" font-family="Times,serif" font-size="14.00">SoulFoam</text>
</g>
<!-- zombsroyale.io -->
<g id="node82" class="node">
<title>zombsroyale.io</title>
<path fill="#fff176" stroke="#fff176" d="M575.5,-637C575.5,-637 475.5,-637 475.5,-637 469.5,-637 463.5,-631 463.5,-625 463.5,-625 463.5,-611 463.5,-611 463.5,-605 469.5,-599 475.5,-599 475.5,-599 575.5,-599 575.5,-599 581.5,-599 587.5,-605 587.5,-611 587.5,-611 587.5,-625 587.5,-625 587.5,-631 581.5,-637 575.5,-637"/>
<text text-anchor="middle" x="525.5" y="-621.8" font-family="Times,serif" font-size="14.00">zombsroyale.io</text>
<text text-anchor="middle" x="525.5" y="-606.8" font-family="Times,serif" font-size="14.00">Yang Lui</text>
</g>
<!-- zombs.io&#45;&gt;zombsroyale.io -->
<g id="edge36" class="edge">
<title>zombs.io&#45;&gt;zombsroyale.io</title>
<path fill="none" stroke="black" d="M498.56,-835.63C501.26,-825.24 504.44,-811.97 506.5,-800 515.73,-746.38 521.14,-683.01 523.69,-647.26"/>
<polygon fill="black" stroke="black" points="527.2,-647.31 524.39,-637.09 520.21,-646.83 527.2,-647.31"/>
</g>
<!-- superspin.io -->
<g id="node55" class="node">
<title>superspin.io</title>
<path fill="#90caf9" stroke="#90caf9" d="M882.5,-874C882.5,-874 802.5,-874 802.5,-874 796.5,-874 790.5,-868 790.5,-862 790.5,-862 790.5,-848 790.5,-848 790.5,-842 796.5,-836 802.5,-836 802.5,-836 882.5,-836 882.5,-836 888.5,-836 894.5,-842 894.5,-848 894.5,-848 894.5,-862 894.5,-862 894.5,-868 888.5,-874 882.5,-874"/>
<text text-anchor="middle" x="842.5" y="-858.8" font-family="Times,serif" font-size="14.00">superspin.io</text>
<text text-anchor="middle" x="842.5" y="-843.8" font-family="Times,serif" font-size="14.00">Jetti Games</text>
</g>
<!-- spinz.io&#45;&gt;superspin.io -->
<g id="edge47" class="edge">
<title>spinz.io&#45;&gt;superspin.io</title>
<path fill="none" stroke="black" d="M624.38,-874.17C634.23,-881.23 646.28,-888.38 658.5,-892 707.08,-906.39 723.32,-904.2 772.5,-892 783.63,-889.24 794.95,-884.35 805.14,-879"/>
<polygon fill="black" stroke="black" points="807.09,-881.92 814.15,-874.02 803.7,-875.8 807.09,-881.92"/>
</g>
<!-- fisp.io -->
<g id="node56" class="node">
<title>fisp.io</title>
<path fill="#90caf9" stroke="#90caf9" d="M760.5,-874C760.5,-874 670.5,-874 670.5,-874 664.5,-874 658.5,-868 658.5,-862 658.5,-862 658.5,-848 658.5,-848 658.5,-842 664.5,-836 670.5,-836 670.5,-836 760.5,-836 760.5,-836 766.5,-836 772.5,-842 772.5,-848 772.5,-848 772.5,-862 772.5,-862 772.5,-868 766.5,-874 760.5,-874"/>
<text text-anchor="middle" x="715.5" y="-858.8" font-family="Times,serif" font-size="14.00">fisp.io</text>
<text text-anchor="middle" x="715.5" y="-843.8" font-family="Times,serif" font-size="14.00">Clown Games</text>
</g>
<!-- spinz.io&#45;&gt;fisp.io -->
<g id="edge46" class="edge">
<title>spinz.io&#45;&gt;fisp.io</title>
<path fill="none" stroke="black" d="M640.69,-855C643.15,-855 645.62,-855 648.08,-855"/>
<polygon fill="black" stroke="black" points="648.22,-858.5 658.22,-855 648.22,-851.5 648.22,-858.5"/>
</g>
<!-- goons.io -->
<g id="node59" class="node">
<title>goons.io</title>
<path fill="#90caf9" stroke="#90caf9" d="M2020.5,-800C2020.5,-800 1930.5,-800 1930.5,-800 1924.5,-800 1918.5,-794 1918.5,-788 1918.5,-788 1918.5,-774 1918.5,-774 1918.5,-768 1924.5,-762 1930.5,-762 1930.5,-762 2020.5,-762 2020.5,-762 2026.5,-762 2032.5,-768 2032.5,-774 2032.5,-774 2032.5,-788 2032.5,-788 2032.5,-794 2026.5,-800 2020.5,-800"/>
<text text-anchor="middle" x="1975.5" y="-784.8" font-family="Times,serif" font-size="14.00">goons.io</text>
<text text-anchor="middle" x="1975.5" y="-769.8" font-family="Times,serif" font-size="14.00">Clown Games</text>
</g>
<!-- pikes.io&#45;&gt;goons.io -->
<g id="edge59" class="edge">
<title>pikes.io&#45;&gt;goons.io</title>
<path fill="none" stroke="black" d="M1975.5,-835.83C1975.5,-828.13 1975.5,-818.97 1975.5,-810.42"/>
<polygon fill="black" stroke="black" points="1979,-810.41 1975.5,-800.41 1972,-810.41 1979,-810.41"/>
</g>
<!-- knuckol.club -->
<g id="node70" class="node">
<title>knuckol.club</title>
<path fill="#90caf9" stroke="#90caf9" d="M2016.5,-637C2016.5,-637 1934.5,-637 1934.5,-637 1928.5,-637 1922.5,-631 1922.5,-625 1922.5,-625 1922.5,-611 1922.5,-611 1922.5,-605 1928.5,-599 1934.5,-599 1934.5,-599 2016.5,-599 2016.5,-599 2022.5,-599 2028.5,-605 2028.5,-611 2028.5,-611 2028.5,-625 2028.5,-625 2028.5,-631 2022.5,-637 2016.5,-637"/>
<text text-anchor="middle" x="1975.5" y="-621.8" font-family="Times,serif" font-size="14.00">knuckol.club</text>
<text text-anchor="middle" x="1975.5" y="-606.8" font-family="Times,serif" font-size="14.00">Erigato</text>
</g>
<!-- goons.io&#45;&gt;knuckol.club -->
<g id="edge60" class="edge">
<title>goons.io&#45;&gt;knuckol.club</title>
<path fill="none" stroke="black" d="M1975.5,-761.84C1975.5,-734.06 1975.5,-680.76 1975.5,-647.7"/>
<polygon fill="black" stroke="black" points="1979,-647.34 1975.5,-637.34 1972,-647.34 1979,-647.34"/>
</g>
<!-- shootem.io -->
<g id="node69" class="node">
<title>shootem.io</title>
<path fill="#90caf9" stroke="#90caf9" d="M1090.5,-637C1090.5,-637 962.5,-637 962.5,-637 956.5,-637 950.5,-631 950.5,-625 950.5,-625 950.5,-611 950.5,-611 950.5,-605 956.5,-599 962.5,-599 962.5,-599 1090.5,-599 1090.5,-599 1096.5,-599 1102.5,-605 1102.5,-611 1102.5,-611 1102.5,-625 1102.5,-625 1102.5,-631 1096.5,-637 1090.5,-637"/>
<text text-anchor="middle" x="1026.5" y="-621.8" font-family="Times,serif" font-size="14.00">shootem.io</text>
<text text-anchor="middle" x="1026.5" y="-606.8" font-family="Times,serif" font-size="14.00">Mathew Matakovic</text>
</g>
<!-- nightpoint.io&#45;&gt;shootem.io -->
<g id="edge41" class="edge">
<title>nightpoint.io&#45;&gt;shootem.io</title>
<path fill="none" stroke="black" d="M1080.65,-761.78C1067.81,-752.64 1053.96,-740.43 1045.5,-726 1031.41,-701.98 1027.25,-670.08 1026.26,-647.38"/>
<polygon fill="black" stroke="black" points="1029.76,-647.26 1026,-637.35 1022.76,-647.44 1029.76,-647.26"/>
</g>
<!-- bruh.io -->
<g id="node81" class="node">
<title>bruh.io</title>
<path fill="#fff176" stroke="#fff176" d="M1156,-718.5C1156,-718.5 1067,-718.5 1067,-718.5 1061,-718.5 1055,-712.5 1055,-706.5 1055,-706.5 1055,-692.5 1055,-692.5 1055,-686.5 1061,-680.5 1067,-680.5 1067,-680.5 1156,-680.5 1156,-680.5 1162,-680.5 1168,-686.5 1168,-692.5 1168,-692.5 1168,-706.5 1168,-706.5 1168,-712.5 1162,-718.5 1156,-718.5"/>
<text text-anchor="middle" x="1111.5" y="-703.3" font-family="Times,serif" font-size="14.00">bruh.io</text>
<text text-anchor="middle" x="1111.5" y="-688.3" font-family="Times,serif" font-size="14.00">Bitfox Games</text>
</g>
<!-- nightpoint.io&#45;&gt;bruh.io -->
<g id="edge40" class="edge">
<title>nightpoint.io&#45;&gt;bruh.io</title>
<path fill="none" stroke="black" d="M1111.5,-761.96C1111.5,-752.17 1111.5,-739.85 1111.5,-728.81"/>
<polygon fill="black" stroke="black" points="1115,-728.74 1111.5,-718.74 1108,-728.74 1115,-728.74"/>
</g>
<!-- battlepoint.io -->
<g id="node84" class="node">
<title>battlepoint.io</title>
<path fill="#fff176" stroke="#fff176" d="M1215,-481.5C1215,-481.5 1126,-481.5 1126,-481.5 1120,-481.5 1114,-475.5 1114,-469.5 1114,-469.5 1114,-455.5 1114,-455.5 1114,-449.5 1120,-443.5 1126,-443.5 1126,-443.5 1215,-443.5 1215,-443.5 1221,-443.5 1227,-449.5 1227,-455.5 1227,-455.5 1227,-469.5 1227,-469.5 1227,-475.5 1221,-481.5 1215,-481.5"/>
<text text-anchor="middle" x="1170.5" y="-466.3" font-family="Times,serif" font-size="14.00">battlepoint.io</text>
<text text-anchor="middle" x="1170.5" y="-451.3" font-family="Times,serif" font-size="14.00">Sarunas</text>
</g>
<!-- nightpoint.io&#45;&gt;battlepoint.io -->
<g id="edge39" class="edge">
<title>nightpoint.io&#45;&gt;battlepoint.io</title>
<path fill="none" stroke="black" d="M1143.78,-761.84C1156.44,-752.85 1169.58,-740.74 1176.5,-726 1213.2,-647.79 1192.27,-541.51 1178.93,-491.59"/>
<polygon fill="black" stroke="black" points="1182.27,-490.52 1176.22,-481.82 1175.52,-492.39 1182.27,-490.52"/>
</g>
<!-- doomed2.io -->
<g id="node72" class="node">
<title>doomed2.io</title>
<path fill="#90caf9" stroke="#90caf9" d="M319,-637C319,-637 244,-637 244,-637 238,-637 232,-631 232,-625 232,-625 232,-611 232,-611 232,-605 238,-599 244,-599 244,-599 319,-599 319,-599 325,-599 331,-605 331,-611 331,-611 331,-625 331,-625 331,-631 325,-637 319,-637"/>
<text text-anchor="middle" x="281.5" y="-621.8" font-family="Times,serif" font-size="14.00">doomed2.io</text>
<text text-anchor="middle" x="281.5" y="-606.8" font-family="Times,serif" font-size="14.00">Ginoda</text>
</g>
<!-- doomed.io&#45;&gt;doomed2.io -->
<g id="edge31" class="edge">
<title>doomed.io&#45;&gt;doomed2.io</title>
<path fill="none" stroke="black" d="M281.5,-680.46C281.5,-670.67 281.5,-658.35 281.5,-647.31"/>
<polygon fill="black" stroke="black" points="285,-647.24 281.5,-637.24 278,-647.24 285,-647.24"/>
</g>
<!-- shellshock.io -->
<g id="node65" class="node">
<title>shellshock.io</title>
<path fill="#90caf9" stroke="#90caf9" d="M2526.5,-717.5C2526.5,-717.5 2442.5,-717.5 2442.5,-717.5 2436.5,-717.5 2430.5,-711.5 2430.5,-705.5 2430.5,-705.5 2430.5,-693.5 2430.5,-693.5 2430.5,-687.5 2436.5,-681.5 2442.5,-681.5 2442.5,-681.5 2526.5,-681.5 2526.5,-681.5 2532.5,-681.5 2538.5,-687.5 2538.5,-693.5 2538.5,-693.5 2538.5,-705.5 2538.5,-705.5 2538.5,-711.5 2532.5,-717.5 2526.5,-717.5"/>
<text text-anchor="middle" x="2484.5" y="-695.8" font-family="Times,serif" font-size="14.00">shellshock.io</text>
</g>
<!-- krunker.io -->
<g id="node75" class="node">
<title>krunker.io</title>
<path fill="#90caf9" stroke="#90caf9" d="M2644.5,-563C2644.5,-563 2536.5,-563 2536.5,-563 2530.5,-563 2524.5,-557 2524.5,-551 2524.5,-551 2524.5,-537 2524.5,-537 2524.5,-531 2530.5,-525 2536.5,-525 2536.5,-525 2644.5,-525 2644.5,-525 2650.5,-525 2656.5,-531 2656.5,-537 2656.5,-537 2656.5,-551 2656.5,-551 2656.5,-557 2650.5,-563 2644.5,-563"/>
<text text-anchor="middle" x="2590.5" y="-547.8" font-family="Times,serif" font-size="14.00">krunker.io</text>
<text text-anchor="middle" x="2590.5" y="-532.8" font-family="Times,serif" font-size="14.00">Sydney de Vries</text>
</g>
<!-- shellshock.io&#45;&gt;krunker.io -->
<g id="edge55" class="edge">
<title>shellshock.io&#45;&gt;krunker.io</title>
<path fill="none" stroke="black" d="M2496.25,-681.49C2514.68,-654.8 2550.51,-602.9 2572.3,-571.36"/>
<polygon fill="black" stroke="black" points="2575.24,-573.26 2578.04,-563.04 2569.48,-569.28 2575.24,-573.26"/>
</g>
<!-- warscrap.io -->
<g id="node66" class="node">
<title>warscrap.io</title>
<path fill="#90caf9" stroke="#90caf9" d="M2644.5,-718.5C2644.5,-718.5 2568.5,-718.5 2568.5,-718.5 2562.5,-718.5 2556.5,-712.5 2556.5,-706.5 2556.5,-706.5 2556.5,-692.5 2556.5,-692.5 2556.5,-686.5 2562.5,-680.5 2568.5,-680.5 2568.5,-680.5 2644.5,-680.5 2644.5,-680.5 2650.5,-680.5 2656.5,-686.5 2656.5,-692.5 2656.5,-692.5 2656.5,-706.5 2656.5,-706.5 2656.5,-712.5 2650.5,-718.5 2644.5,-718.5"/>
<text text-anchor="middle" x="2606.5" y="-703.3" font-family="Times,serif" font-size="14.00">warscrap.io</text>
<text text-anchor="middle" x="2606.5" y="-688.3" font-family="Times,serif" font-size="14.00">Evil Noob</text>
</g>
<!-- warscrap.io&#45;&gt;krunker.io -->
<g id="edge54" class="edge">
<title>warscrap.io&#45;&gt;krunker.io</title>
<path fill="none" stroke="black" d="M2604.6,-680.29C2601.85,-653.86 2596.72,-604.64 2593.46,-573.41"/>
<polygon fill="black" stroke="black" points="2596.91,-572.77 2592.4,-563.19 2589.95,-573.5 2596.91,-572.77"/>
</g>
<!-- airma.sh -->
<g id="node67" class="node">
<title>airma.sh</title>
<path fill="#90caf9" stroke="#90caf9" d="M2759,-717.5C2759,-717.5 2704,-717.5 2704,-717.5 2698,-717.5 2692,-711.5 2692,-705.5 2692,-705.5 2692,-693.5 2692,-693.5 2692,-687.5 2698,-681.5 2704,-681.5 2704,-681.5 2759,-681.5 2759,-681.5 2765,-681.5 2771,-687.5 2771,-693.5 2771,-693.5 2771,-705.5 2771,-705.5 2771,-711.5 2765,-717.5 2759,-717.5"/>
<text text-anchor="middle" x="2731.5" y="-695.8" font-family="Times,serif" font-size="14.00">airma.sh</text>
</g>
<!-- skyroyale.io -->
<g id="node83" class="node">
<title>skyroyale.io</title>
<path fill="#fff176" stroke="#fff176" d="M2776.5,-563C2776.5,-563 2686.5,-563 2686.5,-563 2680.5,-563 2674.5,-557 2674.5,-551 2674.5,-551 2674.5,-537 2674.5,-537 2674.5,-531 2680.5,-525 2686.5,-525 2686.5,-525 2776.5,-525 2776.5,-525 2782.5,-525 2788.5,-531 2788.5,-537 2788.5,-537 2788.5,-551 2788.5,-551 2788.5,-557 2782.5,-563 2776.5,-563"/>
<text text-anchor="middle" x="2731.5" y="-547.8" font-family="Times,serif" font-size="14.00">skyroyale.io</text>
<text text-anchor="middle" x="2731.5" y="-532.8" font-family="Times,serif" font-size="14.00">Clown Games</text>
</g>
<!-- airma.sh&#45;&gt;skyroyale.io -->
<g id="edge61" class="edge">
<title>airma.sh&#45;&gt;skyroyale.io</title>
<path fill="none" stroke="black" d="M2731.5,-681.49C2731.5,-655.37 2731.5,-605.11 2731.5,-573.41"/>
<polygon fill="black" stroke="black" points="2735,-573.04 2731.5,-563.04 2728,-573.04 2735,-573.04"/>
</g>
<!-- pockey.io -->
<g id="node68" class="node">
<title>pockey.io</title>
<path fill="#90caf9" stroke="#90caf9" d="M2914,-726C2914,-726 2801,-726 2801,-726 2795,-726 2789,-720 2789,-714 2789,-714 2789,-685 2789,-685 2789,-679 2795,-673 2801,-673 2801,-673 2914,-673 2914,-673 2920,-673 2926,-679 2926,-685 2926,-685 2926,-714 2926,-714 2926,-720 2920,-726 2914,-726"/>
<text text-anchor="middle" x="2857.5" y="-710.8" font-family="Times,serif" font-size="14.00">pockey.io</text>
<text text-anchor="middle" x="2857.5" y="-695.8" font-family="Times,serif" font-size="14.00">Starcade</text>
<text text-anchor="middle" x="2857.5" y="-680.8" font-family="Times,serif" font-size="14.00">(KidComet &amp; al.)</text>
</g>
<!-- nend.io -->
<g id="node71" class="node">
<title>nend.io</title>
<path fill="#90caf9" stroke="#90caf9" d="M2847,-637C2847,-637 2772,-637 2772,-637 2766,-637 2760,-631 2760,-625 2760,-625 2760,-611 2760,-611 2760,-605 2766,-599 2772,-599 2772,-599 2847,-599 2847,-599 2853,-599 2859,-605 2859,-611 2859,-611 2859,-625 2859,-625 2859,-631 2853,-637 2847,-637"/>
<text text-anchor="middle" x="2809.5" y="-621.8" font-family="Times,serif" font-size="14.00">nend.io</text>
<text text-anchor="middle" x="2809.5" y="-606.8" font-family="Times,serif" font-size="14.00">LapaMauve</text>
</g>
<!-- acolytefight.io -->
<g id="node78" class="node">
<title>acolytefight.io</title>
<path fill="#90caf9" stroke="#90caf9" d="M2384,-400C2384,-400 2269,-400 2269,-400 2263,-400 2257,-394 2257,-388 2257,-388 2257,-374 2257,-374 2257,-368 2263,-362 2269,-362 2269,-362 2384,-362 2384,-362 2390,-362 2396,-368 2396,-374 2396,-374 2396,-388 2396,-388 2396,-394 2390,-400 2384,-400"/>
<text text-anchor="middle" x="2326.5" y="-384.8" font-family="Times,serif" font-size="14.00">acolytefight.io</text>
<text text-anchor="middle" x="2326.5" y="-369.8" font-family="Times,serif" font-size="14.00">raysplaceinspace</text>
</g>
<!-- bruh.io&#45;&gt;battlepoint.io -->
<g id="edge42" class="edge">
<title>bruh.io&#45;&gt;battlepoint.io</title>
<path fill="none" stroke="black" d="M1116.03,-680.45C1126.26,-639.7 1151.21,-540.32 1163.47,-491.5"/>
<polygon fill="black" stroke="black" points="1166.91,-492.16 1165.95,-481.61 1160.12,-490.46 1166.91,-492.16"/>
</g>
<!-- buildroyale.io -->
<g id="node85" class="node">
<title>buildroyale.io</title>
<path fill="#fff176" stroke="#fff176" d="M589.5,-400C589.5,-400 461.5,-400 461.5,-400 455.5,-400 449.5,-394 449.5,-388 449.5,-388 449.5,-374 449.5,-374 449.5,-368 455.5,-362 461.5,-362 461.5,-362 589.5,-362 589.5,-362 595.5,-362 601.5,-368 601.5,-374 601.5,-374 601.5,-388 601.5,-388 601.5,-394 595.5,-400 589.5,-400"/>
<text text-anchor="middle" x="525.5" y="-384.8" font-family="Times,serif" font-size="14.00">buildroyale.io</text>
<text text-anchor="middle" x="525.5" y="-369.8" font-family="Times,serif" font-size="14.00">Mathew Matakovic</text>
</g>
<!-- zombsroyale.io&#45;&gt;buildroyale.io -->
<g id="edge37" class="edge">
<title>zombsroyale.io&#45;&gt;buildroyale.io</title>
<path fill="none" stroke="black" d="M525.5,-598.95C525.5,-558.28 525.5,-459.23 525.5,-410.31"/>
<polygon fill="black" stroke="black" points="529,-410.11 525.5,-400.11 522,-410.11 529,-410.11"/>
</g>
</g>
</svg>
