<?xml version="1.0" encoding="UTF-8" standalone="no"?>
<!DOCTYPE svg PUBLIC "-//W3C//DTD SVG 1.1//EN"
 "http://www.w3.org/Graphics/SVG/1.1/DTD/svg11.dtd">
<!-- Generated by graphviz version 2.40.1 (20161225.0304)
 -->
<!-- Title: iogames Pages: 1 -->
<svg width="2821pt" height="452pt"
 viewBox="0.00 0.00 2820.50 452.00" xmlns="http://www.w3.org/2000/svg" xmlns:xlink="http://www.w3.org/1999/xlink">
<g id="graph0" class="graph" transform="scale(1 1) rotate(0) translate(4 448)">
<title>iogames</title>
<polygon fill="#ffffff" stroke="transparent" points="-4,4 -4,-448 2816.5,-448 2816.5,4 -4,4"/>
<text text-anchor="middle" x="1406.25" y="-428.8" font-family="Times,serif" font-size="14.00" fill="#000000">History of .io games</text>
<text text-anchor="middle" x="1406.25" y="-413.8" font-family="Times,serif" font-size="14.00" fill="#000000">by Julien Mourer</text>
<!-- 2014 -->
<g id="node1" class="node">
<title>2014</title>
<text text-anchor="middle" x="34" y="-382" font-family="Times,serif" font-size="20.00" fill="#000000">2014</text>
</g>
<!-- 2015 -->
<g id="node2" class="node">
<title>2015</title>
<text text-anchor="middle" x="34" y="-308" font-family="Times,serif" font-size="20.00" fill="#000000">2015</text>
</g>
<!-- 2014&#45;&gt;2015 -->
<!-- 2016 -->
<g id="node3" class="node">
<title>2016</title>
<text text-anchor="middle" x="34" y="-234" font-family="Times,serif" font-size="20.00" fill="#000000">2016</text>
</g>
<!-- 2015&#45;&gt;2016 -->
<!-- 2017 -->
<g id="node4" class="node">
<title>2017</title>
<text text-anchor="middle" x="34" y="-160" font-family="Times,serif" font-size="20.00" fill="#000000">2017</text>
</g>
<!-- 2016&#45;&gt;2017 -->
<!-- 2018 -->
<g id="node5" class="node">
<title>2018</title>
<text text-anchor="middle" x="34" y="-86" font-family="Times,serif" font-size="20.00" fill="#000000">2018</text>
</g>
<!-- 2017&#45;&gt;2018 -->
<!-- 2019 -->
<g id="node6" class="node">
<title>2019</title>
<text text-anchor="middle" x="34" y="-13" font-family="Times,serif" font-size="20.00" fill="#000000">2019</text>
</g>
<!-- 2018&#45;&gt;2019 -->
<!-- cursors.io -->
<g id="node7" class="node">
<title>cursors.io</title>
<path fill="#90caf9" stroke="#90caf9" d="M227.5,-406C227.5,-406 98.5,-406 98.5,-406 92.5,-406 86.5,-400 86.5,-394 86.5,-394 86.5,-380 86.5,-380 86.5,-374 92.5,-368 98.5,-368 98.5,-368 227.5,-368 227.5,-368 233.5,-368 239.5,-374 239.5,-380 239.5,-380 239.5,-394 239.5,-394 239.5,-400 233.5,-406 227.5,-406"/>
<text text-anchor="middle" x="163" y="-390.8" font-family="Times,serif" font-size="14.00" fill="#000000">cursors.io</text>
<text text-anchor="middle" x="163" y="-375.8" font-family="Times,serif" font-size="14.00" fill="#000000">Matheus Valadares</text>
</g>
<!-- agar.io -->
<g id="node8" class="node">
<title>agar.io</title>
<path fill="#90caf9" stroke="#90caf9" d="M812.5,-332C812.5,-332 683.5,-332 683.5,-332 677.5,-332 671.5,-326 671.5,-320 671.5,-320 671.5,-306 671.5,-306 671.5,-300 677.5,-294 683.5,-294 683.5,-294 812.5,-294 812.5,-294 818.5,-294 824.5,-300 824.5,-306 824.5,-306 824.5,-320 824.5,-320 824.5,-326 818.5,-332 812.5,-332"/>
<text text-anchor="middle" x="748" y="-316.8" font-family="Times,serif" font-size="14.00" fill="#000000">agar.io</text>
<text text-anchor="middle" x="748" y="-301.8" font-family="Times,serif" font-size="14.00" fill="#000000">Matheus Valadares</text>
</g>
<!-- deeeep.io -->
<g id="node11" class="node">
<title>deeeep.io</title>
<path fill="#90caf9" stroke="#90caf9" d="M388.5,-257C388.5,-257 327.5,-257 327.5,-257 321.5,-257 315.5,-251 315.5,-245 315.5,-245 315.5,-233 315.5,-233 315.5,-227 321.5,-221 327.5,-221 327.5,-221 388.5,-221 388.5,-221 394.5,-221 400.5,-227 400.5,-233 400.5,-233 400.5,-245 400.5,-245 400.5,-251 394.5,-257 388.5,-257"/>
<text text-anchor="middle" x="358" y="-235.3" font-family="Times,serif" font-size="14.00" fill="#000000">deeeep.io</text>
</g>
<!-- agar.io&#45;&gt;deeeep.io -->
<g id="edge27" class="edge">
<title>agar.io&#45;&gt;deeeep.io</title>
<path fill="none" stroke="#000000" d="M671.3712,-304.9116C604.3718,-296.8516 504.5177,-282.4511 410.3378,-258.1244"/>
<polygon fill="#000000" stroke="#000000" points="411.2171,-254.7367 400.6561,-255.5827 409.4396,-261.5072 411.2171,-254.7367"/>
</g>
<!-- spinz.io -->
<g id="node22" class="node">
<title>spinz.io</title>
<path fill="#90caf9" stroke="#90caf9" d="M776,-184C776,-184 720,-184 720,-184 714,-184 708,-178 708,-172 708,-172 708,-158 708,-158 708,-152 714,-146 720,-146 720,-146 776,-146 776,-146 782,-146 788,-152 788,-158 788,-158 788,-172 788,-172 788,-178 782,-184 776,-184"/>
<text text-anchor="middle" x="748" y="-168.8" font-family="Times,serif" font-size="14.00" fill="#000000">spinz.io</text>
<text text-anchor="middle" x="748" y="-153.8" font-family="Times,serif" font-size="14.00" fill="#000000">Yang Lui</text>
</g>
<!-- agar.io&#45;&gt;spinz.io -->
<g id="edge21" class="edge">
<title>agar.io&#45;&gt;spinz.io</title>
<path fill="none" stroke="#000000" d="M748,-293.9546C748,-268.7839 748,-224.1799 748,-194.5976"/>
<polygon fill="#000000" stroke="#000000" points="751.5001,-194.4423 748,-184.4423 744.5001,-194.4423 751.5001,-194.4423"/>
</g>
<!-- pie.ai -->
<g id="node36" class="node">
<title>pie.ai</title>
<path fill="#90caf9" stroke="#90caf9" d="M1066,-183C1066,-183 1034,-183 1034,-183 1028,-183 1022,-177 1022,-171 1022,-171 1022,-159 1022,-159 1022,-153 1028,-147 1034,-147 1034,-147 1066,-147 1066,-147 1072,-147 1078,-153 1078,-159 1078,-159 1078,-171 1078,-171 1078,-177 1072,-183 1066,-183"/>
<text text-anchor="middle" x="1050" y="-161.3" font-family="Times,serif" font-size="14.00" fill="#000000">pie.ai</text>
</g>
<!-- agar.io&#45;&gt;pie.ai -->
<g id="edge22" class="edge">
<title>agar.io&#45;&gt;pie.ai</title>
<path fill="none" stroke="#000000" d="M788.0873,-293.8146C838.3241,-269.699 927.2549,-226.7696 1012.694,-184.1123"/>
<polygon fill="#000000" stroke="#000000" points="1014.3702,-187.1874 1021.7498,-179.5854 1011.2402,-180.9261 1014.3702,-187.1874"/>
</g>
<!-- slither.io -->
<g id="node9" class="node">
<title>slither.io</title>
<path fill="#90caf9" stroke="#90caf9" d="M1176,-258C1176,-258 1090,-258 1090,-258 1084,-258 1078,-252 1078,-246 1078,-246 1078,-232 1078,-232 1078,-226 1084,-220 1090,-220 1090,-220 1176,-220 1176,-220 1182,-220 1188,-226 1188,-232 1188,-232 1188,-246 1188,-246 1188,-252 1182,-258 1176,-258"/>
<text text-anchor="middle" x="1133" y="-242.8" font-family="Times,serif" font-size="14.00" fill="#000000">slither.io</text>
<text text-anchor="middle" x="1133" y="-227.8" font-family="Times,serif" font-size="14.00" fill="#000000">Steve Howse</text>
</g>
<!-- wormax.io -->
<g id="node13" class="node">
<title>wormax.io</title>
<path fill="#90caf9" stroke="#90caf9" d="M1570.5,-258C1570.5,-258 1503.5,-258 1503.5,-258 1497.5,-258 1491.5,-252 1491.5,-246 1491.5,-246 1491.5,-232 1491.5,-232 1491.5,-226 1497.5,-220 1503.5,-220 1503.5,-220 1570.5,-220 1570.5,-220 1576.5,-220 1582.5,-226 1582.5,-232 1582.5,-232 1582.5,-246 1582.5,-246 1582.5,-252 1576.5,-258 1570.5,-258"/>
<text text-anchor="middle" x="1537" y="-242.8" font-family="Times,serif" font-size="14.00" fill="#000000">wormax.io</text>
<text text-anchor="middle" x="1537" y="-227.8" font-family="Times,serif" font-size="14.00" fill="#000000">Elyland</text>
</g>
<!-- slither.io&#45;&gt;wormax.io -->
<g id="edge6" class="edge">
<title>slither.io&#45;&gt;wormax.io</title>
<path fill="none" stroke="#000000" d="M1162.667,-258.0284C1175.4667,-265.1586 1190.9367,-272.4006 1206,-276 1263.7086,-289.7897 1415.6929,-291.3732 1473,-276 1483.1338,-273.2815 1493.3218,-268.5262 1502.4961,-263.312"/>
<polygon fill="#000000" stroke="#000000" points="1504.5394,-266.1669 1511.2928,-258.0035 1500.9226,-260.1737 1504.5394,-266.1669"/>
</g>
<!-- wormate.io -->
<g id="node14" class="node">
<title>wormate.io</title>
<path fill="#90caf9" stroke="#90caf9" d="M1461.5,-258C1461.5,-258 1336.5,-258 1336.5,-258 1330.5,-258 1324.5,-252 1324.5,-246 1324.5,-246 1324.5,-232 1324.5,-232 1324.5,-226 1330.5,-220 1336.5,-220 1336.5,-220 1461.5,-220 1461.5,-220 1467.5,-220 1473.5,-226 1473.5,-232 1473.5,-232 1473.5,-246 1473.5,-246 1473.5,-252 1467.5,-258 1461.5,-258"/>
<text text-anchor="middle" x="1399" y="-242.8" font-family="Times,serif" font-size="14.00" fill="#000000">wormate.io</text>
<text text-anchor="middle" x="1399" y="-227.8" font-family="Times,serif" font-size="14.00" fill="#000000">Oleksandr Godoba</text>
</g>
<!-- slither.io&#45;&gt;wormate.io -->
<g id="edge7" class="edge">
<title>slither.io&#45;&gt;wormate.io</title>
<path fill="none" stroke="#000000" d="M1162.667,-258.0284C1175.4667,-265.1586 1190.9367,-272.4006 1206,-276 1249.2274,-286.3294 1262.3497,-284.3643 1306,-276 1321.1143,-273.1038 1336.9013,-267.7833 1351.0866,-262.0625"/>
<polygon fill="#000000" stroke="#000000" points="1352.7553,-265.1581 1360.6235,-258.0629 1350.048,-258.7028 1352.7553,-265.1581"/>
</g>
<!-- limax.io -->
<g id="node15" class="node">
<title>limax.io</title>
<path fill="#90caf9" stroke="#90caf9" d="M1294,-258C1294,-258 1218,-258 1218,-258 1212,-258 1206,-252 1206,-246 1206,-246 1206,-232 1206,-232 1206,-226 1212,-220 1218,-220 1218,-220 1294,-220 1294,-220 1300,-220 1306,-226 1306,-232 1306,-232 1306,-246 1306,-246 1306,-252 1300,-258 1294,-258"/>
<text text-anchor="middle" x="1256" y="-242.8" font-family="Times,serif" font-size="14.00" fill="#000000">limax.io</text>
<text text-anchor="middle" x="1256" y="-227.8" font-family="Times,serif" font-size="14.00" fill="#000000">LapaMauve</text>
</g>
<!-- slither.io&#45;&gt;limax.io -->
<g id="edge8" class="edge">
<title>slither.io&#45;&gt;limax.io</title>
<path fill="none" stroke="#000000" d="M1188.2539,-239C1190.7472,-239 1193.2406,-239 1195.7339,-239"/>
<polygon fill="#000000" stroke="#000000" points="1195.9844,-242.5001 1205.9843,-239 1195.9843,-235.5001 1195.9844,-242.5001"/>
</g>
<!-- diep.io -->
<g id="node10" class="node">
<title>diep.io</title>
<path fill="#90caf9" stroke="#90caf9" d="M1741.5,-258C1741.5,-258 1612.5,-258 1612.5,-258 1606.5,-258 1600.5,-252 1600.5,-246 1600.5,-246 1600.5,-232 1600.5,-232 1600.5,-226 1606.5,-220 1612.5,-220 1612.5,-220 1741.5,-220 1741.5,-220 1747.5,-220 1753.5,-226 1753.5,-232 1753.5,-232 1753.5,-246 1753.5,-246 1753.5,-252 1747.5,-258 1741.5,-258"/>
<text text-anchor="middle" x="1677" y="-242.8" font-family="Times,serif" font-size="14.00" fill="#000000">diep.io</text>
<text text-anchor="middle" x="1677" y="-227.8" font-family="Times,serif" font-size="14.00" fill="#000000">Matheus Valadares</text>
</g>
<!-- tanksmith.io -->
<g id="node43" class="node">
<title>tanksmith.io</title>
<path fill="#90caf9" stroke="#90caf9" d="M1718.5,-110C1718.5,-110 1635.5,-110 1635.5,-110 1629.5,-110 1623.5,-104 1623.5,-98 1623.5,-98 1623.5,-84 1623.5,-84 1623.5,-78 1629.5,-72 1635.5,-72 1635.5,-72 1718.5,-72 1718.5,-72 1724.5,-72 1730.5,-78 1730.5,-84 1730.5,-84 1730.5,-98 1730.5,-98 1730.5,-104 1724.5,-110 1718.5,-110"/>
<text text-anchor="middle" x="1677" y="-94.8" font-family="Times,serif" font-size="14.00" fill="#000000">tanksmith.io</text>
<text text-anchor="middle" x="1677" y="-79.8" font-family="Times,serif" font-size="14.00" fill="#000000">IO Ninja</text>
</g>
<!-- diep.io&#45;&gt;tanksmith.io -->
<g id="edge28" class="edge">
<title>diep.io&#45;&gt;tanksmith.io</title>
<path fill="none" stroke="#000000" d="M1677,-219.9546C1677,-194.7839 1677,-150.1799 1677,-120.5976"/>
<polygon fill="#000000" stroke="#000000" points="1680.5001,-120.4423 1677,-110.4423 1673.5001,-120.4423 1680.5001,-120.4423"/>
</g>
<!-- mope.io -->
<g id="node12" class="node">
<title>mope.io</title>
<path fill="#90caf9" stroke="#90caf9" d="M479.5,-257C479.5,-257 430.5,-257 430.5,-257 424.5,-257 418.5,-251 418.5,-245 418.5,-245 418.5,-233 418.5,-233 418.5,-227 424.5,-221 430.5,-221 430.5,-221 479.5,-221 479.5,-221 485.5,-221 491.5,-227 491.5,-233 491.5,-233 491.5,-245 491.5,-245 491.5,-251 485.5,-257 479.5,-257"/>
<text text-anchor="middle" x="455" y="-235.3" font-family="Times,serif" font-size="14.00" fill="#000000">mope.io</text>
</g>
<!-- deeeep.io&#45;&gt;mope.io -->
<g id="edge29" class="edge">
<title>deeeep.io&#45;&gt;mope.io</title>
<path fill="none" stroke="#000000" d="M400.8164,-239C403.257,-239 405.6977,-239 408.1383,-239"/>
<polygon fill="#000000" stroke="#000000" points="408.1721,-242.5001 418.1721,-239 408.1721,-235.5001 408.1721,-242.5001"/>
</g>
<!-- moomoo.io -->
<g id="node26" class="node">
<title>moomoo.io</title>
<path fill="#90caf9" stroke="#90caf9" d="M207.5,-184C207.5,-184 98.5,-184 98.5,-184 92.5,-184 86.5,-178 86.5,-172 86.5,-172 86.5,-158 86.5,-158 86.5,-152 92.5,-146 98.5,-146 98.5,-146 207.5,-146 207.5,-146 213.5,-146 219.5,-152 219.5,-158 219.5,-158 219.5,-172 219.5,-172 219.5,-178 213.5,-184 207.5,-184"/>
<text text-anchor="middle" x="153" y="-168.8" font-family="Times,serif" font-size="14.00" fill="#000000">moomoo.io</text>
<text text-anchor="middle" x="153" y="-153.8" font-family="Times,serif" font-size="14.00" fill="#000000">Sydney de Vries</text>
</g>
<!-- mope.io&#45;&gt;moomoo.io -->
<g id="edge30" class="edge">
<title>mope.io&#45;&gt;moomoo.io</title>
<path fill="none" stroke="#000000" d="M418.3216,-223.1136C415.1952,-221.9848 412.0593,-220.9281 409,-220 333.9789,-197.2407 310.4265,-201.5071 229.8072,-184.096"/>
<polygon fill="#000000" stroke="#000000" points="230.2047,-180.5996 219.6854,-181.862 228.696,-187.4351 230.2047,-180.5996"/>
</g>
<!-- wilds.io -->
<g id="node16" class="node">
<title>wilds.io</title>
<path fill="#90caf9" stroke="#90caf9" d="M1834.5,-258C1834.5,-258 1783.5,-258 1783.5,-258 1777.5,-258 1771.5,-252 1771.5,-246 1771.5,-246 1771.5,-232 1771.5,-232 1771.5,-226 1777.5,-220 1783.5,-220 1783.5,-220 1834.5,-220 1834.5,-220 1840.5,-220 1846.5,-226 1846.5,-232 1846.5,-232 1846.5,-246 1846.5,-246 1846.5,-252 1840.5,-258 1834.5,-258"/>
<text text-anchor="middle" x="1809" y="-242.8" font-family="Times,serif" font-size="14.00" fill="#000000">wilds.io</text>
<text text-anchor="middle" x="1809" y="-227.8" font-family="Times,serif" font-size="14.00" fill="#000000">Rezoner</text>
</g>
<!-- wanderers.io -->
<g id="node32" class="node">
<title>wanderers.io</title>
<path fill="#90caf9" stroke="#90caf9" d="M1852,-184C1852,-184 1766,-184 1766,-184 1760,-184 1754,-178 1754,-172 1754,-172 1754,-158 1754,-158 1754,-152 1760,-146 1766,-146 1766,-146 1852,-146 1852,-146 1858,-146 1864,-152 1864,-158 1864,-158 1864,-172 1864,-172 1864,-178 1858,-184 1852,-184"/>
<text text-anchor="middle" x="1809" y="-168.8" font-family="Times,serif" font-size="14.00" fill="#000000">wanderers.io</text>
<text text-anchor="middle" x="1809" y="-153.8" font-family="Times,serif" font-size="14.00" fill="#000000">Rezoner</text>
</g>
<!-- wilds.io&#45;&gt;wanderers.io -->
<g id="edge20" class="edge">
<title>wilds.io&#45;&gt;wanderers.io</title>
<path fill="none" stroke="#000000" d="M1809,-219.9432C1809,-212.1493 1809,-202.9538 1809,-194.3381"/>
<polygon fill="#000000" stroke="#000000" points="1812.5001,-194.2494 1809,-184.2495 1805.5001,-194.2495 1812.5001,-194.2494"/>
</g>
<!-- wings.io -->
<g id="node17" class="node">
<title>wings.io</title>
<path fill="#90caf9" stroke="#90caf9" d="M1929,-257C1929,-257 1877,-257 1877,-257 1871,-257 1865,-251 1865,-245 1865,-245 1865,-233 1865,-233 1865,-227 1871,-221 1877,-221 1877,-221 1929,-221 1929,-221 1935,-221 1941,-227 1941,-233 1941,-233 1941,-245 1941,-245 1941,-251 1935,-257 1929,-257"/>
<text text-anchor="middle" x="1903" y="-235.3" font-family="Times,serif" font-size="14.00" fill="#000000">wings.io</text>
</g>
<!-- paper.io -->
<g id="node18" class="node">
<title>paper.io</title>
<path fill="#90caf9" stroke="#90caf9" d="M2021,-258C2021,-258 1971,-258 1971,-258 1965,-258 1959,-252 1959,-246 1959,-246 1959,-232 1959,-232 1959,-226 1965,-220 1971,-220 1971,-220 2021,-220 2021,-220 2027,-220 2033,-226 2033,-232 2033,-232 2033,-246 2033,-246 2033,-252 2027,-258 2021,-258"/>
<text text-anchor="middle" x="1996" y="-242.8" font-family="Times,serif" font-size="14.00" fill="#000000">paper.io</text>
<text text-anchor="middle" x="1996" y="-227.8" font-family="Times,serif" font-size="14.00" fill="#000000">Voodoo</text>
</g>
<!-- splix.io -->
<g id="node19" class="node">
<title>splix.io</title>
<path fill="#90caf9" stroke="#90caf9" d="M2107,-258C2107,-258 2063,-258 2063,-258 2057,-258 2051,-252 2051,-246 2051,-246 2051,-232 2051,-232 2051,-226 2057,-220 2063,-220 2063,-220 2107,-220 2107,-220 2113,-220 2119,-226 2119,-232 2119,-232 2119,-246 2119,-246 2119,-252 2113,-258 2107,-258"/>
<text text-anchor="middle" x="2085" y="-242.8" font-family="Times,serif" font-size="14.00" fill="#000000">splix.io</text>
<text text-anchor="middle" x="2085" y="-227.8" font-family="Times,serif" font-size="14.00" fill="#000000">Jesper</text>
</g>
<!-- paper.io&#45;&gt;splix.io -->
<g id="edge24" class="edge">
<title>paper.io&#45;&gt;splix.io</title>
<path fill="none" stroke="#000000" d="M2033.1992,-239C2035.6464,-239 2038.0935,-239 2040.5406,-239"/>
<polygon fill="#000000" stroke="#000000" points="2040.6011,-242.5001 2050.601,-239 2040.601,-235.5001 2040.6011,-242.5001"/>
</g>
<!-- hexar.io -->
<g id="node34" class="node">
<title>hexar.io</title>
<path fill="#90caf9" stroke="#90caf9" d="M2109.5,-183C2109.5,-183 2060.5,-183 2060.5,-183 2054.5,-183 2048.5,-177 2048.5,-171 2048.5,-171 2048.5,-159 2048.5,-159 2048.5,-153 2054.5,-147 2060.5,-147 2060.5,-147 2109.5,-147 2109.5,-147 2115.5,-147 2121.5,-153 2121.5,-159 2121.5,-159 2121.5,-171 2121.5,-171 2121.5,-177 2115.5,-183 2109.5,-183"/>
<text text-anchor="middle" x="2085" y="-161.3" font-family="Times,serif" font-size="14.00" fill="#000000">hexar.io</text>
</g>
<!-- splix.io&#45;&gt;hexar.io -->
<g id="edge25" class="edge">
<title>splix.io&#45;&gt;hexar.io</title>
<path fill="none" stroke="#000000" d="M2085,-219.9432C2085,-211.8174 2085,-202.1682 2085,-193.2408"/>
<polygon fill="#000000" stroke="#000000" points="2088.5001,-193.2268 2085,-183.2269 2081.5001,-193.2269 2088.5001,-193.2268"/>
</g>
<!-- krew.io -->
<g id="node20" class="node">
<title>krew.io</title>
<path fill="#90caf9" stroke="#90caf9" d="M2193,-258C2193,-258 2149,-258 2149,-258 2143,-258 2137,-252 2137,-246 2137,-246 2137,-232 2137,-232 2137,-226 2143,-220 2149,-220 2149,-220 2193,-220 2193,-220 2199,-220 2205,-226 2205,-232 2205,-232 2205,-246 2205,-246 2205,-252 2199,-258 2193,-258"/>
<text text-anchor="middle" x="2171" y="-242.8" font-family="Times,serif" font-size="14.00" fill="#000000">krew.io</text>
<text text-anchor="middle" x="2171" y="-227.8" font-family="Times,serif" font-size="14.00" fill="#000000">M0dE</text>
</g>
<!-- powerline.io -->
<g id="node21" class="node">
<title>powerline.io</title>
<path fill="#90caf9" stroke="#90caf9" d="M2350,-183C2350,-183 2270,-183 2270,-183 2264,-183 2258,-177 2258,-171 2258,-171 2258,-159 2258,-159 2258,-153 2264,-147 2270,-147 2270,-147 2350,-147 2350,-147 2356,-147 2362,-153 2362,-159 2362,-159 2362,-171 2362,-171 2362,-177 2356,-183 2350,-183"/>
<text text-anchor="middle" x="2310" y="-161.3" font-family="Times,serif" font-size="14.00" fill="#000000">powerline.io</text>
</g>
<!-- stabby.io -->
<g id="node23" class="node">
<title>stabby.io</title>
<path fill="#90caf9" stroke="#90caf9" d="M2448,-184C2448,-184 2392,-184 2392,-184 2386,-184 2380,-178 2380,-172 2380,-172 2380,-158 2380,-158 2380,-152 2386,-146 2392,-146 2392,-146 2448,-146 2448,-146 2454,-146 2460,-152 2460,-158 2460,-158 2460,-172 2460,-172 2460,-178 2454,-184 2448,-184"/>
<text text-anchor="middle" x="2420" y="-168.8" font-family="Times,serif" font-size="14.00" fill="#000000">stabby.io</text>
<text text-anchor="middle" x="2420" y="-153.8" font-family="Times,serif" font-size="14.00" fill="#000000">Arcan</text>
</g>
<!-- foes.io -->
<g id="node24" class="node">
<title>foes.io</title>
<path fill="#90caf9" stroke="#90caf9" d="M569.5,-184C569.5,-184 460.5,-184 460.5,-184 454.5,-184 448.5,-178 448.5,-172 448.5,-172 448.5,-158 448.5,-158 448.5,-152 454.5,-146 460.5,-146 460.5,-146 569.5,-146 569.5,-146 575.5,-146 581.5,-152 581.5,-158 581.5,-158 581.5,-172 581.5,-172 581.5,-178 575.5,-184 569.5,-184"/>
<text text-anchor="middle" x="515" y="-168.8" font-family="Times,serif" font-size="14.00" fill="#000000">foes.io</text>
<text text-anchor="middle" x="515" y="-153.8" font-family="Times,serif" font-size="14.00" fill="#000000">Sydney de Vries</text>
</g>
<!-- zombs.io -->
<g id="node25" class="node">
<title>zombs.io</title>
<path fill="#90caf9" stroke="#90caf9" d="M992,-184C992,-184 936,-184 936,-184 930,-184 924,-178 924,-172 924,-172 924,-158 924,-158 924,-152 930,-146 936,-146 936,-146 992,-146 992,-146 998,-146 1004,-152 1004,-158 1004,-158 1004,-172 1004,-172 1004,-178 998,-184 992,-184"/>
<text text-anchor="middle" x="964" y="-168.8" font-family="Times,serif" font-size="14.00" fill="#000000">zombs.io</text>
<text text-anchor="middle" x="964" y="-153.8" font-family="Times,serif" font-size="14.00" fill="#000000">Yang Lui</text>
</g>
<!-- zombsroyale.io -->
<g id="node39" class="node">
<title>zombsroyale.io</title>
<path fill="#90caf9" stroke="#90caf9" d="M1025,-110C1025,-110 925,-110 925,-110 919,-110 913,-104 913,-98 913,-98 913,-84 913,-84 913,-78 919,-72 925,-72 925,-72 1025,-72 1025,-72 1031,-72 1037,-78 1037,-84 1037,-84 1037,-98 1037,-98 1037,-104 1031,-110 1025,-110"/>
<text text-anchor="middle" x="975" y="-94.8" font-family="Times,serif" font-size="14.00" fill="#000000">zombsroyale.io</text>
<text text-anchor="middle" x="975" y="-79.8" font-family="Times,serif" font-size="14.00" fill="#000000">Yang Lui</text>
</g>
<!-- zombs.io&#45;&gt;zombsroyale.io -->
<g id="edge17" class="edge">
<title>zombs.io&#45;&gt;zombsroyale.io</title>
<path fill="none" stroke="#000000" d="M966.8328,-145.9432C967.9913,-138.1493 969.3582,-128.9538 970.6389,-120.3381"/>
<polygon fill="#000000" stroke="#000000" points="974.1301,-120.6554 972.1386,-110.2495 967.2062,-119.6261 974.1301,-120.6554"/>
</g>
<!-- moomoo.io&#45;&gt;foes.io -->
<g id="edge9" class="edge">
<title>moomoo.io&#45;&gt;foes.io</title>
<path fill="none" stroke="#000000" d="M187.9046,-184.0516C202.8664,-191.1855 220.8254,-198.4241 238,-202 321.5417,-219.3944 346.4583,-219.3944 430,-202 443.686,-199.1504 457.8701,-193.9751 470.6387,-188.3802"/>
<polygon fill="#000000" stroke="#000000" points="472.4594,-191.3962 480.0954,-184.0516 469.5459,-185.0312 472.4594,-191.3962"/>
</g>
<!-- moomoo.io&#45;&gt;zombs.io -->
<g id="edge18" class="edge">
<title>moomoo.io&#45;&gt;zombs.io</title>
<path fill="none" stroke="#000000" d="M187.9046,-184.0516C202.8664,-191.1855 220.8254,-198.4241 238,-202 310.6639,-217.1295 834.7493,-222.7913 906,-202 915.0937,-199.3464 924.1199,-194.7856 932.2474,-189.7541"/>
<polygon fill="#000000" stroke="#000000" points="934.2666,-192.6148 940.6747,-184.1775 930.4037,-186.7772 934.2666,-192.6148"/>
</g>
<!-- starve.io -->
<g id="node27" class="node">
<title>starve.io</title>
<path fill="#90caf9" stroke="#90caf9" d="M894,-184C894,-184 818,-184 818,-184 812,-184 806,-178 806,-172 806,-172 806,-158 806,-158 806,-152 812,-146 818,-146 818,-146 894,-146 894,-146 900,-146 906,-152 906,-158 906,-158 906,-172 906,-172 906,-178 900,-184 894,-184"/>
<text text-anchor="middle" x="856" y="-168.8" font-family="Times,serif" font-size="14.00" fill="#000000">starve.io</text>
<text text-anchor="middle" x="856" y="-153.8" font-family="Times,serif" font-size="14.00" fill="#000000">LapaMauve</text>
</g>
<!-- moomoo.io&#45;&gt;starve.io -->
<g id="edge11" class="edge">
<title>moomoo.io&#45;&gt;starve.io</title>
<path fill="none" stroke="#000000" d="M187.9046,-184.0516C202.8664,-191.1855 220.8254,-198.4241 238,-202 297.828,-214.4569 728.776,-217.0693 788,-202 798.8698,-199.2342 809.879,-194.3398 819.7816,-188.9983"/>
<polygon fill="#000000" stroke="#000000" points="821.5722,-192.0064 828.5289,-184.0156 818.1074,-185.924 821.5722,-192.0064"/>
</g>
<!-- surviv.io -->
<g id="node28" class="node">
<title>surviv.io</title>
<path fill="#90caf9" stroke="#90caf9" d="M418,-184C418,-184 250,-184 250,-184 244,-184 238,-178 238,-172 238,-172 238,-158 238,-158 238,-152 244,-146 250,-146 250,-146 418,-146 418,-146 424,-146 430,-152 430,-158 430,-158 430,-172 430,-172 430,-178 424,-184 418,-184"/>
<text text-anchor="middle" x="334" y="-168.8" font-family="Times,serif" font-size="14.00" fill="#000000">surviv.io</text>
<text text-anchor="middle" x="334" y="-153.8" font-family="Times,serif" font-size="14.00" fill="#000000">Justin Kim &amp; Nick Clark</text>
</g>
<!-- moomoo.io&#45;&gt;surviv.io -->
<g id="edge12" class="edge">
<title>moomoo.io&#45;&gt;surviv.io</title>
<path fill="none" stroke="#000000" d="M219.8145,-165C222.4163,-165 225.0182,-165 227.6201,-165"/>
<polygon fill="#000000" stroke="#000000" points="227.656,-168.5001 237.6559,-165 227.6559,-161.5001 227.656,-168.5001"/>
</g>
<!-- doomed.io -->
<g id="node29" class="node">
<title>doomed.io</title>
<path fill="#90caf9" stroke="#90caf9" d="M678,-184C678,-184 612,-184 612,-184 606,-184 600,-178 600,-172 600,-172 600,-158 600,-158 600,-152 606,-146 612,-146 612,-146 678,-146 678,-146 684,-146 690,-152 690,-158 690,-158 690,-172 690,-172 690,-178 684,-184 678,-184"/>
<text text-anchor="middle" x="645" y="-168.8" font-family="Times,serif" font-size="14.00" fill="#000000">doomed.io</text>
<text text-anchor="middle" x="645" y="-153.8" font-family="Times,serif" font-size="14.00" fill="#000000">Ginoda</text>
</g>
<!-- moomoo.io&#45;&gt;doomed.io -->
<g id="edge10" class="edge">
<title>moomoo.io&#45;&gt;doomed.io</title>
<path fill="none" stroke="#000000" d="M187.9046,-184.0516C202.8664,-191.1855 220.8254,-198.4241 238,-202 312.6219,-217.5371 507.3807,-221.7491 581,-202 591.1338,-199.2815 601.3218,-194.5262 610.4961,-189.312"/>
<polygon fill="#000000" stroke="#000000" points="612.5394,-192.1669 619.2928,-184.0035 608.9226,-186.1737 612.5394,-192.1669"/>
</g>
<!-- devast.io -->
<g id="node37" class="node">
<title>devast.io</title>
<path fill="#90caf9" stroke="#90caf9" d="M883,-110C883,-110 807,-110 807,-110 801,-110 795,-104 795,-98 795,-98 795,-84 795,-84 795,-78 801,-72 807,-72 807,-72 883,-72 883,-72 889,-72 895,-78 895,-84 895,-84 895,-98 895,-98 895,-104 889,-110 883,-110"/>
<text text-anchor="middle" x="845" y="-94.8" font-family="Times,serif" font-size="14.00" fill="#000000">devast.io</text>
<text text-anchor="middle" x="845" y="-79.8" font-family="Times,serif" font-size="14.00" fill="#000000">LapaMauve</text>
</g>
<!-- starve.io&#45;&gt;devast.io -->
<g id="edge23" class="edge">
<title>starve.io&#45;&gt;devast.io</title>
<path fill="none" stroke="#000000" d="M853.1672,-145.9432C852.0087,-138.1493 850.6418,-128.9538 849.3611,-120.3381"/>
<polygon fill="#000000" stroke="#000000" points="852.7938,-119.6261 847.8614,-110.2495 845.8699,-120.6554 852.7938,-119.6261"/>
</g>
<!-- doomed2.io -->
<g id="node40" class="node">
<title>doomed2.io</title>
<path fill="#90caf9" stroke="#90caf9" d="M682.5,-110C682.5,-110 607.5,-110 607.5,-110 601.5,-110 595.5,-104 595.5,-98 595.5,-98 595.5,-84 595.5,-84 595.5,-78 601.5,-72 607.5,-72 607.5,-72 682.5,-72 682.5,-72 688.5,-72 694.5,-78 694.5,-84 694.5,-84 694.5,-98 694.5,-98 694.5,-104 688.5,-110 682.5,-110"/>
<text text-anchor="middle" x="645" y="-94.8" font-family="Times,serif" font-size="14.00" fill="#000000">doomed2.io</text>
<text text-anchor="middle" x="645" y="-79.8" font-family="Times,serif" font-size="14.00" fill="#000000">Ginoda</text>
</g>
<!-- doomed.io&#45;&gt;doomed2.io -->
<g id="edge13" class="edge">
<title>doomed.io&#45;&gt;doomed2.io</title>
<path fill="none" stroke="#000000" d="M645,-145.9432C645,-138.1493 645,-128.9538 645,-120.3381"/>
<polygon fill="#000000" stroke="#000000" points="648.5001,-120.2494 645,-110.2495 641.5001,-120.2495 648.5001,-120.2494"/>
</g>
<!-- nightpoint.io -->
<g id="node30" class="node">
<title>nightpoint.io</title>
<path fill="#90caf9" stroke="#90caf9" d="M2574,-184C2574,-184 2490,-184 2490,-184 2484,-184 2478,-178 2478,-172 2478,-172 2478,-158 2478,-158 2478,-152 2484,-146 2490,-146 2490,-146 2574,-146 2574,-146 2580,-146 2586,-152 2586,-158 2586,-158 2586,-172 2586,-172 2586,-178 2580,-184 2574,-184"/>
<text text-anchor="middle" x="2532" y="-168.8" font-family="Times,serif" font-size="14.00" fill="#000000">nightpoint.io</text>
<text text-anchor="middle" x="2532" y="-153.8" font-family="Times,serif" font-size="14.00" fill="#000000">Sarunas</text>
</g>
<!-- bruh.io -->
<g id="node31" class="node">
<title>bruh.io</title>
<path fill="#90caf9" stroke="#90caf9" d="M2705.5,-184C2705.5,-184 2616.5,-184 2616.5,-184 2610.5,-184 2604.5,-178 2604.5,-172 2604.5,-172 2604.5,-158 2604.5,-158 2604.5,-152 2610.5,-146 2616.5,-146 2616.5,-146 2705.5,-146 2705.5,-146 2711.5,-146 2717.5,-152 2717.5,-158 2717.5,-158 2717.5,-172 2717.5,-172 2717.5,-178 2711.5,-184 2705.5,-184"/>
<text text-anchor="middle" x="2661" y="-168.8" font-family="Times,serif" font-size="14.00" fill="#000000">bruh.io</text>
<text text-anchor="middle" x="2661" y="-153.8" font-family="Times,serif" font-size="14.00" fill="#000000">Bitfox Games</text>
</g>
<!-- nightpoint.io&#45;&gt;bruh.io -->
<g id="edge15" class="edge">
<title>nightpoint.io&#45;&gt;bruh.io</title>
<path fill="none" stroke="#000000" d="M2586.1699,-165C2588.8128,-165 2591.4558,-165 2594.0987,-165"/>
<polygon fill="#000000" stroke="#000000" points="2594.2929,-168.5001 2604.2928,-165 2594.2928,-161.5001 2594.2929,-168.5001"/>
</g>
<!-- battlepoint.io -->
<g id="node41" class="node">
<title>battlepoint.io</title>
<path fill="#90caf9" stroke="#90caf9" d="M2640.5,-110C2640.5,-110 2551.5,-110 2551.5,-110 2545.5,-110 2539.5,-104 2539.5,-98 2539.5,-98 2539.5,-84 2539.5,-84 2539.5,-78 2545.5,-72 2551.5,-72 2551.5,-72 2640.5,-72 2640.5,-72 2646.5,-72 2652.5,-78 2652.5,-84 2652.5,-84 2652.5,-98 2652.5,-98 2652.5,-104 2646.5,-110 2640.5,-110"/>
<text text-anchor="middle" x="2596" y="-94.8" font-family="Times,serif" font-size="14.00" fill="#000000">battlepoint.io</text>
<text text-anchor="middle" x="2596" y="-79.8" font-family="Times,serif" font-size="14.00" fill="#000000">Sarunas</text>
</g>
<!-- nightpoint.io&#45;&gt;battlepoint.io -->
<g id="edge14" class="edge">
<title>nightpoint.io&#45;&gt;battlepoint.io</title>
<path fill="none" stroke="#000000" d="M2548.4816,-145.9432C2555.8148,-137.4641 2564.5827,-127.3262 2572.5789,-118.0806"/>
<polygon fill="#000000" stroke="#000000" points="2575.4576,-120.1027 2579.3518,-110.2495 2570.163,-115.5236 2575.4576,-120.1027"/>
</g>
<!-- bruh.io&#45;&gt;battlepoint.io -->
<g id="edge16" class="edge">
<title>bruh.io&#45;&gt;battlepoint.io</title>
<path fill="none" stroke="#000000" d="M2644.2609,-145.9432C2636.7378,-137.3784 2627.7281,-127.1213 2619.5412,-117.8007"/>
<polygon fill="#000000" stroke="#000000" points="2622.1374,-115.4528 2612.9083,-110.2495 2616.8781,-120.0725 2622.1374,-115.4528"/>
</g>
<!-- brutal.io -->
<g id="node33" class="node">
<title>brutal.io</title>
<path fill="#90caf9" stroke="#90caf9" d="M2800.5,-183C2800.5,-183 2747.5,-183 2747.5,-183 2741.5,-183 2735.5,-177 2735.5,-171 2735.5,-171 2735.5,-159 2735.5,-159 2735.5,-153 2741.5,-147 2747.5,-147 2747.5,-147 2800.5,-147 2800.5,-147 2806.5,-147 2812.5,-153 2812.5,-159 2812.5,-159 2812.5,-171 2812.5,-171 2812.5,-177 2806.5,-183 2800.5,-183"/>
<text text-anchor="middle" x="2774" y="-161.3" font-family="Times,serif" font-size="14.00" fill="#000000">brutal.io</text>
</g>
<!-- superhex.io -->
<g id="node35" class="node">
<title>superhex.io</title>
<path fill="#90caf9" stroke="#90caf9" d="M2228,-183C2228,-183 2152,-183 2152,-183 2146,-183 2140,-177 2140,-171 2140,-171 2140,-159 2140,-159 2140,-153 2146,-147 2152,-147 2152,-147 2228,-147 2228,-147 2234,-147 2240,-153 2240,-159 2240,-159 2240,-171 2240,-171 2240,-177 2234,-183 2228,-183"/>
<text text-anchor="middle" x="2190" y="-161.3" font-family="Times,serif" font-size="14.00" fill="#000000">superhex.io</text>
</g>
<!-- hexar.io&#45;&gt;superhex.io -->
<g id="edge26" class="edge">
<title>hexar.io&#45;&gt;superhex.io</title>
<path fill="none" stroke="#000000" d="M2121.5039,-165C2124.2924,-165 2127.0809,-165 2129.8694,-165"/>
<polygon fill="#000000" stroke="#000000" points="2129.9658,-168.5001 2139.9657,-165 2129.9657,-161.5001 2129.9658,-168.5001"/>
</g>
<!-- krunker.io -->
<g id="node38" class="node">
<title>krunker.io</title>
<path fill="#90caf9" stroke="#90caf9" d="M2791.5,-110C2791.5,-110 2682.5,-110 2682.5,-110 2676.5,-110 2670.5,-104 2670.5,-98 2670.5,-98 2670.5,-84 2670.5,-84 2670.5,-78 2676.5,-72 2682.5,-72 2682.5,-72 2791.5,-72 2791.5,-72 2797.5,-72 2803.5,-78 2803.5,-84 2803.5,-84 2803.5,-98 2803.5,-98 2803.5,-104 2797.5,-110 2791.5,-110"/>
<text text-anchor="middle" x="2737" y="-94.8" font-family="Times,serif" font-size="14.00" fill="#000000">krunker.io</text>
<text text-anchor="middle" x="2737" y="-79.8" font-family="Times,serif" font-size="14.00" fill="#000000">Sydney de Vries</text>
</g>
<!-- buildroyale.io -->
<g id="node42" class="node">
<title>buildroyale.io</title>
<path fill="#90caf9" stroke="#90caf9" d="M1197,-110C1197,-110 1067,-110 1067,-110 1061,-110 1055,-104 1055,-98 1055,-98 1055,-84 1055,-84 1055,-78 1061,-72 1067,-72 1067,-72 1197,-72 1197,-72 1203,-72 1209,-78 1209,-84 1209,-84 1209,-98 1209,-98 1209,-104 1203,-110 1197,-110"/>
<text text-anchor="middle" x="1132" y="-94.8" font-family="Times,serif" font-size="14.00" fill="#000000">buildroyale.io</text>
<text text-anchor="middle" x="1132" y="-79.8" font-family="Times,serif" font-size="14.00" fill="#000000">Mathew Matakovic</text>
</g>
<!-- zombsroyale.io&#45;&gt;buildroyale.io -->
<g id="edge19" class="edge">
<title>zombsroyale.io&#45;&gt;buildroyale.io</title>
<path fill="none" stroke="#000000" d="M1037.248,-91C1039.6943,-91 1042.1406,-91 1044.5869,-91"/>
<polygon fill="#000000" stroke="#000000" points="1044.6439,-94.5001 1054.6439,-91 1044.6439,-87.5001 1044.6439,-94.5001"/>
</g>
</g>
</svg>
