<?xml version="1.0" encoding="UTF-8" standalone="no"?>
<!DOCTYPE svg PUBLIC "-//W3C//DTD SVG 1.1//EN"
 "http://www.w3.org/Graphics/SVG/1.1/DTD/svg11.dtd">
<!-- Generated by graphviz version 2.44.0 (0)
 -->
<!-- Title: legend Pages: 1 -->
<svg width="442pt" height="231pt"
 viewBox="0.00 0.00 442.00 231.00" xmlns="http://www.w3.org/2000/svg" xmlns:xlink="http://www.w3.org/1999/xlink">
<g id="graph0" class="graph" transform="scale(1 1) rotate(0) translate(4 227)">
<title>legend</title>
<polygon fill="white" stroke="transparent" points="-4,4 -4,-227 438,-227 438,4 -4,4"/>
<text text-anchor="start" x="188" y="-208.8" font-family="Times,serif" font-weight="bold" font-size="14.00">Legend</text>
<!-- a -->
<!-- b -->
<!-- a&#45;&gt;b -->
<g id="edge1" class="edge">
<title>a&#45;&gt;b</title>
<path fill="none" stroke="black" d="M116.59,-18C172.81,-18 305.49,-18 369.8,-18"/>
<polygon fill="black" stroke="black" points="369.88,-21.5 379.88,-18 369.88,-14.5 369.88,-21.5"/>
<text text-anchor="middle" x="279.5" y="-21.8" font-family="Times,serif" font-size="14.00">gameplay &quot;inspiration&quot;</text>
</g>
<!-- .io game -->
<g id="node3" class="node">
<title>.io game</title>
<path fill="#90caf9" stroke="#90caf9" d="M116,-90C116,-90 63,-90 63,-90 57,-90 51,-84 51,-78 51,-78 51,-66 51,-66 51,-60 57,-54 63,-54 63,-54 116,-54 116,-54 122,-54 128,-60 128,-66 128,-66 128,-78 128,-78 128,-84 122,-90 116,-90"/>
<text text-anchor="middle" x="89.5" y="-68.3" font-family="Times,serif" font-size="14.00">.io game</text>
</g>
<!-- not .io game\n(by modern standards) -->
<g id="node4" class="node">
<title>not .io game\n(by modern standards)</title>
<path fill="#e1fa91" stroke="#e1fa91" d="M167,-146C167,-146 12,-146 12,-146 6,-146 0,-140 0,-134 0,-134 0,-120 0,-120 0,-114 6,-108 12,-108 12,-108 167,-108 167,-108 173,-108 179,-114 179,-120 179,-120 179,-134 179,-134 179,-140 173,-146 167,-146"/>
<text text-anchor="middle" x="89.5" y="-130.8" font-family="Times,serif" font-size="14.00">not .io game</text>
<text text-anchor="middle" x="89.5" y="-115.8" font-family="Times,serif" font-size="14.00">(by modern standards)</text>
</g>
<!-- battle royale .io game -->
<g id="node5" class="node">
<title>battle royale .io game</title>
<path fill="#fadc91" stroke="#fadc91" d="M164,-200C164,-200 15,-200 15,-200 9,-200 3,-194 3,-188 3,-188 3,-176 3,-176 3,-170 9,-164 15,-164 15,-164 164,-164 164,-164 170,-164 176,-170 176,-176 176,-176 176,-188 176,-188 176,-194 170,-200 164,-200"/>
<text text-anchor="middle" x="89.5" y="-178.3" font-family="Times,serif" font-size="14.00">battle royale .io game</text>
</g>
</g>
</svg>
