<?xml version="1.0" encoding="UTF-8" standalone="no"?>
<!DOCTYPE svg PUBLIC "-//W3C//DTD SVG 1.1//EN"
 "http://www.w3.org/Graphics/SVG/1.1/DTD/svg11.dtd">
<!-- Generated by graphviz version 2.44.1 (20200629.0846)
 -->
<!-- Title: legend Pages: 1 -->
<svg width="365pt" height="231pt"
 viewBox="0.00 0.00 365.00 231.00" xmlns="http://www.w3.org/2000/svg" xmlns:xlink="http://www.w3.org/1999/xlink">
<g id="graph0" class="graph" transform="scale(1 1) rotate(0) translate(4 227)">
<title>legend</title>
<polygon fill="white" stroke="transparent" points="-4,4 -4,-227 361,-227 361,4 -4,4"/>
<text text-anchor="start" x="157" y="-208.8" font-family="Times,serif" font-weight="bold" font-size="14.00">Legend</text>
<!-- a -->
<!-- b -->
<!-- a&#45;&gt;b -->
<g id="edge1" class="edge">
<title>a&#45;&gt;b</title>
<path fill="none" stroke="black" d="M97.16,-18C143.42,-18 239.76,-18 292.52,-18"/>
<polygon fill="black" stroke="black" points="292.77,-21.5 302.77,-18 292.77,-14.5 292.77,-21.5"/>
<text text-anchor="middle" x="221.5" y="-21.8" font-family="Times,serif" font-size="14.00">gameplay &quot;inspiration&quot;</text>
</g>
<!-- .io game -->
<g id="node3" class="node">
<title>.io game</title>
<path fill="#90caf9" stroke="#90caf9" d="M90.5,-90C90.5,-90 49.5,-90 49.5,-90 43.5,-90 37.5,-84 37.5,-78 37.5,-78 37.5,-66 37.5,-66 37.5,-60 43.5,-54 49.5,-54 49.5,-54 90.5,-54 90.5,-54 96.5,-54 102.5,-60 102.5,-66 102.5,-66 102.5,-78 102.5,-78 102.5,-84 96.5,-90 90.5,-90"/>
<text text-anchor="middle" x="70" y="-68.3" font-family="Times,serif" font-size="14.00">.io game</text>
</g>
<!-- not .io game\n(by modern standards) -->
<g id="node4" class="node">
<title>not .io game\n(by modern standards)</title>
<path fill="#e1fa91" stroke="#e1fa91" d="M128,-146C128,-146 12,-146 12,-146 6,-146 0,-140 0,-134 0,-134 0,-120 0,-120 0,-114 6,-108 12,-108 12,-108 128,-108 128,-108 134,-108 140,-114 140,-120 140,-120 140,-134 140,-134 140,-140 134,-146 128,-146"/>
<text text-anchor="middle" x="70" y="-130.8" font-family="Times,serif" font-size="14.00">not .io game</text>
<text text-anchor="middle" x="70" y="-115.8" font-family="Times,serif" font-size="14.00">(by modern standards)</text>
</g>
<!-- battle royale .io game -->
<g id="node5" class="node">
<title>battle royale .io game</title>
<path fill="#fadc91" stroke="#fadc91" d="M126,-200C126,-200 14,-200 14,-200 8,-200 2,-194 2,-188 2,-188 2,-176 2,-176 2,-170 8,-164 14,-164 14,-164 126,-164 126,-164 132,-164 138,-170 138,-176 138,-176 138,-188 138,-188 138,-194 132,-200 126,-200"/>
<text text-anchor="middle" x="70" y="-178.3" font-family="Times,serif" font-size="14.00">battle royale .io game</text>
</g>
</g>
</svg>
