<?xml version="1.0" encoding="UTF-8" standalone="no"?>
<!DOCTYPE svg PUBLIC "-//W3C//DTD SVG 1.1//EN"
 "http://www.w3.org/Graphics/SVG/1.1/DTD/svg11.dtd">
<!-- Generated by graphviz version 2.40.1 (20161225.0304)
 -->
<!-- Title: legend Pages: 1 -->
<svg width="349pt" height="154pt"
 viewBox="0.00 0.00 348.50 154.00" xmlns="http://www.w3.org/2000/svg" xmlns:xlink="http://www.w3.org/1999/xlink">
<g id="graph0" class="graph" transform="scale(1 1) rotate(0) translate(4 150)">
<title>legend</title>
<polygon fill="#ffffff" stroke="transparent" points="-4,4 -4,-150 344.5,-150 344.5,4 -4,4"/>
<text text-anchor="start" x="141.25" y="-131.8" font-family="Times,serif" font-weight="bold" font-size="14.00" fill="#000000">Legend</text>
<!-- a -->
<!-- b -->
<!-- a&#45;&gt;b -->
<g id="edge1" class="edge">
<title>a&#45;&gt;b</title>
<path fill="none" stroke="#000000" d="M27,-86.9735C27,-75.1918 27,-59.5607 27,-46.1581"/>
<polygon fill="#000000" stroke="#000000" points="30.5001,-46.0033 27,-36.0034 23.5001,-46.0034 30.5001,-46.0033"/>
<text text-anchor="middle" x="109.5" y="-57.8" font-family="Times,serif" font-size="14.00" fill="#000000">gameplay &quot;inspiration&quot;</text>
</g>
<!-- .io game -->
<g id="node3" class="node">
<title>.io game</title>
<path fill="#90caf9" stroke="#90caf9" d="M137.5,-123C137.5,-123 84.5,-123 84.5,-123 78.5,-123 72.5,-117 72.5,-111 72.5,-111 72.5,-99 72.5,-99 72.5,-93 78.5,-87 84.5,-87 84.5,-87 137.5,-87 137.5,-87 143.5,-87 149.5,-93 149.5,-99 149.5,-99 149.5,-111 149.5,-111 149.5,-117 143.5,-123 137.5,-123"/>
<text text-anchor="middle" x="111" y="-101.3" font-family="Times,serif" font-size="14.00" fill="#000000">.io game</text>
</g>
<!-- battle royale .io game -->
<g id="node4" class="node">
<title>battle royale .io game</title>
<path fill="#fff176" stroke="#fff176" d="M328.5,-123C328.5,-123 179.5,-123 179.5,-123 173.5,-123 167.5,-117 167.5,-111 167.5,-111 167.5,-99 167.5,-99 167.5,-93 173.5,-87 179.5,-87 179.5,-87 328.5,-87 328.5,-87 334.5,-87 340.5,-93 340.5,-99 340.5,-99 340.5,-111 340.5,-111 340.5,-117 334.5,-123 328.5,-123"/>
<text text-anchor="middle" x="254" y="-101.3" font-family="Times,serif" font-size="14.00" fill="#000000">battle royale .io game</text>
</g>
</g>
</svg>
