<?xml version="1.0" encoding="UTF-8" standalone="no"?>
<!DOCTYPE svg PUBLIC "-//W3C//DTD SVG 1.1//EN"
 "http://www.w3.org/Graphics/SVG/1.1/DTD/svg11.dtd">
<!-- Generated by graphviz version 2.40.1 (20161225.0304)
 -->
<!-- Title: legend Pages: 1 -->
<svg width="436pt" height="175pt"
 viewBox="0.00 0.00 436.00 175.00" xmlns="http://www.w3.org/2000/svg" xmlns:xlink="http://www.w3.org/1999/xlink">
<g id="graph0" class="graph" transform="scale(1 1) rotate(0) translate(4 171)">
<title>legend</title>
<polygon fill="#ffffff" stroke="transparent" points="-4,4 -4,-171 432,-171 432,4 -4,4"/>
<text text-anchor="start" x="185" y="-152.8" font-family="Times,serif" font-weight="bold" font-size="14.00" fill="#000000">Legend</text>
<!-- a -->
<!-- b -->
<!-- a&#45;&gt;b -->
<g id="edge1" class="edge">
<title>a&#45;&gt;b</title>
<path fill="none" stroke="#000000" d="M113.5863,-18C113.5863,-18 363.8673,-18 363.8673,-18"/>
<polygon fill="#000000" stroke="#000000" points="363.8674,-21.5001 373.8673,-18 363.8673,-14.5001 363.8674,-21.5001"/>
<text text-anchor="middle" x="273.5" y="-21.8" font-family="Times,serif" font-size="14.00" fill="#000000">gameplay &quot;inspiration&quot;</text>
</g>
<!-- .io game -->
<g id="node3" class="node">
<title>.io game</title>
<path fill="#90caf9" stroke="#90caf9" d="M113,-90C113,-90 60,-90 60,-90 54,-90 48,-84 48,-78 48,-78 48,-66 48,-66 48,-60 54,-54 60,-54 60,-54 113,-54 113,-54 119,-54 125,-60 125,-66 125,-66 125,-78 125,-78 125,-84 119,-90 113,-90"/>
<text text-anchor="middle" x="86.5" y="-68.3" font-family="Times,serif" font-size="14.00" fill="#000000">.io game</text>
</g>
<!-- battle royale .io game -->
<g id="node4" class="node">
<title>battle royale .io game</title>
<path fill="#fff176" stroke="#fff176" d="M161,-144C161,-144 12,-144 12,-144 6,-144 0,-138 0,-132 0,-132 0,-120 0,-120 0,-114 6,-108 12,-108 12,-108 161,-108 161,-108 167,-108 173,-114 173,-120 173,-120 173,-132 173,-132 173,-138 167,-144 161,-144"/>
<text text-anchor="middle" x="86.5" y="-122.3" font-family="Times,serif" font-size="14.00" fill="#000000">battle royale .io game</text>
</g>
</g>
</svg>
