<?xml version="1.0" encoding="UTF-8" standalone="no"?>
<!DOCTYPE svg PUBLIC "-//W3C//DTD SVG 1.1//EN"
 "http://www.w3.org/Graphics/SVG/1.1/DTD/svg11.dtd">
<!-- Generated by graphviz version 2.43.0 (0)
 -->
<!-- Title: legend Pages: 1 -->
<svg width="434pt" height="177pt"
 viewBox="0.00 0.00 434.00 177.00" xmlns="http://www.w3.org/2000/svg" xmlns:xlink="http://www.w3.org/1999/xlink">
<g id="graph0" class="graph" transform="scale(1 1) rotate(0) translate(4 173)">
<title>legend</title>
<polygon fill="white" stroke="transparent" points="-4,4 -4,-173 430,-173 430,4 -4,4"/>
<text text-anchor="start" x="184" y="-154.8" font-family="Times-Roman" font-weight="bold" font-size="14.00">Legend</text>
<!-- a -->
<!-- b -->
<!-- a&#45;&gt;b -->
<g id="edge1" class="edge">
<title>a&#45;&gt;b</title>
<path fill="none" stroke="black" d="M115.08,-18C170.1,-18 298.16,-18 361.37,-18"/>
<polygon fill="black" stroke="black" points="361.66,-21.5 371.66,-18 361.66,-14.5 361.66,-21.5"/>
<text text-anchor="middle" x="274" y="-21.8" font-family="Times-Roman" font-size="14.00">gameplay &quot;inspiration&quot;</text>
</g>
<!-- .io game -->
<g id="node3" class="node">
<title>.io game</title>
<path fill="#90caf9" stroke="#90caf9" d="M114.5,-90C114.5,-90 61.5,-90 61.5,-90 55.5,-90 49.5,-84 49.5,-78 49.5,-78 49.5,-66 49.5,-66 49.5,-60 55.5,-54 61.5,-54 61.5,-54 114.5,-54 114.5,-54 120.5,-54 126.5,-60 126.5,-66 126.5,-66 126.5,-78 126.5,-78 126.5,-84 120.5,-90 114.5,-90"/>
<text text-anchor="middle" x="88" y="-68.3" font-family="Times-Roman" font-size="14.00">.io game</text>
</g>
<!-- not .io game\n(by modern standards) -->
<g id="node4" class="node">
<title>not .io game\n(by modern standards)</title>
<path fill="#e1fa91" stroke="#e1fa91" d="M164,-146C164,-146 12,-146 12,-146 6,-146 0,-140 0,-134 0,-134 0,-120 0,-120 0,-114 6,-108 12,-108 12,-108 164,-108 164,-108 170,-108 176,-114 176,-120 176,-120 176,-134 176,-134 176,-140 170,-146 164,-146"/>
<text text-anchor="middle" x="88" y="-130.8" font-family="Times-Roman" font-size="14.00">not .io game</text>
<text text-anchor="middle" x="88" y="-115.8" font-family="Times-Roman" font-size="14.00">(by modern standards)</text>
</g>
</g>
</svg>
